<?xml version="1.0" encoding="UTF-8" standalone="no"?>
<!-- Created with Inkscape (http://www.inkscape.org/) -->

<svg
   xmlns:dc="http://purl.org/dc/elements/1.1/"
   xmlns:cc="http://creativecommons.org/ns#"
   xmlns:rdf="http://www.w3.org/1999/02/22-rdf-syntax-ns#"
   xmlns:svg="http://www.w3.org/2000/svg"
   xmlns="http://www.w3.org/2000/svg"
   xmlns:sodipodi="http://sodipodi.sourceforge.net/DTD/sodipodi-0.dtd"
   xmlns:inkscape="http://www.inkscape.org/namespaces/inkscape"
   width="49.999962mm"
   height="48.950527mm"
   viewBox="0 0 177.16522 173.44675"
   id="svg2"
   version="1.1"
   inkscape:version="0.91 r13725"
   sodipodi:docname="youmu.svg">
  <defs
     id="defs4" />
  <sodipodi:namedview
     id="base"
     pagecolor="#ffffff"
     bordercolor="#666666"
     borderopacity="1.0"
     inkscape:pageopacity="0.0"
     inkscape:pageshadow="2"
     inkscape:zoom="2.8812982"
     inkscape:cx="88.58285"
     inkscape:cy="86.723415"
     inkscape:document-units="px"
     inkscape:current-layer="layer1"
     showgrid="false"
     fit-margin-top="0"
     fit-margin-left="0"
     fit-margin-right="0"
     fit-margin-bottom="0"
     inkscape:window-width="1536"
     inkscape:window-height="803"
     inkscape:window-x="-8"
     inkscape:window-y="-8"
     inkscape:window-maximized="1" />
  <metadata
     id="metadata7">
    <rdf:RDF>
      <cc:Work
         rdf:about="">
        <dc:format>image/svg+xml</dc:format>
        <dc:type
           rdf:resource="http://purl.org/dc/dcmitype/StillImage" />
        <dc:title></dc:title>
      </cc:Work>
    </rdf:RDF>
  </metadata>
  <g
     inkscape:label="Layer 1"
     inkscape:groupmode="layer"
     id="layer1"
     transform="translate(-286.10069,-467.97668)">
    <path
       style="fill:#0000ff"
       d="m 327.60291,641.06105 c -1.18176,-0.6506 -2.24039,-1.8009 -2.24039,-2.43438 0,-0.32057 -0.27302,-1.0875 -0.60672,-1.7043 -0.33371,-0.6168 -0.5584,-1.24742 -0.49932,-1.40137 0.0591,-0.15397 0.007,-0.44007 -0.1148,-0.63578 -0.25109,-0.40205 -0.0613,-2.52506 0.24255,-2.71282 0.1015,-0.0627 0.18454,-0.2675 0.18454,-0.45504 0,-0.58631 2.08946,-2.23807 2.94983,-2.33191 0.28756,-0.0313 0.83537,-0.11805 1.21736,-0.19263 0.382,-0.0746 1.16725,-0.15916 1.74501,-0.18794 0.57776,-0.0288 1.20284,-0.18218 1.38906,-0.34089 0.18623,-0.15871 0.87437,-0.44539 1.52921,-0.63706 1.15432,-0.33786 1.98555,-0.69233 4.64046,-1.97885 0.73488,-0.3561 1.75205,-1.09198 2.42185,-1.75209 1.14682,-1.13023 1.15407,-1.14468 1.04536,-2.0836 -0.10595,-0.91489 -0.088,-0.95641 0.5547,-1.28346 0.36531,-0.18589 1.23976,-0.56624 1.94323,-0.84522 0.70347,-0.27898 1.49294,-0.70732 1.75436,-0.95186 0.66991,-0.62665 1.54443,-1.96231 1.70582,-2.60528 0.0908,-0.36188 0.33326,-0.61237 0.7248,-0.74886 0.32357,-0.11279 0.58832,-0.29092 0.58832,-0.39582 0,-0.10491 0.0875,-0.13669 0.19434,-0.0706 0.10689,0.0661 0.37618,0.0228 0.59843,-0.0962 0.5248,-0.28086 2.28388,-1.84325 2.28339,-2.02808 -2e-4,-0.0783 0.13357,-0.30415 0.29728,-0.50186 1.40571,-1.69765 2.27157,-2.91046 2.72764,-3.82058 0.13673,-0.27285 0.42596,-0.76399 0.64274,-1.09141 0.21678,-0.32742 0.63044,-1.08645 0.91925,-1.68672 0.28881,-0.60027 0.58533,-1.13606 0.65895,-1.19062 0.23578,-0.17477 1.53201,-3.42906 1.88586,-4.73461 0.18812,-0.69407 0.50921,-1.65196 0.71354,-2.12865 0.33432,-0.77994 1.93786,-3.0478 2.67915,-3.78909 0.15953,-0.15953 0.29006,-0.36878 0.29006,-0.46499 0,-0.31984 -0.458,-1.18579 -0.62717,-1.18579 -0.0916,0 -0.16658,-0.12189 -0.16658,-0.27087 0,-0.14898 -0.35698,-0.79639 -0.79328,-1.43867 -0.4363,-0.64229 -0.79349,-1.27489 -0.79375,-1.40578 -0.002,-0.63378 -3.07209,-2.65089 -3.56855,-2.34405 -0.11875,0.0734 -2.11039,0.21327 -4.42587,0.31084 -2.31547,0.0976 -5.37082,0.27269 -6.78965,0.38914 -3.01519,0.24748 -21.3731,0.33898 -24.70545,0.12314 -1.25513,-0.0813 -2.63922,-0.24443 -3.07578,-0.36251 -0.96069,-0.25985 -1.57165,-0.36618 -2.45212,-0.42679 -0.3664,-0.0252 -0.76823,-0.18543 -0.89297,-0.35602 -0.12474,-0.17058 -0.31609,-0.32787 -0.42523,-0.34953 -0.62916,-0.12485 -2.08359,-0.73388 -2.08359,-0.87249 0,-0.09 -0.0868,-0.10995 -0.19283,-0.0444 -0.10607,0.0655 -0.41468,-0.0262 -0.68581,-0.20383 -0.27114,-0.17765 -0.56959,-0.27566 -0.66323,-0.21778 -0.222,0.1372 -3.64451,-1.56537 -3.47913,-1.73075 0.0694,-0.0694 -2.1e-4,-0.12654 -0.15492,-0.12695 -0.4322,-0.002 -2.54199,-1.10083 -3.07789,-1.60427 -0.26259,-0.24671 -0.47744,-0.38225 -0.47744,-0.30122 0,0.21502 -1.13989,-0.63163 -2.23892,-1.66296 -0.52496,-0.4926 -1.5868,-1.43143 -2.35964,-2.08628 -1.96769,-1.66725 -4.13489,-3.90575 -5.47415,-5.65424 -0.62646,-0.81788 -1.33993,-1.65036 -1.58549,-1.84994 -0.24557,-0.1996 -0.44648,-0.44572 -0.44648,-0.54693 0,-0.10123 -0.15628,-0.34976 -0.34728,-0.55231 -1.15798,-1.22802 -1.62812,-1.81868 -2.12268,-2.66687 -0.30516,-0.52335 -0.51001,-0.99635 -0.45525,-1.05112 0.0548,-0.0548 0.52691,0.139 1.0492,0.43058 0.89769,0.50118 2.23056,1.00617 4.95179,1.87614 0.65483,0.20935 1.36921,0.46453 1.58749,0.56705 0.8479,0.39828 4.03572,1.05318 6.35,1.30454 0.65485,0.0711 1.81571,0.25309 2.57969,0.40435 0.76398,0.15126 1.52301,0.26162 1.68672,0.24525 0.16371,-0.0163 0.65484,0.0438 1.0914,0.13367 2.76107,0.56847 7.8949,1.57305 8.73125,1.7085 0.54571,0.0884 1.79586,0.30602 2.77812,0.48362 1.64933,0.2982 3.94324,0.60271 10.41798,1.38293 1.36425,0.1644 3.08404,0.35372 3.82174,0.42073 0.73771,0.067 1.29569,0.19559 1.23997,0.28576 -0.0557,0.0902 0.0774,0.11721 0.29582,0.0601 0.21843,-0.0571 0.39715,-0.18008 0.39715,-0.27325 0,-0.0932 -0.57238,-0.7503 -1.27195,-1.46028 -1.7623,-1.78852 -2.90169,-3.33791 -3.97762,-5.40896 -0.74855,-1.44087 -0.94023,-2.02539 -1.03505,-3.15637 -0.21213,-2.53036 0.57858,-4.29589 3.08718,-6.89315 1.60898,-1.66586 3.18064,-2.677 6.07479,-3.90831 0.94219,-0.40085 4.90128,-0.78623 9.22734,-0.89819 2.71912,-0.0704 5.24239,-0.23741 6.05234,-0.40064 0.76398,-0.15398 1.74625,-0.28518 2.18281,-0.29156 0.89224,-0.0131 3.14024,-0.56983 3.81992,-0.94613 0.28623,-0.15846 0.44649,-0.17255 0.44649,-0.0393 0,0.11436 0.35541,-0.0164 0.78981,-0.29067 0.43439,-0.27422 0.87066,-0.49858 0.9695,-0.49858 0.0988,0 0.40141,-0.11503 0.67239,-0.25561 l 0.4927,-0.25561 -0.51963,-0.25069 c -0.28579,-0.13787 -1.54653,-0.47757 -2.80165,-0.75489 -1.25512,-0.27732 -2.85393,-0.63145 -3.55292,-0.78693 -2.9067,-0.64659 -5.8987,-1.51971 -6.26973,-1.82961 -0.62312,-0.52048 -1.24906,-0.82759 -1.68672,-0.82759 -0.22125,0 -0.55732,-0.0845 -0.74683,-0.18783 -0.18952,-0.1033 -0.93976,-0.41565 -1.66722,-0.69411 -0.72746,-0.27846 -1.57578,-0.63689 -1.88516,-0.79651 -0.924,-0.47674 -2.8083,-1.29812 -2.97793,-1.29812 -0.24207,0 -2.30041,-1.05899 -2.60349,-1.33945 -0.14742,-0.13643 -0.33954,-0.24805 -0.42694,-0.24805 -0.0874,0 -0.98646,-0.49653 -1.99789,-1.1034 -1.08488,-0.65092 -1.91197,-1.03042 -2.01695,-0.92544 -0.0979,0.0979 -0.21424,1.06321 -0.25859,2.1452 -0.10404,2.53828 -0.27782,4.24688 -0.48262,4.74536 -0.0897,0.21828 -0.24375,0.66477 -0.34238,0.99218 -0.21505,0.7139 -0.91181,0.89406 -1.47755,0.38207 -0.4728,-0.42788 -0.47425,-0.58385 -0.0116,-1.2444 0.3864,-0.55163 1.10905,-2.49564 1.11788,-3.0072 0.003,-0.1637 0.10436,-0.47624 0.22563,-0.69452 0.36445,-0.65598 0.50966,-3.10227 0.21792,-3.6711 -0.22667,-0.44194 -1.4271,-1.181 -2.072,-1.27565 -0.13275,-0.0195 -0.49025,-0.25389 -0.79446,-0.5209 -0.3042,-0.26701 -1.04403,-0.74375 -1.64406,-1.05941 -0.60002,-0.31566 -1.26954,-0.72214 -1.48782,-0.90329 -0.21829,-0.18115 -0.73666,-0.50332 -1.15194,-0.71592 -0.41528,-0.2126 -0.94619,-0.58947 -1.1798,-0.83749 -0.40303,-0.42791 -0.41177,-0.51409 -0.17101,-1.68672 0.6317,-3.07674 3.08824,-5.52235 4.18569,-4.16706 0.17482,0.2159 0.51758,0.49944 0.76169,0.63007 0.2441,0.13065 0.39204,0.32133 0.32874,0.42374 -0.0635,0.10275 0.0279,0.13133 0.20399,0.0638 0.19452,-0.0746 0.48241,0.0529 0.73752,0.32672 0.3798,0.40766 0.44038,0.41916 0.65586,0.12447 0.24389,-0.33354 0.17211,-1.2483 -0.12797,-1.63077 -0.0928,-0.11834 -0.20913,-0.52997 -0.25839,-0.91475 -0.12527,-0.97842 -0.64629,-2.93513 -1.01918,-3.82759 -0.32572,-0.77955 -1.56712,-2.098 -1.95116,-2.07226 -0.12117,0.008 -0.57748,0.46433 -1.01404,1.01381 -1.51486,1.90666 -3.8207,2.68147 -4.98911,1.67644 -0.53149,-0.45717 -0.53933,-0.4937 -0.28735,-1.33946 0.14247,-0.4782 0.51065,-1.24357 0.81816,-1.70082 0.44196,-0.65714 0.50602,-0.87544 0.30568,-1.04171 -0.18464,-0.15323 -0.50675,-0.0757 -1.18631,0.28565 -0.51308,0.27281 -0.9705,0.49601 -1.01649,0.49601 -0.15112,0 -0.68913,-1.16382 -0.68913,-1.49072 0,-0.17588 0.22606,-0.79764 0.50236,-1.38168 0.54179,-1.14527 1.10489,-1.49322 2.41651,-1.49322 0.64243,0 0.67201,-0.0307 0.58186,-0.60264 -0.11204,-0.71089 0.3395,-1.23155 1.55943,-1.79812 1.032,-0.4793 1.7371,-0.473 2.18281,0.0195 0.49322,0.54501 0.6572,0.50619 1.37647,-0.32588 0.60493,-0.6998 0.66862,-0.72306 2.0054,-0.73219 2.10452,-0.0144 2.6173,0.41314 1.9781,1.64922 l -0.2955,0.57143 0.92315,-0.0904 c 0.97398,-0.0954 2.58607,0.32859 3.39646,0.89324 0.37877,0.26393 0.43906,0.4487 0.36227,1.11036 -0.1211,1.04349 -1.59715,2.42886 -2.68499,2.52006 -0.65396,0.0548 -0.70857,0.10767 -0.67684,0.65494 0.0659,1.13637 -0.10171,1.42994 -1.12062,1.96272 -0.5446,0.28476 -1.20552,0.51775 -1.46871,0.51775 -0.26318,0 -0.52094,0.11162 -0.57281,0.24805 -0.1317,0.34644 0.40515,2.34924 0.72911,2.72003 0.14711,0.16837 0.32992,0.82514 0.40623,1.45945 0.0831,0.69059 0.24848,1.19542 0.41224,1.25826 0.15042,0.0578 0.80621,-0.30497 1.45731,-0.80598 1.66406,-1.28046 5.57976,-2.73838 5.57976,-2.07749 0,0.10872 0.0893,0.14248 0.19844,0.075 0.10913,-0.0674 0.31006,-0.0518 0.44648,0.0349 0.13643,0.0866 0.33734,0.15887 0.44649,0.16054 0.10914,0.002 0.1895,0.11466 0.17859,0.25108 -0.0109,0.13643 -0.0341,0.40432 -0.0516,0.59532 -0.0204,0.22366 -0.3665,0.46402 -0.97235,0.67529 -0.51734,0.18043 -1.47285,0.52267 -2.12335,0.76055 -0.65049,0.23788 -1.42713,0.39664 -1.72585,0.35279 -0.29872,-0.0438 -0.5031,-0.0149 -0.4542,0.0642 0.049,0.0791 -0.35996,0.20562 -0.9086,0.28108 -1.20632,0.16591 -1.62576,0.52417 -1.46805,1.2539 0.22149,1.02485 0.51954,1.35709 1.73503,1.93398 0.67414,0.31996 1.3821,0.73802 1.57326,0.92901 0.19115,0.191 0.41452,0.34834 0.49637,0.34964 0.49696,0.008 0.81084,0.24836 0.70029,0.53643 -0.0797,0.20772 -0.0442,0.27149 0.10108,0.18168 0.12315,-0.0761 0.88877,0.17714 1.70139,0.56276 0.81263,0.38562 1.53635,0.70113 1.60828,0.70113 0.0719,0 0.7279,0.27937 1.45771,0.62082 2.44532,1.14404 2.90772,1.3448 4.30351,1.86847 0.76399,0.28663 1.47836,0.59191 1.58751,0.67842 0.10913,0.0865 0.90222,0.398 1.76241,0.69222 0.86019,0.29421 2.03103,0.74857 2.60186,1.00968 0.57084,0.26111 1.42974,0.53447 1.90868,0.60748 0.47894,0.073 1.85306,0.39262 3.05361,0.71026 1.20055,0.31763 3.20972,0.84535 4.46484,1.1727 1.25511,0.32736 2.46062,0.67498 2.6789,0.77249 1.18029,0.52726 3.98987,1.08405 4.15139,0.8227 0.063,-0.10178 -0.19802,-0.64927 -0.57983,-1.21665 -0.4207,-0.62515 -0.69421,-1.27299 -0.69421,-1.6443 0,-0.72555 0.78214,-1.96894 1.15132,-1.83026 0.14209,0.0534 0.20264,0.007 0.13455,-0.10327 -0.0681,-0.11018 0.17283,-0.33553 0.53539,-0.50078 1.92174,-0.87591 3.69506,-2.34623 4.65355,-3.85842 0.3113,-0.49113 0.63826,-0.94563 0.72657,-1.01 0.27212,-0.19835 -0.0807,-2.03255 -0.49146,-2.55469 -0.21362,-0.27158 -0.29918,-0.52352 -0.19014,-0.55986 0.13089,-0.0436 0.12788,-0.26801 -0.009,-0.66022 -0.27504,-0.78899 -0.0419,-3.43708 0.3739,-4.24601 0.11165,-0.21725 0.258,-0.6852 0.32522,-1.03991 0.15213,-0.80279 0.85177,-2.36164 1.13987,-2.53969 0.30153,-0.18637 0.0394,-1.08685 -0.43665,-1.49968 -0.39327,-0.34108 -0.39323,-0.34259 0.0133,-0.47162 0.46981,-0.14911 0.53381,-0.813 0.12969,-1.3455 -0.19269,-0.25392 -0.50983,-0.34061 -1.15659,-0.31614 -0.56613,0.0214 -1.2135,-0.12238 -1.77521,-0.3943 -0.48626,-0.2354 -0.98386,-0.428 -1.10576,-0.428 -0.12189,0 -0.27686,-0.17402 -0.34437,-0.38672 -0.0675,-0.2127 -0.30631,-0.44499 -0.53068,-0.5162 -0.22436,-0.0712 -0.55466,-0.24854 -0.73399,-0.39407 -0.82335,-0.66817 -2.22577,-1.67957 -2.3289,-1.67957 -0.25,0 -2.39551,-1.81543 -2.90136,-2.45499 -0.29622,-0.37452 -0.68747,-1.2737 -0.86945,-1.99816 -0.38837,-1.54612 -0.80733,-1.65763 -0.71116,-0.18928 0.0945,1.44339 0.63112,2.43889 1.93896,3.59731 1.37537,1.21822 3.53475,2.81569 4.96099,3.67006 l 1.01045,0.60528 -0.37835,0.78312 -0.37837,0.78312 -1.17815,-0.0666 c -0.64798,-0.0366 -1.17799,-0.007 -1.17779,0.0665 2e-4,0.0731 -0.26007,0.19026 -0.57838,0.26018 -0.3183,0.0699 -0.62746,0.25409 -0.68701,0.40929 -0.21193,0.55229 -0.67024,0.0618 -0.7701,-0.82417 -0.14701,-1.3043 -0.49967,-1.4985 -0.63101,-0.34749 -0.0482,0.42212 -0.15971,0.55452 -0.43528,0.51665 -0.20378,-0.028 -0.50446,-0.0449 -0.66817,-0.0376 -0.16371,0.007 -0.87808,0.0365 -1.5875,0.0651 -0.70941,0.0284 -1.54122,0.15703 -1.84847,0.28568 -0.30724,0.12866 -0.6421,0.23392 -0.74413,0.23392 -0.10204,0 -0.18552,0.0893 -0.18552,0.19844 0,0.10913 -0.14573,0.19844 -0.32384,0.19844 -0.17811,0 -0.62459,0.31889 -0.99218,0.70865 -0.3676,0.38977 -0.66836,0.64672 -0.66836,0.57101 0,-0.0757 -0.1361,-0.0247 -0.30245,0.11338 -0.16635,0.13806 -0.34533,0.20813 -0.39773,0.15572 -0.0941,-0.0941 0.34763,-1.16967 0.71757,-1.7472 0.27735,-0.43298 1.09637,-2.20804 1.25895,-2.72852 0.17452,-0.55871 -0.146,-0.58463 -0.67598,-0.0547 -0.46498,0.46499 -1.30106,0.71302 -1.47187,0.43664 -0.0666,-0.10773 0.34783,-0.58255 0.92093,-1.05514 1.16363,-0.95958 1.35886,-1.18023 1.27619,-1.44228 -0.0314,-0.0994 0.14315,-0.39665 0.38778,-0.66061 0.24462,-0.26395 0.50207,-0.74075 0.57209,-1.05956 0.07,-0.31879 0.19193,-0.57962 0.27092,-0.57962 0.34896,0 1.61029,-4.94084 1.61062,-6.30909 1.3e-4,-0.51237 0.0752,-0.64102 0.34743,-0.59532 0.23441,0.0394 0.34727,-0.0706 0.34727,-0.33857 0,-0.33885 -0.15229,-0.40563 -1.0418,-0.45685 -0.57299,-0.033 -1.04175,-0.0776 -1.04169,-0.0992 5e-5,-0.0216 0.17864,-0.50901 0.39687,-1.08317 0.82519,-2.17109 0.2455,-2.5388 -0.74912,-0.47516 l -0.6498,1.34821 -1.69655,-0.0891 c -0.99898,-0.0524 -1.8741,-0.002 -2.12832,0.12421 -0.23748,0.1173 -0.84379,0.39343 -1.34735,0.61363 -0.86023,0.37617 -2.16021,1.58543 -2.16021,2.00946 0,0.10534 -0.13675,0.19153 -0.30388,0.19153 -0.36512,0 -0.63017,-0.5822 -0.34788,-0.76417 0.10989,-0.0709 0.26505,-0.57528 0.3448,-1.12099 0.21144,-1.44683 0.64587,-3.07306 1.51878,-5.68542 0.42491,-1.27159 0.77256,-2.46725 0.77256,-2.65703 0,-0.18977 0.13649,-0.44485 0.30331,-0.56683 0.36363,-0.26589 0.49371,-1.40946 0.16033,-1.40946 -0.30929,0 -1.65747,1.71944 -1.52114,1.94003 0.0591,0.0956 -0.15485,0.50186 -0.4754,0.90282 -0.64769,0.81013 -1.41392,2.88206 -1.95747,5.29308 -0.42322,1.87731 -0.63659,1.41615 -0.27395,-0.59211 0.13828,-0.76574 0.27556,-1.74945 0.30507,-2.18601 0.0559,-0.82633 0.5272,-2.41899 0.96898,-3.27422 0.14095,-0.27285 0.3626,-0.82669 0.49256,-1.23075 0.12996,-0.40406 0.7219,-1.5402 1.31544,-2.52473 1.15219,-1.91123 1.2436,-2.211 0.78917,-2.58814 -0.15948,-0.13236 -0.34492,-0.41378 -0.41207,-0.62538 -0.0672,-0.21159 -1.05288,-1.29175 -2.1905,-2.40036 -1.13762,-1.10861 -2.0684,-2.11113 -2.0684,-2.22783 0,-0.11669 -0.26788,-0.33075 -0.59531,-0.47569 -0.32742,-0.14493 -0.59553,-0.36765 -0.59579,-0.49493 -2.7e-4,-0.12727 -0.77199,-0.94578 -1.71494,-1.81891 -0.94295,-0.87312 -2.09776,-1.96075 -2.56623,-2.41693 -1.05339,-1.02576 -1.39626,-1.21224 -2.67455,-1.45466 -0.82023,-0.15556 -1.07019,-0.13583 -1.30936,0.10334 -0.16258,0.16258 -0.51246,0.2956 -0.77752,0.2956 -0.26506,0 -0.48192,0.091 -0.48192,0.20222 0,0.11964 -0.21465,0.14834 -0.52569,0.0702 -0.40058,-0.10054 -0.48799,-0.071 -0.36728,0.12438 0.12251,0.19822 0.0281,0.2226 -0.41688,0.10754 -0.31642,-0.0818 -0.67792,-0.16575 -0.80333,-0.18647 -0.12542,-0.0207 -0.37051,-0.15593 -0.54465,-0.30045 -0.17414,-0.14453 -0.49569,-0.21595 -0.71455,-0.15871 -0.22743,0.0595 -0.40059,0.005 -0.40412,-0.12541 -0.003,-0.12621 -0.20549,0.0945 -0.44907,0.49034 -0.80143,1.30258 -1.57558,1.87517 -2.49213,1.84327 -0.78009,-0.0272 -1.50267,-0.38076 -1.33442,-0.65299 0.10469,-0.16941 -0.46089,-0.93795 -0.62473,-0.84889 -0.0699,0.0379 -0.33032,-0.31122 -0.57888,-0.77595 -0.24857,-0.46473 -0.52949,-0.9225 -0.62427,-1.01728 -0.22752,-0.22752 -11.27377,0.5424 -13.83327,0.96417 -1.09141,0.17986 -2.11833,0.34506 -2.28204,0.36714 -0.16371,0.0221 -0.4316,0.0875 -0.59531,0.14543 -0.44427,0.15714 -4.80781,0.94895 -5.20898,0.94523 -0.191,-0.002 -0.34727,0.0878 -0.34727,0.19899 0,0.11453 -0.20712,0.15024 -0.47761,0.0824 -0.26269,-0.0659 -0.66341,-0.0204 -0.89051,0.10111 -0.2271,0.12153 -1.0614,0.34178 -1.85403,0.48943 -0.79262,0.14766 -2.46804,0.53804 -3.72316,0.86752 -1.25512,0.32947 -2.61937,0.65712 -3.03168,0.72809 -0.41231,0.0709 -0.70841,0.19577 -0.65799,0.27734 0.0504,0.0816 -0.74739,0.35897 -1.77289,0.61643 -1.02551,0.25746 -1.81803,0.5434 -1.76116,0.63541 0.10154,0.1643 -0.46442,0.26044 -1.17179,0.19904 -0.19734,-0.0171 -0.31204,0.0445 -0.25491,0.13694 0.0571,0.0924 -0.40648,0.27872 -1.03026,0.41394 -0.62379,0.13521 -1.43539,0.37578 -1.80356,0.5346 -0.60413,0.26061 -0.65756,0.25791 -0.54798,-0.0277 0.0703,-0.18327 0.0389,-0.26541 -0.0747,-0.19519 -0.10789,0.0666 -0.19616,0.24991 -0.19616,0.40718 0,0.31498 -0.17443,0.35825 -0.53069,0.13165 -0.25333,-0.16113 0.91298,-1.63164 1.29411,-1.63164 0.11391,0 0.32441,-0.24475 0.46779,-0.5439 0.14337,-0.29914 0.48864,-0.65315 0.76727,-0.7867 0.27862,-0.13354 0.62776,-0.46921 0.77586,-0.74595 0.14811,-0.27672 0.36842,-0.50314 0.4896,-0.50314 0.12117,0 0.34904,-0.17859 0.50636,-0.39687 0.15733,-0.21829 0.40029,-0.39688 0.53991,-0.39688 0.13961,0 0.25481,-0.067 0.25599,-0.14882 0.003,-0.20094 2.529,-1.46953 4.36348,-2.19131 0.81855,-0.32206 2.29195,-0.78042 3.27422,-1.01859 0.98227,-0.23817 2.01054,-0.51965 2.28506,-0.62553 0.49557,-0.19113 5.10729,-1.13213 6.24775,-1.27483 0.32742,-0.0409 0.99715,-0.16392 1.48828,-0.27323 1.27075,-0.28282 7.19882,-1.17759 8.73125,-1.31788 1.19414,-0.10932 3.26592,-0.41967 5.96507,-0.89359 0.60684,-0.10654 1.49981,-0.19494 1.98437,-0.19642 1.34482,-0.004 1.77399,-0.17345 1.77399,-0.69984 0,-0.91291 0.45905,-2.49274 0.64765,-2.22891 0.12251,0.17138 0.14908,0.10905 0.0827,-0.19394 -0.0538,-0.24557 -0.0116,-0.44648 0.0937,-0.44648 0.10536,0 0.13639,-0.0893 0.0689,-0.19844 -0.069,-0.11167 0.09,-0.19844 0.36365,-0.19844 0.35322,0 0.52037,-0.13576 0.6108,-0.49609 0.0951,-0.37869 0.25277,-0.49545 0.66644,-0.49338 0.95459,0.005 1.46037,0.23689 1.65994,0.76183 0.14081,0.37035 0.23871,0.4405 0.35413,0.25375 0.11757,-0.19023 0.18795,-0.14933 0.26768,0.15555 0.13408,0.51272 0.5415,0.52321 1.49268,0.0384 1.47502,-0.75175 6.01141,-0.78278 6.74528,-0.0461 0.18753,0.18824 0.60885,0.50805 0.93627,0.7107 0.32742,0.20266 0.67019,0.49454 0.7617,0.64865 0.1348,0.22698 0.76597,0.26815 3.3238,0.21681 1.73656,-0.0349 3.15741,-0.13035 3.15743,-0.2122 2e-5,-0.0819 0.17863,-0.14883 0.39691,-0.14883 0.21828,0 0.39688,0.0788 0.39688,0.17505 0,0.0963 0.33487,0.18018 0.74414,0.18647 1.07602,0.0165 2.21157,0.54998 2.4379,1.14528 0.29496,0.77581 0.23439,2.17923 -0.10626,2.46195 -0.20948,0.17385 -0.29766,0.18025 -0.29766,0.0216 0,-0.15681 -0.20694,-0.13893 -0.68007,0.0588 -0.37404,0.15628 -1.5349,0.39175 -2.57969,0.52326 -2.18821,0.27543 -2.43257,0.57692 -1.15547,1.42565 1.14534,0.76116 2.84113,2.35255 2.71843,2.55108 -0.0604,0.0977 0.0207,0.12749 0.18029,0.0663 0.18009,-0.0691 0.3395,0.0446 0.42056,0.29992 0.0717,0.22618 0.19238,0.41123 0.26799,0.41123 0.0756,0 0.36554,0.21146 0.64426,0.46991 0.27873,0.25845 0.83884,0.58998 1.2447,0.73674 0.66563,0.2407 0.72603,0.32103 0.61645,0.81994 -0.0774,0.35242 -0.0395,0.5531 0.10443,0.5531 0.12426,0 0.17056,-0.0896 0.10291,-0.19904 -0.23861,-0.38607 0.64384,-0.0779 1.31113,0.4579 0.86386,0.69362 0.94153,0.75237 1.72944,1.30791 0.36243,0.25554 1.06671,0.90052 1.56505,1.43329 0.94637,1.01175 1.42137,1.18023 1.85482,0.65795 0.35049,-0.42231 1.22386,-0.84513 1.52414,-0.73787 0.13484,0.0482 0.49203,-0.0822 0.79375,-0.28965 1.46532,-1.00753 3.21894,-1.39285 6.49613,-1.42738 1.8742,-0.0197 7.16385,1.76977 7.95055,2.6897 0.36367,0.42528 0.56318,0.47251 1.98437,0.46978 0.86902,-0.002 1.66934,-0.0687 1.77848,-0.14883 0.10915,-0.0802 0.2207,-0.50298 0.24791,-0.93954 0.0325,-0.5225 0.19265,-0.91242 0.46847,-1.14102 0.23045,-0.191 0.34213,-0.34863 0.24818,-0.35031 -0.0939,-0.002 -0.072,-0.0687 0.0486,-0.14882 0.1207,-0.0802 0.67479,-0.849 1.23132,-1.70848 1.04207,-1.60935 1.54469,-3.17708 1.33678,-4.16956 -0.3119,-1.48876 -0.32269,-1.42286 0.24073,-1.4695 0.33077,-0.0273 0.85015,0.1829 1.36496,0.55261 0.45706,0.32824 0.91729,0.5968 1.02272,0.5968 0.10544,0 0.53598,-0.42416 0.95678,-0.94258 0.42079,-0.51842 0.92749,-1.12085 1.126,-1.33873 0.1985,-0.21788 0.64604,-0.84296 0.99455,-1.38906 0.3485,-0.5461 0.90179,-1.25707 1.22954,-1.57993 0.32776,-0.32285 0.74493,-0.91914 0.92706,-1.32508 0.26235,-0.58478 0.41544,-0.71605 0.73703,-0.63195 0.35613,0.0931 0.37032,0.14172 0.11574,0.3963 -0.18841,0.1884 -0.23216,0.40709 -0.12476,0.62364 0.091,0.18341 0.082,1.38615 -0.02,2.67274 -0.27103,3.41987 -0.0987,3.74229 1.59652,2.9879 0.40577,-0.18056 0.82211,-0.30872 0.9252,-0.28478 0.10309,0.024 0.37098,-0.0449 0.59531,-0.15284 0.22433,-0.108 0.65344,-0.24774 0.95358,-0.31053 0.30014,-0.0628 0.76975,-0.16938 1.04359,-0.23686 0.47602,-0.11731 0.49368,-0.0899 0.40238,0.62321 -0.0525,0.41025 -0.21753,0.88962 -0.36668,1.06527 -0.47587,0.56044 -1.48121,4.57314 -1.24251,4.95936 0.0753,0.12195 0.0453,0.22173 -0.0669,0.22173 -0.11216,0 -0.14781,0.14624 -0.0792,0.32497 0.10723,0.27942 0.37009,0.30908 1.87533,0.21156 0.96284,-0.0624 1.79019,-0.0493 1.83856,0.0288 0.23039,0.37279 -0.60394,3.20491 -0.94416,3.20491 -0.0942,0 -0.12378,0.12363 -0.0658,0.27473 0.058,0.15111 -0.14599,0.75387 -0.45329,1.33945 -0.88462,1.6858 -1.42351,3.67126 -1.41377,5.20895 0.01,1.52016 -0.0888,1.83417 -0.47471,1.51392 -0.14251,-0.11828 -0.3594,-0.18959 -0.48199,-0.15847 -0.12258,0.0311 -0.42219,-0.29328 -0.6658,-0.72089 -0.64398,-1.13036 -2.29972,-2.93458 -2.55071,-2.77947 -0.0807,0.0499 -0.20292,0 -0.27147,-0.11092 -0.0685,-0.11092 -0.24377,-0.20168 -0.38936,-0.20168 -0.47814,0 -0.4832,0.53618 -0.0116,1.23018 0.2549,0.37512 0.56723,1.06746 0.69408,1.53853 0.12685,0.47107 0.44054,1.17936 0.69711,1.57397 0.59662,0.91767 0.83942,1.89054 0.99618,3.99169 0.0928,1.24395 0.0483,1.92113 -0.1694,2.57969 -0.16239,0.49113 -0.35412,1.29481 -0.42608,1.78594 -0.072,0.49114 -0.21126,1.16086 -0.30956,1.48828 -0.0983,0.32743 -0.22075,1.04451 -0.27212,1.59353 -0.0514,0.54903 -0.19028,1.25302 -0.30867,1.56442 -0.3255,0.85612 -0.41237,4.52504 -0.11671,4.92937 0.15663,0.21422 0.76659,0.41121 1.71457,0.55373 0.9019,0.1356 2.00977,0.48391 2.86225,0.89985 0.76496,0.37325 1.48666,0.67863 1.6038,0.67863 0.23735,0 2.72577,-2.93094 3.9447,-4.64619 0.43326,-0.60967 0.85237,-1.10849 0.93136,-1.10849 0.079,0 0.30185,-0.2679 0.49526,-0.59532 0.40636,-0.6879 0.47646,-0.70243 1.36177,-0.28233 0.77249,0.36657 0.99566,0.79971 0.64407,1.25006 -0.22183,0.28416 -0.21182,0.29109 0.0849,0.0588 0.29243,-0.22891 0.41489,-0.17704 0.93676,0.39687 0.3302,0.36311 0.60297,0.77183 0.60617,0.90826 0.003,0.13642 0.099,0.24804 0.21296,0.24804 0.11392,0 0.1809,0.15627 0.14883,0.34727 -0.0321,0.19099 0.0476,0.32684 0.17709,0.30187 0.12946,-0.025 0.222,0.13238 0.20563,0.34967 -0.0163,0.21728 -0.118,0.36564 -0.22586,0.32969 -0.33305,-0.11102 -0.9097,0.52138 -0.9097,0.99763 0,0.2486 -0.0828,0.45199 -0.18408,0.45199 -0.10124,0 -0.34167,0.35719 -0.53428,0.79376 -0.19261,0.43656 -0.46696,0.79375 -0.60968,0.79375 -0.1427,0 -0.25946,0.0931 -0.25946,0.20681 0,0.22711 -0.22845,0.54005 -1.01763,1.39391 -0.28684,0.31035 -0.48031,0.6055 -0.42993,0.65588 0.0504,0.0504 -0.34666,0.54631 -0.88232,1.10205 -0.53567,0.55574 -0.93008,1.05431 -0.87645,1.10792 0.0536,0.0536 -0.007,0.0975 -0.13403,0.0975 -0.12734,0 -0.23152,0.20147 -0.23152,0.44771 0,0.29732 0.39818,0.80099 1.18531,1.49938 l 1.18531,1.05166 -0.1235,0.93149 c -0.0679,0.51231 -0.24413,1.10761 -0.39156,1.32289 -0.46598,0.68043 -0.30079,1.03542 0.97218,2.0892 0.68213,0.56467 1.4227,1.18084 1.64571,1.36927 0.22301,0.18842 0.54518,0.39619 0.71593,0.46172 0.17075,0.0655 0.36481,0.37237 0.43125,0.68188 0.0758,0.35326 0.41877,0.77071 0.92118,1.12133 0.44021,0.30722 0.80038,0.69882 0.80038,0.87022 0,0.1714 0.20092,0.50288 0.44648,0.73662 0.24557,0.23375 0.74833,0.80209 1.11725,1.26299 0.36891,0.4609 0.79582,0.83801 0.94869,0.83801 0.15286,0 0.69934,0.42632 1.2144,0.94738 0.78873,0.79793 1.15559,1.00421 2.32553,1.30755 0.76398,0.19809 1.76367,0.53079 2.22153,0.73934 0.45786,0.20854 0.8762,0.37917 0.92966,0.37917 0.0534,0 0.34857,0.0956 0.6558,0.21239 0.30725,0.11681 0.60328,0.21568 0.65784,0.21971 0.26854,0.0198 1.5539,0.79225 2.05826,1.23689 0.31348,0.27636 0.73308,0.55424 0.93243,0.61752 0.19935,0.0633 0.41182,0.26674 0.47216,0.45215 0.0603,0.18542 0.40378,0.64965 0.76322,1.03165 0.35943,0.38199 0.77638,0.99542 0.92653,1.36316 0.15016,0.36775 0.7577,1.43931 1.3501,2.38125 1.26864,2.01719 1.83169,3.08073 1.83169,3.4599 0,0.15114 0.17055,0.42916 0.37902,0.61782 0.20847,0.18866 0.43867,0.58201 0.51155,0.87411 0.0729,0.29211 0.24862,0.66505 0.39052,0.82876 0.14189,0.16371 0.67909,1.30224 1.19377,2.53007 0.51468,1.22784 1.01033,2.23243 1.10144,2.23243 0.0911,0 0.28365,0.11508 0.42787,0.25572 0.14423,0.14066 0.75336,0.46049 1.35363,0.71075 0.60027,0.25025 1.31632,0.72047 1.59123,1.04493 0.27489,0.32447 0.63404,0.60963 0.7981,0.63371 0.45427,0.0667 1.78884,1.14532 1.66499,1.34572 -0.06,0.097 0.009,0.17636 0.15264,0.17636 0.1439,0 0.37317,0.17859 0.50949,0.39687 0.13632,0.21828 0.45413,0.39687 0.70625,0.39687 0.4868,0 2.34685,-0.49098 3.0109,-0.79476 0.21828,-0.0999 1.42379,-0.50702 2.6789,-0.90481 4.34378,-1.3767 6.56721,-2.19507 8.65641,-3.18616 0.7774,-0.36878 1.54782,-0.67052 1.71204,-0.67052 0.16422,0 0.40975,-0.13394 0.54561,-0.29766 0.13587,-0.1637 0.41153,-0.29765 0.61258,-0.29765 0.20105,0 0.72875,-0.24766 1.17267,-0.55034 0.62833,-0.42844 0.98129,-0.53373 1.59342,-0.47536 0.48428,0.0462 0.73685,0.15502 0.65753,0.28335 -0.0769,0.12438 -0.033,0.14915 0.1089,0.0614 0.42818,-0.26462 1.54643,0.80347 1.88669,1.80206 0.75972,2.22966 0.37067,2.67676 -4.14663,4.76527 -0.65485,0.30276 -1.30129,0.541 -1.43654,0.52942 -0.13525,-0.0116 -0.19695,0.0581 -0.13711,0.15498 0.0599,0.0968 -0.0178,0.17603 -0.17261,0.17603 -0.15478,0 -0.80745,0.26676 -1.45039,0.5928 -0.64293,0.32604 -1.24108,0.59394 -1.3292,0.59531 -0.0881,0.002 -1.42758,0.57328 -2.97656,1.27087 -3.02196,1.36096 -5.76293,2.40192 -6.8843,2.61454 -0.382,0.0725 -0.91778,0.24411 -1.19063,0.38152 -0.27285,0.13741 -0.98723,0.40816 -1.5875,0.60166 -1.63496,0.52704 -1.76234,0.62551 -2.25743,1.74499 -0.62757,1.41903 -1.77514,2.19291 -3.06149,2.06454 -0.84299,-0.0841 -1.57271,0.0975 -2.75126,0.68474 -0.25083,0.12499 -0.70611,0.15363 -1.09141,0.0687 -1.09952,-0.24247 -2.21511,-0.2004 -2.84388,0.10723 -0.51505,0.25198 -0.60189,0.41132 -0.64409,1.1818 -0.0616,1.1245 -0.30312,1.82168 -1.07,3.0883 -0.72132,1.19138 -1.08135,1.44398 -2.54206,1.78353 -1.88658,0.43855 -4.17452,-0.0865 -4.926,-1.13055 -0.13886,-0.19292 -0.36775,-0.46676 -0.50866,-0.60855 -0.14091,-0.14179 -0.5532,-0.81591 -0.9162,-1.49804 -0.363,-0.68212 -0.79277,-1.24023 -0.95504,-1.24023 -0.16227,0 -1.674,0.44649 -3.35939,0.99219 -1.6854,0.5457 -3.18056,0.99219 -3.32256,0.99219 -0.14201,0 -0.81988,0.17943 -1.50637,0.39874 -0.68649,0.21931 -1.43482,0.43856 -1.66296,0.48722 -0.22814,0.0486 -0.90592,0.23293 -1.5062,0.40946 -0.60027,0.17654 -1.26999,0.34891 -1.48828,0.38306 -0.21828,0.0342 -0.87332,0.2037 -1.45564,0.37677 -0.58232,0.17308 -1.1181,0.30305 -1.19062,0.28884 -0.0725,-0.0142 -0.26581,0.028 -0.42952,0.0937 -0.32695,0.13133 -1.45875,0.43499 -5.06015,1.35758 -2.7621,0.70758 -3.00034,0.81314 -3.19019,1.41338 -0.0777,0.24568 -0.53023,1.01518 -1.00563,1.71 -0.47539,0.69482 -0.86434,1.38389 -0.86434,1.53127 0,0.14739 0.30333,0.57131 0.67407,0.94205 0.77609,0.77608 1.90106,2.35621 2.26039,3.17491 0.42823,0.97568 0.64278,3.1786 0.45513,4.67304 -0.29965,2.38639 -1.21378,3.62399 -2.74163,3.71177 -0.41095,0.0236 -1.28296,0.29742 -1.9378,0.60845 -0.96527,0.45847 -1.45355,0.56412 -2.57969,0.55816 -1.19853,-0.006 -1.54334,-0.0962 -2.51379,-0.65468 -1.03857,-0.59773 -2.74481,-2.19217 -2.74481,-2.56497 0,-0.088 -0.26619,-0.31733 -0.59154,-0.50952 -0.43856,-0.25906 -0.6883,-0.29766 -0.96563,-0.14923 -0.38742,0.20733 -1.85486,1.8676 -1.99515,2.25729 -0.0438,0.12171 -0.239,0.39233 -0.43375,0.60137 -0.62918,0.67536 -1.54843,3.33868 -1.7841,5.16905 -0.1252,0.97236 -0.15027,1.81643 -0.056,1.88515 0.61321,0.44706 -0.11544,0.90019 -1.41679,0.88108 -1.13936,-0.0167 -3.86953,-0.90668 -3.86953,-1.26135 0,-0.16849 -0.88225,-0.45563 -1.53127,-0.49837 -0.24191,-0.0159 -0.3987,0.0376 -0.3484,0.11901 0.0503,0.0814 -0.0548,0.20407 -0.23347,0.27265 -0.1787,0.0686 -0.27287,0.17673 -0.20924,0.24036 0.0636,0.0637 -0.0442,0.28721 -0.23948,0.49687 -0.19534,0.20967 -0.46791,0.75827 -0.60572,1.21911 -0.24728,0.82693 -0.8111,1.95763 -1.65741,3.32381 -0.62543,1.00963 -1.08475,1.77663 -2.35557,3.93358 -1.03434,1.75555 -2.97097,4.02114 -4.35086,5.08989 -0.28183,0.21828 -0.67033,0.64244 -0.86332,0.94258 -0.193,0.30014 -0.45226,0.5471 -0.57613,0.5488 -0.12387,0.002 -0.60034,0.33657 -1.05881,0.74414 -0.6073,0.53988 -0.89418,0.98771 -1.05681,1.64971 -0.25844,1.05197 -0.7781,1.44609 -2.35176,1.78358 -0.55904,0.11989 -1.01644,0.29988 -1.01644,0.39997 0,0.1001 -0.16642,0.182 -0.36981,0.182 -0.37185,0 -1.41612,0.89794 -1.41612,1.21768 0,0.0943 -0.11163,0.17199 -0.24806,0.17274 -0.39824,0.002 -1.09136,1.2127 -1.24904,2.18145 -0.20493,1.25903 -0.26325,2.44751 -0.13094,2.66863 0.0619,0.1035 0.14194,1.08576 0.17782,2.18282 0.0623,1.90483 0.0425,2.01912 -0.4388,2.53805 -0.27722,0.29887 -0.74694,0.6014 -1.04384,0.67228 -0.29689,0.0709 -0.66091,0.22468 -0.80894,0.34177 -0.15427,0.12202 -1.14573,0.20891 -2.32301,0.20359 l -2.05388,-0.009 -0.11953,0.54422 c -0.0825,0.37579 -0.28418,0.58553 -0.65156,0.67774 -0.29262,0.0735 -0.57757,0.19343 -0.63323,0.26663 -0.38755,0.50965 -8.24682,2.48665 -9.95674,2.50462 -0.50921,0.005 -0.9929,0.0767 -1.07486,0.15855 -0.30171,0.30128 -2.75079,0.15829 -3.39876,-0.19844 z m 75.58264,-70.67764 c 1.82037,-0.31361 3.38599,-0.61732 3.47916,-0.6749 0.0932,-0.0576 0.56831,-0.15254 1.05587,-0.21102 2.57122,-0.30836 8.30663,-1.90919 9.04968,-2.52586 0.15363,-0.12751 0.22951,-0.3888 0.16862,-0.58065 -0.0609,-0.19184 -0.0147,-0.94963 0.10259,-1.68395 0.24371,-1.52557 0.77338,-2.40916 2.53994,-4.23709 1.09637,-1.13445 1.19887,-1.19156 2.37827,-1.32499 1.35912,-0.15377 1.51895,-0.38469 0.88886,-1.28426 -0.18901,-0.26985 -0.33353,-0.53529 -0.32115,-0.58986 0.0403,-0.17788 -0.45943,-0.79399 -0.56137,-0.69205 -0.0545,0.0545 -0.26129,-0.08 -0.45944,-0.29892 -0.19815,-0.21895 -0.48564,-0.39809 -0.63888,-0.39809 -0.15324,0 -0.22885,-0.0805 -0.16803,-0.17892 0.0608,-0.0984 -0.28378,-0.34204 -0.76576,-0.54139 -0.48199,-0.19935 -0.83374,-0.43138 -0.78169,-0.5156 0.052,-0.0842 0.003,-0.15315 -0.10927,-0.15315 -0.11216,0 -0.15252,-0.13394 -0.0897,-0.29766 0.0825,-0.21499 -0.0217,-0.29766 -0.37517,-0.29766 -0.29006,0 -0.86446,-0.33015 -1.41029,-0.81061 -0.5065,-0.44584 -0.9209,-0.7472 -0.9209,-0.66969 0,0.0775 -0.40265,-0.2793 -0.89477,-0.79293 -0.49212,-0.51362 -0.83551,-1.02973 -0.76309,-1.1469 0.0749,-0.12123 0.0391,-0.15583 -0.0832,-0.0803 -0.20301,0.12546 -1.76645,-1.53099 -1.84677,-1.95661 -0.0206,-0.10915 -0.18484,-0.30169 -0.365,-0.42788 -0.18016,-0.12619 -0.54673,-0.70662 -0.81461,-1.28984 -0.26787,-0.58323 -0.56638,-1.1174 -0.66337,-1.18705 -0.097,-0.0696 -0.11698,-0.22267 -0.0445,-0.34003 0.1442,-0.23332 -0.41493,-0.87883 -0.93364,-1.07788 -0.17941,-0.0688 -0.38616,-0.36411 -0.45946,-0.65615 -0.12813,-0.51049 -2.2479,-2.88512 -2.58964,-2.90098 -0.2137,-0.01 -0.97539,-0.60699 -1.02293,-0.80184 -0.02,-0.0819 -0.0999,-0.17115 -0.17759,-0.19843 -0.0777,-0.0273 -0.41257,-0.29965 -0.74415,-0.60525 -0.47561,-0.43838 -0.72999,-0.5324 -1.20524,-0.44547 -0.47806,0.0874 -0.60821,0.0383 -0.63053,-0.23811 -0.13895,-1.72023 -1.37991,-3.16317 -2.80853,-3.26564 -0.36741,-0.0263 -0.70436,-0.14261 -0.74877,-0.25835 -0.0667,-0.17388 -0.51394,-0.21364 -1.28912,-0.11463 -0.42106,0.0538 -1.51122,4.36488 -1.18599,4.69011 0.0641,0.0641 0.12639,0.22184 0.13844,0.35056 0.012,0.12872 0.0355,0.37041 0.0521,0.53709 0.0167,0.16667 0.29308,0.59083 0.61435,0.94257 0.4485,0.49105 0.748,0.63954 1.28985,0.63954 0.83719,0 0.86873,0.12591 0.20962,0.83672 -0.27285,0.29427 -0.49893,0.65054 -0.50241,0.79173 -0.004,0.15375 -0.13139,0.0975 -0.31817,-0.14017 -0.30873,-0.39287 -0.31059,-0.39257 -0.18517,0.0295 0.0986,0.33175 -0.0383,0.56226 -0.61697,1.0393 -0.51683,0.42601 -0.68047,0.67622 -0.53645,0.82023 0.11398,0.11399 1.04825,0.29716 2.07617,0.40706 1.02791,0.1099 2.12783,0.28566 2.44425,0.39057 0.31643,0.10492 1.8568,0.19077 3.42305,0.19077 2.51735,0 2.89079,0.0431 3.21888,0.37114 0.53582,0.53583 0.72086,2.92531 0.40136,5.18276 l -0.25311,1.78828 -3.12534,0 c -1.87259,0 -3.17455,0.0797 -3.24815,0.19873 -0.0676,0.10931 0.0726,1.1139 0.31139,2.23243 0.45468,2.12956 0.52495,4.65145 0.17385,6.23913 -0.26218,1.18559 -1.09601,3.68937 -1.46864,4.40994 -0.17405,0.33657 -0.25858,0.61196 -0.18784,0.61196 0.0707,0 0.0393,0.11161 -0.0699,0.24804 -0.1809,0.22604 -1.23914,3.13547 -1.23914,3.40677 0,0.16068 -0.0754,0.17037 3.60741,-0.46411 z m -12.14022,-55.87586 c 0.17051,-0.20545 0.18439,-0.37448 0.0448,-0.5457 -0.11124,-0.13642 -0.3149,-0.62756 -0.45258,-1.0914 -0.49781,-1.67705 -1.04055,-0.59403 -0.65882,1.31465 0.13624,0.68115 0.64201,0.83406 1.06661,0.32245 z m -28.57499,-7.82204 c 0,-0.4071 -0.25733,-0.80999 -0.51733,-0.80999 -0.30011,0 -0.34363,0.1893 -0.15598,0.67831 0.12784,0.33313 0.67331,0.43981 0.67331,0.13168 z m 22.55898,-29.62063 c -0.0633,-0.15829 -0.11037,-0.11127 -0.11989,0.1199 -0.009,0.20919 0.0383,0.32638 0.10422,0.26045 0.0659,-0.0659 0.073,-0.23709 0.0156,-0.38035 l 1e-5,0 z"
       id="path3355"
       inkscape:connector-curvature="0" />
    <path
       style="fill:#ff0000"
       d="m 330.50801,573.42496 c -0.15435,-0.0567 -2.42748,-0.37013 -5.0514,-0.69665 -2.62391,-0.32651 -6.41246,-0.89162 -8.41898,-1.25579 -2.00653,-0.36417 -4.15338,-0.74035 -4.77077,-0.83595 -0.61738,-0.0956 -2.03641,-0.37049 -3.15338,-0.61085 l -2.03084,-0.43701 -0.53755,-1.86694 c -1.83611,-6.37692 -1.70294,-14.28945 0.40925,-24.31757 1.66874,-7.92275 4.53806,-17.3892 7.49167,-24.71653 0.74631,-1.85143 3.54042,-7.26249 4.38039,-8.483 0.28654,-0.41639 0.99186,-1.49088 1.56735,-2.38777 2.83711,-4.42156 8.31987,-9.83006 14.6107,-14.41281 0.7703,-0.56115 4.60686,-3.0829 10.31415,-6.77946 l 2.30802,-1.49489 2.86088,2.96693 2.86088,2.96694 -1.25656,2.03585 c -0.69111,1.11973 -1.50581,2.8413 -1.81046,3.82571 -0.51161,1.65319 -0.79584,2.02816 -3.72267,4.91108 -4.03912,3.97853 -7.85295,8.58477 -9.59779,11.59194 -0.49645,0.85558 -0.55095,0.87682 -1.28133,0.49913 -0.41956,-0.21696 -1.27894,-0.47701 -1.90972,-0.57787 -0.63079,-0.10087 -1.08021,-0.2913 -0.9987,-0.42318 0.29486,-0.47709 -0.45456,-1.33297 -1.34875,-1.54037 -1.29023,-0.29925 -2.45645,-0.15212 -3.47371,0.43823 -0.5602,0.32509 -1.01503,0.41974 -1.26286,0.26277 -0.69964,-0.44313 -1.71207,-0.26617 -2.96263,0.51784 -0.68205,0.4276 -1.30604,1.06475 -1.39929,1.42883 -0.13,0.50752 -0.31767,0.62854 -0.82453,0.53164 -0.36093,-0.069 -0.59507,-0.0265 -0.52033,0.0945 0.0747,0.12093 -0.13014,0.30433 -0.4553,0.40753 -0.61889,0.19643 -1.64526,2.11037 -1.65585,3.08776 -0.003,0.31294 0.19924,0.86224 0.4503,1.22067 0.36004,0.51403 0.62825,0.61732 1.26969,0.48903 0.75776,-0.15154 0.79153,-0.12206 0.49495,0.43209 -0.55265,1.03266 -0.76087,2.09141 -0.50219,2.55364 0.13742,0.24556 0.69141,0.59219 1.23109,0.7703 1.40272,0.46294 3.44339,-0.25632 4.71238,-1.66095 0.91602,-1.01391 0.99073,-1.04346 1.55414,-0.6147 1.1255,0.85654 2.22059,5.30468 1.42676,5.7953 -0.16578,0.10245 -0.60072,-0.0949 -0.96652,-0.43856 -1.49403,-1.40357 -3.97488,0.38969 -4.7937,3.46508 -0.71943,2.70207 -0.69285,2.75788 2.20292,4.62439 3.15153,2.03137 3.85871,2.66082 3.85871,3.43463 0,0.32709 0.37019,1.51921 0.82264,2.64918 0.90272,2.25442 0.88038,2.7431 -0.20459,4.47632 l -0.69188,1.10527 0.75415,0.64869 c 0.92684,0.79723 1.3878,0.81512 2.07226,0.0805 0.52633,-0.56495 0.53454,-0.55887 1.42213,1.05238 1.05286,1.91124 1.52144,2.6913 1.7321,2.88344 0.0846,0.0772 0.43319,0.5405 0.77462,1.02959 l 0.62079,0.88927 -1.53348,0.77647 c -1.74886,0.88553 -4.71639,3.57758 -6.00002,5.44304 -1.04148,1.51353 -1.55642,3.60657 -1.31181,5.33202 0.31525,2.22373 3.15895,6.98533 5.15364,8.62946 0.35107,0.28938 0.15823,0.34692 -1.10138,0.32864 -0.83982,-0.0122 -1.65325,-0.0685 -1.80759,-0.12513 z"
       id="path3357"
       inkscape:connector-curvature="0" />
    <path
       style="fill:#ff0000"
       d="m 435.88568,525.30797 c 0,-0.13774 0.92717,-0.70244 2.06037,-1.25489 2.93426,-1.43045 3.54396,-2.20775 4.12306,-5.25644 0.27276,-1.436 -0.22681,-3.99231 -0.99437,-5.08816 -0.22885,-0.32674 -1.53954,-1.74471 -2.91263,-3.15105 -1.37308,-1.40634 -2.76787,-3.08889 -3.09954,-3.739 l -0.60302,-1.18202 0.57275,-2.04116 c 0.7518,-2.67924 0.7228,-3.53004 -0.16487,-4.83811 -1.31513,-1.93793 -2.94314,-2.76842 -6.77678,-3.45699 -4.70191,-0.84452 -6.07919,-1.70986 -9.37747,-5.89183 -0.90174,-1.14333 -2.11092,-2.42247 -2.68709,-2.84255 -1.07058,-0.78054 -5.43143,-3.06783 -6.93248,-3.63612 -1.70236,-0.64451 -5.1488,-1.12429 -8.07657,-1.12433 -2.07462,-4e-5 -3.01681,-0.10017 -3.01681,-0.32062 0,-0.17631 0.45448,-1.3787 1.00995,-2.67198 1.4955,-3.48187 1.04981,-3.97431 -2.5392,-2.8055 -1.26099,0.41066 -2.36309,0.74666 -2.44911,0.74666 -0.086,0 -0.14163,-1.54699 -0.1236,-3.43776 0.0319,-3.34227 0.0156,-3.4402 -0.58607,-3.52578 -0.48211,-0.0686 -0.90157,0.30345 -1.89846,1.6838 -0.70379,0.9745 -1.92393,2.61061 -2.7114,3.6358 l -1.43178,1.86398 -1.25049,-0.55315 c -1.80576,-0.79878 -2.1352,-0.57496 -1.90192,1.29216 0.16763,1.34164 0.0953,1.69986 -0.60897,3.01782 -0.43953,0.82251 -0.87058,1.55861 -0.95788,1.63578 -0.0873,0.0772 -0.36598,0.44338 -0.61928,0.81378 -0.34864,0.50981 -1.07553,0.83277 -2.99125,1.32903 -2.51443,0.65134 -2.53662,0.65209 -3.45204,0.11753 -0.50674,-0.29592 -1.7422,-0.82614 -2.74546,-1.17829 -3.32594,-1.16738 -7.97625,-0.63478 -11.46043,1.31256 -1.42589,0.79695 -1.96177,0.86384 -2.18843,0.27316 -0.0885,-0.23056 -1.07153,-1.14613 -2.18456,-2.0346 -1.11303,-0.88846 -2.05185,-1.71977 -2.08627,-1.84735 -0.11495,-0.42611 9.00012,-4.84937 13.71019,-6.65311 6.8852,-2.63673 10.63947,-3.85465 14.2599,-4.62605 5.11864,-1.09062 7.53459,-1.27937 12.69065,-0.99149 5.62059,0.31382 11.08998,1.44805 15.00408,3.11152 2.95686,1.25665 7.03324,3.18902 8.13835,3.85793 2.23445,1.35246 2.64845,1.67026 2.45454,1.88416 -0.11521,0.12709 -0.0706,0.152 0.099,0.0553 0.26332,-0.14999 2.09146,0.9783 3.08561,1.90438 0.16894,0.15737 0.85259,0.72812 1.51921,1.26834 1.85205,1.50084 4.22638,3.72263 4.10642,3.84259 -0.18871,0.18872 3.46809,3.69658 4.04412,3.8794 0.30524,0.0969 0.50203,0.26177 0.43731,0.36641 -0.0648,0.10465 1.31901,0.19027 3.07493,0.19027 2.94885,0 3.24143,0.0489 3.83199,0.63961 1.07242,1.0728 0.85344,2.76091 -0.80893,6.2359 -1.9009,3.97363 -2.45725,5.71971 -2.459,7.71741 -7.8e-4,1.42401 0.18797,2.06761 1.22633,4.17147 0.6753,1.36822 1.4954,2.82049 1.82246,3.22728 1.04201,1.29602 2.09355,3.5391 2.52389,5.38384 0.54681,2.34398 0.20483,3.80593 -1.21196,5.18097 -1.05099,1.02001 -6.48703,3.96089 -6.48703,3.50946 z"
       id="path3359"
       inkscape:connector-curvature="0" />
    <path
       style="fill:#ff0000"
       d="m 389.01998,627.2846 c -6.80001,-0.61542 -19.07578,-3.15143 -21.61773,-4.46592 -0.44277,-0.22897 -0.94799,-0.4163 -1.12273,-0.4163 -0.28558,0 -2.74334,-1.00228 -5.29371,-2.15878 l -0.9531,-0.4322 0.9531,-0.8987 c 0.52419,-0.49429 1.07937,-0.83821 1.23372,-0.76426 0.15435,0.0739 0.189,0.0331 0.077,-0.0908 -0.11201,-0.12389 0.41386,-0.93804 1.16858,-1.80923 2.15047,-2.48231 5.62994,-8.48595 5.62994,-9.71416 0,-0.20102 0.31914,-0.74477 0.70919,-1.20833 l 0.7092,-0.84284 1.18507,0.6776 c 0.65179,0.37269 1.52491,0.67913 1.94026,0.68099 0.41535,0.002 0.83322,0.12967 0.92861,0.28401 0.25371,0.41051 1.60716,0.34265 2.75817,-0.13827 0.96325,-0.40247 0.99071,-0.45302 0.69972,-1.28777 -0.40715,-1.16796 -0.10519,-3.44079 0.64508,-4.85555 1.11288,-2.09853 1.2223,-2.27461 2.07096,-3.33274 0.95973,-1.19661 1.38833,-1.30272 1.84152,-0.45592 0.38038,0.71073 2.01748,2.18413 2.98391,2.68553 1.71577,0.89014 2.787,0.97317 4.49216,0.34815 0.8949,-0.32803 2.0691,-0.69429 2.60931,-0.81394 1.56734,-0.3471 1.9166,-0.56515 2.552,-1.59323 0.73766,-1.19358 1.04753,-4.95584 0.55692,-6.76192 -0.17806,-0.65549 -0.9524,-2.02237 -1.72075,-3.03751 l -1.39701,-1.8457 1.02705,-1.66393 c 1.0981,-1.77907 1.07212,-1.76472 4.73477,-2.61542 2.55116,-0.59254 8.89871,-2.28613 12.20753,-3.25708 4.93607,-1.44847 5.43696,-1.60747 6.46066,-2.05088 l 0.98831,-0.42807 0.51281,1.23985 c 0.28205,0.68191 0.62659,1.23984 0.76564,1.23984 0.13906,0 0.25283,0.17265 0.25283,0.38366 0,0.60533 2.24125,1.93049 3.49329,2.06545 0.62544,0.0674 1.70544,-0.0218 2.40001,-0.19815 0.69456,-0.1764 1.41515,-0.33408 1.60129,-0.3504 0.18615,-0.0163 0.28762,-0.1119 0.22551,-0.21241 -0.0621,-0.10051 0.13287,-0.35991 0.43329,-0.57644 0.30043,-0.21655 0.54624,-0.50419 0.54624,-0.63923 0,-0.13503 0.24048,-0.58323 0.53439,-0.99599 0.29391,-0.41276 0.62224,-1.33639 0.72963,-2.05252 0.22307,-1.48751 0.61921,-1.71078 2.56269,-1.4444 0.78876,0.10811 1.58058,0.0101 2.32503,-0.28775 0.62311,-0.24933 1.47822,-0.38197 1.90855,-0.29607 1.02026,0.20366 3.05305,-1.23312 3.60139,-2.54548 0.28056,-0.67147 0.67471,-1.03393 1.37609,-1.2654 0.54059,-0.17842 1.09675,-0.25403 1.23591,-0.16803 0.48033,0.29686 1.98669,4.52403 2.75861,7.74126 1.48018,6.16916 0.93644,13.84297 -1.50515,21.24202 -0.41731,1.26462 -0.88087,2.22381 -1.03016,2.13155 -0.14928,-0.0923 -0.18855,-0.0336 -0.0872,0.13025 0.19034,0.30798 -1.48243,3.46488 -3.01079,5.68201 -3.58593,5.20201 -10.57505,11.9978 -15.67449,15.24087 -4.66111,2.96433 -11.00738,5.12015 -17.05256,5.79274 -2.78713,0.3101 -15.77586,0.60369 -17.96051,0.40596 z"
       id="path3361"
       inkscape:connector-curvature="0" />
    <path
       style="fill:#ff0000"
       d="m 384.57453,626.59942 c -9.14054,-1.38282 -15.87637,-3.13677 -21.5131,-5.6018 -0.77174,-0.33749 -1.71887,-0.73898 -2.10474,-0.89219 l -0.70159,-0.27858 1.14255,-1.02746 c 2.4535,-2.20634 7.69739,-10.35464 7.69739,-11.96071 0,-0.23294 0.34728,-0.81155 0.77174,-1.2858 l 0.77174,-0.86228 1.12254,0.5514 c 2.45094,1.20394 4.46348,1.46986 5.74697,0.75935 0.6547,-0.36242 0.69112,-0.50617 0.61964,-2.44559 -0.0662,-1.79504 0.0297,-2.27749 0.74367,-3.74433 0.92339,-1.89698 2.43974,-4.06918 2.84058,-4.06918 0.14603,0 0.87137,0.6035 1.61188,1.34112 1.61345,1.60714 3.19219,2.41893 4.71396,2.42389 1.51397,0.005 6.00773,-1.3978 6.76898,-2.11296 0.80626,-0.75744 1.22906,-2.53081 1.22906,-5.15509 0,-2.33229 -0.39283,-3.39615 -2.13998,-5.79545 -0.52084,-0.71524 -0.94698,-1.37635 -0.94698,-1.46911 0,-0.58903 1.81885,-2.96805 2.45973,-3.21728 0.42215,-0.16416 2.7881,-0.815 5.25768,-1.4463 5.77828,-1.47712 14.92947,-4.08925 16.23059,-4.6329 1.27547,-0.53292 1.21797,-0.54228 1.41174,0.22977 0.30254,1.20542 2.06149,3.18369 3.25551,3.66144 2.04304,0.81746 5.19835,0.43287 6.24512,-0.76121 0.73632,-0.83994 1.8965,-3.28808 1.89981,-4.00887 0.004,-0.91078 0.5171,-1.15239 2.80906,-1.32317 2.74097,-0.20423 4.76506,-0.55787 5.50402,-0.96163 0.32612,-0.17818 0.98694,-0.80237 1.4685,-1.38707 1.65869,-2.01396 1.74361,-2.08135 2.5103,-1.99215 0.64704,0.0753 0.85485,0.3628 1.52397,2.10855 1.51365,3.94914 2.22212,7.27611 2.38657,11.20713 0.36934,8.82932 -1.94934,17.07263 -6.69873,23.81503 -2.23604,3.17436 -9.62916,10.63615 -13.00886,13.1297 -4.28161,3.15897 -9.35997,5.37935 -15.245,6.66549 -5.42002,1.18451 -20.12903,1.48458 -26.38432,0.53824 z"
       id="path3363"
       inkscape:connector-curvature="0" />
    <path
       style="fill:#ff0000"
       d="m 348.03729,614.04691 c -2.1688,-1.23767 -6.27279,-3.79477 -7.05636,-4.39666 -0.41382,-0.31786 -1.20867,-0.89365 -1.76635,-1.27952 -0.90483,-0.62608 -3.83489,-2.90378 -5.33898,-4.15028 -0.3087,-0.25583 -1.63469,-1.28488 -2.94664,-2.28678 -6.43387,-4.91332 -8.6204,-6.85926 -12.06281,-10.73557 -1.90259,-2.14241 -2.44702,-2.91762 -2.09918,-2.98901 0.25832,-0.053 1.92794,0.046 3.71027,0.22004 6.33578,0.61865 22.39256,0.36159 33.58723,-0.53773 4.16449,-0.33455 4.75321,0.005 7.0133,4.04655 l 1.03522,1.85114 -1.30623,1.52895 c -1.04798,1.22668 -1.49244,2.10321 -2.2481,4.43358 -1.34609,4.15119 -4.77875,10.04014 -7.95264,13.64329 -0.32671,0.3709 -0.59403,0.76781 -0.59403,0.88203 0,0.52091 -0.82778,0.42448 -1.9747,-0.23003 z"
       id="path3365"
       inkscape:connector-curvature="0" />
    <path
       style="fill:#ff0000"
       d="m 400.24703,570.30483 c 7.8e-4,-0.13227 0.19941,-0.61936 0.44102,-1.0824 1.03365,-1.98095 2.41347,-6.54803 2.56599,-8.49322 l 0.15985,-2.03865 4.45151,-1.41733 c 4.33666,-1.38075 8.6555,-2.14251 10.36396,-1.82802 0.37292,0.0687 0.88322,0.1342 1.134,0.14567 0.58337,0.0267 3.13837,2.46031 2.93258,2.79328 -0.0853,0.138 -0.56689,0.33174 -1.07023,0.43052 -0.83967,0.1648 -2.47982,1.44681 -3.16022,2.47017 -0.15435,0.23214 -0.49532,0.72394 -0.75771,1.09287 -0.26239,0.36894 -0.57811,1.47303 -0.70158,2.45355 l -0.22451,1.78276 -1.35443,0.51347 c -1.28751,0.48811 -6.68785,1.71092 -11.55468,2.61637 -1.23479,0.22972 -2.46606,0.50403 -2.73617,0.60957 -0.27011,0.10554 -0.49033,0.0837 -0.48938,-0.0486 z"
       id="path3367"
       inkscape:connector-curvature="0" />
  </g>
</svg>
