999
dxfrw 0.5.10
0
SECTION
2
HEADER
9
$ACADVER
1
AC1021
9
$HANDSEED
5
20000
9
$DWGCODEPAGE
3
ANSI_1252
9
$INSBASE
10
0
20
0
30
0
9
$EXTMIN
10
-40
20
-70
30
0
9
$EXTMAX
10
80
20
70
30
0
9
$LIMMIN
10
0
20
0
9
$LIMMAX
10
420
20
297
9
$ORTHOMODE
70
0
9
$LTSCALE
40
1
9
$TEXTSTYLE
7
STANDARD
9
$CLAYER
8
0
9
$DIMASZ
40
2.5
9
$DIMLFAC
40
1
9
$DIMSCALE
40
1
9
$DIMEXO
40
0.625
9
$DIMEXE
40
1.25
9
$DIMTXT
40
2.5
9
$DIMTSZ
40
0
9
$DIMAUNIT
70
0
9
$DIMADEC
70
0
9
$DIMLUNIT
70
2
9
$DIMSTYLE
2
STANDARD
9
$DIMGAP
40
0.625
9
$DIMTIH
70
0
9
$LUNITS
70
2
9
$LUPREC
70
4
9
$AUNITS
70
0
9
$AUPREC
70
2
9
$SPLINESEGS
70
8
9
$SNAPSTYLE
70
0
9
$PINSBASE
10
0
20
0
30
0
9
$PLIMMIN
10
0
20
0
9
$PLIMMAX
10
210
20
297
9
$INSUNITS
70
4
9
$PSVPSCALE
40
1
0
ENDSEC
0
SECTION
2
CLASSES
0
ENDSEC
0
SECTION
2
TABLES
0
TABLE
2
VPORT
5
8
330
0
100
AcDbSymbolTable
70
1
0
VPORT
5
31
330
2
100
AcDbSymbolTableRecord
100
AcDbViewportTableRecord
2
*ACTIVE
70
0
10
0
20
0
11
1
21
1
12
69.5205479452
22
35.9589041096
13
0
23
0
14
10
24
10
15
10
25
10
16
0
26
0
36
1
17
0
27
0
37
0
40
143.835616438
41
1.65333333333
42
50
43
0
44
0
50
0
51
0
71
0
72
100
73
1
74
3
75
0
76
1
77
0
78
0
281
0
65
1
110
0
120
0
130
0
111
1
121
0
131
0
112
0
122
1
132
0
79
0
146
0
348
10020
60
7
61
5
292
1
282
1
141
0
142
0
63
250
421
3358443
0
ENDTAB
0
TABLE
2
LTYPE
5
5
330
0
100
AcDbSymbolTable
70
4
0
LTYPE
5
14
330
5
100
AcDbSymbolTableRecord
100
AcDbLinetypeTableRecord
2
ByBlock
70
0
3

72
65
73
0
40
0
0
LTYPE
5
15
330
5
100
AcDbSymbolTableRecord
100
AcDbLinetypeTableRecord
2
ByLayer
70
0
3

72
65
73
0
40
0
0
LTYPE
5
16
330
5
100
AcDbSymbolTableRecord
100
AcDbLinetypeTableRecord
2
Continuous
70
0
3
Solid line
72
65
73
0
40
0
0
LTYPE
5
32
330
5
100
AcDbSymbolTableRecord
100
AcDbLinetypeTableRecord
2
DOT
70
0
3
Dot . . . . . . . . . . . . . . . . . . . . . .
72
65
73
2
40
6.35
49
0
74
0
49
-6.35
74
0
0
LTYPE
5
33
330
5
100
AcDbSymbolTableRecord
100
AcDbLinetypeTableRecord
2
DOT2
70
0
3
Dot (.5x) .....................................
72
65
73
2
40
3.175
49
0
74
0
49
-3.175
74
0
0
LTYPE
5
34
330
5
100
AcDbSymbolTableRecord
100
AcDbLinetypeTableRecord
2
DOTX2
70
0
3
Dot (2x) .  .  .  .  .  .  .  .  .  .  .  .  .
72
65
73
2
40
12.7
49
0
74
0
49
-12.7
74
0
0
LTYPE
5
35
330
5
100
AcDbSymbolTableRecord
100
AcDbLinetypeTableRecord
2
DASHED
70
0
3
Dot . . . . . . . . . . . . . . . . . . . . . .
72
65
73
2
40
19.05
49
12.7
74
0
49
-6.35
74
0
0
LTYPE
5
36
330
5
100
AcDbSymbolTableRecord
100
AcDbLinetypeTableRecord
2
DASHED2
70
0
3
Dashed (.5x) _ _ _ _ _ _ _ _ _ _ _ _ _ _ _ _ _
72
65
73
2
40
9.525
49
6.35
74
0
49
-3.175
74
0
0
LTYPE
5
37
330
5
100
AcDbSymbolTableRecord
100
AcDbLinetypeTableRecord
2
DASHEDX2
70
0
3
Dashed (2x) ____  ____  ____  ____  ____  ___
72
65
73
2
40
38.1
49
25.4
74
0
49
-12.7
74
0
0
LTYPE
5
38
330
5
100
AcDbSymbolTableRecord
100
AcDbLinetypeTableRecord
2
DASHDOT
70
0
3
Dash dot __ . __ . __ . __ . __ . __ . __ . __
72
65
73
4
40
25.4
49
12.7
74
0
49
-6.35
74
0
49
0
74
0
49
-6.35
74
0
0
LTYPE
5
39
330
5
100
AcDbSymbolTableRecord
100
AcDbLinetypeTableRecord
2
DASHDOT2
70
0
3
Dash dot (.5x) _._._._._._._._._._._._._._._.
72
65
73
4
40
12.7
49
6.35
74
0
49
-3.175
74
0
49
0
74
0
49
-3.175
74
0
0
LTYPE
5
3A
330
5
100
AcDbSymbolTableRecord
100
AcDbLinetypeTableRecord
2
DASHDOTX2
70
0
3
Dash dot (2x) ____  .  ____  .  ____  .  ___
72
65
73
4
40
50.8
49
25.4
74
0
49
-12.7
74
0
49
0
74
0
49
-12.7
74
0
0
LTYPE
5
3B
330
5
100
AcDbSymbolTableRecord
100
AcDbLinetypeTableRecord
2
DIVIDE
70
0
3
Divide ____ . . ____ . . ____ . . ____ . . ____
72
65
73
6
40
31.75
49
12.7
74
0
49
-6.35
74
0
49
0
74
0
49
-6.35
74
0
49
0
74
0
49
-6.35
74
0
0
LTYPE
5
3C
330
5
100
AcDbSymbolTableRecord
100
AcDbLinetypeTableRecord
2
DIVIDE2
70
0
3
Divide (.5x) __..__..__..__..__..__..__..__.._
72
65
73
6
40
15.875
49
6.35
74
0
49
-3.175
74
0
49
0
74
0
49
-3.175
74
0
49
0
74
0
49
-3.175
74
0
0
LTYPE
5
3D
330
5
100
AcDbSymbolTableRecord
100
AcDbLinetypeTableRecord
2
DIVIDEX2
70
0
3
Divide (2x) ________  .  .  ________  .  .  _
72
65
73
6
40
63.5
49
25.4
74
0
49
-12.7
74
0
49
0
74
0
49
-12.7
74
0
49
0
74
0
49
-12.7
74
0
0
LTYPE
5
3E
330
5
100
AcDbSymbolTableRecord
100
AcDbLinetypeTableRecord
2
BORDER
70
0
3
Border __ __ . __ __ . __ __ . __ __ . __ __ .
72
65
73
6
40
44.45
49
12.7
74
0
49
-6.35
74
0
49
12.7
74
0
49
-6.35
74
0
49
0
74
0
49
-6.35
74
0
0
LTYPE
5
3F
330
5
100
AcDbSymbolTableRecord
100
AcDbLinetypeTableRecord
2
BORDER2
70
0
3
Border (.5x) __.__.__.__.__.__.__.__.__.__.__.
72
65
73
6
40
22.225
49
6.35
74
0
49
-3.175
74
0
49
6.35
74
0
49
-3.175
74
0
49
0
74
0
49
-3.175
74
0
0
LTYPE
5
40
330
5
100
AcDbSymbolTableRecord
100
AcDbLinetypeTableRecord
2
BORDERX2
70
0
3
Border (2x) ____  ____  .  ____  ____  .  ___
72
65
73
6
40
88.9
49
25.4
74
0
49
-12.7
74
0
49
25.4
74
0
49
-12.7
74
0
49
0
74
0
49
-12.7
74
0
0
LTYPE
5
41
330
5
100
AcDbSymbolTableRecord
100
AcDbLinetypeTableRecord
2
CENTER
70
0
3
Center ____ _ ____ _ ____ _ ____ _ ____ _ ____
72
65
73
4
40
50.8
49
31.75
74
0
49
-6.35
74
0
49
6.35
74
0
49
-6.35
74
0
0
LTYPE
5
42
330
5
100
AcDbSymbolTableRecord
100
AcDbLinetypeTableRecord
2
CENTER2
70
0
3
Center (.5x) ___ _ ___ _ ___ _ ___ _ ___ _ ___
72
65
73
4
40
28.575
49
19.05
74
0
49
-3.175
74
0
49
3.175
74
0
49
-3.175
74
0
0
LTYPE
5
43
330
5
100
AcDbSymbolTableRecord
100
AcDbLinetypeTableRecord
2
CENTERX2
70
0
3
Center (2x) ________  __  ________  __  _____
72
65
73
4
40
101.6
49
63.5
74
0
49
-12.7
74
0
49
12.7
74
0
49
-12.7
74
0
0
ENDTAB
0
TABLE
2
LAYER
5
2
330
0
100
AcDbSymbolTable
70
1
0
LAYER
5
10
330
2
100
AcDbSymbolTableRecord
100
AcDbLayerTableRecord
2
0
70
0
62
7
6
CONTINUOUS
370
0
390
F
0
LAYER
5
44
330
2
100
AcDbSymbolTableRecord
100
AcDbLayerTableRecord
2
Guide
70
0
62
6
6
CONTINUOUS
370
0
390
F
0
LAYER
5
45
330
2
100
AcDbSymbolTableRecord
100
AcDbLayerTableRecord
2
Cut
70
0
62
1
6
CONTINUOUS
370
0
390
F
0
ENDTAB
0
TABLE
2
STYLE
5
3
330
0
100
AcDbSymbolTable
70
3
0
STYLE
5
46
330
2
100
AcDbSymbolTableRecord
100
AcDbTextStyleTableRecord
2
kochigothic
70
0
40
0
41
1
50
0
71
0
42
1
3
kochigothic
4

0
STYLE
5
47
330
2
100
AcDbSymbolTableRecord
100
AcDbTextStyleTableRecord
2
Standard
70
0
40
0
41
1
50
0
71
0
42
1
3
txt
4

0
ENDTAB
0
TABLE
2
VIEW
5
6
330
0
100
AcDbSymbolTable
70
0
0
ENDTAB
0
TABLE
2
UCS
5
7
330
0
100
AcDbSymbolTable
70
0
0
ENDTAB
0
TABLE
2
APPID
5
9
330
0
100
AcDbSymbolTable
70
1
0
APPID
5
12
330
9
100
AcDbSymbolTableRecord
100
AcDbRegAppTableRecord
2
ACAD
70
0
0
ENDTAB
0
TABLE
2
DIMSTYLE
5
A
330
0
100
AcDbSymbolTable
70
1
100
AcDbDimStyleTable
71
1
0
DIMSTYLE
105
48
330
A
100
AcDbSymbolTableRecord
100
AcDbDimStyleTableRecord
2
Standard
70
0
40
1
41
2.5
42
0.625
43
0.38
44
1.25
45
0
46
0
47
0
48
0
140
2.5
141
0.09
142
0
143
25.4
144
1
145
0
146
1
147
0.625
148
0
71
0
72
0
73
0
74
1
75
0
76
0
77
0
78
0
79
0
170
0
171
2
172
0
173
0
174
0
175
0
176
0
177
0
178
0
179
0
271
4
272
4
273
2
274
2
275
0
276
0
277
2
278
46
279
0
280
0
281
0
282
0
283
1
284
0
285
0
286
0
288
0
289
3
340
Standard
341

371
-2
372
-2
0
ENDTAB
0
TABLE
2
BLOCK_RECORD
5
1
330
0
100
AcDbSymbolTable
70
2
0
BLOCK_RECORD
5
1F
330
1
100
AcDbSymbolTableRecord
100
AcDbBlockTableRecord
2
*Model_Space
70
0
280
1
281
0
0
BLOCK_RECORD
5
1E
330
1
100
AcDbSymbolTableRecord
100
AcDbBlockTableRecord
2
*Paper_Space
70
0
280
1
281
0
0
ENDTAB
0
ENDSEC
0
SECTION
2
BLOCKS
0
BLOCK
5
20
330
1F
100
AcDbEntity
8
0
100
AcDbBlockBegin
2
*Model_Space
70
0
10
0
20
0
30
0
3
*Model_Space
1

0
ENDBLK
5
21
330
1F
100
AcDbEntity
8
0
100
AcDbBlockEnd
0
BLOCK
5
1C
330
1B
100
AcDbEntity
8
0
100
AcDbBlockBegin
2
*Paper_Space
70
0
10
0
20
0
30
0
3
*Paper_Space
1

0
ENDBLK
5
1D
330
1F
100
AcDbEntity
8
0
100
AcDbBlockEnd
0
ENDSEC
0
SECTION
2
ENTITIES
0
LINE
5
49
100
AcDbEntity
8
Guide
6
ByLayer
62
256
370
-1
100
AcDbLine
10
21
20
-30
11
21
21
30
0
LINE
5
4A
100
AcDbEntity
8
Guide
6
ByLayer
62
256
370
-1
100
AcDbLine
10
-21
20
-30
11
-21
21
30
0
LINE
5
4B
100
AcDbEntity
8
Guide
6
ByLayer
62
256
370
-1
100
AcDbLine
10
-21
20
30
11
21
21
30
0
LINE
5
4C
100
AcDbEntity
8
Guide
6
ByLayer
62
256
370
-1
100
AcDbLine
10
21
20
30
11
21
21
-30
0
LINE
5
4D
100
AcDbEntity
8
Guide
6
ByLayer
62
256
370
-1
100
AcDbLine
10
21
20
-30
11
-21
21
-30
0
CIRCLE
5
4E
100
AcDbEntity
8
Cut
6
ByLayer
62
256
370
-1
100
AcDbCircle
10
16
20
21
40
2
0
CIRCLE
5
4F
100
AcDbEntity
8
Cut
6
ByLayer
62
256
370
-1
100
AcDbCircle
10
-16
20
-21
40
2
0
MTEXT
5
50
100
AcDbEntity
8
0
6
ByLayer
62
256
370
-1
100
AcDbMText
10
0
20
-50
30
0
40
5
41
58.5515
71
2
72
1
1
Duck Goes Fast
7
kochigothic
210
0
220
0
230
1
50
0
73
2
44
1
0
MTEXT
5
51
100
AcDbEntity
8
0
6
ByLayer
62
256
370
-1
100
AcDbMText
10
0
20
50
30
0
40
5
41
59.1650555556
71
8
72
1
1
Duck Goes Slow
7
kochigothic
210
0
220
0
230
1
50
0
73
2
44
1
0
MTEXT
5
52
100
AcDbEntity
8
0
6
ByLayer
62
256
370
-1
100
AcDbMText
10
30
20
0
30
0
40
5
41
42.2919444444
71
4
72
1
1
Duck Takes\PIt Easy
7
kochigothic
210
0
220
0
230
1
50
0
73
2
44
1
0
ARC
5
53
100
AcDbEntity
8
Cut
6
ByLayer
62
256
370
-1
100
AcDbCircle
10
-20
20
50
40
20
100
AcDbArc
50
90
51
180
0
LINE
5
54
100
AcDbEntity
8
Cut
6
ByLayer
62
256
370
-1
100
AcDbLine
10
-40
20
-50
11
-40
21
50
0
ARC
5
55
100
AcDbEntity
8
Cut
6
ByLayer
62
256
370
-1
100
AcDbCircle
10
-20
20
-50
40
20
100
AcDbArc
50
180
51
270
0
LINE
5
56
100
AcDbEntity
8
Cut
6
ByLayer
62
256
370
-1
100
AcDbLine
10
60
20
-70
11
-20
21
-70
0
ARC
5
57
100
AcDbEntity
8
Cut
6
ByLayer
62
256
370
-1
100
AcDbCircle
10
60
20
-50
40
20
100
AcDbArc
50
270
51
0
0
LINE
5
58
100
AcDbEntity
8
Cut
6
ByLayer
62
256
370
-1
100
AcDbLine
10
80
20
50
11
80
21
-50
0
LINE
5
59
100
AcDbEntity
8
Cut
6
ByLayer
62
256
370
-1
100
AcDbLine
10
-20
20
70
11
60
21
70
0
ARC
5
5A
100
AcDbEntity
8
Cut
6
ByLayer
62
256
370
-1
100
AcDbCircle
10
60
20
50
40
20
100
AcDbArc
50
0
51
90
0
LWPOLYLINE
5
5B
100
AcDbEntity
8
0
6
ByLayer
62
256
370
-1
100
AcDbPolyline
90
1312
70
1
43
0
10
61.6182679645
20
-15.5663288543
10
61.6193175977
20
-15.5039961893
10
61.6205926436
20
-15.4439771318
10
61.6221004745
20
-15.3861842399
10
61.6238484628
20
-15.3305300716
10
61.6258439806
20
-15.2769271849
10
61.6280944004
20
-15.2252881379
10
61.6306070944
20
-15.1755254886
10
61.6333894349
20
-15.1275517951
10
61.6364487941
20
-15.0812796154
10
61.6397925444
20
-15.0366215076
10
61.643428058
20
-14.9934900297
10
61.6473627073
20
-14.9517977397
10
61.6516038645
20
-14.9114571957
10
61.6561589019
20
-14.8723809557
10
61.6610351917
20
-14.8344815779
10
61.6662401064
20
-14.7976716202
10
61.6717810182
20
-14.7618636406
10
61.6776652993
20
-14.7269701973
10
61.6839003221
20
-14.6929038482
10
61.6904934588
20
-14.6595771515
10
61.6974520818
20
-14.6269026651
10
61.7047835632
20
-14.5947929471
10
61.7124952755
20
-14.5631605555
10
61.7205945908
20
-14.5319180485
10
61.7290888816
20
-14.5009779839
10
61.73798552
20
-14.47025292
10
61.7589016233
20
-14.4027264659
10
61.7816167639
20
-14.3350104859
10
61.80616621
20
-14.2670531691
10
61.8325852297
20
-14.1988027048
10
61.860909091
20
-14.1302072824
10
61.8911730621
20
-14.0612150911
10
61.9234124111
20
-13.9917743203
10
61.9576624062
20
-13.9218331591
10
61.9939583153
20
-13.8513397969
10
62.0323354067
20
-13.7802424229
10
62.0728289484
20
-13.7084892265
10
62.1154742085
20
-13.636028397
10
62.1603064552
20
-13.5628081235
10
62.2073609565
20
-13.4887765954
10
62.2566729806
20
-13.413882002
10
62.3082777956
20
-13.3380725326
10
62.3622106696
20
-13.2612963764
10
62.4185068707
20
-13.1835017228
10
62.4772016669
20
-13.104636761
10
62.5383303265
20
-13.0246496802
10
62.6019281175
20
-12.9434886699
10
62.6680303081
20
-12.8611019192
10
62.7366721663
20
-12.7774376175
10
62.8078889602
20
-12.692443954
10
62.881715958
20
-12.606069118
10
62.9581884278
20
-12.5182612988
10
63.0373416376
20
-12.4289686858
10
63.1192108557
20
-12.3381394681
10
63.20383135
20
-12.245721835
10
63.2912383887
20
-12.1516639759
10
63.38146724
20
-12.05591408
10
63.77815824
20
-11.63774764
10
63.4623028
20
-11.21270292
10
63.445530945
20
-11.1902100016
10
63.4288556661
20
-11.1679979874
10
63.412302391
20
-11.1460972109
10
63.3958965472
20
-11.1245380056
10
63.3796635626
20
-11.103350705
10
63.3636288647
20
-11.0825656426
10
63.3478178812
20
-11.0622131517
10
63.3322560398
20
-11.042323566
10
63.3169687682
20
-11.0229272189
10
63.3019814941
20
-11.0040544439
10
63.2873196451
20
-10.9857355745
10
63.2730086489
20
-10.9680009441
10
63.2590739331
20
-10.9508808863
10
63.2455409255
20
-10.9344057345
10
63.2324350538
20
-10.9186058221
10
63.2197817455
20
-10.9035114828
10
63.2076064285
20
-10.8891530499
10
63.1959345302
20
-10.875560857
10
63.1847914785
20
-10.8627652376
10
63.174202701
20
-10.850796525
10
63.1641936253
20
-10.8396850529
10
63.1547896792
20
-10.8294611546
10
63.1460162904
20
-10.8201551637
10
63.1378988864
20
-10.8117974137
10
63.1304628949
20
-10.804418238
10
63.1237337437
20
-10.7980479701
10
63.1177368605
20
-10.7927169436
10
63.1124976728
20
-10.7884554918
10
63.1080416084
20
-10.7852939483
10
63.1043940949
20
-10.7832626465
10
63.10158056
20
-10.78239192
10
63.0990152483
20
-10.7820698582
10
63.0961040306
20
-10.7816658281
10
63.0928597739
20
-10.7811824045
10
63.0892953452
20
-10.7806221623
10
63.0854236114
20
-10.7799876763
10
63.0812574397
20
-10.7792815215
10
63.076809697
20
-10.7785062726
10
63.0720932504
20
-10.7776645045
10
63.0671209668
20
-10.7767587921
10
63.0619057132
20
-10.7757917103
10
63.0564603567
20
-10.7747658338
10
63.0507977642
20
-10.7736837376
10
63.0449308028
20
-10.7725479966
10
63.0388723395
20
-10.7713611855
10
63.0326352413
20
-10.7701258792
10
63.0262323751
20
-10.7688446526
10
63.0196766081
20
-10.7675200806
10
63.0129808072
20
-10.7661547379
10
63.0061578394
20
-10.7647511996
10
62.9992205717
20
-10.7633120403
10
62.9921818712
20
-10.761839835
10
62.9850546048
20
-10.7603371586
10
62.9778516395
20
-10.7588065859
10
62.9705858424
20
-10.7572506917
10
62.9632700805
20
-10.7556720509
10
62.9559172208
20
-10.7540732384
10
62.9485401302
20
-10.752456829
10
62.9411516759
20
-10.7508253977
10
62.9337647247
20
-10.7491815191
10
62.9263921437
20
-10.7475277683
10
62.9190468
20
-10.74586672
10
62.8809401876
20
-10.7377409304
10
62.8402901418
20
-10.7300635427
10
62.7972933437
20
-10.7228381674
10
62.7521464742
20
-10.7160684152
10
62.7050462141
20
-10.7097578964
10
62.6561892444
20
-10.7039102216
10
62.6057722461
20
-10.6985290013
10
62.5539919
20
-10.693617846
10
62.501044887
20
-10.6891803662
10
62.4471278882
20
-10.6852201725
10
62.3924375843
20
-10.6817408754
10
62.3371706564
20
-10.6787460853
10
62.2815237854
20
-10.6762394128
10
62.2256936521
20
-10.6742244684
10
62.1698769375
20
-10.6727048626
10
62.1142703225
20
-10.671684206
10
62.0590704881
20
-10.6711661089
10
62.0044741152
20
-10.6711541821
10
61.9506778846
20
-10.6716520359
10
61.8978784774
20
-10.6726632808
10
61.8462725743
20
-10.6741915275
10
61.7960568565
20
-10.6762403864
10
61.7474280047
20
-10.6788134679
10
61.7005826999
20
-10.6819143828
10
61.6557176231
20
-10.6855467413
10
61.6130294551
20
-10.6897141541
10
61.5727148768
20
-10.6944202317
10
61.5349705693
20
-10.6996685846
10
61.4999932133
20
-10.7054628232
10
61.4679794899
20
-10.7118065582
10
61.43912608
20
-10.7187034
10
61.3812423956
20
-10.733876095
10
61.326470442
20
-10.7480241839
10
61.2746923953
20
-10.7611456011
10
61.2257904314
20
-10.7732382815
10
61.1796467262
20
-10.7843001596
10
61.1361434559
20
-10.7943291702
10
61.0951627962
20
-10.8033232477
10
61.0565869233
20
-10.811280327
10
61.020298013
20
-10.8181983427
10
60.9861782414
20
-10.8240752293
10
60.9541097844
20
-10.8289089217
10
60.9239748181
20
-10.8326973543
10
60.8956555183
20
-10.8354384619
10
60.8690340611
20
-10.8371301791
10
60.8439926224
20
-10.8377704406
10
60.8204133782
20
-10.837357181
10
60.7981785045
20
-10.8358883349
10
60.7771701773
20
-10.8333618371
10
60.7572705725
20
-10.8297756222
10
60.7383618661
20
-10.8251276248
10
60.7203262341
20
-10.8194157795
10
60.7030458525
20
-10.8126380211
10
60.6864028972
20
-10.8047922842
10
60.6702795442
20
-10.7958765034
10
60.6545579695
20
-10.7858886133
10
60.6391203491
20
-10.7748265487
10
60.6238488589
20
-10.7626882442
10
60.6086256749
20
-10.7494716344
10
60.5933329731
20
-10.735174654
10
60.5778529295
20
-10.7197952377
10
60.56206772
20
-10.70333132
10
60.40780132
20
-10.53912316
10
60.54487936
20
-10.27025228
10
60.5521310499
20
-10.2559493535
10
60.5592874919
20
-10.2416775832
10
60.5663390234
20
-10.227459928
10
60.5732759814
20
-10.213319347
10
60.5800887033
20
-10.1992787992
10
60.5867675264
20
-10.1853612434
10
60.5933027878
20
-10.1715896387
10
60.5996848248
20
-10.1579869441
10
60.6059039746
20
-10.1445761186
10
60.6119505746
20
-10.131380121
10
60.6178149618
20
-10.1184219105
10
60.6234874736
20
-10.105724446
10
60.6289584473
20
-10.0933106864
10
60.63421822
20
-10.0812035908
10
60.639257129
20
-10.0694261181
10
60.6440655115
20
-10.0580012273
10
60.6486337049
20
-10.0469518774
10
60.6529520462
20
-10.0363010273
10
60.6570108729
20
-10.0260716361
10
60.660800522
20
-10.0162866627
10
60.6643113309
20
-10.0069690662
10
60.6675336368
20
-9.99814180536
10
60.670457777
20
-9.98982783932
10
60.6730740886
20
-9.98205012703
10
60.675372909
20
-9.97483162745
10
60.6773445753
20
-9.96819529958
10
60.6789794248
20
-9.96216410239
10
60.6802677948
20
-9.95676099485
10
60.6812000225
20
-9.95200893596
10
60.6817664452
20
-9.94793088468
10
60.6819574
20
-9.9445498
10
60.6814695854
20
-9.94085163306
10
60.680022598
20
-9.9358330316
10
60.6776411224
20
-9.92953299956
10
60.6743498432
20
-9.92199054083
10
60.670173445
20
-9.91324465932
10
60.6651366125
20
-9.90333435895
10
60.6592640301
20
-9.89229864363
10
60.6525803826
20
-9.88017651728
10
60.6451103544
20
-9.86700698379
10
60.6368786303
20
-9.85282904709
10
60.6279098948
20
-9.83768171108
10
60.6182288325
20
-9.82160397968
10
60.607860128
20
-9.80463485679
10
60.596828466
20
-9.78681334633
10
60.5851585309
20
-9.76817845221
10
60.5728750075
20
-9.74876917834
10
60.5600025803
20
-9.72862452863
10
60.546565934
20
-9.707783507
10
60.5325897531
20
-9.68628511735
10
60.5180987221
20
-9.66416836359
10
60.5031175259
20
-9.64147224964
10
60.4876708488
20
-9.61823577941
10
60.4717833756
20
-9.59449795681
10
60.4554797908
20
-9.57029778575
10
60.4387847791
20
-9.54567427014
10
60.421723025
20
-9.5206664139
10
60.4043192131
20
-9.49531322092
10
60.3865980281
20
-9.46965369514
10
60.3685841545
20
-9.44372684045
10
60.3503022769
20
-9.41757166076
10
60.33177708
20
-9.39122716
10
60.2999684207
20
-9.34607235643
10
60.2701556568
20
-9.30358201371
10
60.2422799586
20
-9.26359294089
10
60.2162824964
20
-9.22594194704
10
60.1921044407
20
-9.19046584122
10
60.1696869619
20
-9.1570014325
10
60.1489712304
20
-9.12538552993
10
60.1298984166
20
-9.09545494259
10
60.1124096908
20
-9.06704647953
10
60.0964462235
20
-9.03999694982
10
60.081949185
20
-9.01414316251
10
60.0688597457
20
-8.98932192669
10
60.0571190761
20
-8.9653700514
10
60.0466683466
20
-8.94212434571
10
60.0374487274
20
-8.91942161868
10
60.0294013891
20
-8.89709867938
10
60.022467502
20
-8.87499233687
10
60.0165882365
20
-8.85293940021
10
60.0117047629
20
-8.83077667847
10
60.0077582518
20
-8.80834098071
10
60.0046898735
20
-8.78546911599
10
60.0024407983
20
-8.76199789338
10
60.0009521967
20
-8.73776412193
10
60.0001652391
20
-8.71260461071
10
60.0000210959
20
-8.68635616879
10
60.0004609374
20
-8.65885560523
10
60.001425934
20
-8.62993972909
10
60.0028572562
20
-8.59944534943
10
60.0046960744
20
-8.56720927532
10
60.0068835588
20
-8.53306831583
10
60.00936088
20
-8.49685928
10
60.0134980536
20
-8.44177149269
10
60.0180380145
20
-8.38992217141
10
60.0230475468
20
-8.34126859912
10
60.0285934345
20
-8.29576805875
10
60.0347424617
20
-8.25337783325
10
60.0415614124
20
-8.21405520555
10
60.0491170708
20
-8.17775745859
10
60.0574762209
20
-8.14444187531
10
60.0667056467
20
-8.11406573866
10
60.0768721323
20
-8.08658633158
10
60.0880424618
20
-8.061960937
10
60.1002834192
20
-8.04014683787
10
60.1136617886
20
-8.02110131712
10
60.1282443541
20
-8.00478165771
10
60.1440978996
20
-7.99114514256
10
60.1612892094
20
-7.98014905461
10
60.1798850674
20
-7.97175067682
10
60.1999522577
20
-7.96590729212
10
60.2215575644
20
-7.96257618344
10
60.2447677715
20
-7.96171463374
10
60.2696496631
20
-7.96327992594
10
60.2962700233
20
-7.967229343
10
60.3246956361
20
-7.97352016785
10
60.3549932855
20
-7.98210968343
10
60.3872297557
20
-7.99295517269
10
60.4214718307
20
-8.00601391855
10
60.4577862946
20
-8.02124320397
10
60.4962399314
20
-8.03860031189
10
60.5368995252
20
-8.05804252524
10
60.57983186
20
-8.07952712696
10
60.62510372
20
-8.1030114
10
60.6713211782
20
-8.12677499628
10
60.7172922449
20
-8.14925843297
10
60.7630073903
20
-8.1704606883
10
60.8084570845
20
-8.19038074049
10
60.8536317978
20
-8.20901756777
10
60.8985220005
20
-8.22637014836
10
60.9431181627
20
-8.24243746049
10
60.9874107546
20
-8.25721848239
10
61.0313902465
20
-8.27071219227
10
61.0750471086
20
-8.28291756837
10
61.1183718111
20
-8.29383358892
10
61.1613548242
20
-8.30345923213
10
61.2039866182
20
-8.31179347623
10
61.2462576632
20
-8.31883529945
10
61.2881584294
20
-8.32458368002
10
61.3296793872
20
-8.32903759615
10
61.3708110067
20
-8.33219602608
10
61.4115437581
20
-8.33405794804
10
61.4518681116
20
-8.33462234024
10
61.4917745375
20
-8.33388818091
10
61.531253506
20
-8.33185444828
10
61.5702954872
20
-8.32852012057
10
61.6088909515
20
-8.32388417601
10
61.647030369
20
-8.31794559283
10
61.6847042099
20
-8.31070334925
10
61.7219029445
20
-8.30215642349
10
61.758617043
20
-8.29230379379
10
61.7948369756
20
-8.28114443836
10
61.8305532124
20
-8.26867733544
10
61.8657562238
20
-8.25490146324
10
61.90043648
20
-8.2398158
10
61.9300055497
20
-8.22600814332
10
61.9581894932
20
-8.2122118494
10
61.9850643809
20
-8.19830892722
10
62.0107062831
20
-8.18418138579
10
62.0351912703
20
-8.1697112341
10
62.0585954129
20
-8.15478048115
10
62.0809947813
20
-8.13927113593
10
62.1024654459
20
-8.12306520744
10
62.1230834772
20
-8.10604470467
10
62.1429249455
20
-8.08809163662
10
62.1620659212
20
-8.06908801229
10
62.1805824749
20
-8.04891584067
10
62.1985506768
20
-8.02745713076
10
62.2160465975
20
-8.00459389156
10
62.2331463072
20
-7.98020813205
10
62.2499258765
20
-7.95418186125
10
62.2664613757
20
-7.92639708813
10
62.2828288753
20
-7.8967358217
10
62.2991044456
20
-7.86508007096
10
62.3153641571
20
-7.8313118449
10
62.3316840803
20
-7.79531315251
10
62.3481402854
20
-7.7569660028
10
62.3648088429
20
-7.71615240476
10
62.3817658233
20
-7.67275436738
10
62.3990872969
20
-7.62665389966
10
62.4168493342
20
-7.5777330106
10
62.4351280056
20
-7.52587370919
10
62.4539993814
20
-7.47095800443
10
62.4735395322
20
-7.41286790531
10
62.4938245282
20
-7.35148542084
10
62.51493044
20
-7.28669256
10
62.5443101538
20
-7.19982334346
10
62.5760756775
20
-7.11327652823
10
62.6101744477
20
-7.02711828203
10
62.6465539009
20
-6.94141477258
10
62.6851614739
20
-6.8562321676
10
62.7259446031
20
-6.77163663481
10
62.7688507252
20
-6.68769434194
10
62.8138272767
20
-6.6044714567
10
62.8608216944
20
-6.52203414682
10
62.9097814147
20
-6.44044858001
10
62.9606538743
20
-6.35978092399
10
63.0133865098
20
-6.28009734649
10
63.0679267578
20
-6.20146401522
10
63.1242220548
20
-6.12394709791
10
63.1822198376
20
-6.04761276228
10
63.2418675426
20
-5.97252717604
10
63.3031126065
20
-5.89875650692
10
63.3659024659
20
-5.82636692264
10
63.4301845573
20
-5.75542459091
10
63.4959063175
20
-5.68599567947
10
63.5630151829
20
-5.61814635602
10
63.6314585903
20
-5.55194278829
10
63.7011839761
20
-5.487451144
10
63.772138777
20
-5.42473759088
10
63.8442704295
20
-5.36386829663
10
63.9175263704
20
-5.30490942899
10
63.9918540361
20
-5.24792715566
10
64.0672008634
20
-5.19298764438
10
64.1435142887
20
-5.14015706287
10
64.2207417487
20
-5.08950157883
10
64.29883068
20
-5.04108736
10
64.3799902029
20
-4.99385992265
10
64.4639407234
20
-4.9481885253
10
64.5504915784
20
-4.9041101878
10
64.6394521046
20
-4.86166192995
10
64.7306316387
20
-4.82088077159
10
64.8238395177
20
-4.78180373255
10
64.9188850782
20
-4.74446783264
10
65.015577657
20
-4.70891009169
10
65.113726591
20
-4.67516752952
10
65.2131412169
20
-4.64327716597
10
65.3136308715
20
-4.61327602085
10
65.4150048916
20
-4.58520111399
10
65.517072614
20
-4.55908946522
10
65.6196433754
20
-4.53497809435
10
65.7225265127
20
-4.51290402122
10
65.8255313626
20
-4.49290426565
10
65.9284672619
20
-4.47501584746
10
66.0311435474
20
-4.45927578648
10
66.1333695559
20
-4.44572110253
10
66.2349546241
20
-4.43438881545
10
66.3357080889
20
-4.42531594504
10
66.4354392871
20
-4.41853951114
10
66.5339575553
20
-4.41409653358
10
66.6310722305
20
-4.41202403217
10
66.7265926494
20
-4.41235902674
10
66.8203281487
20
-4.41513853713
10
66.9120880653
20
-4.42039958314
10
67.0016817359
20
-4.42817918461
10
67.0889184974
20
-4.43851436136
10
67.1736076865
20
-4.45144213321
10
67.25555864
20
-4.46699952
10
67.3026582907
20
-4.47749539752
10
67.3514111828
20
-4.48956510896
10
67.4017538045
20
-4.50317852881
10
67.4536226442
20
-4.51830553152
10
67.5069541899
20
-4.53491599157
10
67.56168493
20
-4.55297978342
10
67.6177513527
20
-4.57246678155
10
67.6750899461
20
-4.59334686042
10
67.7336371985
20
-4.61558989451
10
67.7933295981
20
-4.63916575829
10
67.8541036332
20
-4.66404432621
10
67.9158957919
20
-4.69019547276
10
67.9786425625
20
-4.71758907241
10
68.0422804332
20
-4.74619499961
10
68.1067458923
20
-4.77598312885
10
68.1719754279
20
-4.80692333459
10
68.2379055283
20
-4.83898549129
10
68.3044726817
20
-4.87213947344
10
68.3716133763
20
-4.9063551555
10
68.4392641003
20
-4.94160241193
10
68.5073613421
20
-4.97785111722
10
68.5758415897
20
-5.01507114582
10
68.6446413314
20
-5.05323237221
10
68.7136970555
20
-5.09230467085
10
68.7829452501
20
-5.13225791623
10
68.8523224035
20
-5.17306198279
10
68.9217650039
20
-5.21468674503
10
68.9912095395
20
-5.2571020774
10
69.0605924986
20
-5.30027785437
10
69.1298503694
20
-5.34418395041
10
69.19891964
20
-5.38879024
10
69.2654815729
20
-5.43185462107
10
69.3290369869
20
-5.47225059628
10
69.3897707011
20
-5.51000432717
10
69.4478675344
20
-5.54514197529
10
69.5035123059
20
-5.57768970219
10
69.5568898347
20
-5.60767366942
10
69.6081849397
20
-5.63512003852
10
69.6575824401
20
-5.66005497103
10
69.7052671548
20
-5.68250462852
10
69.7514239029
20
-5.70249517251
10
69.7962375034
20
-5.72005276456
10
69.8398927754
20
-5.73520356622
10
69.8825745379
20
-5.74797373903
10
69.9244676099
20
-5.75838944454
10
69.9657568105
20
-5.7664768443
10
70.0066269587
20
-5.77226209984
10
70.0472628736
20
-5.77577137273
10
70.0878493741
20
-5.77703082451
10
70.1285712794
20
-5.77606661671
10
70.1696134084
20
-5.7729049109
10
70.2111605802
20
-5.76757186861
10
70.2533976139
20
-5.7600936514
10
70.2965093284
20
-5.75049642081
10
70.3406805428
20
-5.73880633838
10
70.3860960761
20
-5.72504956567
10
70.4329407475
20
-5.70925226422
10
70.4813993758
20
-5.69144059557
10
70.5316567802
20
-5.67164072128
10
70.5838977797
20
-5.64987880289
10
70.6383071932
20
-5.62618100195
10
70.69506984
20
-5.60057348
10
70.7160718729
20
-5.59105060272
10
70.7369676846
20
-5.58175764026
10
70.7577250678
20
-5.57270467221
10
70.7783118151
20
-5.56390177813
10
70.7986957192
20
-5.5553590376
10
70.8188445729
20
-5.54708653019
10
70.8387261688
20
-5.53909433547
10
70.8583082996
20
-5.53139253301
10
70.877558758
20
-5.5239912024
10
70.8964453367
20
-5.5169004232
10
70.9149358283
20
-5.51013027498
10
70.9329980256
20
-5.50369083732
10
70.9505997212
20
-5.4975921898
10
70.9677087079
20
-5.49184441197
10
70.9842927782
20
-5.48645758343
10
71.000319725
20
-5.48144178373
10
71.0157573408
20
-5.47680709246
10
71.0305734184
20
-5.47256358918
10
71.0447357504
20
-5.46872135348
10
71.0582121296
20
-5.46529046491
10
71.0709703486
20
-5.46228100307
10
71.0829782001
20
-5.45970304751
10
71.0942034768
20
-5.45756667781
10
71.1046139714
20
-5.45588197355
10
71.1141774766
20
-5.45465901429
10
71.122861785
20
-5.45390787961
10
71.1306346894
20
-5.45363864909
10
71.1374639824
20
-5.4538614023
10
71.1433174567
20
-5.4545862188
10
71.148162905
20
-5.45582317818
10
71.15196812
20
-5.45758236
10
71.165823229
20
-5.46738771819
10
71.178133611
20
-5.47867808634
10
71.1889159455
20
-5.49139602615
10
71.1981869116
20
-5.50548409931
10
71.2059631887
20
-5.52088486749
10
71.2122614562
20
-5.53754089239
10
71.2170983934
20
-5.55539473569
10
71.2204906795
20
-5.57438895907
10
71.222454994
20
-5.59446612423
10
71.2230080162
20
-5.61556879286
10
71.2221664254
20
-5.63763952662
10
71.2199469008
20
-5.66062088723
10
71.2163661219
20
-5.68445543635
10
71.211440768
20
-5.70908573568
10
71.2051875184
20
-5.7344543469
10
71.1976230524
20
-5.7605038317
10
71.1887640494
20
-5.78717675177
10
71.1786271886
20
-5.81441566879
10
71.1672291494
20
-5.84216314445
10
71.1545866112
20
-5.87036174043
10
71.1407162533
20
-5.89895401842
10
71.1256347549
20
-5.92788254012
10
71.1093587954
20
-5.95708986719
10
71.0919050542
20
-5.98651856134
10
71.0732902106
20
-6.01611118424
10
71.0535309438
20
-6.04581029759
10
71.0326439333
20
-6.07555846307
10
71.0106458583
20
-6.10529824236
10
70.9875533982
20
-6.13497219715
10
70.9633832323
20
-6.16452288914
10
70.93815204
20
-6.19389288
10
70.9235863436
20
-6.21049757942
10
70.9092119612
20
-6.22699740968
10
70.8950483014
20
-6.2433674269
10
70.8811147727
20
-6.25958268716
10
70.8674307836
20
-6.27561824655
10
70.8540157429
20
-6.29144916119
10
70.8408890589
20
-6.30705048716
10
70.8280701404
20
-6.32239728055
10
70.8155783958
20
-6.33746459747
10
70.8034332337
20
-6.35222749401
10
70.7916540627
20
-6.36666102627
10
70.7802602914
20
-6.38074025034
10
70.7692713282
20
-6.39444022232
10
70.7587065819
20
-6.4077359983
10
70.7485854608
20
-6.42060263439
10
70.7389273737
20
-6.43301518667
10
70.7297517291
20
-6.44494871125
10
70.7210779355
20
-6.45637826422
10
70.7129254015
20
-6.46727890167
10
70.7053135356
20
-6.4776256797
10
70.6982617465
20
-6.48739365442
10
70.6917894427
20
-6.49655788191
10
70.6859160328
20
-6.50509341826
10
70.6806609252
20
-6.51297531959
10
70.6760435287
20
-6.52017864198
10
70.6720832517
20
-6.52667844152
10
70.6687995029
20
-6.53244977432
10
70.6662116907
20
-6.53746769647
10
70.6643392238
20
-6.54170726407
10
70.6632015107
20
-6.54514353322
10
70.66281796
20
-6.54775156
10
70.6632015107
20
-6.54992385002
10
70.6643392238
20
-6.55206760841
10
70.6662116907
20
-6.55417994062
10
70.6687995029
20
-6.55625795206
10
70.6720832517
20
-6.55829874816
10
70.6760435287
20
-6.56029943435
10
70.6806609252
20
-6.56225711606
10
70.6859160328
20
-6.5641688987
10
70.6917894427
20
-6.56603188771
10
70.6982617465
20
-6.56784318852
10
70.7053135356
20
-6.56959990654
10
70.7129254015
20
-6.57129914721
10
70.7210779355
20
-6.57293801596
10
70.7297517291
20
-6.5745136182
10
70.7389273737
20
-6.57602305937
10
70.7485854608
20
-6.57746344489
10
70.7587065819
20
-6.57883188019
10
70.7692713282
20
-6.5801254707
10
70.7802602914
20
-6.58134132184
10
70.7916540627
20
-6.58247653903
10
70.8034332337
20
-6.58352822771
10
70.8155783958
20
-6.58449349331
10
70.8280701404
20
-6.58536944124
10
70.8408890589
20
-6.58615317693
10
70.8540157429
20
-6.58684180581
10
70.8674307836
20
-6.58743243331
10
70.8811147727
20
-6.58792216486
10
70.8950483014
20
-6.58830810587
10
70.9092119612
20
-6.58858736178
10
70.9235863436
20
-6.58875703802
10
70.93815204
20
-6.58881424
10
70.9685368279
20
-6.58904316724
10
70.9970235637
20
-6.58975339784
10
71.0236212872
20
-6.59098010516
10
71.0483390381
20
-6.59275846251
10
71.071185856
20
-6.59512364324
10
71.0921707805
20
-6.59811082069
10
71.1113028515
20
-6.60175516819
10
71.1285911086
20
-6.60609185908
10
71.1440445914
20
-6.6111560667
10
71.1576723396
20
-6.61698296438
10
71.1694833929
20
-6.62360772546
10
71.179486791
20
-6.63106552328
10
71.1876915736
20
-6.63939153117
10
71.1941067803
20
-6.64862092247
10
71.1987414509
20
-6.65878887053
10
71.201604625
20
-6.66993054866
10
71.2027053422
20
-6.68208113022
10
71.2020526424
20
-6.69527578854
10
71.199655565
20
-6.70954969695
10
71.19552315
20
-6.7249380288
10
71.1896644368
20
-6.74147595741
10
71.1820884652
20
-6.75919865613
10
71.1728042749
20
-6.7781412983
10
71.1618209056
20
-6.79833905724
10
71.1491473969
20
-6.8198271063
10
71.1347927885
20
-6.84264061882
10
71.1187661201
20
-6.86681476812
10
71.1010764313
20
-6.89238472756
10
71.081732762
20
-6.91938567046
10
71.0607441516
20
-6.94785277016
10
71.03811964
20
-6.9778212
10
71.025629271
20
-6.99393304662
10
71.0131855974
20
-7.00944679305
10
71.0007691693
20
-7.02437421879
10
70.9883605366
20
-7.03872710336
10
70.9759402494
20
-7.05251722627
10
70.9634888578
20
-7.06575636703
10
70.9509869118
20
-7.07845630515
10
70.9384149615
20
-7.09062882015
10
70.9257535568
20
-7.10228569153
10
70.9129832479
20
-7.11343869882
10
70.9000845847
20
-7.12409962151
10
70.8870381174
20
-7.13428023912
10
70.8738243959
20
-7.14399233118
10
70.8604239703
20
-7.15324767717
10
70.8468173907
20
-7.16205805663
10
70.8329852071
20
-7.17043524905
10
70.8189079694
20
-7.17839103396
10
70.8045662279
20
-7.18593719086
10
70.7899405325
20
-7.19308549927
10
70.7750114332
20
-7.1998477387
10
70.7597594802
20
-7.20623568866
10
70.7441652233
20
-7.21226112865
10
70.7282092128
20
-7.21793583821
10
70.7118719986
20
-7.22327159683
10
70.6951341308
20
-7.22828018402
10
70.6779761594
20
-7.23297337931
10
70.6603786344
20
-7.2373629622
10
70.642322106
20
-7.2414607122
10
70.623787124
20
-7.24527840882
10
70.6047542387
20
-7.24882783159
10
70.585204
20
-7.25212076
10
70.5624922656
20
-7.25581729613
10
70.541067205
20
-7.25945007733
10
70.5208998371
20
-7.2630423815
10
70.501961181
20
-7.26661748654
10
70.4842222555
20
-7.27019867037
10
70.4676540798
20
-7.27380921088
10
70.4522276728
20
-7.27747238598
10
70.4379140535
20
-7.28121147358
10
70.4246842408
20
-7.28504975158
10
70.4125092538
20
-7.28901049789
10
70.4013601115
20
-7.29311699042
10
70.3912078328
20
-7.29739250706
10
70.3820234367
20
-7.30186032573
10
70.3737779422
20
-7.30654372432
10
70.3664423683
20
-7.31146598075
10
70.359987734
20
-7.31665037292
10
70.3543850582
20
-7.32212017874
10
70.34960536
20
-7.32789867611
10
70.3456196584
20
-7.33400914293
10
70.3423989723
20
-7.34047485712
10
70.3399143206
20
-7.34731909657
10
70.3381367225
20
-7.3545651392
10
70.3370371969
20
-7.3622362629
10
70.3365867628
20
-7.37035574559
10
70.3367564391
20
-7.37894686517
10
70.3375172449
20
-7.38803289954
10
70.3388401991
20
-7.39763712661
10
70.3406963207
20
-7.40778282429
10
70.3430566287
20
-7.41849327047
10
70.3458921422
20
-7.42979174308
10
70.34917388
20
-7.44170152
10
70.3681566601
20
-7.51039415712
10
70.3863896785
20
-7.58098882013
10
70.4038582555
20
-7.65330103139
10
70.4205477114
20
-7.72714631323
10
70.4364433665
20
-7.802340188
10
70.4515305411
20
-7.87869817803
10
70.4657945556
20
-7.95603580568
10
70.4792207303
20
-8.03416859327
10
70.4917943854
20
-8.11291206316
10
70.5035008414
20
-8.19208173768
10
70.5143254184
20
-8.27149313917
10
70.5242534369
20
-8.35096178998
10
70.5332702172
20
-8.43030321245
10
70.5413610795
20
-8.50933292892
10
70.5485113442
20
-8.58786646173
10
70.5547063315
20
-8.66571933323
10
70.5599313619
20
-8.74270706575
10
70.5641717556
20
-8.81864518164
10
70.567412833
20
-8.89334920323
10
70.5696399143
20
-8.96663465288
10
70.5708383199
20
-9.03831705292
10
70.5709933701
20
-9.10821192569
10
70.5700903851
20
-9.17613479353
10
70.5681146854
20
-9.2419011788
10
70.5650515912
20
-9.30532660382
10
70.5608864229
20
-9.36622659094
10
70.5556045007
20
-9.4244166625
10
70.549191145
20
-9.47971234085
10
70.5416316761
20
-9.53192914832
10
70.5329114144
20
-9.58088260725
10
70.52301568
20
-9.62638824
10
70.5075088653
20
-9.68668284799
10
70.4899523923
20
-9.74680900369
10
70.4703347822
20
-9.80678104342
10
70.4486445567
20
-9.86661330347
10
70.4248702371
20
-9.92632012017
10
70.3990003449
20
-9.9859158298
10
70.3710234017
20
-10.0454147687
10
70.3409279288
20
-10.1048312732
10
70.3087024477
20
-10.1641796795
10
70.2743354799
20
-10.223474324
10
70.2378155468
20
-10.282729543
10
70.19913117
20
-10.3419596728
10
70.1582708709
20
-10.4011790497
10
70.1152231709
20
-10.46040201
10
70.0699765915
20
-10.51964289
10
70.0225196542
20
-10.5789160261
10
69.9728408804
20
-10.6382357544
10
69.9209287917
20
-10.6976164115
10
69.8667719094
20
-10.7570723335
10
69.810358755
20
-10.8166178567
10
69.7516778501
20
-10.8762673176
10
69.690717716
20
-10.9360350523
10
69.6274668743
20
-10.9959353971
10
69.5619138463
20
-11.0559826885
10
69.4940471536
20
-11.1161912627
10
69.4238553177
20
-11.176575456
10
69.3513268599
20
-11.2371496047
10
69.2764503018
20
-11.2979280452
10
69.1992141648
20
-11.3589251137
10
69.1196069704
20
-11.4201551465
10
69.03761724
20
-11.48163248
10
69.0070336083
20
-11.5043622375
10
68.9769425415
20
-11.5268843188
10
68.94738253
20
-11.5491661747
10
68.9183920644
20
-11.5711752556
10
68.8900096352
20
-11.5928790124
10
68.8622737329
20
-11.6142448956
10
68.8352228482
20
-11.6352403559
10
68.8088954715
20
-11.655832844
10
68.7833300935
20
-11.6759898104
10
68.7585652046
20
-11.695678706
10
68.7346392953
20
-11.7148669813
10
68.7115908563
20
-11.733522087
10
68.6894583781
20
-11.7516114737
10
68.6682803511
20
-11.7691025921
10
68.648095266
20
-11.7859628929
10
68.6289416134
20
-11.8021598267
10
68.6108578836
20
-11.8176608441
10
68.5938825674
20
-11.8324333959
10
68.5780541551
20
-11.8464449326
10
68.5634111375
20
-11.859662905
10
68.5499920049
20
-11.8720547636
10
68.537835248
20
-11.8835879592
10
68.5269793573
20
-11.8942299424
10
68.5174628234
20
-11.9039481638
10
68.5093241367
20
-11.9127100742
10
68.5026017879
20
-11.9204831241
10
68.4973342674
20
-11.9272347642
10
68.4935600658
20
-11.9329324452
10
68.4913176737
20
-11.9375436177
10
68.4906455816
20
-11.9410357324
10
68.49158228
20
-11.94337624
10
68.4947429664
20
-11.945142929
10
68.5006678197
20
-11.9469327255
10
68.5092827909
20
-11.9487421228
10
68.5205138312
20
-11.9505676143
10
68.5342868916
20
-11.9524056935
10
68.5505279233
20
-11.9542528537
10
68.5691628774
20
-11.9561055883
10
68.5901177048
20
-11.9579603908
10
68.6133183568
20
-11.9598137546
10
68.6386907844
20
-11.961662173
10
68.6661609387
20
-11.9635021394
10
68.6956547709
20
-11.9653301473
10
68.7270982319
20
-11.9671426901
10
68.7604172729
20
-11.9689362611
10
68.7955378451
20
-11.9707073538
10
68.8323858994
20
-11.9724524616
10
68.870887387
20
-11.9741680778
10
68.9109682589
20
-11.9758506959
10
68.9525544663
20
-11.9774968093
10
68.9955719603
20
-11.9791029114
10
69.039946692
20
-11.9806654955
10
69.0856046123
20
-11.9821810552
10
69.1324716726
20
-11.9836460837
10
69.1804738237
20
-11.9850570745
10
69.2295370169
20
-11.986410521
10
69.2795872033
20
-11.9877029165
10
69.3305503338
20
-11.9889307546
10
69.3823523596
20
-11.9900905286
10
69.4349192319
20
-11.9911787319
10
69.4881769017
20
-11.9921918579
10
69.54205132
20
-11.9931264
10
70.55956764
20
-12.00992312
10
71.4544032
20
-12.33451592
10
71.6562250778
20
-12.4077031483
10
71.845664335
20
-12.4763381939
10
72.0231694127
20
-12.5405578113
10
72.1891887518
20
-12.6004987548
10
72.3441707933
20
-12.6562977789
10
72.4885639783
20
-12.7080916382
10
72.6228167478
20
-12.756017087
10
72.7473775427
20
-12.8002108798
10
72.8626948041
20
-12.8408097712
10
72.969216973
20
-12.8779505154
10
73.0673924903
20
-12.9117698671
10
73.1576697971
20
-12.9424045806
10
73.2404973344
20
-12.9699914104
10
73.3163235432
20
-12.994667111
10
73.3855968644
20
-13.0165684369
10
73.4487657391
20
-13.0358321424
10
73.5062786083
20
-13.052594982
10
73.558583913
20
-13.0669937103
10
73.6061300942
20
-13.0791650817
10
73.6493655929
20
-13.0892458505
10
73.6887388501
20
-13.0973727714
10
73.7246983068
20
-13.1036825987
10
73.7576924039
20
-13.1083120869
10
73.7881695826
20
-13.1113979905
10
73.8165782839
20
-13.1130770638
10
73.8433669486
20
-13.1134860615
10
73.8689840178
20
-13.1127617379
10
73.8938779326
20
-13.1110408475
10
73.9184971339
20
-13.1084601447
10
73.9432900627
20
-13.1051563841
10
73.96870516
20
-13.10126632
10
74.0182503583
20
-13.0914771786
10
74.0713323232
20
-13.0774620776
10
74.1277543686
20
-13.0593613059
10
74.1873198086
20
-13.0373151522
10
74.2498319569
20
-13.0114639053
10
74.3150941276
20
-12.9819478539
10
74.3829096344
20
-12.9489072868
10
74.4530817914
20
-12.9124824929
10
74.5254139125
20
-12.8728137609
10
74.5997093115
20
-12.8300413795
10
74.6757713023
20
-12.7843056376
10
74.753403199
20
-12.7357468239
10
74.8324083154
20
-12.6845052272
10
74.9125899653
20
-12.6307211363
10
74.9937514628
20
-12.57453484
10
75.0756961218
20
-12.516086627
10
75.1582272561
20
-12.455516786
10
75.2411481796
20
-12.392965606
10
75.3242622064
20
-12.3285733757
10
75.4073726502
20
-12.2624803837
10
75.4902828251
20
-12.194826919
10
75.5727960448
20
-12.1257532703
10
75.6547156234
20
-12.0553997264
10
75.7358448748
20
-11.983906576
10
75.8159871128
20
-11.911414108
10
75.8949456514
20
-11.838062611
10
75.9725238045
20
-11.7639923739
10
76.048524886
20
-11.6893436855
10
76.1227522098
20
-11.6142568345
10
76.1950090898
20
-11.5388721098
10
76.26509884
20
-11.4633298
10
76.72448436
20
-10.95974264
10
76.86756992
20
-11.13160016
10
76.8786185979
20
-11.1450951186
10
76.8890639168
20
-11.158338491
10
76.8989157046
20
-11.1713780848
10
76.9081837897
20
-11.1842617078
10
76.9168780001
20
-11.197037168
10
76.9250081639
20
-11.2097522731
10
76.9325841094
20
-11.2224548308
10
76.9396156647
20
-11.2351926491
10
76.9461126579
20
-11.2480135357
10
76.9520849172
20
-11.2609652984
10
76.9575422708
20
-11.274095745
10
76.9624945467
20
-11.2874526833
10
76.9669515731
20
-11.3010839212
10
76.9709231782
20
-11.3150372664
10
76.9744191902
20
-11.3293605267
10
76.9774494371
20
-11.34410151
10
76.9800237471
20
-11.359308024
10
76.9821519485
20
-11.3750278766
10
76.9838438692
20
-11.3913088756
10
76.9851093376
20
-11.4081988287
10
76.9859581816
20
-11.4257455438
10
76.9864002296
20
-11.4439968286
10
76.9864453095
20
-11.463000491
10
76.9861032497
20
-11.4828043389
10
76.9853838781
20
-11.5034561799
10
76.984297023
20
-11.5250038219
10
76.9828525126
20
-11.5474950727
10
76.9810601749
20
-11.5709777401
10
76.9789298382
20
-11.5954996319
10
76.9764713305
20
-11.6211085559
10
76.97369448
20
-11.64785232
10
76.9712990929
20
-11.6705671363
10
76.9691117444
20
-11.6921397174
10
76.9671329107
20
-11.7125737334
10
76.9653630678
20
-11.7318728547
10
76.963802692
20
-11.7500407517
10
76.9624522592
20
-11.7670810945
10
76.9613122456
20
-11.7829975535
10
76.9603831273
20
-11.7977937989
10
76.9596653804
20
-11.8114735012
10
76.959159481
20
-11.8240403306
10
76.9588659053
20
-11.8354979573
10
76.9587851293
20
-11.8458500517
10
76.9589176291
20
-11.8551002841
10
76.9592638809
20
-11.8632523247
10
76.9598243608
20
-11.870309844
10
76.9605995448
20
-11.876276512
10
76.9615899091
20
-11.8811559993
10
76.9627959298
20
-11.884951976
10
76.964218083
20
-11.8876681125
10
76.9658568448
20
-11.889308079
10
76.9677126913
20
-11.8898755459
10
76.9697860987
20
-11.8893741835
10
76.972077543
20
-11.887807662
10
76.9745875003
20
-11.8851796517
10
76.9773164468
20
-11.881493823
10
76.9802648585
20
-11.8767538462
10
76.9834332117
20
-11.8709633915
10
76.9868219823
20
-11.8641261292
10
76.9904316464
20
-11.8562457297
10
76.9942626803
20
-11.8473258632
10
76.99831556
20
-11.8373702
10
77.0125428953
20
-11.8039523452
10
77.0270434543
20
-11.7744590531
10
77.0417739603
20
-11.7488302211
10
77.0566911368
20
-11.7270057465
10
77.0717517075
20
-11.7089255267
10
77.0869123958
20
-11.694529459
10
77.1021299251
20
-11.6837574409
10
77.1173610191
20
-11.6765493697
10
77.1325624012
20
-11.6728451429
10
77.147690795
20
-11.6725846576
10
77.1627029238
20
-11.6757078114
10
77.1775555113
20
-11.6821545017
10
77.192205281
20
-11.6918646257
10
77.2066089563
20
-11.7047780808
10
77.2207232607
20
-11.7208347645
10
77.2345049179
20
-11.7399745741
10
77.2479106512
20
-11.762137407
10
77.2608971842
20
-11.7872631605
10
77.2734212404
20
-11.8152917321
10
77.2854395432
20
-11.846163019
10
77.2969088163
20
-11.8798169187
10
77.3077857831
20
-11.9161933285
10
77.3180271671
20
-11.9552321459
10
77.3275896919
20
-11.9968732681
10
77.3364300809
20
-12.0410565926
10
77.3445050576
20
-12.0877220168
10
77.3517713455
20
-12.1368094379
10
77.3581856683
20
-12.1882587534
10
77.3637047492
20
-12.2420098607
10
77.368285312
20
-12.2980026571
10
77.37188408
20
-12.35617704
10
77.3738209319
20
-12.4061520711
10
77.3744587669
20
-12.4569730737
10
77.3737997673
20
-12.5086322553
10
77.3718461153
20
-12.5611218232
10
77.368599993
20
-12.6144339849
10
77.3640635828
20
-12.6685609478
10
77.3582390668
20
-12.7234949192
10
77.3511286272
20
-12.7792281066
10
77.3427344463
20
-12.8357527173
10
77.3330587063
20
-12.8930609588
10
77.3221035894
20
-12.9511450384
10
77.3098712778
20
-13.0099971637
10
77.2963639538
20
-13.0696095418
10
77.2815837995
20
-13.1299743804
10
77.2655329972
20
-13.1910838866
10
77.2482137291
20
-13.2529302681
10
77.2296281774
20
-13.3155057321
10
77.2097785244
20
-13.378802486
10
77.1886669522
20
-13.4428127373
10
77.166295643
20
-13.5075286934
10
77.1426667792
20
-13.5729425616
10
77.1177825429
20
-13.6390465493
10
77.0916451163
20
-13.7058328641
10
77.0642566816
20
-13.7732937131
10
77.0356194211
20
-13.8414213039
10
77.005735517
20
-13.9102078439
10
76.9746071516
20
-13.9796455404
10
76.9422365069
20
-14.0497266009
10
76.9086257653
20
-14.1204432327
10
76.8737771089
20
-14.1917876433
10
76.83769272
20
-14.26375204
10
76.8282330714
20
-14.2826303635
10
76.8184747952
20
-14.3025893323
10
76.8084410219
20
-14.3235707202
10
76.7981548823
20
-14.3455163015
10
76.7876395071
20
-14.3683678501
10
76.7769180268
20
-14.3920671401
10
76.7660135721
20
-14.4165559455
10
76.7549492738
20
-14.4417760404
10
76.7437482624
20
-14.4676691987
10
76.7324336687
20
-14.4941771946
10
76.7210286233
20
-14.521241802
10
76.7095562568
20
-14.548804795
10
76.6980397
20
-14.5768079477
10
76.6865020834
20
-14.6051930341
10
76.6749665379
20
-14.6339018282
10
76.6634561939
20
-14.662876104
10
76.6519941822
20
-14.6920576357
10
76.6406036335
20
-14.7213881972
10
76.6293076783
20
-14.7508095626
10
76.6181294475
20
-14.7802635059
10
76.6070920716
20
-14.8096918011
10
76.5962186813
20
-14.8390362224
10
76.5855324072
20
-14.8682385437
10
76.5750563801
20
-14.897240539
10
76.5648137306
20
-14.9259839825
10
76.5548275893
20
-14.9544106481
10
76.5451210869
20
-14.98246231
10
76.5357173542
20
-15.010080742
10
76.5266395217
20
-15.0372077184
10
76.51791072
20
-15.063785013
10
76.50955408
20
-15.0897544
10
76.4778153714
20
-15.1860996551
10
76.4435056366
20
-15.2838505932
10
76.4066998198
20
-15.3828820324
10
76.3674728651
20
-15.4830687911
10
76.3258997167
20
-15.5842856875
10
76.2820553186
20
-15.68640754
10
76.2360146151
20
-15.7893091669
10
76.1878525503
20
-15.8928653864
10
76.1376440683
20
-15.9969510169
10
76.0854641132
20
-16.1014408766
10
76.0313876291
20
-16.2062097838
10
75.9754895603
20
-16.3111325569
10
75.9178448508
20
-16.4160840141
10
75.8585284447
20
-16.5209389736
10
75.7976152863
20
-16.6255722539
10
75.7351803196
20
-16.7298586731
10
75.6712984888
20
-16.8336730497
10
75.606044738
20
-16.9368902018
10
75.5394940114
20
-17.0393849478
10
75.471721253
20
-17.1410321059
10
75.4028014071
20
-17.2417064945
10
75.3328094177
20
-17.3412829319
10
75.2618202289
20
-17.4396362363
10
75.189908785
20
-17.536641226
10
75.1171500301
20
-17.6321727194
10
75.0436189082
20
-17.7261055346
10
74.9693903636
20
-17.8183144901
10
74.8945393403
20
-17.9086744041
10
74.8191407825
20
-17.9970600949
10
74.7432696344
20
-18.0833463807
10
74.66700084
20
-18.16740808
10
74.6381543176
20
-18.1977277865
10
74.6061070285
20
-18.2296358987
10
74.5710571571
20
-18.2629927975
10
74.5332028881
20
-18.2976588636
10
74.4927424062
20
-18.3334944779
10
74.4498738959
20
-18.370360021
10
74.4047955419
20
-18.4081158737
10
74.3577055288
20
-18.446622417
10
74.3088020411
20
-18.4857400315
10
74.2582832636
20
-18.525329098
10
74.2063473807
20
-18.5652499973
10
74.1531925772
20
-18.6053631102
10
74.0990170376
20
-18.6455288175
10
74.0440189466
20
-18.6856074999
10
73.9883964888
20
-18.7254595383
10
73.9323478487
20
-18.7649453134
10
73.8760712111
20
-18.8039252061
10
73.8197647605
20
-18.842259597
10
73.7636266814
20
-18.879808867
10
73.7078551587
20
-18.9164333968
10
73.6526483768
20
-18.9519935673
10
73.5982045203
20
-18.9863497592
10
73.544721774
20
-19.0193623534
10
73.4923983224
20
-19.0508917305
10
73.44143235
20
-19.0807982714
10
73.3920220416
20
-19.1089423569
10
73.3443655818
20
-19.1351843677
10
73.298661155
20
-19.1593846846
10
73.2551069461
20
-19.1814036884
10
73.2139011396
20
-19.20110176
10
73.17524192
20
-19.21833928
10
73.1050415581
20
-19.2479665666
10
73.0343784394
20
-19.2769963072
10
72.963210325
20
-19.3054398157
10
72.8914949758
20
-19.3333084062
10
72.8191901528
20
-19.3606133925
10
72.7462536169
20
-19.3873660887
10
72.6726431292
20
-19.4135778088
10
72.5983164506
20
-19.4392598668
10
72.5232313421
20
-19.4644235765
10
72.4473455647
20
-19.4890802521
10
72.3706168793
20
-19.5132412074
10
72.2930030469
20
-19.5369177566
10
72.2144618284
20
-19.5601212134
10
72.134950985
20
-19.582862892
10
72.0544282775
20
-19.6051541063
10
71.9728514669
20
-19.6270061703
10
71.8901783142
20
-19.648430398
10
71.8063665803
20
-19.6694381033
10
71.7213740263
20
-19.6900406003
10
71.6351584131
20
-19.7102492028
10
71.5476775016
20
-19.730075225
10
71.458889053
20
-19.7495299807
10
71.368750828
20
-19.768624784
10
71.2772205878
20
-19.7873709488
10
71.1842560933
20
-19.8057797892
10
71.0898151054
20
-19.823862619
10
70.9938553851
20
-19.8416307523
10
70.8963346935
20
-19.8590955031
10
70.7972107915
20
-19.8762681853
10
70.69644144
20
-19.893160113
10
70.5939844
20
-19.9097826
10
70.5556859712
20
-19.9144307969
10
70.499027586
20
-19.9192016068
10
70.4253298105
20
-19.92406772
10
70.3359132108
20
-19.9290018266
10
70.232098353
20
-19.9339766168
10
70.1152058031
20
-19.9389647809
10
69.9865561272
20
-19.9439390091
10
69.8474698914
20
-19.9488719916
10
69.6992676618
20
-19.9537364185
10
69.5432700045
20
-19.9585049801
10
69.3807974855
20
-19.9631503666
10
69.2131706709
20
-19.9676452682
10
69.0417101268
20
-19.9719623751
10
68.8677364193
20
-19.9760743775
10
68.6925701145
20
-19.9799539656
10
68.5175317784
20
-19.9835738296
10
68.3439419772
20
-19.9869066598
10
68.1731212768
20
-19.9899251463
10
68.0063902434
20
-19.9926019793
10
67.8450694431
20
-19.994909849
10
67.6904794419
20
-19.9968214457
10
67.5439408059
20
-19.9983094596
10
67.4067741012
20
-19.9993465808
10
67.2802998939
20
-19.9999054996
10
67.16583875
20
-19.9999589061
10
67.0647112357
20
-19.9994794906
10
66.978237917
20
-19.9984399433
10
66.90773936
20
-19.9968129544
10
66.8545361308
20
-19.9945712141
10
66.8199487954
20
-19.9916874125
10
66.80529792
20
-19.98813424
10
66.80529792
20
-19.98813424
10
66.80529792
20
-19.98813424
10
66.802935115
20
-19.9865364232
10
66.7992325834
20
-19.9848338086
10
66.7942275937
20
-19.9830316562
10
66.7879574147
20
-19.9811352259
10
66.780459315
20
-19.9791497778
10
66.7717705633
20
-19.9770805719
10
66.7619284283
20
-19.9749328683
10
66.7509701787
20
-19.9727119269
10
66.7389330832
20
-19.9704230077
10
66.7258544103
20
-19.9680713708
10
66.7117714289
20
-19.9656622762
10
66.6967214075
20
-19.9632009838
10
66.6807416149
20
-19.9606927538
10
66.6638693198
20
-19.958142846
10
66.6461417908
20
-19.9555565206
10
66.6275962965
20
-19.9529390375
10
66.6082701058
20
-19.9502956568
10
66.5882004872
20
-19.9476316384
10
66.5674247094
20
-19.9449522424
10
66.5459800411
20
-19.9422627287
10
66.5239037511
20
-19.9395683575
10
66.5012331078
20
-19.9368743887
10
66.4780053802
20
-19.9341860823
10
66.4542578368
20
-19.9315086984
10
66.4300277462
20
-19.9288474969
10
66.4053523773
20
-19.9262077378
10
66.3802689986
20
-19.9235946813
10
66.3548148788
20
-19.9210135872
10
66.3290272867
20
-19.9184697156
10
66.3029434909
20
-19.9159683265
10
66.27660076
20
-19.91351468
10
66.1593267347
20
-19.9016282063
10
66.0417523318
20
-19.887474923
10
65.9239364182
20
-19.8710770124
10
65.8059378608
20
-19.8524566569
10
65.6878155265
20
-19.8316360388
10
65.5696282824
20
-19.8086373403
10
65.4514349952
20
-19.7834827439
10
65.333294532
20
-19.7561944317
10
65.2152657596
20
-19.7267945862
10
65.0974075449
20
-19.6953053896
10
64.979778755
20
-19.6617490242
10
64.8624382566
20
-19.6261476724
10
64.7454449168
20
-19.5885235165
10
64.6288576024
20
-19.5488987387
10
64.5127351804
20
-19.5072955215
10
64.3971365177
20
-19.463736047
10
64.2821204813
20
-19.4182424977
10
64.1677459379
20
-19.3708370558
10
64.0540717547
20
-19.3215419037
10
63.9411567984
20
-19.2703792236
10
63.829059936
20
-19.2173711979
10
63.7178400344
20
-19.1625400088
10
63.6075559606
20
-19.1059078388
10
63.4982665815
20
-19.0474968701
10
63.390030764
20
-18.987329285
10
63.282907375
20
-18.9254272658
10
63.1769552814
20
-18.8618129949
10
63.0722333502
20
-18.7965086546
10
62.9688004483
20
-18.7295364271
10
62.8667154426
20
-18.6609184948
10
62.7660372
20
-18.59067704
10
62.7172625727
20
-18.5556608645
10
62.6703529249
20
-18.521248335
10
62.6252373156
20
-18.4873509067
10
62.581844804
20
-18.4538800348
10
62.5401044495
20
-18.4207471742
10
62.4999453111
20
-18.3878637802
10
62.4612964481
20
-18.3551413078
10
62.4240869197
20
-18.3224912122
10
62.3882457851
20
-18.2898249485
10
62.3537021035
20
-18.2570539718
10
62.320384934
20
-18.2240897371
10
62.288223336
20
-18.1908436997
10
62.2571463686
20
-18.1572273146
10
62.227083091
20
-18.123152037
10
62.1979625624
20
-18.0885293219
10
62.169713842
20
-18.0532706244
10
62.1422659891
20
-18.0172873998
10
62.1155480627
20
-17.980491103
10
62.0894891222
20
-17.9427931893
10
62.0640182267
20
-17.9041051136
10
62.0390644354
20
-17.8643383312
10
62.0145568076
20
-17.8234042972
10
61.9904244024
20
-17.7812144666
10
61.966596279
20
-17.7376802946
10
61.9430014967
20
-17.6927132362
10
61.9195691146
20
-17.6462247467
10
61.896228192
20
-17.5981262811
10
61.872907788
20
-17.5483292945
10
61.8495369619
20
-17.496745242
10
61.8260447728
20
-17.4432855788
10
61.80236028
20
-17.38786176
10
61.7860788922
20
-17.3490251184
10
61.7707744424
20
-17.3119199567
10
61.756416726
20
-17.2763074968
10
61.7429755381
20
-17.2419489607
10
61.730420674
20
-17.2086055704
10
61.7187219288
20
-17.1760385479
10
61.7078490978
20
-17.144009115
10
61.6977719761
20
-17.1122784939
10
61.6884603591
20
-17.0806079064
10
61.6798840419
20
-17.0487585745
10
61.6720128197
20
-17.0164917202
10
61.6648164878
20
-16.9835685654
10
61.6582648413
20
-16.9497503322
10
61.6523276755
20
-16.9147982425
10
61.6469747855
20
-16.8784735182
10
61.6421759667
20
-16.8405373814
10
61.6379010141
20
-16.800751054
10
61.6341197231
20
-16.7588757579
10
61.6308018888
20
-16.7146727152
10
61.6279173064
20
-16.6679031478
10
61.6254357712
20
-16.6183282777
10
61.6233270784
20
-16.5657093268
10
61.6215610232
20
-16.5098075171
10
61.6201074007
20
-16.4503840707
10
61.6189360063
20
-16.3872002094
10
61.6180166351
20
-16.3200171552
10
61.6173190824
20
-16.2485961301
10
61.6168131433
20
-16.172698356
10
61.616468613
20
-16.092085055
10
61.6162552869
20
-16.006517449
10
61.61614296
20
-15.91575676
10
61.6161761137
20
-15.8405444282
10
61.6163978187
20
-15.7680829137
10
61.6168154473
20
-15.6982847745
10
61.6174363719
20
-15.6310625687
0
LWPOLYLINE
5
5C
100
AcDbEntity
8
0
6
ByLayer
62
256
370
-1
100
AcDbPolyline
90
1312
70
1
43
0
10
41.6182679645
20
54.4336711457
10
41.6193175977
20
54.4960038107
10
41.6205926436
20
54.5560228682
10
41.6221004745
20
54.6138157601
10
41.6238484628
20
54.6694699284
10
41.6258439806
20
54.7230728151
10
41.6280944004
20
54.7747118621
10
41.6306070944
20
54.8244745114
10
41.6333894349
20
54.8724482049
10
41.6364487941
20
54.9187203846
10
41.6397925444
20
54.9633784924
10
41.643428058
20
55.0065099703
10
41.6473627073
20
55.0482022603
10
41.6516038645
20
55.0885428043
10
41.6561589019
20
55.1276190443
10
41.6610351917
20
55.1655184221
10
41.6662401064
20
55.2023283798
10
41.6717810182
20
55.2381363594
10
41.6776652993
20
55.2730298027
10
41.6839003221
20
55.3070961518
10
41.6904934588
20
55.3404228485
10
41.6974520818
20
55.3730973349
10
41.7047835632
20
55.4052070529
10
41.7124952755
20
55.4368394445
10
41.7205945908
20
55.4680819515
10
41.7290888816
20
55.4990220161
10
41.73798552
20
55.52974708
10
41.7589016233
20
55.5972735341
10
41.7816167639
20
55.6649895141
10
41.80616621
20
55.7329468309
10
41.8325852297
20
55.8011972952
10
41.860909091
20
55.8697927176
10
41.8911730621
20
55.9387849089
10
41.9234124111
20
56.0082256797
10
41.9576624062
20
56.0781668409
10
41.9939583153
20
56.1486602031
10
42.0323354067
20
56.2197575771
10
42.0728289484
20
56.2915107735
10
42.1154742085
20
56.363971603
10
42.1603064552
20
56.4371918765
10
42.2073609565
20
56.5112234046
10
42.2566729806
20
56.586117998
10
42.3082777956
20
56.6619274674
10
42.3622106696
20
56.7387036236
10
42.4185068707
20
56.8164982772
10
42.4772016669
20
56.895363239
10
42.5383303265
20
56.9753503198
10
42.6019281175
20
57.0565113301
10
42.6680303081
20
57.1388980808
10
42.7366721663
20
57.2225623825
10
42.8078889602
20
57.307556046
10
42.881715958
20
57.393930882
10
42.9581884278
20
57.4817387012
10
43.0373416376
20
57.5710313142
10
43.1192108557
20
57.6618605319
10
43.20383135
20
57.754278165
10
43.2912383887
20
57.8483360241
10
43.38146724
20
57.94408592
10
43.77815824
20
58.36225236
10
43.4623028
20
58.78729708
10
43.445530945
20
58.8097899984
10
43.4288556661
20
58.8320020126
10
43.412302391
20
58.8539027891
10
43.3958965472
20
58.8754619944
10
43.3796635626
20
58.896649295
10
43.3636288647
20
58.9174343574
10
43.3478178812
20
58.9377868483
10
43.3322560398
20
58.957676434
10
43.3169687682
20
58.9770727811
10
43.3019814941
20
58.9959455561
10
43.2873196451
20
59.0142644255
10
43.2730086489
20
59.0319990559
10
43.2590739331
20
59.0491191137
10
43.2455409255
20
59.0655942655
10
43.2324350538
20
59.0813941779
10
43.2197817455
20
59.0964885172
10
43.2076064285
20
59.1108469501
10
43.1959345302
20
59.124439143
10
43.1847914785
20
59.1372347624
10
43.174202701
20
59.149203475
10
43.1641936253
20
59.1603149471
10
43.1547896792
20
59.1705388454
10
43.1460162904
20
59.1798448363
10
43.1378988864
20
59.1882025863
10
43.1304628949
20
59.195581762
10
43.1237337437
20
59.2019520299
10
43.1177368605
20
59.2072830564
10
43.1124976728
20
59.2115445082
10
43.1080416084
20
59.2147060517
10
43.1043940949
20
59.2167373535
10
43.10158056
20
59.21760808
10
43.0990152483
20
59.2179301418
10
43.0961040306
20
59.2183341719
10
43.0928597739
20
59.2188175955
10
43.0892953452
20
59.2193778377
10
43.0854236114
20
59.2200123237
10
43.0812574397
20
59.2207184785
10
43.076809697
20
59.2214937274
10
43.0720932504
20
59.2223354955
10
43.0671209668
20
59.2232412079
10
43.0619057132
20
59.2242082897
10
43.0564603567
20
59.2252341662
10
43.0507977642
20
59.2263162624
10
43.0449308028
20
59.2274520034
10
43.0388723395
20
59.2286388145
10
43.0326352413
20
59.2298741208
10
43.0262323751
20
59.2311553474
10
43.0196766081
20
59.2324799194
10
43.0129808072
20
59.2338452621
10
43.0061578394
20
59.2352488004
10
42.9992205717
20
59.2366879597
10
42.9921818712
20
59.238160165
10
42.9850546048
20
59.2396628414
10
42.9778516395
20
59.2411934141
10
42.9705858424
20
59.2427493083
10
42.9632700805
20
59.2443279491
10
42.9559172208
20
59.2459267616
10
42.9485401302
20
59.247543171
10
42.9411516759
20
59.2491746023
10
42.9337647247
20
59.2508184809
10
42.9263921437
20
59.2524722317
10
42.9190468
20
59.25413328
10
42.8809401876
20
59.2622590696
10
42.8402901418
20
59.2699364573
10
42.7972933437
20
59.2771618326
10
42.7521464742
20
59.2839315848
10
42.7050462141
20
59.2902421036
10
42.6561892444
20
59.2960897784
10
42.6057722461
20
59.3014709987
10
42.5539919
20
59.306382154
10
42.501044887
20
59.3108196338
10
42.4471278882
20
59.3147798275
10
42.3924375843
20
59.3182591246
10
42.3371706564
20
59.3212539147
10
42.2815237854
20
59.3237605872
10
42.2256936521
20
59.3257755316
10
42.1698769375
20
59.3272951374
10
42.1142703225
20
59.328315794
10
42.0590704881
20
59.3288338911
10
42.0044741152
20
59.3288458179
10
41.9506778846
20
59.3283479641
10
41.8978784774
20
59.3273367192
10
41.8462725743
20
59.3258084725
10
41.7960568565
20
59.3237596136
10
41.7474280047
20
59.3211865321
10
41.7005826999
20
59.3180856172
10
41.6557176231
20
59.3144532587
10
41.6130294551
20
59.3102858459
10
41.5727148768
20
59.3055797683
10
41.5349705693
20
59.3003314154
10
41.4999932133
20
59.2945371768
10
41.4679794899
20
59.2881934418
10
41.43912608
20
59.2812966
10
41.3812423956
20
59.266123905
10
41.326470442
20
59.2519758161
10
41.2746923953
20
59.2388543989
10
41.2257904314
20
59.2267617185
10
41.1796467262
20
59.2156998404
10
41.1361434559
20
59.2056708298
10
41.0951627962
20
59.1966767523
10
41.0565869233
20
59.188719673
10
41.020298013
20
59.1818016573
10
40.9861782414
20
59.1759247707
10
40.9541097844
20
59.1710910783
10
40.9239748181
20
59.1673026457
10
40.8956555183
20
59.1645615381
10
40.8690340611
20
59.1628698209
10
40.8439926224
20
59.1622295594
10
40.8204133782
20
59.162642819
10
40.7981785045
20
59.1641116651
10
40.7771701773
20
59.1666381629
10
40.7572705725
20
59.1702243778
10
40.7383618661
20
59.1748723752
10
40.7203262341
20
59.1805842205
10
40.7030458525
20
59.1873619789
10
40.6864028972
20
59.1952077158
10
40.6702795442
20
59.2041234966
10
40.6545579695
20
59.2141113867
10
40.6391203491
20
59.2251734513
10
40.6238488589
20
59.2373117558
10
40.6086256749
20
59.2505283656
10
40.5933329731
20
59.264825346
10
40.5778529295
20
59.2802047623
10
40.56206772
20
59.29666868
10
40.40780132
20
59.46087684
10
40.54487936
20
59.72974772
10
40.5521310499
20
59.7440506465
10
40.5592874919
20
59.7583224168
10
40.5663390234
20
59.772540072
10
40.5732759814
20
59.786680653
10
40.5800887033
20
59.8007212008
10
40.5867675264
20
59.8146387566
10
40.5933027878
20
59.8284103613
10
40.5996848248
20
59.8420130559
10
40.6059039746
20
59.8554238814
10
40.6119505746
20
59.868619879
10
40.6178149618
20
59.8815780895
10
40.6234874736
20
59.894275554
10
40.6289584473
20
59.9066893136
10
40.63421822
20
59.9187964092
10
40.639257129
20
59.9305738819
10
40.6440655115
20
59.9419987727
10
40.6486337049
20
59.9530481226
10
40.6529520462
20
59.9636989727
10
40.6570108729
20
59.9739283639
10
40.660800522
20
59.9837133373
10
40.6643113309
20
59.9930309338
10
40.6675336368
20
60.0018581946
10
40.670457777
20
60.0101721607
10
40.6730740886
20
60.017949873
10
40.675372909
20
60.0251683725
10
40.6773445753
20
60.0318047004
10
40.6789794248
20
60.0378358976
10
40.6802677948
20
60.0432390051
10
40.6812000225
20
60.047991064
10
40.6817664452
20
60.0520691153
10
40.6819574
20
60.0554502
10
40.6814695854
20
60.0591483669
10
40.680022598
20
60.0641669684
10
40.6776411224
20
60.0704670004
10
40.6743498432
20
60.0780094592
10
40.670173445
20
60.0867553407
10
40.6651366125
20
60.096665641
10
40.6592640301
20
60.1077013564
10
40.6525803826
20
60.1198234827
10
40.6451103544
20
60.1329930162
10
40.6368786303
20
60.1471709529
10
40.6279098948
20
60.1623182889
10
40.6182288325
20
60.1783960203
10
40.607860128
20
60.1953651432
10
40.596828466
20
60.2131866537
10
40.5851585309
20
60.2318215478
10
40.5728750075
20
60.2512308217
10
40.5600025803
20
60.2713754714
10
40.546565934
20
60.292216493
10
40.5325897531
20
60.3137148827
10
40.5180987221
20
60.3358316364
10
40.5031175259
20
60.3585277504
10
40.4876708488
20
60.3817642206
10
40.4717833756
20
60.4055020432
10
40.4554797908
20
60.4297022142
10
40.4387847791
20
60.4543257299
10
40.421723025
20
60.4793335861
10
40.4043192131
20
60.5046867791
10
40.3865980281
20
60.5303463049
10
40.3685841545
20
60.5562731596
10
40.3503022769
20
60.5824283392
10
40.33177708
20
60.60877284
10
40.2999684207
20
60.6539276436
10
40.2701556568
20
60.6964179863
10
40.2422799586
20
60.7364070591
10
40.2162824964
20
60.774058053
10
40.1921044407
20
60.8095341588
10
40.1696869619
20
60.8429985675
10
40.1489712304
20
60.8746144701
10
40.1298984166
20
60.9045450574
10
40.1124096908
20
60.9329535205
10
40.0964462235
20
60.9600030502
10
40.081949185
20
60.9858568375
10
40.0688597457
20
61.0106780733
10
40.0571190761
20
61.0346299486
10
40.0466683466
20
61.0578756543
10
40.0374487274
20
61.0805783813
10
40.0294013891
20
61.1029013206
10
40.022467502
20
61.1250076631
10
40.0165882365
20
61.1470605998
10
40.0117047629
20
61.1692233215
10
40.0077582518
20
61.1916590193
10
40.0046898735
20
61.214530884
10
40.0024407983
20
61.2380021066
10
40.0009521967
20
61.2622358781
10
40.0001652391
20
61.2873953893
10
40.0000210959
20
61.3136438312
10
40.0004609374
20
61.3411443948
10
40.001425934
20
61.3700602709
10
40.0028572562
20
61.4005546506
10
40.0046960744
20
61.4327907247
10
40.0068835588
20
61.4669316842
10
40.00936088
20
61.50314072
10
40.0134980536
20
61.5582285073
10
40.0180380145
20
61.6100778286
10
40.0230475468
20
61.6587314009
10
40.0285934345
20
61.7042319412
10
40.0347424617
20
61.7466221668
10
40.0415614124
20
61.7859447945
10
40.0491170708
20
61.8222425414
10
40.0574762209
20
61.8555581247
10
40.0667056467
20
61.8859342613
10
40.0768721323
20
61.9134136684
10
40.0880424618
20
61.938039063
10
40.1002834192
20
61.9598531621
10
40.1136617886
20
61.9788986829
10
40.1282443541
20
61.9952183423
10
40.1440978996
20
62.0088548574
10
40.1612892094
20
62.0198509454
10
40.1798850674
20
62.0282493232
10
40.1999522577
20
62.0340927079
10
40.2215575644
20
62.0374238166
10
40.2447677715
20
62.0382853663
10
40.2696496631
20
62.0367200741
10
40.2962700233
20
62.032770657
10
40.3246956361
20
62.0264798321
10
40.3549932855
20
62.0178903166
10
40.3872297557
20
62.0070448273
10
40.4214718307
20
61.9939860814
10
40.4577862946
20
61.978756796
10
40.4962399314
20
61.9613996881
10
40.5368995252
20
61.9419574748
10
40.57983186
20
61.920472873
10
40.62510372
20
61.8969886
10
40.6713211782
20
61.8732250037
10
40.7172922449
20
61.850741567
10
40.7630073903
20
61.8295393117
10
40.8084570845
20
61.8096192595
10
40.8536317978
20
61.7909824322
10
40.8985220005
20
61.7736298516
10
40.9431181627
20
61.7575625395
10
40.9874107546
20
61.7427815176
10
41.0313902465
20
61.7292878077
10
41.0750471086
20
61.7170824316
10
41.1183718111
20
61.7061664111
10
41.1613548242
20
61.6965407679
10
41.2039866182
20
61.6882065238
10
41.2462576632
20
61.6811647005
10
41.2881584294
20
61.67541632
10
41.3296793872
20
61.6709624038
10
41.3708110067
20
61.6678039739
10
41.4115437581
20
61.665942052
10
41.4518681116
20
61.6653776598
10
41.4917745375
20
61.6661118191
10
41.531253506
20
61.6681455517
10
41.5702954872
20
61.6714798794
10
41.6088909515
20
61.676115824
10
41.647030369
20
61.6820544072
10
41.6847042099
20
61.6892966508
10
41.7219029445
20
61.6978435765
10
41.758617043
20
61.7076962062
10
41.7948369756
20
61.7188555616
10
41.8305532124
20
61.7313226646
10
41.8657562238
20
61.7450985368
10
41.90043648
20
61.7601842
10
41.9300055497
20
61.7739918567
10
41.9581894932
20
61.7877881506
10
41.9850643809
20
61.8016910728
10
42.0107062831
20
61.8158186142
10
42.0351912703
20
61.8302887659
10
42.0585954129
20
61.8452195188
10
42.0809947813
20
61.8607288641
10
42.1024654459
20
61.8769347926
10
42.1230834772
20
61.8939552953
10
42.1429249455
20
61.9119083634
10
42.1620659212
20
61.9309119877
10
42.1805824749
20
61.9510841593
10
42.1985506768
20
61.9725428692
10
42.2160465975
20
61.9954061084
10
42.2331463072
20
62.0197918679
10
42.2499258765
20
62.0458181388
10
42.2664613757
20
62.0736029119
10
42.2828288753
20
62.1032641783
10
42.2991044456
20
62.134919929
10
42.3153641571
20
62.1686881551
10
42.3316840803
20
62.2046868475
10
42.3481402854
20
62.2430339972
10
42.3648088429
20
62.2838475952
10
42.3817658233
20
62.3272456326
10
42.3990872969
20
62.3733461003
10
42.4168493342
20
62.4222669894
10
42.4351280056
20
62.4741262908
10
42.4539993814
20
62.5290419956
10
42.4735395322
20
62.5871320947
10
42.4938245282
20
62.6485145792
10
42.51493044
20
62.71330744
10
42.5443101538
20
62.8001766565
10
42.5760756775
20
62.8867234718
10
42.6101744477
20
62.972881718
10
42.6465539009
20
63.0585852274
10
42.6851614739
20
63.1437678324
10
42.7259446031
20
63.2283633652
10
42.7688507252
20
63.3123056581
10
42.8138272767
20
63.3955285433
10
42.8608216944
20
63.4779658532
10
42.9097814147
20
63.55955142
10
42.9606538743
20
63.640219076
10
43.0133865098
20
63.7199026535
10
43.0679267578
20
63.7985359848
10
43.1242220548
20
63.8760529021
10
43.1822198376
20
63.9523872377
10
43.2418675426
20
64.027472824
10
43.3031126065
20
64.1012434931
10
43.3659024659
20
64.1736330774
10
43.4301845573
20
64.2445754091
10
43.4959063175
20
64.3140043205
10
43.5630151829
20
64.381853644
10
43.6314585903
20
64.4480572117
10
43.7011839761
20
64.512548856
10
43.772138777
20
64.5752624091
10
43.8442704295
20
64.6361317034
10
43.9175263704
20
64.695090571
10
43.9918540361
20
64.7520728443
10
44.0672008634
20
64.8070123556
10
44.1435142887
20
64.8598429371
10
44.2207417487
20
64.9104984212
10
44.29883068
20
64.95891264
10
44.3799902029
20
65.0061400774
10
44.4639407234
20
65.0518114747
10
44.5504915784
20
65.0958898122
10
44.6394521046
20
65.13833807
10
44.7306316387
20
65.1791192284
10
44.8238395177
20
65.2181962675
10
44.9188850782
20
65.2555321674
10
45.015577657
20
65.2910899083
10
45.113726591
20
65.3248324705
10
45.2131412169
20
65.356722834
10
45.3136308715
20
65.3867239792
10
45.4150048916
20
65.414798886
10
45.517072614
20
65.4409105348
10
45.6196433754
20
65.4650219056
10
45.7225265127
20
65.4870959788
10
45.8255313626
20
65.5070957344
10
45.9284672619
20
65.5249841525
10
46.0311435474
20
65.5407242135
10
46.1333695559
20
65.5542788975
10
46.2349546241
20
65.5656111846
10
46.3357080889
20
65.574684055
10
46.4354392871
20
65.5814604889
10
46.5339575553
20
65.5859034664
10
46.6310722305
20
65.5879759678
10
46.7265926494
20
65.5876409733
10
46.8203281487
20
65.5848614629
10
46.9120880653
20
65.5796004169
10
47.0016817359
20
65.5718208154
10
47.0889184974
20
65.5614856386
10
47.1736076865
20
65.5485578668
10
47.25555864
20
65.53300048
10
47.3026582907
20
65.5225046025
10
47.3514111828
20
65.510434891
10
47.4017538045
20
65.4968214712
10
47.4536226442
20
65.4816944685
10
47.5069541899
20
65.4650840084
10
47.56168493
20
65.4470202166
10
47.6177513527
20
65.4275332185
10
47.6750899461
20
65.4066531396
10
47.7336371985
20
65.3844101055
10
47.7933295981
20
65.3608342417
10
47.8541036332
20
65.3359556738
10
47.9158957919
20
65.3098045272
10
47.9786425625
20
65.2824109276
10
48.0422804332
20
65.2538050004
10
48.1067458923
20
65.2240168712
10
48.1719754279
20
65.1930766654
10
48.2379055283
20
65.1610145087
10
48.3044726817
20
65.1278605266
10
48.3716133763
20
65.0936448445
10
48.4392641003
20
65.0583975881
10
48.5073613421
20
65.0221488828
10
48.5758415897
20
64.9849288542
10
48.6446413314
20
64.9467676278
10
48.7136970555
20
64.9076953291
10
48.7829452501
20
64.8677420838
10
48.8523224035
20
64.8269380172
10
48.9217650039
20
64.785313255
10
48.9912095395
20
64.7428979226
10
49.0605924986
20
64.6997221456
10
49.1298503694
20
64.6558160496
10
49.19891964
20
64.61120976
10
49.2654815729
20
64.5681453789
10
49.3290369869
20
64.5277494037
10
49.3897707011
20
64.4899956728
10
49.4478675344
20
64.4548580247
10
49.5035123059
20
64.4223102978
10
49.5568898347
20
64.3923263306
10
49.6081849397
20
64.3648799615
10
49.6575824401
20
64.339945029
10
49.7052671548
20
64.3174953715
10
49.7514239029
20
64.2975048275
10
49.7962375034
20
64.2799472354
10
49.8398927754
20
64.2647964338
10
49.8825745379
20
64.252026261
10
49.9244676099
20
64.2416105555
10
49.9657568105
20
64.2335231557
10
50.0066269587
20
64.2277379002
10
50.0472628736
20
64.2242286273
10
50.0878493741
20
64.2229691755
10
50.1285712794
20
64.2239333833
10
50.1696134084
20
64.2270950891
10
50.2111605802
20
64.2324281314
10
50.2533976139
20
64.2399063486
10
50.2965093284
20
64.2495035792
10
50.3406805428
20
64.2611936616
10
50.3860960761
20
64.2749504343
10
50.4329407475
20
64.2907477358
10
50.4813993758
20
64.3085594044
10
50.5316567802
20
64.3283592787
10
50.5838977797
20
64.3501211971
10
50.6383071932
20
64.3738189981
10
50.69506984
20
64.39942652
10
50.7160718729
20
64.4089493973
10
50.7369676846
20
64.4182423597
10
50.7577250678
20
64.4272953278
10
50.7783118151
20
64.4360982219
10
50.7986957192
20
64.4446409624
10
50.8188445729
20
64.4529134698
10
50.8387261688
20
64.4609056645
10
50.8583082996
20
64.468607467
10
50.877558758
20
64.4760087976
10
50.8964453367
20
64.4830995768
10
50.9149358283
20
64.489869725
10
50.9329980256
20
64.4963091627
10
50.9505997212
20
64.5024078102
10
50.9677087079
20
64.508155588
10
50.9842927782
20
64.5135424166
10
51.000319725
20
64.5185582163
10
51.0157573408
20
64.5231929075
10
51.0305734184
20
64.5274364108
10
51.0447357504
20
64.5312786465
10
51.0582121296
20
64.5347095351
10
51.0709703486
20
64.5377189969
10
51.0829782001
20
64.5402969525
10
51.0942034768
20
64.5424333222
10
51.1046139714
20
64.5441180265
10
51.1141774766
20
64.5453409857
10
51.122861785
20
64.5460921204
10
51.1306346894
20
64.5463613509
10
51.1374639824
20
64.5461385977
10
51.1433174567
20
64.5454137812
10
51.148162905
20
64.5441768218
10
51.15196812
20
64.54241764
10
51.165823229
20
64.5326122818
10
51.178133611
20
64.5213219137
10
51.1889159455
20
64.5086039738
10
51.1981869116
20
64.4945159007
10
51.2059631887
20
64.4791151325
10
51.2122614562
20
64.4624591076
10
51.2170983934
20
64.4446052643
10
51.2204906795
20
64.4256110409
10
51.222454994
20
64.4055338758
10
51.2230080162
20
64.3844312071
10
51.2221664254
20
64.3623604734
10
51.2199469008
20
64.3393791128
10
51.2163661219
20
64.3155445636
10
51.211440768
20
64.2909142643
10
51.2051875184
20
64.2655456531
10
51.1976230524
20
64.2394961683
10
51.1887640494
20
64.2128232482
10
51.1786271886
20
64.1855843312
10
51.1672291494
20
64.1578368556
10
51.1545866112
20
64.1296382596
10
51.1407162533
20
64.1010459816
10
51.1256347549
20
64.0721174599
10
51.1093587954
20
64.0429101328
10
51.0919050542
20
64.0134814387
10
51.0732902106
20
63.9838888158
10
51.0535309438
20
63.9541897024
10
51.0326439333
20
63.9244415369
10
51.0106458583
20
63.8947017576
10
50.9875533982
20
63.8650278028
10
50.9633832323
20
63.8354771109
10
50.93815204
20
63.80610712
10
50.9235863436
20
63.7895024206
10
50.9092119612
20
63.7730025903
10
50.8950483014
20
63.7566325731
10
50.8811147727
20
63.7404173128
10
50.8674307836
20
63.7243817534
10
50.8540157429
20
63.7085508388
10
50.8408890589
20
63.6929495128
10
50.8280701404
20
63.6776027194
10
50.8155783958
20
63.6625354025
10
50.8034332337
20
63.647772506
10
50.7916540627
20
63.6333389737
10
50.7802602914
20
63.6192597497
10
50.7692713282
20
63.6055597777
10
50.7587065819
20
63.5922640017
10
50.7485854608
20
63.5793973656
10
50.7389273737
20
63.5669848133
10
50.7297517291
20
63.5550512888
10
50.7210779355
20
63.5436217358
10
50.7129254015
20
63.5327210983
10
50.7053135356
20
63.5223743203
10
50.6982617465
20
63.5126063456
10
50.6917894427
20
63.5034421181
10
50.6859160328
20
63.4949065817
10
50.6806609252
20
63.4870246804
10
50.6760435287
20
63.479821358
10
50.6720832517
20
63.4733215585
10
50.6687995029
20
63.4675502257
10
50.6662116907
20
63.4625323035
10
50.6643392238
20
63.4582927359
10
50.6632015107
20
63.4548564668
10
50.66281796
20
63.45224844
10
50.6632015107
20
63.45007615
10
50.6643392238
20
63.4479323916
10
50.6662116907
20
63.4458200594
10
50.6687995029
20
63.4437420479
10
50.6720832517
20
63.4417012518
10
50.6760435287
20
63.4397005656
10
50.6806609252
20
63.4377428839
10
50.6859160328
20
63.4358311013
10
50.6917894427
20
63.4339681123
10
50.6982617465
20
63.4321568115
10
50.7053135356
20
63.4304000935
10
50.7129254015
20
63.4287008528
10
50.7210779355
20
63.427061984
10
50.7297517291
20
63.4254863818
10
50.7389273737
20
63.4239769406
10
50.7485854608
20
63.4225365551
10
50.7587065819
20
63.4211681198
10
50.7692713282
20
63.4198745293
10
50.7802602914
20
63.4186586782
10
50.7916540627
20
63.417523461
10
50.8034332337
20
63.4164717723
10
50.8155783958
20
63.4155065067
10
50.8280701404
20
63.4146305588
10
50.8408890589
20
63.4138468231
10
50.8540157429
20
63.4131581942
10
50.8674307836
20
63.4125675667
10
50.8811147727
20
63.4120778351
10
50.8950483014
20
63.4116918941
10
50.9092119612
20
63.4114126382
10
50.9235863436
20
63.411242962
10
50.93815204
20
63.41118576
10
50.9685368279
20
63.4109568328
10
50.9970235637
20
63.4102466022
10
51.0236212872
20
63.4090198948
10
51.0483390381
20
63.4072415375
10
51.071185856
20
63.4048763568
10
51.0921707805
20
63.4018891793
10
51.1113028515
20
63.3982448318
10
51.1285911086
20
63.3939081409
10
51.1440445914
20
63.3888439333
10
51.1576723396
20
63.3830170356
10
51.1694833929
20
63.3763922745
10
51.179486791
20
63.3689344767
10
51.1876915736
20
63.3606084688
10
51.1941067803
20
63.3513790775
10
51.1987414509
20
63.3412111295
10
51.201604625
20
63.3300694513
10
51.2027053422
20
63.3179188698
10
51.2020526424
20
63.3047242115
10
51.199655565
20
63.290450303
10
51.19552315
20
63.2750619712
10
51.1896644368
20
63.2585240426
10
51.1820884652
20
63.2408013439
10
51.1728042749
20
63.2218587017
10
51.1618209056
20
63.2016609428
10
51.1491473969
20
63.1801728937
10
51.1347927885
20
63.1573593812
10
51.1187661201
20
63.1331852319
10
51.1010764313
20
63.1076152724
10
51.081732762
20
63.0806143295
10
51.0607441516
20
63.0521472298
10
51.03811964
20
63.0221788
10
51.025629271
20
63.0060669534
10
51.0131855974
20
62.9905532069
10
51.0007691693
20
62.9756257812
10
50.9883605366
20
62.9612728966
10
50.9759402494
20
62.9474827737
10
50.9634888578
20
62.934243633
10
50.9509869118
20
62.9215436948
10
50.9384149615
20
62.9093711799
10
50.9257535568
20
62.8977143085
10
50.9129832479
20
62.8865613012
10
50.9000845847
20
62.8759003785
10
50.8870381174
20
62.8657197609
10
50.8738243959
20
62.8560076688
10
50.8604239703
20
62.8467523228
10
50.8468173907
20
62.8379419434
10
50.8329852071
20
62.8295647509
10
50.8189079694
20
62.821608966
10
50.8045662279
20
62.8140628091
10
50.7899405325
20
62.8069145007
10
50.7750114332
20
62.8001522613
10
50.7597594802
20
62.7937643113
10
50.7441652233
20
62.7877388713
10
50.7282092128
20
62.7820641618
10
50.7118719986
20
62.7767284032
10
50.6951341308
20
62.771719816
10
50.6779761594
20
62.7670266207
10
50.6603786344
20
62.7626370378
10
50.642322106
20
62.7585392878
10
50.623787124
20
62.7547215912
10
50.6047542387
20
62.7511721684
10
50.585204
20
62.74787924
10
50.5624922656
20
62.7441827039
10
50.541067205
20
62.7405499227
10
50.5208998371
20
62.7369576185
10
50.501961181
20
62.7333825135
10
50.4842222555
20
62.7298013296
10
50.4676540798
20
62.7261907891
10
50.4522276728
20
62.722527614
10
50.4379140535
20
62.7187885264
10
50.4246842408
20
62.7149502484
10
50.4125092538
20
62.7109895021
10
50.4013601115
20
62.7068830096
10
50.3912078328
20
62.7026074929
10
50.3820234367
20
62.6981396743
10
50.3737779422
20
62.6934562757
10
50.3664423683
20
62.6885340192
10
50.359987734
20
62.6833496271
10
50.3543850582
20
62.6778798213
10
50.34960536
20
62.6721013239
10
50.3456196584
20
62.6659908571
10
50.3423989723
20
62.6595251429
10
50.3399143206
20
62.6526809034
10
50.3381367225
20
62.6454348608
10
50.3370371969
20
62.6377637371
10
50.3365867628
20
62.6296442544
10
50.3367564391
20
62.6210531348
10
50.3375172449
20
62.6119671005
10
50.3388401991
20
62.6023628734
10
50.3406963207
20
62.5922171757
10
50.3430566287
20
62.5815067295
10
50.3458921422
20
62.5702082569
10
50.34917388
20
62.55829848
10
50.3681566601
20
62.4896058429
10
50.3863896785
20
62.4190111799
10
50.4038582555
20
62.3466989686
10
50.4205477114
20
62.2728536868
10
50.4364433665
20
62.197659812
10
50.4515305411
20
62.121301822
10
50.4657945556
20
62.0439641943
10
50.4792207303
20
61.9658314067
10
50.4917943854
20
61.8870879368
10
50.5035008414
20
61.8079182623
10
50.5143254184
20
61.7285068608
10
50.5242534369
20
61.64903821
10
50.5332702172
20
61.5696967875
10
50.5413610795
20
61.4906670711
10
50.5485113442
20
61.4121335383
10
50.5547063315
20
61.3342806668
10
50.5599313619
20
61.2572929342
10
50.5641717556
20
61.1813548184
10
50.567412833
20
61.1066507968
10
50.5696399143
20
61.0333653471
10
50.5708383199
20
60.9616829471
10
50.5709933701
20
60.8917880743
10
50.5700903851
20
60.8238652065
10
50.5681146854
20
60.7580988212
10
50.5650515912
20
60.6946733962
10
50.5608864229
20
60.6337734091
10
50.5556045007
20
60.5755833375
10
50.549191145
20
60.5202876592
10
50.5416316761
20
60.4680708517
10
50.5329114144
20
60.4191173927
10
50.52301568
20
60.37361176
10
50.5075088653
20
60.313317152
10
50.4899523923
20
60.2531909963
10
50.4703347822
20
60.1932189566
10
50.4486445567
20
60.1333866965
10
50.4248702371
20
60.0736798798
10
50.3990003449
20
60.0140841702
10
50.3710234017
20
59.9545852313
10
50.3409279288
20
59.8951687268
10
50.3087024477
20
59.8358203205
10
50.2743354799
20
59.776525676
10
50.2378155468
20
59.717270457
10
50.19913117
20
59.6580403272
10
50.1582708709
20
59.5988209503
10
50.1152231709
20
59.53959799
10
50.0699765915
20
59.48035711
10
50.0225196542
20
59.4210839739
10
49.9728408804
20
59.3617642456
10
49.9209287917
20
59.3023835885
10
49.8667719094
20
59.2429276665
10
49.810358755
20
59.1833821433
10
49.7516778501
20
59.1237326824
10
49.690717716
20
59.0639649477
10
49.6274668743
20
59.0040646029
10
49.5619138463
20
58.9440173115
10
49.4940471536
20
58.8838087373
10
49.4238553177
20
58.823424544
10
49.3513268599
20
58.7628503953
10
49.2764503018
20
58.7020719548
10
49.1992141648
20
58.6410748863
10
49.1196069704
20
58.5798448535
10
49.03761724
20
58.51836752
10
49.0070336083
20
58.4956377625
10
48.9769425415
20
58.4731156812
10
48.94738253
20
58.4508338253
10
48.9183920644
20
58.4288247444
10
48.8900096352
20
58.4071209876
10
48.8622737329
20
58.3857551044
10
48.8352228482
20
58.3647596441
10
48.8088954715
20
58.344167156
10
48.7833300935
20
58.3240101896
10
48.7585652046
20
58.304321294
10
48.7346392953
20
58.2851330187
10
48.7115908563
20
58.266477913
10
48.6894583781
20
58.2483885263
10
48.6682803511
20
58.2308974079
10
48.648095266
20
58.2140371071
10
48.6289416134
20
58.1978401733
10
48.6108578836
20
58.1823391559
10
48.5938825674
20
58.1675666041
10
48.5780541551
20
58.1535550674
10
48.5634111375
20
58.140337095
10
48.5499920049
20
58.1279452364
10
48.537835248
20
58.1164120408
10
48.5269793573
20
58.1057700576
10
48.5174628234
20
58.0960518362
10
48.5093241367
20
58.0872899258
10
48.5026017879
20
58.0795168759
10
48.4973342674
20
58.0727652358
10
48.4935600658
20
58.0670675548
10
48.4913176737
20
58.0624563823
10
48.4906455816
20
58.0589642676
10
48.49158228
20
58.05662376
10
48.4947429664
20
58.054857071
10
48.5006678197
20
58.0530672745
10
48.5092827909
20
58.0512578772
10
48.5205138312
20
58.0494323857
10
48.5342868916
20
58.0475943065
10
48.5505279233
20
58.0457471463
10
48.5691628774
20
58.0438944117
10
48.5901177048
20
58.0420396092
10
48.6133183568
20
58.0401862454
10
48.6386907844
20
58.038337827
10
48.6661609387
20
58.0364978606
10
48.6956547709
20
58.0346698527
10
48.7270982319
20
58.0328573099
10
48.7604172729
20
58.0310637389
10
48.7955378451
20
58.0292926462
10
48.8323858994
20
58.0275475384
10
48.870887387
20
58.0258319222
10
48.9109682589
20
58.0241493041
10
48.9525544663
20
58.0225031907
10
48.9955719603
20
58.0208970886
10
49.039946692
20
58.0193345045
10
49.0856046123
20
58.0178189448
10
49.1324716726
20
58.0163539163
10
49.1804738237
20
58.0149429255
10
49.2295370169
20
58.013589479
10
49.2795872033
20
58.0122970835
10
49.3305503338
20
58.0110692454
10
49.3823523596
20
58.0099094714
10
49.4349192319
20
58.0088212681
10
49.4881769017
20
58.0078081421
10
49.54205132
20
58.0068736
10
50.55956764
20
57.99007688
10
51.4544032
20
57.66548408
10
51.6562250778
20
57.5922968517
10
51.845664335
20
57.5236618061
10
52.0231694127
20
57.4594421887
10
52.1891887518
20
57.3995012452
10
52.3441707933
20
57.3437022211
10
52.4885639783
20
57.2919083618
10
52.6228167478
20
57.243982913
10
52.7473775427
20
57.1997891202
10
52.8626948041
20
57.1591902288
10
52.969216973
20
57.1220494846
10
53.0673924903
20
57.0882301329
10
53.1576697971
20
57.0575954194
10
53.2404973344
20
57.0300085896
10
53.3163235432
20
57.005332889
10
53.3855968644
20
56.9834315631
10
53.4487657391
20
56.9641678576
10
53.5062786083
20
56.947405018
10
53.558583913
20
56.9330062897
10
53.6061300942
20
56.9208349183
10
53.6493655929
20
56.9107541495
10
53.6887388501
20
56.9026272286
10
53.7246983068
20
56.8963174013
10
53.7576924039
20
56.8916879131
10
53.7881695826
20
56.8886020095
10
53.8165782839
20
56.8869229362
10
53.8433669486
20
56.8865139385
10
53.8689840178
20
56.8872382621
10
53.8938779326
20
56.8889591525
10
53.9184971339
20
56.8915398553
10
53.9432900627
20
56.8948436159
10
53.96870516
20
56.89873368
10
54.0182503583
20
56.9085228214
10
54.0713323232
20
56.9225379224
10
54.1277543686
20
56.9406386941
10
54.1873198086
20
56.9626848478
10
54.2498319569
20
56.9885360947
10
54.3150941276
20
57.0180521461
10
54.3829096344
20
57.0510927132
10
54.4530817914
20
57.0875175071
10
54.5254139125
20
57.1271862391
10
54.5997093115
20
57.1699586205
10
54.6757713023
20
57.2156943624
10
54.753403199
20
57.2642531761
10
54.8324083154
20
57.3154947728
10
54.9125899653
20
57.3692788637
10
54.9937514628
20
57.42546516
10
55.0756961218
20
57.483913373
10
55.1582272561
20
57.544483214
10
55.2411481796
20
57.607034394
10
55.3242622064
20
57.6714266243
10
55.4073726502
20
57.7375196163
10
55.4902828251
20
57.805173081
10
55.5727960448
20
57.8742467297
10
55.6547156234
20
57.9446002736
10
55.7358448748
20
58.016093424
10
55.8159871128
20
58.088585892
10
55.8949456514
20
58.161937389
10
55.9725238045
20
58.2360076261
10
56.048524886
20
58.3106563145
10
56.1227522098
20
58.3857431655
10
56.1950090898
20
58.4611278902
10
56.26509884
20
58.5366702
10
56.72448436
20
59.04025736
10
56.86756992
20
58.86839984
10
56.8786185979
20
58.8549048814
10
56.8890639168
20
58.841661509
10
56.8989157046
20
58.8286219152
10
56.9081837897
20
58.8157382922
10
56.9168780001
20
58.802962832
10
56.9250081639
20
58.7902477269
10
56.9325841094
20
58.7775451692
10
56.9396156647
20
58.7648073509
10
56.9461126579
20
58.7519864643
10
56.9520849172
20
58.7390347016
10
56.9575422708
20
58.725904255
10
56.9624945467
20
58.7125473167
10
56.9669515731
20
58.6989160788
10
56.9709231782
20
58.6849627336
10
56.9744191902
20
58.6706394733
10
56.9774494371
20
58.65589849
10
56.9800237471
20
58.640691976
10
56.9821519485
20
58.6249721234
10
56.9838438692
20
58.6086911244
10
56.9851093376
20
58.5918011713
10
56.9859581816
20
58.5742544562
10
56.9864002296
20
58.5560031714
10
56.9864453095
20
58.536999509
10
56.9861032497
20
58.5171956611
10
56.9853838781
20
58.4965438201
10
56.984297023
20
58.4749961781
10
56.9828525126
20
58.4525049273
10
56.9810601749
20
58.4290222599
10
56.9789298382
20
58.4045003681
10
56.9764713305
20
58.3788914441
10
56.97369448
20
58.35214768
10
56.9712990929
20
58.3294328637
10
56.9691117444
20
58.3078602826
10
56.9671329107
20
58.2874262666
10
56.9653630678
20
58.2681271453
10
56.963802692
20
58.2499592483
10
56.9624522592
20
58.2329189055
10
56.9613122456
20
58.2170024465
10
56.9603831273
20
58.2022062011
10
56.9596653804
20
58.1885264988
10
56.959159481
20
58.1759596694
10
56.9588659053
20
58.1645020427
10
56.9587851293
20
58.1541499483
10
56.9589176291
20
58.1448997159
10
56.9592638809
20
58.1367476753
10
56.9598243608
20
58.129690156
10
56.9605995448
20
58.123723488
10
56.9615899091
20
58.1188440007
10
56.9627959298
20
58.115048024
10
56.964218083
20
58.1123318875
10
56.9658568448
20
58.110691921
10
56.9677126913
20
58.1101244541
10
56.9697860987
20
58.1106258165
10
56.972077543
20
58.112192338
10
56.9745875003
20
58.1148203483
10
56.9773164468
20
58.118506177
10
56.9802648585
20
58.1232461538
10
56.9834332117
20
58.1290366085
10
56.9868219823
20
58.1358738708
10
56.9904316464
20
58.1437542703
10
56.9942626803
20
58.1526741368
10
56.99831556
20
58.1626298
10
57.0125428953
20
58.1960476548
10
57.0270434543
20
58.2255409469
10
57.0417739603
20
58.2511697789
10
57.0566911368
20
58.2729942535
10
57.0717517075
20
58.2910744733
10
57.0869123958
20
58.305470541
10
57.1021299251
20
58.3162425591
10
57.1173610191
20
58.3234506303
10
57.1325624012
20
58.3271548571
10
57.147690795
20
58.3274153424
10
57.1627029238
20
58.3242921886
10
57.1775555113
20
58.3178454983
10
57.192205281
20
58.3081353743
10
57.2066089563
20
58.2952219192
10
57.2207232607
20
58.2791652355
10
57.2345049179
20
58.2600254259
10
57.2479106512
20
58.237862593
10
57.2608971842
20
58.2127368395
10
57.2734212404
20
58.1847082679
10
57.2854395432
20
58.153836981
10
57.2969088163
20
58.1201830813
10
57.3077857831
20
58.0838066715
10
57.3180271671
20
58.0447678541
10
57.3275896919
20
58.0031267319
10
57.3364300809
20
57.9589434074
10
57.3445050576
20
57.9122779832
10
57.3517713455
20
57.8631905621
10
57.3581856683
20
57.8117412466
10
57.3637047492
20
57.7579901393
10
57.368285312
20
57.7019973429
10
57.37188408
20
57.64382296
10
57.3738209319
20
57.5938479289
10
57.3744587669
20
57.5430269263
10
57.3737997673
20
57.4913677447
10
57.3718461153
20
57.4388781768
10
57.368599993
20
57.3855660151
10
57.3640635828
20
57.3314390522
10
57.3582390668
20
57.2765050808
10
57.3511286272
20
57.2207718934
10
57.3427344463
20
57.1642472827
10
57.3330587063
20
57.1069390412
10
57.3221035894
20
57.0488549616
10
57.3098712778
20
56.9900028363
10
57.2963639538
20
56.9303904582
10
57.2815837995
20
56.8700256196
10
57.2655329972
20
56.8089161134
10
57.2482137291
20
56.7470697319
10
57.2296281774
20
56.6844942679
10
57.2097785244
20
56.621197514
10
57.1886669522
20
56.5571872627
10
57.166295643
20
56.4924713066
10
57.1426667792
20
56.4270574384
10
57.1177825429
20
56.3609534507
10
57.0916451163
20
56.2941671359
10
57.0642566816
20
56.2267062869
10
57.0356194211
20
56.1585786961
10
57.005735517
20
56.0897921561
10
56.9746071516
20
56.0203544596
10
56.9422365069
20
55.9502733991
10
56.9086257653
20
55.8795567673
10
56.8737771089
20
55.8082123567
10
56.83769272
20
55.73624796
10
56.8282330714
20
55.7173696365
10
56.8184747952
20
55.6974106677
10
56.8084410219
20
55.6764292798
10
56.7981548823
20
55.6544836985
10
56.7876395071
20
55.6316321499
10
56.7769180268
20
55.6079328599
10
56.7660135721
20
55.5834440545
10
56.7549492738
20
55.5582239596
10
56.7437482624
20
55.5323308013
10
56.7324336687
20
55.5058228054
10
56.7210286233
20
55.478758198
10
56.7095562568
20
55.451195205
10
56.6980397
20
55.4231920523
10
56.6865020834
20
55.3948069659
10
56.6749665379
20
55.3660981718
10
56.6634561939
20
55.337123896
10
56.6519941822
20
55.3079423643
10
56.6406036335
20
55.2786118028
10
56.6293076783
20
55.2491904374
10
56.6181294475
20
55.2197364941
10
56.6070920716
20
55.1903081989
10
56.5962186813
20
55.1609637776
10
56.5855324072
20
55.1317614563
10
56.5750563801
20
55.102759461
10
56.5648137306
20
55.0740160175
10
56.5548275893
20
55.0455893519
10
56.5451210869
20
55.01753769
10
56.5357173542
20
54.989919258
10
56.5266395217
20
54.9627922816
10
56.51791072
20
54.936214987
10
56.50955408
20
54.9102456
10
56.4778153714
20
54.8139003449
10
56.4435056366
20
54.7161494068
10
56.4066998198
20
54.6171179676
10
56.3674728651
20
54.5169312089
10
56.3258997167
20
54.4157143125
10
56.2820553186
20
54.31359246
10
56.2360146151
20
54.2106908331
10
56.1878525503
20
54.1071346136
10
56.1376440683
20
54.0030489831
10
56.0854641132
20
53.8985591234
10
56.0313876291
20
53.7937902162
10
55.9754895603
20
53.6888674431
10
55.9178448508
20
53.5839159859
10
55.8585284447
20
53.4790610264
10
55.7976152863
20
53.3744277461
10
55.7351803196
20
53.2701413269
10
55.6712984888
20
53.1663269503
10
55.606044738
20
53.0631097982
10
55.5394940114
20
52.9606150522
10
55.471721253
20
52.8589678941
10
55.4028014071
20
52.7582935055
10
55.3328094177
20
52.6587170681
10
55.2618202289
20
52.5603637637
10
55.189908785
20
52.463358774
10
55.1171500301
20
52.3678272806
10
55.0436189082
20
52.2738944654
10
54.9693903636
20
52.1816855099
10
54.8945393403
20
52.0913255959
10
54.8191407825
20
52.0029399051
10
54.7432696344
20
51.9166536193
10
54.66700084
20
51.83259192
10
54.6381543176
20
51.8022722135
10
54.6061070285
20
51.7703641013
10
54.5710571571
20
51.7370072025
10
54.5332028881
20
51.7023411364
10
54.4927424062
20
51.6665055221
10
54.4498738959
20
51.629639979
10
54.4047955419
20
51.5918841263
10
54.3577055288
20
51.553377583
10
54.3088020411
20
51.5142599685
10
54.2582832636
20
51.474670902
10
54.2063473807
20
51.4347500027
10
54.1531925772
20
51.3946368898
10
54.0990170376
20
51.3544711825
10
54.0440189466
20
51.3143925001
10
53.9883964888
20
51.2745404617
10
53.9323478487
20
51.2350546866
10
53.8760712111
20
51.1960747939
10
53.8197647605
20
51.157740403
10
53.7636266814
20
51.120191133
10
53.7078551587
20
51.0835666032
10
53.6526483768
20
51.0480064327
10
53.5982045203
20
51.0136502408
10
53.544721774
20
50.9806376466
10
53.4923983224
20
50.9491082695
10
53.44143235
20
50.9192017286
10
53.3920220416
20
50.8910576431
10
53.3443655818
20
50.8648156323
10
53.298661155
20
50.8406153154
10
53.2551069461
20
50.8185963116
10
53.2139011396
20
50.79889824
10
53.17524192
20
50.78166072
10
53.1050415581
20
50.7520334334
10
53.0343784394
20
50.7230036928
10
52.963210325
20
50.6945601843
10
52.8914949758
20
50.6666915938
10
52.8191901528
20
50.6393866075
10
52.7462536169
20
50.6126339113
10
52.6726431292
20
50.5864221912
10
52.5983164506
20
50.5607401332
10
52.5232313421
20
50.5355764235
10
52.4473455647
20
50.5109197479
10
52.3706168793
20
50.4867587926
10
52.2930030469
20
50.4630822434
10
52.2144618284
20
50.4398787866
10
52.134950985
20
50.417137108
10
52.0544282775
20
50.3948458937
10
51.9728514669
20
50.3729938297
10
51.8901783142
20
50.351569602
10
51.8063665803
20
50.3305618967
10
51.7213740263
20
50.3099593997
10
51.6351584131
20
50.2897507972
10
51.5476775016
20
50.269924775
10
51.458889053
20
50.2504700193
10
51.368750828
20
50.231375216
10
51.2772205878
20
50.2126290512
10
51.1842560933
20
50.1942202108
10
51.0898151054
20
50.176137381
10
50.9938553851
20
50.1583692477
10
50.8963346935
20
50.1409044969
10
50.7972107915
20
50.1237318147
10
50.69644144
20
50.106839887
10
50.5939844
20
50.0902174
10
50.5556859712
20
50.0855692031
10
50.499027586
20
50.0807983932
10
50.4253298105
20
50.07593228
10
50.3359132108
20
50.0709981734
10
50.232098353
20
50.0660233832
10
50.1152058031
20
50.0610352191
10
49.9865561272
20
50.0560609909
10
49.8474698914
20
50.0511280084
10
49.6992676618
20
50.0462635815
10
49.5432700045
20
50.0414950199
10
49.3807974855
20
50.0368496334
10
49.2131706709
20
50.0323547318
10
49.0417101268
20
50.0280376249
10
48.8677364193
20
50.0239256225
10
48.6925701145
20
50.0200460344
10
48.5175317784
20
50.0164261704
10
48.3439419772
20
50.0130933402
10
48.1731212768
20
50.0100748537
10
48.0063902434
20
50.0073980207
10
47.8450694431
20
50.005090151
10
47.6904794419
20
50.0031785543
10
47.5439408059
20
50.0016905404
10
47.4067741012
20
50.0006534192
10
47.2802998939
20
50.0000945004
10
47.16583875
20
50.0000410939
10
47.0647112357
20
50.0005205094
10
46.978237917
20
50.0015600567
10
46.90773936
20
50.0031870456
10
46.8545361308
20
50.0054287859
10
46.8199487954
20
50.0083125875
10
46.80529792
20
50.01186576
10
46.80529792
20
50.01186576
10
46.80529792
20
50.01186576
10
46.802935115
20
50.0134635768
10
46.7992325834
20
50.0151661914
10
46.7942275937
20
50.0169683438
10
46.7879574147
20
50.0188647741
10
46.780459315
20
50.0208502222
10
46.7717705633
20
50.0229194281
10
46.7619284283
20
50.0250671317
10
46.7509701787
20
50.0272880731
10
46.7389330832
20
50.0295769923
10
46.7258544103
20
50.0319286292
10
46.7117714289
20
50.0343377238
10
46.6967214075
20
50.0367990162
10
46.6807416149
20
50.0393072462
10
46.6638693198
20
50.041857154
10
46.6461417908
20
50.0444434794
10
46.6275962965
20
50.0470609625
10
46.6082701058
20
50.0497043432
10
46.5882004872
20
50.0523683616
10
46.5674247094
20
50.0550477576
10
46.5459800411
20
50.0577372713
10
46.5239037511
20
50.0604316425
10
46.5012331078
20
50.0631256113
10
46.4780053802
20
50.0658139177
10
46.4542578368
20
50.0684913016
10
46.4300277462
20
50.0711525031
10
46.4053523773
20
50.0737922622
10
46.3802689986
20
50.0764053187
10
46.3548148788
20
50.0789864128
10
46.3290272867
20
50.0815302844
10
46.3029434909
20
50.0840316735
10
46.27660076
20
50.08648532
10
46.1593267347
20
50.0983717937
10
46.0417523318
20
50.112525077
10
45.9239364182
20
50.1289229876
10
45.8059378608
20
50.1475433431
10
45.6878155265
20
50.1683639612
10
45.5696282824
20
50.1913626597
10
45.4514349952
20
50.2165172561
10
45.333294532
20
50.2438055683
10
45.2152657596
20
50.2732054138
10
45.0974075449
20
50.3046946104
10
44.979778755
20
50.3382509758
10
44.8624382566
20
50.3738523276
10
44.7454449168
20
50.4114764835
10
44.6288576024
20
50.4511012613
10
44.5127351804
20
50.4927044785
10
44.3971365177
20
50.536263953
10
44.2821204813
20
50.5817575023
10
44.1677459379
20
50.6291629442
10
44.0540717547
20
50.6784580963
10
43.9411567984
20
50.7296207764
10
43.829059936
20
50.7826288021
10
43.7178400344
20
50.8374599912
10
43.6075559606
20
50.8940921612
10
43.4982665815
20
50.9525031299
10
43.390030764
20
51.012670715
10
43.282907375
20
51.0745727342
10
43.1769552814
20
51.1381870051
10
43.0722333502
20
51.2034913454
10
42.9688004483
20
51.2704635729
10
42.8667154426
20
51.3390815052
10
42.7660372
20
51.40932296
10
42.7172625727
20
51.4443391355
10
42.6703529249
20
51.478751665
10
42.6252373156
20
51.5126490933
10
42.581844804
20
51.5461199652
10
42.5401044495
20
51.5792528258
10
42.4999453111
20
51.6121362198
10
42.4612964481
20
51.6448586922
10
42.4240869197
20
51.6775087878
10
42.3882457851
20
51.7101750515
10
42.3537021035
20
51.7429460282
10
42.320384934
20
51.7759102629
10
42.288223336
20
51.8091563003
10
42.2571463686
20
51.8427726854
10
42.227083091
20
51.876847963
10
42.1979625624
20
51.9114706781
10
42.169713842
20
51.9467293756
10
42.1422659891
20
51.9827126002
10
42.1155480627
20
52.019508897
10
42.0894891222
20
52.0572068107
10
42.0640182267
20
52.0958948864
10
42.0390644354
20
52.1356616688
10
42.0145568076
20
52.1765957028
10
41.9904244024
20
52.2187855334
10
41.966596279
20
52.2623197054
10
41.9430014967
20
52.3072867638
10
41.9195691146
20
52.3537752533
10
41.896228192
20
52.4018737189
10
41.872907788
20
52.4516707055
10
41.8495369619
20
52.503254758
10
41.8260447728
20
52.5567144212
10
41.80236028
20
52.61213824
10
41.7860788922
20
52.6509748816
10
41.7707744424
20
52.6880800433
10
41.756416726
20
52.7236925032
10
41.7429755381
20
52.7580510393
10
41.730420674
20
52.7913944296
10
41.7187219288
20
52.8239614521
10
41.7078490978
20
52.855990885
10
41.6977719761
20
52.8877215061
10
41.6884603591
20
52.9193920936
10
41.6798840419
20
52.9512414255
10
41.6720128197
20
52.9835082798
10
41.6648164878
20
53.0164314346
10
41.6582648413
20
53.0502496678
10
41.6523276755
20
53.0852017575
10
41.6469747855
20
53.1215264818
10
41.6421759667
20
53.1594626186
10
41.6379010141
20
53.199248946
10
41.6341197231
20
53.2411242421
10
41.6308018888
20
53.2853272848
10
41.6279173064
20
53.3320968522
10
41.6254357712
20
53.3816717223
10
41.6233270784
20
53.4342906732
10
41.6215610232
20
53.4901924829
10
41.6201074007
20
53.5496159293
10
41.6189360063
20
53.6127997906
10
41.6180166351
20
53.6799828448
10
41.6173190824
20
53.7514038699
10
41.6168131433
20
53.827301644
10
41.616468613
20
53.907914945
10
41.6162552869
20
53.993482551
10
41.61614296
20
54.08424324
10
41.6161761137
20
54.1594555718
10
41.6163978187
20
54.2319170863
10
41.6168154473
20
54.3017152255
10
41.6174363719
20
54.3689374313
0
LWPOLYLINE
5
5D
100
AcDbEntity
8
0
6
ByLayer
62
256
370
-1
100
AcDbPolyline
90
1312
70
1
43
0
10
41.6182679645
20
-55.5663288543
10
41.6193175977
20
-55.5039961893
10
41.6205926436
20
-55.4439771318
10
41.6221004745
20
-55.3861842399
10
41.6238484628
20
-55.3305300716
10
41.6258439806
20
-55.2769271849
10
41.6280944004
20
-55.2252881379
10
41.6306070944
20
-55.1755254886
10
41.6333894349
20
-55.1275517951
10
41.6364487941
20
-55.0812796154
10
41.6397925444
20
-55.0366215076
10
41.643428058
20
-54.9934900297
10
41.6473627073
20
-54.9517977397
10
41.6516038645
20
-54.9114571957
10
41.6561589019
20
-54.8723809557
10
41.6610351917
20
-54.8344815779
10
41.6662401064
20
-54.7976716202
10
41.6717810182
20
-54.7618636406
10
41.6776652993
20
-54.7269701973
10
41.6839003221
20
-54.6929038482
10
41.6904934588
20
-54.6595771515
10
41.6974520818
20
-54.6269026651
10
41.7047835632
20
-54.5947929471
10
41.7124952755
20
-54.5631605555
10
41.7205945908
20
-54.5319180485
10
41.7290888816
20
-54.5009779839
10
41.73798552
20
-54.47025292
10
41.7589016233
20
-54.4027264659
10
41.7816167639
20
-54.3350104859
10
41.80616621
20
-54.2670531691
10
41.8325852297
20
-54.1988027048
10
41.860909091
20
-54.1302072824
10
41.8911730621
20
-54.0612150911
10
41.9234124111
20
-53.9917743203
10
41.9576624062
20
-53.9218331591
10
41.9939583153
20
-53.8513397969
10
42.0323354067
20
-53.7802424229
10
42.0728289484
20
-53.7084892265
10
42.1154742085
20
-53.636028397
10
42.1603064552
20
-53.5628081235
10
42.2073609565
20
-53.4887765954
10
42.2566729806
20
-53.413882002
10
42.3082777956
20
-53.3380725326
10
42.3622106696
20
-53.2612963764
10
42.4185068707
20
-53.1835017228
10
42.4772016669
20
-53.104636761
10
42.5383303265
20
-53.0246496802
10
42.6019281175
20
-52.9434886699
10
42.6680303081
20
-52.8611019192
10
42.7366721663
20
-52.7774376175
10
42.8078889602
20
-52.692443954
10
42.881715958
20
-52.606069118
10
42.9581884278
20
-52.5182612988
10
43.0373416376
20
-52.4289686858
10
43.1192108557
20
-52.3381394681
10
43.20383135
20
-52.245721835
10
43.2912383887
20
-52.1516639759
10
43.38146724
20
-52.05591408
10
43.77815824
20
-51.63774764
10
43.4623028
20
-51.21270292
10
43.445530945
20
-51.1902100016
10
43.4288556661
20
-51.1679979874
10
43.412302391
20
-51.1460972109
10
43.3958965472
20
-51.1245380056
10
43.3796635626
20
-51.103350705
10
43.3636288647
20
-51.0825656426
10
43.3478178812
20
-51.0622131517
10
43.3322560398
20
-51.042323566
10
43.3169687682
20
-51.0229272189
10
43.3019814941
20
-51.0040544439
10
43.2873196451
20
-50.9857355745
10
43.2730086489
20
-50.9680009441
10
43.2590739331
20
-50.9508808863
10
43.2455409255
20
-50.9344057345
10
43.2324350538
20
-50.9186058221
10
43.2197817455
20
-50.9035114828
10
43.2076064285
20
-50.8891530499
10
43.1959345302
20
-50.875560857
10
43.1847914785
20
-50.8627652376
10
43.174202701
20
-50.850796525
10
43.1641936253
20
-50.8396850529
10
43.1547896792
20
-50.8294611546
10
43.1460162904
20
-50.8201551637
10
43.1378988864
20
-50.8117974137
10
43.1304628949
20
-50.804418238
10
43.1237337437
20
-50.7980479701
10
43.1177368605
20
-50.7927169436
10
43.1124976728
20
-50.7884554918
10
43.1080416084
20
-50.7852939483
10
43.1043940949
20
-50.7832626465
10
43.10158056
20
-50.78239192
10
43.0990152483
20
-50.7820698582
10
43.0961040306
20
-50.7816658281
10
43.0928597739
20
-50.7811824045
10
43.0892953452
20
-50.7806221623
10
43.0854236114
20
-50.7799876763
10
43.0812574397
20
-50.7792815215
10
43.076809697
20
-50.7785062726
10
43.0720932504
20
-50.7776645045
10
43.0671209668
20
-50.7767587921
10
43.0619057132
20
-50.7757917103
10
43.0564603567
20
-50.7747658338
10
43.0507977642
20
-50.7736837376
10
43.0449308028
20
-50.7725479966
10
43.0388723395
20
-50.7713611855
10
43.0326352413
20
-50.7701258792
10
43.0262323751
20
-50.7688446526
10
43.0196766081
20
-50.7675200806
10
43.0129808072
20
-50.7661547379
10
43.0061578394
20
-50.7647511996
10
42.9992205717
20
-50.7633120403
10
42.9921818712
20
-50.761839835
10
42.9850546048
20
-50.7603371586
10
42.9778516395
20
-50.7588065859
10
42.9705858424
20
-50.7572506917
10
42.9632700805
20
-50.7556720509
10
42.9559172208
20
-50.7540732384
10
42.9485401302
20
-50.752456829
10
42.9411516759
20
-50.7508253977
10
42.9337647247
20
-50.7491815191
10
42.9263921437
20
-50.7475277683
10
42.9190468
20
-50.74586672
10
42.8809401876
20
-50.7377409304
10
42.8402901418
20
-50.7300635427
10
42.7972933437
20
-50.7228381674
10
42.7521464742
20
-50.7160684152
10
42.7050462141
20
-50.7097578964
10
42.6561892444
20
-50.7039102216
10
42.6057722461
20
-50.6985290013
10
42.5539919
20
-50.693617846
10
42.501044887
20
-50.6891803662
10
42.4471278882
20
-50.6852201725
10
42.3924375843
20
-50.6817408754
10
42.3371706564
20
-50.6787460853
10
42.2815237854
20
-50.6762394128
10
42.2256936521
20
-50.6742244684
10
42.1698769375
20
-50.6727048626
10
42.1142703225
20
-50.671684206
10
42.0590704881
20
-50.6711661089
10
42.0044741152
20
-50.6711541821
10
41.9506778846
20
-50.6716520359
10
41.8978784774
20
-50.6726632808
10
41.8462725743
20
-50.6741915275
10
41.7960568565
20
-50.6762403864
10
41.7474280047
20
-50.6788134679
10
41.7005826999
20
-50.6819143828
10
41.6557176231
20
-50.6855467413
10
41.6130294551
20
-50.6897141541
10
41.5727148768
20
-50.6944202317
10
41.5349705693
20
-50.6996685846
10
41.4999932133
20
-50.7054628232
10
41.4679794899
20
-50.7118065582
10
41.43912608
20
-50.7187034
10
41.3812423956
20
-50.733876095
10
41.326470442
20
-50.7480241839
10
41.2746923953
20
-50.7611456011
10
41.2257904314
20
-50.7732382815
10
41.1796467262
20
-50.7843001596
10
41.1361434559
20
-50.7943291702
10
41.0951627962
20
-50.8033232477
10
41.0565869233
20
-50.811280327
10
41.020298013
20
-50.8181983427
10
40.9861782414
20
-50.8240752293
10
40.9541097844
20
-50.8289089217
10
40.9239748181
20
-50.8326973543
10
40.8956555183
20
-50.8354384619
10
40.8690340611
20
-50.8371301791
10
40.8439926224
20
-50.8377704406
10
40.8204133782
20
-50.837357181
10
40.7981785045
20
-50.8358883349
10
40.7771701773
20
-50.8333618371
10
40.7572705725
20
-50.8297756222
10
40.7383618661
20
-50.8251276248
10
40.7203262341
20
-50.8194157795
10
40.7030458525
20
-50.8126380211
10
40.6864028972
20
-50.8047922842
10
40.6702795442
20
-50.7958765034
10
40.6545579695
20
-50.7858886133
10
40.6391203491
20
-50.7748265487
10
40.6238488589
20
-50.7626882442
10
40.6086256749
20
-50.7494716344
10
40.5933329731
20
-50.735174654
10
40.5778529295
20
-50.7197952377
10
40.56206772
20
-50.70333132
10
40.40780132
20
-50.53912316
10
40.54487936
20
-50.27025228
10
40.5521310499
20
-50.2559493535
10
40.5592874919
20
-50.2416775832
10
40.5663390234
20
-50.227459928
10
40.5732759814
20
-50.213319347
10
40.5800887033
20
-50.1992787992
10
40.5867675264
20
-50.1853612434
10
40.5933027878
20
-50.1715896387
10
40.5996848248
20
-50.1579869441
10
40.6059039746
20
-50.1445761186
10
40.6119505746
20
-50.131380121
10
40.6178149618
20
-50.1184219105
10
40.6234874736
20
-50.105724446
10
40.6289584473
20
-50.0933106864
10
40.63421822
20
-50.0812035908
10
40.639257129
20
-50.0694261181
10
40.6440655115
20
-50.0580012273
10
40.6486337049
20
-50.0469518774
10
40.6529520462
20
-50.0363010273
10
40.6570108729
20
-50.0260716361
10
40.660800522
20
-50.0162866627
10
40.6643113309
20
-50.0069690662
10
40.6675336368
20
-49.9981418054
10
40.670457777
20
-49.9898278393
10
40.6730740886
20
-49.982050127
10
40.675372909
20
-49.9748316275
10
40.6773445753
20
-49.9681952996
10
40.6789794248
20
-49.9621641024
10
40.6802677948
20
-49.9567609949
10
40.6812000225
20
-49.952008936
10
40.6817664452
20
-49.9479308847
10
40.6819574
20
-49.9445498
10
40.6814695854
20
-49.9408516331
10
40.680022598
20
-49.9358330316
10
40.6776411224
20
-49.9295329996
10
40.6743498432
20
-49.9219905408
10
40.670173445
20
-49.9132446593
10
40.6651366125
20
-49.903334359
10
40.6592640301
20
-49.8922986436
10
40.6525803826
20
-49.8801765173
10
40.6451103544
20
-49.8670069838
10
40.6368786303
20
-49.8528290471
10
40.6279098948
20
-49.8376817111
10
40.6182288325
20
-49.8216039797
10
40.607860128
20
-49.8046348568
10
40.596828466
20
-49.7868133463
10
40.5851585309
20
-49.7681784522
10
40.5728750075
20
-49.7487691783
10
40.5600025803
20
-49.7286245286
10
40.546565934
20
-49.707783507
10
40.5325897531
20
-49.6862851173
10
40.5180987221
20
-49.6641683636
10
40.5031175259
20
-49.6414722496
10
40.4876708488
20
-49.6182357794
10
40.4717833756
20
-49.5944979568
10
40.4554797908
20
-49.5702977858
10
40.4387847791
20
-49.5456742701
10
40.421723025
20
-49.5206664139
10
40.4043192131
20
-49.4953132209
10
40.3865980281
20
-49.4696536951
10
40.3685841545
20
-49.4437268404
10
40.3503022769
20
-49.4175716608
10
40.33177708
20
-49.39122716
10
40.2999684207
20
-49.3460723564
10
40.2701556568
20
-49.3035820137
10
40.2422799586
20
-49.2635929409
10
40.2162824964
20
-49.225941947
10
40.1921044407
20
-49.1904658412
10
40.1696869619
20
-49.1570014325
10
40.1489712304
20
-49.1253855299
10
40.1298984166
20
-49.0954549426
10
40.1124096908
20
-49.0670464795
10
40.0964462235
20
-49.0399969498
10
40.081949185
20
-49.0141431625
10
40.0688597457
20
-48.9893219267
10
40.0571190761
20
-48.9653700514
10
40.0466683466
20
-48.9421243457
10
40.0374487274
20
-48.9194216187
10
40.0294013891
20
-48.8970986794
10
40.022467502
20
-48.8749923369
10
40.0165882365
20
-48.8529394002
10
40.0117047629
20
-48.8307766785
10
40.0077582518
20
-48.8083409807
10
40.0046898735
20
-48.785469116
10
40.0024407983
20
-48.7619978934
10
40.0009521967
20
-48.7377641219
10
40.0001652391
20
-48.7126046107
10
40.0000210959
20
-48.6863561688
10
40.0004609374
20
-48.6588556052
10
40.001425934
20
-48.6299397291
10
40.0028572562
20
-48.5994453494
10
40.0046960744
20
-48.5672092753
10
40.0068835588
20
-48.5330683158
10
40.00936088
20
-48.49685928
10
40.0134980536
20
-48.4417714927
10
40.0180380145
20
-48.3899221714
10
40.0230475468
20
-48.3412685991
10
40.0285934345
20
-48.2957680588
10
40.0347424617
20
-48.2533778332
10
40.0415614124
20
-48.2140552055
10
40.0491170708
20
-48.1777574586
10
40.0574762209
20
-48.1444418753
10
40.0667056467
20
-48.1140657387
10
40.0768721323
20
-48.0865863316
10
40.0880424618
20
-48.061960937
10
40.1002834192
20
-48.0401468379
10
40.1136617886
20
-48.0211013171
10
40.1282443541
20
-48.0047816577
10
40.1440978996
20
-47.9911451426
10
40.1612892094
20
-47.9801490546
10
40.1798850674
20
-47.9717506768
10
40.1999522577
20
-47.9659072921
10
40.2215575644
20
-47.9625761834
10
40.2447677715
20
-47.9617146337
10
40.2696496631
20
-47.9632799259
10
40.2962700233
20
-47.967229343
10
40.3246956361
20
-47.9735201679
10
40.3549932855
20
-47.9821096834
10
40.3872297557
20
-47.9929551727
10
40.4214718307
20
-48.0060139186
10
40.4577862946
20
-48.021243204
10
40.4962399314
20
-48.0386003119
10
40.5368995252
20
-48.0580425252
10
40.57983186
20
-48.079527127
10
40.62510372
20
-48.1030114
10
40.6713211782
20
-48.1267749963
10
40.7172922449
20
-48.149258433
10
40.7630073903
20
-48.1704606883
10
40.8084570845
20
-48.1903807405
10
40.8536317978
20
-48.2090175678
10
40.8985220005
20
-48.2263701484
10
40.9431181627
20
-48.2424374605
10
40.9874107546
20
-48.2572184824
10
41.0313902465
20
-48.2707121923
10
41.0750471086
20
-48.2829175684
10
41.1183718111
20
-48.2938335889
10
41.1613548242
20
-48.3034592321
10
41.2039866182
20
-48.3117934762
10
41.2462576632
20
-48.3188352995
10
41.2881584294
20
-48.32458368
10
41.3296793872
20
-48.3290375962
10
41.3708110067
20
-48.3321960261
10
41.4115437581
20
-48.334057948
10
41.4518681116
20
-48.3346223402
10
41.4917745375
20
-48.3338881809
10
41.531253506
20
-48.3318544483
10
41.5702954872
20
-48.3285201206
10
41.6088909515
20
-48.323884176
10
41.647030369
20
-48.3179455928
10
41.6847042099
20
-48.3107033492
10
41.7219029445
20
-48.3021564235
10
41.758617043
20
-48.2923037938
10
41.7948369756
20
-48.2811444384
10
41.8305532124
20
-48.2686773354
10
41.8657562238
20
-48.2549014632
10
41.90043648
20
-48.2398158
10
41.9300055497
20
-48.2260081433
10
41.9581894932
20
-48.2122118494
10
41.9850643809
20
-48.1983089272
10
42.0107062831
20
-48.1841813858
10
42.0351912703
20
-48.1697112341
10
42.0585954129
20
-48.1547804812
10
42.0809947813
20
-48.1392711359
10
42.1024654459
20
-48.1230652074
10
42.1230834772
20
-48.1060447047
10
42.1429249455
20
-48.0880916366
10
42.1620659212
20
-48.0690880123
10
42.1805824749
20
-48.0489158407
10
42.1985506768
20
-48.0274571308
10
42.2160465975
20
-48.0045938916
10
42.2331463072
20
-47.9802081321
10
42.2499258765
20
-47.9541818612
10
42.2664613757
20
-47.9263970881
10
42.2828288753
20
-47.8967358217
10
42.2991044456
20
-47.865080071
10
42.3153641571
20
-47.8313118449
10
42.3316840803
20
-47.7953131525
10
42.3481402854
20
-47.7569660028
10
42.3648088429
20
-47.7161524048
10
42.3817658233
20
-47.6727543674
10
42.3990872969
20
-47.6266538997
10
42.4168493342
20
-47.5777330106
10
42.4351280056
20
-47.5258737092
10
42.4539993814
20
-47.4709580044
10
42.4735395322
20
-47.4128679053
10
42.4938245282
20
-47.3514854208
10
42.51493044
20
-47.28669256
10
42.5443101538
20
-47.1998233435
10
42.5760756775
20
-47.1132765282
10
42.6101744477
20
-47.027118282
10
42.6465539009
20
-46.9414147726
10
42.6851614739
20
-46.8562321676
10
42.7259446031
20
-46.7716366348
10
42.7688507252
20
-46.6876943419
10
42.8138272767
20
-46.6044714567
10
42.8608216944
20
-46.5220341468
10
42.9097814147
20
-46.44044858
10
42.9606538743
20
-46.359780924
10
43.0133865098
20
-46.2800973465
10
43.0679267578
20
-46.2014640152
10
43.1242220548
20
-46.1239470979
10
43.1822198376
20
-46.0476127623
10
43.2418675426
20
-45.972527176
10
43.3031126065
20
-45.8987565069
10
43.3659024659
20
-45.8263669226
10
43.4301845573
20
-45.7554245909
10
43.4959063175
20
-45.6859956795
10
43.5630151829
20
-45.618146356
10
43.6314585903
20
-45.5519427883
10
43.7011839761
20
-45.487451144
10
43.772138777
20
-45.4247375909
10
43.8442704295
20
-45.3638682966
10
43.9175263704
20
-45.304909429
10
43.9918540361
20
-45.2479271557
10
44.0672008634
20
-45.1929876444
10
44.1435142887
20
-45.1401570629
10
44.2207417487
20
-45.0895015788
10
44.29883068
20
-45.04108736
10
44.3799902029
20
-44.9938599226
10
44.4639407234
20
-44.9481885253
10
44.5504915784
20
-44.9041101878
10
44.6394521046
20
-44.86166193
10
44.7306316387
20
-44.8208807716
10
44.8238395177
20
-44.7818037325
10
44.9188850782
20
-44.7444678326
10
45.015577657
20
-44.7089100917
10
45.113726591
20
-44.6751675295
10
45.2131412169
20
-44.643277166
10
45.3136308715
20
-44.6132760208
10
45.4150048916
20
-44.585201114
10
45.517072614
20
-44.5590894652
10
45.6196433754
20
-44.5349780944
10
45.7225265127
20
-44.5129040212
10
45.8255313626
20
-44.4929042656
10
45.9284672619
20
-44.4750158475
10
46.0311435474
20
-44.4592757865
10
46.1333695559
20
-44.4457211025
10
46.2349546241
20
-44.4343888154
10
46.3357080889
20
-44.425315945
10
46.4354392871
20
-44.4185395111
10
46.5339575553
20
-44.4140965336
10
46.6310722305
20
-44.4120240322
10
46.7265926494
20
-44.4123590267
10
46.8203281487
20
-44.4151385371
10
46.9120880653
20
-44.4203995831
10
47.0016817359
20
-44.4281791846
10
47.0889184974
20
-44.4385143614
10
47.1736076865
20
-44.4514421332
10
47.25555864
20
-44.46699952
10
47.3026582907
20
-44.4774953975
10
47.3514111828
20
-44.489565109
10
47.4017538045
20
-44.5031785288
10
47.4536226442
20
-44.5183055315
10
47.5069541899
20
-44.5349159916
10
47.56168493
20
-44.5529797834
10
47.6177513527
20
-44.5724667815
10
47.6750899461
20
-44.5933468604
10
47.7336371985
20
-44.6155898945
10
47.7933295981
20
-44.6391657583
10
47.8541036332
20
-44.6640443262
10
47.9158957919
20
-44.6901954728
10
47.9786425625
20
-44.7175890724
10
48.0422804332
20
-44.7461949996
10
48.1067458923
20
-44.7759831288
10
48.1719754279
20
-44.8069233346
10
48.2379055283
20
-44.8389854913
10
48.3044726817
20
-44.8721394734
10
48.3716133763
20
-44.9063551555
10
48.4392641003
20
-44.9416024119
10
48.5073613421
20
-44.9778511172
10
48.5758415897
20
-45.0150711458
10
48.6446413314
20
-45.0532323722
10
48.7136970555
20
-45.0923046709
10
48.7829452501
20
-45.1322579162
10
48.8523224035
20
-45.1730619828
10
48.9217650039
20
-45.214686745
10
48.9912095395
20
-45.2571020774
10
49.0605924986
20
-45.3002778544
10
49.1298503694
20
-45.3441839504
10
49.19891964
20
-45.38879024
10
49.2654815729
20
-45.4318546211
10
49.3290369869
20
-45.4722505963
10
49.3897707011
20
-45.5100043272
10
49.4478675344
20
-45.5451419753
10
49.5035123059
20
-45.5776897022
10
49.5568898347
20
-45.6076736694
10
49.6081849397
20
-45.6351200385
10
49.6575824401
20
-45.660054971
10
49.7052671548
20
-45.6825046285
10
49.7514239029
20
-45.7024951725
10
49.7962375034
20
-45.7200527646
10
49.8398927754
20
-45.7352035662
10
49.8825745379
20
-45.747973739
10
49.9244676099
20
-45.7583894445
10
49.9657568105
20
-45.7664768443
10
50.0066269587
20
-45.7722620998
10
50.0472628736
20
-45.7757713727
10
50.0878493741
20
-45.7770308245
10
50.1285712794
20
-45.7760666167
10
50.1696134084
20
-45.7729049109
10
50.2111605802
20
-45.7675718686
10
50.2533976139
20
-45.7600936514
10
50.2965093284
20
-45.7504964208
10
50.3406805428
20
-45.7388063384
10
50.3860960761
20
-45.7250495657
10
50.4329407475
20
-45.7092522642
10
50.4813993758
20
-45.6914405956
10
50.5316567802
20
-45.6716407213
10
50.5838977797
20
-45.6498788029
10
50.6383071932
20
-45.6261810019
10
50.69506984
20
-45.60057348
10
50.7160718729
20
-45.5910506027
10
50.7369676846
20
-45.5817576403
10
50.7577250678
20
-45.5727046722
10
50.7783118151
20
-45.5639017781
10
50.7986957192
20
-45.5553590376
10
50.8188445729
20
-45.5470865302
10
50.8387261688
20
-45.5390943355
10
50.8583082996
20
-45.531392533
10
50.877558758
20
-45.5239912024
10
50.8964453367
20
-45.5169004232
10
50.9149358283
20
-45.510130275
10
50.9329980256
20
-45.5036908373
10
50.9505997212
20
-45.4975921898
10
50.9677087079
20
-45.491844412
10
50.9842927782
20
-45.4864575834
10
51.000319725
20
-45.4814417837
10
51.0157573408
20
-45.4768070925
10
51.0305734184
20
-45.4725635892
10
51.0447357504
20
-45.4687213535
10
51.0582121296
20
-45.4652904649
10
51.0709703486
20
-45.4622810031
10
51.0829782001
20
-45.4597030475
10
51.0942034768
20
-45.4575666778
10
51.1046139714
20
-45.4558819735
10
51.1141774766
20
-45.4546590143
10
51.122861785
20
-45.4539078796
10
51.1306346894
20
-45.4536386491
10
51.1374639824
20
-45.4538614023
10
51.1433174567
20
-45.4545862188
10
51.148162905
20
-45.4558231782
10
51.15196812
20
-45.45758236
10
51.165823229
20
-45.4673877182
10
51.178133611
20
-45.4786780863
10
51.1889159455
20
-45.4913960262
10
51.1981869116
20
-45.5054840993
10
51.2059631887
20
-45.5208848675
10
51.2122614562
20
-45.5375408924
10
51.2170983934
20
-45.5553947357
10
51.2204906795
20
-45.5743889591
10
51.222454994
20
-45.5944661242
10
51.2230080162
20
-45.6155687929
10
51.2221664254
20
-45.6376395266
10
51.2199469008
20
-45.6606208872
10
51.2163661219
20
-45.6844554364
10
51.211440768
20
-45.7090857357
10
51.2051875184
20
-45.7344543469
10
51.1976230524
20
-45.7605038317
10
51.1887640494
20
-45.7871767518
10
51.1786271886
20
-45.8144156688
10
51.1672291494
20
-45.8421631444
10
51.1545866112
20
-45.8703617404
10
51.1407162533
20
-45.8989540184
10
51.1256347549
20
-45.9278825401
10
51.1093587954
20
-45.9570898672
10
51.0919050542
20
-45.9865185613
10
51.0732902106
20
-46.0161111842
10
51.0535309438
20
-46.0458102976
10
51.0326439333
20
-46.0755584631
10
51.0106458583
20
-46.1052982424
10
50.9875533982
20
-46.1349721972
10
50.9633832323
20
-46.1645228891
10
50.93815204
20
-46.19389288
10
50.9235863436
20
-46.2104975794
10
50.9092119612
20
-46.2269974097
10
50.8950483014
20
-46.2433674269
10
50.8811147727
20
-46.2595826872
10
50.8674307836
20
-46.2756182466
10
50.8540157429
20
-46.2914491612
10
50.8408890589
20
-46.3070504872
10
50.8280701404
20
-46.3223972806
10
50.8155783958
20
-46.3374645975
10
50.8034332337
20
-46.352227494
10
50.7916540627
20
-46.3666610263
10
50.7802602914
20
-46.3807402503
10
50.7692713282
20
-46.3944402223
10
50.7587065819
20
-46.4077359983
10
50.7485854608
20
-46.4206026344
10
50.7389273737
20
-46.4330151867
10
50.7297517291
20
-46.4449487112
10
50.7210779355
20
-46.4563782642
10
50.7129254015
20
-46.4672789017
10
50.7053135356
20
-46.4776256797
10
50.6982617465
20
-46.4873936544
10
50.6917894427
20
-46.4965578819
10
50.6859160328
20
-46.5050934183
10
50.6806609252
20
-46.5129753196
10
50.6760435287
20
-46.520178642
10
50.6720832517
20
-46.5266784415
10
50.6687995029
20
-46.5324497743
10
50.6662116907
20
-46.5374676965
10
50.6643392238
20
-46.5417072641
10
50.6632015107
20
-46.5451435332
10
50.66281796
20
-46.54775156
10
50.6632015107
20
-46.54992385
10
50.6643392238
20
-46.5520676084
10
50.6662116907
20
-46.5541799406
10
50.6687995029
20
-46.5562579521
10
50.6720832517
20
-46.5582987482
10
50.6760435287
20
-46.5602994344
10
50.6806609252
20
-46.5622571161
10
50.6859160328
20
-46.5641688987
10
50.6917894427
20
-46.5660318877
10
50.6982617465
20
-46.5678431885
10
50.7053135356
20
-46.5695999065
10
50.7129254015
20
-46.5712991472
10
50.7210779355
20
-46.572938016
10
50.7297517291
20
-46.5745136182
10
50.7389273737
20
-46.5760230594
10
50.7485854608
20
-46.5774634449
10
50.7587065819
20
-46.5788318802
10
50.7692713282
20
-46.5801254707
10
50.7802602914
20
-46.5813413218
10
50.7916540627
20
-46.582476539
10
50.8034332337
20
-46.5835282277
10
50.8155783958
20
-46.5844934933
10
50.8280701404
20
-46.5853694412
10
50.8408890589
20
-46.5861531769
10
50.8540157429
20
-46.5868418058
10
50.8674307836
20
-46.5874324333
10
50.8811147727
20
-46.5879221649
10
50.8950483014
20
-46.5883081059
10
50.9092119612
20
-46.5885873618
10
50.9235863436
20
-46.588757038
10
50.93815204
20
-46.58881424
10
50.9685368279
20
-46.5890431672
10
50.9970235637
20
-46.5897533978
10
51.0236212872
20
-46.5909801052
10
51.0483390381
20
-46.5927584625
10
51.071185856
20
-46.5951236432
10
51.0921707805
20
-46.5981108207
10
51.1113028515
20
-46.6017551682
10
51.1285911086
20
-46.6060918591
10
51.1440445914
20
-46.6111560667
10
51.1576723396
20
-46.6169829644
10
51.1694833929
20
-46.6236077255
10
51.179486791
20
-46.6310655233
10
51.1876915736
20
-46.6393915312
10
51.1941067803
20
-46.6486209225
10
51.1987414509
20
-46.6587888705
10
51.201604625
20
-46.6699305487
10
51.2027053422
20
-46.6820811302
10
51.2020526424
20
-46.6952757885
10
51.199655565
20
-46.709549697
10
51.19552315
20
-46.7249380288
10
51.1896644368
20
-46.7414759574
10
51.1820884652
20
-46.7591986561
10
51.1728042749
20
-46.7781412983
10
51.1618209056
20
-46.7983390572
10
51.1491473969
20
-46.8198271063
10
51.1347927885
20
-46.8426406188
10
51.1187661201
20
-46.8668147681
10
51.1010764313
20
-46.8923847276
10
51.081732762
20
-46.9193856705
10
51.0607441516
20
-46.9478527702
10
51.03811964
20
-46.9778212
10
51.025629271
20
-46.9939330466
10
51.0131855974
20
-47.0094467931
10
51.0007691693
20
-47.0243742188
10
50.9883605366
20
-47.0387271034
10
50.9759402494
20
-47.0525172263
10
50.9634888578
20
-47.065756367
10
50.9509869118
20
-47.0784563052
10
50.9384149615
20
-47.0906288201
10
50.9257535568
20
-47.1022856915
10
50.9129832479
20
-47.1134386988
10
50.9000845847
20
-47.1240996215
10
50.8870381174
20
-47.1342802391
10
50.8738243959
20
-47.1439923312
10
50.8604239703
20
-47.1532476772
10
50.8468173907
20
-47.1620580566
10
50.8329852071
20
-47.1704352491
10
50.8189079694
20
-47.178391034
10
50.8045662279
20
-47.1859371909
10
50.7899405325
20
-47.1930854993
10
50.7750114332
20
-47.1998477387
10
50.7597594802
20
-47.2062356887
10
50.7441652233
20
-47.2122611287
10
50.7282092128
20
-47.2179358382
10
50.7118719986
20
-47.2232715968
10
50.6951341308
20
-47.228280184
10
50.6779761594
20
-47.2329733793
10
50.6603786344
20
-47.2373629622
10
50.642322106
20
-47.2414607122
10
50.623787124
20
-47.2452784088
10
50.6047542387
20
-47.2488278316
10
50.585204
20
-47.25212076
10
50.5624922656
20
-47.2558172961
10
50.541067205
20
-47.2594500773
10
50.5208998371
20
-47.2630423815
10
50.501961181
20
-47.2666174865
10
50.4842222555
20
-47.2701986704
10
50.4676540798
20
-47.2738092109
10
50.4522276728
20
-47.277472386
10
50.4379140535
20
-47.2812114736
10
50.4246842408
20
-47.2850497516
10
50.4125092538
20
-47.2890104979
10
50.4013601115
20
-47.2931169904
10
50.3912078328
20
-47.2973925071
10
50.3820234367
20
-47.3018603257
10
50.3737779422
20
-47.3065437243
10
50.3664423683
20
-47.3114659808
10
50.359987734
20
-47.3166503729
10
50.3543850582
20
-47.3221201787
10
50.34960536
20
-47.3278986761
10
50.3456196584
20
-47.3340091429
10
50.3423989723
20
-47.3404748571
10
50.3399143206
20
-47.3473190966
10
50.3381367225
20
-47.3545651392
10
50.3370371969
20
-47.3622362629
10
50.3365867628
20
-47.3703557456
10
50.3367564391
20
-47.3789468652
10
50.3375172449
20
-47.3880328995
10
50.3388401991
20
-47.3976371266
10
50.3406963207
20
-47.4077828243
10
50.3430566287
20
-47.4184932705
10
50.3458921422
20
-47.4297917431
10
50.34917388
20
-47.44170152
10
50.3681566601
20
-47.5103941571
10
50.3863896785
20
-47.5809888201
10
50.4038582555
20
-47.6533010314
10
50.4205477114
20
-47.7271463132
10
50.4364433665
20
-47.802340188
10
50.4515305411
20
-47.878698178
10
50.4657945556
20
-47.9560358057
10
50.4792207303
20
-48.0341685933
10
50.4917943854
20
-48.1129120632
10
50.5035008414
20
-48.1920817377
10
50.5143254184
20
-48.2714931392
10
50.5242534369
20
-48.35096179
10
50.5332702172
20
-48.4303032125
10
50.5413610795
20
-48.5093329289
10
50.5485113442
20
-48.5878664617
10
50.5547063315
20
-48.6657193332
10
50.5599313619
20
-48.7427070658
10
50.5641717556
20
-48.8186451816
10
50.567412833
20
-48.8933492032
10
50.5696399143
20
-48.9666346529
10
50.5708383199
20
-49.0383170529
10
50.5709933701
20
-49.1082119257
10
50.5700903851
20
-49.1761347935
10
50.5681146854
20
-49.2419011788
10
50.5650515912
20
-49.3053266038
10
50.5608864229
20
-49.3662265909
10
50.5556045007
20
-49.4244166625
10
50.549191145
20
-49.4797123408
10
50.5416316761
20
-49.5319291483
10
50.5329114144
20
-49.5808826073
10
50.52301568
20
-49.62638824
10
50.5075088653
20
-49.686682848
10
50.4899523923
20
-49.7468090037
10
50.4703347822
20
-49.8067810434
10
50.4486445567
20
-49.8666133035
10
50.4248702371
20
-49.9263201202
10
50.3990003449
20
-49.9859158298
10
50.3710234017
20
-50.0454147687
10
50.3409279288
20
-50.1048312732
10
50.3087024477
20
-50.1641796795
10
50.2743354799
20
-50.223474324
10
50.2378155468
20
-50.282729543
10
50.19913117
20
-50.3419596728
10
50.1582708709
20
-50.4011790497
10
50.1152231709
20
-50.46040201
10
50.0699765915
20
-50.51964289
10
50.0225196542
20
-50.5789160261
10
49.9728408804
20
-50.6382357544
10
49.9209287917
20
-50.6976164115
10
49.8667719094
20
-50.7570723335
10
49.810358755
20
-50.8166178567
10
49.7516778501
20
-50.8762673176
10
49.690717716
20
-50.9360350523
10
49.6274668743
20
-50.9959353971
10
49.5619138463
20
-51.0559826885
10
49.4940471536
20
-51.1161912627
10
49.4238553177
20
-51.176575456
10
49.3513268599
20
-51.2371496047
10
49.2764503018
20
-51.2979280452
10
49.1992141648
20
-51.3589251137
10
49.1196069704
20
-51.4201551465
10
49.03761724
20
-51.48163248
10
49.0070336083
20
-51.5043622375
10
48.9769425415
20
-51.5268843188
10
48.94738253
20
-51.5491661747
10
48.9183920644
20
-51.5711752556
10
48.8900096352
20
-51.5928790124
10
48.8622737329
20
-51.6142448956
10
48.8352228482
20
-51.6352403559
10
48.8088954715
20
-51.655832844
10
48.7833300935
20
-51.6759898104
10
48.7585652046
20
-51.695678706
10
48.7346392953
20
-51.7148669813
10
48.7115908563
20
-51.733522087
10
48.6894583781
20
-51.7516114737
10
48.6682803511
20
-51.7691025921
10
48.648095266
20
-51.7859628929
10
48.6289416134
20
-51.8021598267
10
48.6108578836
20
-51.8176608441
10
48.5938825674
20
-51.8324333959
10
48.5780541551
20
-51.8464449326
10
48.5634111375
20
-51.859662905
10
48.5499920049
20
-51.8720547636
10
48.537835248
20
-51.8835879592
10
48.5269793573
20
-51.8942299424
10
48.5174628234
20
-51.9039481638
10
48.5093241367
20
-51.9127100742
10
48.5026017879
20
-51.9204831241
10
48.4973342674
20
-51.9272347642
10
48.4935600658
20
-51.9329324452
10
48.4913176737
20
-51.9375436177
10
48.4906455816
20
-51.9410357324
10
48.49158228
20
-51.94337624
10
48.4947429664
20
-51.945142929
10
48.5006678197
20
-51.9469327255
10
48.5092827909
20
-51.9487421228
10
48.5205138312
20
-51.9505676143
10
48.5342868916
20
-51.9524056935
10
48.5505279233
20
-51.9542528537
10
48.5691628774
20
-51.9561055883
10
48.5901177048
20
-51.9579603908
10
48.6133183568
20
-51.9598137546
10
48.6386907844
20
-51.961662173
10
48.6661609387
20
-51.9635021394
10
48.6956547709
20
-51.9653301473
10
48.7270982319
20
-51.9671426901
10
48.7604172729
20
-51.9689362611
10
48.7955378451
20
-51.9707073538
10
48.8323858994
20
-51.9724524616
10
48.870887387
20
-51.9741680778
10
48.9109682589
20
-51.9758506959
10
48.9525544663
20
-51.9774968093
10
48.9955719603
20
-51.9791029114
10
49.039946692
20
-51.9806654955
10
49.0856046123
20
-51.9821810552
10
49.1324716726
20
-51.9836460837
10
49.1804738237
20
-51.9850570745
10
49.2295370169
20
-51.986410521
10
49.2795872033
20
-51.9877029165
10
49.3305503338
20
-51.9889307546
10
49.3823523596
20
-51.9900905286
10
49.4349192319
20
-51.9911787319
10
49.4881769017
20
-51.9921918579
10
49.54205132
20
-51.9931264
10
50.55956764
20
-52.00992312
10
51.4544032
20
-52.33451592
10
51.6562250778
20
-52.4077031483
10
51.845664335
20
-52.4763381939
10
52.0231694127
20
-52.5405578113
10
52.1891887518
20
-52.6004987548
10
52.3441707933
20
-52.6562977789
10
52.4885639783
20
-52.7080916382
10
52.6228167478
20
-52.756017087
10
52.7473775427
20
-52.8002108798
10
52.8626948041
20
-52.8408097712
10
52.969216973
20
-52.8779505154
10
53.0673924903
20
-52.9117698671
10
53.1576697971
20
-52.9424045806
10
53.2404973344
20
-52.9699914104
10
53.3163235432
20
-52.994667111
10
53.3855968644
20
-53.0165684369
10
53.4487657391
20
-53.0358321424
10
53.5062786083
20
-53.052594982
10
53.558583913
20
-53.0669937103
10
53.6061300942
20
-53.0791650817
10
53.6493655929
20
-53.0892458505
10
53.6887388501
20
-53.0973727714
10
53.7246983068
20
-53.1036825987
10
53.7576924039
20
-53.1083120869
10
53.7881695826
20
-53.1113979905
10
53.8165782839
20
-53.1130770638
10
53.8433669486
20
-53.1134860615
10
53.8689840178
20
-53.1127617379
10
53.8938779326
20
-53.1110408475
10
53.9184971339
20
-53.1084601447
10
53.9432900627
20
-53.1051563841
10
53.96870516
20
-53.10126632
10
54.0182503583
20
-53.0914771786
10
54.0713323232
20
-53.0774620776
10
54.1277543686
20
-53.0593613059
10
54.1873198086
20
-53.0373151522
10
54.2498319569
20
-53.0114639053
10
54.3150941276
20
-52.9819478539
10
54.3829096344
20
-52.9489072868
10
54.4530817914
20
-52.9124824929
10
54.5254139125
20
-52.8728137609
10
54.5997093115
20
-52.8300413795
10
54.6757713023
20
-52.7843056376
10
54.753403199
20
-52.7357468239
10
54.8324083154
20
-52.6845052272
10
54.9125899653
20
-52.6307211363
10
54.9937514628
20
-52.57453484
10
55.0756961218
20
-52.516086627
10
55.1582272561
20
-52.455516786
10
55.2411481796
20
-52.392965606
10
55.3242622064
20
-52.3285733757
10
55.4073726502
20
-52.2624803837
10
55.4902828251
20
-52.194826919
10
55.5727960448
20
-52.1257532703
10
55.6547156234
20
-52.0553997264
10
55.7358448748
20
-51.983906576
10
55.8159871128
20
-51.911414108
10
55.8949456514
20
-51.838062611
10
55.9725238045
20
-51.7639923739
10
56.048524886
20
-51.6893436855
10
56.1227522098
20
-51.6142568345
10
56.1950090898
20
-51.5388721098
10
56.26509884
20
-51.4633298
10
56.72448436
20
-50.95974264
10
56.86756992
20
-51.13160016
10
56.8786185979
20
-51.1450951186
10
56.8890639168
20
-51.158338491
10
56.8989157046
20
-51.1713780848
10
56.9081837897
20
-51.1842617078
10
56.9168780001
20
-51.197037168
10
56.9250081639
20
-51.2097522731
10
56.9325841094
20
-51.2224548308
10
56.9396156647
20
-51.2351926491
10
56.9461126579
20
-51.2480135357
10
56.9520849172
20
-51.2609652984
10
56.9575422708
20
-51.274095745
10
56.9624945467
20
-51.2874526833
10
56.9669515731
20
-51.3010839212
10
56.9709231782
20
-51.3150372664
10
56.9744191902
20
-51.3293605267
10
56.9774494371
20
-51.34410151
10
56.9800237471
20
-51.359308024
10
56.9821519485
20
-51.3750278766
10
56.9838438692
20
-51.3913088756
10
56.9851093376
20
-51.4081988287
10
56.9859581816
20
-51.4257455438
10
56.9864002296
20
-51.4439968286
10
56.9864453095
20
-51.463000491
10
56.9861032497
20
-51.4828043389
10
56.9853838781
20
-51.5034561799
10
56.984297023
20
-51.5250038219
10
56.9828525126
20
-51.5474950727
10
56.9810601749
20
-51.5709777401
10
56.9789298382
20
-51.5954996319
10
56.9764713305
20
-51.6211085559
10
56.97369448
20
-51.64785232
10
56.9712990929
20
-51.6705671363
10
56.9691117444
20
-51.6921397174
10
56.9671329107
20
-51.7125737334
10
56.9653630678
20
-51.7318728547
10
56.963802692
20
-51.7500407517
10
56.9624522592
20
-51.7670810945
10
56.9613122456
20
-51.7829975535
10
56.9603831273
20
-51.7977937989
10
56.9596653804
20
-51.8114735012
10
56.959159481
20
-51.8240403306
10
56.9588659053
20
-51.8354979573
10
56.9587851293
20
-51.8458500517
10
56.9589176291
20
-51.8551002841
10
56.9592638809
20
-51.8632523247
10
56.9598243608
20
-51.870309844
10
56.9605995448
20
-51.876276512
10
56.9615899091
20
-51.8811559993
10
56.9627959298
20
-51.884951976
10
56.964218083
20
-51.8876681125
10
56.9658568448
20
-51.889308079
10
56.9677126913
20
-51.8898755459
10
56.9697860987
20
-51.8893741835
10
56.972077543
20
-51.887807662
10
56.9745875003
20
-51.8851796517
10
56.9773164468
20
-51.881493823
10
56.9802648585
20
-51.8767538462
10
56.9834332117
20
-51.8709633915
10
56.9868219823
20
-51.8641261292
10
56.9904316464
20
-51.8562457297
10
56.9942626803
20
-51.8473258632
10
56.99831556
20
-51.8373702
10
57.0125428953
20
-51.8039523452
10
57.0270434543
20
-51.7744590531
10
57.0417739603
20
-51.7488302211
10
57.0566911368
20
-51.7270057465
10
57.0717517075
20
-51.7089255267
10
57.0869123958
20
-51.694529459
10
57.1021299251
20
-51.6837574409
10
57.1173610191
20
-51.6765493697
10
57.1325624012
20
-51.6728451429
10
57.147690795
20
-51.6725846576
10
57.1627029238
20
-51.6757078114
10
57.1775555113
20
-51.6821545017
10
57.192205281
20
-51.6918646257
10
57.2066089563
20
-51.7047780808
10
57.2207232607
20
-51.7208347645
10
57.2345049179
20
-51.7399745741
10
57.2479106512
20
-51.762137407
10
57.2608971842
20
-51.7872631605
10
57.2734212404
20
-51.8152917321
10
57.2854395432
20
-51.846163019
10
57.2969088163
20
-51.8798169187
10
57.3077857831
20
-51.9161933285
10
57.3180271671
20
-51.9552321459
10
57.3275896919
20
-51.9968732681
10
57.3364300809
20
-52.0410565926
10
57.3445050576
20
-52.0877220168
10
57.3517713455
20
-52.1368094379
10
57.3581856683
20
-52.1882587534
10
57.3637047492
20
-52.2420098607
10
57.368285312
20
-52.2980026571
10
57.37188408
20
-52.35617704
10
57.3738209319
20
-52.4061520711
10
57.3744587669
20
-52.4569730737
10
57.3737997673
20
-52.5086322553
10
57.3718461153
20
-52.5611218232
10
57.368599993
20
-52.6144339849
10
57.3640635828
20
-52.6685609478
10
57.3582390668
20
-52.7234949192
10
57.3511286272
20
-52.7792281066
10
57.3427344463
20
-52.8357527173
10
57.3330587063
20
-52.8930609588
10
57.3221035894
20
-52.9511450384
10
57.3098712778
20
-53.0099971637
10
57.2963639538
20
-53.0696095418
10
57.2815837995
20
-53.1299743804
10
57.2655329972
20
-53.1910838866
10
57.2482137291
20
-53.2529302681
10
57.2296281774
20
-53.3155057321
10
57.2097785244
20
-53.378802486
10
57.1886669522
20
-53.4428127373
10
57.166295643
20
-53.5075286934
10
57.1426667792
20
-53.5729425616
10
57.1177825429
20
-53.6390465493
10
57.0916451163
20
-53.7058328641
10
57.0642566816
20
-53.7732937131
10
57.0356194211
20
-53.8414213039
10
57.005735517
20
-53.9102078439
10
56.9746071516
20
-53.9796455404
10
56.9422365069
20
-54.0497266009
10
56.9086257653
20
-54.1204432327
10
56.8737771089
20
-54.1917876433
10
56.83769272
20
-54.26375204
10
56.8282330714
20
-54.2826303635
10
56.8184747952
20
-54.3025893323
10
56.8084410219
20
-54.3235707202
10
56.7981548823
20
-54.3455163015
10
56.7876395071
20
-54.3683678501
10
56.7769180268
20
-54.3920671401
10
56.7660135721
20
-54.4165559455
10
56.7549492738
20
-54.4417760404
10
56.7437482624
20
-54.4676691987
10
56.7324336687
20
-54.4941771946
10
56.7210286233
20
-54.521241802
10
56.7095562568
20
-54.548804795
10
56.6980397
20
-54.5768079477
10
56.6865020834
20
-54.6051930341
10
56.6749665379
20
-54.6339018282
10
56.6634561939
20
-54.662876104
10
56.6519941822
20
-54.6920576357
10
56.6406036335
20
-54.7213881972
10
56.6293076783
20
-54.7508095626
10
56.6181294475
20
-54.7802635059
10
56.6070920716
20
-54.8096918011
10
56.5962186813
20
-54.8390362224
10
56.5855324072
20
-54.8682385437
10
56.5750563801
20
-54.897240539
10
56.5648137306
20
-54.9259839825
10
56.5548275893
20
-54.9544106481
10
56.5451210869
20
-54.98246231
10
56.5357173542
20
-55.010080742
10
56.5266395217
20
-55.0372077184
10
56.51791072
20
-55.063785013
10
56.50955408
20
-55.0897544
10
56.4778153714
20
-55.1860996551
10
56.4435056366
20
-55.2838505932
10
56.4066998198
20
-55.3828820324
10
56.3674728651
20
-55.4830687911
10
56.3258997167
20
-55.5842856875
10
56.2820553186
20
-55.68640754
10
56.2360146151
20
-55.7893091669
10
56.1878525503
20
-55.8928653864
10
56.1376440683
20
-55.9969510169
10
56.0854641132
20
-56.1014408766
10
56.0313876291
20
-56.2062097838
10
55.9754895603
20
-56.3111325569
10
55.9178448508
20
-56.4160840141
10
55.8585284447
20
-56.5209389736
10
55.7976152863
20
-56.6255722539
10
55.7351803196
20
-56.7298586731
10
55.6712984888
20
-56.8336730497
10
55.606044738
20
-56.9368902018
10
55.5394940114
20
-57.0393849478
10
55.471721253
20
-57.1410321059
10
55.4028014071
20
-57.2417064945
10
55.3328094177
20
-57.3412829319
10
55.2618202289
20
-57.4396362363
10
55.189908785
20
-57.536641226
10
55.1171500301
20
-57.6321727194
10
55.0436189082
20
-57.7261055346
10
54.9693903636
20
-57.8183144901
10
54.8945393403
20
-57.9086744041
10
54.8191407825
20
-57.9970600949
10
54.7432696344
20
-58.0833463807
10
54.66700084
20
-58.16740808
10
54.6381543176
20
-58.1977277865
10
54.6061070285
20
-58.2296358987
10
54.5710571571
20
-58.2629927975
10
54.5332028881
20
-58.2976588636
10
54.4927424062
20
-58.3334944779
10
54.4498738959
20
-58.370360021
10
54.4047955419
20
-58.4081158737
10
54.3577055288
20
-58.446622417
10
54.3088020411
20
-58.4857400315
10
54.2582832636
20
-58.525329098
10
54.2063473807
20
-58.5652499973
10
54.1531925772
20
-58.6053631102
10
54.0990170376
20
-58.6455288175
10
54.0440189466
20
-58.6856074999
10
53.9883964888
20
-58.7254595383
10
53.9323478487
20
-58.7649453134
10
53.8760712111
20
-58.8039252061
10
53.8197647605
20
-58.842259597
10
53.7636266814
20
-58.879808867
10
53.7078551587
20
-58.9164333968
10
53.6526483768
20
-58.9519935673
10
53.5982045203
20
-58.9863497592
10
53.544721774
20
-59.0193623534
10
53.4923983224
20
-59.0508917305
10
53.44143235
20
-59.0807982714
10
53.3920220416
20
-59.1089423569
10
53.3443655818
20
-59.1351843677
10
53.298661155
20
-59.1593846846
10
53.2551069461
20
-59.1814036884
10
53.2139011396
20
-59.20110176
10
53.17524192
20
-59.21833928
10
53.1050415581
20
-59.2479665666
10
53.0343784394
20
-59.2769963072
10
52.963210325
20
-59.3054398157
10
52.8914949758
20
-59.3333084062
10
52.8191901528
20
-59.3606133925
10
52.7462536169
20
-59.3873660887
10
52.6726431292
20
-59.4135778088
10
52.5983164506
20
-59.4392598668
10
52.5232313421
20
-59.4644235765
10
52.4473455647
20
-59.4890802521
10
52.3706168793
20
-59.5132412074
10
52.2930030469
20
-59.5369177566
10
52.2144618284
20
-59.5601212134
10
52.134950985
20
-59.582862892
10
52.0544282775
20
-59.6051541063
10
51.9728514669
20
-59.6270061703
10
51.8901783142
20
-59.648430398
10
51.8063665803
20
-59.6694381033
10
51.7213740263
20
-59.6900406003
10
51.6351584131
20
-59.7102492028
10
51.5476775016
20
-59.730075225
10
51.458889053
20
-59.7495299807
10
51.368750828
20
-59.768624784
10
51.2772205878
20
-59.7873709488
10
51.1842560933
20
-59.8057797892
10
51.0898151054
20
-59.823862619
10
50.9938553851
20
-59.8416307523
10
50.8963346935
20
-59.8590955031
10
50.7972107915
20
-59.8762681853
10
50.69644144
20
-59.893160113
10
50.5939844
20
-59.9097826
10
50.5556859712
20
-59.9144307969
10
50.499027586
20
-59.9192016068
10
50.4253298105
20
-59.92406772
10
50.3359132108
20
-59.9290018266
10
50.232098353
20
-59.9339766168
10
50.1152058031
20
-59.9389647809
10
49.9865561272
20
-59.9439390091
10
49.8474698914
20
-59.9488719916
10
49.6992676618
20
-59.9537364185
10
49.5432700045
20
-59.9585049801
10
49.3807974855
20
-59.9631503666
10
49.2131706709
20
-59.9676452682
10
49.0417101268
20
-59.9719623751
10
48.8677364193
20
-59.9760743775
10
48.6925701145
20
-59.9799539656
10
48.5175317784
20
-59.9835738296
10
48.3439419772
20
-59.9869066598
10
48.1731212768
20
-59.9899251463
10
48.0063902434
20
-59.9926019793
10
47.8450694431
20
-59.994909849
10
47.6904794419
20
-59.9968214457
10
47.5439408059
20
-59.9983094596
10
47.4067741012
20
-59.9993465808
10
47.2802998939
20
-59.9999054996
10
47.16583875
20
-59.9999589061
10
47.0647112357
20
-59.9994794906
10
46.978237917
20
-59.9984399433
10
46.90773936
20
-59.9968129544
10
46.8545361308
20
-59.9945712141
10
46.8199487954
20
-59.9916874125
10
46.80529792
20
-59.98813424
10
46.80529792
20
-59.98813424
10
46.80529792
20
-59.98813424
10
46.802935115
20
-59.9865364232
10
46.7992325834
20
-59.9848338086
10
46.7942275937
20
-59.9830316562
10
46.7879574147
20
-59.9811352259
10
46.780459315
20
-59.9791497778
10
46.7717705633
20
-59.9770805719
10
46.7619284283
20
-59.9749328683
10
46.7509701787
20
-59.9727119269
10
46.7389330832
20
-59.9704230077
10
46.7258544103
20
-59.9680713708
10
46.7117714289
20
-59.9656622762
10
46.6967214075
20
-59.9632009838
10
46.6807416149
20
-59.9606927538
10
46.6638693198
20
-59.958142846
10
46.6461417908
20
-59.9555565206
10
46.6275962965
20
-59.9529390375
10
46.6082701058
20
-59.9502956568
10
46.5882004872
20
-59.9476316384
10
46.5674247094
20
-59.9449522424
10
46.5459800411
20
-59.9422627287
10
46.5239037511
20
-59.9395683575
10
46.5012331078
20
-59.9368743887
10
46.4780053802
20
-59.9341860823
10
46.4542578368
20
-59.9315086984
10
46.4300277462
20
-59.9288474969
10
46.4053523773
20
-59.9262077378
10
46.3802689986
20
-59.9235946813
10
46.3548148788
20
-59.9210135872
10
46.3290272867
20
-59.9184697156
10
46.3029434909
20
-59.9159683265
10
46.27660076
20
-59.91351468
10
46.1593267347
20
-59.9016282063
10
46.0417523318
20
-59.887474923
10
45.9239364182
20
-59.8710770124
10
45.8059378608
20
-59.8524566569
10
45.6878155265
20
-59.8316360388
10
45.5696282824
20
-59.8086373403
10
45.4514349952
20
-59.7834827439
10
45.333294532
20
-59.7561944317
10
45.2152657596
20
-59.7267945862
10
45.0974075449
20
-59.6953053896
10
44.979778755
20
-59.6617490242
10
44.8624382566
20
-59.6261476724
10
44.7454449168
20
-59.5885235165
10
44.6288576024
20
-59.5488987387
10
44.5127351804
20
-59.5072955215
10
44.3971365177
20
-59.463736047
10
44.2821204813
20
-59.4182424977
10
44.1677459379
20
-59.3708370558
10
44.0540717547
20
-59.3215419037
10
43.9411567984
20
-59.2703792236
10
43.829059936
20
-59.2173711979
10
43.7178400344
20
-59.1625400088
10
43.6075559606
20
-59.1059078388
10
43.4982665815
20
-59.0474968701
10
43.390030764
20
-58.987329285
10
43.282907375
20
-58.9254272658
10
43.1769552814
20
-58.8618129949
10
43.0722333502
20
-58.7965086546
10
42.9688004483
20
-58.7295364271
10
42.8667154426
20
-58.6609184948
10
42.7660372
20
-58.59067704
10
42.7172625727
20
-58.5556608645
10
42.6703529249
20
-58.521248335
10
42.6252373156
20
-58.4873509067
10
42.581844804
20
-58.4538800348
10
42.5401044495
20
-58.4207471742
10
42.4999453111
20
-58.3878637802
10
42.4612964481
20
-58.3551413078
10
42.4240869197
20
-58.3224912122
10
42.3882457851
20
-58.2898249485
10
42.3537021035
20
-58.2570539718
10
42.320384934
20
-58.2240897371
10
42.288223336
20
-58.1908436997
10
42.2571463686
20
-58.1572273146
10
42.227083091
20
-58.123152037
10
42.1979625624
20
-58.0885293219
10
42.169713842
20
-58.0532706244
10
42.1422659891
20
-58.0172873998
10
42.1155480627
20
-57.980491103
10
42.0894891222
20
-57.9427931893
10
42.0640182267
20
-57.9041051136
10
42.0390644354
20
-57.8643383312
10
42.0145568076
20
-57.8234042972
10
41.9904244024
20
-57.7812144666
10
41.966596279
20
-57.7376802946
10
41.9430014967
20
-57.6927132362
10
41.9195691146
20
-57.6462247467
10
41.896228192
20
-57.5981262811
10
41.872907788
20
-57.5483292945
10
41.8495369619
20
-57.496745242
10
41.8260447728
20
-57.4432855788
10
41.80236028
20
-57.38786176
10
41.7860788922
20
-57.3490251184
10
41.7707744424
20
-57.3119199567
10
41.756416726
20
-57.2763074968
10
41.7429755381
20
-57.2419489607
10
41.730420674
20
-57.2086055704
10
41.7187219288
20
-57.1760385479
10
41.7078490978
20
-57.144009115
10
41.6977719761
20
-57.1122784939
10
41.6884603591
20
-57.0806079064
10
41.6798840419
20
-57.0487585745
10
41.6720128197
20
-57.0164917202
10
41.6648164878
20
-56.9835685654
10
41.6582648413
20
-56.9497503322
10
41.6523276755
20
-56.9147982425
10
41.6469747855
20
-56.8784735182
10
41.6421759667
20
-56.8405373814
10
41.6379010141
20
-56.800751054
10
41.6341197231
20
-56.7588757579
10
41.6308018888
20
-56.7146727152
10
41.6279173064
20
-56.6679031478
10
41.6254357712
20
-56.6183282777
10
41.6233270784
20
-56.5657093268
10
41.6215610232
20
-56.5098075171
10
41.6201074007
20
-56.4503840707
10
41.6189360063
20
-56.3872002094
10
41.6180166351
20
-56.3200171552
10
41.6173190824
20
-56.2485961301
10
41.6168131433
20
-56.172698356
10
41.616468613
20
-56.092085055
10
41.6162552869
20
-56.006517449
10
41.61614296
20
-55.91575676
10
41.6161761137
20
-55.8405444282
10
41.6163978187
20
-55.7680829137
10
41.6168154473
20
-55.6982847745
10
41.6174363719
20
-55.6310625687
0
ENDSEC
0
SECTION
2
OBJECTS
0
DICTIONARY
5
C
330
0
100
AcDbDictionary
281
1
3
ACAD_GROUP
350
D
0
DICTIONARY
5
D
330
C
100
AcDbDictionary
281
1
0
ENDSEC
0
EOF
