  0
SECTION
  2
HEADER
  9
$ACADVER
  1
AC1021
  9
$ACADMAINTVER
 70
    25
  9
$DWGCODEPAGE
  3
ANSI_1252
  9
$LASTSAVEDBY
  1
Jay
  9
$INSBASE
 10
0.0
 20
0.0
 30
0.0
  9
$EXTMIN
 10
-50.0
 20
-27.5
 30
0.0
  9
$EXTMAX
 10
50.0
 20
27.5
 30
0.0
  9
$LIMMIN
 10
0.0
 20
0.0
  9
$LIMMAX
 10
420.0
 20
297.0
  9
$ORTHOMODE
 70
     0
  9
$REGENMODE
 70
     1
  9
$FILLMODE
 70
     1
  9
$QTEXTMODE
 70
     0
  9
$MIRRTEXT
 70
     1
  9
$LTSCALE
 40
1.0
  9
$ATTMODE
 70
     1
  9
$TEXTSIZE
 40
3.5
  9
$TRACEWID
 40
1.0
  9
$TEXTSTYLE
  7
Standard
  9
$CLAYER
  8
0
  9
$CELTYPE
  6
ByLayer
  9
$CECOLOR
 62
   256
  9
$CELTSCALE
 40
1.0
  9
$DISPSILH
 70
     0
  9
$DIMSCALE
 40
1.0
  9
$DIMASZ
 40
3.302
  9
$DIMEXO
 40
1.0
  9
$DIMDLI
 40
3.75
  9
$DIMRND
 40
0.0
  9
$DIMDLE
 40
0.0
  9
$DIMEXE
 40
1.0
  9
$DIMTP
 40
0.0
  9
$DIMTM
 40
0.0
  9
$DIMTXT
 40
3.5
  9
$DIMCEN
 40
2.5
  9
$DIMTSZ
 40
0.0
  9
$DIMTOL
 70
     0
  9
$DIMLIM
 70
     0
  9
$DIMTIH
 70
     1
  9
$DIMTOH
 70
     1
  9
$DIMSE1
 70
     0
  9
$DIMSE2
 70
     0
  9
$DIMTAD
 70
     1
  9
$DIMZIN
 70
     0
  9
$DIMBLK
  1

  9
$DIMASO
 70
     1
  9
$DIMSHO
 70
     1
  9
$DIMPOST
  1

  9
$DIMAPOST
  1

  9
$DIMALT
 70
     0
  9
$DIMALTD
 70
     3
  9
$DIMALTF
 40
0.0393700787
  9
$DIMLFAC
 40
1.0
  9
$DIMTOFL
 70
     1
  9
$DIMTVP
 40
0.0
  9
$DIMTIX
 70
     0
  9
$DIMSOXD
 70
     0
  9
$DIMSAH
 70
     0
  9
$DIMBLK1
  1

  9
$DIMBLK2
  1

  9
$DIMSTYLE
  2
ISO-25
  9
$DIMCLRD
 70
     0
  9
$DIMCLRE
 70
     0
  9
$DIMCLRT
 70
     0
  9
$DIMTFAC
 40
1.0
  9
$DIMGAP
 40
1.524
  9
$DIMJUST
 70
     0
  9
$DIMSD1
 70
     0
  9
$DIMSD2
 70
     0
  9
$DIMTOLJ
 70
     0
  9
$DIMTZIN
 70
     0
  9
$DIMALTZ
 70
     0
  9
$DIMALTTZ
 70
     0
  9
$DIMUPT
 70
     0
  9
$DIMDEC
 70
     2
  9
$DIMTDEC
 70
     2
  9
$DIMALTU
 70
     2
  9
$DIMALTTD
 70
     3
  9
$DIMTXSTY
  7
Standard
  9
$DIMAUNIT
 70
     0
  9
$DIMADEC
 70
     2
  9
$DIMALTRND
 40
0.0
  9
$DIMAZIN
 70
     0
  9
$DIMDSEP
 70
    44
  9
$DIMATFIT
 70
     3
  9
$DIMFRAC
 70
     0
  9
$DIMLDRBLK
  1

  9
$DIMLUNIT
 70
     2
  9
$DIMLWD
 70
    -2
  9
$DIMLWE
 70
    -2
  9
$DIMTMOVE
 70
     0
  9
$DIMFXL
 40
1.0
  9
$DIMFXLON
 70
     0
  9
$DIMJOGANG
 40
0.7853981633974483
  9
$DIMTFILL
 70
     0
  9
$DIMTFILLCLR
 70
     0
  9
$DIMARCSYM
 70
     0
  9
$DIMLTYPE
  6

  9
$DIMLTEX1
  6

  9
$DIMLTEX2
  6

  9
$LUNITS
 70
     2
  9
$LUPREC
 70
     2
  9
$SKETCHINC
 40
1.0
  9
$FILLETRAD
 40
10.0
  9
$AUNITS
 70
     0
  9
$AUPREC
 70
     2
  9
$MENU
  1
.
  9
$ELEVATION
 40
0.0
  9
$PELEVATION
 40
0.0
  9
$THICKNESS
 40
0.0
  9
$LIMCHECK
 70
     0
  9
$CHAMFERA
 40
0.0
  9
$CHAMFERB
 40
0.0
  9
$CHAMFERC
 40
0.0
  9
$CHAMFERD
 40
0.0
  9
$SKPOLY
 70
     0
  9
$TDCREATE
 40
2456774.031639467
  9
$TDUCREATE
 40
2456773.989972801
  9
$TDUPDATE
 40
2456774.032961875
  9
$TDUUPDATE
 40
2456773.991295208
  9
$TDINDWG
 40
0.0011853819
  9
$TDUSRTIMER
 40
2456773.990109884
  9
$USRTIMER
 70
     1
  9
$ANGBASE
 50
0.0
  9
$ANGDIR
 70
     0
  9
$PDMODE
 70
     0
  9
$PDSIZE
 40
-1.0
  9
$PLINEWID
 40
0.0
  9
$SPLFRAME
 70
     0
  9
$SPLINETYPE
 70
     6
  9
$SPLINESEGS
 70
     8
  9
$HANDSEED
  5
E8
  9
$SURFTAB1
 70
     6
  9
$SURFTAB2
 70
     6
  9
$SURFTYPE
 70
     6
  9
$SURFU
 70
     6
  9
$SURFV
 70
     6
  9
$UCSBASE
  2

  9
$UCSNAME
  2

  9
$UCSORG
 10
0.0
 20
0.0
 30
0.0
  9
$UCSXDIR
 10
1.0
 20
0.0
 30
0.0
  9
$UCSYDIR
 10
0.0
 20
1.0
 30
0.0
  9
$UCSORTHOREF
  2

  9
$UCSORTHOVIEW
 70
     0
  9
$UCSORGTOP
 10
0.0
 20
0.0
 30
0.0
  9
$UCSORGBOTTOM
 10
0.0
 20
0.0
 30
0.0
  9
$UCSORGLEFT
 10
0.0
 20
0.0
 30
0.0
  9
$UCSORGRIGHT
 10
0.0
 20
0.0
 30
0.0
  9
$UCSORGFRONT
 10
0.0
 20
0.0
 30
0.0
  9
$UCSORGBACK
 10
0.0
 20
0.0
 30
0.0
  9
$PUCSBASE
  2

  9
$PUCSNAME
  2

  9
$PUCSORG
 10
0.0
 20
0.0
 30
0.0
  9
$PUCSXDIR
 10
1.0
 20
0.0
 30
0.0
  9
$PUCSYDIR
 10
0.0
 20
1.0
 30
0.0
  9
$PUCSORTHOREF
  2

  9
$PUCSORTHOVIEW
 70
     0
  9
$PUCSORGTOP
 10
0.0
 20
0.0
 30
0.0
  9
$PUCSORGBOTTOM
 10
0.0
 20
0.0
 30
0.0
  9
$PUCSORGLEFT
 10
0.0
 20
0.0
 30
0.0
  9
$PUCSORGRIGHT
 10
0.0
 20
0.0
 30
0.0
  9
$PUCSORGFRONT
 10
0.0
 20
0.0
 30
0.0
  9
$PUCSORGBACK
 10
0.0
 20
0.0
 30
0.0
  9
$USERI1
 70
     0
  9
$USERI2
 70
     0
  9
$USERI3
 70
     0
  9
$USERI4
 70
     0
  9
$USERI5
 70
     0
  9
$USERR1
 40
0.0
  9
$USERR2
 40
0.0
  9
$USERR3
 40
0.0
  9
$USERR4
 40
0.0
  9
$USERR5
 40
0.0
  9
$WORLDVIEW
 70
     1
  9
$SHADEDGE
 70
     3
  9
$SHADEDIF
 70
    70
  9
$TILEMODE
 70
     1
  9
$MAXACTVP
 70
    64
  9
$PINSBASE
 10
0.0
 20
0.0
 30
0.0
  9
$PLIMCHECK
 70
     0
  9
$PEXTMIN
 10
1.000000000000000E+20
 20
1.000000000000000E+20
 30
1.000000000000000E+20
  9
$PEXTMAX
 10
-1.000000000000000E+20
 20
-1.000000000000000E+20
 30
-1.000000000000000E+20
  9
$PLIMMIN
 10
0.0
 20
0.0
  9
$PLIMMAX
 10
0.0
 20
0.0
  9
$UNITMODE
 70
     0
  9
$VISRETAIN
 70
     1
  9
$PLINEGEN
 70
     0
  9
$PSLTSCALE
 70
     1
  9
$TREEDEPTH
 70
  3020
  9
$CMLSTYLE
  2
Standard
  9
$CMLJUST
 70
     0
  9
$CMLSCALE
 40
20.0
  9
$PROXYGRAPHICS
 70
     1
  9
$MEASUREMENT
 70
     1
  9
$CELWEIGHT
370
    -1
  9
$ENDCAPS
280
     0
  9
$JOINSTYLE
280
     0
  9
$LWDISPLAY
290
     1
  9
$INSUNITS
 70
     4
  9
$HYPERLINKBASE
  1

  9
$STYLESHEET
  1

  9
$XEDIT
290
     1
  9
$CEPSNTYPE
380
     0
  9
$PSTYLEMODE
290
     1
  9
$FINGERPRINTGUID
  2
{83D0AEAA-CD48-4F94-A3EF-36B206C99E2E}
  9
$VERSIONGUID
  2
{FAEB1C32-E019-11D5-929B-00C0DF256EC4}
  9
$EXTNAMES
290
     1
  9
$PSVPSCALE
 40
0.0
  9
$OLESTARTUP
290
     0
  9
$SORTENTS
280
   127
  9
$INDEXCTL
280
     0
  9
$HIDETEXT
280
     1
  9
$XCLIPFRAME
290
     0
  9
$HALOGAP
280
     0
  9
$OBSCOLOR
 70
   257
  9
$OBSLTYPE
280
     0
  9
$INTERSECTIONDISPLAY
280
     0
  9
$INTERSECTIONCOLOR
 70
   257
  9
$DIMASSOC
280
     2
  9
$PROJECTNAME
  1

  9
$CAMERADISPLAY
290
     0
  9
$LENSLENGTH
 40
50.0
  9
$CAMERAHEIGHT
 40
0.0
  9
$STEPSPERSEC
 40
2.0
  9
$STEPSIZE
 40
6.0
  9
$3DDWFPREC
 40
2.0
  9
$PSOLWIDTH
 40
0.25
  9
$PSOLHEIGHT
 40
4.0
  9
$LOFTANG1
 40
1.570796326794897
  9
$LOFTANG2
 40
1.570796326794897
  9
$LOFTMAG1
 40
0.0
  9
$LOFTMAG2
 40
0.0
  9
$LOFTPARAM
 70
     7
  9
$LOFTNORMALS
280
     1
  9
$LATITUDE
 40
37.795
  9
$LONGITUDE
 40
-122.394
  9
$NORTHDIRECTION
 40
0.0
  9
$TIMEZONE
 70
 -8000
  9
$LIGHTGLYPHDISPLAY
280
     1
  9
$TILEMODELIGHTSYNCH
280
     1
  9
$SOLIDHIST
280
     1
  9
$SHOWHIST
280
     1
  9
$DWFFRAME
280
     2
  9
$DGNFRAME
280
     2
  9
$REALWORLDSCALE
290
     1
  9
$INTERFERECOLOR
 62
   256
  9
$CSHADOW
280
     0
  9
$SHADOWPLANELOCATION
 40
0.0
  0
ENDSEC
  0
SECTION
  2
CLASSES
  0
CLASS
  1
ACDBDICTIONARYWDFLT
  2
AcDbDictionaryWithDefault
  3
ObjectDBX Classes
 90
        0
 91
        7
280
     0
281
     0
  0
CLASS
  1
VISUALSTYLE
  2
AcDbVisualStyle
  3
ObjectDBX Classes
 90
     4095
 91
        7
280
     0
281
     0
  0
CLASS
  1
MATERIAL
  2
AcDbMaterial
  3
ObjectDBX Classes
 90
     1153
 91
        7
280
     0
281
     0
  0
CLASS
  1
SCALE
  2
AcDbScale
  3
ObjectDBX Classes
 90
     1153
 91
        7
280
     0
281
     0
  0
CLASS
  1
SUN
  2
AcDbSun
  3
SCENEOE
 90
     1153
 91
        7
280
     0
281
     0
  0
CLASS
  1
ACDBPLACEHOLDER
  2
AcDbPlaceHolder
  3
ObjectDBX Classes
 90
        0
 91
        1
280
     0
281
     0
  0
CLASS
  1
LAYOUT
  2
AcDbLayout
  3
ObjectDBX Classes
 90
        0
 91
        1
280
     0
281
     0
  0
CLASS
  1
TABLESTYLE
  2
AcDbTableStyle
  3
ObjectDBX Classes
 90
     4095
 91
        7
280
     0
281
     0
  0
CLASS
  1
RASTERVARIABLES
  2
AcDbRasterVariables
  3
ISM
 90
        0
 91
        7
280
     0
281
     0
  0
CLASS
  1
DICTIONARYVAR
  2
AcDbDictionaryVar
  3
ObjectDBX Classes
 90
        0
 91
        5
280
     0
281
     0
  0
CLASS
  1
CELLSTYLEMAP
  2
AcDbCellStyleMap
  3
ObjectDBX Classes
 90
     1152
 91
        5
280
     0
281
     0
  0
ENDSEC
  0
SECTION
  2
TABLES
  0
TABLE
  2
VPORT
  5
8
330
0
100
AcDbSymbolTable
 70
     1
  0
VPORT
  5
29
330
8
100
AcDbSymbolTableRecord
100
AcDbViewportTableRecord
  2
*Active
 70
     0
 10
0.0
 20
0.0
 11
1.0
 21
1.0
 12
25.25827232766346
 22
-18.11250080308364
 13
0.0
 23
0.0
 14
10.0
 24
10.0
 15
10.0
 25
10.0
 16
0.0
 26
0.0
 36
1.0
 17
0.0
 27
0.0
 37
0.0
 40
109.5703125
 41
1.990184049079754
 42
50.0
 43
0.0
 44
0.0
 50
0.0
 51
0.0
 71
    16
 72
   100
 73
     1
 74
     3
 75
     0
 76
     0
 77
     0
 78
     0
281
     0
 65
     1
110
0.0
120
0.0
130
0.0
111
1.0
121
0.0
131
0.0
112
0.0
122
1.0
132
0.0
 79
     0
146
0.0
348
B9
 60
     3
 61
     5
292
     1
282
     1
141
0.0
142
0.0
 63
   250
361
D4
  0
ENDTAB
  0
TABLE
  2
LTYPE
  5
5
330
0
100
AcDbSymbolTable
 70
     6
  0
LTYPE
  5
14
330
5
100
AcDbSymbolTableRecord
100
AcDbLinetypeTableRecord
  2
ByBlock
 70
     0
  3

 72
    65
 73
     0
 40
0.0
  0
LTYPE
  5
15
330
5
100
AcDbSymbolTableRecord
100
AcDbLinetypeTableRecord
  2
ByLayer
 70
     0
  3

 72
    65
 73
     0
 40
0.0
  0
LTYPE
  5
16
330
5
100
AcDbSymbolTableRecord
100
AcDbLinetypeTableRecord
  2
Continuous
 70
     0
  3
Solid line
 72
    65
 73
     0
 40
0.0
  0
LTYPE
  5
6A
330
5
100
AcDbSymbolTableRecord
100
AcDbLinetypeTableRecord
  2
HIDDEN
 70
     0
  3
Hidden __ __ __ __ __ __ __ __ __ __ __ __ __ __
 72
    65
 73
     2
 40
1.905
 49
1.27
 74
     0
 49
-0.635
 74
     0
  0
LTYPE
  5
6B
330
5
100
AcDbSymbolTableRecord
100
AcDbLinetypeTableRecord
  2
PHANTOM
 70
     0
  3
Phantom ______  __  __  ______  __  __  ______
 72
    65
 73
     6
 40
12.7
 49
6.35
 74
     0
 49
-1.27
 74
     0
 49
1.27
 74
     0
 49
-1.27
 74
     0
 49
1.27
 74
     0
 49
-1.27
 74
     0
  0
LTYPE
  5
6C
330
5
100
AcDbSymbolTableRecord
100
AcDbLinetypeTableRecord
  2
CENTER
 70
     0
  3
Center ____ _ ____ _ ____ _ ____ _ ____ _ ____
 72
    65
 73
     4
 40
10.16
 49
6.35
 74
     0
 49
-1.27
 74
     0
 49
1.27
 74
     0
 49
-1.27
 74
     0
  0
LTYPE
  5
6D
330
5
100
AcDbSymbolTableRecord
100
AcDbLinetypeTableRecord
  2
CENTERX2
 70
     0
  3
Center (2x) ________  __  ________  __  _____
 72
    65
 73
     4
 40
20.32
 49
12.7
 74
     0
 49
-2.54
 74
     0
 49
2.54
 74
     0
 49
-2.54
 74
     0
  0
LTYPE
  5
6E
330
5
100
AcDbSymbolTableRecord
100
AcDbLinetypeTableRecord
  2
DOT2
 70
     0
  3
Dot (.5x) ........................................
 72
    65
 73
     2
 40
0.635
 49
0.0
 74
     0
 49
-0.635
 74
     0
  0
ENDTAB
  0
TABLE
  2
LAYER
  5
2
330
0
100
AcDbSymbolTable
 70
     1
  0
LAYER
  5
10
330
2
100
AcDbSymbolTableRecord
100
AcDbLayerTableRecord
  2
0
 70
     0
 62
     7
  6
Continuous
370
    -3
390
F
347
D0
  0
ENDTAB
  0
TABLE
  2
STYLE
  5
3
330
0
100
AcDbSymbolTable
 70
     1
  0
STYLE
  5
11
330
3
100
AcDbSymbolTableRecord
100
AcDbTextStyleTableRecord
  2
Standard
 70
     0
 40
0.0
 41
1.0
 50
0.0
 71
     0
 42
3.5
  3
txt
  4

  0
ENDTAB
  0
TABLE
  2
VIEW
  5
6
330
0
100
AcDbSymbolTable
 70
     0
  0
ENDTAB
  0
TABLE
  2
UCS
  5
7
330
0
100
AcDbSymbolTable
 70
     0
  0
ENDTAB
  0
TABLE
  2
APPID
  5
9
330
0
100
AcDbSymbolTable
 70
     1
  0
APPID
  5
12
330
9
100
AcDbSymbolTableRecord
100
AcDbRegAppTableRecord
  2
ACAD
 70
     0
  0
ENDTAB
  0
TABLE
  2
DIMSTYLE
  5
A
330
0
100
AcDbSymbolTable
 70
     1
100
AcDbDimStyleTable
  0
DIMSTYLE
105
27
330
A
100
AcDbSymbolTableRecord
100
AcDbDimStyleTableRecord
  2
ISO-25
 70
     0
 41
2.5
 42
0.625
 43
3.75
 44
1.25
 73
     0
 74
     0
 77
     1
 78
     8
140
2.5
141
2.5
143
0.0393700787
147
0.625
171
     3
172
     1
178
     0
271
     2
272
     2
274
     3
278
    44
283
     0
284
     8
340
11
  0
ENDTAB
  0
TABLE
  2
BLOCK_RECORD
  5
1
330
0
100
AcDbSymbolTable
 70
     1
  0
BLOCK_RECORD
  5
1F
330
1
100
AcDbSymbolTableRecord
100
AcDbBlockTableRecord
  2
*Model_Space
340
22
 70
     0
280
     1
281
     0
  0
BLOCK_RECORD
  5
1B
330
1
100
AcDbSymbolTableRecord
100
AcDbBlockTableRecord
  2
*Paper_Space
340
1E
 70
     0
280
     1
281
     0
  0
BLOCK_RECORD
  5
23
330
1
100
AcDbSymbolTableRecord
100
AcDbBlockTableRecord
  2
*Paper_Space0
340
26
 70
     0
280
     1
281
     0
  0
ENDTAB
  0
ENDSEC
  0
SECTION
  2
BLOCKS
  0
BLOCK
  5
20
330
1F
100
AcDbEntity
  8
0
100
AcDbBlockBegin
  2
*Model_Space
 70
     0
 10
0.0
 20
0.0
 30
0.0
  3
*Model_Space
  1
*Model_Space
  0
ENDBLK
  5
21
330
1F
100
AcDbEntity
  8
0
100
AcDbBlockEnd
  0
BLOCK
  5
1C
330
1B
100
AcDbEntity
 67
     1
  8
0
100
AcDbBlockBegin
  2
*Paper_Space
 70
     0
 10
0.0
 20
0.0
 30
0.0
  3
*Paper_Space
  1
*Paper_Space
  0
ENDBLK
  5
1D
330
1B
100
AcDbEntity
 67
     1
  8
0
100
AcDbBlockEnd
  0
BLOCK
  5
24
330
23
100
AcDbEntity
  8
0
100
AcDbBlockBegin
  2
*Paper_Space0
 70
     0
 10
0.0
 20
0.0
 30
0.0
  3
*Paper_Space0
  1
*Paper_Space0
  0
ENDBLK
  5
25
330
23
100
AcDbEntity
  8
0
100
AcDbBlockEnd
  0
ENDSEC
  0
SECTION
  2
ENTITIES
  0
ARC
  5
6F
330
1F
100
AcDbEntity
  8
0
  6
Continuous
 62
     7
100
AcDbCircle
 10
-42.5
 20
-20.0
 30
0.0
 40
7.5
100
AcDbArc
 50
180.0
 51
270.0
  0
ARC
  5
70
330
1F
100
AcDbEntity
  8
0
  6
Continuous
 62
     7
100
AcDbCircle
 10
42.5
 20
-20.0
 30
0.0
 40
7.5
100
AcDbArc
 50
270.0
 51
0.0
  0
ARC
  5
71
330
1F
100
AcDbEntity
  8
0
  6
Continuous
 62
     7
100
AcDbCircle
 10
42.5
 20
20.0
 30
0.0
 40
7.5
100
AcDbArc
 50
0.0
 51
90.0
  0
ARC
  5
72
330
1F
100
AcDbEntity
  8
0
  6
Continuous
 62
     7
100
AcDbCircle
 10
-42.5
 20
20.0
 30
0.0
 40
7.5
100
AcDbArc
 50
90.0
 51
180.0
  0
ARC
  5
73
330
1F
100
AcDbEntity
  8
0
  6
Continuous
 62
     7
100
AcDbCircle
 10
-4.5
 20
20.75
 30
0.0
 40
2.0
100
AcDbArc
 50
90.0
 51
270.0
  0
ARC
  5
74
330
1F
100
AcDbEntity
  8
0
  6
Continuous
 62
     7
100
AcDbCircle
 10
4.5
 20
20.75
 30
0.0
 40
2.0
100
AcDbArc
 50
270.0
 51
90.0
  0
LINE
  5
76
330
1F
100
AcDbEntity
  8
0
  6
Continuous
 62
     7
100
AcDbLine
 10
-42.5
 20
-27.5
 30
0.0
 11
42.5
 21
-27.5
 31
0.0
  0
LINE
  5
77
330
1F
100
AcDbEntity
  8
0
  6
Continuous
 62
     7
100
AcDbLine
 10
-50.0
 20
-20.0
 30
0.0
 11
-50.0
 21
20.0
 31
0.0
  0
LINE
  5
78
330
1F
100
AcDbEntity
  8
0
  6
Continuous
 62
     7
100
AcDbLine
 10
-42.5
 20
27.5
 30
0.0
 11
42.5
 21
27.5
 31
0.0
  0
LINE
  5
79
330
1F
100
AcDbEntity
  8
0
  6
Continuous
 62
     7
100
AcDbLine
 10
50.0
 20
-20.0
 30
0.0
 11
50.0
 21
20.0
 31
0.0
  0
LINE
  5
7A
330
1F
100
AcDbEntity
  8
0
  6
Continuous
 62
     7
100
AcDbLine
 10
-4.5
 20
22.75
 30
0.0
 11
4.5
 21
22.75
 31
0.0
  0
LINE
  5
7B
330
1F
100
AcDbEntity
  8
0
  6
Continuous
 62
     7
100
AcDbLine
 10
-4.5
 20
18.75
 30
0.0
 11
4.5
 21
18.75
 31
0.0
  0
LWPOLYLINE
  5
7C
330
1F
100
AcDbEntity
  8
0
  6
Continuous
 62
     7
100
AcDbPolyline
 90
       57
 70
   128
 43
0.0
 10
-17.4436718225
 20
-13.0
 10
-17.4436763675
 20
0.0
 10
-17.4436763675
 20
0.0
 10
-14.8186763675
 20
0.0
 10
-14.8186763675
 20
0.0
 10
-14.1337805342
 20
-0.0078125
 10
-13.4957597009
 20
-0.0286458333
 10
-12.9072180342
 20
-0.0651041667
 10
-12.3655513675
 20
-0.1171875
 10
-11.8759680342
 20
-0.1822916667
 10
-11.4332597009
 20
-0.2630208333
 10
-11.0400305342
 20
-0.359375
 10
-10.6936763675
 20
-0.46875
 10
-10.6936763675
 20
-0.46875
 10
-10.2457597009
 20
-0.6484375
 10
-9.8238847009
 20
-0.859375
 10
-9.4254472009
 20
-1.1015625
 10
-9.0530513675
 20
-1.3723958333
 10
-8.7066972009
 20
-1.6770833333
 10
-8.3837805342
 20
-2.0078125
 10
-8.0869055342
 20
-2.3723958333
 10
-7.8160722009
 20
-2.765625
 10
-7.5712805342
 20
-3.1848958333
 10
-7.3603430342
 20
-3.6223958333
 10
-7.1832597009
 20
-4.0807291667
 10
-7.0374263675
 20
-4.5572916667
 10
-6.9228430342
 20
-5.0546875
 10
-6.8421138675
 20
-5.5729166667
 10
-6.7926347009
 20
-6.109375
 10
-6.7770097009
 20
-6.6640625
 10
-6.7770097009
 20
-6.6640625
 10
-6.7900305342
 20
-7.1458333333
 10
-6.8290930342
 20
-7.6119791667
 10
-6.8915930342
 20
-8.0625
 10
-6.9827388675
 20
-8.5
 10
-7.0973222009
 20
-8.921875
 10
-7.2405513675
 20
-9.3307291667
 10
-7.4072180342
 20
-9.7239583333
 10
-7.5999263675
 20
-10.1015625
 10
-7.8134680342
 20
-10.4609375
 10
-8.0400305342
 20
-10.7942708333
 10
-8.2848222009
 20
-11.1067708333
 10
-8.5426347009
 20
-11.390625
 10
-8.8186763675
 20
-11.6536458333
 10
-9.1077388675
 20
-11.890625
 10
-9.4150305342
 20
-12.1041666667
 10
-9.7353430342
 20
-12.2942708333
 10
-10.0790930342
 20
-12.4609375
 10
-10.4566972009
 20
-12.6041666667
 10
-10.8681555342
 20
-12.7239583333
 10
-11.3108638675
 20
-12.8229166667
 10
-11.7874263675
 20
-12.9010416667
 10
-12.2978430342
 20
-12.9557291667
 10
-12.8395097009
 20
-12.9895833333
 10
-13.4150305342
 20
-13.0
 10
-13.4150305342
 20
-13.0
 10
-14.14159303420001
 20
-13.0
  0
LWPOLYLINE
  5
7D
330
1F
100
AcDbEntity
  8
0
  6
Continuous
 62
     7
100
AcDbPolyline
 90
       55
 70
   128
 43
0.0
 10
-14.1415930342
 20
-11.6614583333
 10
-13.5478430342
 20
-11.6458333333
 10
-13.0061763675
 20
-11.6197916667
 10
-12.5165930342
 20
-11.5833333333
 10
-12.0764888675
 20
-11.5364583333
 10
-11.6884680342
 20
-11.4817708333
 10
-11.3525305342
 20
-11.4140625
 10
-11.0686763675
 20
-11.3359375
 10
-11.0686763675
 20
-11.3359375
 10
-10.7145097009
 20
-11.2057291667
 10
-10.3785722009
 20
-11.0546875
 10
-10.0634680342
 20
-10.8776041667
 10
-9.7691972009
 20
-10.6796875
 10
-9.4931555342
 20
-10.4557291667
 10
-9.2353430342
 20
-10.2083333333
 10
-8.9983638675
 20
-9.9401041667
 10
-8.7796138675
 20
-9.6458333333
 10
-8.5843013675
 20
-9.3307291667
 10
-8.4150305342
 20
-9.0
 10
-8.2691972009
 20
-8.6536458333
 10
-8.1520097009
 20
-8.2890625
 10
-8.0608638675
 20
-7.90625
 10
-7.9957597009
 20
-7.5078125
 10
-7.9566972009
 20
-7.09375
 10
-7.9436763675
 20
-6.6614583333
 10
-7.9436763675
 20
-6.6614583333
 10
-7.9566972009
 20
-6.2057291667
 10
-8.0009680342
 20
-5.7682291667
 10
-8.0712805342
 20
-5.3489583333
 10
-8.1702388675
 20
-4.9453125
 10
-8.2978430342
 20
-4.5572916667
 10
-8.4540930342
 20
-4.1875
 10
-8.6363847009
 20
-3.8333333333
 10
-8.8499263675
 20
-3.4973958333
 10
-9.0869055342
 20
-3.1822916667
 10
-9.3473222009
 20
-2.8932291667
 10
-9.6285722009
 20
-2.6302083333
 10
-9.9306555342
 20
-2.390625
 10
-10.2561763675
 20
-2.1796875
 10
-10.6051347009
 20
-1.9921875
 10
-10.9749263675
 20
-1.8333333333
 10
-11.3681555342
 20
-1.6979166667
 10
-11.3681555342
 20
-1.6979166667
 10
-11.6962805342
 20
-1.6119791667
 10
-12.0712805342
 20
-1.5390625
 10
-12.4983638675
 20
-1.4765625
 10
-12.9723222009
 20
-1.4244791667
 10
-13.4957597009
 20
-1.3854166667
 10
-14.0686763675
 20
-1.3567708333
 10
-14.6910722009
 20
-1.3385416667
 10
-15.3629472009
 20
-1.3333333333
 10
-15.3629472009
 20
-1.3333333333
 10
-16.2770097009
 20
-1.3333333333
 10
-16.2770097009
 20
-1.3333333333
 10
-16.2770097009
 20
-11.6666666667
  0
LWPOLYLINE
  5
7E
330
1F
100
AcDbEntity
  8
0
  6
Continuous
 62
     7
100
AcDbPolyline
 90
        8
 70
   128
 43
0.0
 10
1.2229895219
 20
0.0
 10
7.2229902991
 20
-13.0
 10
7.2229902991
 20
-13.0
 10
5.9547611325
 20
-13.0
 10
5.9547611325
 20
-13.0
 10
4.0328861325
 20
-8.8333333333
 10
4.0328861325
 20
-8.8333333333
 10
2.253608998974049
 20
-8.8333333333
  0
LWPOLYLINE
  5
7F
330
1F
100
AcDbEntity
  8
0
  6
Continuous
 62
     7
100
AcDbPolyline
 90
        4
 70
   128
 43
0.0
 10
1.1266358197
 20
-2.5338541667
 10
-1.2275305342
 20
-7.5
 10
-1.2275305342
 20
-7.5
 10
-0.2002138501504671
 20
-7.5
  0
LWPOLYLINE
  5
80
330
1F
100
AcDbEntity
  8
0
  6
Continuous
 62
     7
100
AcDbPolyline
 90
       20
 70
   128
 43
0.0
 10
9.5563232899
 20
-13.0
 10
9.5563236325
 20
0.0
 10
9.5563236325
 20
0.0
 10
9.8011152991
 20
0.0
 10
9.8011152991
 20
0.0
 10
18.3896569658
 20
-10.2317708333
 10
18.3896569658
 20
-10.2317708333
 10
18.3896569658
 20
0.0
 10
18.3896569658
 20
0.0
 10
19.5563236325
 20
0.0
 10
19.5563236325
 20
0.0
 10
19.5563236325
 20
-13.0
 10
19.5563236325
 20
-13.0
 10
19.2906986325
 20
-13.0
 10
19.2906986325
 20
-13.0
 10
10.7229902991
 20
-2.7916666667
 10
10.7229902991
 20
-2.7916666667
 10
10.7229902991
 20
-13.0
 10
10.7229902991
 20
-13.0
 10
9.5563236325
 20
-13.0
  0
LWPOLYLINE
  5
81
330
1F
100
AcDbEntity
  8
0
  6
Continuous
 62
     7
100
AcDbPolyline
 90
       20
 70
   128
 43
0.0
 10
-20.9675729275
 20
-20.0
 10
-20.9675767271
 20
-17.5
 10
-20.9675767271
 20
-17.5
 10
-20.9205014066
 20
-17.5
 10
-20.9205014066
 20
-17.5
 10
-19.2688587783
 20
-19.4676482372
 10
-19.2688587783
 20
-19.4676482372
 10
-19.2688587783
 20
-17.5
 10
-19.2688587783
 20
-17.5
 10
-19.044499804
 20
-17.5
 10
-19.044499804
 20
-17.5
 10
-19.044499804
 20
-20.0
 10
-19.044499804
 20
-20.0
 10
-19.0955815348
 20
-20.0
 10
-19.0955815348
 20
-20.0
 10
-20.7432177527
 20
-18.0368589744
 10
-20.7432177527
 20
-18.0368589744
 10
-20.7432177527
 20
-20.0
 10
-20.7432177527
 20
-20.0
 10
-20.9675767271
 20
-20.0
  0
LWPOLYLINE
  5
82
330
1F
100
AcDbEntity
  8
0
  6
Continuous
 62
     7
100
AcDbPolyline
 90
      100
 70
   128
 43
0.0
 10
-16.9681757689
 20
-19.4230769231
 10
-16.7688587783
 20
-19.527744391
 10
-16.7688587783
 20
-19.527744391
 10
-16.817937304
 20
-19.6113782051
 10
-16.8705214386
 20
-19.6864983974
 10
-16.9266111822
 20
-19.7536057692
 10
-16.986707336
 20
-19.8116987179
 10
-17.0503090989
 20
-19.8622796474
 10
-17.1174164707
 20
-19.9063501603
 10
-17.189031054
 20
-19.9444110577
 10
-17.2641512463
 20
-19.9759615385
 10
-17.3437786501
 20
-20.0005008013
 10
-17.4284140668
 20
-20.0180288462
 10
-17.5180574963
 20
-20.0285456731
 10
-17.6127089386
 20
-20.0320512821
 10
-17.6127089386
 20
-20.0320512821
 10
-17.7178772078
 20
-20.0275440705
 10
-17.8170358617
 20
-20.0140224359
 10
-17.9101849001
 20
-19.9914863782
 10
-17.9978251245
 20
-19.9599358974
 10
-18.0789549322
 20
-19.9193709936
 10
-18.1545759258
 20
-19.8697916667
 10
-18.2246881053
 20
-19.8111979167
 10
-18.2882898681
 20
-19.7435897436
 10
-18.3453812142
 20
-19.6704727564
 10
-18.3949605412
 20
-19.5948517628
 10
-18.4365270476
 20
-19.5167267628
 10
-18.4705815348
 20
-19.4360977564
 10
-18.497624804
 20
-19.3534655449
 10
-18.5166552527
 20
-19.2688301282
 10
-18.5276728809
 20
-19.1811899038
 10
-18.5316792912
 20
-19.0915464744
 10
-18.5316792912
 20
-19.0915464744
 10
-18.5281736822
 20
-19.007411859
 10
-18.5186584578
 20
-18.9252804487
 10
-18.5021320155
 20
-18.8456530449
 10
-18.4790951566
 20
-18.7680288462
 10
-18.4495478809
 20
-18.6929086538
 10
-18.4134901886
 20
-18.6202924679
 10
-18.3704212783
 20
-18.5496794872
 10
-18.3213427527
 20
-18.4815705128
 10
-18.3213427527
 20
-18.4815705128
 10
-18.2517313745
 20
-18.401943109
 10
-18.1766111822
 20
-18.3323317308
 10
-18.0959821758
 20
-18.2742387821
 10
-18.009343554
 20
-18.226161859
 10
-17.9171961181
 20
-18.1891025641
 10
-17.8195398681
 20
-18.1620592949
 10
-17.716374804
 20
-18.1465344551
 10
-17.6072001245
 20
-18.141025641
 10
-17.6072001245
 20
-18.141025641
 10
-17.4950206373
 20
-18.1465344551
 10
-17.3883499642
 20
-18.1635616987
 10
-17.2876889066
 20
-18.1916065705
 10
-17.1930374642
 20
-18.2306690705
 10
-17.103894836
 20
-18.28125
 10
-17.0207618232
 20
-18.343349359
 10
-16.9431376245
 20
-18.4164663462
 10
-16.8715230412
 20
-18.5006009615
 10
-16.8715230412
 20
-18.5006009615
 10
-16.8254493232
 20
-18.5662059295
 10
-16.7858860219
 20
-18.6353165064
 10
-16.7518315348
 20
-18.7089342949
 10
-16.7242874642
 20
-18.7860576923
 10
-16.7022522078
 20
-18.8671875
 10
-16.6862265668
 20
-18.9523237179
 10
-16.6767113424
 20
-19.0414663462
 10
-16.6727049322
 20
-19.1346153846
 10
-16.6727049322
 20
-19.1346153846
 10
-18.3073203168
 20
-19.1346153846
 10
-18.3073203168
 20
-19.1346153846
 10
-18.3028131053
 20
-19.2067307692
 10
-18.2927970796
 20
-19.2758413462
 10
-18.2767714386
 20
-19.3414463141
 10
-18.2547361822
 20
-19.4035456731
 10
-18.227692913
 20
-19.4621394231
 10
-18.1946400283
 20
-19.5177283654
 10
-18.1555775283
 20
-19.5698116987
 10
-18.1110062142
 20
-19.6188902244
 10
-18.0619276886
 20
-19.6629607372
 10
-18.0103451566
 20
-19.7015224359
 10
-17.9557578168
 20
-19.7340745192
 10
-17.8981656694
 20
-19.7606169872
 10
-17.8380695155
 20
-19.7811498397
 10
-17.774968554
 20
-19.7956730769
 10
-17.709363586
 20
-19.8046875
 10
-17.6407538104
 20
-19.8076923077
 10
-17.6407538104
 20
-19.8076923077
 10
-17.5736464386
 20
-19.8051883013
 10
-17.5080414707
 20
-19.7971754808
 10
-17.442937304
 20
-19.7836538462
 10
-17.3788347399
 20
-19.7651241987
 10
-17.3172361822
 20
-19.7420873397
 10
-17.2606456373
 20
-19.7150440705
 10
-17.2090631053
 20
-19.6849959936
 10
-17.1619877848
 20
-19.6514423077
 10
-17.1164148681
 20
-19.6108774038
 10
-17.0688387463
 20
-19.5587940705
 10
-17.0192594194
 20
-19.4966947115
 10
-16.9681776886
 20
-19.4230769231
  0
LWPOLYLINE
  5
83
330
1F
100
AcDbEntity
  8
0
  6
Continuous
 62
     7
100
AcDbPolyline
 90
       33
 70
   128
 43
0.0
 10
-16.8970525265
 20
-18.9102564103
 10
-16.9236063745
 20
-18.8216145833
 10
-16.9561584578
 20
-18.7424879808
 10
-16.993718554
 20
-18.6728766026
 10
-17.0367874642
 20
-18.6127804487
 10
-17.0858659899
 20
-18.5596955128
 10
-17.142957336
 20
-18.512119391
 10
-17.2070599001
 20
-18.4700520833
 10
-17.2786744835
 20
-18.4334935897
 10
-17.3547962783
 20
-18.4034455128
 10
-17.4334220796
 20
-18.382411859
 10
-17.5135502848
 20
-18.3693910256
 10
-17.595681695
 20
-18.3653846154
 10
-17.595681695
 20
-18.3653846154
 10
-17.6627890668
 20
-18.3678886218
 10
-17.7278932335
 20
-18.3759014423
 10
-17.7904933937
 20
-18.3894230769
 10
-17.8500887463
 20
-18.4079527244
 10
-17.908181695
 20
-18.4324919872
 10
-17.963269836
 20
-18.4615384615
 10
-18.0158539707
 20
-18.4965945513
 10
-18.0664349001
 20
-18.5366586538
 10
-18.0664349001
 20
-18.5366586538
 10
-18.1014909899
 20
-18.5697115385
 10
-18.1340430732
 20
-18.6067708333
 10
-18.1645919514
 20
-18.6473357372
 10
-18.1926368232
 20
-18.6919070513
 10
-18.2186784899
 20
-18.7409855769
 10
-18.2427169514
 20
-18.7935697115
 10
-18.2642514066
 20
-18.8496594551
 10
-18.2837826566
 20
-18.9102564103
 10
-18.2837826566
 20
-18.9102564103
 10
-16.8970639066
 20
-18.9102564103
  0
LWPOLYLINE
  5
84
330
1F
100
AcDbEntity
  8
0
  6
Continuous
 62
     7
100
AcDbPolyline
 90
       26
 70
   128
 43
0.0
 10
-16.4803862572
 20
-18.1730769231
 10
-16.2395118232
 20
-18.1730769231
 10
-16.2395118232
 20
-18.1730769231
 10
-15.6951408296
 20
-19.4871794872
 10
-15.6951408296
 20
-19.4871794872
 10
-15.0986865027
 20
-18.1730769231
 10
-15.0986865027
 20
-18.1730769231
 10
-15.0606256053
 20
-18.1730769231
 10
-15.0606256053
 20
-18.1730769231
 10
-14.4771921117
 20
-19.4871794872
 10
-14.4771921117
 20
-19.4871794872
 10
-13.9278131053
 20
-18.1730769231
 10
-13.9278131053
 20
-18.1730769231
 10
-13.6919357014
 20
-18.1730769231
 10
-13.6919357014
 20
-18.1730769231
 10
-14.4556576566
 20
-20.0
 10
-14.4556576566
 20
-20.0
 10
-14.5022321758
 20
-20.0
 10
-14.5022321758
 20
-20.0
 10
-15.0861664707
 20
-18.6858974359
 10
-15.0861664707
 20
-18.6858974359
 10
-15.6821199963
 20
-20.0
 10
-15.6821199963
 20
-20.0
 10
-15.7236865027
 20
-20.0
 10
-15.7236865027
 20
-20.0
 10
-16.4803972399
 20
-18.1730769231
  0
LWPOLYLINE
  5
85
330
1F
100
AcDbEntity
  8
0
  6
Continuous
 62
     7
100
AcDbPolyline
 90
      124
 70
   128
 43
0.0
 10
-11.6086006165
 20
-18.5692107372
 10
-11.7964028489
 20
-18.6858974359
 10
-11.7964028489
 20
-18.6858974359
 10
-11.8600046117
 20
-18.6107772436
 10
-11.9296159899
 20
-18.5456730769
 10
-12.0042353809
 20
-18.4905849359
 10
-12.084363586
 20
-18.4455128205
 10
-12.1705014066
 20
-18.4104567308
 10
-12.2621480412
 20
-18.3854166667
 10
-12.3588026886
 20
-18.3703926282
 10
-12.4614669514
 20
-18.3653846154
 10
-12.4614669514
 20
-18.3653846154
 10
-12.5435983617
 20
-18.3688902244
 10
-12.6227249642
 20
-18.3784054487
 10
-12.6978451566
 20
-18.394931891
 10
-12.7694597399
 20
-18.4174679487
 10
-12.8375687142
 20
-18.4470152244
 10
-12.9021720796
 20
-18.4830729167
 10
-12.963269836
 20
-18.5251402244
 10
-13.0208619835
 20
-18.57421875
 10
-13.0729453168
 20
-18.6278044872
 10
-13.1180174322
 20
-18.6843950321
 10
-13.1565791309
 20
-18.7434895833
 10
-13.1876288104
 20
-18.8055889423
 10
-13.2121680732
 20
-18.8701923077
 10
-13.2291953168
 20
-18.9378004808
 10
-13.2397121437
 20
-19.0084134615
 10
-13.2432177527
 20
-19.0815304487
 10
-13.2432177527
 20
-19.0815304487
 10
-13.236707336
 20
-19.1771834936
 10
-13.2176768873
 20
-19.2698317308
 10
-13.1856256053
 20
-19.3599759615
 10
-13.1410542912
 20
-19.4471153846
 10
-13.0849645476
 20
-19.527744391
 10
-13.0193595796
 20
-19.5993589744
 10
-12.9447401886
 20
-19.6609575321
 10
-12.8601047719
 20
-19.7130408654
 10
-12.767957336
 20
-19.7546073718
 10
-12.6708018873
 20
-19.7841546474
 10
-12.5681376245
 20
-19.8016826923
 10
-12.4599645476
 20
-19.8076923077
 10
-12.4599645476
 20
-19.8076923077
 10
-12.3608058937
 20
-19.8026842949
 10
-12.2661544514
 20
-19.7876602564
 10
-12.1765110219
 20
-19.7626201923
 10
-12.0908740027
 20
-19.7275641026
 10
-12.0102449963
 20
-19.6824919872
 10
-11.9346240027
 20
-19.6274038462
 10
-11.8630094194
 20
-19.5622996795
 10
-11.7964028489
 20
-19.4871794872
 10
-11.7964028489
 20
-19.4871794872
 10
-11.6086023681
 20
-19.6103766026
 10
-11.6086023681
 20
-19.6103766026
 10
-11.6426568553
 20
-19.6589543269
 10
-11.6797161501
 20
-19.7050280449
 10
-11.7197802527
 20
-19.7480969551
 10
-11.7623483617
 20
-19.7881610577
 10
-11.8074204771
 20
-19.8257211538
 10
-11.8559982014
 20
-19.8602764423
 10
-11.9070799322
 20
-19.8923277244
 10
-11.9606656694
 20
-19.9213741987
 10
-12.016755413
 20
-19.9474158654
 10
-12.0748483617
 20
-19.9699519231
 10
-12.1344437142
 20
-19.9889823718
 10
-12.1965430732
 20
-20.0045072115
 10
-12.260144836
 20
-20.0165264423
 10
-12.3262506053
 20
-20.0250400641
 10
-12.3938587783
 20
-20.0305488782
 10
-12.4634701566
 20
-20.0320512821
 10
-12.4634701566
 20
-20.0320512821
 10
-12.5696400283
 20
-20.0280448718
 10
-12.6708018873
 20
-20.0150240385
 10
-12.7674565348
 20
-19.9939903846
 10
-12.8596039707
 20
-19.964443109
 10
-12.947244195
 20
-19.9263822115
 10
-13.0303772078
 20
-19.8798076923
 10
-13.1085022078
 20
-19.8247195513
 10
-13.1821199963
 20
-19.7611177885
 10
-13.2492273681
 20
-19.6915064103
 10
-13.3068195155
 20
-19.6178886218
 10
-13.3558980412
 20
-19.5412660256
 10
-13.3959621437
 20
-19.4606370192
 10
-13.4275126245
 20
-19.3760016026
 10
-13.4495478809
 20
-19.2883613782
 10
-13.4630695155
 20
-19.1967147436
 10
-13.4675767271
 20
-19.1015625
 10
-13.4675767271
 20
-19.1015625
 10
-13.4655735219
 20
-19.0369591346
 10
-13.4590631053
 20
-18.9733573718
 10
-13.4490470796
 20
-18.9107572115
 10
-13.4340230412
 20
-18.8496594551
 10
-13.4154933937
 20
-18.7895633013
 10
-13.3924565348
 20
-18.73046875
 10
-13.3654132655
 20
-18.6728766026
 10
-13.334363586
 20
-18.6162860577
 10
-13.2993074963
 20
-18.5616987179
 10
-13.2612465989
 20
-18.5106169872
 10
-13.2201808937
 20
-18.4620392628
 10
-13.1756095796
 20
-18.4169671474
 10
-13.1285342591
 20
-18.3748998397
 10
-13.0779533296
 20
-18.3358373397
 10
-13.0238667912
 20
-18.2997796474
 10
-12.9672762463
 20
-18.2667267628
 10
-12.908181695
 20
-18.2371794872
 10
-12.8470839386
 20
-18.2116386218
 10
-12.7844837783
 20
-18.1901041667
 10
-12.719880413
 20
-18.1725761218
 10
-12.6537746437
 20
-18.1585536859
 10
-12.5861664707
 20
-18.1490384615
 10
-12.5165550924
 20
-18.1430288462
 10
-12.4449405091
 20
-18.141025641
 10
-12.4449405091
 20
-18.141025641
 10
-12.3552970796
 20
-18.14453125
 10
-12.2666552527
 20
-18.1550480769
 10
-12.1800166309
 20
-18.1720753205
 10
-12.094880413
 20
-18.1966145833
 10
-12.0137506053
 20
-18.2266626603
 10
-11.938630413
 20
-18.2607171474
 10
-11.8705214386
 20
-18.2992788462
 10
-11.8084220796
 20
-18.3418469551
 10
-11.7518315348
 20
-18.3894230769
 10
-11.6997482014
 20
-18.4430088141
 10
-11.6516712783
 20
-18.5031049679
 10
-11.6086023681
 20
-18.5692107372
  0
LWPOLYLINE
  5
86
330
1F
100
AcDbEntity
  8
0
  6
Continuous
 62
     7
100
AcDbPolyline
 90
       62
 70
   128
 43
0.0
 10
-9.3009099364
 20
-18.1730769231
 10
-9.3009100604
 20
-20.0
 10
-9.3009100604
 20
-20.0
 10
-9.5252690348
 20
-20.0
 10
-9.5252690348
 20
-20.0
 10
-9.5252690348
 20
-19.683994391
 10
-9.5252690348
 20
-19.683994391
 10
-9.6028932335
 20
-19.7681290064
 10
-9.6845238424
 20
-19.840244391
 10
-9.7716632655
 20
-19.9003405449
 10
-9.8628090989
 20
-19.9484174679
 10
-9.9584621437
 20
-19.9849759615
 10
-10.0581215989
 20
-20.0110176282
 10
-10.1627890668
 20
-20.0270432692
 10
-10.271462945
 20
-20.0320512821
 10
-10.271462945
 20
-20.0320512821
 10
-10.3681175924
 20
-20.0275440705
 10
-10.4612666309
 20
-20.0145232372
 10
-10.5509100604
 20
-19.9929887821
 10
-10.6370478809
 20
-19.9629407051
 10
-10.7191792912
 20
-19.9238782051
 10
-10.7983058937
 20
-19.8763020833
 10
-10.873426086
 20
-19.8202123397
 10
-10.9450406694
 20
-19.7551081731
 10
-11.0106456373
 20
-19.683994391
 10
-11.0672361822
 20
-19.609375
 10
-11.114812304
 20
-19.5307491987
 10
-11.1543756053
 20
-19.4481169872
 10
-11.1849244835
 20
-19.3619791667
 10
-11.2064589386
 20
-19.2723357372
 10
-11.2194797719
 20
-19.1786858974
 10
-11.2239869835
 20
-19.0815304487
 10
-11.2239869835
 20
-19.0815304487
 10
-11.2194797719
 20
-18.9863782051
 10
-11.2064589386
 20
-18.8942307692
 10
-11.1844236822
 20
-18.8060897436
 10
-11.1533740027
 20
-18.7209535256
 10
-11.1138107014
 20
-18.6398237179
 10
-11.0657337783
 20
-18.5621995192
 10
-11.0086424322
 20
-18.4875801282
 10
-10.942536663
 20
-18.4169671474
 10
-10.8704212783
 20
-18.3523637821
 10
-10.7942994835
 20
-18.2962740385
 10
-10.7151728809
 20
-18.2486979167
 10
-10.6320398681
 20
-18.2101362179
 10
-10.5454012463
 20
-18.1795873397
 10
-10.4552570155
 20
-18.1580528846
 10
-10.3616071758
 20
-18.1455328526
 10
-10.2644517271
 20
-18.141025641
 10
-10.2644517271
 20
-18.141025641
 10
-10.1527730412
 20
-18.1465344551
 10
-10.0466031694
 20
-18.1630608974
 10
-9.9459421117
 20
-18.1911057692
 10
-9.8507898681
 20
-18.2296674679
 10
-9.7611464386
 20
-18.2802483974
 10
-9.6765110219
 20
-18.3443509615
 10
-9.5983860219
 20
-18.4209735577
 10
-9.5252690348
 20
-18.5111177885
 10
-9.5252690348
 20
-18.5111177885
 10
-9.5252690348
 20
-18.1730769231
 10
-9.5252690348
 20
-18.1730769231
 10
-9.3009100604
 20
-18.1730769231
  0
LWPOLYLINE
  5
87
330
1F
100
AcDbEntity
  8
0
  6
Continuous
 62
     7
100
AcDbPolyline
 90
       56
 70
   128
 43
0.0
 10
-10.2614462376
 20
-18.3653846154
 10
-10.3596039707
 20
-18.3713942308
 10
-10.4537546117
 20
-18.3889222756
 10
-10.5438988424
 20
-18.4184695513
 10
-10.6305374642
 20
-18.4595352564
 10
-10.7106656694
 20
-18.5111177885
 10
-10.7822802527
 20
-18.5727163462
 10
-10.8453812142
 20
-18.6433293269
 10
-10.899968554
 20
-18.7239583333
 10
-10.9435382655
 20
-18.8100961538
 10
-10.974587945
 20
-18.8992387821
 10
-10.9936183937
 20
-18.9903846154
 10
-10.9996280091
 20
-19.0840344551
 10
-10.9996280091
 20
-19.0840344551
 10
-10.9931175924
 20
-19.1771834936
 10
-10.974587945
 20
-19.2683293269
 10
-10.9430374642
 20
-19.3574719551
 10
-10.8989669514
 20
-19.4446113782
 10
-10.8438788104
 20
-19.5257411859
 10
-10.7807778489
 20
-19.5973557692
 10
-10.7086624642
 20
-19.6594551282
 10
-10.6280334578
 20
-19.7120392628
 10
-10.541394836
 20
-19.7541065705
 10
-10.4517514066
 20
-19.7836538462
 10
-10.3591031694
 20
-19.8016826923
 10
-10.2634501245
 20
-19.8076923077
 10
-10.2634501245
 20
-19.8076923077
 10
-10.1662946758
 20
-19.8016826923
 10
-10.0716432335
 20
-19.7841546474
 10
-9.9799965989
 20
-19.7546073718
 10
-9.8908539707
 20
-19.7130408654
 10
-9.8082217591
 20
-19.6614583333
 10
-9.7351047719
 20
-19.6013621795
 10
-9.673005413
 20
-19.5327524038
 10
-9.6204212783
 20
-19.4561298077
 10
-9.5788547719
 20
-19.3724959936
 10
-9.548806695
 20
-19.2833533654
 10
-9.5312786501
 20
-19.1897035256
 10
-9.5252690348
 20
-19.0905448718
 10
-9.5252690348
 20
-19.0905448718
 10
-9.5287746437
 20
-19.0149238782
 10
-9.5387906694
 20
-18.9423076923
 10
-9.5553171117
 20
-18.8726963141
 10
-9.5783539707
 20
-18.8065905449
 10
-9.6084020476
 20
-18.7434895833
 10
-9.6449605412
 20
-18.6833934295
 10
-9.6880294514
 20
-18.6268028846
 10
-9.7381095796
 20
-18.5732171474
 10
-9.7926969194
 20
-18.5246394231
 10
-9.8502890668
 20
-18.4820713141
 10
-9.9113868232
 20
-18.4465144231
 10
-9.974988586
 20
-18.4174679487
 10
-10.0420959578
 20
-18.3944310897
 10
-10.1122081373
 20
-18.3784054487
 10
-10.1853251245
 20
-18.3683894231
 10
-10.2614469194
 20
-18.3653846154
  0
LWPOLYLINE
  5
88
330
1F
100
AcDbEntity
  8
0
  6
Continuous
 62
     7
100
AcDbPolyline
 90
      148
 70
   128
 43
0.0
 10
-7.9227015376
 20
-18.4009415064
 10
-8.0749485219
 20
-18.5576923077
 10
-8.0749485219
 20
-18.5576923077
 10
-8.1150126245
 20
-18.5126201923
 10
-8.1550767271
 20
-18.4735576923
 10
-8.1951408296
 20
-18.4405048077
 10
-8.2342033296
 20
-18.4134615385
 10
-8.2737666309
 20
-18.3924278846
 10
-8.3128291309
 20
-18.3774038462
 10
-8.3518916309
 20
-18.3683894231
 10
-8.3904533296
 20
-18.3653846154
 10
-8.3904533296
 20
-18.3653846154
 10
-8.4375286501
 20
-18.3698918269
 10
-8.4810983617
 20
-18.3839142628
 10
-8.5216632655
 20
-18.4069511218
 10
-8.5582217591
 20
-18.4395032051
 10
-8.5887706373
 20
-18.4780649038
 10
-8.6103050924
 20
-18.519130609
 10
-8.6233259258
 20
-18.5637019231
 10
-8.6278331373
 20
-18.6112780449
 10
-8.6278331373
 20
-18.6112780449
 10
-8.6238267271
 20
-18.6543469551
 10
-8.6123082976
 20
-18.6959134615
 10
-8.5927770476
 20
-18.7369791667
 10
-8.5657337783
 20
-18.7770432692
 10
-8.5657337783
 20
-18.7770432692
 10
-8.5482057335
 20
-18.7975761218
 10
-8.5261704771
 20
-18.8186097756
 10
-8.5001288104
 20
-18.8411458333
 10
-8.4695799322
 20
-18.8641826923
 10
-8.4345238424
 20
-18.8882211538
 10
-8.3954613424
 20
-18.9127604167
 10
-8.3523924322
 20
-18.9388020833
 10
-8.3048163104
 20
-18.9653445513
 10
-8.3048163104
 20
-18.9653445513
 10
-8.2467233617
 20
-18.9983974359
 10
-8.1936384258
 20
-19.0309495192
 10
-8.1450607014
 20
-19.0635016026
 10
-8.1014909899
 20
-19.0955528846
 10
-8.0629292912
 20
-19.1276041667
 10
-8.028874804
 20
-19.1591546474
 10
-7.9998283296
 20
-19.1907051282
 10
-7.9757898681
 20
-19.2217548077
 10
-7.9757898681
 20
-19.2217548077
 10
-7.9387305732
 20
-19.2863581731
 10
-7.911687304
 20
-19.3549679487
 10
-7.8961624642
 20
-19.4275841346
 10
-7.8906536501
 20
-19.5042067308
 10
-7.8906536501
 20
-19.5042067308
 10
-7.8931576566
 20
-19.5582932692
 10
-7.9001688745
 20
-19.6103766026
 10
-7.9121881053
 20
-19.6604567308
 10
-7.9287145476
 20
-19.7080328526
 10
-7.950749804
 20
-19.7541065705
 10
-7.9767914707
 20
-19.7976762821
 10
-8.0078411501
 20
-19.8392427885
 10
-8.0438988424
 20
-19.8788060897
 10
-8.0834621437
 20
-19.9148637821
 10
-8.1250286501
 20
-19.9459134615
 10
-8.169099163
 20
-19.9719551282
 10
-8.2156736822
 20
-19.9934895833
 10
-8.2647522078
 20
-20.0105168269
 10
-8.3163347399
 20
-20.0225360577
 10
-8.3699204771
 20
-20.0295472756
 10
-8.4260102207
 20
-20.0320512821
 10
-8.4260102207
 20
-20.0320512821
 10
-8.5016312142
 20
-20.0280448718
 10
-8.5752490027
 20
-20.0155248397
 10
-8.6473643873
 20
-19.9949919872
 10
-8.7179773681
 20
-19.9664463141
 10
-8.7845839386
 20
-19.9303886218
 10
-8.8451808937
 20
-19.8878205128
 10
-8.8997682335
 20
-19.8392427885
 10
-8.9483459578
 20
-19.7846554487
 10
-8.9483459578
 20
-19.7846554487
 10
-8.7996079771
 20
-19.6153846154
 10
-8.7996079771
 20
-19.6153846154
 10
-8.7565390668
 20
-19.6604567308
 10
-8.7129693553
 20
-19.6995192308
 10
-8.6683980412
 20
-19.7325721154
 10
-8.6238267271
 20
-19.7596153846
 10
-8.5782538104
 20
-19.7806490385
 10
-8.5316792912
 20
-19.7956730769
 10
-8.4851047719
 20
-19.8046875
 10
-8.4375286501
 20
-19.8076923077
 10
-8.4375286501
 20
-19.8076923077
 10
-8.3729252848
 20
-19.8021834936
 10
-8.3133299322
 20
-19.7856570513
 10
-8.2587425924
 20
-19.7586137821
 10
-8.2091632655
 20
-19.7200520833
 10
-8.1680975604
 20
-19.6744791667
 10
-8.1385502848
 20
-19.6243990385
 10
-8.1210222399
 20
-19.5713141026
 10
-8.1150126245
 20
-19.5137219551
 10
-8.1150126245
 20
-19.5137219551
 10
-8.1190190348
 20
-19.4661458333
 10
-8.1305374642
 20
-19.4210737179
 10
-8.149567913
 20
-19.3790064103
 10
-8.1766111822
 20
-19.339443109
 10
-8.1766111822
 20
-19.339443109
 10
-8.1941392271
 20
-19.3204126603
 10
-8.2166752848
 20
-19.2998798077
 10
-8.2442193553
 20
-19.2778445513
 10
-8.2762706373
 20
-19.2548076923
 10
-8.3133299322
 20
-19.2307692308
 10
-8.3553972399
 20
-19.2057291667
 10
-8.4019717591
 20
-19.1791866987
 10
-8.4535542912
 20
-19.1511418269
 10
-8.4535542912
 20
-19.1511418269
 10
-8.5091432335
 20
-19.1195913462
 10
-8.5602249642
 20
-19.0880408654
 10
-8.6062986822
 20
-19.0564903846
 10
-8.6483659899
 20
-19.0254407051
 10
-8.6854252848
 20
-18.9943910256
 10
-8.7174765668
 20
-18.9633413462
 10
-8.7455214386
 20
-18.9322916667
 10
-8.7685582976
 20
-18.9017427885
 10
-8.7685582976
 20
-18.9017427885
 10
-8.8051167912
 20
-18.8381410256
 10
-8.8311584578
 20
-18.76953125
 10
-8.8471840989
 20
-18.6974158654
 10
-8.8521921117
 20
-18.6202924679
 10
-8.8521921117
 20
-18.6202924679
 10
-8.8501889066
 20
-18.5697115385
 10
-8.8441792912
 20
-18.5216346154
 10
-8.8336624642
 20
-18.4755608974
 10
-8.8196400283
 20
-18.4314903846
 10
-8.8011103809
 20
-18.3899238782
 10
-8.7785743232
 20
-18.3503605769
 10
-8.7520318553
 20
-18.3128004808
 10
-8.7214829771
 20
-18.277744391
 10
-8.6874284899
 20
-18.245693109
 10
-8.6513707976
 20
-18.2181490385
 10
-8.6133099001
 20
-18.1946113782
 10
-8.5732457976
 20
-18.1750801282
 10
-8.5306776886
 20
-18.1600560897
 10
-8.4861063745
 20
-18.1495392628
 10
-8.4395318553
 20
-18.1430288462
 10
-8.3904533296
 20
-18.141025641
 10
-8.3904533296
 20
-18.141025641
 10
-8.3323603809
 20
-18.1450320513
 10
-8.2742674322
 20
-18.1570512821
 10
-8.2156736822
 20
-18.1775841346
 10
-8.1570799322
 20
-18.2061298077
 10
-8.0989869835
 20
-18.2426883013
 10
-8.0403932335
 20
-18.2872596154
 10
-7.9812986822
 20
-18.33984375
 10
-7.9227049322
 20
-18.4009415064
  0
LWPOLYLINE
  5
89
330
1F
100
AcDbEntity
  8
0
  6
Continuous
 62
     7
100
AcDbPolyline
 90
       24
 70
   128
 43
0.0
 10
-7.2175748646
 20
-17.4358974359
 10
-6.9932177527
 20
-17.4358974359
 10
-6.9932177527
 20
-17.4358974359
 10
-6.9932177527
 20
-18.1730769231
 10
-6.9932177527
 20
-18.1730769231
 10
-6.6727049322
 20
-18.1730769231
 10
-6.6727049322
 20
-18.1730769231
 10
-6.6727049322
 20
-18.3974358974
 10
-6.6727049322
 20
-18.3974358974
 10
-6.9932177527
 20
-18.3974358974
 10
-6.9932177527
 20
-18.3974358974
 10
-6.9932177527
 20
-20.0
 10
-6.9932177527
 20
-20.0
 10
-7.2175767271
 20
-20.0
 10
-7.2175767271
 20
-20.0
 10
-7.2175767271
 20
-18.3974358974
 10
-7.2175767271
 20
-18.3974358974
 10
-7.5380895476
 20
-18.3974358974
 10
-7.5380895476
 20
-18.3974358974
 10
-7.5380895476
 20
-18.1730769231
 10
-7.5380895476
 20
-18.1730769231
 10
-7.2175767271
 20
-18.1730769231
 10
-7.2175767271
 20
-18.1730769231
 10
-7.2175767271
 20
-17.4358974359
  0
LWPOLYLINE
  5
8A
330
1F
100
AcDbEntity
  8
0
  6
Continuous
 62
     7
100
AcDbPolyline
 90
        8
 70
   128
 43
0.0
 10
-6.3201375306
 20
-17.4358974359
 10
-6.0957818553
 20
-17.4358974359
 10
-6.0957818553
 20
-17.4358974359
 10
-6.0957818553
 20
-20.0
 10
-6.0957818553
 20
-20.0
 10
-6.3201408296
 20
-20.0
 10
-6.3201408296
 20
-20.0
 10
-6.3201408296
 20
-17.4358974359
  0
LWPOLYLINE
  5
8B
330
1F
100
AcDbEntity
  8
0
  6
Continuous
 62
     7
100
AcDbPolyline
 90
      100
 70
   128
 43
0.0
 10
-4.083558917
 20
-19.4230769231
 10
-3.8842433937
 20
-19.527744391
 10
-3.8842433937
 20
-19.527744391
 10
-3.9333219194
 20
-19.6113782051
 10
-3.985906054
 20
-19.6864983974
 10
-4.0419957976
 20
-19.7536057692
 10
-4.1020919514
 20
-19.8116987179
 10
-4.1656937142
 20
-19.8622796474
 10
-4.232801086
 20
-19.9063501603
 10
-4.3044156694
 20
-19.9444110577
 10
-4.3795358617
 20
-19.9759615385
 10
-4.4591632655
 20
-20.0005008013
 10
-4.5437986822
 20
-20.0180288462
 10
-4.6334421117
 20
-20.0285456731
 10
-4.728093554
 20
-20.0320512821
 10
-4.728093554
 20
-20.0320512821
 10
-4.8332618232
 20
-20.0275440705
 10
-4.9324204771
 20
-20.0140224359
 10
-5.0255695155
 20
-19.9914863782
 10
-5.1132097399
 20
-19.9599358974
 10
-5.1943395476
 20
-19.9193709936
 10
-5.2699605412
 20
-19.8697916667
 10
-5.3400727207
 20
-19.8111979167
 10
-5.4036744835
 20
-19.7435897436
 10
-5.4607658296
 20
-19.6704727564
 10
-5.5103451566
 20
-19.5948517628
 10
-5.551911663
 20
-19.5167267628
 10
-5.5859661501
 20
-19.4360977564
 10
-5.6130094194
 20
-19.3534655449
 10
-5.6320398681
 20
-19.2688301282
 10
-5.6430574963
 20
-19.1811899038
 10
-5.6470639066
 20
-19.0915464744
 10
-5.6470639066
 20
-19.0915464744
 10
-5.6435582976
 20
-19.007411859
 10
-5.6340430732
 20
-18.9252804487
 10
-5.6175166309
 20
-18.8456530449
 10
-5.5944797719
 20
-18.7680288462
 10
-5.5649324963
 20
-18.6929086538
 10
-5.528874804
 20
-18.6202924679
 10
-5.4858058937
 20
-18.5496794872
 10
-5.4367273681
 20
-18.4815705128
 10
-5.4367273681
 20
-18.4815705128
 10
-5.3671159899
 20
-18.401943109
 10
-5.2919957976
 20
-18.3323317308
 10
-5.2113667912
 20
-18.2742387821
 10
-5.1247281694
 20
-18.226161859
 10
-5.0325807335
 20
-18.1891025641
 10
-4.9349244835
 20
-18.1620592949
 10
-4.8317594194
 20
-18.1465344551
 10
-4.7225847399
 20
-18.141025641
 10
-4.7225847399
 20
-18.141025641
 10
-4.6104052527
 20
-18.1465344551
 10
-4.5037345796
 20
-18.1635616987
 10
-4.4030735219
 20
-18.1916065705
 10
-4.3084220796
 20
-18.2306690705
 10
-4.2192794514
 20
-18.28125
 10
-4.1361464386
 20
-18.343349359
 10
-4.0585222399
 20
-18.4164663462
 10
-3.9869076566
 20
-18.5006009615
 10
-3.9869076566
 20
-18.5006009615
 10
-3.9408339386
 20
-18.5662059295
 10
-3.9012706373
 20
-18.6353165064
 10
-3.8672161501
 20
-18.7089342949
 10
-3.8396720796
 20
-18.7860576923
 10
-3.8176368232
 20
-18.8671875
 10
-3.8016111822
 20
-18.9523237179
 10
-3.7920959578
 20
-19.0414663462
 10
-3.7880895476
 20
-19.1346153846
 10
-3.7880895476
 20
-19.1346153846
 10
-5.4227049322
 20
-19.1346153846
 10
-5.4227049322
 20
-19.1346153846
 10
-5.4181977207
 20
-19.2067307692
 10
-5.408181695
 20
-19.2758413462
 10
-5.392156054
 20
-19.3414463141
 10
-5.3701207976
 20
-19.4035456731
 10
-5.3430775283
 20
-19.4621394231
 10
-5.3100246437
 20
-19.5177283654
 10
-5.2709621437
 20
-19.5698116987
 10
-5.2263908296
 20
-19.6188902244
 10
-5.177312304
 20
-19.6629607372
 10
-5.1257297719
 20
-19.7015224359
 10
-5.0711424322
 20
-19.7340745192
 10
-5.0135502848
 20
-19.7606169872
 10
-4.9534541309
 20
-19.7811498397
 10
-4.8903531694
 20
-19.7956730769
 10
-4.8247482014
 20
-19.8046875
 10
-4.7561384258
 20
-19.8076923077
 10
-4.7561384258
 20
-19.8076923077
 10
-4.689031054
 20
-19.8051883013
 10
-4.623426086
 20
-19.7971754808
 10
-4.5583219194
 20
-19.7836538462
 10
-4.4942193553
 20
-19.7651241987
 10
-4.4326207976
 20
-19.7420873397
 10
-4.3760302527
 20
-19.7150440705
 10
-4.3244477207
 20
-19.6849959936
 10
-4.2773724001
 20
-19.6514423077
 10
-4.2317994835
 20
-19.6108774038
 10
-4.1842233617
 20
-19.5587940705
 10
-4.1346440348
 20
-19.4966947115
 10
-4.083562304
 20
-19.4230769231
  0
LWPOLYLINE
  5
8C
330
1F
100
AcDbEntity
  8
0
  6
Continuous
 62
     7
100
AcDbPolyline
 90
       33
 70
   128
 43
0.0
 10
-4.0124468505
 20
-18.9102564103
 10
-4.0389909899
 20
-18.8216145833
 10
-4.0715430732
 20
-18.7424879808
 10
-4.1091031694
 20
-18.6728766026
 10
-4.1521720796
 20
-18.6127804487
 10
-4.2012506053
 20
-18.5596955128
 10
-4.2583419514
 20
-18.512119391
 10
-4.3224445155
 20
-18.4700520833
 10
-4.3940590989
 20
-18.4334935897
 10
-4.4701808937
 20
-18.4034455128
 10
-4.548806695
 20
-18.382411859
 10
-4.6289349001
 20
-18.3693910256
 10
-4.7110663104
 20
-18.3653846154
 10
-4.7110663104
 20
-18.3653846154
 10
-4.7781736822
 20
-18.3678886218
 10
-4.8432778489
 20
-18.3759014423
 10
-4.9058780091
 20
-18.3894230769
 10
-4.9654733617
 20
-18.4079527244
 10
-5.0235663104
 20
-18.4324919872
 10
-5.0786544514
 20
-18.4615384615
 10
-5.131238586
 20
-18.4965945513
 10
-5.1818195155
 20
-18.5366586538
 10
-5.1818195155
 20
-18.5366586538
 10
-5.2168756053
 20
-18.5697115385
 10
-5.2494276886
 20
-18.6067708333
 10
-5.2799765668
 20
-18.6473357372
 10
-5.3080214386
 20
-18.6919070513
 10
-5.3340631053
 20
-18.7409855769
 10
-5.3581015668
 20
-18.7935697115
 10
-5.3796360219
 20
-18.8496594551
 10
-5.3991672719
 20
-18.9102564103
 10
-5.3991672719
 20
-18.9102564103
 10
-4.0124485219
 20
-18.9102564103
  0
LWPOLYLINE
  5
8D
330
1F
100
AcDbEntity
  8
0
  6
Continuous
 62
     7
100
AcDbPolyline
 90
      106
 70
   128
 43
0.0
 10
-2.2175759077
 20
-18.2692307692
 10
-2.4419357014
 20
-18.2692307692
 10
-2.4419357014
 20
-18.2692307692
 10
-2.435926086
 20
-18.180088141
 10
-2.4229052527
 20
-18.0949519231
 10
-2.4033740027
 20
-18.0143229167
 10
-2.3763307335
 20
-17.9371995192
 10
-2.3427770476
 20
-17.8645833333
 10
-2.3022121437
 20
-17.7954727564
 10
-2.2546360219
 20
-17.730869391
 10
-2.2000486822
 20
-17.6702724359
 10
-2.1404533296
 20
-17.6151842949
 10
-2.0768515668
 20
-17.5676081731
 10
-2.0102449963
 20
-17.5275440705
 10
-1.9406336181
 20
-17.4944911859
 10
-1.8670158296
 20
-17.4689503205
 10
-1.7903932335
 20
-17.4504206731
 10
-1.7102650283
 20
-17.4394030449
 10
-1.6266312142
 20
-17.4358974359
 10
-1.6266312142
 20
-17.4358974359
 10
-1.544499804
 20
-17.4394030449
 10
-1.4658740027
 20
-17.4499198718
 10
-1.391755413
 20
-17.4669471154
 10
-1.3211424322
 20
-17.4909855769
 10
-1.255036663
 20
-17.5225360577
 10
-1.192937304
 20
-17.5605969551
 10
-1.134343554
 20
-17.6051682692
 10
-1.0802570155
 20
-17.6572516026
 10
-1.0311784899
 20
-17.7138421474
 10
-0.9891111822
 20
-17.7729366987
 10
-0.9530534899
 20
-17.8345352564
 10
-0.9235062142
 20
-17.8981370192
 10
-0.9009701566
 20
-17.9647435897
 10
-0.8844437142
 20
-18.0338541667
 10
-0.8749284899
 20
-18.1049679487
 10
-0.8714228809
 20
-18.1790865385
 10
-0.8714228809
 20
-18.1790865385
 10
-0.8779332976
 20
-18.2832532051
 10
-0.8974645476
 20
-18.3839142628
 10
-0.9295158296
 20
-18.4810697115
 10
-0.9750887463
 20
-18.5752203526
 10
-1.0041352207
 20
-18.6232972756
 10
-1.0391913104
 20
-18.6758814103
 10
-1.0802570155
 20
-18.7324719551
 10
-1.127332336
 20
-18.792568109
 10
-1.1809180732
 20
-18.8576722756
 10
-1.2400126245
 20
-18.9262820513
 10
-1.3056175924
 20
-18.9988982372
 10
-1.3772321758
 20
-19.0760216346
 10
-1.3772321758
 20
-19.0760216346
 10
-2.0027329771
 20
-19.7435897436
 10
-2.0027329771
 20
-19.7435897436
 10
-0.8393715989
 20
-19.7435897436
 10
-0.8393715989
 20
-19.7435897436
 10
-0.8393715989
 20
-20.0
 10
-0.8393715989
 20
-20.0
 10
-2.5380895476
 20
-20.0
 10
-2.5380895476
 20
-20.0
 10
-1.5685382655
 20
-18.9653445513
 10
-1.5685382655
 20
-18.9653445513
 10
-1.4979252848
 20
-18.8912259615
 10
-1.4338227207
 20
-18.8221153846
 10
-1.3762305732
 20
-18.7580128205
 10
-1.3251488424
 20
-18.6989182692
 10
-1.2805775283
 20
-18.6443309295
 10
-1.2420158296
 20
-18.5952524038
 10
-1.2104653489
 20
-18.5506810897
 10
-1.1849244835
 20
-18.5111177885
 10
-1.1458619835
 20
-18.4359975962
 10
-1.1178171117
 20
-18.3588741987
 10
-1.1012906694
 20
-18.2802483974
 10
-1.0957818553
 20
-18.1991185897
 10
-1.0957818553
 20
-18.1991185897
 10
-1.0982858617
 20
-18.148036859
 10
-1.1057978809
 20
-18.0989583333
 10
-1.1178171117
 20
-18.0518830128
 10
-1.1348443553
 20
-18.0063100962
 10
-1.157380413
 20
-17.9622395833
 10
-1.1844236822
 20
-17.9206730769
 10
-1.215974163
 20
-17.8806089744
 10
-1.2530334578
 20
-17.8420472756
 10
-1.2935983617
 20
-17.8069911859
 10
-1.3361664707
 20
-17.7764423077
 10
-1.3807377848
 20
-17.7509014423
 10
-1.4278131053
 20
-17.7298677885
 10
-1.4773924322
 20
-17.7133413462
 10
-1.528474163
 20
-17.7018229167
 10
-1.5820599001
 20
-17.6948116987
 10
-1.6381496437
 20
-17.6923076923
 10
-1.6381496437
 20
-17.6923076923
 10
-1.6967433937
 20
-17.6948116987
 10
-1.7528331373
 20
-17.7018229167
 10
-1.8064188745
 20
-17.7138421474
 10
-1.8575006053
 20
-17.7303685897
 10
-1.9060783296
 20
-17.7514022436
 10
-1.9521520476
 20
-17.7774439103
 10
-1.9957217591
 20
-17.8084935897
 10
-2.0367874642
 20
-17.8440504808
 10
-2.0743475604
 20
-17.8836137821
 10
-2.107400445
 20
-17.9271834936
 10
-2.1364469194
 20
-17.9747596154
 10
-2.1614869835
 20
-18.0258413462
 10
-2.182019836
 20
-18.0809294872
 10
-2.1980454771
 20
-18.1400240385
 10
-2.2100647078
 20
-18.2026241987
 10
-2.2175767271
 20
-18.2692307692
  0
LWPOLYLINE
  5
8E
330
1F
100
AcDbEntity
  8
0
  6
Continuous
 62
     7
100
AcDbPolyline
 90
       65
 70
   128
 43
0.0
 10
0.5388334394
 20
-17.4358974359
 10
0.7116099717
 20
-17.5716145833
 10
0.7116099717
 20
-17.5716145833
 10
0.0510530806
 20
-18.5817307692
 10
0.0510530806
 20
-18.5817307692
 10
0.1832646191
 20
-18.5637019231
 10
0.3099673434
 20
-18.5576923077
 10
0.3099673434
 20
-18.5576923077
 10
0.3860891383
 20
-18.5611979167
 10
0.4592061255
 20
-18.5712139423
 10
0.529318305
 20
-18.5877403846
 10
0.5964256768
 20
-18.6112780449
 10
0.6605282409
 20
-18.6413261218
 10
0.7221267986
 20
-18.6778846154
 10
0.7802197473
 20
-18.7214543269
 10
0.8358086896
 20
-18.7715344551
 10
0.8863896191
 20
-18.8266225962
 10
0.9304601319
 20
-18.8847155449
 10
0.9675194268
 20
-18.9458133013
 10
0.9975675037
 20
-19.0099158654
 10
1.021105164
 20
-19.0775240385
 10
1.0381324076
 20
-19.1481370192
 10
1.0481484332
 20
-19.2217548077
 10
1.0516540422
 20
-19.2983774038
 10
1.0516540422
 20
-19.2983774038
 10
1.0456444268
 20
-19.4030448718
 10
1.0266139781
 20
-19.5027043269
 10
0.9955642986
 20
-19.5968549679
 10
0.9514937858
 20
-19.6864983974
 10
0.8964056447
 20
-19.7686298077
 10
0.8302998755
 20
-19.8417467949
 10
0.7541780806
 20
-19.9063501603
 10
0.6670386576
 20
-19.9619391026
 10
0.5733888178
 20
-20.0065104167
 10
0.4757325678
 20
-20.0385616987
 10
0.3750715101
 20
-20.0575921474
 10
0.2704040422
 20
-20.0641025641
 10
0.2704040422
 20
-20.0641025641
 10
0.1697429845
 20
-20.0580929487
 10
0.0725875358
 20
-20.0395633013
 10
-0.021062304
 20
-20.0085136218
 10
-0.1107057335
 20
-19.9654447115
 10
-0.1938387463
 20
-19.9108573718
 10
-0.2674565348
 20
-19.8462540064
 10
-0.3320599001
 20
-19.7716346154
 10
-0.3866472399
 20
-19.6869991987
 10
-0.4302169514
 20
-19.5953525641
 10
-0.4617674322
 20
-19.5012019231
 10
-0.4802970796
 20
-19.4035456731
 10
-0.4868074963
 20
-19.3028846154
 10
-0.4868074963
 20
-19.3028846154
 10
-0.482801086
 20
-19.2257612179
 10
-0.4712826566
 20
-19.1461338141
 10
-0.4522522078
 20
-19.0650040064
 10
-0.4257097399
 20
-18.9818709936
 10
-0.4086824963
 20
-18.9388020833
 10
-0.3891512463
 20
-18.8932291667
 10
-0.3661143873
 20
-18.8461538462
 10
-0.3405735219
 20
-18.7965745192
 10
-0.3115270476
 20
-18.7444911859
 10
-0.2799765668
 20
-18.6909054487
 10
-0.2449204771
 20
-18.6348157051
 10
-0.2073603809
 20
-18.5767227564
 10
-0.2073603809
 20
-18.5767227564
 10
0.5388335293
 20
-17.4358974359
  0
LWPOLYLINE
  5
8F
330
1F
100
AcDbEntity
  8
0
  6
Continuous
 62
     7
100
AcDbPolyline
 90
       68
 70
   128
 43
0.0
 10
0.2628918737
 20
-18.8141025641
 10
0.2058006768
 20
-18.8166065705
 10
0.1517141383
 20
-18.8231169872
 10
0.1001316063
 20
-18.8346354167
 10
0.0510530806
 20
-18.8501602564
 10
0.0049793627
 20
-18.870693109
 10
-0.0380895476
 20
-18.8957331731
 10
-0.0786544514
 20
-18.9252804487
 10
-0.1167153489
 20
-18.9593349359
 10
-0.150769836
 20
-18.9963942308
 10
-0.1803171117
 20
-19.0359575321
 10
-0.2053571758
 20
-19.0770232372
 10
-0.2258900283
 20
-19.1200921474
 10
-0.2419156694
 20
-19.1651642628
 10
-0.2534340989
 20
-19.2122395833
 10
-0.2599445155
 20
-19.2608173077
 10
-0.2624485219
 20
-19.3118990385
 10
-0.2624485219
 20
-19.3118990385
 10
-0.2599445155
 20
-19.3624799679
 10
-0.2524324963
 20
-19.410556891
 10
-0.2399124642
 20
-19.4576322115
 10
-0.2223844194
 20
-19.5022035256
 10
-0.200349163
 20
-19.5452724359
 10
-0.1728050924
 20
-19.5858373397
 10
-0.1407538104
 20
-19.625400641
 10
-0.1031937142
 20
-19.6624599359
 10
-0.0621280091
 20
-19.6965144231
 10
-0.0190590989
 20
-19.7260616987
 10
0.0260130165
 20
-19.7511017628
 10
0.073088337
 20
-19.7711338141
 10
0.1221668627
 20
-19.7871594551
 10
0.1737493947
 20
-19.7986778846
 10
0.2268343306
 20
-19.8051883013
 10
0.2824232729
 20
-19.8076923077
 10
0.2824232729
 20
-19.8076923077
 10
0.3380122152
 20
-19.8051883013
 10
0.3910971511
 20
-19.7986778846
 10
0.4426796832
 20
-19.7871594551
 10
0.4917582088
 20
-19.7711338141
 10
0.5388335293
 20
-19.7511017628
 10
0.5839056447
 20
-19.7260616987
 10
0.6264737537
 20
-19.6965144231
 10
0.6675394588
 20
-19.6624599359
 10
0.705099555
 20
-19.625400641
 10
0.7376516383
 20
-19.5858373397
 10
0.7646949076
 20
-19.5452724359
 10
0.7872309652
 20
-19.5022035256
 10
0.8047590101
 20
-19.4576322115
 10
0.8172790422
 20
-19.410556891
 10
0.8247910614
 20
-19.3624799679
 10
0.8272950678
 20
-19.3118990385
 10
0.8272950678
 20
-19.3118990385
 10
0.8247910614
 20
-19.2608173077
 10
0.8167782409
 20
-19.2122395833
 10
0.8042582088
 20
-19.1651642628
 10
0.7862293627
 20
-19.1200921474
 10
0.7626917024
 20
-19.0770232372
 10
0.7341460293
 20
-19.0359575321
 10
0.7005923434
 20
-18.9963942308
 10
0.6620306447
 20
-18.9593349359
 10
0.6194625358
 20
-18.9252804487
 10
0.5748912217
 20
-18.8957331731
 10
0.5283167024
 20
-18.870693109
 10
0.4797389781
 20
-18.8501602564
 10
0.4286572473
 20
-18.8346354167
 10
0.3755723114
 20
-18.8231169872
 10
0.3204841704
 20
-18.8166065705
 10
0.2628920229
 20
-18.8141025641
  0
LWPOLYLINE
  5
90
330
1F
100
AcDbEntity
  8
0
  6
Continuous
 62
     7
100
AcDbPolyline
 90
        8
 70
   128
 43
0.0
 10
1.3080639765
 20
-18.9102564103
 10
2.2696027601
 20
-18.9102564103
 10
2.2696027601
 20
-18.9102564103
 10
2.2696027601
 20
-19.1666666667
 10
2.2696027601
 20
-19.1666666667
 10
1.3080642986
 20
-19.1666666667
 10
1.3080642986
 20
-19.1666666667
 10
1.3080642986
 20
-18.9102564103
  0
LWPOLYLINE
  5
91
330
1F
100
AcDbEntity
  8
0
  6
Continuous
 62
     7
100
AcDbPolyline
 90
      106
 70
   128
 43
0.0
 10
2.7824230492
 20
-18.2692307692
 10
2.5580642986
 20
-18.2692307692
 10
2.5580642986
 20
-18.2692307692
 10
2.564073914
 20
-18.180088141
 10
2.5770947473
 20
-18.0949519231
 10
2.5966259973
 20
-18.0143229167
 10
2.6236692665
 20
-17.9371995192
 10
2.6572229524
 20
-17.8645833333
 10
2.6977878563
 20
-17.7954727564
 10
2.7453639781
 20
-17.730869391
 10
2.7999513178
 20
-17.6702724359
 10
2.8595466704
 20
-17.6151842949
 10
2.9231484332
 20
-17.5676081731
 10
2.9897550037
 20
-17.5275440705
 10
3.0593663819
 20
-17.4944911859
 10
3.1329841704
 20
-17.4689503205
 10
3.2096067665
 20
-17.4504206731
 10
3.2897349717
 20
-17.4394030449
 10
3.3733687858
 20
-17.4358974359
 10
3.3733687858
 20
-17.4358974359
 10
3.455500196
 20
-17.4394030449
 10
3.5341259973
 20
-17.4499198718
 10
3.608244587
 20
-17.4669471154
 10
3.6788575678
 20
-17.4909855769
 10
3.744963337
 20
-17.5225360577
 10
3.807062696
 20
-17.5605969551
 10
3.865656446
 20
-17.6051682692
 10
3.9197429845
 20
-17.6572516026
 10
3.9688215101
 20
-17.7138421474
 10
4.0108888178
 20
-17.7729366987
 10
4.0469465101
 20
-17.8345352564
 10
4.0764937858
 20
-17.8981370192
 10
4.0990298434
 20
-17.9647435897
 10
4.1155562858
 20
-18.0338541667
 10
4.1250715101
 20
-18.1049679487
 10
4.1285771191
 20
-18.1790865385
 10
4.1285771191
 20
-18.1790865385
 10
4.1220667024
 20
-18.2832532051
 10
4.1025354524
 20
-18.3839142628
 10
4.0704841704
 20
-18.4810697115
 10
4.0249112537
 20
-18.5752203526
 10
3.9958647793
 20
-18.6232972756
 10
3.9608086896
 20
-18.6758814103
 10
3.9197429845
 20
-18.7324719551
 10
3.872667664
 20
-18.792568109
 10
3.8190819268
 20
-18.8576722756
 10
3.7599873755
 20
-18.9262820513
 10
3.6943824076
 20
-18.9988982372
 10
3.6227678242
 20
-19.0760216346
 10
3.6227678242
 20
-19.0760216346
 10
2.9972670229
 20
-19.7435897436
 10
2.9972670229
 20
-19.7435897436
 10
4.1606284011
 20
-19.7435897436
 10
4.1606284011
 20
-19.7435897436
 10
4.1606284011
 20
-20.0
 10
4.1606284011
 20
-20.0
 10
2.4619104524
 20
-20.0
 10
2.4619104524
 20
-20.0
 10
3.4314617345
 20
-18.9653445513
 10
3.4314617345
 20
-18.9653445513
 10
3.5020747152
 20
-18.8912259615
 10
3.5661772793
 20
-18.8221153846
 10
3.6237694268
 20
-18.7580128205
 10
3.6748511576
 20
-18.6989182692
 10
3.7194224717
 20
-18.6443309295
 10
3.7579841704
 20
-18.5952524038
 10
3.7895346511
 20
-18.5506810897
 10
3.8150755165
 20
-18.5111177885
 10
3.8541380165
 20
-18.4359975962
 10
3.8821828883
 20
-18.3588741987
 10
3.8987093306
 20
-18.2802483974
 10
3.9042181447
 20
-18.1991185897
 10
3.9042181447
 20
-18.1991185897
 10
3.9017141383
 20
-18.148036859
 10
3.8942021191
 20
-18.0989583333
 10
3.8821828883
 20
-18.0518830128
 10
3.8651556447
 20
-18.0063100962
 10
3.842619587
 20
-17.9622395833
 10
3.8155763178
 20
-17.9206730769
 10
3.784025837
 20
-17.8806089744
 10
3.7469665422
 20
-17.8420472756
 10
3.7064016383
 20
-17.8069911859
 10
3.6638335293
 20
-17.7764423077
 10
3.6192622152
 20
-17.7509014423
 10
3.5721868947
 20
-17.7298677885
 10
3.5226075678
 20
-17.7133413462
 10
3.471525837
 20
-17.7018229167
 10
3.4179400999
 20
-17.6948116987
 10
3.3618503563
 20
-17.6923076923
 10
3.3618503563
 20
-17.6923076923
 10
3.3032566063
 20
-17.6948116987
 10
3.2471668627
 20
-17.7018229167
 10
3.1935811255
 20
-17.7138421474
 10
3.1424993947
 20
-17.7303685897
 10
3.0939216704
 20
-17.7514022436
 10
3.0478479524
 20
-17.7774439103
 10
3.0042782409
 20
-17.8084935897
 10
2.9632125358
 20
-17.8440504808
 10
2.9256524396
 20
-17.8836137821
 10
2.892599555
 20
-17.9271834936
 10
2.8635530806
 20
-17.9747596154
 10
2.8385130165
 20
-18.0258413462
 10
2.817980164
 20
-18.0809294872
 10
2.8019545229
 20
-18.1400240385
 10
2.7899352922
 20
-18.2026241987
 10
2.7824232729
 20
-18.2692307692
  0
LWPOLYLINE
  5
92
330
1F
100
AcDbEntity
  8
0
  6
Continuous
 62
     7
100
AcDbPolyline
 90
       12
 70
   128
 43
0.0
 10
4.5452415943
 20
-17.5
 10
6.0837053242
 20
-17.5
 10
6.0837053242
 20
-17.5
 10
4.7696027601
 20
-20.0641025641
 10
4.7696027601
 20
-20.0641025641
 10
4.575792664
 20
-19.957431891
 10
4.575792664
 20
-19.957431891
 10
5.7040979524
 20
-17.7564102564
 10
5.7040979524
 20
-17.7564102564
 10
4.5452437858
 20
-17.7564102564
 10
4.5452437858
 20
-17.7564102564
 10
4.5452437858
 20
-17.5
  0
LWPOLYLINE
  5
93
330
1F
100
AcDbEntity
  8
0
  6
Continuous
 62
     7
100
AcDbPolyline
 90
       16
 70
   128
 43
0.0
 10
8.5195973516
 20
-17.5
 10
9.673448914
 20
-20.0
 10
9.673448914
 20
-20.0
 10
9.4295586896
 20
-20.0
 10
9.4295586896
 20
-20.0
 10
9.0599673434
 20
-19.1987179487
 10
9.0599673434
 20
-19.1987179487
 10
7.9266540422
 20
-19.1987179487
 10
7.9266540422
 20
-19.1987179487
 10
7.5465458691
 20
-20.0
 10
7.5465458691
 20
-20.0
 10
7.3016540422
 20
-20.0
 10
7.3016540422
 20
-20.0
 10
8.4875514781
 20
-17.5
 10
8.4875514781
 20
-17.5
 10
8.5196027601
 20
-17.5
  0
LWPOLYLINE
  5
94
330
1F
100
AcDbEntity
  8
0
  6
Continuous
 62
     7
100
AcDbPolyline
 90
        6
 70
   128
 43
0.0
 10
8.5010677576
 20
-17.9872796474
 10
8.0483487537
 20
-18.9423076923
 10
8.0483487537
 20
-18.9423076923
 10
8.9417782409
 20
-18.9423076923
 10
8.9417782409
 20
-18.9423076923
 10
8.5010731127
 20
-17.9872796474
  0
LWPOLYLINE
  5
95
330
1F
100
AcDbEntity
  8
0
  6
Continuous
 62
     7
100
AcDbPolyline
 90
       62
 70
   128
 43
0.0
 10
10.0580602884
 20
-18.1730769231
 10
10.2824232729
 20
-18.1730769231
 10
10.2824232729
 20
-18.1730769231
 10
10.2824232729
 20
-18.5111177885
 10
10.2824232729
 20
-18.5111177885
 10
10.3560410614
 20
-18.4209735577
 10
10.4346668627
 20
-18.3443509615
 10
10.5188014781
 20
-18.2802483974
 10
10.6084449076
 20
-18.2296674679
 10
10.7035971511
 20
-18.1911057692
 10
10.8037574076
 20
-18.1630608974
 10
10.9094264781
 20
-18.1465344551
 10
11.0206043627
 20
-18.141025641
 10
11.0206043627
 20
-18.141025641
 10
11.1177598114
 20
-18.1455328526
 10
11.2119104524
 20
-18.1580528846
 10
11.3020546832
 20
-18.1795873397
 10
11.388693305
 20
-18.2101362179
 10
11.4718263178
 20
-18.2486979167
 10
11.5509529204
 20
-18.2962740385
 10
11.6270747152
 20
-18.3523637821
 10
11.6991900999
 20
-18.4169671474
 10
11.7652958691
 20
-18.4875801282
 10
11.8223872152
 20
-18.5621995192
 10
11.8709649396
 20
-18.6398237179
 10
11.9105282409
 20
-18.7209535256
 10
11.9415779204
 20
-18.8060897436
 10
11.9636131768
 20
-18.8942307692
 10
11.9766340101
 20
-18.9863782051
 10
11.9811412217
 20
-19.0815304487
 10
11.9811412217
 20
-19.0815304487
 10
11.9766340101
 20
-19.1786858974
 10
11.9636131768
 20
-19.2723357372
 10
11.9420787217
 20
-19.3619791667
 10
11.9115298434
 20
-19.4481169872
 10
11.8719665422
 20
-19.5307491987
 10
11.8238896191
 20
-19.609375
 10
11.7672990742
 20
-19.683994391
 10
11.7016941063
 20
-19.7551081731
 10
11.6300795229
 20
-19.8202123397
 10
11.5549593306
 20
-19.8763020833
 10
11.4758327281
 20
-19.9238782051
 10
11.3937013178
 20
-19.9629407051
 10
11.3075634973
 20
-19.9929887821
 10
11.2179200678
 20
-20.0145232372
 10
11.1242702281
 20
-20.0275440705
 10
11.0276155806
 20
-20.0320512821
 10
11.0276155806
 20
-20.0320512821
 10
10.9189417024
 20
-20.0265424679
 10
10.8142742345
 20
-20.0090144231
 10
10.7146147793
 20
-19.9809695513
 10
10.6189617345
 20
-19.9409054487
 10
10.5283167024
 20
-19.8898237179
 10
10.4416780806
 20
-19.8272235577
 10
10.3600474717
 20
-19.7536057692
 10
10.2824232729
 20
-19.6689703526
 10
10.2824232729
 20
-19.6689703526
 10
10.2824232729
 20
-20.6730769231
 10
10.2824232729
 20
-20.6730769231
 10
10.0580642986
 20
-20.6730769231
 10
10.0580642986
 20
-20.6730769231
 10
10.0580642986
 20
-18.1730769231
  0
LWPOLYLINE
  5
96
330
1F
100
AcDbEntity
  8
0
  6
Continuous
 62
     7
100
AcDbPolyline
 90
       56
 70
   128
 43
0.0
 10
11.0185965896
 20
-18.3653846154
 10
10.9424793627
 20
-18.3683894231
 10
10.8693623755
 20
-18.3784054487
 10
10.799250196
 20
-18.3944310897
 10
10.7321428242
 20
-18.4174679487
 10
10.6680402601
 20
-18.4465144231
 10
10.607443305
 20
-18.4820713141
 10
10.5493503563
 20
-18.5246394231
 10
10.4947630165
 20
-18.5732171474
 10
10.4451836896
 20
-18.6268028846
 10
10.4021147793
 20
-18.6833934295
 10
10.3655562858
 20
-18.7434895833
 10
10.3355082088
 20
-18.8065905449
 10
10.3124713499
 20
-18.8726963141
 10
10.2959449076
 20
-18.9423076923
 10
10.2859288819
 20
-19.0149238782
 10
10.2824232729
 20
-19.0905448718
 10
10.2824232729
 20
-19.0905448718
 10
10.2884328883
 20
-19.1897035256
 10
10.3059609332
 20
-19.2833533654
 10
10.3355082088
 20
-19.3724959936
 10
10.3770747152
 20
-19.4561298077
 10
10.4296588499
 20
-19.5327524038
 10
10.4927598114
 20
-19.6013621795
 10
10.5658767986
 20
-19.6614583333
 10
10.6490098114
 20
-19.7130408654
 10
10.7386532409
 20
-19.7546073718
 10
10.8308006768
 20
-19.7841546474
 10
10.9249513178
 20
-19.8016826923
 10
11.0221067665
 20
-19.8076923077
 10
11.0221067665
 20
-19.8076923077
 10
11.1172590101
 20
-19.8016826923
 10
11.209406446
 20
-19.7836538462
 10
11.2990498755
 20
-19.7541065705
 10
11.385187696
 20
-19.7120392628
 10
11.4658167024
 20
-19.6594551282
 10
11.537932087
 20
-19.5973557692
 10
11.6010330486
 20
-19.5257411859
 10
11.6556203883
 20
-19.4446113782
 10
11.6996909011
 20
-19.3574719551
 10
11.7317421832
 20
-19.2683293269
 10
11.7502718306
 20
-19.1771834936
 10
11.7567822473
 20
-19.0840344551
 10
11.7567822473
 20
-19.0840344551
 10
11.7507726319
 20
-18.9903846154
 10
11.7317421832
 20
-18.8992387821
 10
11.7006925037
 20
-18.8100961538
 10
11.6566219909
 20
-18.7239583333
 10
11.6025354524
 20
-18.6433293269
 10
11.5394344909
 20
-18.5727163462
 10
11.4678199076
 20
-18.5111177885
 10
11.3876917024
 20
-18.4595352564
 10
11.3010530806
 20
-18.4184695513
 10
11.2109088499
 20
-18.3889222756
 10
11.1167582088
 20
-18.3713942308
 10
11.0186011576
 20
-18.3653846154
  0
LWPOLYLINE
  5
97
330
1F
100
AcDbEntity
  8
0
  6
Continuous
 62
     7
100
AcDbPolyline
 90
       53
 70
   128
 43
0.0
 10
12.3657509685
 20
-18.1730769231
 10
12.5901155806
 20
-18.1730769231
 10
12.5901155806
 20
-18.1730769231
 10
12.5901155806
 20
-18.4420072115
 10
12.5901155806
 20
-18.4420072115
 10
12.6411973114
 20
-18.3678886218
 10
12.693781446
 20
-18.3047876603
 10
12.7473671832
 20
-18.2532051282
 10
12.8024553242
 20
-18.2121394231
 10
12.8590458691
 20
-18.1810897436
 10
12.9171388178
 20
-18.1585536859
 10
12.9757325678
 20
-18.1455328526
 10
13.0358287217
 20
-18.141025641
 10
13.0358287217
 20
-18.141025641
 10
13.0824032409
 20
-18.1450320513
 10
13.130480164
 20
-18.1565504808
 10
13.1800594909
 20
-18.1760817308
 10
13.2311412217
 20
-18.2036258013
 10
13.2311412217
 20
-18.2036258013
 10
13.1079441063
 20
-18.3979366987
 10
13.1079441063
 20
-18.3979366987
 10
13.0753920229
 20
-18.3839142628
 10
13.045343946
 20
-18.3733974359
 10
13.0177998755
 20
-18.3673878205
 10
12.9932606127
 20
-18.3653846154
 10
12.9932606127
 20
-18.3653846154
 10
12.9396748755
 20
-18.3713942308
 10
12.8865899396
 20
-18.3894230769
 10
12.8350074076
 20
-18.4194711538
 10
12.7839256768
 20
-18.4615384615
 10
12.759386414
 20
-18.4870793269
 10
12.736349555
 20
-18.5161258013
 10
12.7153159011
 20
-18.5481770833
 10
12.6952838499
 20
-18.5837339744
 10
12.6767542024
 20
-18.6227964744
 10
12.6597269588
 20
-18.6648637821
 10
12.6442021191
 20
-18.7104366987
 10
12.6301796832
 20
-18.7590144231
 10
12.6301796832
 20
-18.7590144231
 10
12.6206644588
 20
-18.8025841346
 10
12.6126516383
 20
-18.8561698718
 10
12.6056404204
 20
-18.9197716346
 10
12.6001316063
 20
-18.9933894231
 10
12.5956243947
 20
-19.0765224359
 10
12.592619587
 20
-19.1696714744
 10
12.5906163819
 20
-19.2728365385
 10
12.5901155806
 20
-19.3860176282
 10
12.5901155806
 20
-19.3860176282
 10
12.5901155806
 20
-20.0
 10
12.5901155806
 20
-20.0
 10
12.3657566063
 20
-20.0
 10
12.3657566063
 20
-20.0
 10
12.3657566063
 20
-18.1730769231
  0
LWPOLYLINE
  5
98
330
1F
100
AcDbEntity
  8
0
  6
Continuous
 62
     7
100
AcDbPolyline
 90
       36
 70
   128
 43
0.0
 10
13.5346204042
 20
-17.4038461538
 10
13.576193305
 20
-17.4073517628
 10
13.6147550037
 20
-17.4178685897
 10
13.6503118947
 20
-17.4358974359
 10
13.6823631768
 20
-17.4604366987
 10
13.709406446
 20
-17.4899839744
 10
13.7284368947
 20
-17.523036859
 10
13.7399553242
 20
-17.55859375
 10
13.7439617345
 20
-17.5971554487
 10
13.7439617345
 20
-17.5971554487
 10
13.7399553242
 20
-17.6347155449
 10
13.7284368947
 20
-17.6697716346
 10
13.709406446
 20
-17.7023237179
 10
13.6823631768
 20
-17.7318709936
 10
13.6503118947
 20
-17.7564102564
 10
13.6147550037
 20
-17.7744391026
 10
13.576193305
 20
-17.7849559295
 10
13.5346267986
 20
-17.7884615385
 10
13.5346267986
 20
-17.7884615385
 10
13.4935610934
 20
-17.7849559295
 10
13.4560009973
 20
-17.7744391026
 10
13.4204441063
 20
-17.7564102564
 10
13.3883928242
 20
-17.7318709936
 10
13.3618503563
 20
-17.7023237179
 10
13.3428199076
 20
-17.6697716346
 10
13.3313014781
 20
-17.6347155449
 10
13.3272950678
 20
-17.5971554487
 10
13.3272950678
 20
-17.5971554487
 10
13.3313014781
 20
-17.55859375
 10
13.3428199076
 20
-17.523036859
 10
13.3618503563
 20
-17.4899839744
 10
13.3883928242
 20
-17.4604366987
 10
13.4204441063
 20
-17.4358974359
 10
13.4560009973
 20
-17.4178685897
 10
13.4935610934
 20
-17.4073517628
 10
13.5346267986
 20
-17.4038461538
  0
LWPOLYLINE
  5
99
330
1F
100
AcDbEntity
  8
0
  6
Continuous
 62
     7
100
AcDbPolyline
 90
        8
 70
   128
 43
0.0
 10
13.4234428406
 20
-18.1730769231
 10
13.6478078883
 20
-18.1730769231
 10
13.6478078883
 20
-18.1730769231
 10
13.6478078883
 20
-20.0
 10
13.6478078883
 20
-20.0
 10
13.423448914
 20
-20.0
 10
13.423448914
 20
-20.0
 10
13.423448914
 20
-18.1730769231
  0
LWPOLYLINE
  5
9A
330
1F
100
AcDbEntity
  8
0
  6
Continuous
 62
     7
100
AcDbPolyline
 90
        8
 70
   128
 43
0.0
 10
14.1606256366
 20
-17.4358974359
 10
14.3849873755
 20
-17.4358974359
 10
14.3849873755
 20
-17.4358974359
 10
14.3849873755
 20
-20.0
 10
14.3849873755
 20
-20.0
 10
14.1606284011
 20
-20.0
 10
14.1606284011
 20
-20.0
 10
14.1606284011
 20
-17.4358974359
  0
LWPOLYLINE
  5
9B
330
1F
100
AcDbEntity
  8
0
  6
Continuous
 62
     7
100
AcDbPolyline
 90
      106
 70
   128
 43
0.0
 10
16.0195976496
 20
-18.2692307692
 10
15.7952437858
 20
-18.2692307692
 10
15.7952437858
 20
-18.2692307692
 10
15.8012534011
 20
-18.180088141
 10
15.8142742345
 20
-18.0949519231
 10
15.8338054845
 20
-18.0143229167
 10
15.8608487537
 20
-17.9371995192
 10
15.8944024396
 20
-17.8645833333
 10
15.9349673434
 20
-17.7954727564
 10
15.9825434652
 20
-17.730869391
 10
16.037130805
 20
-17.6702724359
 10
16.0967261576
 20
-17.6151842949
 10
16.1603279204
 20
-17.5676081731
 10
16.2269344909
 20
-17.5275440705
 10
16.2965458691
 20
-17.4944911859
 10
16.3701636576
 20
-17.4689503205
 10
16.4467862537
 20
-17.4504206731
 10
16.5269144588
 20
-17.4394030449
 10
16.6105482729
 20
-17.4358974359
 10
16.6105482729
 20
-17.4358974359
 10
16.6926796832
 20
-17.4394030449
 10
16.7713054845
 20
-17.4499198718
 10
16.8454240742
 20
-17.4669471154
 10
16.916037055
 20
-17.4909855769
 10
16.9821428242
 20
-17.5225360577
 10
17.0442421832
 20
-17.5605969551
 10
17.1028359332
 20
-17.6051682692
 10
17.1569224717
 20
-17.6572516026
 10
17.2060009973
 20
-17.7138421474
 10
17.248068305
 20
-17.7729366987
 10
17.2841259973
 20
-17.8345352564
 10
17.3136732729
 20
-17.8981370192
 10
17.3362093306
 20
-17.9647435897
 10
17.3527357729
 20
-18.0338541667
 10
17.3622509973
 20
-18.1049679487
 10
17.3657566063
 20
-18.1790865385
 10
17.3657566063
 20
-18.1790865385
 10
17.3592461896
 20
-18.2832532051
 10
17.3397149396
 20
-18.3839142628
 10
17.3076636576
 20
-18.4810697115
 10
17.2620907409
 20
-18.5752203526
 10
17.2330442665
 20
-18.6232972756
 10
17.1979881768
 20
-18.6758814103
 10
17.1569224717
 20
-18.7324719551
 10
17.1098471511
 20
-18.792568109
 10
17.056261414
 20
-18.8576722756
 10
16.9971668627
 20
-18.9262820513
 10
16.9315618947
 20
-18.9988982372
 10
16.8599473114
 20
-19.0760216346
 10
16.8599473114
 20
-19.0760216346
 10
16.2344465101
 20
-19.7435897436
 10
16.2344465101
 20
-19.7435897436
 10
17.3978078883
 20
-19.7435897436
 10
17.3978078883
 20
-19.7435897436
 10
17.3978078883
 20
-20.0
 10
17.3978078883
 20
-20.0
 10
15.6990899396
 20
-20.0
 10
15.6990899396
 20
-20.0
 10
16.6686412217
 20
-18.9653445513
 10
16.6686412217
 20
-18.9653445513
 10
16.7392542024
 20
-18.8912259615
 10
16.8033567665
 20
-18.8221153846
 10
16.860948914
 20
-18.7580128205
 10
16.9120306447
 20
-18.6989182692
 10
16.9566019588
 20
-18.6443309295
 10
16.9951636576
 20
-18.5952524038
 10
17.0267141383
 20
-18.5506810897
 10
17.0522550037
 20
-18.5111177885
 10
17.0913175037
 20
-18.4359975962
 10
17.1193623755
 20
-18.3588741987
 10
17.1358888178
 20
-18.2802483974
 10
17.1413976319
 20
-18.1991185897
 10
17.1413976319
 20
-18.1991185897
 10
17.1388936255
 20
-18.148036859
 10
17.1313816063
 20
-18.0989583333
 10
17.1193623755
 20
-18.0518830128
 10
17.1023351319
 20
-18.0063100962
 10
17.0797990742
 20
-17.9622395833
 10
17.052755805
 20
-17.9206730769
 10
17.0212053242
 20
-17.8806089744
 10
16.9841460293
 20
-17.8420472756
 10
16.9435811255
 20
-17.8069911859
 10
16.9010130165
 20
-17.7764423077
 10
16.8564417024
 20
-17.7509014423
 10
16.8093663819
 20
-17.7298677885
 10
16.759787055
 20
-17.7133413462
 10
16.7087053242
 20
-17.7018229167
 10
16.655119587
 20
-17.6948116987
 10
16.5990298434
 20
-17.6923076923
 10
16.5990298434
 20
-17.6923076923
 10
16.5404360934
 20
-17.6948116987
 10
16.4843463499
 20
-17.7018229167
 10
16.4307606127
 20
-17.7138421474
 10
16.3796788819
 20
-17.7303685897
 10
16.3311011576
 20
-17.7514022436
 10
16.2850274396
 20
-17.7774439103
 10
16.2414577281
 20
-17.8084935897
 10
16.2003920229
 20
-17.8440504808
 10
16.1628319268
 20
-17.8836137821
 10
16.1297790422
 20
-17.9271834936
 10
16.1007325678
 20
-17.9747596154
 10
16.0756925037
 20
-18.0258413462
 10
16.0551596511
 20
-18.0809294872
 10
16.0391340101
 20
-18.1400240385
 10
16.0271147793
 20
-18.2026241987
 10
16.0196027601
 20
-18.2692307692
  0
LWPOLYLINE
  5
9C
330
1F
100
AcDbEntity
  8
0
  6
Continuous
 62
     7
100
AcDbPolyline
 90
      100
 70
   128
 43
0.0
 10
17.6221579313
 20
-18.7510016026
 10
17.6236692665
 20
-18.6308092949
 10
17.6286772793
 20
-18.5176282051
 10
17.6371909011
 20
-18.4109575321
 10
17.6487093306
 20
-18.3117988782
 10
17.6632325678
 20
-18.2196514423
 10
17.6817622152
 20
-18.1345152244
 10
17.7032966704
 20
-18.0563902244
 10
17.7278359332
 20
-17.9852764423
 10
17.7553800037
 20
-17.9196714744
 10
17.7859288819
 20
-17.8580729167
 10
17.8194825678
 20
-17.8009815705
 10
17.8555402601
 20
-17.7473958333
 10
17.8941019588
 20
-17.6983173077
 10
17.935167664
 20
-17.6532451923
 10
17.9792381768
 20
-17.6126802885
 10
18.0263134973
 20
-17.5756209936
 10
18.0753920229
 20
-17.5430689103
 10
18.1259729524
 20
-17.5145232372
 10
18.1775554845
 20
-17.4904847756
 10
18.2311412217
 20
-17.4709535256
 10
18.2857285614
 20
-17.4554286859
 10
18.341818305
 20
-17.4444110577
 10
18.3989096511
 20
-17.437900641
 10
18.4580042024
 20
-17.4358974359
 10
18.4580042024
 20
-17.4358974359
 10
18.517599555
 20
-17.437900641
 10
18.576193305
 20
-17.4444110577
 10
18.6327838499
 20
-17.4554286859
 10
18.6883727922
 20
-17.4709535256
 10
18.7424593306
 20
-17.4904847756
 10
18.7950434652
 20
-17.5145232372
 10
18.8466259973
 20
-17.5430689103
 10
18.8962053242
 20
-17.5761217949
 10
18.943781446
 20
-17.6131810897
 10
18.9893543627
 20
-17.6552483974
 10
19.0319224717
 20
-17.7013221154
 10
19.0719865742
 20
-17.7514022436
 10
19.1095466704
 20
-17.8064903846
 10
19.1446027601
 20
-17.8655849359
 10
19.1766540422
 20
-17.9291866987
 10
19.2067021191
 20
-17.9972956731
 10
19.233244587
 20
-18.0704126603
 10
19.2567822473
 20
-18.1495392628
 10
19.2763134973
 20
-18.2346754808
 10
19.2923391383
 20
-18.3258213141
 10
19.3048591704
 20
-18.4229767628
 10
19.3138735934
 20
-18.5266426282
 10
19.3188816063
 20
-18.6358173077
 10
19.3208848114
 20
-18.7510016026
 10
19.3208848114
 20
-18.7510016026
 10
19.3188816063
 20
-18.8656850962
 10
19.3138735934
 20
-18.9743589744
 10
19.3048591704
 20
-19.0775240385
 10
19.2928399396
 20
-19.1741786859
 10
19.2768142986
 20
-19.2648237179
 10
19.2572830486
 20
-19.3494591346
 10
19.2347469909
 20
-19.4285857372
 10
19.2082045229
 20
-19.5012019231
 10
19.1786572473
 20
-19.5688100962
 10
19.1466059652
 20
-19.6319110577
 10
19.1120506768
 20
-19.691005609
 10
19.0744905806
 20
-19.74609375
 10
19.0344264781
 20
-19.7966746795
 10
18.9913575678
 20
-19.8427483974
 10
18.9457846511
 20
-19.8848157051
 10
18.8977077281
 20
-19.9223758013
 10
18.8476275999
 20
-19.9554286859
 10
18.7960450678
 20
-19.9844751603
 10
18.7429601319
 20
-20.0085136218
 10
18.6888735934
 20
-20.0285456731
 10
18.6332846511
 20
-20.0440705128
 10
18.576193305
 20
-20.055088141
 10
18.517599555
 20
-20.062099359
 10
18.4580042024
 20
-20.0641025641
 10
18.4580042024
 20
-20.0641025641
 10
18.3989096511
 20
-20.062099359
 10
18.341818305
 20
-20.0555889423
 10
18.2857285614
 20
-20.0445713141
 10
18.2316420229
 20
-20.0295472756
 10
18.178557087
 20
-20.0105168269
 10
18.126974555
 20
-19.9864783654
 10
18.0768944268
 20
-19.9584334936
 10
18.0283167024
 20
-19.9263822115
 10
17.9817421832
 20
-19.8898237179
 10
17.9376716704
 20
-19.8492588141
 10
17.8966059652
 20
-19.8041866987
 10
17.8580442665
 20
-19.7546073718
 10
17.8219865742
 20
-19.7015224359
 10
17.7884328883
 20
-19.6439302885
 10
17.7573832088
 20
-19.5818309295
 10
17.729338337
 20
-19.5157251603
 10
17.7042982729
 20
-19.4441105769
 10
17.6822630165
 20
-19.3654847756
 10
17.6642341704
 20
-19.2798477564
 10
17.6492101319
 20
-19.1877003205
 10
17.6371909011
 20
-19.0890424679
 10
17.6286772793
 20
-18.9828725962
 10
17.6236692665
 20
-18.8701923077
 10
17.6221668627
 20
-18.7510016026
  0
LWPOLYLINE
  5
9D
330
1F
100
AcDbEntity
  8
0
  6
Continuous
 62
     7
100
AcDbPolyline
 90
       85
 70
   128
 43
0.0
 10
17.8465247154
 20
-18.75
 10
17.8475274396
 20
-18.8501602564
 10
17.8515338499
 20
-18.9443108974
 10
17.8575434652
 20
-19.0324519231
 10
17.8655562858
 20
-19.1135817308
 10
17.876573914
 20
-19.1887019231
 10
17.8895947473
 20
-19.2578125
 10
17.905119587
 20
-19.3204126603
 10
17.9231484332
 20
-19.3765024038
 10
17.9436812858
 20
-19.4280849359
 10
17.9662173434
 20
-19.476161859
 10
17.9907566063
 20
-19.5212339744
 10
18.0177998755
 20
-19.5628004808
 10
18.0473471511
 20
-19.6013621795
 10
18.0788976319
 20
-19.6369190705
 10
18.1129521191
 20
-19.6689703526
 10
18.1490098114
 20
-19.6980168269
 10
18.2251316063
 20
-19.74609375
 10
18.3032566063
 20
-19.7801482372
 10
18.3833848114
 20
-19.8006810897
 10
18.4655162217
 20
-19.8076923077
 10
18.4655162217
 20
-19.8076923077
 10
18.5481484332
 20
-19.801181891
 10
18.6282766383
 20
-19.7806490385
 10
18.7054000358
 20
-19.7475961538
 10
18.7800194268
 20
-19.7005208333
 10
18.8155763178
 20
-19.6719751603
 10
18.8486292024
 20
-19.6404246795
 10
18.8796788819
 20
-19.6048677885
 10
18.9087253563
 20
-19.5663060897
 10
18.9352678242
 20
-19.5247395833
 10
18.959807087
 20
-19.4791666667
 10
18.9818423434
 20
-19.4305889423
 10
19.0018743947
 20
-19.378505609
 10
19.0018743947
 20
-19.378505609
 10
19.0239096511
 20
-19.3113982372
 10
19.0434409011
 20
-19.2412860577
 10
19.0594665422
 20
-19.1676682692
 10
19.0729881768
 20
-19.0910456731
 10
19.0830042024
 20
-19.0109174679
 10
19.0905162217
 20
-18.9272836538
 10
19.0950234332
 20
-18.8401442308
 10
19.096525837
 20
-18.75
 10
19.096525837
 20
-18.75
 10
19.0950234332
 20
-18.6598557692
 10
19.0915178242
 20
-18.5737179487
 10
19.0845066063
 20
-18.4920873397
 10
19.0754921832
 20
-18.414463141
 10
19.0634729524
 20
-18.3408453526
 10
19.0494505165
 20
-18.2717347756
 10
19.0319224717
 20
-18.206630609
 10
19.0123912217
 20
-18.1455328526
 10
18.9903559652
 20
-18.0884415064
 10
18.9663175037
 20
-18.0358573718
 10
18.940275837
 20
-17.9867788462
 10
18.9122309652
 20
-17.9417067308
 10
18.8821828883
 20
-17.9006410256
 10
18.849630805
 20
-17.8635817308
 10
18.8155763178
 20
-17.8305288462
 10
18.7795186255
 20
-17.8014823718
 10
18.7038976319
 20
-17.75390625
 10
18.6267742345
 20
-17.7193509615
 10
18.5471468306
 20
-17.6993189103
 10
18.4655162217
 20
-17.6923076923
 10
18.4655162217
 20
-17.6923076923
 10
18.3828840101
 20
-17.6993189103
 10
18.3022550037
 20
-17.7193509615
 10
18.224630805
 20
-17.75390625
 10
18.1490098114
 20
-17.8014823718
 10
18.1129521191
 20
-17.8300280449
 10
18.0793984332
 20
-17.8620793269
 10
18.0478479524
 20
-17.8976362179
 10
18.0188014781
 20
-17.9361979167
 10
17.9917582088
 20
-17.9777644231
 10
17.9667181447
 20
-18.0228365385
 10
17.944182087
 20
-18.0709134615
 10
17.9236492345
 20
-18.1224959936
 10
17.9056203883
 20
-18.1785857372
 10
17.8900955486
 20
-18.2411858974
 10
17.876573914
 20
-18.3097956731
 10
17.866057087
 20
-18.3854166667
 10
17.8575434652
 20
-18.4670472756
 10
17.8515338499
 20
-18.5546875
 10
17.8475274396
 20
-18.6493389423
 10
17.846525837
 20
-18.75
  0
LWPOLYLINE
  5
9E
330
1F
100
AcDbEntity
  8
0
  6
Continuous
 62
     7
100
AcDbPolyline
 90
       12
 70
   128
 43
0.0
 10
20.0765877962
 20
-17.5
 10
20.5388335293
 20
-17.5
 10
20.5388335293
 20
-17.5
 10
20.5388335293
 20
-20.0
 10
20.5388335293
 20
-20.0
 10
20.314474555
 20
-20.0
 10
20.314474555
 20
-20.0
 10
20.314474555
 20
-17.7564102564
 10
20.314474555
 20
-17.7564102564
 10
19.9298591704
 20
-17.7564102564
 10
19.9298591704
 20
-17.7564102564
 10
20.076593946
 20
-17.5
  0
LWPOLYLINE
  5
9F
330
1F
100
AcDbEntity
  8
0
  6
Continuous
 62
     7
100
AcDbPolyline
 90
       20
 70
   128
 43
0.0
 10
22.8329896927
 20
-17.4358974359
 10
22.8785771191
 20
-17.4358974359
 10
22.8785771191
 20
-17.4358974359
 10
22.8785771191
 20
-19.1666666667
 10
22.8785771191
 20
-19.1666666667
 10
23.1670386576
 20
-19.1666666667
 10
23.1670386576
 20
-19.1666666667
 10
23.1670386576
 20
-19.4230769231
 10
23.1670386576
 20
-19.4230769231
 10
22.8785771191
 20
-19.4230769231
 10
22.8785771191
 20
-19.4230769231
 10
22.8785771191
 20
-20.0
 10
22.8785771191
 20
-20.0
 10
22.6542181447
 20
-20.0
 10
22.6542181447
 20
-20.0
 10
22.6542181447
 20
-19.4230769231
 10
22.6542181447
 20
-19.4230769231
 10
21.4683207088
 20
-19.4230769231
 10
21.4683207088
 20
-19.4230769231
 10
22.8330042024
 20
-17.4358974359
  0
LWPOLYLINE
  5
A0
330
1F
100
AcDbEntity
  8
0
  6
Continuous
 62
     7
100
AcDbPolyline
 90
        6
 70
   128
 43
0.0
 10
22.6542055607
 20
-19.1666666667
 10
22.6542181447
 20
-18.0809294872
 10
22.6542181447
 20
-18.0809294872
 10
21.909025837
 20
-19.1666666667
 10
21.909025837
 20
-19.1666666667
 10
22.6542181447
 20
-19.1666666667
  0
LWPOLYLINE
  5
A1
330
1F
100
AcDbEntity
  8
0
  6
Continuous
 62
     7
100
AcDbPolyline
 90
       20
 70
   128
 43
0.0
 10
-37.7422571182
 20
14.4028329032
 10
-34.0884136329
 20
14.4028329032
 10
-34.0884136329
 20
14.4028329032
 10
-34.0884136329
 20
13.633602134
 10
-34.0884136329
 20
13.633602134
 10
-37.0691828637
 20
13.633602134
 10
-37.0691828637
 20
13.633602134
 10
-37.0691828637
 20
11.3259098263
 10
-37.0691828637
 20
11.3259098263
 10
-34.0884136329
 20
11.3259098263
 10
-34.0884136329
 20
11.3259098263
 10
-34.0884136329
 20
10.5566790571
 10
-34.0884136329
 20
10.5566790571
 10
-37.0691828637
 20
10.5566790571
 10
-37.0691828637
 20
10.5566790571
 10
-37.0691828637
 20
6.9028329032
 10
-37.0691828637
 20
6.9028329032
 10
-37.7422597867
 20
6.9028329032
 10
-37.7422597867
 20
6.9028329032
 10
-37.7422597867
 20
14.4028329032
  0
LWPOLYLINE
  5
A2
330
1F
100
AcDbEntity
  8
0
  6
Continuous
 62
     7
100
AcDbPolyline
 90
       62
 70
   128
 43
0.0
 10
-27.3576378822
 20
12.383602134
 10
-27.3576444021
 20
6.9028329032
 10
-27.3576444021
 20
6.9028329032
 10
-28.0307213252
 20
6.9028329032
 10
-28.0307213252
 20
6.9028329032
 10
-28.0307213252
 20
7.8508497301
 10
-28.0307213252
 20
7.8508497301
 10
-28.2635939214
 20
7.598445884
 10
-28.5084857483
 20
7.3820997301
 10
-28.7699040175
 20
7.2018112686
 10
-29.0433415175
 20
7.0575804994
 10
-29.3303006521
 20
6.9479050186
 10
-29.6292790175
 20
6.8697800186
 10
-29.9432814214
 20
6.8217030955
 10
-30.269303056
 20
6.8066790571
 10
-30.269303056
 20
6.8066790571
 10
-30.5592669983
 20
6.8202006917
 10
-30.8387141137
 20
6.8592631917
 10
-31.1076444021
 20
6.9238665571
 10
-31.3660578637
 20
7.0140107878
 10
-31.6124520944
 20
7.1311982878
 10
-31.8498319021
 20
7.2739266532
 10
-32.075192479
 20
7.442195884
 10
-32.290036229
 20
7.637508384
 10
-32.4868511329
 20
7.8508497301
 10
-32.6566227675
 20
8.0747079032
 10
-32.7993511329
 20
8.3105853071
 10
-32.9180410367
 20
8.5584819417
 10
-33.0096876714
 20
8.8168954032
 10
-33.0742910367
 20
9.0858256917
 10
-33.1133535367
 20
9.3667752109
 10
-33.1268751714
 20
9.6582415571
 10
-33.1268751714
 20
9.6582415571
 10
-33.1133535367
 20
9.9436982878
 10
-33.0742910367
 20
10.2201405955
 10
-33.0081852675
 20
10.4845636724
 10
-32.915036229
 20
10.7399723263
 10
-32.7963463252
 20
10.9833617494
 10
-32.652115556
 20
11.2162343455
 10
-32.4808415175
 20
11.4400925186
 10
-32.2825242098
 20
11.6519314609
 10
-32.066178056
 20
11.8457415571
 10
-31.8378126714
 20
12.0140107878
 10
-31.6004328637
 20
12.1567391532
 10
-31.3510338252
 20
12.2724242494
 10
-31.0911179598
 20
12.364070884
 10
-30.8206852675
 20
12.4286742494
 10
-30.5397357483
 20
12.4662343455
 10
-30.2482694021
 20
12.4797559801
 10
-30.2482694021
 20
12.4797559801
 10
-29.9132333444
 20
12.4632295378
 10
-29.594723729
 20
12.4136502109
 10
-29.292740556
 20
12.3295155955
 10
-29.0072838252
 20
12.2138304994
 10
-28.7383535367
 20
12.0620877109
 10
-28.4844472867
 20
11.8697800186
 10
-28.2500722867
 20
11.6399122301
 10
-28.0307213252
 20
11.3694795378
 10
-28.0307213252
 20
11.3694795378
 10
-28.0307213252
 20
12.383602134
 10
-28.0307213252
 20
12.383602134
 10
-27.3576444021
 20
12.383602134
  0
LWPOLYLINE
  5
A3
330
1F
100
AcDbEntity
  8
0
  6
Continuous
 62
     7
100
AcDbPolyline
 90
       56
 70
   128
 43
0.0
 10
-30.2392542362
 20
11.8066790571
 10
-30.5337261329
 20
11.7886502109
 10
-30.816178056
 20
11.7360660763
 10
-31.0866107483
 20
11.6474242494
 10
-31.3465266137
 20
11.524227134
 10
-31.586911229
 20
11.3694795378
 10
-31.801754979
 20
11.1846838648
 10
-31.9910578637
 20
10.9728449224
 10
-32.1548198829
 20
10.7309579032
 10
-32.2855290175
 20
10.4725444417
 10
-32.378678056
 20
10.2051165571
 10
-32.4357694021
 20
9.9316790571
 10
-32.4537982483
 20
9.6507295378
 10
-32.4537982483
 20
9.6507295378
 10
-32.4342669983
 20
9.3712824224
 10
-32.378678056
 20
9.0978449224
 10
-32.2840266137
 20
8.8304170378
 10
-32.1518150752
 20
8.5689987686
 10
-31.9865506521
 20
8.3256093455
 10
-31.7972477675
 20
8.1107655955
 10
-31.5809016137
 20
7.9244675186
 10
-31.3390145944
 20
7.7667151148
 10
-31.079098729
 20
7.6405131917
 10
-30.8101684406
 20
7.5518713648
 10
-30.532223729
 20
7.4977848263
 10
-30.2452645944
 20
7.4797559801
 10
-30.2452645944
 20
7.4797559801
 10
-29.9537982483
 20
7.4977848263
 10
-29.6698439214
 20
7.5503689609
 10
-29.3949040175
 20
7.6390107878
 10
-29.1274761329
 20
7.7637103071
 10
-28.8795794983
 20
7.9184579032
 10
-28.6602285367
 20
8.0987463648
 10
-28.4739304598
 20
8.3045756917
 10
-28.316178056
 20
8.5344434801
 10
-28.1914785367
 20
8.7853449224
 10
-28.101334306
 20
9.0527728071
 10
-28.0487501714
 20
9.3337223263
 10
-28.0307213252
 20
9.6311982878
 10
-28.0307213252
 20
9.6311982878
 10
-28.0412381521
 20
9.8580612686
 10
-28.071286229
 20
10.0759098263
 10
-28.120865556
 20
10.2847439609
 10
-28.1899761329
 20
10.4830612686
 10
-28.2801203637
 20
10.6723641532
 10
-28.3897958444
 20
10.8526526148
 10
-28.5190025752
 20
11.0224242494
 10
-28.6692429598
 20
11.1831814609
 10
-28.833004979
 20
11.328914634
 10
-29.0057814214
 20
11.4566189609
 10
-29.1890746906
 20
11.563289634
 10
-29.379879979
 20
11.6504290571
 10
-29.5812020944
 20
11.719539634
 10
-29.7915386329
 20
11.7676165571
 10
-30.0108895944
 20
11.797664634
 10
-30.239254979
 20
11.8066790571
  0
LWPOLYLINE
  5
A4
330
1F
100
AcDbEntity
  8
0
  6
Continuous
 62
     7
100
AcDbPolyline
 90
       22
 70
   128
 43
0.0
 10
-25.8191823959
 20
14.5951405955
 10
-25.1461059406
 20
14.5951405955
 10
-25.1461059406
 20
14.5951405955
 10
-25.1461059406
 20
10.1480252109
 10
-25.1461059406
 20
10.1480252109
 10
-22.652115556
 20
12.383602134
 10
-22.652115556
 20
12.383602134
 10
-21.684567479
 20
12.383602134
 10
-21.684567479
 20
12.383602134
 10
-24.5781972867
 20
9.7874482878
 10
-24.5781972867
 20
9.7874482878
 10
-21.3961059406
 20
6.9028329032
 10
-21.3961059406
 20
6.9028329032
 10
-22.3621516137
 20
6.9028329032
 10
-22.3621516137
 20
6.9028329032
 10
-25.1461059406
 20
9.4283737686
 10
-25.1461059406
 20
9.4283737686
 10
-25.1461059406
 20
6.9028329032
 10
-25.1461059406
 20
6.9028329032
 10
-25.8191828637
 20
6.9028329032
 10
-25.8191828637
 20
6.9028329032
 10
-25.8191828637
 20
14.5951405955
  0
LWPOLYLINE
  5
A5
330
1F
100
AcDbEntity
  8
0
  6
Continuous
 62
     7
100
AcDbPolyline
 90
      100
 70
   128
 43
0.0
 10
-16.1286741495
 20
8.633602134
 10
-15.5307213252
 20
8.3195997301
 10
-15.5307213252
 20
8.3195997301
 10
-15.6779569021
 20
8.0686982878
 10
-15.835709306
 20
7.8433377109
 10
-16.0039785367
 20
7.6420155955
 10
-16.1842669983
 20
7.4677367494
 10
-16.3750722867
 20
7.3159939609
 10
-16.5763944021
 20
7.1837824224
 10
-16.7912381521
 20
7.0695997301
 10
-17.016598729
 20
6.9749482878
 10
-17.2554809406
 20
6.9013304994
 10
-17.5093871906
 20
6.8487463648
 10
-17.778317479
 20
6.817195884
 10
-18.062271806
 20
6.8066790571
 10
-18.062271806
 20
6.8066790571
 10
-18.3777766137
 20
6.8202006917
 10
-18.6752525752
 20
6.8607655955
 10
-18.9546996906
 20
6.9283737686
 10
-19.2176203637
 20
7.0230252109
 10
-19.4610097867
 20
7.1447199224
 10
-19.6878727675
 20
7.2934579032
 10
-19.898209306
 20
7.4692391532
 10
-20.0890145944
 20
7.6720636724
 10
-20.2602886329
 20
7.891414634
 10
-20.4090266137
 20
8.1182776148
 10
-20.5337261329
 20
8.3526526148
 10
-20.6358895944
 20
8.594539634
 10
-20.7170194021
 20
8.8424362686
 10
-20.7741107483
 20
9.0963425186
 10
-20.8071636329
 20
9.3592631917
 10
-20.8191828637
 20
9.6281934801
 10
-20.8191828637
 20
9.6281934801
 10
-20.8086660367
 20
9.8805973263
 10
-20.7801203637
 20
10.1269915571
 10
-20.7305410367
 20
10.3658737686
 10
-20.6614304598
 20
10.5987463648
 10
-20.5727886329
 20
10.8241069417
 10
-20.464615556
 20
11.0419554994
 10
-20.3354088252
 20
11.2537944417
 10
-20.1881732483
 20
11.4581213648
 10
-20.1881732483
 20
11.4581213648
 10
-19.9793391137
 20
11.6970035763
 10
-19.7539785367
 20
11.9058377109
 10
-19.5120915175
 20
12.0801165571
 10
-19.2521756521
 20
12.2243473263
 10
-18.9757333444
 20
12.3355252109
 10
-18.6827645944
 20
12.4166550186
 10
-18.3732694021
 20
12.4632295378
 10
-18.0457453637
 20
12.4797559801
 10
-18.0457453637
 20
12.4797559801
 10
-17.7092069021
 20
12.4632295378
 10
-17.3891948829
 20
12.4121478071
 10
-17.0872117098
 20
12.3280131917
 10
-16.8032573829
 20
12.2108256917
 10
-16.5358294983
 20
12.0590829032
 10
-16.2864304598
 20
11.8727848263
 10
-16.0535578637
 20
11.6534338648
 10
-15.8387141137
 20
11.4010300186
 10
-15.8387141137
 20
11.4010300186
 10
-15.7004929598
 20
11.2042151148
 10
-15.581803056
 20
10.996883384
 10
-15.4796395944
 20
10.7760300186
 10
-15.3970073829
 20
10.5446598263
 10
-15.3309016137
 20
10.3012704032
 10
-15.2828246906
 20
10.0458617494
 10
-15.2542790175
 20
9.7784338648
 10
-15.2422597867
 20
9.4989867494
 10
-15.2422597867
 20
9.4989867494
 10
-20.1461059406
 20
9.4989867494
 10
-20.1461059406
 20
9.4989867494
 10
-20.132584306
 20
9.2826405955
 10
-20.102536229
 20
9.0753088648
 10
-20.054459306
 20
8.8784939609
 10
-19.9883535367
 20
8.692195884
 10
-19.907223729
 20
8.516414634
 10
-19.8080650752
 20
8.3496478071
 10
-19.6908775752
 20
8.1933978071
 10
-19.5571636329
 20
8.0461622301
 10
-19.409928056
 20
7.9139506917
 10
-19.2551804598
 20
7.7982655955
 10
-19.0914184406
 20
7.7006093455
 10
-18.9186419983
 20
7.6209819417
 10
-18.7383535367
 20
7.559383384
 10
-18.5490506521
 20
7.5158136724
 10
-18.3522357483
 20
7.4887704032
 10
-18.1464064214
 20
7.4797559801
 10
-18.1464064214
 20
7.4797559801
 10
-17.945084306
 20
7.4872679994
 10
-17.7482694021
 20
7.5113064609
 10
-17.5529569021
 20
7.5518713648
 10
-17.3606492098
 20
7.6074603071
 10
-17.1758535367
 20
7.676570884
 10
-17.0060819021
 20
7.7577006917
 10
-16.851334306
 20
7.8478449224
 10
-16.7101083444
 20
7.9485059801
 10
-16.5733895944
 20
8.0702006917
 10
-16.430661229
 20
8.2264506917
 10
-16.2819232483
 20
8.4127487686
 10
-16.128678056
 20
8.633602134
  0
LWPOLYLINE
  5
A6
330
1F
100
AcDbEntity
  8
0
  6
Continuous
 62
     7
100
AcDbPolyline
 90
       33
 70
   128
 43
0.0
 10
-15.9153342247
 20
10.1720636724
 10
-15.9949641137
 20
10.4379891532
 10
-16.0926203637
 20
10.6753689609
 10
-16.2053006521
 20
10.8842030955
 10
-16.3345073829
 20
11.0644915571
 10
-16.4817429598
 20
11.2237463648
 10
-16.6530169983
 20
11.3664747301
 10
-16.8453246906
 20
11.4926766532
 10
-17.0601684406
 20
11.602352134
 10
-17.2885338252
 20
11.6924963648
 10
-17.524411229
 20
11.7555973263
 10
-17.7647958444
 20
11.7946598263
 10
-18.0111900752
 20
11.8066790571
 10
-18.0111900752
 20
11.8066790571
 10
-18.2125121906
 20
11.7991670378
 10
-18.4078246906
 20
11.7751285763
 10
-18.5956251714
 20
11.7345636724
 10
-18.774411229
 20
11.6789747301
 10
-18.9486900752
 20
11.6053569417
 10
-19.1139544983
 20
11.5182175186
 10
-19.2717069021
 20
11.4130492494
 10
-19.4234496906
 20
11.2928569417
 10
-19.4234496906
 20
11.2928569417
 10
-19.5286179598
 20
11.1936982878
 10
-19.6262742098
 20
11.0825204032
 10
-19.7179208444
 20
10.9608256917
 10
-19.8020554598
 20
10.8271117494
 10
-19.8801804598
 20
10.6798761724
 10
-19.9522958444
 20
10.5221237686
 10
-20.0168992098
 20
10.3538545378
 10
-20.0754929598
 20
10.1720636724
 10
-20.0754929598
 20
10.1720636724
 10
-15.9153367098
 20
10.1720636724
  0
LWPOLYLINE
  5
A7
330
1F
100
AcDbEntity
  8
0
  6
Continuous
 62
     7
100
AcDbPolyline
 90
       53
 70
   128
 43
0.0
 10
-14.0884071589
 20
12.383602134
 10
-13.4153367098
 20
12.383602134
 10
-13.4153367098
 20
12.383602134
 10
-13.4153367098
 20
11.5768112686
 10
-13.4153367098
 20
11.5768112686
 10
-13.2620915175
 20
11.7991670378
 10
-13.1043391137
 20
11.9884699224
 10
-12.9435819021
 20
12.1432175186
 10
-12.778317479
 20
12.266414634
 10
-12.6085458444
 20
12.3595636724
 10
-12.4342669983
 20
12.4271718455
 10
-12.2584857483
 20
12.4662343455
 10
-12.0781972867
 20
12.4797559801
 10
-12.0781972867
 20
12.4797559801
 10
-11.938473729
 20
12.4677367494
 10
-11.7942429598
 20
12.4331814609
 10
-11.645504979
 20
12.3745877109
 10
-11.4922597867
 20
12.2919554994
 10
-11.4922597867
 20
12.2919554994
 10
-11.8618511329
 20
11.7090228071
 10
-11.8618511329
 20
11.7090228071
 10
-11.9595073829
 20
11.7510901148
 10
-12.0496516137
 20
11.7826405955
 10
-12.1322838252
 20
11.8006694417
 10
-12.2059016137
 20
11.8066790571
 10
-12.2059016137
 20
11.8066790571
 10
-12.3666588252
 20
11.7886502109
 10
-12.5259136329
 20
11.7345636724
 10
-12.680661229
 20
11.6444194417
 10
-12.8339064214
 20
11.5182175186
 10
-12.9075242098
 20
11.4415949224
 10
-12.9766347867
 20
11.3544554994
 10
-13.0397357483
 20
11.2583016532
 10
-13.0998319021
 20
11.1516309801
 10
-13.1554208444
 20
11.0344434801
 10
-13.2065025752
 20
10.9082415571
 10
-13.2530770944
 20
10.7715228071
 10
-13.2951444021
 20
10.625789634
 10
-13.2951444021
 20
10.625789634
 10
-13.3236900752
 20
10.4950804994
 10
-13.3477285367
 20
10.3343232878
 10
-13.3687621906
 20
10.1435179994
 10
-13.3852886329
 20
9.922664634
 10
-13.3988102675
 20
9.6732655955
 10
-13.4078246906
 20
9.3938184801
 10
-13.413834306
 20
9.0843232878
 10
-13.4153367098
 20
8.7447800186
 10
-13.4153367098
 20
8.7447800186
 10
-13.4153367098
 20
6.9028329032
 10
-13.4153367098
 20
6.9028329032
 10
-14.0884136329
 20
6.9028329032
 10
-14.0884136329
 20
6.9028329032
 10
-14.0884136329
 20
12.383602134
  0
LWPOLYLINE
  5
A8
330
1F
100
AcDbEntity
  8
0
  6
Continuous
 62
     7
100
AcDbPolyline
 90
       26
 70
   128
 43
0.0
 10
-8.1268697977
 20
6.9028329032
 10
-7.1367910367
 20
14.4028329032
 10
-7.1367910367
 20
14.4028329032
 10
-7.0406371906
 20
14.4028329032
 10
-7.0406371906
 20
14.4028329032
 10
-3.9441828637
 20
8.2489867494
 10
-3.9441828637
 20
8.2489867494
 10
-0.855240556
 20
14.4028329032
 10
-0.855240556
 20
14.4028329032
 10
-0.757584306
 20
14.4028329032
 10
-0.757584306
 20
14.4028329032
 10
0.238509444
 20
6.9028329032
 10
0.238509444
 20
6.9028329032
 10
-0.4375722867
 20
6.9028329032
 10
-0.4375722867
 20
6.9028329032
 10
-1.1557213252
 20
12.2994675186
 10
-1.1557213252
 20
12.2994675186
 10
-3.863053056
 20
6.9028329032
 10
-3.863053056
 20
6.9028329032
 10
-4.0147958444
 20
6.9028329032
 10
-4.0147958444
 20
6.9028329032
 10
-6.7326444021
 20
12.3114867494
 10
-6.7326444021
 20
12.3114867494
 10
-7.4492910367
 20
6.9028329032
 10
-7.4492910367
 20
6.9028329032
 10
-8.1268751714
 20
6.9028329032
  0
LWPOLYLINE
  5
A9
330
1F
100
AcDbEntity
  8
0
  6
Continuous
 62
     7
100
AcDbPolyline
 90
       62
 70
   128
 43
0.0
 10
7.1615837514
 20
12.383602134
 10
7.1615863671
 20
6.9028329032
 10
7.1615863671
 20
6.9028329032
 10
6.488509444
 20
6.9028329032
 10
6.488509444
 20
6.9028329032
 10
6.488509444
 20
7.8508497301
 10
6.488509444
 20
7.8508497301
 10
6.2556368479
 20
7.598445884
 10
6.010745021
 20
7.3820997301
 10
5.7493267517
 20
7.2018112686
 10
5.4758892517
 20
7.0575804994
 10
5.1889301171
 20
6.9479050186
 10
4.8899517517
 20
6.8697800186
 10
4.5759493479
 20
6.8217030955
 10
4.2499277133
 20
6.8066790571
 10
4.2499277133
 20
6.8066790571
 10
3.959963771
 20
6.8202006917
 10
3.6805166556
 20
6.8592631917
 10
3.4115863671
 20
6.9238665571
 10
3.1531729056
 20
7.0140107878
 10
2.9067786748
 20
7.1311982878
 10
2.6693988671
 20
7.2739266532
 10
2.4440382902
 20
7.442195884
 10
2.2291945402
 20
7.637508384
 10
2.0323796363
 20
7.8508497301
 10
1.8626080017
 20
8.0747079032
 10
1.7198796363
 20
8.3105853071
 10
1.6011897325
 20
8.5584819417
 10
1.5095430979
 20
8.8168954032
 10
1.4449397325
 20
9.0858256917
 10
1.4058772325
 20
9.3667752109
 10
1.3923555979
 20
9.6582415571
 10
1.3923555979
 20
9.6582415571
 10
1.4058772325
 20
9.9436982878
 10
1.4449397325
 20
10.2201405955
 10
1.5110455017
 20
10.4845636724
 10
1.6041945402
 20
10.7399723263
 10
1.722884444
 20
10.9833617494
 10
1.8671152133
 20
11.2162343455
 10
2.0383892517
 20
11.4400925186
 10
2.2367065594
 20
11.6519314609
 10
2.4530527133
 20
11.8457415571
 10
2.6814180979
 20
12.0140107878
 10
2.9187979056
 20
12.1567391532
 10
3.168196944
 20
12.2724242494
 10
3.4281128094
 20
12.364070884
 10
3.6985455017
 20
12.4286742494
 10
3.979495021
 20
12.4662343455
 10
4.2709613671
 20
12.4797559801
 10
4.2709613671
 20
12.4797559801
 10
4.6059974248
 20
12.4632295378
 10
4.9245070402
 20
12.4136502109
 10
5.2264902133
 20
12.3295155955
 10
5.511946944
 20
12.2138304994
 10
5.7808772325
 20
12.0620877109
 10
6.0347834825
 20
11.8697800186
 10
6.2691584825
 20
11.6399122301
 10
6.488509444
 20
11.3694795378
 10
6.488509444
 20
11.3694795378
 10
6.488509444
 20
12.383602134
 10
6.488509444
 20
12.383602134
 10
7.1615863671
 20
12.383602134
  0
LWPOLYLINE
  5
AA
330
1F
100
AcDbEntity
  8
0
  6
Continuous
 62
     7
100
AcDbPolyline
 90
       56
 70
   128
 43
0.0
 10
4.279974848
 20
11.8066790571
 10
3.9855046363
 20
11.7886502109
 10
3.7030527133
 20
11.7360660763
 10
3.432620021
 20
11.6474242494
 10
3.1727041556
 20
11.524227134
 10
2.9323195402
 20
11.3694795378
 10
2.7174757902
 20
11.1846838648
 10
2.5281729056
 20
10.9728449224
 10
2.3644108863
 20
10.7309579032
 10
2.2337017517
 20
10.4725444417
 10
2.1405527133
 20
10.2051165571
 10
2.0834613671
 20
9.9316790571
 10
2.065432521
 20
9.6507295378
 10
2.065432521
 20
9.6507295378
 10
2.084963771
 20
9.3712824224
 10
2.1405527133
 20
9.0978449224
 10
2.2352041556
 20
8.8304170378
 10
2.367415694
 20
8.5689987686
 10
2.5326801171
 20
8.3256093455
 10
2.7219830017
 20
8.1107655955
 10
2.9383291556
 20
7.9244675186
 10
3.1802161748
 20
7.7667151148
 10
3.4401320402
 20
7.6405131917
 10
3.7090623286
 20
7.5518713648
 10
3.9870070402
 20
7.4977848263
 10
4.2739661748
 20
7.4797559801
 10
4.2739661748
 20
7.4797559801
 10
4.565432521
 20
7.4977848263
 10
4.8493868479
 20
7.5503689609
 10
5.1243267517
 20
7.6390107878
 10
5.3917546363
 20
7.7637103071
 10
5.639651271
 20
7.9184579032
 10
5.8590022325
 20
8.0987463648
 10
6.0453003094
 20
8.3045756917
 10
6.2030527133
 20
8.5344434801
 10
6.3277522325
 20
8.7853449224
 10
6.4178964633
 20
9.0527728071
 10
6.4704805979
 20
9.3337223263
 10
6.488509444
 20
9.6311982878
 10
6.488509444
 20
9.6311982878
 10
6.4779926171
 20
9.8580612686
 10
6.4479445402
 20
10.0759098263
 10
6.3983652133
 20
10.2847439609
 10
6.3292546363
 20
10.4830612686
 10
6.2391104056
 20
10.6723641532
 10
6.1294349248
 20
10.8526526148
 10
6.000228194
 20
11.0224242494
 10
5.8499878094
 20
11.1831814609
 10
5.6862257902
 20
11.328914634
 10
5.5134493479
 20
11.4566189609
 10
5.3301560786
 20
11.563289634
 10
5.1393507902
 20
11.6504290571
 10
4.9380286748
 20
11.719539634
 10
4.7276921363
 20
11.7676165571
 10
4.5083411748
 20
11.797664634
 10
4.2799757902
 20
11.8066790571
  0
LWPOLYLINE
  5
AB
330
1F
100
AcDbEntity
  8
0
  6
Continuous
 62
     7
100
AcDbPolyline
 90
       36
 70
   128
 43
0.0
 10
8.9374259114
 20
14.6912944417
 10
9.0621272325
 20
14.6807776148
 10
9.1778123286
 20
14.649227134
 10
9.2844830017
 20
14.5951405955
 10
9.3806368479
 20
14.5215228071
 10
9.4617666556
 20
14.4328809801
 10
9.5188580017
 20
14.3337223263
 10
9.5534132902
 20
14.2270516532
 10
9.565432521
 20
14.1113665571
 10
9.565432521
 20
14.1113665571
 10
9.5534132902
 20
13.9986862686
 10
9.5188580017
 20
13.8935179994
 10
9.4617666556
 20
13.7958617494
 10
9.3806368479
 20
13.7072199224
 10
9.2844830017
 20
13.633602134
 10
9.1778123286
 20
13.5795155955
 10
9.0621272325
 20
13.5479651148
 10
8.9374277133
 20
13.5374482878
 10
8.9374277133
 20
13.5374482878
 10
8.8142305979
 20
13.5479651148
 10
8.7015503094
 20
13.5795155955
 10
8.5948796363
 20
13.633602134
 10
8.4987257902
 20
13.7072199224
 10
8.4190983863
 20
13.7958617494
 10
8.3620070402
 20
13.8935179994
 10
8.3274517517
 20
13.9986862686
 10
8.315432521
 20
14.1113665571
 10
8.315432521
 20
14.1113665571
 10
8.3274517517
 20
14.2270516532
 10
8.3620070402
 20
14.3337223263
 10
8.4190983863
 20
14.4328809801
 10
8.4987257902
 20
14.5215228071
 10
8.5948796363
 20
14.5951405955
 10
8.7015503094
 20
14.649227134
 10
8.8142305979
 20
14.6807776148
 10
8.9374277133
 20
14.6912944417
  0
LWPOLYLINE
  5
AC
330
1F
100
AcDbEntity
  8
0
  6
Continuous
 62
     7
100
AcDbPolyline
 90
        8
 70
   128
 43
0.0
 10
8.6038932204
 20
12.383602134
 10
9.2769709825
 20
12.383602134
 10
9.2769709825
 20
12.383602134
 10
9.2769709825
 20
6.9028329032
 10
9.2769709825
 20
6.9028329032
 10
8.6038940594
 20
6.9028329032
 10
8.6038940594
 20
6.9028329032
 10
8.6038940594
 20
12.383602134
  0
LWPOLYLINE
  5
AD
330
1F
100
AcDbEntity
  8
0
  6
Continuous
 62
     7
100
AcDbPolyline
 90
       53
 70
   128
 43
0.0
 10
10.7192769647
 20
12.383602134
 10
11.3923555979
 20
12.383602134
 10
11.3923555979
 20
12.383602134
 10
11.3923555979
 20
11.5768112686
 10
11.3923555979
 20
11.5768112686
 10
11.5456007902
 20
11.7991670378
 10
11.703353194
 20
11.9884699224
 10
11.8641104056
 20
12.1432175186
 10
12.0293748286
 20
12.266414634
 10
12.1991464633
 20
12.3595636724
 10
12.3734253094
 20
12.4271718455
 10
12.5492065594
 20
12.4662343455
 10
12.729495021
 20
12.4797559801
 10
12.729495021
 20
12.4797559801
 10
12.8692185786
 20
12.4677367494
 10
13.0134493479
 20
12.4331814609
 10
13.1621873286
 20
12.3745877109
 10
13.315432521
 20
12.2919554994
 10
13.315432521
 20
12.2919554994
 10
12.9458411748
 20
11.7090228071
 10
12.9458411748
 20
11.7090228071
 10
12.8481849248
 20
11.7510901148
 10
12.758040694
 20
11.7826405955
 10
12.6754084825
 20
11.8006694417
 10
12.601790694
 20
11.8066790571
 10
12.601790694
 20
11.8066790571
 10
12.4410334825
 20
11.7886502109
 10
12.2817786748
 20
11.7345636724
 10
12.1270310786
 20
11.6444194417
 10
11.9737858863
 20
11.5182175186
 10
11.9001680979
 20
11.4415949224
 10
11.831057521
 20
11.3544554994
 10
11.7679565594
 20
11.2583016532
 10
11.7078604056
 20
11.1516309801
 10
11.6522714633
 20
11.0344434801
 10
11.6011897325
 20
10.9082415571
 10
11.5546152133
 20
10.7715228071
 10
11.5125479056
 20
10.625789634
 10
11.5125479056
 20
10.625789634
 10
11.4840022325
 20
10.4950804994
 10
11.459963771
 20
10.3343232878
 10
11.4389301171
 20
10.1435179994
 10
11.4224036748
 20
9.922664634
 10
11.4088820402
 20
9.6732655955
 10
11.3998676171
 20
9.3938184801
 10
11.3938580017
 20
9.0843232878
 10
11.3923555979
 20
8.7447800186
 10
11.3923555979
 20
8.7447800186
 10
11.3923555979
 20
6.9028329032
 10
11.3923555979
 20
6.9028329032
 10
10.7192786748
 20
6.9028329032
 10
10.7192786748
 20
6.9028329032
 10
10.7192786748
 20
12.383602134
  0
LWPOLYLINE
  5
AE
330
1F
100
AcDbEntity
  8
0
  6
Continuous
 62
     7
100
AcDbPolyline
 90
      100
 70
   128
 43
0.0
 10
18.4866935015
 20
8.633602134
 10
19.0846632902
 20
8.3195997301
 10
19.0846632902
 20
8.3195997301
 10
18.9374277133
 20
8.0686982878
 10
18.7796753094
 20
7.8433377109
 10
18.6114060786
 20
7.6420155955
 10
18.4311176171
 20
7.4677367494
 10
18.2403123286
 20
7.3159939609
 10
18.0389902133
 20
7.1837824224
 10
17.8241464633
 20
7.0695997301
 10
17.5987858863
 20
6.9749482878
 10
17.3599036748
 20
6.9013304994
 10
17.1059974248
 20
6.8487463648
 10
16.8370671363
 20
6.817195884
 10
16.5531128094
 20
6.8066790571
 10
16.5531128094
 20
6.8066790571
 10
16.2376080017
 20
6.8202006917
 10
15.9401320402
 20
6.8607655955
 10
15.6606849248
 20
6.9283737686
 10
15.3977642517
 20
7.0230252109
 10
15.1543748286
 20
7.1447199224
 10
14.9275118479
 20
7.2934579032
 10
14.7171753094
 20
7.4692391532
 10
14.526370021
 20
7.6720636724
 10
14.3550959825
 20
7.891414634
 10
14.2063580017
 20
8.1182776148
 10
14.0816584825
 20
8.3526526148
 10
13.979495021
 20
8.594539634
 10
13.8983652133
 20
8.8424362686
 10
13.8412738671
 20
9.0963425186
 10
13.8082209825
 20
9.3592631917
 10
13.7962017517
 20
9.6281934801
 10
13.7962017517
 20
9.6281934801
 10
13.8067185786
 20
9.8805973263
 10
13.8352642517
 20
10.1269915571
 10
13.8848435786
 20
10.3658737686
 10
13.9539541556
 20
10.5987463648
 10
14.0425959825
 20
10.8241069417
 10
14.1507690594
 20
11.0419554994
 10
14.2799757902
 20
11.2537944417
 10
14.4272113671
 20
11.4581213648
 10
14.4272113671
 20
11.4581213648
 10
14.6360455017
 20
11.6970035763
 10
14.8614060786
 20
11.9058377109
 10
15.1032930979
 20
12.0801165571
 10
15.3632089633
 20
12.2243473263
 10
15.639651271
 20
12.3355252109
 10
15.932620021
 20
12.4166550186
 10
16.2421152133
 20
12.4632295378
 10
16.5696392517
 20
12.4797559801
 10
16.5696392517
 20
12.4797559801
 10
16.9061777133
 20
12.4632295378
 10
17.2261897325
 20
12.4121478071
 10
17.5281729056
 20
12.3280131917
 10
17.8121272325
 20
12.2108256917
 10
18.0795551171
 20
12.0590829032
 10
18.3289541556
 20
11.8727848263
 10
18.5618267517
 20
11.6534338648
 10
18.7766705017
 20
11.4010300186
 10
18.7766705017
 20
11.4010300186
 10
18.9148916556
 20
11.2042151148
 10
19.0335815594
 20
10.996883384
 10
19.135745021
 20
10.7760300186
 10
19.2183772325
 20
10.5446598263
 10
19.2844830017
 20
10.3012704032
 10
19.3325599248
 20
10.0458617494
 10
19.3611055979
 20
9.7784338648
 10
19.3731248286
 20
9.4989867494
 10
19.3731248286
 20
9.4989867494
 10
14.4692786748
 20
9.4989867494
 10
14.4692786748
 20
9.4989867494
 10
14.4828003094
 20
9.2826405955
 10
14.5128483863
 20
9.0753088648
 10
14.5609253094
 20
8.8784939609
 10
14.6270310786
 20
8.692195884
 10
14.7081608863
 20
8.516414634
 10
14.8073195402
 20
8.3496478071
 10
14.9245070402
 20
8.1933978071
 10
15.0582209825
 20
8.0461622301
 10
15.2054565594
 20
7.9139506917
 10
15.3602041556
 20
7.7982655955
 10
15.5239661748
 20
7.7006093455
 10
15.6967426171
 20
7.6209819417
 10
15.8770310786
 20
7.559383384
 10
16.0663339633
 20
7.5158136724
 10
16.2631488671
 20
7.4887704032
 10
16.468978194
 20
7.4797559801
 10
16.468978194
 20
7.4797559801
 10
16.6703003094
 20
7.4872679994
 10
16.8671152133
 20
7.5113064609
 10
17.0624277133
 20
7.5518713648
 10
17.2547354056
 20
7.6074603071
 10
17.4395310786
 20
7.676570884
 10
17.6093027133
 20
7.7577006917
 10
17.7640503094
 20
7.8478449224
 10
17.905276271
 20
7.9485059801
 10
18.041995021
 20
8.0702006917
 10
18.1847233863
 20
8.2264506917
 10
18.3334613671
 20
8.4127487686
 10
18.4867065594
 20
8.633602134
  0
LWPOLYLINE
  5
AF
330
1F
100
AcDbEntity
  8
0
  6
Continuous
 62
     7
100
AcDbPolyline
 90
       33
 70
   128
 43
0.0
 10
18.7000334263
 20
10.1720636724
 10
18.6204205017
 20
10.4379891532
 10
18.5227642517
 20
10.6753689609
 10
18.4100839633
 20
10.8842030955
 10
18.2808772325
 20
11.0644915571
 10
18.1336416556
 20
11.2237463648
 10
17.9623676171
 20
11.3664747301
 10
17.7700599248
 20
11.4926766532
 10
17.5552161748
 20
11.602352134
 10
17.3268507902
 20
11.6924963648
 10
17.0909733863
 20
11.7555973263
 10
16.850588771
 20
11.7946598263
 10
16.6041945402
 20
11.8066790571
 10
16.6041945402
 20
11.8066790571
 10
16.4028724248
 20
11.7991670378
 10
16.2075599248
 20
11.7751285763
 10
16.019759444
 20
11.7345636724
 10
15.8409733863
 20
11.6789747301
 10
15.6666945402
 20
11.6053569417
 10
15.5014301171
 20
11.5182175186
 10
15.3436777133
 20
11.4130492494
 10
15.1919349248
 20
11.2928569417
 10
15.1919349248
 20
11.2928569417
 10
15.0867666556
 20
11.1936982878
 10
14.9891104056
 20
11.0825204032
 10
14.897463771
 20
10.9608256917
 10
14.8133291556
 20
10.8271117494
 10
14.7352041556
 20
10.6798761724
 10
14.663088771
 20
10.5221237686
 10
14.5984854056
 20
10.3538545378
 10
14.5398916556
 20
10.1720636724
 10
14.5398916556
 20
10.1720636724
 10
18.7000479056
 20
10.1720636724
  0
LWPOLYLINE
  5
B0
330
1F
100
AcDbEntity
  8
0
  6
Continuous
 62
     7
100
AcDbPolyline
 90
      107
 70
   128
 43
0.0
 10
23.7962007523
 20
14.4028329032
 10
24.4692786748
 20
14.4028329032
 10
24.4692786748
 20
14.4028329032
 10
24.4692786748
 20
9.9091429994
 10
24.4692786748
 20
9.9091429994
 10
24.4692786748
 20
9.7183377109
 10
24.4707810786
 20
9.5470636724
 10
24.4737858863
 20
9.3938184801
 10
24.476790694
 20
9.2601045378
 10
24.4812979056
 20
9.1444194417
 10
24.4858051171
 20
9.0482655955
 10
24.4918147325
 20
8.9701405955
 10
24.4993267517
 20
8.9115468455
 10
24.4993267517
 20
8.9115468455
 10
24.5368868479
 20
8.7012103071
 10
24.5924757902
 20
8.5074002109
 10
24.6675959825
 20
8.3331213648
 10
24.7592426171
 20
8.1753689609
 10
24.8749277133
 20
8.0341429994
 10
25.0176560786
 20
7.9034338648
 10
25.1889301171
 20
7.7862463648
 10
25.385745021
 20
7.6795756917
 10
25.5975839633
 20
7.5924362686
 10
25.8094229056
 20
7.5293353071
 10
26.0227642517
 20
7.4917752109
 10
26.2361055979
 20
7.4797559801
 10
26.2361055979
 20
7.4797559801
 10
26.4193988671
 20
7.4902728071
 10
26.5996873286
 20
7.5188184801
 10
26.7754685786
 20
7.5683978071
 10
26.948245021
 20
7.6360059801
 10
27.1120070402
 20
7.7231454032
 10
27.260745021
 20
7.8238064609
 10
27.3959613671
 20
7.9409939609
 10
27.5176560786
 20
8.0717030955
 10
27.6243267517
 20
8.2174362686
 10
27.7174757902
 20
8.379695884
 10
27.7925959825
 20
8.5539747301
 10
27.8541945402
 20
8.7447800186
 10
27.8541945402
 20
8.7447800186
 10
27.8722233863
 20
8.8244074224
 10
27.8872474248
 20
8.9235660763
 10
27.9007690594
 20
9.0422559801
 10
27.9112858863
 20
9.1774723263
 10
27.9203003094
 20
9.3322199224
 10
27.9263099248
 20
9.5064987686
 10
27.9293147325
 20
9.6988064609
 10
27.9308171363
 20
9.9091429994
 10
27.9308171363
 20
9.9091429994
 10
27.9308171363
 20
14.4028329032
 10
27.9308171363
 20
14.4028329032
 10
28.6038940594
 20
14.4028329032
 10
28.6038940594
 20
14.4028329032
 10
28.6038940594
 20
9.8730853071
 10
28.6038940594
 20
9.8730853071
 10
28.6008892517
 20
9.6281934801
 10
28.5918748286
 20
9.395320884
 10
28.5768507902
 20
9.1729651148
 10
28.5558171363
 20
8.9641309801
 10
28.5287738671
 20
8.7673160763
 10
28.4972233863
 20
8.5825204032
 10
28.4581608863
 20
8.4082415571
 10
28.413088771
 20
8.2474843455
 10
28.3605046363
 20
8.0957415571
 10
28.2943988671
 20
7.9485059801
 10
28.217776271
 20
7.8057776148
 10
28.129134444
 20
7.6690588648
 10
28.0269709825
 20
7.5353449224
 10
27.914290694
 20
7.4091429994
 10
27.7895911748
 20
7.285945884
 10
27.6528724248
 20
7.168758384
 10
27.5071392517
 20
7.0620877109
 10
27.3538940594
 20
6.9689386724
 10
27.191634444
 20
6.8893112686
 10
27.0233652133
 20
6.8247079032
 10
26.8475839633
 20
6.7751285763
 10
26.664290694
 20
6.739070884
 10
26.4719830017
 20
6.7180372301
 10
26.273665694
 20
6.7105252109
 10
26.273665694
 20
6.7105252109
 10
26.0573195402
 20
6.7180372301
 10
25.8499878094
 20
6.7375684801
 10
25.6501680979
 20
6.7721237686
 10
25.4578604056
 20
6.8186982878
 10
25.2730647325
 20
6.8802968455
 10
25.0972834825
 20
6.953914634
 10
24.9290142517
 20
7.0425564609
 10
24.7682570402
 20
7.1432175186
 10
24.6180166556
 20
7.2558978071
 10
24.4812979056
 20
7.3775925186
 10
24.3565983863
 20
7.5083016532
 10
24.2454205017
 20
7.6480252109
 10
24.1477642517
 20
7.7952607878
 10
24.0621272325
 20
7.9530131917
 10
23.9900118479
 20
8.1182776148
 10
23.929915694
 20
8.2925564609
 10
23.929915694
 20
8.2925564609
 10
23.8983652133
 20
8.4127487686
 10
23.871321944
 20
8.555477134
 10
23.8487858863
 20
8.7207415571
 10
23.8292546363
 20
8.907039634
 10
23.8157330017
 20
9.1158737686
 10
23.8052161748
 20
9.3457415571
 10
23.7977041556
 20
9.5981454032
 10
23.7962017517
 20
9.8730853071
 10
23.7962017517
 20
9.8730853071
 10
23.7962017517
 20
14.4028329032
  0
LWPOLYLINE
  5
B1
330
1F
100
AcDbEntity
  8
0
  6
Continuous
 62
     7
100
AcDbPolyline
 90
       22
 70
   128
 43
0.0
 10
30.5269658566
 20
14.4028329032
 10
31.2000479056
 20
14.4028329032
 10
31.2000479056
 20
14.4028329032
 10
31.2000479056
 20
11.5467631917
 10
31.2000479056
 20
11.5467631917
 10
34.3265503094
 20
14.4028329032
 10
34.3265503094
 20
14.4028329032
 10
35.2865863671
 20
14.4028329032
 10
35.2865863671
 20
14.4028329032
 10
31.6011897325
 20
11.0374482878
 10
31.6011897325
 20
11.0374482878
 10
35.5750479056
 20
6.9028329032
 10
35.5750479056
 20
6.9028329032
 10
34.6781128094
 20
6.9028329032
 10
34.6781128094
 20
6.9028329032
 10
31.2000479056
 20
10.5221237686
 10
31.2000479056
 20
10.5221237686
 10
31.2000479056
 20
6.9028329032
 10
31.2000479056
 20
6.9028329032
 10
30.5269709825
 20
6.9028329032
 10
30.5269709825
 20
6.9028329032
 10
30.5269709825
 20
14.4028329032
  0
POINT
  5
B2
330
1F
100
AcDbEntity
  8
0
  6
Continuous
 62
     7
100
AcDbPoint
 10
0.0
 20
0.0
 30
0.0
  0
POINT
  5
B3
330
1F
100
AcDbEntity
  8
0
  6
Continuous
 62
     7
100
AcDbPoint
 10
0.0
 20
20.75
 30
0.0
  0
LINE
  5
D6
330
1F
100
AcDbEntity
  8
0
100
AcDbLine
 10
-16.2770097009
 20
-11.6666666667
 30
0.0
 11
-16.2770097009
 21
-13.0
 31
0.0
  0
LINE
  5
D7
330
1F
100
AcDbEntity
  8
0
100
AcDbLine
 10
-14.1415930342
 20
-11.6614583333
 30
0.0
 11
-14.1415930342
 21
-13.0
 31
0.0
  0
LWPOLYLINE
  5
D8
330
1F
100
AcDbEntity
  8
0
  6
Continuous
 62
     7
100
AcDbPolyline
 90
        2
 70
   128
 43
0.0
 10
-16.27700970090001
 20
-13.0
 10
-17.4436763675
 20
-13.0
  0
LINE
  5
D9
330
1F
100
AcDbEntity
  8
0
100
AcDbLine
 10
-0.2002138501504662
 20
-7.5
 30
0.0
 11
-0.2002138501504665
 21
-8.8333333333
 31
0.0
  0
LINE
  5
DA
330
1F
100
AcDbEntity
  8
0
100
AcDbLine
 10
2.253608998974051
 20
-7.5
 30
0.0
 11
2.25360899897405
 21
-8.8333333333
 31
0.0
  0
LWPOLYLINE
  5
DB
330
1F
100
AcDbEntity
  8
0
  6
Continuous
 62
     7
100
AcDbPolyline
 90
        4
 70
   128
 43
0.0
 10
2.253608998974051
 20
-7.5
 10
3.4183027991
 20
-7.5
 10
3.4183027991
 20
-7.5
 10
1.1266361325
 20
-2.533854166699999
  0
LWPOLYLINE
  5
DC
330
1F
100
AcDbEntity
  8
0
  6
Continuous
 62
     7
100
AcDbPolyline
 90
       10
 70
   128
 43
0.0
 10
-0.200213850150468
 20
-8.8333333333
 10
-1.8603430342
 20
-8.8333333333
 10
-1.8603430342
 20
-8.8333333333
 10
-3.8369055342
 20
-13.0
 10
-3.8369055342
 20
-13.0
 10
-5.1103430342
 20
-13.0
 10
-5.1103430342
 20
-13.0
 10
1.0563236325
 20
0.0
 10
1.0563236325
 20
0.0
 10
1.2229902991
 20
0.0
  0
ENDSEC
  0
SECTION
  2
OBJECTS
  0
DICTIONARY
  5
C
330
0
100
AcDbDictionary
281
     1
  3
ACAD_DETAILVIEWSTYLE
350
E6
  3
ACAD_GROUP
350
D
  3
ACAD_IMAGE_VARS
350
D5
  3
ACAD_LAYOUT
350
1A
  3
ACAD_MATERIAL
350
CD
  3
ACAD_MLEADERSTYLE
350
E4
  3
ACAD_MLINESTYLE
350
17
  3
ACAD_PLOTSETTINGS
350
19
  3
ACAD_PLOTSTYLENAME
350
E
  3
ACAD_SCALELIST
350
47
  3
ACAD_SECTIONVIEWSTYLE
350
E7
  3
ACAD_TABLESTYLE
350
D1
  3
ACAD_VISUALSTYLE
350
B4
  3
ACDB_RECOMPOSE_DATA
350
E2
  3
AcDbVariableDictionary
350
DD
  3
APPDATA
350
D3
  0
SUN
  5
D4
330
29
100
AcDbSun
 90
        1
290
     0
 63
     7
421
 16777215
 40
1.0
291
     1
 91
  2455826
 92
 54000000
292
     0
 70
     2
 71
   256
280
     1
  0
DICTIONARY
  5
E6
102
{ACAD_REACTORS
330
C
102
}
330
C
100
AcDbDictionary
281
     1
  0
DICTIONARY
  5
D
102
{ACAD_REACTORS
330
C
102
}
330
C
100
AcDbDictionary
281
     1
  0
RASTERVARIABLES
  5
D5
102
{ACAD_REACTORS
330
C
102
}
330
C
100
AcDbRasterVariables
 90
        0
 70
     1
 71
     1
 72
     1
  0
DICTIONARY
  5
1A
102
{ACAD_REACTORS
330
C
102
}
330
C
100
AcDbDictionary
281
     1
  3
Layout1
350
1E
  3
Layout2
350
26
  3
Model
350
22
  0
DICTIONARY
  5
CD
102
{ACAD_REACTORS
330
C
102
}
330
C
100
AcDbDictionary
281
     1
  3
ByBlock
350
CF
  3
ByLayer
350
CE
  3
Global
350
D0
  0
DICTIONARY
  5
E4
102
{ACAD_REACTORS
330
C
102
}
330
C
100
AcDbDictionary
281
     1
  0
DICTIONARY
  5
17
102
{ACAD_REACTORS
330
C
102
}
330
C
100
AcDbDictionary
281
     1
  3
Standard
350
18
  0
DICTIONARY
  5
19
102
{ACAD_REACTORS
330
C
102
}
330
C
100
AcDbDictionary
281
     1
  0
ACDBDICTIONARYWDFLT
  5
E
102
{ACAD_REACTORS
330
C
102
}
330
C
100
AcDbDictionary
281
     1
  3
Normal
350
F
100
AcDbDictionaryWithDefault
340
F
  0
DICTIONARY
  5
47
102
{ACAD_REACTORS
330
C
102
}
330
C
100
AcDbDictionary
281
     1
  3
A0
350
48
  3
A1
350
49
  3
A2
350
4A
  3
A3
350
4B
  3
A4
350
4C
  3
A5
350
4D
  3
A6
350
4E
  3
A7
350
4F
  3
A8
350
50
  3
A9
350
51
  3
B0
350
52
  3
B1
350
53
  3
B2
350
54
  3
B3
350
55
  3
B4
350
56
  3
B5
350
57
  3
B6
350
58
  3
B7
350
59
  3
B8
350
5A
  3
B9
350
5B
  3
C0
350
5C
  3
C1
350
5D
  3
C2
350
5E
  3
C3
350
5F
  3
C4
350
60
  3
C5
350
61
  3
C6
350
62
  3
C7
350
63
  3
C8
350
64
  3
C9
350
65
  3
D0
350
66
  3
D1
350
67
  3
D2
350
68
  0
DICTIONARY
  5
E7
102
{ACAD_REACTORS
330
C
102
}
330
C
100
AcDbDictionary
281
     1
  0
DICTIONARY
  5
D1
102
{ACAD_REACTORS
330
C
102
}
330
C
100
AcDbDictionary
281
     1
  3
Standard
350
D2
  0
DICTIONARY
  5
B4
102
{ACAD_REACTORS
330
C
102
}
330
C
100
AcDbDictionary
281
     1
  3
2dWireframe
350
B9
  3
Basic
350
BC
  3
Brighten
350
C0
  3
ColorChange
350
C4
  3
Conceptual
350
BE
  3
Dim
350
BF
  3
EdgeColorOff
350
C7
  3
Facepattern
350
C3
  3
Flat
350
B5
  3
FlatWithEdges
350
B6
  3
Gouraud
350
B7
  3
GouraudWithEdges
350
B8
  3
Hidden
350
BB
  3
JitterOff
350
C5
  3
Linepattern
350
C2
  3
OverhangOff
350
C6
  3
Realistic
350
BD
  3
Shaded
350
CC
  3
Shaded with edges
350
CB
  3
Shades of Gray
350
C8
  3
Sketchy
350
C9
  3
Thicken
350
C1
  3
Wireframe
350
BA
  3
X-Ray
350
CA
  0
XRECORD
  5
E2
102
{ACAD_REACTORS
330
C
102
}
330
C
100
AcDbXrecord
280
     1
 90
        1
330
D2
  0
DICTIONARY
  5
DD
102
{ACAD_REACTORS
330
C
102
}
330
C
100
AcDbDictionary
281
     1
  3
CANNOSCALE
350
DE
  3
CTABLESTYLE
350
E3
  3
LIGHTINGUNITS
350
DF
  3
MSLTSCALE
350
E5
  0
DICTIONARY
  5
D3
102
{ACAD_REACTORS
330
C
102
}
330
C
100
AcDbDictionary
281
     1
  0
LAYOUT
  5
1E
102
{ACAD_REACTORS
330
1A
102
}
330
1A
100
AcDbPlotSettings
  1

  2
none_device
  4

  6

 40
0.0
 41
0.0
 42
0.0
 43
0.0
 44
0.0
 45
0.0
 46
0.0
 47
0.0
 48
0.0
 49
0.0
140
0.0
141
0.0
142
1.0
143
1.0
 70
   688
 72
     1
 73
     0
 74
     5
  7

 75
    16
 76
     0
 77
     2
 78
   300
147
1.0
148
0.0
149
0.0
100
AcDbLayout
  1
Layout1
 70
     1
 71
     1
 10
0.0
 20
0.0
 11
420.0
 21
297.0
 12
0.0
 22
0.0
 32
0.0
 14
1.000000000000000E+20
 24
1.000000000000000E+20
 34
1.000000000000000E+20
 15
-1.000000000000000E+20
 25
-1.000000000000000E+20
 35
-1.000000000000000E+20
146
0.0
 13
0.0
 23
0.0
 33
0.0
 16
1.0
 26
0.0
 36
0.0
 17
0.0
 27
1.0
 37
0.0
 76
     0
330
1B
  0
LAYOUT
  5
26
102
{ACAD_REACTORS
330
1A
102
}
330
1A
100
AcDbPlotSettings
  1

  2
none_device
  4

  6

 40
0.0
 41
0.0
 42
0.0
 43
0.0
 44
0.0
 45
0.0
 46
0.0
 47
0.0
 48
0.0
 49
0.0
140
0.0
141
0.0
142
1.0
143
1.0
 70
   688
 72
     1
 73
     0
 74
     5
  7

 75
    16
 76
     0
 77
     2
 78
   300
147
1.0
148
0.0
149
0.0
100
AcDbLayout
  1
Layout2
 70
     1
 71
     2
 10
0.0
 20
0.0
 11
0.0
 21
0.0
 12
0.0
 22
0.0
 32
0.0
 14
0.0
 24
0.0
 34
0.0
 15
0.0
 25
0.0
 35
0.0
146
0.0
 13
0.0
 23
0.0
 33
0.0
 16
1.0
 26
0.0
 36
0.0
 17
0.0
 27
1.0
 37
0.0
 76
     0
330
23
  0
LAYOUT
  5
22
102
{ACAD_REACTORS
330
1A
102
}
330
1A
100
AcDbPlotSettings
  1

  2
none_device
  4
ANSI_A_(11.00_x_8.50_Inches)
  6

 40
6.35
 41
19.05
 42
6.35000508
 43
19.05000254
 44
279.4
 45
215.9
 46
133.34999746
 47
88.89999873
 48
0.0
 49
0.0
140
0.0
141
0.0
142
0.1089
143
1.0
 70
  1696
 72
     0
 73
     0
 74
     0
  7

 75
     0
 76
     0
 77
     2
 78
   300
147
0.0179189148
148
-1300.4909072572
149
0.0
100
AcDbLayout
  1
Model
 70
     1
 71
     0
 10
0.0
 20
0.0
 11
420.0
 21
297.0
 12
0.0
 22
0.0
 32
0.0
 14
-50.0
 24
-27.5
 34
0.0
 15
50.0
 25
27.5
 35
0.0
146
0.0
 13
0.0
 23
0.0
 33
0.0
 16
1.0
 26
0.0
 36
0.0
 17
0.0
 27
1.0
 37
0.0
 76
     0
330
1F
331
29
  0
MATERIAL
  5
CF
102
{ACAD_REACTORS
330
CD
102
}
330
CD
100
AcDbMaterial
  1
ByBlock
 72
     1
 94
      127
  0
MATERIAL
  5
CE
102
{ACAD_REACTORS
330
CD
102
}
330
CD
100
AcDbMaterial
  1
ByLayer
 72
     1
 94
      127
  0
MATERIAL
  5
D0
102
{ACAD_REACTORS
330
CD
102
}
330
CD
100
AcDbMaterial
  1
Global
 72
     1
 94
      127
  0
MLINESTYLE
  5
18
102
{ACAD_REACTORS
330
17
102
}
330
17
100
AcDbMlineStyle
  2
Standard
 70
     0
  3

 62
   256
 51
90.0
 52
90.0
 71
     2
 49
0.5
 62
   256
  6
BYLAYER
 49
-0.5
 62
   256
  6
BYLAYER
  0
ACDBPLACEHOLDER
  5
F
102
{ACAD_REACTORS
330
E
102
}
330
E
  0
SCALE
  5
48
102
{ACAD_REACTORS
330
47
102
}
330
47
100
AcDbScale
 70
     0
300
1:1
140
1.0
141
1.0
290
     1
  0
SCALE
  5
49
102
{ACAD_REACTORS
330
47
102
}
330
47
100
AcDbScale
 70
     0
300
1:2
140
1.0
141
2.0
290
     0
  0
SCALE
  5
4A
102
{ACAD_REACTORS
330
47
102
}
330
47
100
AcDbScale
 70
     0
300
1:4
140
1.0
141
4.0
290
     0
  0
SCALE
  5
4B
102
{ACAD_REACTORS
330
47
102
}
330
47
100
AcDbScale
 70
     0
300
1:5
140
1.0
141
5.0
290
     0
  0
SCALE
  5
4C
102
{ACAD_REACTORS
330
47
102
}
330
47
100
AcDbScale
 70
     0
300
1:8
140
1.0
141
8.0
290
     0
  0
SCALE
  5
4D
102
{ACAD_REACTORS
330
47
102
}
330
47
100
AcDbScale
 70
     0
300
1:10
140
1.0
141
10.0
290
     0
  0
SCALE
  5
4E
102
{ACAD_REACTORS
330
47
102
}
330
47
100
AcDbScale
 70
     0
300
1:16
140
1.0
141
16.0
290
     0
  0
SCALE
  5
4F
102
{ACAD_REACTORS
330
47
102
}
330
47
100
AcDbScale
 70
     0
300
1:20
140
1.0
141
20.0
290
     0
  0
SCALE
  5
50
102
{ACAD_REACTORS
330
47
102
}
330
47
100
AcDbScale
 70
     0
300
1:30
140
1.0
141
30.0
290
     0
  0
SCALE
  5
51
102
{ACAD_REACTORS
330
47
102
}
330
47
100
AcDbScale
 70
     0
300
1:40
140
1.0
141
40.0
290
     0
  0
SCALE
  5
52
102
{ACAD_REACTORS
330
47
102
}
330
47
100
AcDbScale
 70
     0
300
1:50
140
1.0
141
50.0
290
     0
  0
SCALE
  5
53
102
{ACAD_REACTORS
330
47
102
}
330
47
100
AcDbScale
 70
     0
300
1:100
140
1.0
141
100.0
290
     0
  0
SCALE
  5
54
102
{ACAD_REACTORS
330
47
102
}
330
47
100
AcDbScale
 70
     0
300
2:1
140
2.0
141
1.0
290
     0
  0
SCALE
  5
55
102
{ACAD_REACTORS
330
47
102
}
330
47
100
AcDbScale
 70
     0
300
4:1
140
4.0
141
1.0
290
     0
  0
SCALE
  5
56
102
{ACAD_REACTORS
330
47
102
}
330
47
100
AcDbScale
 70
     0
300
8:1
140
8.0
141
1.0
290
     0
  0
SCALE
  5
57
102
{ACAD_REACTORS
330
47
102
}
330
47
100
AcDbScale
 70
     0
300
10:1
140
10.0
141
1.0
290
     0
  0
SCALE
  5
58
102
{ACAD_REACTORS
330
47
102
}
330
47
100
AcDbScale
 70
     0
300
100:1
140
100.0
141
1.0
290
     0
  0
SCALE
  5
59
102
{ACAD_REACTORS
330
47
102
}
330
47
100
AcDbScale
 70
     0
300
1/128" = 1'-0"
140
0.0078125
141
12.0
290
     0
  0
SCALE
  5
5A
102
{ACAD_REACTORS
330
47
102
}
330
47
100
AcDbScale
 70
     0
300
1/64" = 1'-0"
140
0.015625
141
12.0
290
     0
  0
SCALE
  5
5B
102
{ACAD_REACTORS
330
47
102
}
330
47
100
AcDbScale
 70
     0
300
1/32" = 1'-0"
140
0.03125
141
12.0
290
     0
  0
SCALE
  5
5C
102
{ACAD_REACTORS
330
47
102
}
330
47
100
AcDbScale
 70
     0
300
1/16" = 1'-0"
140
0.0625
141
12.0
290
     0
  0
SCALE
  5
5D
102
{ACAD_REACTORS
330
47
102
}
330
47
100
AcDbScale
 70
     0
300
3/32" = 1'-0"
140
0.09375
141
12.0
290
     0
  0
SCALE
  5
5E
102
{ACAD_REACTORS
330
47
102
}
330
47
100
AcDbScale
 70
     0
300
1/8" = 1'-0"
140
0.125
141
12.0
290
     0
  0
SCALE
  5
5F
102
{ACAD_REACTORS
330
47
102
}
330
47
100
AcDbScale
 70
     0
300
3/16" = 1'-0"
140
0.1875
141
12.0
290
     0
  0
SCALE
  5
60
102
{ACAD_REACTORS
330
47
102
}
330
47
100
AcDbScale
 70
     0
300
1/4" = 1'-0"
140
0.25
141
12.0
290
     0
  0
SCALE
  5
61
102
{ACAD_REACTORS
330
47
102
}
330
47
100
AcDbScale
 70
     0
300
3/8" = 1'-0"
140
0.375
141
12.0
290
     0
  0
SCALE
  5
62
102
{ACAD_REACTORS
330
47
102
}
330
47
100
AcDbScale
 70
     0
300
1/2" = 1'-0"
140
0.5
141
12.0
290
     0
  0
SCALE
  5
63
102
{ACAD_REACTORS
330
47
102
}
330
47
100
AcDbScale
 70
     0
300
3/4" = 1'-0"
140
0.75
141
12.0
290
     0
  0
SCALE
  5
64
102
{ACAD_REACTORS
330
47
102
}
330
47
100
AcDbScale
 70
     0
300
1" = 1'-0"
140
1.0
141
12.0
290
     0
  0
SCALE
  5
65
102
{ACAD_REACTORS
330
47
102
}
330
47
100
AcDbScale
 70
     0
300
1-1/2" = 1'-0"
140
1.5
141
12.0
290
     0
  0
SCALE
  5
66
102
{ACAD_REACTORS
330
47
102
}
330
47
100
AcDbScale
 70
     0
300
3" = 1'-0"
140
3.0
141
12.0
290
     0
  0
SCALE
  5
67
102
{ACAD_REACTORS
330
47
102
}
330
47
100
AcDbScale
 70
     0
300
6" = 1'-0"
140
6.0
141
12.0
290
     0
  0
SCALE
  5
68
102
{ACAD_REACTORS
330
47
102
}
330
47
100
AcDbScale
 70
     0
300
1'-0" = 1'-0"
140
12.0
141
12.0
290
     0
  0
TABLESTYLE
  5
D2
102
{ACAD_REACTORS
330
D1
102
}
102
{ACAD_XDICTIONARY
360
E0
102
}
330
D1
100
AcDbTableStyle
  3
Standard
 70
     0
 71
     0
 40
0.06
 41
0.06
280
     0
281
     0
  7
Standard
140
4.5
170
     2
 62
     0
 63
   257
283
     0
 90
        4
 91
        0
  1

274
    -2
284
     1
 64
     0
275
    -2
285
     1
 65
     0
276
    -2
286
     1
 66
     0
277
    -2
287
     1
 67
     0
278
    -2
288
     1
 68
     0
279
    -2
289
     1
 69
     0
  7
Standard
140
6.0
170
     5
 62
     0
 63
   257
283
     0
 90
        4
 91
        0
  1

274
    -2
284
     1
 64
     0
275
    -2
285
     1
 65
     0
276
    -2
286
     1
 66
     0
277
    -2
287
     1
 67
     0
278
    -2
288
     1
 68
     0
279
    -2
289
     1
 69
     0
  7
Standard
140
4.5
170
     5
 62
     0
 63
   257
283
     0
 90
        4
 91
        0
  1

274
    -2
284
     1
 64
     0
275
    -2
285
     1
 65
     0
276
    -2
286
     1
 66
     0
277
    -2
287
     1
 67
     0
278
    -2
288
     1
 68
     0
279
    -2
289
     1
 69
     0
  0
VISUALSTYLE
  5
B9
102
{ACAD_REACTORS
330
B4
102
}
330
B4
100
AcDbVisualStyle
  2
2dWireframe
 70
     4
 71
     0
 72
     2
 73
     0
 90
        0
 40
0.6
 41
30.0
 62
     5
 63
     7
421
 16777215
 74
     1
 91
        4
 64
     7
 65
   257
 75
     1
175
     1
 42
1.0
 92
        0
 66
   257
 43
1.0
 76
     1
 77
     6
 78
     2
 67
     7
 79
     5
170
     0
171
     0
290
     0
174
     0
 93
        1
 44
0.0
173
     0
291
     0
 45
0.0
  0
VISUALSTYLE
  5
BC
102
{ACAD_REACTORS
330
B4
102
}
330
B4
100
AcDbVisualStyle
  2
Basic
 70
     7
 71
     1
 72
     0
 73
     1
 90
        0
 40
0.6
 41
30.0
 62
     5
 63
     7
421
 16777215
 74
     0
 91
        4
 64
     7
 65
   257
 75
     1
175
     1
 42
1.0
 92
        8
 66
     7
 43
1.0
 76
     1
 77
     6
 78
     2
 67
     7
 79
     5
170
     0
171
     0
290
     0
174
     0
 93
        1
 44
0.0
173
     0
291
     1
 45
0.0
  0
VISUALSTYLE
  5
C0
102
{ACAD_REACTORS
330
B4
102
}
330
B4
100
AcDbVisualStyle
  2
Brighten
 70
    12
 71
     2
 72
     2
 73
     0
 90
        0
 40
0.6
 41
30.0
 62
     5
 63
     7
421
 16777215
 74
     1
 91
        4
 64
     7
 65
   257
 75
     1
175
     1
 42
1.0
 92
        8
 66
     7
 43
1.0
 76
     1
 77
     6
 78
     2
 67
     7
 79
     5
170
     0
171
     0
290
     0
174
     0
 93
        1
 44
50.0
173
     0
291
     1
 45
0.0
  0
VISUALSTYLE
  5
C4
102
{ACAD_REACTORS
330
B4
102
}
330
B4
100
AcDbVisualStyle
  2
ColorChange
 70
    16
 71
     2
 72
     2
 73
     3
 90
        0
 40
0.6
 41
30.0
 62
     5
 63
     8
421
  8421504
 74
     1
 91
        4
 64
     7
 65
   257
 75
     1
175
     1
 42
1.0
 92
        8
 66
     8
424
  8421504
 43
1.0
 76
     1
 77
     6
 78
     2
 67
     7
 79
     5
170
     0
171
     0
290
     0
174
     0
 93
        1
 44
0.0
173
     0
291
     1
 45
0.0
  0
VISUALSTYLE
  5
BE
102
{ACAD_REACTORS
330
B4
102
}
330
B4
100
AcDbVisualStyle
  2
Conceptual
 70
     9
 71
     3
 72
     2
 73
     0
 90
        0
 40
0.6
 41
30.0
 62
     5
 63
     7
421
 16777215
 74
     2
 91
        2
 64
     7
 65
   257
 75
     1
175
     1
 42
179.0
 92
        8
 66
     7
 43
1.0
 76
     1
 77
     6
 78
     2
 67
     7
 79
     3
170
     0
171
     0
290
     0
174
     0
 93
        1
 44
0.0
173
     0
291
     0
 45
0.0
  0
VISUALSTYLE
  5
BF
102
{ACAD_REACTORS
330
B4
102
}
330
B4
100
AcDbVisualStyle
  2
Dim
 70
    11
 71
     2
 72
     2
 73
     0
 90
        0
 40
0.6
 41
30.0
 62
     5
 63
     7
421
 16777215
 74
     1
 91
        4
 64
     7
 65
   257
 75
     1
175
     1
 42
1.0
 92
        8
 66
     7
 43
1.0
 76
     1
 77
     6
 78
     2
 67
     7
 79
     5
170
     0
171
     0
290
     0
174
     0
 93
        1
 44
-50.0
173
     0
291
     1
 45
0.0
  0
VISUALSTYLE
  5
C7
102
{ACAD_REACTORS
330
B4
102
}
330
B4
100
AcDbVisualStyle
  2
EdgeColorOff
 70
    22
 71
     2
 72
     2
 73
     0
 90
        0
 40
0.6
 41
30.0
 62
     5
 63
     7
421
 16777215
 74
     1
 91
        4
 64
     7
 65
   257
 75
     1
175
     1
 42
1.0
 92
        8
 66
     7
 43
1.0
 76
     1
 77
     6
 78
     2
 67
     7
 79
     5
170
     0
171
     0
290
     0
174
     0
 93
        1
 44
0.0
173
     0
291
     1
 45
0.0
  0
VISUALSTYLE
  5
C3
102
{ACAD_REACTORS
330
B4
102
}
330
B4
100
AcDbVisualStyle
  2
Facepattern
 70
    15
 71
     2
 72
     2
 73
     0
 90
        0
 40
0.6
 41
30.0
 62
     5
 63
     7
421
 16777215
 74
     1
 91
        4
 64
     7
 65
   257
 75
     1
175
     1
 42
1.0
 92
        8
 66
     7
 43
1.0
 76
     1
 77
     6
 78
     2
 67
     7
 79
     5
170
     0
171
     0
290
     0
174
     0
 93
        1
 44
0.0
173
     0
291
     1
 45
0.0
  0
VISUALSTYLE
  5
B5
102
{ACAD_REACTORS
330
B4
102
}
330
B4
100
AcDbVisualStyle
  2
Flat
 70
     0
 71
     2
 72
     1
 73
     1
 90
        2
 40
0.6
 41
30.0
 62
     5
 63
     7
421
 16777215
 74
     0
 91
        0
 64
     7
 65
   257
 75
     1
175
     1
 42
1.0
 92
        8
 66
     7
 43
1.0
 76
     1
 77
     6
 78
     2
 67
     7
 79
     5
170
     0
171
     0
290
     0
174
     0
 93
       13
 44
0.0
173
     0
291
     1
 45
0.0
  0
VISUALSTYLE
  5
B6
102
{ACAD_REACTORS
330
B4
102
}
330
B4
100
AcDbVisualStyle
  2
FlatWithEdges
 70
     1
 71
     2
 72
     1
 73
     1
 90
        2
 40
0.6
 41
30.0
 62
     5
 63
     7
421
 16777215
 74
     1
 91
        0
 64
     7
 65
   257
 75
     1
175
     1
 42
1.0
 92
        0
 66
   257
 43
1.0
 76
     1
 77
     6
 78
     2
 67
     7
 79
     5
170
     0
171
     0
290
     0
174
     0
 93
       13
 44
0.0
173
     0
291
     1
 45
0.0
  0
VISUALSTYLE
  5
B7
102
{ACAD_REACTORS
330
B4
102
}
330
B4
100
AcDbVisualStyle
  2
Gouraud
 70
     2
 71
     2
 72
     2
 73
     1
 90
        2
 40
0.6
 41
30.0
 62
     5
 63
     7
421
 16777215
 74
     0
 91
        0
 64
     7
 65
   257
 75
     1
175
     1
 42
1.0
 92
        0
 66
     7
 43
1.0
 76
     1
 77
     6
 78
     2
 67
     7
 79
     5
170
     0
171
     0
290
     0
174
     0
 93
       13
 44
0.0
173
     0
291
     1
 45
0.0
  0
VISUALSTYLE
  5
B8
102
{ACAD_REACTORS
330
B4
102
}
330
B4
100
AcDbVisualStyle
  2
GouraudWithEdges
 70
     3
 71
     2
 72
     2
 73
     1
 90
        2
 40
0.6
 41
30.0
 62
     5
 63
     7
421
 16777215
 74
     1
 91
        0
 64
     7
 65
   257
 75
     1
175
     1
 42
1.0
 92
        0
 66
   257
 43
1.0
 76
     1
 77
     6
 78
     2
 67
     7
 79
     5
170
     0
171
     0
290
     0
174
     0
 93
       13
 44
0.0
173
     0
291
     1
 45
0.0
  0
VISUALSTYLE
  5
BB
102
{ACAD_REACTORS
330
B4
102
}
330
B4
100
AcDbVisualStyle
  2
Hidden
 70
     6
 71
     1
 72
     2
 73
     2
 90
        0
 40
0.6
 41
30.0
 62
     5
 63
     7
421
 16777215
 74
     2
 91
        2
 64
     7
 65
   257
 75
     2
175
     1
 42
40.0
 92
        0
 66
   257
 43
1.0
 76
     1
 77
     6
 78
     2
 67
     7
 79
     3
170
     0
171
     0
290
     0
174
     0
 93
        1
 44
0.0
173
     0
291
     0
 45
0.0
  0
VISUALSTYLE
  5
C5
102
{ACAD_REACTORS
330
B4
102
}
330
B4
100
AcDbVisualStyle
  2
JitterOff
 70
    20
 71
     2
 72
     2
 73
     0
 90
        0
 40
0.6
 41
30.0
 62
     5
 63
     7
421
 16777215
 74
     1
 91
        4
 64
     7
 65
   257
 75
     1
175
     1
 42
1.0
 92
       10
 66
     7
 43
1.0
 76
     1
 77
     6
 78
     2
 67
     7
 79
     5
170
     0
171
     0
290
     0
174
     0
 93
        1
 44
0.0
173
     0
291
     1
 45
0.0
  0
VISUALSTYLE
  5
C2
102
{ACAD_REACTORS
330
B4
102
}
330
B4
100
AcDbVisualStyle
  2
Linepattern
 70
    14
 71
     2
 72
     2
 73
     0
 90
        0
 40
0.6
 41
30.0
 62
     5
 63
     7
421
 16777215
 74
     1
 91
        4
 64
     7
 65
   257
 75
     7
175
     7
 42
1.0
 92
        8
 66
     7
 43
1.0
 76
     1
 77
     6
 78
     2
 67
     7
 79
     5
170
     0
171
     0
290
     0
174
     0
 93
        1
 44
0.0
173
     0
291
     1
 45
0.0
  0
VISUALSTYLE
  5
C6
102
{ACAD_REACTORS
330
B4
102
}
330
B4
100
AcDbVisualStyle
  2
OverhangOff
 70
    21
 71
     2
 72
     2
 73
     0
 90
        0
 40
0.6
 41
30.0
 62
     5
 63
     7
421
 16777215
 74
     1
 91
        4
 64
     7
 65
   257
 75
     1
175
     1
 42
1.0
 92
        9
 66
     7
 43
1.0
 76
     1
 77
     6
 78
     2
 67
     7
 79
     5
170
     0
171
     0
290
     0
174
     0
 93
        1
 44
0.0
173
     0
291
     1
 45
0.0
  0
VISUALSTYLE
  5
BD
102
{ACAD_REACTORS
330
B4
102
}
330
B4
100
AcDbVisualStyle
  2
Realistic
 70
     8
 71
     2
 72
     3
 73
     0
 90
        2
 40
0.6
 41
30.0
 62
     5
 63
     7
421
 16777215
 74
     0
 91
        0
 64
     7
 65
   257
 75
     1
175
     1
 42
1.0
 92
        8
 66
   257
 43
1.0
 76
     1
 77
     6
 78
     2
 67
     7
 79
     3
170
     0
171
     0
290
     0
174
     0
 93
       13
 44
0.0
173
     0
291
     0
 45
0.0
  0
VISUALSTYLE
  5
CC
102
{ACAD_REACTORS
330
B4
102
}
330
B4
100
AcDbVisualStyle
  2
Shaded
 70
    27
 71
     2
 72
     2
 73
     1
 90
        2
 40
0.6
 41
30.0
 62
     5
 63
     7
421
 16777215
 74
     0
 91
        4
 64
     7
 65
   257
 75
     1
175
     1
 42
1.0
 92
        8
 66
   257
 43
1.0
 76
     1
 77
     6
 78
     2
 67
     8
425
  7895160
 79
     3
170
     0
171
     0
290
     0
174
     0
 93
        5
 44
0.0
173
     0
291
     0
 45
0.0
  0
VISUALSTYLE
  5
CB
102
{ACAD_REACTORS
330
B4
102
}
330
B4
100
AcDbVisualStyle
  2
Shaded with edges
 70
    26
 71
     2
 72
     2
 73
     1
 90
        2
 40
0.6
 41
30.0
 62
     5
 63
     7
421
 16777215
 74
     1
 91
       10
 64
     7
 65
   257
 75
     2
175
     1
 42
1.0
 92
        8
 66
   257
 43
1.0
 76
     1
 77
     6
 78
     2
 67
     7
 79
     3
170
     0
171
     0
290
     0
174
     0
 93
        5
 44
0.0
173
     0
291
     0
 45
0.0
  0
VISUALSTYLE
  5
C8
102
{ACAD_REACTORS
330
B4
102
}
330
B4
100
AcDbVisualStyle
  2
Shades of Gray
 70
    23
 71
     2
 72
     2
 73
     3
 90
        0
 40
0.6
 41
30.0
 62
     5
 63
     7
421
 16777215
 74
     2
 91
        2
 64
     7
 65
     7
 75
     1
175
     1
 42
40.0
 92
        8
 66
     7
 43
1.0
 76
     1
 77
     6
 78
     2
 67
     7
 79
     3
170
     0
171
     0
290
     0
174
     0
 93
        1
 44
0.0
173
     0
291
     0
 45
0.0
  0
VISUALSTYLE
  5
C9
102
{ACAD_REACTORS
330
B4
102
}
330
B4
100
AcDbVisualStyle
  2
Sketchy
 70
    24
 71
     1
 72
     2
 73
     2
 90
        0
 40
0.6
 41
30.0
 62
     5
 63
     7
421
 16777215
 74
     2
 91
        2
 64
     7
 65
     7
 75
     1
175
     1
 42
40.0
 92
       11
 66
     7
 43
1.0
 76
     1
 77
     6
 78
     2
 67
     7
 79
     6
170
     0
171
     0
290
     0
174
     0
 93
        1
 44
0.0
173
     0
291
     0
 45
0.0
  0
VISUALSTYLE
  5
C1
102
{ACAD_REACTORS
330
B4
102
}
330
B4
100
AcDbVisualStyle
  2
Thicken
 70
    13
 71
     2
 72
     2
 73
     0
 90
        0
 40
0.6
 41
30.0
 62
     5
 63
     7
421
 16777215
 74
     1
 91
        4
 64
     7
 65
   257
 75
     1
175
     1
 42
1.0
 92
       12
 66
     7
 43
1.0
 76
     1
 77
     6
 78
     2
 67
     7
 79
     5
170
     0
171
     0
290
     0
174
     0
 93
        1
 44
0.0
173
     0
291
     1
 45
0.0
  0
VISUALSTYLE
  5
BA
102
{ACAD_REACTORS
330
B4
102
}
330
B4
100
AcDbVisualStyle
  2
Wireframe
 70
     5
 71
     0
 72
     2
 73
     0
 90
        0
 40
0.6
 41
30.0
 62
     5
 63
     7
421
 16777215
 74
     1
 91
        4
 64
     7
 65
   257
 75
     1
175
     1
 42
1.0
 92
        0
 66
   257
 43
1.0
 76
     1
 77
     6
 78
     2
 67
     7
 79
     3
170
     0
171
     0
290
     0
174
     0
 93
        1
 44
0.0
173
     0
291
     0
 45
0.0
  0
VISUALSTYLE
  5
CA
102
{ACAD_REACTORS
330
B4
102
}
330
B4
100
AcDbVisualStyle
  2
X-Ray
 70
    25
 71
     2
 72
     2
 73
     1
 90
        1
 40
0.5
 41
30.0
 62
     5
 63
     7
421
 16777215
 74
     1
 91
        0
 64
     7
 65
   257
 75
     1
175
     1
 42
1.0
 92
        8
 66
     7
 43
1.0
 76
     1
 77
     6
 78
     2
 67
     7
 79
     3
170
     0
171
     0
290
     0
174
     0
 93
       13
 44
0.0
173
     0
291
     0
 45
0.0
  0
DICTIONARYVAR
  5
DE
102
{ACAD_REACTORS
330
DD
102
}
330
DD
100
DictionaryVariables
280
     0
  1
1:1
  0
DICTIONARYVAR
  5
E3
102
{ACAD_REACTORS
330
DD
102
}
330
DD
100
DictionaryVariables
280
     0
  1
Standard
  0
DICTIONARYVAR
  5
DF
102
{ACAD_REACTORS
330
DD
102
}
330
DD
100
DictionaryVariables
280
     0
  1
0
  0
DICTIONARYVAR
  5
E5
102
{ACAD_REACTORS
330
DD
102
}
330
DD
100
DictionaryVariables
280
     0
  1
0
  0
DICTIONARY
  5
E0
330
D2
100
AcDbDictionary
280
     1
281
     1
  3
ACAD_ROUNDTRIP_2008_TABLESTYLE_CELLSTYLEMAP
360
E1
  0
CELLSTYLEMAP
  5
E1
102
{ACAD_REACTORS
330
E0
102
}
330
E0
100
AcDbCellStyleMap
 90
        3
300
CELLSTYLE
  1
TABLEFORMAT_BEGIN
 90
        5
170
     1
 91
        0
 92
        0
 62
   257
 93
        1
300
CONTENTFORMAT
  1
CONTENTFORMAT_BEGIN
 90
        0
 91
        0
 92
        4
 93
        0
300

 40
0.0
140
1.0
 94
        5
 62
     0
340
11
144
6.0
309
CONTENTFORMAT_END
171
     1
301
MARGIN
  1
CELLMARGIN_BEGIN
 40
1.5
 40
1.5
 40
1.5
 40
1.5
 40
1.5
 40
1.5
309
CELLMARGIN_END
 94
        6
 95
        1
302
GRIDFORMAT
  1
GRIDFORMAT_BEGIN
 90
        0
 91
        1
 62
     0
 92
       -2
340
14
 93
        0
 40
0.045
309
GRIDFORMAT_END
 95
        2
302
GRIDFORMAT
  1
GRIDFORMAT_BEGIN
 90
        0
 91
        1
 62
     0
 92
       -2
340
14
 93
        0
 40
0.045
309
GRIDFORMAT_END
 95
        4
302
GRIDFORMAT
  1
GRIDFORMAT_BEGIN
 90
        0
 91
        1
 62
     0
 92
       -2
340
14
 93
        0
 40
0.045
309
GRIDFORMAT_END
 95
        8
302
GRIDFORMAT
  1
GRIDFORMAT_BEGIN
 90
        0
 91
        1
 62
     0
 92
       -2
340
14
 93
        0
 40
0.045
309
GRIDFORMAT_END
 95
       16
302
GRIDFORMAT
  1
GRIDFORMAT_BEGIN
 90
        0
 91
        1
 62
     0
 92
       -2
340
14
 93
        0
 40
0.045
309
GRIDFORMAT_END
 95
       32
302
GRIDFORMAT
  1
GRIDFORMAT_BEGIN
 90
        0
 91
        1
 62
     0
 92
       -2
340
14
 93
        0
 40
0.045
309
GRIDFORMAT_END
309
TABLEFORMAT_END
  1
CELLSTYLE_BEGIN
 90
        1
 91
        1
300
_TITLE
309
CELLSTYLE_END
300
CELLSTYLE
  1
TABLEFORMAT_BEGIN
 90
        5
170
     1
 91
        0
 92
        0
 62
   257
 93
        1
300
CONTENTFORMAT
  1
CONTENTFORMAT_BEGIN
 90
        0
 91
        0
 92
        4
 93
        0
300

 40
0.0
140
1.0
 94
        5
 62
     0
340
11
144
4.5
309
CONTENTFORMAT_END
171
     1
301
MARGIN
  1
CELLMARGIN_BEGIN
 40
1.5
 40
1.5
 40
1.5
 40
1.5
 40
1.5
 40
1.5
309
CELLMARGIN_END
 94
        6
 95
        1
302
GRIDFORMAT
  1
GRIDFORMAT_BEGIN
 90
        0
 91
        1
 62
     0
 92
       -2
340
14
 93
        0
 40
0.045
309
GRIDFORMAT_END
 95
        2
302
GRIDFORMAT
  1
GRIDFORMAT_BEGIN
 90
        0
 91
        1
 62
     0
 92
       -2
340
14
 93
        0
 40
0.045
309
GRIDFORMAT_END
 95
        4
302
GRIDFORMAT
  1
GRIDFORMAT_BEGIN
 90
        0
 91
        1
 62
     0
 92
       -2
340
14
 93
        0
 40
0.045
309
GRIDFORMAT_END
 95
        8
302
GRIDFORMAT
  1
GRIDFORMAT_BEGIN
 90
        0
 91
        1
 62
     0
 92
       -2
340
14
 93
        0
 40
0.045
309
GRIDFORMAT_END
 95
       16
302
GRIDFORMAT
  1
GRIDFORMAT_BEGIN
 90
        0
 91
        1
 62
     0
 92
       -2
340
14
 93
        0
 40
0.045
309
GRIDFORMAT_END
 95
       32
302
GRIDFORMAT
  1
GRIDFORMAT_BEGIN
 90
        0
 91
        1
 62
     0
 92
       -2
340
14
 93
        0
 40
0.045
309
GRIDFORMAT_END
309
TABLEFORMAT_END
  1
CELLSTYLE_BEGIN
 90
        2
 91
        1
300
_HEADER
309
CELLSTYLE_END
300
CELLSTYLE
  1
TABLEFORMAT_BEGIN
 90
        5
170
     1
 91
        0
 92
        0
 62
   257
 93
        1
300
CONTENTFORMAT
  1
CONTENTFORMAT_BEGIN
 90
        0
 91
        0
 92
        4
 93
        0
300

 40
0.0
140
1.0
 94
        2
 62
     0
340
11
144
4.5
309
CONTENTFORMAT_END
171
     1
301
MARGIN
  1
CELLMARGIN_BEGIN
 40
1.5
 40
1.5
 40
1.5
 40
1.5
 40
1.5
 40
1.5
309
CELLMARGIN_END
 94
        6
 95
        1
302
GRIDFORMAT
  1
GRIDFORMAT_BEGIN
 90
        0
 91
        1
 62
     0
 92
       -2
340
14
 93
        0
 40
0.045
309
GRIDFORMAT_END
 95
        2
302
GRIDFORMAT
  1
GRIDFORMAT_BEGIN
 90
        0
 91
        1
 62
     0
 92
       -2
340
14
 93
        0
 40
0.045
309
GRIDFORMAT_END
 95
        4
302
GRIDFORMAT
  1
GRIDFORMAT_BEGIN
 90
        0
 91
        1
 62
     0
 92
       -2
340
14
 93
        0
 40
0.045
309
GRIDFORMAT_END
 95
        8
302
GRIDFORMAT
  1
GRIDFORMAT_BEGIN
 90
        0
 91
        1
 62
     0
 92
       -2
340
14
 93
        0
 40
0.045
309
GRIDFORMAT_END
 95
       16
302
GRIDFORMAT
  1
GRIDFORMAT_BEGIN
 90
        0
 91
        1
 62
     0
 92
       -2
340
14
 93
        0
 40
0.045
309
GRIDFORMAT_END
 95
       32
302
GRIDFORMAT
  1
GRIDFORMAT_BEGIN
 90
        0
 91
        1
 62
     0
 92
       -2
340
14
 93
        0
 40
0.045
309
GRIDFORMAT_END
309
TABLEFORMAT_END
  1
CELLSTYLE_BEGIN
 90
        3
 91
        2
300
_DATA
309
CELLSTYLE_END
  0
ENDSEC
  0
EOF
