999
dxflib 2.2.0.0
  0
SECTION
  2
HEADER
  9
$ACADVER
  1
AC1015
  9
$HANDSEED
  5
FFFF
  9
$DIMASZ
 40
2.5
  9
$PLIMMIN
 10
0.0
 20
0.0
  9
$DIMEXE
 40
1.25
  9
$DIMGAP
 40
0.625
  9
$PLIMMAX
 10
210.0
 20
297.0
  9
$INSUNITS
 70
4
  9
$DIMSTYLE
  2
Standard
  9
$MEASUREMENT
 70
1
  9
$DIMEXO
 40
0.625
  9
$DIMTXT
 40
2.5
  0
ENDSEC
  0
SECTION
  2
TABLES
  0
TABLE
  2
VPORT
  5
8
100
AcDbSymbolTable
 70
1
  0
VPORT
  5
30
100
AcDbSymbolTableRecord
100
AcDbViewportTableRecord
  2
*Active
 70
0
 10
0.0
 20
0.0
 11
1.0
 21
1.0
 12
286.3055555555554861
 22
148.5
 13
0.0
 23
0.0
 14
10.0
 24
10.0
 15
10.0
 25
10.0
 16
0.0
 26
0.0
 36
1.0
 17
0.0
 27
0.0
 37
0.0
 40
297.0
 41
1.92798353909465
 42
50.0
 43
0.0
 44
0.0
 50
0.0
 51
0.0
 71
0
 72
100
 73
1
 74
3
 75
1
 76
1
 77
0
 78
0
281
0
 65
1
110
0.0
120
0.0
130
0.0
111
1.0
121
0.0
131
0.0
112
0.0
122
1.0
132
0.0
 79
0
146
0.0
  0
ENDTAB
  0
TABLE
  2
LTYPE
  5
5
100
AcDbSymbolTable
 70
21
  0
LTYPE
  5
14
100
AcDbSymbolTableRecord
100
AcDbLinetypeTableRecord
  2
ByBlock
 70
0
  3

 72
65
 73
0
 40
0.0
  0
LTYPE
  5
15
100
AcDbSymbolTableRecord
100
AcDbLinetypeTableRecord
  2
ByLayer
 70
0
  3

 72
65
 73
0
 40
0.0
  0
LTYPE
  5
16
100
AcDbSymbolTableRecord
100
AcDbLinetypeTableRecord
  2
CONTINUOUS
 70
0
  3
Solid line
 72
65
 73
0
 40
0.0
  0
LTYPE
  5
31
100
AcDbSymbolTableRecord
100
AcDbLinetypeTableRecord
  2
DOT
 70
0
  3
Dot . . . . . . . . . . . . . . . . . . . . . .
 72
65
 73
2
 40
6.3499999999999996
 49
0.0
 74
0
 49
-6.3499999999999996
 74
0
  0
LTYPE
  5
32
100
AcDbSymbolTableRecord
100
AcDbLinetypeTableRecord
  2
DOT2
 70
0
  3
Dot (.5x) .....................................
 72
65
 73
2
 40
3.1749999999999998
 49
0.0
 74
0
 49
-3.1749999999999998
 74
0
  0
LTYPE
  5
33
100
AcDbSymbolTableRecord
100
AcDbLinetypeTableRecord
  2
DOTX2
 70
0
  3
Dot (2x) .  .  .  .  .  .  .  .  .  .  .  .  .
 72
65
 73
2
 40
12.6999999999999993
 49
0.0
 74
0
 49
-12.6999999999999993
 74
0
  0
LTYPE
  5
34
100
AcDbSymbolTableRecord
100
AcDbLinetypeTableRecord
  2
DASHED
 70
0
  3
Dashed __ __ __ __ __ __ __ __ __ __ __ __ __ _
 72
65
 73
2
 40
19.0500000000000007
 49
12.6999999999999993
 74
0
 49
-6.3499999999999996
 74
0
  0
LTYPE
  5
35
100
AcDbSymbolTableRecord
100
AcDbLinetypeTableRecord
  2
DASHED2
 70
0
  3
Dashed (.5x) _ _ _ _ _ _ _ _ _ _ _ _ _ _ _ _ _
 72
65
 73
2
 40
9.5250000000000004
 49
6.3499999999999996
 74
0
 49
-3.1749999999999998
 74
0
  0
LTYPE
  5
36
100
AcDbSymbolTableRecord
100
AcDbLinetypeTableRecord
  2
DASHEDX2
 70
0
  3
Dashed (2x) ____  ____  ____  ____  ____  ___
 72
65
 73
2
 40
38.1000000000000014
 49
25.3999999999999986
 74
0
 49
-12.6999999999999993
 74
0
  0
LTYPE
  5
37
100
AcDbSymbolTableRecord
100
AcDbLinetypeTableRecord
  2
DASHDOT
 70
0
  3
Dash dot __ . __ . __ . __ . __ . __ . __ . __
 72
65
 73
4
 40
25.3999999999999986
 49
12.6999999999999993
 74
0
 49
-6.3499999999999996
 74
0
 49
0.0
 74
0
 49
-6.3499999999999996
 74
0
  0
LTYPE
  5
38
100
AcDbSymbolTableRecord
100
AcDbLinetypeTableRecord
  2
DASHDOT2
 70
0
  3
Dash dot (.5x) _._._._._._._._._._._._._._._.
 72
65
 73
4
 40
12.6999999999999993
 49
6.3499999999999996
 74
0
 49
-3.1749999999999998
 74
0
 49
0.0
 74
0
 49
-3.1749999999999998
 74
0
  0
LTYPE
  5
39
100
AcDbSymbolTableRecord
100
AcDbLinetypeTableRecord
  2
DASHDOTX2
 70
0
  3
Dash dot (2x) ____  .  ____  .  ____  .  ___
 72
65
 73
4
 40
50.7999999999999972
 49
25.3999999999999986
 74
0
 49
-12.6999999999999993
 74
0
 49
0.0
 74
0
 49
-12.6999999999999993
 74
0
  0
LTYPE
  5
3A
100
AcDbSymbolTableRecord
100
AcDbLinetypeTableRecord
  2
DIVIDE
 70
0
  3
Divide ____ . . ____ . . ____ . . ____ . . ____
 72
65
 73
6
 40
31.75
 49
12.6999999999999993
 74
0
 49
-6.3499999999999996
 74
0
 49
0.0
 74
0
 49
-6.3499999999999996
 74
0
 49
0.0
 74
0
 49
-6.3499999999999996
 74
0
  0
LTYPE
  5
3B
100
AcDbSymbolTableRecord
100
AcDbLinetypeTableRecord
  2
DIVIDE2
 70
0
  3
Divide (.5x) __..__..__..__..__..__..__..__.._
 72
65
 73
6
 40
15.875
 49
6.3499999999999996
 74
0
 49
-3.1749999999999998
 74
0
 49
0.0
 74
0
 49
-3.1749999999999998
 74
0
 49
0.0
 74
0
 49
-3.1749999999999998
 74
0
  0
LTYPE
  5
3C
100
AcDbSymbolTableRecord
100
AcDbLinetypeTableRecord
  2
DIVIDEX2
 70
0
  3
Divide (2x) ________  .  .  ________  .  .  _
 72
65
 73
6
 40
63.5
 49
25.3999999999999986
 74
0
 49
-12.6999999999999993
 74
0
 49
0.0
 74
0
 49
-12.6999999999999993
 74
0
 49
0.0
 74
0
 49
-12.6999999999999993
 74
0
  0
LTYPE
  5
3D
100
AcDbSymbolTableRecord
100
AcDbLinetypeTableRecord
  2
CENTER
 70
0
  3
Center ____ _ ____ _ ____ _ ____ _ ____ _ ____
 72
65
 73
4
 40
50.7999999999999972
 49
31.75
 74
0
 49
-6.3499999999999996
 74
0
 49
6.3499999999999996
 74
0
 49
-6.3499999999999996
 74
0
  0
LTYPE
  5
3E
100
AcDbSymbolTableRecord
100
AcDbLinetypeTableRecord
  2
CENTER2
 70
0
  3
Center (.5x) ___ _ ___ _ ___ _ ___ _ ___ _ ___
 72
65
 73
4
 40
28.5749999999999993
 49
19.0500000000000007
 74
0
 49
-3.1749999999999998
 74
0
 49
3.1749999999999998
 74
0
 49
-3.1749999999999998
 74
0
  0
LTYPE
  5
3F
100
AcDbSymbolTableRecord
100
AcDbLinetypeTableRecord
  2
CENTERX2
 70
0
  3
Center (2x) ________  __  ________  __  _____
 72
65
 73
4
 40
101.5999999999999943
 49
63.5
 74
0
 49
-12.6999999999999993
 74
0
 49
12.6999999999999993
 74
0
 49
-12.6999999999999993
 74
0
  0
LTYPE
  5
40
100
AcDbSymbolTableRecord
100
AcDbLinetypeTableRecord
  2
BORDER
 70
0
  3
Border __ __ . __ __ . __ __ . __ __ . __ __ .
 72
65
 73
6
 40
44.4500000000000028
 49
12.6999999999999993
 74
0
 49
-6.3499999999999996
 74
0
 49
12.6999999999999993
 74
0
 49
-6.3499999999999996
 74
0
 49
0.0
 74
0
 49
-6.3499999999999996
 74
0
  0
LTYPE
  5
41
100
AcDbSymbolTableRecord
100
AcDbLinetypeTableRecord
  2
BORDER2
 70
0
  3
Border (.5x) __.__.__.__.__.__.__.__.__.__.__.
 72
65
 73
6
 40
22.2250000000000014
 49
6.3499999999999996
 74
0
 49
-3.1749999999999998
 74
0
 49
6.3499999999999996
 74
0
 49
-3.1749999999999998
 74
0
 49
0.0
 74
0
 49
-3.1749999999999998
 74
0
  0
LTYPE
  5
42
100
AcDbSymbolTableRecord
100
AcDbLinetypeTableRecord
  2
BORDERX2
 70
0
  3
Border (2x) ____  ____  .  ____  ____  .  ___
 72
65
 73
6
 40
88.9000000000000057
 49
25.3999999999999986
 74
0
 49
-12.6999999999999993
 74
0
 49
25.3999999999999986
 74
0
 49
-12.6999999999999993
 74
0
 49
0.0
 74
0
 49
-12.6999999999999993
 74
0
  0
ENDTAB
  0
TABLE
  2
LAYER
  5
2
100
AcDbSymbolTable
 70
2
  0
LAYER
  5
10
100
AcDbSymbolTableRecord
100
AcDbLayerTableRecord
  2
0
 70
0
 62
7
  6
CONTINUOUS
390
F
  0
LAYER
  5
43
100
AcDbSymbolTableRecord
100
AcDbLayerTableRecord
  2
Text
 70
0
 62
7
  6
CONTINUOUS
370
-3
390
F
  0
ENDTAB
  0
TABLE
  2
STYLE
  5
3
100
AcDbSymbolTable
 70
1
  0
STYLE
  5
11
100
AcDbSymbolTableRecord
100
AcDbTextStyleTableRecord
  2
Standard
 70
0
 40
0.0
 41
0.75
 50
0.0
 71
0
 42
2.5
  3
txt
  4

  0
ENDTAB
  0
TABLE
  2
VIEW
  5
6
100
AcDbSymbolTable
 70
0
  0
ENDTAB
  0
TABLE
  2
UCS
  5
7
100
AcDbSymbolTable
 70
0
  0
ENDTAB
  0
TABLE
  2
APPID
  5
9
100
AcDbSymbolTable
 70
1
  0
APPID
  5
12
100
AcDbSymbolTableRecord
100
AcDbRegAppTableRecord
  2
ACAD
 70
0
  0
ENDTAB
  0
TABLE
  2
DIMSTYLE
  5
A
100
AcDbSymbolTable
 70
1
100
AcDbDimStyleTable
 71
0
  0
DIMSTYLE
105
27
100
AcDbSymbolTableRecord
100
AcDbDimStyleTableRecord
  2
Standard
 41
2.5
 42
0.625
 43
3.75
 44
1.25
 70
0
 73
0
 74
0
 77
1
 78
8
140
2.5
141
2.5
143
0.03937007874016
147
0.625
171
3
172
1
271
2
272
2
274
3
278
44
283
0
284
8
340
11
  0
ENDTAB
  0
TABLE
  2
BLOCK_RECORD
  5
1
100
AcDbSymbolTable
 70
1
  0
BLOCK_RECORD
  5
1F
100
AcDbSymbolTableRecord
100
AcDbBlockTableRecord
  2
*Model_Space
340
22
  0
BLOCK_RECORD
  5
1B
100
AcDbSymbolTableRecord
100
AcDbBlockTableRecord
  2
*Paper_Space
340
1E
  0
BLOCK_RECORD
  5
23
100
AcDbSymbolTableRecord
100
AcDbBlockTableRecord
  2
*Paper_Space0
340
26
  0
ENDTAB
  0
ENDSEC
  0
SECTION
  2
BLOCKS
  0
BLOCK
  5
20
100
AcDbEntity
  8
0
100
AcDbBlockBegin
  2
*Model_Space
 70
0
 10
0.0
 20
0.0
 30
0.0
  3
*Model_Space
  1

  0
ENDBLK
  5
21
100
AcDbEntity
  8
0
100
AcDbBlockEnd
  0
BLOCK
  5
1C
100
AcDbEntity
 67
1
  8
0
100
AcDbBlockBegin
  2
*Paper_Space
 70
0
 10
0.0
 20
0.0
 30
0.0
  3
*Paper_Space
  1

  0
ENDBLK
  5
1D
100
AcDbEntity
 67
1
  8
0
100
AcDbBlockEnd
  0
BLOCK
  5
24
100
AcDbEntity
  8
0
100
AcDbBlockBegin
  2
*Paper_Space0
 70
0
 10
0.0
 20
0.0
 30
0.0
  3
*Paper_Space0
  1

  0
ENDBLK
  5
25
100
AcDbEntity
  8
0
100
AcDbBlockEnd
  0
ENDSEC
  0
SECTION
  2
ENTITIES
  0
SPLINE
  5
44
  8
Text
 62
256
370
-1
  6
ByLayer
100
AcDbEntity
100
AcDbSpline
 70
8
 71
3
 72
8
 73
4
 74
0
 40
0.0
 40
0.0
 40
0.0
 40
0.0
 40
1.0
 40
1.0
 40
1.0
 40
1.0
 10
30.5959058999999982
 20
1.0931922000000001
 30
0.0
 10
30.5203841999999952
 20
1.1841912000000001
 30
0.0
 10
30.5302442999999997
 20
1.2374039999999999
 30
0.0
 10
30.6394044000000001
 20
1.3279331999999999
 30
0.0
  0
SPLINE
  5
45
  8
Text
 62
256
370
-1
  6
ByLayer
100
AcDbEntity
100
AcDbSpline
 70
8
 71
3
 72
8
 73
4
 74
0
 40
0.0
 40
0.0
 40
0.0
 40
0.0
 40
1.0
 40
1.0
 40
1.0
 40
1.0
 10
30.6394044000000001
 20
1.3279331999999999
 30
0.0
 10
30.9923144999999991
 20
1.6206105
 30
0.0
 10
31.1132640000000009
 20
2.4269708999999997
 30
0.0
 10
30.8858816999999988
 20
2.9711742000000001
 30
0.0
  0
SPLINE
  5
46
  8
Text
 62
256
370
-1
  6
ByLayer
100
AcDbEntity
100
AcDbSpline
 70
8
 71
3
 72
8
 73
4
 74
0
 40
0.0
 40
0.0
 40
0.0
 40
0.0
 40
1.0
 40
1.0
 40
1.0
 40
1.0
 10
30.8858816999999988
 20
2.9711742000000001
 30
0.0
 10
30.7448160000000001
 20
3.3087903000000001
 30
0.0
 10
30.8074403999999973
 20
3.3738326999999999
 30
0.0
 10
31.3542659999999955
 20
3.4576433999999998
 30
0.0
  0
SPLINE
  5
47
  8
Text
 62
256
370
-1
  6
ByLayer
100
AcDbEntity
100
AcDbSpline
 70
8
 71
3
 72
8
 73
4
 74
0
 40
0.0
 40
0.0
 40
0.0
 40
0.0
 40
1.0
 40
1.0
 40
1.0
 40
1.0
 10
31.3542659999999955
 20
3.4576433999999998
 30
0.0
 10
31.7733041999999983
 20
3.5218692000000003
 30
0.0
 10
31.8718376999999968
 20
3.4334540999999996
 30
0.0
 10
31.9181300999999991
 20
2.9516874000000004
 30
0.0
  0
SPLINE
  5
48
  8
Text
 62
256
370
-1
  6
ByLayer
100
AcDbEntity
100
AcDbSpline
 70
8
 71
3
 72
8
 73
4
 74
0
 40
0.0
 40
0.0
 40
0.0
 40
0.0
 40
1.0
 40
1.0
 40
1.0
 40
1.0
 10
31.9181300999999991
 20
2.9516874000000004
 30
0.0
 10
31.9851029999999952
 20
2.2546817999999993
 30
0.0
 10
31.5994826999999994
 20
1.5491628
 30
0.0
 10
30.9144497999999963
 20
1.1153858999999999
 30
0.0
  0
SPLINE
  5
49
  8
Text
 62
256
370
-1
  6
ByLayer
100
AcDbEntity
100
AcDbSpline
 70
8
 71
3
 72
8
 73
4
 74
0
 40
0.0
 40
0.0
 40
0.0
 40
0.0
 40
1.0
 40
1.0
 40
1.0
 40
1.0
 10
30.9144497999999963
 20
1.1153858999999999
 30
0.0
 10
30.7270767000000014
 20
0.9967373999999998
 30
0.0
 10
30.6787505999999972
 20
0.9933702000000002
 30
0.0
 10
30.5959058999999982
 20
1.0931922000000001
 30
0.0
  0
LWPOLYLINE
  5
4A
  8
Text
 62
256
370
-1
  6
ByLayer
100
AcDbEntity
100
AcDbPolyline
 90
10
 70
0
 10
0.1208025000000001
 20
0.2385
 10
0.1473333
 20
0.5136666000000002
 10
29.5478333999999982
 20
0.5349537000000001
 10
58.9483331999999933
 20
0.5562414000000002
 10
58.9483331999999933
 20
0.2597868000000002
 10
58.9483331999999933
 20
-0.0366666000000002
 10
29.5213022999999986
 20
-0.0366666000000002
 10
0.0942713999999999
 20
-0.0366666000000002
 10
0.1208025000000001
 20
0.2385
 10
0.1208025000000001
 20
0.2385
  0
LWPOLYLINE
  5
4B
  8
Text
 62
256
370
-1
  6
ByLayer
100
AcDbEntity
100
AcDbPolyline
 90
2
 70
0
 10
30.5959058999999982
 20
1.0931922000000001
 10
30.5959058999999982
 20
1.0931922000000001
  0
SPLINE
  5
4C
  8
Text
 62
256
370
-1
  6
ByLayer
100
AcDbEntity
100
AcDbSpline
 70
8
 71
3
 72
8
 73
4
 74
0
 40
0.0
 40
0.0
 40
0.0
 40
0.0
 40
1.0
 40
1.0
 40
1.0
 40
1.0
 10
41.2904819999999972
 20
2.2880843999999994
 30
0.0
 10
41.6452556999999999
 20
2.3559633000000004
 30
0.0
 10
42.1600397999999998
 20
2.5122572999999999
 30
0.0
 10
42.4344470999999999
 20
2.6354040000000003
 30
0.0
  0
LWPOLYLINE
  5
4D
  8
Text
 62
256
370
-1
  6
ByLayer
100
AcDbEntity
100
AcDbPolyline
 90
10
 70
0
 10
34.7336667000000006
 20
6.355666799999999
 10
34.7336667000000006
 20
11.5626666
 10
39.4326665999999975
 20
11.5626666
 10
44.1316667999999979
 20
11.5626666
 10
44.1316667999999979
 20
6.355666799999999
 10
44.1316667999999979
 20
1.1486666999999999
 10
39.4326665999999975
 20
1.1486666999999999
 10
34.7336667000000006
 20
1.1486666999999999
 10
34.7336667000000006
 20
6.355666799999999
 10
34.7336667000000006
 20
6.355666799999999
  0
SPLINE
  5
4E
  8
Text
 62
256
370
-1
  6
ByLayer
100
AcDbEntity
100
AcDbSpline
 70
8
 71
3
 72
8
 73
4
 74
0
 40
0.0
 40
0.0
 40
0.0
 40
0.0
 40
1.0
 40
1.0
 40
1.0
 40
1.0
 10
42.9610170000000053
 20
4.4421738
 30
0.0
 10
42.9924522000000024
 20
6.2417688
 30
0.0
 10
43.0484931000000017
 20
6.4306244999999995
 30
0.0
 10
43.5806925000000049
 20
6.5304659999999997
 30
0.0
  0
SPLINE
  5
4F
  8
Text
 62
256
370
-1
  6
ByLayer
100
AcDbEntity
100
AcDbSpline
 70
8
 71
3
 72
8
 73
4
 74
0
 40
0.0
 40
0.0
 40
0.0
 40
0.0
 40
1.0
 40
1.0
 40
1.0
 40
1.0
 10
43.5806925000000049
 20
6.5304659999999997
 30
0.0
 10
44.2628102999999982
 20
6.6584322000000009
 30
0.0
 10
43.7812034999999966
 20
6.7366668000000001
 30
0.0
 10
42.3113334000000023
 20
6.7366668000000001
 30
0.0
  0
SPLINE
  5
50
  8
Text
 62
256
370
-1
  6
ByLayer
100
AcDbEntity
100
AcDbSpline
 70
8
 71
3
 72
8
 73
4
 74
0
 40
0.0
 40
0.0
 40
0.0
 40
0.0
 40
1.0
 40
1.0
 40
1.0
 40
1.0
 10
42.3113334000000023
 20
6.7366668000000001
 30
0.0
 10
41.3438364000000007
 20
6.7366668000000001
 30
0.0
 10
40.7450000999999986
 20
6.7049141999999993
 30
0.0
 10
40.7450000999999986
 20
6.6536130000000009
 30
0.0
  0
SPLINE
  5
51
  8
Text
 62
256
370
-1
  6
ByLayer
100
AcDbEntity
100
AcDbSpline
 70
8
 71
3
 72
8
 73
4
 74
0
 40
0.0
 40
0.0
 40
0.0
 40
0.0
 40
1.0
 40
1.0
 40
1.0
 40
1.0
 10
40.7450000999999986
 20
6.6536130000000009
 30
0.0
 10
40.7450000999999986
 20
6.6079335000000006
 30
0.0
 10
40.8402500999999987
 20
6.5507834999999996
 30
0.0
 10
40.9566665999999984
 20
6.5266127999999997
 30
0.0
  0
SPLINE
  5
52
  8
Text
 62
256
370
-1
  6
ByLayer
100
AcDbEntity
100
AcDbSpline
 70
8
 71
3
 72
8
 73
4
 74
0
 40
0.0
 40
0.0
 40
0.0
 40
0.0
 40
1.0
 40
1.0
 40
1.0
 40
1.0
 10
40.9566665999999984
 20
6.5266127999999997
 30
0.0
 10
41.0730834000000016
 20
6.5024423999999996
 30
0.0
 10
41.2624835999999959
 20
6.4631670000000003
 30
0.0
 10
41.377556399999996
 20
6.4393335
 30
0.0
  0
SPLINE
  5
53
  8
Text
 62
256
370
-1
  6
ByLayer
100
AcDbEntity
100
AcDbSpline
 70
8
 71
3
 72
8
 73
4
 74
0
 40
0.0
 40
0.0
 40
0.0
 40
0.0
 40
1.0
 40
1.0
 40
1.0
 40
1.0
 10
41.377556399999996
 20
6.4393335
 30
0.0
 10
41.737017299999998
 20
6.3648842999999991
 30
0.0
 10
41.7942503999999957
 20
6.1233335999999996
 30
0.0
 10
41.830303200000003
 20
4.5285260999999997
 30
0.0
  0
LWPOLYLINE
  5
54
  8
Text
 62
256
370
-1
  6
ByLayer
100
AcDbEntity
100
AcDbPolyline
 90
3
 70
0
 10
42.4344470999999999
 20
2.6354040000000003
 10
42.9333683999999991
 20
2.8593060000000006
 10
42.9610170000000053
 20
4.4421738
  0
SPLINE
  5
55
  8
Text
 62
256
370
-1
  6
ByLayer
100
AcDbEntity
100
AcDbSpline
 70
8
 71
3
 72
8
 73
4
 74
0
 40
0.0
 40
0.0
 40
0.0
 40
0.0
 40
1.0
 40
1.0
 40
1.0
 40
1.0
 10
41.4103098000000003
 20
2.8428602999999999
 30
0.0
 10
40.745010299999997
 20
2.5536633000000002
 30
0.0
 10
39.8316608999999957
 20
2.5167131999999994
 30
0.0
 10
39.2039286000000047
 20
2.7535985999999997
 30
0.0
  0
SPLINE
  5
56
  8
Text
 62
256
370
-1
  6
ByLayer
100
AcDbEntity
100
AcDbSpline
 70
8
 71
3
 72
8
 73
4
 74
0
 40
0.0
 40
0.0
 40
0.0
 40
0.0
 40
1.0
 40
1.0
 40
1.0
 40
1.0
 10
39.2039286000000047
 20
2.7535985999999997
 30
0.0
 10
37.1483801999999983
 20
3.5292960000000004
 30
0.0
 10
36.3461517000000001
 20
6.9419402999999997
 30
0.0
 10
37.7363058000000038
 20
8.9968044000000003
 30
0.0
  0
SPLINE
  5
57
  8
Text
 62
256
370
-1
  6
ByLayer
100
AcDbEntity
100
AcDbSpline
 70
8
 71
3
 72
8
 73
4
 74
0
 40
0.0
 40
0.0
 40
0.0
 40
0.0
 40
1.0
 40
1.0
 40
1.0
 40
1.0
 10
37.7363058000000038
 20
8.9968044000000003
 30
0.0
 10
38.4934518000000025
 20
10.1159849999999985
 30
0.0
 10
40.0665957000000006
 20
10.5155016000000003
 30
0.0
 10
41.3147720999999919
 20
9.9055926000000003
 30
0.0
  0
SPLINE
  5
58
  8
Text
 62
256
370
-1
  6
ByLayer
100
AcDbEntity
100
AcDbSpline
 70
8
 71
3
 72
8
 73
4
 74
0
 40
0.0
 40
0.0
 40
0.0
 40
0.0
 40
1.0
 40
1.0
 40
1.0
 40
1.0
 10
41.3147720999999919
 20
9.9055926000000003
 30
0.0
 10
41.8319954999999979
 20
9.6528566999999992
 30
0.0
 10
42.1884725999999972
 20
9.2560283999999999
 30
0.0
 10
42.5064299999999946
 20
8.5790480999999996
 30
0.0
  0
SPLINE
  5
59
  8
Text
 62
256
370
-1
  6
ByLayer
100
AcDbEntity
100
AcDbSpline
 70
8
 71
3
 72
8
 73
4
 74
0
 40
0.0
 40
0.0
 40
0.0
 40
0.0
 40
1.0
 40
1.0
 40
1.0
 40
1.0
 10
42.5064299999999946
 20
8.5790480999999996
 30
0.0
 10
42.7621670999999992
 20
8.0345438999999992
 30
0.0
 10
42.9953535000000002
 20
7.9142063999999994
 30
0.0
 10
42.9183017999999947
 20
8.3664999000000009
 30
0.0
  0
SPLINE
  5
5A
  8
Text
 62
256
370
-1
  6
ByLayer
100
AcDbEntity
100
AcDbSpline
 70
8
 71
3
 72
8
 73
4
 74
0
 40
0.0
 40
0.0
 40
0.0
 40
0.0
 40
1.0
 40
1.0
 40
1.0
 40
1.0
 10
42.9183017999999947
 20
8.3664999000000009
 30
0.0
 10
42.8925192000000024
 20
8.5178417999999994
 30
0.0
 10
42.8472207000000012
 20
9.0226667999999997
 30
0.0
 10
42.8176382999999987
 20
9.4883334000000001
 30
0.0
  0
SPLINE
  5
5B
  8
Text
 62
256
370
-1
  6
ByLayer
100
AcDbEntity
100
AcDbSpline
 70
8
 71
3
 72
8
 73
4
 74
0
 40
0.0
 40
0.0
 40
0.0
 40
0.0
 40
1.0
 40
1.0
 40
1.0
 40
1.0
 10
42.8176382999999987
 20
9.4883334000000001
 30
0.0
 10
42.7591911000000025
 20
10.408357800000001
 30
0.0
 10
42.7187331000000015
 20
10.6313334000000008
 30
0.0
 10
42.6102437999999992
 20
10.6313334000000008
 30
0.0
  0
SPLINE
  5
5C
  8
Text
 62
256
370
-1
  6
ByLayer
100
AcDbEntity
100
AcDbSpline
 70
8
 71
3
 72
8
 73
4
 74
0
 40
0.0
 40
0.0
 40
0.0
 40
0.0
 40
1.0
 40
1.0
 40
1.0
 40
1.0
 10
42.6102437999999992
 20
10.6313334000000008
 30
0.0
 10
42.5713700999999958
 20
10.6313334000000008
 30
0.0
 10
42.4997201999999916
 20
10.5170334000000008
 30
0.0
 10
42.4510196999999962
 20
10.3773332999999983
 30
0.0
  0
SPLINE
  5
5D
  8
Text
 62
256
370
-1
  6
ByLayer
100
AcDbEntity
100
AcDbSpline
 70
8
 71
3
 72
8
 73
4
 74
0
 40
0.0
 40
0.0
 40
0.0
 40
0.0
 40
1.0
 40
1.0
 40
1.0
 40
1.0
 10
42.4510196999999962
 20
10.3773332999999983
 30
0.0
 10
42.3418938000000011
 20
10.0642934999999998
 30
0.0
 10
42.2312486999999948
 20
10.0598697000000001
 30
0.0
 10
41.4191489999999973
 20
10.3360829999999986
 30
0.0
  0
SPLINE
  5
5E
  8
Text
 62
256
370
-1
  6
ByLayer
100
AcDbEntity
100
AcDbSpline
 70
8
 71
3
 72
8
 73
4
 74
0
 40
0.0
 40
0.0
 40
0.0
 40
0.0
 40
1.0
 40
1.0
 40
1.0
 40
1.0
 10
41.4191489999999973
 20
10.3360829999999986
 30
0.0
 10
40.2333254999999994
 20
10.7394078000000004
 30
0.0
 10
39.0285482999999971
 20
10.6758588000000003
 30
0.0
 10
37.9612718999999998
 20
10.153689
 30
0.0
  0
SPLINE
  5
5F
  8
Text
 62
256
370
-1
  6
ByLayer
100
AcDbEntity
100
AcDbSpline
 70
8
 71
3
 72
8
 73
4
 74
0
 40
0.0
 40
0.0
 40
0.0
 40
0.0
 40
1.0
 40
1.0
 40
1.0
 40
1.0
 10
37.9612718999999998
 20
10.153689
 30
0.0
 10
36.9229892999999976
 20
9.6457049999999995
 30
0.0
 10
35.9512377000000001
 20
8.2391570999999981
 30
0.0
 10
35.7329586000000035
 20
6.9283494000000001
 30
0.0
  0
SPLINE
  5
60
  8
Text
 62
256
370
-1
  6
ByLayer
100
AcDbEntity
100
AcDbSpline
 70
8
 71
3
 72
8
 73
4
 74
0
 40
0.0
 40
0.0
 40
0.0
 40
0.0
 40
1.0
 40
1.0
 40
1.0
 40
1.0
 10
35.7329586000000035
 20
6.9283494000000001
 30
0.0
 10
35.3712056999999973
 20
4.7559593999999992
 30
0.0
 10
36.7828719000000035
 20
2.7253139999999996
 30
0.0
 10
38.9557452000000026
 20
2.2924533000000005
 30
0.0
  0
SPLINE
  5
61
  8
Text
 62
256
370
-1
  6
ByLayer
100
AcDbEntity
100
AcDbSpline
 70
8
 71
3
 72
8
 73
4
 74
0
 40
0.0
 40
0.0
 40
0.0
 40
0.0
 40
1.0
 40
1.0
 40
1.0
 40
1.0
 10
38.9557452000000026
 20
2.2924533000000005
 30
0.0
 10
39.7149689999999964
 20
2.1412071000000004
 30
0.0
 10
40.5149997000000042
 20
2.1397094999999999
 30
0.0
 10
41.2904819999999972
 20
2.2880843999999994
 30
0.0
  0
LWPOLYLINE
  5
62
  8
Text
 62
256
370
-1
  6
ByLayer
100
AcDbEntity
100
AcDbPolyline
 90
3
 70
0
 10
41.830303200000003
 20
4.5285260999999997
 10
41.8639520999999988
 20
3.0400523999999995
 10
41.4103098000000003
 20
2.8428602999999999
  0
SPLINE
  5
63
  8
Text
 62
256
370
-1
  6
ByLayer
100
AcDbEntity
100
AcDbSpline
 70
8
 71
3
 72
8
 73
4
 74
0
 40
0.0
 40
0.0
 40
0.0
 40
0.0
 40
1.0
 40
1.0
 40
1.0
 40
1.0
 10
0.9516665999999998
 20
3.5616666000000001
 30
0.0
 10
0.9516665999999998
 20
5.1845489999999996
 30
0.0
 10
1.0509950999999997
 20
5.3690892000000003
 30
0.0
 10
1.3597112999999998
 20
4.3197659999999996
 30
0.0
  0
SPLINE
  5
64
  8
Text
 62
256
370
-1
  6
ByLayer
100
AcDbEntity
100
AcDbSpline
 70
8
 71
3
 72
8
 73
4
 74
0
 40
0.0
 40
0.0
 40
0.0
 40
0.0
 40
1.0
 40
1.0
 40
1.0
 40
1.0
 10
1.3597112999999998
 20
4.3197659999999996
 30
0.0
 10
1.6795799999999999
 20
3.2325351000000002
 30
0.0
 10
2.4390870000000002
 20
2.6726666999999993
 30
0.0
 10
3.5941350000000001
 20
2.6726666999999993
 30
0.0
  0
SPLINE
  5
65
  8
Text
 62
256
370
-1
  6
ByLayer
100
AcDbEntity
100
AcDbSpline
 70
8
 71
3
 72
8
 73
4
 74
0
 40
0.0
 40
0.0
 40
0.0
 40
0.0
 40
1.0
 40
1.0
 40
1.0
 40
1.0
 10
3.5941350000000001
 20
2.6726666999999993
 30
0.0
 10
4.1872766999999991
 20
2.6726666999999993
 30
0.0
 10
4.5467769000000002
 20
2.8123895999999995
 30
0.0
 10
4.8886668000000002
 20
3.1757981999999996
 30
0.0
  0
SPLINE
  5
66
  8
Text
 62
256
370
-1
  6
ByLayer
100
AcDbEntity
100
AcDbSpline
 70
8
 71
3
 72
8
 73
4
 74
0
 40
0.0
 40
0.0
 40
0.0
 40
0.0
 40
1.0
 40
1.0
 40
1.0
 40
1.0
 10
4.8886668000000002
 20
3.1757981999999996
 30
0.0
 10
5.1161885999999992
 20
3.4176411000000004
 30
0.0
 10
5.1426666000000001
 20
3.5021501999999995
 30
0.0
 10
5.1426666000000001
 20
3.9864801000000001
 30
0.0
  0
SPLINE
  5
67
  8
Text
 62
256
370
-1
  6
ByLayer
100
AcDbEntity
100
AcDbSpline
 70
8
 71
3
 72
8
 73
4
 74
0
 40
0.0
 40
0.0
 40
0.0
 40
0.0
 40
1.0
 40
1.0
 40
1.0
 40
1.0
 10
5.1426666000000001
 20
3.9864801000000001
 30
0.0
 10
5.1426666000000001
 20
4.4964348000000003
 30
0.0
 10
5.1247604999999998
 20
4.5454560000000006
 30
0.0
 10
4.827699
 20
4.8487532999999994
 30
0.0
  0
SPLINE
  5
68
  8
Text
 62
256
370
-1
  6
ByLayer
100
AcDbEntity
100
AcDbSpline
 70
8
 71
3
 72
8
 73
4
 74
0
 40
0.0
 40
0.0
 40
0.0
 40
0.0
 40
1.0
 40
1.0
 40
1.0
 40
1.0
 10
4.827699
 20
4.8487532999999994
 30
0.0
 10
4.6544666999999995
 20
5.0256227999999998
 30
0.0
 10
3.9539340000000003
 20
5.4941831999999993
 30
0.0
 10
3.2709590999999993
 20
5.8899999000000003
 30
0.0
  0
SPLINE
  5
69
  8
Text
 62
256
370
-1
  6
ByLayer
100
AcDbEntity
100
AcDbSpline
 70
8
 71
3
 72
8
 73
4
 74
0
 40
0.0
 40
0.0
 40
0.0
 40
0.0
 40
1.0
 40
1.0
 40
1.0
 40
1.0
 10
3.2709590999999993
 20
5.8899999000000003
 30
0.0
 10
1.3405730999999999
 20
7.0087514999999998
 30
0.0
 10
0.9305001000000002
 20
7.4612033999999987
 30
0.0
 10
0.9305001000000002
 20
8.472333299999999
 30
0.0
  0
SPLINE
  5
6A
  8
Text
 62
256
370
-1
  6
ByLayer
100
AcDbEntity
100
AcDbSpline
 70
8
 71
3
 72
8
 73
4
 74
0
 40
0.0
 40
0.0
 40
0.0
 40
0.0
 40
1.0
 40
1.0
 40
1.0
 40
1.0
 10
0.9305001000000002
 20
8.472333299999999
 30
0.0
 10
0.9305001000000002
 20
9.0973619999999986
 30
0.0
 10
1.1321574000000001
 20
9.5373932999999997
 30
0.0
 10
1.6209827999999999
 20
9.9790181999999987
 30
0.0
  0
SPLINE
  5
6B
  8
Text
 62
256
370
-1
  6
ByLayer
100
AcDbEntity
100
AcDbSpline
 70
8
 71
3
 72
8
 73
4
 74
0
 40
0.0
 40
0.0
 40
0.0
 40
0.0
 40
1.0
 40
1.0
 40
1.0
 40
1.0
 10
1.6209827999999999
 20
9.9790181999999987
 30
0.0
 10
2.1245474999999998
 20
10.4339582999999987
 30
0.0
 10
2.5003802999999998
 20
10.5722579999999997
 30
0.0
 10
3.2376665999999994
 20
10.5739274999999999
 30
0.0
  0
SPLINE
  5
6C
  8
Text
 62
256
370
-1
  6
ByLayer
100
AcDbEntity
100
AcDbSpline
 70
8
 71
3
 72
8
 73
4
 74
0
 40
0.0
 40
0.0
 40
0.0
 40
0.0
 40
1.0
 40
1.0
 40
1.0
 40
1.0
 10
3.2376665999999994
 20
10.5739274999999999
 30
0.0
 10
3.7122816000000003
 20
10.5750030000000006
 30
0.0
 10
4.0285668000000001
 20
10.5192821999999992
 30
0.0
 10
4.4899094999999996
 20
10.3533149999999985
 30
0.0
  0
SPLINE
  5
6D
  8
Text
 62
256
370
-1
  6
ByLayer
100
AcDbEntity
100
AcDbSpline
 70
8
 71
3
 72
8
 73
4
 74
0
 40
0.0
 40
0.0
 40
0.0
 40
0.0
 40
1.0
 40
1.0
 40
1.0
 40
1.0
 10
4.4899094999999996
 20
10.3533149999999985
 30
0.0
 10
5.1609729
 20
10.1119025999999987
 30
0.0
 10
5.3271500999999999
 20
10.1254796999999996
 30
0.0
 10
5.4433901999999996
 20
10.4312145000000012
 30
0.0
  0
SPLINE
  5
6E
  8
Text
 62
256
370
-1
  6
ByLayer
100
AcDbEntity
100
AcDbSpline
 70
8
 71
3
 72
8
 73
4
 74
0
 40
0.0
 40
0.0
 40
0.0
 40
0.0
 40
1.0
 40
1.0
 40
1.0
 40
1.0
 10
5.4433901999999996
 20
10.4312145000000012
 30
0.0
 10
5.626932
 20
10.913965199999998
 30
0.0
 10
5.6930000999999999
 20
10.5971685000000004
 30
0.0
 10
5.6930000999999999
 20
9.2343333000000012
 30
0.0
  0
SPLINE
  5
6F
  8
Text
 62
256
370
-1
  6
ByLayer
100
AcDbEntity
100
AcDbSpline
 70
8
 71
3
 72
8
 73
4
 74
0
 40
0.0
 40
0.0
 40
0.0
 40
0.0
 40
1.0
 40
1.0
 40
1.0
 40
1.0
 10
5.6930000999999999
 20
9.2343333000000012
 30
0.0
 10
5.6930000999999999
 20
8.4659831999999984
 30
0.0
 10
5.6589767999999996
 20
7.8373331999999989
 30
0.0
 10
5.6173916999999998
 20
7.8373331999999989
 30
0.0
  0
SPLINE
  5
70
  8
Text
 62
256
370
-1
  6
ByLayer
100
AcDbEntity
100
AcDbSpline
 70
8
 71
3
 72
8
 73
4
 74
0
 40
0.0
 40
0.0
 40
0.0
 40
0.0
 40
1.0
 40
1.0
 40
1.0
 40
1.0
 10
5.6173916999999998
 20
7.8373331999999989
 30
0.0
 10
5.5278638999999998
 20
7.8373331999999989
 30
0.0
 10
5.4389999999999992
 20
8.0449251000000004
 30
0.0
 10
5.4389999999999992
 20
8.2540686000000001
 30
0.0
  0
SPLINE
  5
71
  8
Text
 62
256
370
-1
  6
ByLayer
100
AcDbEntity
100
AcDbSpline
 70
8
 71
3
 72
8
 73
4
 74
0
 40
0.0
 40
0.0
 40
0.0
 40
0.0
 40
1.0
 40
1.0
 40
1.0
 40
1.0
 10
5.4389999999999992
 20
8.2540686000000001
 30
0.0
 10
5.4389999999999992
 20
8.3359547999999997
 30
0.0
 10
5.3215620000000001
 20
8.6379675000000002
 30
0.0
 10
5.1780270000000002
 20
8.9252069999999986
 30
0.0
  0
SPLINE
  5
72
  8
Text
 62
256
370
-1
  6
ByLayer
100
AcDbEntity
100
AcDbSpline
 70
8
 71
3
 72
8
 73
4
 74
0
 40
0.0
 40
0.0
 40
0.0
 40
0.0
 40
1.0
 40
1.0
 40
1.0
 40
1.0
 10
5.1780270000000002
 20
8.9252069999999986
 30
0.0
 10
4.6676177999999995
 20
9.9466262999999984
 30
0.0
 10
3.5173541999999998
 20
10.3967922000000002
 30
0.0
 10
2.5787915999999997
 20
9.9424422000000003
 30
0.0
  0
SPLINE
  5
73
  8
Text
 62
256
370
-1
  6
ByLayer
100
AcDbEntity
100
AcDbSpline
 70
8
 71
3
 72
8
 73
4
 74
0
 40
0.0
 40
0.0
 40
0.0
 40
0.0
 40
1.0
 40
1.0
 40
1.0
 40
1.0
 10
2.5787915999999997
 20
9.9424422000000003
 30
0.0
 10
1.7168160000000001
 20
9.5251668000000009
 30
0.0
 10
1.6349817000000002
 20
8.4828591000000007
 30
0.0
 10
2.4173445
 20
7.8861216000000001
 30
0.0
  0
SPLINE
  5
74
  8
Text
 62
256
370
-1
  6
ByLayer
100
AcDbEntity
100
AcDbSpline
 70
8
 71
3
 72
8
 73
4
 74
0
 40
0.0
 40
0.0
 40
0.0
 40
0.0
 40
1.0
 40
1.0
 40
1.0
 40
1.0
 10
2.4173445
 20
7.8861216000000001
 30
0.0
 10
2.5716318
 20
7.7684409000000008
 30
0.0
 10
3.2288967000000004
 20
7.3816515000000003
 30
0.0
 10
3.8779335000000001
 20
7.0265883000000011
 30
0.0
  0
SPLINE
  5
75
  8
Text
 62
256
370
-1
  6
ByLayer
100
AcDbEntity
100
AcDbSpline
 70
8
 71
3
 72
8
 73
4
 74
0
 40
0.0
 40
0.0
 40
0.0
 40
0.0
 40
1.0
 40
1.0
 40
1.0
 40
1.0
 10
3.8779335000000001
 20
7.0265883000000011
 30
0.0
 10
5.2366508999999999
 20
6.2832867000000006
 30
0.0
 10
5.6917647000000002
 20
5.9397332999999994
 30
0.0
 10
5.9885162999999997
 20
5.4333656999999995
 30
0.0
  0
SPLINE
  5
76
  8
Text
 62
256
370
-1
  6
ByLayer
100
AcDbEntity
100
AcDbSpline
 70
8
 71
3
 72
8
 73
4
 74
0
 40
0.0
 40
0.0
 40
0.0
 40
0.0
 40
1.0
 40
1.0
 40
1.0
 40
1.0
 10
5.9885162999999997
 20
5.4333656999999995
 30
0.0
 10
6.6007772999999998
 20
4.3886204999999991
 30
0.0
 10
6.1387869000000004
 20
3.0274952999999996
 30
0.0
 10
4.9793889
 20
2.4602540999999998
 30
0.0
  0
SPLINE
  5
77
  8
Text
 62
256
370
-1
  6
ByLayer
100
AcDbEntity
100
AcDbSpline
 70
8
 71
3
 72
8
 73
4
 74
0
 40
0.0
 40
0.0
 40
0.0
 40
0.0
 40
1.0
 40
1.0
 40
1.0
 40
1.0
 10
4.9793889
 20
2.4602540999999998
 30
0.0
 10
4.2651909000000003
 20
2.1108297
 30
0.0
 10
3.4434653999999996
 20
2.0805444000000004
 30
0.0
 10
2.5167126
 20
2.3694915000000001
 30
0.0
  0
SPLINE
  5
78
  8
Text
 62
256
370
-1
  6
ByLayer
100
AcDbEntity
100
AcDbSpline
 70
8
 71
3
 72
8
 73
4
 74
0
 40
0.0
 40
0.0
 40
0.0
 40
0.0
 40
1.0
 40
1.0
 40
1.0
 40
1.0
 10
2.5167126
 20
2.3694915000000001
 30
0.0
 10
1.6738058999999998
 20
2.6322959999999997
 30
0.0
 10
1.3691628
 20
2.6288534999999995
 30
0.0
 10
1.2490899000000002
 20
2.3551668000000001
 30
0.0
  0
SPLINE
  5
79
  8
Text
 62
256
370
-1
  6
ByLayer
100
AcDbEntity
100
AcDbSpline
 70
8
 71
3
 72
8
 73
4
 74
0
 40
0.0
 40
0.0
 40
0.0
 40
0.0
 40
1.0
 40
1.0
 40
1.0
 40
1.0
 10
1.2490899000000002
 20
2.3551668000000001
 30
0.0
 10
1.2031224
 20
2.2503917999999996
 30
0.0
 10
1.1173974
 20
2.1646667999999996
 30
0.0
 10
1.0585898999999996
 20
2.1646667999999996
 30
0.0
  0
SPLINE
  5
7A
  8
Text
 62
256
370
-1
  6
ByLayer
100
AcDbEntity
100
AcDbSpline
 70
8
 71
3
 72
8
 73
4
 74
0
 40
0.0
 40
0.0
 40
0.0
 40
0.0
 40
1.0
 40
1.0
 40
1.0
 40
1.0
 10
1.0585898999999996
 20
2.1646667999999996
 30
0.0
 10
0.9767901
 20
2.1646667999999996
 30
0.0
 10
0.9516665999999998
 20
2.4929169000000004
 30
0.0
 10
0.9516665999999998
 20
3.5616666000000001
 30
0.0
  0
LWPOLYLINE
  5
7B
  8
Text
 62
256
370
-1
  6
ByLayer
100
AcDbEntity
100
AcDbPolyline
 90
2
 70
0
 10
41.2904819999999972
 20
2.2880843999999994
 10
41.2904819999999972
 20
2.2880843999999994
  0
SPLINE
  5
7C
  8
Text
 62
256
370
-1
  6
ByLayer
100
AcDbEntity
100
AcDbSpline
 70
8
 71
3
 72
8
 73
4
 74
0
 40
0.0
 40
0.0
 40
0.0
 40
0.0
 40
1.0
 40
1.0
 40
1.0
 40
1.0
 10
12.5458175999999995
 20
2.2802340000000001
 30
0.0
 10
11.5193009999999987
 20
2.5570457999999996
 30
0.0
 10
10.8589466999999988
 20
3.5191571999999995
 30
0.0
 10
10.7893091999999999
 20
4.8394016999999998
 30
0.0
  0
SPLINE
  5
7D
  8
Text
 62
256
370
-1
  6
ByLayer
100
AcDbEntity
100
AcDbSpline
 70
8
 71
3
 72
8
 73
4
 74
0
 40
0.0
 40
0.0
 40
0.0
 40
0.0
 40
1.0
 40
1.0
 40
1.0
 40
1.0
 10
10.7893091999999999
 20
4.8394016999999998
 30
0.0
 10
10.7138153999999997
 20
6.2706935999999995
 30
0.0
 10
11.339664599999999
 20
7.4202518999999993
 30
0.0
 10
12.4239999000000001
 20
7.8419942999999996
 30
0.0
  0
SPLINE
  5
7E
  8
Text
 62
256
370
-1
  6
ByLayer
100
AcDbEntity
100
AcDbSpline
 70
8
 71
3
 72
8
 73
4
 74
0
 40
0.0
 40
0.0
 40
0.0
 40
0.0
 40
1.0
 40
1.0
 40
1.0
 40
1.0
 10
12.4239999000000001
 20
7.8419942999999996
 30
0.0
 10
12.563699999999999
 20
7.8963291
 30
0.0
 10
12.925650000000001
 20
7.9428617999999993
 30
0.0
 10
13.2283331999999998
 20
7.9454010000000004
 30
0.0
  0
SPLINE
  5
7F
  8
Text
 62
256
370
-1
  6
ByLayer
100
AcDbEntity
100
AcDbSpline
 70
8
 71
3
 72
8
 73
4
 74
0
 40
0.0
 40
0.0
 40
0.0
 40
0.0
 40
1.0
 40
1.0
 40
1.0
 40
1.0
 10
13.2283331999999998
 20
7.9454010000000004
 30
0.0
 10
14.152903499999999
 20
7.9531565999999998
 30
0.0
 10
14.764148699999998
 20
7.5808305000000002
 30
0.0
 10
15.1432149000000003
 20
6.7790000999999984
 30
0.0
  0
SPLINE
  5
80
  8
Text
 62
256
370
-1
  6
ByLayer
100
AcDbEntity
100
AcDbSpline
 70
8
 71
3
 72
8
 73
4
 74
0
 40
0.0
 40
0.0
 40
0.0
 40
0.0
 40
1.0
 40
1.0
 40
1.0
 40
1.0
 10
15.1432149000000003
 20
6.7790000999999984
 30
0.0
 10
15.2532863999999986
 20
6.5461668
 30
0.0
 10
15.3437181000000002
 20
6.2127918000000006
 30
0.0
 10
15.3441729000000002
 20
6.0381665999999994
 30
0.0
  0
LWPOLYLINE
  5
81
  8
Text
 62
256
370
-1
  6
ByLayer
100
AcDbEntity
100
AcDbPolyline
 90
2
 70
0
 10
0.9516665999999998
 20
3.5616666000000001
 10
0.9516665999999998
 20
3.5616666000000001
  0
SPLINE
  5
82
  8
Text
 62
256
370
-1
  6
ByLayer
100
AcDbEntity
100
AcDbSpline
 70
8
 71
3
 72
8
 73
4
 74
0
 40
0.0
 40
0.0
 40
0.0
 40
0.0
 40
1.0
 40
1.0
 40
1.0
 40
1.0
 10
11.6521667999999998
 20
5.2459430999999999
 30
0.0
 10
11.7228270000000006
 20
4.644729299999999
 30
0.0
 10
12.0570674999999987
 20
3.9326165999999998
 30
0.0
 10
12.4071522000000005
 20
3.6374112000000003
 30
0.0
  0
SPLINE
  5
83
  8
Text
 62
256
370
-1
  6
ByLayer
100
AcDbEntity
100
AcDbSpline
 70
8
 71
3
 72
8
 73
4
 74
0
 40
0.0
 40
0.0
 40
0.0
 40
0.0
 40
1.0
 40
1.0
 40
1.0
 40
1.0
 10
12.4071522000000005
 20
3.6374112000000003
 30
0.0
 10
13.3649378999999993
 20
2.8297698000000002
 30
0.0
 10
14.6650209
 20
3.1185390000000006
 30
0.0
 10
15.0887519999999995
 20
4.2330369000000001
 30
0.0
  0
SPLINE
  5
84
  8
Text
 62
256
370
-1
  6
ByLayer
100
AcDbEntity
100
AcDbSpline
 70
8
 71
3
 72
8
 73
4
 74
0
 40
0.0
 40
0.0
 40
0.0
 40
0.0
 40
1.0
 40
1.0
 40
1.0
 40
1.0
 10
15.0887519999999995
 20
4.2330369000000001
 30
0.0
 10
15.1808340000000008
 20
4.4752301999999995
 30
0.0
 10
15.3450194999999994
 20
4.4573910000000003
 30
0.0
 10
15.3450194999999994
 20
4.2051932999999995
 30
0.0
  0
SPLINE
  5
85
  8
Text
 62
256
370
-1
  6
ByLayer
100
AcDbEntity
100
AcDbSpline
 70
8
 71
3
 72
8
 73
4
 74
0
 40
0.0
 40
0.0
 40
0.0
 40
0.0
 40
1.0
 40
1.0
 40
1.0
 40
1.0
 10
15.3450194999999994
 20
4.2051932999999995
 30
0.0
 10
15.3450194999999994
 20
3.9087594000000001
 30
0.0
 10
14.8208498999999989
 20
3.0106871999999996
 30
0.0
 10
14.4750984000000003
 20
2.7147366000000002
 30
0.0
  0
SPLINE
  5
86
  8
Text
 62
256
370
-1
  6
ByLayer
100
AcDbEntity
100
AcDbSpline
 70
8
 71
3
 72
8
 73
4
 74
0
 40
0.0
 40
0.0
 40
0.0
 40
0.0
 40
1.0
 40
1.0
 40
1.0
 40
1.0
 10
14.4750984000000003
 20
2.7147366000000002
 30
0.0
 10
14.1363824999999981
 20
2.4248090999999996
 30
0.0
 10
13.4674692
 20
2.1586238999999994
 30
0.0
 10
13.1071524000000004
 20
2.1703809000000001
 30
0.0
  0
SPLINE
  5
87
  8
Text
 62
256
370
-1
  6
ByLayer
100
AcDbEntity
100
AcDbSpline
 70
8
 71
3
 72
8
 73
4
 74
0
 40
0.0
 40
0.0
 40
0.0
 40
0.0
 40
1.0
 40
1.0
 40
1.0
 40
1.0
 10
13.1071524000000004
 20
2.1703809000000001
 30
0.0
 10
13.0108289999999993
 20
2.1735219000000003
 30
0.0
 10
12.7582377000000005
 20
2.2229579999999993
 30
0.0
 10
12.5458371
 20
2.2802340000000001
 30
0.0
  0
LWPOLYLINE
  5
88
  8
Text
 62
256
370
-1
  6
ByLayer
100
AcDbEntity
100
AcDbPolyline
 90
5
 70
0
 10
15.3441729000000002
 20
6.0381665999999994
 10
15.3450194999999994
 20
5.7206666999999998
 10
13.4706960000000002
 20
5.7206666999999998
 10
11.5963721999999994
 20
5.7206666999999998
 10
11.6521667999999998
 20
5.2459430999999999
  0
SPLINE
  5
89
  8
Text
 62
256
370
-1
  6
ByLayer
100
AcDbEntity
100
AcDbSpline
 70
8
 71
3
 72
8
 73
4
 74
0
 40
0.0
 40
0.0
 40
0.0
 40
0.0
 40
1.0
 40
1.0
 40
1.0
 40
1.0
 10
14.0876085
 20
6.3975867000000006
 30
0.0
 10
13.9482158999999992
 20
7.7852972999999999
 30
0.0
 10
12.3017304000000003
 20
7.9515806999999992
 30
0.0
 10
11.7511580999999996
 20
6.6335528999999998
 30
0.0
  0
SPLINE
  5
8A
  8
Text
 62
256
370
-1
  6
ByLayer
100
AcDbEntity
100
AcDbSpline
 70
8
 71
3
 72
8
 73
4
 74
0
 40
0.0
 40
0.0
 40
0.0
 40
0.0
 40
1.0
 40
1.0
 40
1.0
 40
1.0
 10
11.7511580999999996
 20
6.6335528999999998
 30
0.0
 10
11.5026716999999987
 20
6.0386958000000002
 30
0.0
 10
11.4756908999999983
 20
6.0521052000000006
 30
0.0
 10
12.8685000000000009
 20
6.0782369999999997
 30
0.0
  0
LWPOLYLINE
  5
8B
  8
Text
 62
256
370
-1
  6
ByLayer
100
AcDbEntity
100
AcDbPolyline
 90
2
 70
0
 10
12.5458371
 20
2.2802340000000001
 10
12.5458175999999995
 20
2.2802340000000001
  0
SPLINE
  5
8C
  8
Text
 62
256
370
-1
  6
ByLayer
100
AcDbEntity
100
AcDbSpline
 70
8
 71
3
 72
8
 73
4
 74
0
 40
0.0
 40
0.0
 40
0.0
 40
0.0
 40
1.0
 40
1.0
 40
1.0
 40
1.0
 10
26.8173332999999978
 20
2.3015219999999998
 30
0.0
 10
26.3812644000000027
 20
2.397996
 30
0.0
 10
26.1858206999999972
 20
2.4084237000000006
 30
0.0
 10
26.0776487999999986
 20
2.3409875999999996
 30
0.0
  0
SPLINE
  5
8D
  8
Text
 62
256
370
-1
  6
ByLayer
100
AcDbEntity
100
AcDbSpline
 70
8
 71
3
 72
8
 73
4
 74
0
 40
0.0
 40
0.0
 40
0.0
 40
0.0
 40
1.0
 40
1.0
 40
1.0
 40
1.0
 10
26.0776487999999986
 20
2.3409875999999996
 30
0.0
 10
25.9967888999999985
 20
2.2905779999999996
 30
0.0
 10
25.911063900000002
 20
2.2493333999999998
 30
0.0
 10
25.8871488000000021
 20
2.2493333999999998
 30
0.0
  0
SPLINE
  5
8E
  8
Text
 62
256
370
-1
  6
ByLayer
100
AcDbEntity
100
AcDbSpline
 70
8
 71
3
 72
8
 73
4
 74
0
 40
0.0
 40
0.0
 40
0.0
 40
0.0
 40
1.0
 40
1.0
 40
1.0
 40
1.0
 10
25.8871488000000021
 20
2.2493333999999998
 30
0.0
 10
25.8632339999999985
 20
2.2493333999999998
 30
0.0
 10
25.8436667999999976
 20
2.6874834000000001
 30
0.0
 10
25.8436667999999976
 20
3.2229999
 30
0.0
  0
SPLINE
  5
8F
  8
Text
 62
256
370
-1
  6
ByLayer
100
AcDbEntity
100
AcDbSpline
 70
8
 71
3
 72
8
 73
4
 74
0
 40
0.0
 40
0.0
 40
0.0
 40
0.0
 40
1.0
 40
1.0
 40
1.0
 40
1.0
 10
25.8436667999999976
 20
3.2229999
 30
0.0
 10
25.8436667999999976
 20
3.7585166999999999
 30
0.0
 10
25.8747554999999991
 20
4.1966666999999998
 30
0.0
 10
25.9127537999999973
 20
4.1966666999999998
 30
0.0
  0
SPLINE
  5
90
  8
Text
 62
256
370
-1
  6
ByLayer
100
AcDbEntity
100
AcDbSpline
 70
8
 71
3
 72
8
 73
4
 74
0
 40
0.0
 40
0.0
 40
0.0
 40
0.0
 40
1.0
 40
1.0
 40
1.0
 40
1.0
 10
25.9127537999999973
 20
4.1966666999999998
 30
0.0
 10
25.9507514999999991
 20
4.1966666999999998
 30
0.0
 10
26.0647914000000007
 20
3.9965324999999994
 30
0.0
 10
26.1661754999999978
 20
3.7519244999999999
 30
0.0
  0
SPLINE
  5
91
  8
Text
 62
256
370
-1
  6
ByLayer
100
AcDbEntity
100
AcDbSpline
 70
8
 71
3
 72
8
 73
4
 74
0
 40
0.0
 40
0.0
 40
0.0
 40
0.0
 40
1.0
 40
1.0
 40
1.0
 40
1.0
 10
26.1661754999999978
 20
3.7519244999999999
 30
0.0
 10
26.4858311999999962
 20
2.9806973999999999
 30
0.0
 10
26.9979087
 20
2.5770092999999998
 30
0.0
 10
27.6694295999999973
 20
2.5668579
 30
0.0
  0
SPLINE
  5
92
  8
Text
 62
256
370
-1
  6
ByLayer
100
AcDbEntity
100
AcDbSpline
 70
8
 71
3
 72
8
 73
4
 74
0
 40
0.0
 40
0.0
 40
0.0
 40
0.0
 40
1.0
 40
1.0
 40
1.0
 40
1.0
 10
27.6694295999999973
 20
2.5668579
 30
0.0
 10
28.5998849999999969
 20
2.5527915000000001
 30
0.0
 10
28.952804399999998
 20
3.4894257000000004
 30
0.0
 10
28.2496679999999998
 20
4.1067869999999997
 30
0.0
  0
SPLINE
  5
93
  8
Text
 62
256
370
-1
  6
ByLayer
100
AcDbEntity
100
AcDbSpline
 70
8
 71
3
 72
8
 73
4
 74
0
 40
0.0
 40
0.0
 40
0.0
 40
0.0
 40
1.0
 40
1.0
 40
1.0
 40
1.0
 10
28.2496679999999998
 20
4.1067869999999997
 30
0.0
 10
28.0857212999999994
 20
4.2507347999999991
 30
0.0
 10
27.6479378999999987
 20
4.5211797000000002
 30
0.0
 10
27.2768160000000002
 20
4.7077755000000003
 30
0.0
  0
SPLINE
  5
94
  8
Text
 62
256
370
-1
  6
ByLayer
100
AcDbEntity
100
AcDbSpline
 70
8
 71
3
 72
8
 73
4
 74
0
 40
0.0
 40
0.0
 40
0.0
 40
0.0
 40
1.0
 40
1.0
 40
1.0
 40
1.0
 10
27.2768160000000002
 20
4.7077755000000003
 30
0.0
 10
26.0307545999999981
 20
5.3342834999999997
 30
0.0
 10
25.6330016999999977
 20
5.8927806
 30
0.0
 10
25.8419360999999981
 20
6.7225350000000006
 30
0.0
  0
SPLINE
  5
95
  8
Text
 62
256
370
-1
  6
ByLayer
100
AcDbEntity
100
AcDbSpline
 70
8
 71
3
 72
8
 73
4
 74
0
 40
0.0
 40
0.0
 40
0.0
 40
0.0
 40
1.0
 40
1.0
 40
1.0
 40
1.0
 10
25.8419360999999981
 20
6.7225350000000006
 30
0.0
 10
26.1007494000000015
 20
7.7503754999999988
 30
0.0
 10
26.8492457999999985
 20
8.1025185000000004
 30
0.0
 10
28.2036491999999974
 20
7.8336419999999984
 30
0.0
  0
SPLINE
  5
96
  8
Text
 62
256
370
-1
  6
ByLayer
100
AcDbEntity
100
AcDbSpline
 70
8
 71
3
 72
8
 73
4
 74
0
 40
0.0
 40
0.0
 40
0.0
 40
0.0
 40
1.0
 40
1.0
 40
1.0
 40
1.0
 10
28.2036491999999974
 20
7.8336419999999984
 30
0.0
 10
28.6870940999999995
 20
7.7376686999999995
 30
0.0
 10
28.7514620999999977
 20
7.7411004000000005
 30
0.0
 10
28.8216897000000003
 20
7.8665891999999999
 30
0.0
  0
SPLINE
  5
97
  8
Text
 62
256
370
-1
  6
ByLayer
100
AcDbEntity
100
AcDbSpline
 70
8
 71
3
 72
8
 73
4
 74
0
 40
0.0
 40
0.0
 40
0.0
 40
0.0
 40
1.0
 40
1.0
 40
1.0
 40
1.0
 10
28.8216897000000003
 20
7.8665891999999999
 30
0.0
 10
28.9972163999999992
 20
8.1802377000000011
 30
0.0
 10
29.0609999999999999
 20
7.9693421999999989
 30
0.0
 10
29.0609999999999999
 20
7.0753331999999993
 30
0.0
  0
SPLINE
  5
98
  8
Text
 62
256
370
-1
  6
ByLayer
100
AcDbEntity
100
AcDbSpline
 70
8
 71
3
 72
8
 73
4
 74
0
 40
0.0
 40
0.0
 40
0.0
 40
0.0
 40
1.0
 40
1.0
 40
1.0
 40
1.0
 10
29.0609999999999999
 20
7.0753331999999993
 30
0.0
 10
29.0609999999999999
 20
6.5630999999999995
 30
0.0
 10
29.029911300000002
 20
6.1440000000000001
 30
0.0
 10
28.9919126999999968
 20
6.1440000000000001
 30
0.0
  0
SPLINE
  5
99
  8
Text
 62
256
370
-1
  6
ByLayer
100
AcDbEntity
100
AcDbSpline
 70
8
 71
3
 72
8
 73
4
 74
0
 40
0.0
 40
0.0
 40
0.0
 40
0.0
 40
1.0
 40
1.0
 40
1.0
 40
1.0
 10
28.9919126999999968
 20
6.1440000000000001
 30
0.0
 10
28.9539152999999985
 20
6.1440000000000001
 30
0.0
 10
28.8364604999999976
 20
6.3523730999999994
 30
0.0
 10
28.7309025000000027
 20
6.6070512000000008
 30
0.0
  0
SPLINE
  5
9A
  8
Text
 62
256
370
-1
  6
ByLayer
100
AcDbEntity
100
AcDbSpline
 70
8
 71
3
 72
8
 73
4
 74
0
 40
0.0
 40
0.0
 40
0.0
 40
0.0
 40
1.0
 40
1.0
 40
1.0
 40
1.0
 10
28.7309025000000027
 20
6.6070512000000008
 30
0.0
 10
28.6253433000000008
 20
6.8617301999999993
 30
0.0
 10
28.4074571999999996
 20
7.1855802000000004
 30
0.0
 10
28.2467099999999967
 20
7.3267178999999993
 30
0.0
  0
SPLINE
  5
9B
  8
Text
 62
256
370
-1
  6
ByLayer
100
AcDbEntity
100
AcDbSpline
 70
8
 71
3
 72
8
 73
4
 74
0
 40
0.0
 40
0.0
 40
0.0
 40
0.0
 40
1.0
 40
1.0
 40
1.0
 40
1.0
 10
28.2467099999999967
 20
7.3267178999999993
 30
0.0
 10
28.0044107999999987
 20
7.5394598999999989
 30
0.0
 10
27.8818481999999968
 20
7.583333399999999
 30
0.0
 10
27.529849200000001
 20
7.583333399999999
 30
0.0
  0
SPLINE
  5
9C
  8
Text
 62
256
370
-1
  6
ByLayer
100
AcDbEntity
100
AcDbSpline
 70
8
 71
3
 72
8
 73
4
 74
0
 40
0.0
 40
0.0
 40
0.0
 40
0.0
 40
1.0
 40
1.0
 40
1.0
 40
1.0
 10
27.529849200000001
 20
7.583333399999999
 30
0.0
 10
27.0703841999999959
 20
7.583333399999999
 30
0.0
 10
26.6574971999999981
 20
7.4171894999999992
 30
0.0
 10
26.5735931999999977
 20
7.1985402000000001
 30
0.0
  0
SPLINE
  5
9D
  8
Text
 62
256
370
-1
  6
ByLayer
100
AcDbEntity
100
AcDbSpline
 70
8
 71
3
 72
8
 73
4
 74
0
 40
0.0
 40
0.0
 40
0.0
 40
0.0
 40
1.0
 40
1.0
 40
1.0
 40
1.0
 10
26.5735931999999977
 20
7.1985402000000001
 30
0.0
 10
26.3545344000000021
 20
6.6276803999999991
 30
0.0
 10
26.6768687999999976
 20
6.2186972999999997
 30
0.0
 10
27.8033003999999977
 20
5.6382698999999992
 30
0.0
  0
SPLINE
  5
9E
  8
Text
 62
256
370
-1
  6
ByLayer
100
AcDbEntity
100
AcDbSpline
 70
8
 71
3
 72
8
 73
4
 74
0
 40
0.0
 40
0.0
 40
0.0
 40
0.0
 40
1.0
 40
1.0
 40
1.0
 40
1.0
 10
27.8033003999999977
 20
5.6382698999999992
 30
0.0
 10
29.0476286999999971
 20
4.9970933999999998
 30
0.0
 10
29.4843332999999959
 20
4.5371324999999993
 30
0.0
 10
29.4843332999999959
 20
3.8677163999999999
 30
0.0
  0
SPLINE
  5
9F
  8
Text
 62
256
370
-1
  6
ByLayer
100
AcDbEntity
100
AcDbSpline
 70
8
 71
3
 72
8
 73
4
 74
0
 40
0.0
 40
0.0
 40
0.0
 40
0.0
 40
1.0
 40
1.0
 40
1.0
 40
1.0
 10
29.4843332999999959
 20
3.8677163999999999
 30
0.0
 10
29.4843332999999959
 20
3.4332230999999998
 30
0.0
 10
29.3607707999999974
 20
3.1134767999999999
 30
0.0
 10
29.0767802999999994
 20
2.8130796
 30
0.0
  0
SPLINE
  5
A0
  8
Text
 62
256
370
-1
  6
ByLayer
100
AcDbEntity
100
AcDbSpline
 70
8
 71
3
 72
8
 73
4
 74
0
 40
0.0
 40
0.0
 40
0.0
 40
0.0
 40
1.0
 40
1.0
 40
1.0
 40
1.0
 10
29.0767802999999994
 20
2.8130796
 30
0.0
 10
28.5505776000000004
 20
2.2564766999999994
 30
0.0
 10
27.7945973999999971
 20
2.0853161999999998
 30
0.0
 10
26.8173332999999978
 20
2.3015219999999998
 30
0.0
  0
LWPOLYLINE
  5
A1
  8
Text
 62
256
370
-1
  6
ByLayer
100
AcDbEntity
100
AcDbPolyline
 90
4
 70
0
 10
12.8685000000000009
 20
6.0782369999999997
 10
14.1173333999999997
 20
6.1016667
 10
14.0876085
 20
6.3975867000000006
 10
14.0876085
 20
6.3975867000000006
  0
SPLINE
  5
A2
  8
Text
 62
256
370
-1
  6
ByLayer
100
AcDbEntity
100
AcDbSpline
 70
8
 71
3
 72
8
 73
4
 74
0
 40
0.0
 40
0.0
 40
0.0
 40
0.0
 40
1.0
 40
1.0
 40
1.0
 40
1.0
 10
55.1664411000000001
 20
2.2412426999999995
 30
0.0
 10
53.8483443000000008
 20
2.5780151999999998
 30
0.0
 10
53.0710814999999982
 20
4.0530032999999994
 30
0.0
 10
53.3543939999999992
 20
5.6799056999999999
 30
0.0
  0
SPLINE
  5
A3
  8
Text
 62
256
370
-1
  6
ByLayer
100
AcDbEntity
100
AcDbSpline
 70
8
 71
3
 72
8
 73
4
 74
0
 40
0.0
 40
0.0
 40
0.0
 40
0.0
 40
1.0
 40
1.0
 40
1.0
 40
1.0
 10
53.3543939999999992
 20
5.6799056999999999
 30
0.0
 10
53.6028645000000026
 20
7.1067302999999997
 30
0.0
 10
54.5162805000000006
 20
7.9509482999999994
 30
0.0
 10
55.8156666000000001
 20
7.9547193000000007
 30
0.0
  0
SPLINE
  5
A4
  8
Text
 62
256
370
-1
  6
ByLayer
100
AcDbEntity
100
AcDbSpline
 70
8
 71
3
 72
8
 73
4
 74
0
 40
0.0
 40
0.0
 40
0.0
 40
0.0
 40
1.0
 40
1.0
 40
1.0
 40
1.0
 10
55.8156666000000001
 20
7.9547193000000007
 30
0.0
 10
56.8315023000000039
 20
7.9576659000000003
 30
0.0
 10
57.6262151999999901
 20
7.3090436999999993
 30
0.0
 10
57.8425187999999935
 20
6.3004553999999997
 30
0.0
  0
SPLINE
  5
A5
  8
Text
 62
256
370
-1
  6
ByLayer
100
AcDbEntity
100
AcDbSpline
 70
8
 71
3
 72
8
 73
4
 74
0
 40
0.0
 40
0.0
 40
0.0
 40
0.0
 40
1.0
 40
1.0
 40
1.0
 40
1.0
 10
57.8425187999999935
 20
6.3004553999999997
 30
0.0
 10
57.8926026000000036
 20
6.0669212999999997
 30
0.0
 10
57.9120015000000024
 20
5.8409322000000001
 30
0.0
 10
57.8856269999999995
 20
5.7982577999999991
 30
0.0
  0
SPLINE
  5
A6
  8
Text
 62
256
370
-1
  6
ByLayer
100
AcDbEntity
100
AcDbSpline
 70
8
 71
3
 72
8
 73
4
 74
0
 40
0.0
 40
0.0
 40
0.0
 40
0.0
 40
1.0
 40
1.0
 40
1.0
 40
1.0
 10
57.8856269999999995
 20
5.7982577999999991
 30
0.0
 10
57.8589170999999993
 20
5.7550395000000005
 30
0.0
 10
57.0099188999999953
 20
5.7206666999999998
 30
0.0
 10
55.9691817
 20
5.7206666999999998
 30
0.0
  0
LWPOLYLINE
  5
A7
  8
Text
 62
256
370
-1
  6
ByLayer
100
AcDbEntity
100
AcDbPolyline
 90
2
 70
0
 10
26.8173332999999978
 20
2.3015219999999998
 10
26.8173332999999978
 20
2.3015219999999998
  0
SPLINE
  5
A8
  8
Text
 62
256
370
-1
  6
ByLayer
100
AcDbEntity
100
AcDbSpline
 70
8
 71
3
 72
8
 73
4
 74
0
 40
0.0
 40
0.0
 40
0.0
 40
0.0
 40
1.0
 40
1.0
 40
1.0
 40
1.0
 10
54.1572777000000016
 20
5.3608332000000001
 30
0.0
 10
54.3036401999999967
 20
4.4301249
 30
0.0
 10
54.6383198999999991
 20
3.8072550000000001
 30
0.0
 10
55.1922432000000001
 20
3.4346667000000002
 30
0.0
  0
SPLINE
  5
A9
  8
Text
 62
256
370
-1
  6
ByLayer
100
AcDbEntity
100
AcDbSpline
 70
8
 71
3
 72
8
 73
4
 74
0
 40
0.0
 40
0.0
 40
0.0
 40
0.0
 40
1.0
 40
1.0
 40
1.0
 40
1.0
 10
55.1922432000000001
 20
3.4346667000000002
 30
0.0
 10
55.4549543999999983
 20
3.2579580000000004
 30
0.0
 10
55.6069227000000055
 20
3.2229999
 30
0.0
 10
56.1123869999999982
 20
3.2229999
 30
0.0
  0
SPLINE
  5
AA
  8
Text
 62
256
370
-1
  6
ByLayer
100
AcDbEntity
100
AcDbSpline
 70
8
 71
3
 72
8
 73
4
 74
0
 40
0.0
 40
0.0
 40
0.0
 40
0.0
 40
1.0
 40
1.0
 40
1.0
 40
1.0
 10
56.1123869999999982
 20
3.2229999
 30
0.0
 10
56.6474243999999985
 20
3.2229999
 30
0.0
 10
56.7546014999999997
 20
3.2510331000000003
 30
0.0
 10
57.0338313000000028
 20
3.4640121000000001
 30
0.0
  0
SPLINE
  5
AB
  8
Text
 62
256
370
-1
  6
ByLayer
100
AcDbEntity
100
AcDbSpline
 70
8
 71
3
 72
8
 73
4
 74
0
 40
0.0
 40
0.0
 40
0.0
 40
0.0
 40
1.0
 40
1.0
 40
1.0
 40
1.0
 10
57.0338313000000028
 20
3.4640121000000001
 30
0.0
 10
57.2076221999999959
 20
3.5965688999999998
 30
0.0
 10
57.4296411000000049
 20
3.8693310000000003
 30
0.0
 10
57.5272058999999985
 20
4.0701491999999995
 30
0.0
  0
SPLINE
  5
AC
  8
Text
 62
256
370
-1
  6
ByLayer
100
AcDbEntity
100
AcDbSpline
 70
8
 71
3
 72
8
 73
4
 74
0
 40
0.0
 40
0.0
 40
0.0
 40
0.0
 40
1.0
 40
1.0
 40
1.0
 40
1.0
 10
57.5272058999999985
 20
4.0701491999999995
 30
0.0
 10
57.7495370999999977
 20
4.5277742999999999
 30
0.0
 10
57.9578907000000001
 20
4.5088641000000003
 30
0.0
 10
57.8298932999999948
 20
4.0426775999999993
 30
0.0
  0
SPLINE
  5
AD
  8
Text
 62
256
370
-1
  6
ByLayer
100
AcDbEntity
100
AcDbSpline
 70
8
 71
3
 72
8
 73
4
 74
0
 40
0.0
 40
0.0
 40
0.0
 40
0.0
 40
1.0
 40
1.0
 40
1.0
 40
1.0
 10
57.8298932999999948
 20
4.0426775999999993
 30
0.0
 10
57.6437849999999941
 20
3.3648428999999997
 30
0.0
 10
57.1238055000000031
 20
2.6972859000000002
 30
0.0
 10
56.5564847999999998
 20
2.4078606000000002
 30
0.0
  0
SPLINE
  5
AE
  8
Text
 62
256
370
-1
  6
ByLayer
100
AcDbEntity
100
AcDbSpline
 70
8
 71
3
 72
8
 73
4
 74
0
 40
0.0
 40
0.0
 40
0.0
 40
0.0
 40
1.0
 40
1.0
 40
1.0
 40
1.0
 10
56.5564847999999998
 20
2.4078606000000002
 30
0.0
 10
56.1796478999999991
 20
2.2156121999999994
 30
0.0
 10
55.5582680999999994
 20
2.1411308999999998
 30
0.0
 10
55.1664411000000001
 20
2.2412426999999995
 30
0.0
  0
LWPOLYLINE
  5
AF
  8
Text
 62
256
370
-1
  6
ByLayer
100
AcDbEntity
100
AcDbPolyline
 90
3
 70
0
 10
55.9691817
 20
5.7206666999999998
 10
54.1006907999999953
 20
5.7206666999999998
 10
54.1572777000000016
 20
5.3608332000000001
  0
SPLINE
  5
B0
  8
Text
 62
256
370
-1
  6
ByLayer
100
AcDbEntity
100
AcDbSpline
 70
8
 71
3
 72
8
 73
4
 74
0
 40
0.0
 40
0.0
 40
0.0
 40
0.0
 40
1.0
 40
1.0
 40
1.0
 40
1.0
 10
56.6008145999999996
 20
6.4239155999999999
 30
0.0
 10
56.573773800000005
 20
6.8781270000000001
 30
0.0
 10
56.3433135000000007
 20
7.2200499000000002
 30
0.0
 10
55.9290428999999918
 20
7.420594799999999
 30
0.0
  0
SPLINE
  5
B1
  8
Text
 62
256
370
-1
  6
ByLayer
100
AcDbEntity
100
AcDbSpline
 70
8
 71
3
 72
8
 73
4
 74
0
 40
0.0
 40
0.0
 40
0.0
 40
0.0
 40
1.0
 40
1.0
 40
1.0
 40
1.0
 10
55.9290428999999918
 20
7.420594799999999
 30
0.0
 10
55.6180479000000005
 20
7.5711456000000004
 30
0.0
 10
55.5271166999999934
 20
7.5805571999999994
 30
0.0
 10
55.2095964000000023
 20
7.4950572000000006
 30
0.0
  0
SPLINE
  5
B2
  8
Text
 62
256
370
-1
  6
ByLayer
100
AcDbEntity
100
AcDbSpline
 70
8
 71
3
 72
8
 73
4
 74
0
 40
0.0
 40
0.0
 40
0.0
 40
0.0
 40
1.0
 40
1.0
 40
1.0
 40
1.0
 10
55.2095964000000023
 20
7.4950572000000006
 30
0.0
 10
54.9991352999999989
 20
7.4383865999999985
 30
0.0
 10
54.7371470999999943
 20
7.281623699999999
 30
0.0
 10
54.5872184999999988
 20
7.1226528
 30
0.0
  0
SPLINE
  5
B3
  8
Text
 62
256
370
-1
  6
ByLayer
100
AcDbEntity
100
AcDbSpline
 70
8
 71
3
 72
8
 73
4
 74
0
 40
0.0
 40
0.0
 40
0.0
 40
0.0
 40
1.0
 40
1.0
 40
1.0
 40
1.0
 10
54.5872184999999988
 20
7.1226528
 30
0.0
 10
54.3299376000000009
 20
6.8498558999999997
 30
0.0
 10
54.0884258999999972
 20
6.2673602999999991
 30
0.0
 10
54.1747130999999982
 20
6.1277439000000005
 30
0.0
  0
SPLINE
  5
B4
  8
Text
 62
256
370
-1
  6
ByLayer
100
AcDbEntity
100
AcDbSpline
 70
8
 71
3
 72
8
 73
4
 74
0
 40
0.0
 40
0.0
 40
0.0
 40
0.0
 40
1.0
 40
1.0
 40
1.0
 40
1.0
 10
54.1747130999999982
 20
6.1277439000000005
 30
0.0
 10
54.1995213000000007
 20
6.0876044999999994
 30
0.0
 10
54.759859800000001
 20
6.0653160000000002
 30
0.0
 10
55.4199093000000005
 20
6.0782147999999996
 30
0.0
  0
LWPOLYLINE
  5
B5
  8
Text
 62
256
370
-1
  6
ByLayer
100
AcDbEntity
100
AcDbPolyline
 90
2
 70
0
 10
55.1664411000000001
 20
2.2412426999999995
 10
55.1664411000000001
 20
2.2412426999999995
  0
SPLINE
  5
B6
  8
Text
 62
256
370
-1
  6
ByLayer
100
AcDbEntity
100
AcDbSpline
 70
8
 71
3
 72
8
 73
4
 74
0
 40
0.0
 40
0.0
 40
0.0
 40
0.0
 40
1.0
 40
1.0
 40
1.0
 40
1.0
 10
8.5037715000000009
 20
2.3909645999999993
 30
0.0
 10
7.971791399999999
 20
2.6531400000000005
 30
0.0
 10
7.9396484999999988
 20
2.8071080999999993
 30
0.0
 10
7.9102964999999994
 20
5.2338332999999997
 30
0.0
  0
LWPOLYLINE
  5
B7
  8
Text
 62
256
370
-1
  6
ByLayer
100
AcDbEntity
100
AcDbPolyline
 90
4
 70
0
 10
55.4199093000000005
 20
6.0782147999999996
 10
56.6199998999999963
 20
6.1016667
 10
56.6008145999999996
 20
6.4239155999999999
 10
56.6008145999999996
 20
6.4239155999999999
  0
SPLINE
  5
B8
  8
Text
 62
256
370
-1
  6
ByLayer
100
AcDbEntity
100
AcDbSpline
 70
8
 71
3
 72
8
 73
4
 74
0
 40
0.0
 40
0.0
 40
0.0
 40
0.0
 40
1.0
 40
1.0
 40
1.0
 40
1.0
 10
7.4657964000000003
 20
7.4139998999999994
 30
0.0
 10
7.2358247999999996
 20
7.4139998999999994
 30
0.0
 10
7.0476666000000003
 20
7.4489928000000001
 30
0.0
 10
7.0476666000000003
 20
7.4917613999999997
 30
0.0
  0
SPLINE
  5
B9
  8
Text
 62
256
370
-1
  6
ByLayer
100
AcDbEntity
100
AcDbSpline
 70
8
 71
3
 72
8
 73
4
 74
0
 40
0.0
 40
0.0
 40
0.0
 40
0.0
 40
1.0
 40
1.0
 40
1.0
 40
1.0
 10
7.0476666000000003
 20
7.4917613999999997
 30
0.0
 10
7.0476666000000003
 20
7.5345297000000002
 30
0.0
 10
7.1773344000000003
 20
7.6496619000000008
 30
0.0
 10
7.3358177999999992
 20
7.7476103999999992
 30
0.0
  0
SPLINE
  5
BA
  8
Text
 62
256
370
-1
  6
ByLayer
100
AcDbEntity
100
AcDbSpline
 70
8
 71
3
 72
8
 73
4
 74
0
 40
0.0
 40
0.0
 40
0.0
 40
0.0
 40
1.0
 40
1.0
 40
1.0
 40
1.0
 10
7.3358177999999992
 20
7.7476103999999992
 30
0.0
 10
7.754943299999999
 20
8.0066439000000003
 30
0.0
 10
8.1914364000000006
 20
8.5218252000000003
 30
0.0
 10
8.4857358000000005
 20
9.1048289999999987
 30
0.0
  0
SPLINE
  5
BB
  8
Text
 62
256
370
-1
  6
ByLayer
100
AcDbEntity
100
AcDbSpline
 70
8
 71
3
 72
8
 73
4
 74
0
 40
0.0
 40
0.0
 40
0.0
 40
0.0
 40
1.0
 40
1.0
 40
1.0
 40
1.0
 10
8.4857358000000005
 20
9.1048289999999987
 30
0.0
 10
8.6274713999999992
 20
9.3856064999999997
 30
0.0
 10
8.7809888999999988
 20
9.6153332999999996
 30
0.0
 10
8.8268858999999988
 20
9.6153332999999996
 30
0.0
  0
SPLINE
  5
BC
  8
Text
 62
256
370
-1
  6
ByLayer
100
AcDbEntity
100
AcDbSpline
 70
8
 71
3
 72
8
 73
4
 74
0
 40
0.0
 40
0.0
 40
0.0
 40
0.0
 40
1.0
 40
1.0
 40
1.0
 40
1.0
 10
8.8268858999999988
 20
9.6153332999999996
 30
0.0
 10
8.876406600000001
 20
9.6153332999999996
 30
0.0
 10
8.9103332999999996
 20
9.2538990000000005
 30
0.0
 10
8.9103332999999996
 20
8.7263333999999997
 30
0.0
  0
LWPOLYLINE
  5
BD
  8
Text
 62
256
370
-1
  6
ByLayer
100
AcDbEntity
100
AcDbPolyline
 90
3
 70
0
 10
7.9102964999999994
 20
5.2338332999999997
 10
7.8839270999999984
 20
7.4139998999999994
 10
7.4657964000000003
 20
7.4139998999999994
  0
SPLINE
  5
BE
  8
Text
 62
256
370
-1
  6
ByLayer
100
AcDbEntity
100
AcDbSpline
 70
8
 71
3
 72
8
 73
4
 74
0
 40
0.0
 40
0.0
 40
0.0
 40
0.0
 40
1.0
 40
1.0
 40
1.0
 40
1.0
 10
9.5453333999999987
 20
7.8373331999999989
 30
0.0
 10
10.1662217999999989
 20
7.8373331999999989
 30
0.0
 10
10.1803331999999997
 20
7.8326259
 30
0.0
 10
10.1803331999999997
 20
7.6256667
 30
0.0
  0
SPLINE
  5
BF
  8
Text
 62
256
370
-1
  6
ByLayer
100
AcDbEntity
100
AcDbSpline
 70
8
 71
3
 72
8
 73
4
 74
0
 40
0.0
 40
0.0
 40
0.0
 40
0.0
 40
1.0
 40
1.0
 40
1.0
 40
1.0
 10
10.1803331999999997
 20
7.6256667
 30
0.0
 10
10.1803331999999997
 20
7.4187041999999996
 30
0.0
 10
10.1662217999999989
 20
7.4139998999999994
 30
0.0
 10
9.5453333999999987
 20
7.4139998999999994
 30
0.0
  0
LWPOLYLINE
  5
C0
  8
Text
 62
256
370
-1
  6
ByLayer
100
AcDbEntity
100
AcDbPolyline
 90
3
 70
0
 10
8.9103332999999996
 20
8.7263333999999997
 10
8.9103332999999996
 20
7.8373331999999989
 10
9.5453333999999987
 20
7.8373331999999989
  0
SPLINE
  5
C1
  8
Text
 62
256
370
-1
  6
ByLayer
100
AcDbEntity
100
AcDbSpline
 70
8
 71
3
 72
8
 73
4
 74
0
 40
0.0
 40
0.0
 40
0.0
 40
0.0
 40
1.0
 40
1.0
 40
1.0
 40
1.0
 10
9.1234097999999992
 20
3.1292265000000001
 30
0.0
 10
9.3714821999999991
 20
2.8811550000000001
 30
0.0
 10
9.5869242000000003
 20
2.9108391
 30
0.0
 10
9.9406970999999995
 20
3.2418347999999999
 30
0.0
  0
SPLINE
  5
C2
  8
Text
 62
256
370
-1
  6
ByLayer
100
AcDbEntity
100
AcDbSpline
 70
8
 71
3
 72
8
 73
4
 74
0
 40
0.0
 40
0.0
 40
0.0
 40
0.0
 40
1.0
 40
1.0
 40
1.0
 40
1.0
 10
9.9406970999999995
 20
3.2418347999999999
 30
0.0
 10
10.2998054999999997
 20
3.5778227999999994
 30
0.0
 10
10.3846392000000005
 20
3.4382972999999999
 30
0.0
 10
10.0970078999999995
 20
2.9847503999999998
 30
0.0
  0
SPLINE
  5
C3
  8
Text
 62
256
370
-1
  6
ByLayer
100
AcDbEntity
100
AcDbSpline
 70
8
 71
3
 72
8
 73
4
 74
0
 40
0.0
 40
0.0
 40
0.0
 40
0.0
 40
1.0
 40
1.0
 40
1.0
 40
1.0
 10
10.0970078999999995
 20
2.9847503999999998
 30
0.0
 10
9.9197588999999997
 20
2.7052583999999995
 30
0.0
 10
9.7277628000000007
 20
2.5280289000000002
 30
0.0
 10
9.4807716000000006
 20
2.4159107999999994
 30
0.0
  0
SPLINE
  5
C4
  8
Text
 62
256
370
-1
  6
ByLayer
100
AcDbEntity
100
AcDbSpline
 70
8
 71
3
 72
8
 73
4
 74
0
 40
0.0
 40
0.0
 40
0.0
 40
0.0
 40
1.0
 40
1.0
 40
1.0
 40
1.0
 10
9.4807716000000006
 20
2.4159107999999994
 30
0.0
 10
9.0431150999999996
 20
2.2172439000000002
 30
0.0
 10
8.8654742999999989
 20
2.2127072999999999
 30
0.0
 10
8.5037715000000009
 20
2.3909645999999993
 30
0.0
  0
LWPOLYLINE
  5
C5
  8
Text
 62
256
370
-1
  6
ByLayer
100
AcDbEntity
100
AcDbPolyline
 90
5
 70
0
 10
9.5453333999999987
 20
7.4139998999999994
 10
8.9103332999999996
 20
7.4139998999999994
 10
8.9103332999999996
 20
5.3781509999999999
 10
8.9103332999999996
 20
3.3423030000000002
 10
9.1234097999999992
 20
3.1292265000000001
  0
SPLINE
  5
C6
  8
Text
 62
256
370
-1
  6
ByLayer
100
AcDbEntity
100
AcDbSpline
 70
8
 71
3
 72
8
 73
4
 74
0
 40
0.0
 40
0.0
 40
0.0
 40
0.0
 40
1.0
 40
1.0
 40
1.0
 40
1.0
 10
45.1824900000000014
 20
2.4094337999999995
 30
0.0
 10
44.604695999999997
 20
2.7617691
 30
0.0
 10
44.3476319999999973
 20
3.4413342
 30
0.0
 10
44.5547492999999974
 20
4.0689062999999992
 30
0.0
  0
SPLINE
  5
C7
  8
Text
 62
256
370
-1
  6
ByLayer
100
AcDbEntity
100
AcDbSpline
 70
8
 71
3
 72
8
 73
4
 74
0
 40
0.0
 40
0.0
 40
0.0
 40
0.0
 40
1.0
 40
1.0
 40
1.0
 40
1.0
 10
44.5547492999999974
 20
4.0689062999999992
 30
0.0
 10
44.753982900000004
 20
4.6725906000000004
 30
0.0
 10
45.3366273000000035
 20
5.0918321999999998
 30
0.0
 10
46.7986667999999995
 20
5.6835159000000006
 30
0.0
  0
SPLINE
  5
C8
  8
Text
 62
256
370
-1
  6
ByLayer
100
AcDbEntity
100
AcDbSpline
 70
8
 71
3
 72
8
 73
4
 74
0
 40
0.0
 40
0.0
 40
0.0
 40
0.0
 40
1.0
 40
1.0
 40
1.0
 40
1.0
 10
46.7986667999999995
 20
5.6835159000000006
 30
0.0
 10
47.5470945
 20
5.9864021999999997
 30
0.0
 10
47.5792113000000043
 20
6.0355850999999996
 30
0.0
 10
47.4763733999999999
 20
6.7213530000000006
 30
0.0
  0
SPLINE
  5
C9
  8
Text
 62
256
370
-1
  6
ByLayer
100
AcDbEntity
100
AcDbSpline
 70
8
 71
3
 72
8
 73
4
 74
0
 40
0.0
 40
0.0
 40
0.0
 40
0.0
 40
1.0
 40
1.0
 40
1.0
 40
1.0
 10
47.4763733999999999
 20
6.7213530000000006
 30
0.0
 10
47.3939324999999982
 20
7.2711122999999986
 30
0.0
 10
47.0605244999999996
 20
7.583333399999999
 30
0.0
 10
46.5559010999999998
 20
7.583333399999999
 30
0.0
  0
SPLINE
  5
CA
  8
Text
 62
256
370
-1
  6
ByLayer
100
AcDbEntity
100
AcDbSpline
 70
8
 71
3
 72
8
 73
4
 74
0
 40
0.0
 40
0.0
 40
0.0
 40
0.0
 40
1.0
 40
1.0
 40
1.0
 40
1.0
 10
46.5559010999999998
 20
7.583333399999999
 30
0.0
 10
45.9908781000000033
 20
7.583333399999999
 30
0.0
 10
45.7298675999999986
 20
7.3299404999999993
 30
0.0
 10
45.686068800000001
 20
6.7388858999999997
 30
0.0
  0
SPLINE
  5
CB
  8
Text
 62
256
370
-1
  6
ByLayer
100
AcDbEntity
100
AcDbSpline
 70
8
 71
3
 72
8
 73
4
 74
0
 40
0.0
 40
0.0
 40
0.0
 40
0.0
 40
1.0
 40
1.0
 40
1.0
 40
1.0
 10
45.686068800000001
 20
6.7388858999999997
 30
0.0
 10
45.6463314000000011
 20
6.2026340999999992
 30
0.0
 10
45.5497385999999977
 20
6.0593333999999999
 30
0.0
 10
45.2280134999999959
 20
6.0593333999999999
 30
0.0
  0
SPLINE
  5
CC
  8
Text
 62
256
370
-1
  6
ByLayer
100
AcDbEntity
100
AcDbSpline
 70
8
 71
3
 72
8
 73
4
 74
0
 40
0.0
 40
0.0
 40
0.0
 40
0.0
 40
1.0
 40
1.0
 40
1.0
 40
1.0
 10
45.2280134999999959
 20
6.0593333999999999
 30
0.0
 10
44.8526939999999996
 20
6.0593333999999999
 30
0.0
 10
44.698130699999993
 20
6.2761433999999996
 30
0.0
 10
44.7493049999999997
 20
6.7308305999999991
 30
0.0
  0
SPLINE
  5
CD
  8
Text
 62
256
370
-1
  6
ByLayer
100
AcDbEntity
100
AcDbSpline
 70
8
 71
3
 72
8
 73
4
 74
0
 40
0.0
 40
0.0
 40
0.0
 40
0.0
 40
1.0
 40
1.0
 40
1.0
 40
1.0
 10
44.7493049999999997
 20
6.7308305999999991
 30
0.0
 10
44.8300547999999992
 20
7.4482985999999984
 30
0.0
 10
45.6627296999999999
 20
7.9548906000000006
 30
0.0
 10
46.7443283999999935
 20
7.9445864999999998
 30
0.0
  0
SPLINE
  5
CE
  8
Text
 62
256
370
-1
  6
ByLayer
100
AcDbEntity
100
AcDbSpline
 70
8
 71
3
 72
8
 73
4
 74
0
 40
0.0
 40
0.0
 40
0.0
 40
0.0
 40
1.0
 40
1.0
 40
1.0
 40
1.0
 10
46.7443283999999935
 20
7.9445864999999998
 30
0.0
 10
47.641110299999994
 20
7.9360428000000001
 30
0.0
 10
48.0641022000000007
 20
7.7323542000000005
 30
0.0
 10
48.373648799999998
 20
7.1600000999999995
 30
0.0
  0
SPLINE
  5
CF
  8
Text
 62
256
370
-1
  6
ByLayer
100
AcDbEntity
100
AcDbSpline
 70
8
 71
3
 72
8
 73
4
 74
0
 40
0.0
 40
0.0
 40
0.0
 40
0.0
 40
1.0
 40
1.0
 40
1.0
 40
1.0
 10
48.373648799999998
 20
7.1600000999999995
 30
0.0
 10
48.4568007000000023
 20
7.0062521999999996
 30
0.0
 10
48.4951869000000002
 20
6.4618182000000006
 30
0.0
 10
48.5139344999999977
 20
5.1703332
 30
0.0
  0
SPLINE
  5
D0
  8
Text
 62
256
370
-1
  6
ByLayer
100
AcDbEntity
100
AcDbSpline
 70
8
 71
3
 72
8
 73
4
 74
0
 40
0.0
 40
0.0
 40
0.0
 40
0.0
 40
1.0
 40
1.0
 40
1.0
 40
1.0
 10
48.5139344999999977
 20
5.1703332
 30
0.0
 10
48.5281307999999996
 20
4.1924333999999996
 30
0.0
 10
48.558304200000002
 20
3.3066083999999996
 30
0.0
 10
48.580985400000003
 20
3.2018334000000004
 30
0.0
  0
SPLINE
  5
D1
  8
Text
 62
256
370
-1
  6
ByLayer
100
AcDbEntity
100
AcDbSpline
 70
8
 71
3
 72
8
 73
4
 74
0
 40
0.0
 40
0.0
 40
0.0
 40
0.0
 40
1.0
 40
1.0
 40
1.0
 40
1.0
 10
48.580985400000003
 20
3.2018334000000004
 30
0.0
 10
48.636310200000004
 20
2.9462753999999998
 30
0.0
 10
48.880709699999997
 20
2.9575106999999998
 30
0.0
 10
49.2051701999999977
 20
3.2305259999999998
 30
0.0
  0
SPLINE
  5
D2
  8
Text
 62
256
370
-1
  6
ByLayer
100
AcDbEntity
100
AcDbSpline
 70
8
 71
3
 72
8
 73
4
 74
0
 40
0.0
 40
0.0
 40
0.0
 40
0.0
 40
1.0
 40
1.0
 40
1.0
 40
1.0
 10
49.2051701999999977
 20
3.2305259999999998
 30
0.0
 10
49.4389025999999987
 20
3.4271990999999997
 30
0.0
 10
49.465666800000001
 20
3.4333593000000002
 30
0.0
 10
49.465666800000001
 20
3.2904878999999996
 30
0.0
  0
SPLINE
  5
D3
  8
Text
 62
256
370
-1
  6
ByLayer
100
AcDbEntity
100
AcDbSpline
 70
8
 71
3
 72
8
 73
4
 74
0
 40
0.0
 40
0.0
 40
0.0
 40
0.0
 40
1.0
 40
1.0
 40
1.0
 40
1.0
 10
49.465666800000001
 20
3.2904878999999996
 30
0.0
 10
49.465666800000001
 20
3.1225403999999997
 30
0.0
 10
48.8749058999999946
 20
2.5043520000000004
 30
0.0
 10
48.5610659999999967
 20
2.3438883000000001
 30
0.0
  0
SPLINE
  5
D4
  8
Text
 62
256
370
-1
  6
ByLayer
100
AcDbEntity
100
AcDbSpline
 70
8
 71
3
 72
8
 73
4
 74
0
 40
0.0
 40
0.0
 40
0.0
 40
0.0
 40
1.0
 40
1.0
 40
1.0
 40
1.0
 10
48.5610659999999967
 20
2.3438883000000001
 30
0.0
 10
48.1121972999999983
 20
2.1143855999999994
 30
0.0
 10
47.6656778999999986
 20
2.325987
 30
0.0
 10
47.5423905000000033
 20
2.8266305999999997
 30
0.0
  0
LWPOLYLINE
  5
D5
  8
Text
 62
256
370
-1
  6
ByLayer
100
AcDbEntity
100
AcDbPolyline
 90
2
 70
0
 10
8.5037715000000009
 20
2.3909645999999993
 10
8.5037715000000009
 20
2.3909645999999993
  0
SPLINE
  5
D6
  8
Text
 62
256
370
-1
  6
ByLayer
100
AcDbEntity
100
AcDbSpline
 70
8
 71
3
 72
8
 73
4
 74
0
 40
0.0
 40
0.0
 40
0.0
 40
0.0
 40
1.0
 40
1.0
 40
1.0
 40
1.0
 10
47.0711553000000009
 20
2.8006089000000003
 30
0.0
 10
46.3281611999999967
 20
2.2332906000000001
 30
0.0
 10
45.6885806999999957
 20
2.1008219999999995
 30
0.0
 10
45.1824900000000014
 20
2.4094337999999995
 30
0.0
  0
LWPOLYLINE
  5
D7
  8
Text
 62
256
370
-1
  6
ByLayer
100
AcDbEntity
100
AcDbPolyline
 90
3
 70
0
 10
47.5423905000000033
 20
2.8266305999999997
 10
47.4732008999999948
 20
3.1075943999999995
 10
47.0711553000000009
 20
2.8006089000000003
  0
SPLINE
  5
D8
  8
Text
 62
256
370
-1
  6
ByLayer
100
AcDbEntity
100
AcDbSpline
 70
8
 71
3
 72
8
 73
4
 74
0
 40
0.0
 40
0.0
 40
0.0
 40
0.0
 40
1.0
 40
1.0
 40
1.0
 40
1.0
 10
46.8655398000000005
 20
3.1058646000000003
 30
0.0
 10
47.520653099999997
 20
3.4352000999999999
 30
0.0
 10
47.5183331999999936
 20
3.4300742999999998
 30
0.0
 10
47.5183331999999936
 20
4.548455699999999
 30
0.0
  0
SPLINE
  5
D9
  8
Text
 62
256
370
-1
  6
ByLayer
100
AcDbEntity
100
AcDbSpline
 70
8
 71
3
 72
8
 73
4
 74
0
 40
0.0
 40
0.0
 40
0.0
 40
0.0
 40
1.0
 40
1.0
 40
1.0
 40
1.0
 10
47.5183331999999936
 20
4.548455699999999
 30
0.0
 10
47.5183331999999936
 20
5.2017201000000002
 30
0.0
 10
47.4868829999999988
 20
5.5513331999999993
 30
0.0
 10
47.428117499999999
 20
5.5513331999999993
 30
0.0
  0
SPLINE
  5
DA
  8
Text
 62
256
370
-1
  6
ByLayer
100
AcDbEntity
100
AcDbSpline
 70
8
 71
3
 72
8
 73
4
 74
0
 40
0.0
 40
0.0
 40
0.0
 40
0.0
 40
1.0
 40
1.0
 40
1.0
 40
1.0
 10
47.428117499999999
 20
5.5513331999999993
 30
0.0
 10
47.1940007999999978
 20
5.5513331999999993
 30
0.0
 10
46.0904222999999931
 20
4.9487825999999995
 30
0.0
 10
45.8394839999999988
 20
4.6839437999999998
 30
0.0
  0
SPLINE
  5
DB
  8
Text
 62
256
370
-1
  6
ByLayer
100
AcDbEntity
100
AcDbSpline
 70
8
 71
3
 72
8
 73
4
 74
0
 40
0.0
 40
0.0
 40
0.0
 40
0.0
 40
1.0
 40
1.0
 40
1.0
 40
1.0
 10
45.8394839999999988
 20
4.6839437999999998
 30
0.0
 10
45.3605610000000041
 20
4.1784911999999998
 30
0.0
 10
45.4014683999999917
 20
3.4276190999999998
 30
0.0
 10
45.9280214999999927
 20
3.0588060000000001
 30
0.0
  0
SPLINE
  5
DC
  8
Text
 62
256
370
-1
  6
ByLayer
100
AcDbEntity
100
AcDbSpline
 70
8
 71
3
 72
8
 73
4
 74
0
 40
0.0
 40
0.0
 40
0.0
 40
0.0
 40
1.0
 40
1.0
 40
1.0
 40
1.0
 10
45.9280214999999927
 20
3.0588060000000001
 30
0.0
 10
46.1836886999999976
 20
2.8797299999999999
 30
0.0
 10
46.4414504999999949
 20
2.8926687000000002
 30
0.0
 10
46.8655398000000005
 20
3.1058646000000003
 30
0.0
  0
LWPOLYLINE
  5
DD
  8
Text
 62
256
370
-1
  6
ByLayer
100
AcDbEntity
100
AcDbPolyline
 90
2
 70
0
 10
45.1824900000000014
 20
2.4094337999999995
 10
45.1824900000000014
 20
2.4094337999999995
  0
SPLINE
  5
DE
  8
Text
 62
256
370
-1
  6
ByLayer
100
AcDbEntity
100
AcDbSpline
 70
8
 71
3
 72
8
 73
4
 74
0
 40
0.0
 40
0.0
 40
0.0
 40
0.0
 40
1.0
 40
1.0
 40
1.0
 40
1.0
 10
51.080351400000005
 20
2.3934486000000001
 30
0.0
 10
50.920678499999994
 20
2.4771686999999996
 30
0.0
 10
50.7122570999999951
 20
2.6517234000000003
 30
0.0
 10
50.6171933999999979
 20
2.7813489000000002
 30
0.0
  0
SPLINE
  5
DF
  8
Text
 62
256
370
-1
  6
ByLayer
100
AcDbEntity
100
AcDbSpline
 70
8
 71
3
 72
8
 73
4
 74
0
 40
0.0
 40
0.0
 40
0.0
 40
0.0
 40
1.0
 40
1.0
 40
1.0
 40
1.0
 10
50.6171933999999979
 20
2.7813489000000002
 30
0.0
 10
50.4559820999999999
 20
3.0011709000000004
 30
0.0
 10
50.4420806999999982
 20
3.1649864999999999
 30
0.0
 10
50.4106346999999957
 20
5.2155156000000007
 30
0.0
  0
LWPOLYLINE
  5
E0
  8
Text
 62
256
370
-1
  6
ByLayer
100
AcDbEntity
100
AcDbPolyline
 90
2
 70
0
 10
46.8655398000000005
 20
3.1058646000000003
 10
46.8655398000000005
 20
3.1058646000000003
  0
SPLINE
  5
E1
  8
Text
 62
256
370
-1
  6
ByLayer
100
AcDbEntity
100
AcDbSpline
 70
8
 71
3
 72
8
 73
4
 74
0
 40
0.0
 40
0.0
 40
0.0
 40
0.0
 40
1.0
 40
1.0
 40
1.0
 40
1.0
 10
49.9636259999999979
 20
7.4139998999999994
 30
0.0
 10
49.499888999999996
 20
7.4139998999999994
 30
0.0
 10
49.434678599999998
 20
7.5191780999999995
 30
0.0
 10
49.785831899999998
 20
7.7007660000000007
 30
0.0
  0
SPLINE
  5
E2
  8
Text
 62
256
370
-1
  6
ByLayer
100
AcDbEntity
100
AcDbSpline
 70
8
 71
3
 72
8
 73
4
 74
0
 40
0.0
 40
0.0
 40
0.0
 40
0.0
 40
1.0
 40
1.0
 40
1.0
 40
1.0
 10
49.785831899999998
 20
7.7007660000000007
 30
0.0
 10
50.1598995000000016
 20
7.8942039000000008
 30
0.0
 10
50.8131155999999962
 20
8.6477711999999993
 30
0.0
 10
51.0441284999999993
 20
9.1523708999999993
 30
0.0
  0
SPLINE
  5
E3
  8
Text
 62
256
370
-1
  6
ByLayer
100
AcDbEntity
100
AcDbSpline
 70
8
 71
3
 72
8
 73
4
 74
0
 40
0.0
 40
0.0
 40
0.0
 40
0.0
 40
1.0
 40
1.0
 40
1.0
 40
1.0
 10
51.0441284999999993
 20
9.1523708999999993
 30
0.0
 10
51.1607018999999994
 20
9.4070000999999994
 30
0.0
 10
51.2913873000000038
 20
9.6153332999999996
 30
0.0
 10
51.3345401999999993
 20
9.6153332999999996
 30
0.0
  0
SPLINE
  5
E4
  8
Text
 62
256
370
-1
  6
ByLayer
100
AcDbEntity
100
AcDbSpline
 70
8
 71
3
 72
8
 73
4
 74
0
 40
0.0
 40
0.0
 40
0.0
 40
0.0
 40
1.0
 40
1.0
 40
1.0
 40
1.0
 10
51.3345401999999993
 20
9.6153332999999996
 30
0.0
 10
51.377726999999993
 20
9.6153332999999996
 30
0.0
 10
51.4130000999999979
 20
9.2156721000000008
 30
0.0
 10
51.4130000999999979
 20
8.7263333999999997
 30
0.0
  0
LWPOLYLINE
  5
E5
  8
Text
 62
256
370
-1
  6
ByLayer
100
AcDbEntity
100
AcDbPolyline
 90
3
 70
0
 10
50.4106346999999957
 20
5.2155156000000007
 10
50.3769194999999996
 20
7.4139998999999994
 10
49.9636259999999979
 20
7.4139998999999994
  0
SPLINE
  5
E6
  8
Text
 62
256
370
-1
  6
ByLayer
100
AcDbEntity
100
AcDbSpline
 70
8
 71
3
 72
8
 73
4
 74
0
 40
0.0
 40
0.0
 40
0.0
 40
0.0
 40
1.0
 40
1.0
 40
1.0
 40
1.0
 10
52.0479999000000007
 20
7.8373331999999989
 30
0.0
 10
52.6688885999999954
 20
7.8373331999999989
 30
0.0
 10
52.6829999999999998
 20
7.8326259
 30
0.0
 10
52.6829999999999998
 20
7.6256667
 30
0.0
  0
SPLINE
  5
E7
  8
Text
 62
256
370
-1
  6
ByLayer
100
AcDbEntity
100
AcDbSpline
 70
8
 71
3
 72
8
 73
4
 74
0
 40
0.0
 40
0.0
 40
0.0
 40
0.0
 40
1.0
 40
1.0
 40
1.0
 40
1.0
 10
52.6829999999999998
 20
7.6256667
 30
0.0
 10
52.6829999999999998
 20
7.4187041999999996
 30
0.0
 10
52.6688885999999954
 20
7.4139998999999994
 30
0.0
 10
52.0479999000000007
 20
7.4139998999999994
 30
0.0
  0
LWPOLYLINE
  5
E8
  8
Text
 62
256
370
-1
  6
ByLayer
100
AcDbEntity
100
AcDbPolyline
 90
3
 70
0
 10
51.4130000999999979
 20
8.7263333999999997
 10
51.4130000999999979
 20
7.8373331999999989
 10
52.0479999000000007
 20
7.8373331999999989
  0
SPLINE
  5
E9
  8
Text
 62
256
370
-1
  6
ByLayer
100
AcDbEntity
100
AcDbSpline
 70
8
 71
3
 72
8
 73
4
 74
0
 40
0.0
 40
0.0
 40
0.0
 40
0.0
 40
1.0
 40
1.0
 40
1.0
 40
1.0
 10
51.4130000999999979
 20
5.4721784999999992
 30
0.0
 10
51.4130000999999979
 20
4.4016419999999998
 30
0.0
 10
51.4504370999999949
 20
3.4318904999999997
 30
0.0
 10
51.4964354999999969
 20
3.3109058999999994
 30
0.0
  0
SPLINE
  5
EA
  8
Text
 62
256
370
-1
  6
ByLayer
100
AcDbEntity
100
AcDbSpline
 70
8
 71
3
 72
8
 73
4
 74
0
 40
0.0
 40
0.0
 40
0.0
 40
0.0
 40
1.0
 40
1.0
 40
1.0
 40
1.0
 10
51.4964354999999969
 20
3.3109058999999994
 30
0.0
 10
51.6526830000000032
 20
2.8999434000000002
 30
0.0
 10
52.2161151000000032
 20
2.8834443000000003
 30
0.0
 10
52.5224633999999995
 20
3.2808603000000001
 30
0.0
  0
SPLINE
  5
EB
  8
Text
 62
256
370
-1
  6
ByLayer
100
AcDbEntity
100
AcDbSpline
 70
8
 71
3
 72
8
 73
4
 74
0
 40
0.0
 40
0.0
 40
0.0
 40
0.0
 40
1.0
 40
1.0
 40
1.0
 40
1.0
 10
52.5224633999999995
 20
3.2808603000000001
 30
0.0
 10
52.7471679000000009
 20
3.5723625000000001
 30
0.0
 10
52.876895999999995
 20
3.4354922999999995
 30
0.0
 10
52.6958550000000017
 20
3.0979212
 30
0.0
  0
SPLINE
  5
EC
  8
Text
 62
256
370
-1
  6
ByLayer
100
AcDbEntity
100
AcDbSpline
 70
8
 71
3
 72
8
 73
4
 74
0
 40
0.0
 40
0.0
 40
0.0
 40
0.0
 40
1.0
 40
1.0
 40
1.0
 40
1.0
 10
52.6958550000000017
 20
3.0979212
 30
0.0
 10
52.332936299999993
 20
2.4212192999999993
 30
0.0
 10
51.6201776999999993
 20
2.1104072999999994
 30
0.0
 10
51.080351400000005
 20
2.3934486000000001
 30
0.0
  0
LWPOLYLINE
  5
ED
  8
Text
 62
256
370
-1
  6
ByLayer
100
AcDbEntity
100
AcDbPolyline
 90
3
 70
0
 10
52.0479999000000007
 20
7.4139998999999994
 10
51.4130000999999979
 20
7.4139998999999994
 10
51.4130000999999979
 20
5.4721784999999992
  0
SPLINE
  5
EE
  8
Text
 62
256
370
-1
  6
ByLayer
100
AcDbEntity
100
AcDbSpline
 70
8
 71
3
 72
8
 73
4
 74
0
 40
0.0
 40
0.0
 40
0.0
 40
0.0
 40
1.0
 40
1.0
 40
1.0
 40
1.0
 10
16.1916666000000014
 20
2.4609999
 30
0.0
 10
16.1916666000000014
 20
2.5400220000000004
 30
0.0
 10
16.2716291999999996
 20
2.5880001000000004
 30
0.0
 10
16.4033334000000011
 20
2.5880001000000004
 30
0.0
  0
SPLINE
  5
EF
  8
Text
 62
256
370
-1
  6
ByLayer
100
AcDbEntity
100
AcDbSpline
 70
8
 71
3
 72
8
 73
4
 74
0
 40
0.0
 40
0.0
 40
0.0
 40
0.0
 40
1.0
 40
1.0
 40
1.0
 40
1.0
 10
16.4033334000000011
 20
2.5880001000000004
 30
0.0
 10
16.5197498999999972
 20
2.5880001000000004
 30
0.0
 10
16.6911998999999973
 20
2.6642000999999995
 30
0.0
 10
16.7843333999999977
 20
2.7573332999999995
 30
0.0
  0
SPLINE
  5
F0
  8
Text
 62
256
370
-1
  6
ByLayer
100
AcDbEntity
100
AcDbSpline
 70
8
 71
3
 72
8
 73
4
 74
0
 40
0.0
 40
0.0
 40
0.0
 40
0.0
 40
1.0
 40
1.0
 40
1.0
 40
1.0
 10
16.7843333999999977
 20
2.7573332999999995
 30
0.0
 10
16.9438785000000003
 20
2.9168783999999999
 30
0.0
 10
16.9536665999999983
 20
3.0395553000000004
 30
0.0
 10
16.9536665999999983
 20
4.8795659999999996
 30
0.0
  0
SPLINE
  5
F1
  8
Text
 62
256
370
-1
  6
ByLayer
100
AcDbEntity
100
AcDbSpline
 70
8
 71
3
 72
8
 73
4
 74
0
 40
0.0
 40
0.0
 40
0.0
 40
0.0
 40
1.0
 40
1.0
 40
1.0
 40
1.0
 10
16.9536665999999983
 20
4.8795659999999996
 30
0.0
 10
16.9536665999999983
 20
6.1079699999999999
 30
0.0
 10
16.9199693999999994
 20
6.8954300999999996
 30
0.0
 10
16.8628338000000007
 20
7.0021889999999987
 30
0.0
  0
SPLINE
  5
F2
  8
Text
 62
256
370
-1
  6
ByLayer
100
AcDbEntity
100
AcDbSpline
 70
8
 71
3
 72
8
 73
4
 74
0
 40
0.0
 40
0.0
 40
0.0
 40
0.0
 40
1.0
 40
1.0
 40
1.0
 40
1.0
 10
16.8628338000000007
 20
7.0021889999999987
 30
0.0
 10
16.7928152999999973
 20
7.1330192999999991
 30
0.0
 10
16.7022075000000001
 20
7.1658987000000005
 30
0.0
 10
16.4674283999999993
 20
7.1456708999999998
 30
0.0
  0
SPLINE
  5
F3
  8
Text
 62
256
370
-1
  6
ByLayer
100
AcDbEntity
100
AcDbSpline
 70
8
 71
3
 72
8
 73
4
 74
0
 40
0.0
 40
0.0
 40
0.0
 40
0.0
 40
1.0
 40
1.0
 40
1.0
 40
1.0
 10
16.4674283999999993
 20
7.1456708999999998
 30
0.0
 10
15.923196299999999
 20
7.098782700000001
 30
0.0
 10
16.0811411999999976
 20
7.3015728000000006
 30
0.0
 10
16.8344652000000004
 20
7.6169205
 30
0.0
  0
SPLINE
  5
F4
  8
Text
 62
256
370
-1
  6
ByLayer
100
AcDbEntity
100
AcDbSpline
 70
8
 71
3
 72
8
 73
4
 74
0
 40
0.0
 40
0.0
 40
0.0
 40
0.0
 40
1.0
 40
1.0
 40
1.0
 40
1.0
 10
16.8344652000000004
 20
7.6169205
 30
0.0
 10
17.2386564
 20
7.7861183999999994
 30
0.0
 10
17.6578088999999991
 20
7.9467521999999988
 30
0.0
 10
17.7659144999999974
 20
7.9738854000000003
 30
0.0
  0
LWPOLYLINE
  5
F5
  8
Text
 62
256
370
-1
  6
ByLayer
100
AcDbEntity
100
AcDbPolyline
 90
2
 70
0
 10
51.080351400000005
 20
2.3934486000000001
 10
51.080351400000005
 20
2.3934486000000001
  0
SPLINE
  5
F6
  8
Text
 62
256
370
-1
  6
ByLayer
100
AcDbEntity
100
AcDbSpline
 70
8
 71
3
 72
8
 73
4
 74
0
 40
0.0
 40
0.0
 40
0.0
 40
0.0
 40
1.0
 40
1.0
 40
1.0
 40
1.0
 10
17.9872349999999983
 20
5.4836982000000001
 30
0.0
 10
18.0102380999999987
 20
3.1248950999999998
 30
0.0
 10
18.0234774000000009
 20
2.9315061
 30
0.0
 10
18.1732892999999969
 20
2.7660897000000002
 30
0.0
  0
SPLINE
  5
F7
  8
Text
 62
256
370
-1
  6
ByLayer
100
AcDbEntity
100
AcDbSpline
 70
8
 71
3
 72
8
 73
4
 74
0
 40
0.0
 40
0.0
 40
0.0
 40
0.0
 40
1.0
 40
1.0
 40
1.0
 40
1.0
 10
18.1732892999999969
 20
2.7660897000000002
 30
0.0
 10
18.265197299999997
 20
2.6646072000000003
 30
0.0
 10
18.4381940999999969
 20
2.5880001000000004
 30
0.0
 10
18.5754558000000003
 20
2.5880001000000004
 30
0.0
  0
SPLINE
  5
F8
  8
Text
 62
256
370
-1
  6
ByLayer
100
AcDbEntity
100
AcDbSpline
 70
8
 71
3
 72
8
 73
4
 74
0
 40
0.0
 40
0.0
 40
0.0
 40
0.0
 40
1.0
 40
1.0
 40
1.0
 40
1.0
 10
18.5754558000000003
 20
2.5880001000000004
 30
0.0
 10
18.7331246999999976
 20
2.5880001000000004
 30
0.0
 10
18.8163332999999966
 20
2.5441289999999994
 30
0.0
 10
18.8163332999999966
 20
2.4609999
 30
0.0
  0
SPLINE
  5
F9
  8
Text
 62
256
370
-1
  6
ByLayer
100
AcDbEntity
100
AcDbSpline
 70
8
 71
3
 72
8
 73
4
 74
0
 40
0.0
 40
0.0
 40
0.0
 40
0.0
 40
1.0
 40
1.0
 40
1.0
 40
1.0
 10
18.8163332999999966
 20
2.4609999
 30
0.0
 10
18.8163332999999966
 20
2.3535732
 30
0.0
 10
18.6140739000000011
 20
2.3340000000000001
 30
0.0
 10
17.504000099999999
 20
2.3340000000000001
 30
0.0
  0
SPLINE
  5
FA
  8
Text
 62
256
370
-1
  6
ByLayer
100
AcDbEntity
100
AcDbSpline
 70
8
 71
3
 72
8
 73
4
 74
0
 40
0.0
 40
0.0
 40
0.0
 40
0.0
 40
1.0
 40
1.0
 40
1.0
 40
1.0
 10
17.504000099999999
 20
2.3340000000000001
 30
0.0
 10
16.3939260000000004
 20
2.3340000000000001
 30
0.0
 10
16.1916666000000014
 20
2.3535732
 30
0.0
 10
16.1916666000000014
 20
2.4609999
 30
0.0
  0
LWPOLYLINE
  5
FB
  8
Text
 62
256
370
-1
  6
ByLayer
100
AcDbEntity
100
AcDbPolyline
 90
3
 70
0
 10
17.7659144999999974
 20
7.9738854000000003
 10
17.9624708999999996
 20
8.0232174000000001
 10
17.9872349999999983
 20
5.4836982000000001
  0
SPLINE
  5
FC
  8
Text
 62
256
370
-1
  6
ByLayer
100
AcDbEntity
100
AcDbSpline
 70
8
 71
3
 72
8
 73
4
 74
0
 40
0.0
 40
0.0
 40
0.0
 40
0.0
 40
1.0
 40
1.0
 40
1.0
 40
1.0
 10
19.2396665999999996
 20
2.4609999
 30
0.0
 10
19.2396665999999996
 20
2.5427862000000006
 30
0.0
 10
19.3225577999999985
 20
2.5884615000000002
 30
0.0
 10
19.472499899999999
 20
2.5892961000000003
 30
0.0
  0
SPLINE
  5
FD
  8
Text
 62
256
370
-1
  6
ByLayer
100
AcDbEntity
100
AcDbSpline
 70
8
 71
3
 72
8
 73
4
 74
0
 40
0.0
 40
0.0
 40
0.0
 40
0.0
 40
1.0
 40
1.0
 40
1.0
 40
1.0
 10
19.472499899999999
 20
2.5892961000000003
 30
0.0
 10
20.0268888000000018
 20
2.5923867
 30
0.0
 10
20.0865965999999965
 20
2.8217976000000005
 30
0.0
 10
20.0850851999999982
 20
4.9430117999999998
 30
0.0
  0
SPLINE
  5
FE
  8
Text
 62
256
370
-1
  6
ByLayer
100
AcDbEntity
100
AcDbSpline
 70
8
 71
3
 72
8
 73
4
 74
0
 40
0.0
 40
0.0
 40
0.0
 40
0.0
 40
1.0
 40
1.0
 40
1.0
 40
1.0
 10
20.0850851999999982
 20
4.9430117999999998
 30
0.0
 10
20.0836374000000006
 20
6.9717029999999998
 30
0.0
 10
20.0480309999999982
 20
7.1176667999999994
 30
0.0
 10
19.5545681999999985
 20
7.1176667999999994
 30
0.0
  0
SPLINE
  5
FF
  8
Text
 62
256
370
-1
  6
ByLayer
100
AcDbEntity
100
AcDbSpline
 70
8
 71
3
 72
8
 73
4
 74
0
 40
0.0
 40
0.0
 40
0.0
 40
0.0
 40
1.0
 40
1.0
 40
1.0
 40
1.0
 10
19.5545681999999985
 20
7.1176667999999994
 30
0.0
 10
19.3823292000000009
 20
7.1176667999999994
 30
0.0
 10
19.2255630000000011
 20
7.1590314000000008
 30
0.0
 10
19.2061989000000004
 20
7.2095883000000001
 30
0.0
  0
SPLINE
  5
100
  8
Text
 62
256
370
-1
  6
ByLayer
100
AcDbEntity
100
AcDbSpline
 70
8
 71
3
 72
8
 73
4
 74
0
 40
0.0
 40
0.0
 40
0.0
 40
0.0
 40
1.0
 40
1.0
 40
1.0
 40
1.0
 10
19.2061989000000004
 20
7.2095883000000001
 30
0.0
 10
19.1633540999999994
 20
7.3214508000000009
 30
0.0
 10
20.8883714999999981
 20
8.0442425999999987
 30
0.0
 10
21.0135491999999999
 20
7.9668782999999994
 30
0.0
  0
SPLINE
  5
101
  8
Text
 62
256
370
-1
  6
ByLayer
100
AcDbEntity
100
AcDbSpline
 70
8
 71
3
 72
8
 73
4
 74
0
 40
0.0
 40
0.0
 40
0.0
 40
0.0
 40
1.0
 40
1.0
 40
1.0
 40
1.0
 10
21.0135491999999999
 20
7.9668782999999994
 30
0.0
 10
21.0623807999999997
 20
7.9366988999999997
 30
0.0
 10
21.102333299999998
 20
7.680441899999999
 30
0.0
 10
21.102333299999998
 20
7.3974170999999993
 30
0.0
  0
LWPOLYLINE
  5
102
  8
Text
 62
256
370
-1
  6
ByLayer
100
AcDbEntity
100
AcDbPolyline
 90
2
 70
0
 10
16.1916666000000014
 20
2.4609999
 10
16.1916666000000014
 20
2.4609999
  0
SPLINE
  5
103
  8
Text
 62
256
370
-1
  6
ByLayer
100
AcDbEntity
100
AcDbSpline
 70
8
 71
3
 72
8
 73
4
 74
0
 40
0.0
 40
0.0
 40
0.0
 40
0.0
 40
1.0
 40
1.0
 40
1.0
 40
1.0
 10
21.5123570999999991
 20
7.2663567000000002
 30
0.0
 10
22.0525491000000002
 20
7.7716439999999984
 30
0.0
 10
22.3996154999999995
 20
7.9415385000000001
 30
0.0
 10
22.8916379999999968
 20
7.9415385000000001
 30
0.0
  0
SPLINE
  5
104
  8
Text
 62
256
370
-1
  6
ByLayer
100
AcDbEntity
100
AcDbSpline
 70
8
 71
3
 72
8
 73
4
 74
0
 40
0.0
 40
0.0
 40
0.0
 40
0.0
 40
1.0
 40
1.0
 40
1.0
 40
1.0
 10
22.8916379999999968
 20
7.9415385000000001
 30
0.0
 10
23.4514820999999962
 20
7.9415385000000001
 30
0.0
 10
23.8064478000000008
 20
7.7176122000000005
 30
0.0
 10
24.0656667000000013
 20
7.2009134999999995
 30
0.0
  0
SPLINE
  5
105
  8
Text
 62
256
370
-1
  6
ByLayer
100
AcDbEntity
100
AcDbSpline
 70
8
 71
3
 72
8
 73
4
 74
0
 40
0.0
 40
0.0
 40
0.0
 40
0.0
 40
1.0
 40
1.0
 40
1.0
 40
1.0
 10
24.0656667000000013
 20
7.2009134999999995
 30
0.0
 10
24.2687513999999993
 20
6.7961060999999994
 30
0.0
 10
24.2790494999999993
 20
6.6989051999999996
 30
0.0
 10
24.3196668000000003
 20
4.8035294999999998
 30
0.0
  0
SPLINE
  5
106
  8
Text
 62
256
370
-1
  6
ByLayer
100
AcDbEntity
100
AcDbSpline
 70
8
 71
3
 72
8
 73
4
 74
0
 40
0.0
 40
0.0
 40
0.0
 40
0.0
 40
1.0
 40
1.0
 40
1.0
 40
1.0
 10
24.3196668000000003
 20
4.8035294999999998
 30
0.0
 10
24.3588977999999976
 20
2.9728074000000002
 30
0.0
 10
24.3740421000000005
 20
2.8192644000000002
 30
0.0
 10
24.5263491000000009
 20
2.7080295000000003
 30
0.0
  0
SPLINE
  5
107
  8
Text
 62
256
370
-1
  6
ByLayer
100
AcDbEntity
100
AcDbSpline
 70
8
 71
3
 72
8
 73
4
 74
0
 40
0.0
 40
0.0
 40
0.0
 40
0.0
 40
1.0
 40
1.0
 40
1.0
 40
1.0
 10
24.5263491000000009
 20
2.7080295000000003
 30
0.0
 10
24.6167408999999999
 20
2.6420129999999995
 30
0.0
 10
24.7977159
 20
2.5880001000000004
 30
0.0
 10
24.9285155999999972
 20
2.5880001000000004
 30
0.0
  0
SPLINE
  5
108
  8
Text
 62
256
370
-1
  6
ByLayer
100
AcDbEntity
100
AcDbSpline
 70
8
 71
3
 72
8
 73
4
 74
0
 40
0.0
 40
0.0
 40
0.0
 40
0.0
 40
1.0
 40
1.0
 40
1.0
 40
1.0
 10
24.9285155999999972
 20
2.5880001000000004
 30
0.0
 10
25.0834649999999968
 20
2.5880001000000004
 30
0.0
 10
25.1663333999999992
 20
2.5437464999999997
 30
0.0
 10
25.1663333999999992
 20
2.4609999
 30
0.0
  0
SPLINE
  5
109
  8
Text
 62
256
370
-1
  6
ByLayer
100
AcDbEntity
100
AcDbSpline
 70
8
 71
3
 72
8
 73
4
 74
0
 40
0.0
 40
0.0
 40
0.0
 40
0.0
 40
1.0
 40
1.0
 40
1.0
 40
1.0
 10
25.1663333999999992
 20
2.4609999
 30
0.0
 10
25.1663333999999992
 20
2.3534031
 30
0.0
 10
24.9593705999999997
 20
2.3340000000000001
 30
0.0
 10
23.8116665999999988
 20
2.3340000000000001
 30
0.0
  0
SPLINE
  5
10A
  8
Text
 62
256
370
-1
  6
ByLayer
100
AcDbEntity
100
AcDbSpline
 70
8
 71
3
 72
8
 73
4
 74
0
 40
0.0
 40
0.0
 40
0.0
 40
0.0
 40
1.0
 40
1.0
 40
1.0
 40
1.0
 10
23.8116665999999988
 20
2.3340000000000001
 30
0.0
 10
22.6639626000000014
 20
2.3340000000000001
 30
0.0
 10
22.4570000999999984
 20
2.3534031
 30
0.0
 10
22.4570000999999984
 20
2.4609999
 30
0.0
  0
SPLINE
  5
10B
  8
Text
 62
256
370
-1
  6
ByLayer
100
AcDbEntity
100
AcDbSpline
 70
8
 71
3
 72
8
 73
4
 74
0
 40
0.0
 40
0.0
 40
0.0
 40
0.0
 40
1.0
 40
1.0
 40
1.0
 40
1.0
 10
22.4570000999999984
 20
2.4609999
 30
0.0
 10
22.4570000999999984
 20
2.5456667999999998
 30
0.0
 10
22.5416667000000004
 20
2.5880001000000004
 30
0.0
 10
22.7109999000000009
 20
2.5880001000000004
 30
0.0
  0
SPLINE
  5
10C
  8
Text
 62
256
370
-1
  6
ByLayer
100
AcDbEntity
100
AcDbSpline
 70
8
 71
3
 72
8
 73
4
 74
0
 40
0.0
 40
0.0
 40
0.0
 40
0.0
 40
1.0
 40
1.0
 40
1.0
 40
1.0
 10
22.7109999000000009
 20
2.5880001000000004
 30
0.0
 10
22.8548985000000009
 20
2.5880001000000004
 30
0.0
 10
23.0408994000000007
 20
2.6638994999999999
 30
0.0
 10
23.1400973999999984
 20
2.7630975000000002
 30
0.0
  0
SPLINE
  5
10D
  8
Text
 62
256
370
-1
  6
ByLayer
100
AcDbEntity
100
AcDbSpline
 70
8
 71
3
 72
8
 73
4
 74
0
 40
0.0
 40
0.0
 40
0.0
 40
0.0
 40
1.0
 40
1.0
 40
1.0
 40
1.0
 10
23.1400973999999984
 20
2.7630975000000002
 30
0.0
 10
23.3083358999999994
 20
2.9313359999999999
 30
0.0
 10
23.3141400000000019
 20
3.0117626999999998
 30
0.0
 10
23.2882641000000028
 20
4.8162642
 30
0.0
  0
SPLINE
  5
10E
  8
Text
 62
256
370
-1
  6
ByLayer
100
AcDbEntity
100
AcDbSpline
 70
8
 71
3
 72
8
 73
4
 74
0
 40
0.0
 40
0.0
 40
0.0
 40
0.0
 40
1.0
 40
1.0
 40
1.0
 40
1.0
 10
23.2882641000000028
 20
4.8162642
 30
0.0
 10
23.2590344999999985
 20
6.8546531999999996
 30
0.0
 10
23.2320014999999991
 20
6.9792638999999994
 30
0.0
 10
22.7782574999999987
 20
7.1672111999999997
 30
0.0
  0
SPLINE
  5
10F
  8
Text
 62
256
370
-1
  6
ByLayer
100
AcDbEntity
100
AcDbSpline
 70
8
 71
3
 72
8
 73
4
 74
0
 40
0.0
 40
0.0
 40
0.0
 40
0.0
 40
1.0
 40
1.0
 40
1.0
 40
1.0
 10
22.7782574999999987
 20
7.1672111999999997
 30
0.0
 10
22.4543144999999988
 20
7.3013924999999995
 30
0.0
 10
22.0330790999999984
 20
7.2034052999999991
 30
0.0
 10
21.5521521000000007
 20
6.8819945999999996
 30
0.0
  0
LWPOLYLINE
  5
110
  8
Text
 62
256
370
-1
  6
ByLayer
100
AcDbEntity
100
AcDbPolyline
 90
3
 70
0
 10
21.102333299999998
 20
7.3974170999999993
 10
21.102333299999998
 20
6.882828299999999
 10
21.5123570999999991
 20
7.2663567000000002
  0
SPLINE
  5
111
  8
Text
 62
256
370
-1
  6
ByLayer
100
AcDbEntity
100
AcDbSpline
 70
8
 71
3
 72
8
 73
4
 74
0
 40
0.0
 40
0.0
 40
0.0
 40
0.0
 40
1.0
 40
1.0
 40
1.0
 40
1.0
 10
21.1218530999999992
 20
4.7698133999999994
 30
0.0
 10
21.1001648999999993
 20
3.0206822999999994
 30
0.0
 10
21.1074708000000015
 20
2.921529
 30
0.0
 10
21.2700197999999965
 20
2.7589799999999998
 30
0.0
  0
SPLINE
  5
112
  8
Text
 62
256
370
-1
  6
ByLayer
100
AcDbEntity
100
AcDbSpline
 70
8
 71
3
 72
8
 73
4
 74
0
 40
0.0
 40
0.0
 40
0.0
 40
0.0
 40
1.0
 40
1.0
 40
1.0
 40
1.0
 10
21.2700197999999965
 20
2.7589799999999998
 30
0.0
 10
21.3655577999999977
 20
2.6634422999999998
 30
0.0
 10
21.5530733999999988
 20
2.5880001000000004
 30
0.0
 10
21.6950000999999979
 20
2.5880001000000004
 30
0.0
  0
SPLINE
  5
113
  8
Text
 62
256
370
-1
  6
ByLayer
100
AcDbEntity
100
AcDbSpline
 70
8
 71
3
 72
8
 73
4
 74
0
 40
0.0
 40
0.0
 40
0.0
 40
0.0
 40
1.0
 40
1.0
 40
1.0
 40
1.0
 10
21.6950000999999979
 20
2.5880001000000004
 30
0.0
 10
21.864333300000002
 20
2.5880001000000004
 30
0.0
 10
21.9489998999999969
 20
2.5456667999999998
 30
0.0
 10
21.9489998999999969
 20
2.4609999
 30
0.0
  0
SPLINE
  5
114
  8
Text
 62
256
370
-1
  6
ByLayer
100
AcDbEntity
100
AcDbSpline
 70
8
 71
3
 72
8
 73
4
 74
0
 40
0.0
 40
0.0
 40
0.0
 40
0.0
 40
1.0
 40
1.0
 40
1.0
 40
1.0
 10
21.9489998999999969
 20
2.4609999
 30
0.0
 10
21.9489998999999969
 20
2.3534031
 30
0.0
 10
21.7420373999999974
 20
2.3340000000000001
 30
0.0
 10
20.5943334
 20
2.3340000000000001
 30
0.0
  0
SPLINE
  5
115
  8
Text
 62
256
370
-1
  6
ByLayer
100
AcDbEntity
100
AcDbSpline
 70
8
 71
3
 72
8
 73
4
 74
0
 40
0.0
 40
0.0
 40
0.0
 40
0.0
 40
1.0
 40
1.0
 40
1.0
 40
1.0
 10
20.5943334
 20
2.3340000000000001
 30
0.0
 10
19.4466293999999991
 20
2.3340000000000001
 30
0.0
 10
19.2396665999999996
 20
2.3534031
 30
0.0
 10
19.2396665999999996
 20
2.4609999
 30
0.0
  0
LWPOLYLINE
  5
116
  8
Text
 62
256
370
-1
  6
ByLayer
100
AcDbEntity
100
AcDbPolyline
 90
3
 70
0
 10
21.5521521000000007
 20
6.8819945999999996
 10
21.1446665999999972
 20
6.6096665999999988
 10
21.1218530999999992
 20
4.7698133999999994
  0
SPLINE
  5
117
  8
Text
 62
256
370
-1
  6
ByLayer
100
AcDbEntity
100
AcDbSpline
 70
8
 71
3
 72
8
 73
4
 74
0
 40
0.0
 40
0.0
 40
0.0
 40
0.0
 40
1.0
 40
1.0
 40
1.0
 40
1.0
 10
31.0107233999999998
 20
5.3090036999999999
 30
0.0
 10
30.7379265000000004
 20
5.4151511999999995
 30
0.0
 10
30.6725369999999984
 20
5.5285164
 30
0.0
 10
30.6709628999999993
 20
5.898044099999999
 30
0.0
  0
SPLINE
  5
118
  8
Text
 62
256
370
-1
  6
ByLayer
100
AcDbEntity
100
AcDbSpline
 70
8
 71
3
 72
8
 73
4
 74
0
 40
0.0
 40
0.0
 40
0.0
 40
0.0
 40
1.0
 40
1.0
 40
1.0
 40
1.0
 10
30.6709628999999993
 20
5.898044099999999
 30
0.0
 10
30.6702008999999975
 20
6.0859085999999998
 30
0.0
 10
30.7285100999999976
 20
6.2556743999999993
 30
0.0
 10
30.8233892999999988
 20
6.3415391999999997
 30
0.0
  0
SPLINE
  5
119
  8
Text
 62
256
370
-1
  6
ByLayer
100
AcDbEntity
100
AcDbSpline
 70
8
 71
3
 72
8
 73
4
 74
0
 40
0.0
 40
0.0
 40
0.0
 40
0.0
 40
1.0
 40
1.0
 40
1.0
 40
1.0
 10
30.8233892999999988
 20
6.3415391999999997
 30
0.0
 10
31.277901
 20
6.7528668000000005
 30
0.0
 10
31.9396668000000012
 20
6.4893165000000002
 30
0.0
 10
31.9396668000000012
 20
5.8969772999999996
 30
0.0
  0
SPLINE
  5
11A
  8
Text
 62
256
370
-1
  6
ByLayer
100
AcDbEntity
100
AcDbSpline
 70
8
 71
3
 72
8
 73
4
 74
0
 40
0.0
 40
0.0
 40
0.0
 40
0.0
 40
1.0
 40
1.0
 40
1.0
 40
1.0
 10
31.9396668000000012
 20
5.8969772999999996
 30
0.0
 10
31.9396668000000012
 20
5.4111567000000003
 30
0.0
 10
31.4860598999999972
 20
5.1240467999999995
 30
0.0
 10
31.0107233999999998
 20
5.3090036999999999
 30
0.0
  0
LWPOLYLINE
  5
11B
  8
Text
 62
256
370
-1
  6
ByLayer
100
AcDbEntity
100
AcDbPolyline
 90
2
 70
0
 10
19.2396665999999996
 20
2.4609999
 10
19.2396665999999996
 20
2.4609999
  0
SPLINE
  5
11C
  8
Text
 62
256
370
-1
  6
ByLayer
100
AcDbEntity
100
AcDbSpline
 70
8
 71
3
 72
8
 73
4
 74
0
 40
0.0
 40
0.0
 40
0.0
 40
0.0
 40
1.0
 40
1.0
 40
1.0
 40
1.0
 10
17.0768186999999969
 20
9.8231519999999986
 30
0.0
 10
16.8229337999999977
 20
10.0770359999999997
 30
0.0
 10
16.8140351999999993
 20
10.2846215999999995
 30
0.0
 10
17.0444783999999991
 20
10.577581799999999
 30
0.0
  0
SPLINE
  5
11D
  8
Text
 62
256
370
-1
  6
ByLayer
100
AcDbEntity
100
AcDbSpline
 70
8
 71
3
 72
8
 73
4
 74
0
 40
0.0
 40
0.0
 40
0.0
 40
0.0
 40
1.0
 40
1.0
 40
1.0
 40
1.0
 10
17.0444783999999991
 20
10.577581799999999
 30
0.0
 10
17.3817759000000009
 20
11.0063861999999997
 30
0.0
 10
18.0543332999999997
 20
10.7624429999999993
 30
0.0
 10
18.0543332999999997
 20
10.2112976999999994
 30
0.0
  0
SPLINE
  5
11E
  8
Text
 62
256
370
-1
  6
ByLayer
100
AcDbEntity
100
AcDbSpline
 70
8
 71
3
 72
8
 73
4
 74
0
 40
0.0
 40
0.0
 40
0.0
 40
0.0
 40
1.0
 40
1.0
 40
1.0
 40
1.0
 10
18.0543332999999997
 20
10.2112976999999994
 30
0.0
 10
18.0543332999999997
 20
9.9126513000000003
 30
0.0
 10
17.7698957999999969
 20
9.6153332999999996
 30
0.0
 10
17.4841862999999975
 20
9.6153332999999996
 30
0.0
  0
SPLINE
  5
11F
  8
Text
 62
256
370
-1
  6
ByLayer
100
AcDbEntity
100
AcDbSpline
 70
8
 71
3
 72
8
 73
4
 74
0
 40
0.0
 40
0.0
 40
0.0
 40
0.0
 40
1.0
 40
1.0
 40
1.0
 40
1.0
 10
17.4841862999999975
 20
9.6153332999999996
 30
0.0
 10
17.3744337000000009
 20
9.6153332999999996
 30
0.0
 10
17.191118699999997
 20
9.7088519999999985
 30
0.0
 10
17.0768186999999969
 20
9.8231519999999986
 30
0.0
  0
LWPOLYLINE
  5
120
  8
Text
 62
256
370
-1
  6
ByLayer
100
AcDbEntity
100
AcDbPolyline
 90
2
 70
0
 10
31.0107233999999998
 20
5.3090036999999999
 10
31.0107233999999998
 20
5.3090036999999999
  0
LWPOLYLINE
  5
121
  8
Text
 62
256
370
-1
  6
ByLayer
100
AcDbEntity
100
AcDbPolyline
 90
2
 70
0
 10
17.0768186999999969
 20
9.8231519999999986
 10
17.0768186999999969
 20
9.8231519999999986
  0
ENDSEC
  0
SECTION
  2
OBJECTS
  0
DICTIONARY
  5
C
100
AcDbDictionary
280
0
281
1
  3
ACAD_GROUP
350
D
  3
ACAD_LAYOUT
350
1A
  3
ACAD_MLINESTYLE
350
17
  3
ACAD_PLOTSETTINGS
350
19
  3
ACAD_PLOTSTYLENAME
350
E
  3
AcDbVariableDictionary
350
122
  0
DICTIONARY
  5
D
100
AcDbDictionary
280
0
281
1
  0
ACDBDICTIONARYWDFLT
  5
E
100
AcDbDictionary
281
1
  3
Normal
350
F
100
AcDbDictionaryWithDefault
340
F
  0
ACDBPLACEHOLDER
  5
F
  0
DICTIONARY
  5
17
100
AcDbDictionary
280
0
281
1
  3
Standard
350
18
  0
MLINESTYLE
  5
18
100
AcDbMlineStyle
  2
STANDARD
 70
0
  3

 62
256
 51
90.0
 52
90.0
 71
2
 49
0.5
 62
256
  6
BYLAYER
 49
-0.5
 62
256
  6
BYLAYER
  0
DICTIONARY
  5
19
100
AcDbDictionary
280
0
281
1
  0
DICTIONARY
  5
1A
100
AcDbDictionary
281
1
  3
Layout1
350
1E
  3
Layout2
350
26
  3
Model
350
22
  0
LAYOUT
  5
1E
100
AcDbPlotSettings
  1

  2
C:\Program Files\AutoCAD 2002\plotters\DWF ePlot (optimized for plotting).pc3
  4

  6

 40
0.0
 41
0.0
 42
0.0
 43
0.0
 44
0.0
 45
0.0
 46
0.0
 47
0.0
 48
0.0
 49
0.0
140
0.0
141
0.0
142
1.0
143
1.0
 70
688
 72
0
 73
0
 74
5
  7

 75
16
147
1.0
148
0.0
149
0.0
100
AcDbLayout
  1
Layout1
 70
1
 71
1
 10
0.0
 20
0.0
 11
420.0
 21
297.0
 12
0.0
 22
0.0
 32
0.0
 14
100000000000000000000.0
 24
100000000000000000000.0
 34
100000000000000000000.0
 15
-100000000000000000000.0
 25
-100000000000000000000.0
 35
-100000000000000000000.0
146
0.0
 13
0.0
 23
0.0
 33
0.0
 16
1.0
 26
0.0
 36
0.0
 17
0.0
 27
1.0
 37
0.0
 76
0
330
1B
  0
LAYOUT
  5
22
100
AcDbPlotSettings
  1

  2
C:\Program Files\AutoCAD 2002\plotters\DWF ePlot (optimized for plotting).pc3
  4

  6

 40
0.0
 41
0.0
 42
0.0
 43
0.0
 44
0.0
 45
0.0
 46
0.0
 47
0.0
 48
0.0
 49
0.0
140
0.0
141
0.0
142
1.0
143
1.0
 70
1712
 72
0
 73
0
 74
0
  7

 75
0
147
1.0
148
0.0
149
0.0
100
AcDbLayout
  1
Model
 70
1
 71
0
 10
0.0
 20
0.0
 11
12.0
 21
9.0
 12
0.0
 22
0.0
 32
0.0
 14
0.0
 24
0.0
 34
0.0
 15
0.0
 25
0.0
 35
0.0
146
0.0
 13
0.0
 23
0.0
 33
0.0
 16
1.0
 26
0.0
 36
0.0
 17
0.0
 27
1.0
 37
0.0
 76
0
330
1F
  0
LAYOUT
  5
26
100
AcDbPlotSettings
  1

  2
C:\Program Files\AutoCAD 2002\plotters\DWF ePlot (optimized for plotting).pc3
  4

  6

 40
0.0
 41
0.0
 42
0.0
 43
0.0
 44
0.0
 45
0.0
 46
0.0
 47
0.0
 48
0.0
 49
0.0
140
0.0
141
0.0
142
1.0
143
1.0
 70
688
 72
0
 73
0
 74
5
  7

 75
16
147
1.0
148
0.0
149
0.0
100
AcDbLayout
  1
Layout2
 70
1
 71
2
 10
0.0
 20
0.0
 11
12.0
 21
9.0
 12
0.0
 22
0.0
 32
0.0
 14
0.0
 24
0.0
 34
0.0
 15
0.0
 25
0.0
 35
0.0
146
0.0
 13
0.0
 23
0.0
 33
0.0
 16
1.0
 26
0.0
 36
0.0
 17
0.0
 27
1.0
 37
0.0
 76
0
330
23
  0
DICTIONARY
  5
122
100
AcDbDictionary
281
1
  3
DIMASSOC
350
124
  3
HIDETEXT
350
123
  0
DICTIONARYVAR
  5
123
100
DictionaryVariables
280
0
  1
2
  0
DICTIONARYVAR
  5
124
100
DictionaryVariables
280
0
  1
1
  0
ENDSEC
  0
EOF
