999
dxflib 2.2.0.0
  0
SECTION
  2
HEADER
  9
$ACADVER
  1
AC1015
  9
$HANDSEED
  5
FFFF
  9
$DIMASZ
 40
2.5
  9
$PLIMMIN
 10
0.0
 20
0.0
  9
$DIMEXE
 40
1.25
  9
$DIMGAP
 40
0.625
  9
$PLIMMAX
 10
210.0
 20
297.0
  9
$INSUNITS
 70
4
  9
$DIMSTYLE
  2
Standard
  9
$MEASUREMENT
 70
1
  9
$DIMEXO
 40
0.625
  9
$DIMTXT
 40
2.5
  0
ENDSEC
  0
SECTION
  2
TABLES
  0
TABLE
  2
VPORT
  5
8
100
AcDbSymbolTable
 70
1
  0
VPORT
  5
30
100
AcDbSymbolTableRecord
100
AcDbViewportTableRecord
  2
*Active
 70
0
 10
0.0
 20
0.0
 11
1.0
 21
1.0
 12
286.3055555555554861
 22
148.5
 13
0.0
 23
0.0
 14
10.0
 24
10.0
 15
10.0
 25
10.0
 16
0.0
 26
0.0
 36
1.0
 17
0.0
 27
0.0
 37
0.0
 40
297.0
 41
1.92798353909465
 42
50.0
 43
0.0
 44
0.0
 50
0.0
 51
0.0
 71
0
 72
100
 73
1
 74
3
 75
1
 76
1
 77
0
 78
0
281
0
 65
1
110
0.0
120
0.0
130
0.0
111
1.0
121
0.0
131
0.0
112
0.0
122
1.0
132
0.0
 79
0
146
0.0
  0
ENDTAB
  0
TABLE
  2
LTYPE
  5
5
100
AcDbSymbolTable
 70
21
  0
LTYPE
  5
14
100
AcDbSymbolTableRecord
100
AcDbLinetypeTableRecord
  2
ByBlock
 70
0
  3

 72
65
 73
0
 40
0.0
  0
LTYPE
  5
15
100
AcDbSymbolTableRecord
100
AcDbLinetypeTableRecord
  2
ByLayer
 70
0
  3

 72
65
 73
0
 40
0.0
  0
LTYPE
  5
16
100
AcDbSymbolTableRecord
100
AcDbLinetypeTableRecord
  2
CONTINUOUS
 70
0
  3
Solid line
 72
65
 73
0
 40
0.0
  0
LTYPE
  5
31
100
AcDbSymbolTableRecord
100
AcDbLinetypeTableRecord
  2
DOT
 70
0
  3
Dot . . . . . . . . . . . . . . . . . . . . . .
 72
65
 73
2
 40
6.3499999999999996
 49
0.0
 74
0
 49
-6.3499999999999996
 74
0
  0
LTYPE
  5
32
100
AcDbSymbolTableRecord
100
AcDbLinetypeTableRecord
  2
DOT2
 70
0
  3
Dot (.5x) .....................................
 72
65
 73
2
 40
3.1749999999999998
 49
0.0
 74
0
 49
-3.1749999999999998
 74
0
  0
LTYPE
  5
33
100
AcDbSymbolTableRecord
100
AcDbLinetypeTableRecord
  2
DOTX2
 70
0
  3
Dot (2x) .  .  .  .  .  .  .  .  .  .  .  .  .
 72
65
 73
2
 40
12.6999999999999993
 49
0.0
 74
0
 49
-12.6999999999999993
 74
0
  0
LTYPE
  5
34
100
AcDbSymbolTableRecord
100
AcDbLinetypeTableRecord
  2
DASHED
 70
0
  3
Dashed __ __ __ __ __ __ __ __ __ __ __ __ __ _
 72
65
 73
2
 40
19.0500000000000007
 49
12.6999999999999993
 74
0
 49
-6.3499999999999996
 74
0
  0
LTYPE
  5
35
100
AcDbSymbolTableRecord
100
AcDbLinetypeTableRecord
  2
DASHED2
 70
0
  3
Dashed (.5x) _ _ _ _ _ _ _ _ _ _ _ _ _ _ _ _ _
 72
65
 73
2
 40
9.5250000000000004
 49
6.3499999999999996
 74
0
 49
-3.1749999999999998
 74
0
  0
LTYPE
  5
36
100
AcDbSymbolTableRecord
100
AcDbLinetypeTableRecord
  2
DASHEDX2
 70
0
  3
Dashed (2x) ____  ____  ____  ____  ____  ___
 72
65
 73
2
 40
38.1000000000000014
 49
25.3999999999999986
 74
0
 49
-12.6999999999999993
 74
0
  0
LTYPE
  5
37
100
AcDbSymbolTableRecord
100
AcDbLinetypeTableRecord
  2
DASHDOT
 70
0
  3
Dash dot __ . __ . __ . __ . __ . __ . __ . __
 72
65
 73
4
 40
25.3999999999999986
 49
12.6999999999999993
 74
0
 49
-6.3499999999999996
 74
0
 49
0.0
 74
0
 49
-6.3499999999999996
 74
0
  0
LTYPE
  5
38
100
AcDbSymbolTableRecord
100
AcDbLinetypeTableRecord
  2
DASHDOT2
 70
0
  3
Dash dot (.5x) _._._._._._._._._._._._._._._.
 72
65
 73
4
 40
12.6999999999999993
 49
6.3499999999999996
 74
0
 49
-3.1749999999999998
 74
0
 49
0.0
 74
0
 49
-3.1749999999999998
 74
0
  0
LTYPE
  5
39
100
AcDbSymbolTableRecord
100
AcDbLinetypeTableRecord
  2
DASHDOTX2
 70
0
  3
Dash dot (2x) ____  .  ____  .  ____  .  ___
 72
65
 73
4
 40
50.7999999999999972
 49
25.3999999999999986
 74
0
 49
-12.6999999999999993
 74
0
 49
0.0
 74
0
 49
-12.6999999999999993
 74
0
  0
LTYPE
  5
3A
100
AcDbSymbolTableRecord
100
AcDbLinetypeTableRecord
  2
DIVIDE
 70
0
  3
Divide ____ . . ____ . . ____ . . ____ . . ____
 72
65
 73
6
 40
31.75
 49
12.6999999999999993
 74
0
 49
-6.3499999999999996
 74
0
 49
0.0
 74
0
 49
-6.3499999999999996
 74
0
 49
0.0
 74
0
 49
-6.3499999999999996
 74
0
  0
LTYPE
  5
3B
100
AcDbSymbolTableRecord
100
AcDbLinetypeTableRecord
  2
DIVIDE2
 70
0
  3
Divide (.5x) __..__..__..__..__..__..__..__.._
 72
65
 73
6
 40
15.875
 49
6.3499999999999996
 74
0
 49
-3.1749999999999998
 74
0
 49
0.0
 74
0
 49
-3.1749999999999998
 74
0
 49
0.0
 74
0
 49
-3.1749999999999998
 74
0
  0
LTYPE
  5
3C
100
AcDbSymbolTableRecord
100
AcDbLinetypeTableRecord
  2
DIVIDEX2
 70
0
  3
Divide (2x) ________  .  .  ________  .  .  _
 72
65
 73
6
 40
63.5
 49
25.3999999999999986
 74
0
 49
-12.6999999999999993
 74
0
 49
0.0
 74
0
 49
-12.6999999999999993
 74
0
 49
0.0
 74
0
 49
-12.6999999999999993
 74
0
  0
LTYPE
  5
3D
100
AcDbSymbolTableRecord
100
AcDbLinetypeTableRecord
  2
CENTER
 70
0
  3
Center ____ _ ____ _ ____ _ ____ _ ____ _ ____
 72
65
 73
4
 40
50.7999999999999972
 49
31.75
 74
0
 49
-6.3499999999999996
 74
0
 49
6.3499999999999996
 74
0
 49
-6.3499999999999996
 74
0
  0
LTYPE
  5
3E
100
AcDbSymbolTableRecord
100
AcDbLinetypeTableRecord
  2
CENTER2
 70
0
  3
Center (.5x) ___ _ ___ _ ___ _ ___ _ ___ _ ___
 72
65
 73
4
 40
28.5749999999999993
 49
19.0500000000000007
 74
0
 49
-3.1749999999999998
 74
0
 49
3.1749999999999998
 74
0
 49
-3.1749999999999998
 74
0
  0
LTYPE
  5
3F
100
AcDbSymbolTableRecord
100
AcDbLinetypeTableRecord
  2
CENTERX2
 70
0
  3
Center (2x) ________  __  ________  __  _____
 72
65
 73
4
 40
101.5999999999999943
 49
63.5
 74
0
 49
-12.6999999999999993
 74
0
 49
12.6999999999999993
 74
0
 49
-12.6999999999999993
 74
0
  0
LTYPE
  5
40
100
AcDbSymbolTableRecord
100
AcDbLinetypeTableRecord
  2
BORDER
 70
0
  3
Border __ __ . __ __ . __ __ . __ __ . __ __ .
 72
65
 73
6
 40
44.4500000000000028
 49
12.6999999999999993
 74
0
 49
-6.3499999999999996
 74
0
 49
12.6999999999999993
 74
0
 49
-6.3499999999999996
 74
0
 49
0.0
 74
0
 49
-6.3499999999999996
 74
0
  0
LTYPE
  5
41
100
AcDbSymbolTableRecord
100
AcDbLinetypeTableRecord
  2
BORDER2
 70
0
  3
Border (.5x) __.__.__.__.__.__.__.__.__.__.__.
 72
65
 73
6
 40
22.2250000000000014
 49
6.3499999999999996
 74
0
 49
-3.1749999999999998
 74
0
 49
6.3499999999999996
 74
0
 49
-3.1749999999999998
 74
0
 49
0.0
 74
0
 49
-3.1749999999999998
 74
0
  0
LTYPE
  5
42
100
AcDbSymbolTableRecord
100
AcDbLinetypeTableRecord
  2
BORDERX2
 70
0
  3
Border (2x) ____  ____  .  ____  ____  .  ___
 72
65
 73
6
 40
88.9000000000000057
 49
25.3999999999999986
 74
0
 49
-12.6999999999999993
 74
0
 49
25.3999999999999986
 74
0
 49
-12.6999999999999993
 74
0
 49
0.0
 74
0
 49
-12.6999999999999993
 74
0
  0
ENDTAB
  0
TABLE
  2
LAYER
  5
2
100
AcDbSymbolTable
 70
1
  0
LAYER
  5
10
100
AcDbSymbolTableRecord
100
AcDbLayerTableRecord
  2
0
 70
0
 62
7
  6
CONTINUOUS
390
F
  0
ENDTAB
  0
TABLE
  2
STYLE
  5
3
100
AcDbSymbolTable
 70
1
  0
STYLE
  5
11
100
AcDbSymbolTableRecord
100
AcDbTextStyleTableRecord
  2
Standard
 70
0
 40
0.0
 41
0.75
 50
0.0
 71
0
 42
2.5
  3
txt
  4

  0
ENDTAB
  0
TABLE
  2
VIEW
  5
6
100
AcDbSymbolTable
 70
0
  0
ENDTAB
  0
TABLE
  2
UCS
  5
7
100
AcDbSymbolTable
 70
0
  0
ENDTAB
  0
TABLE
  2
APPID
  5
9
100
AcDbSymbolTable
 70
1
  0
APPID
  5
12
100
AcDbSymbolTableRecord
100
AcDbRegAppTableRecord
  2
ACAD
 70
0
  0
ENDTAB
  0
TABLE
  2
DIMSTYLE
  5
A
100
AcDbSymbolTable
 70
1
100
AcDbDimStyleTable
 71
0
  0
DIMSTYLE
105
27
100
AcDbSymbolTableRecord
100
AcDbDimStyleTableRecord
  2
Standard
 41
2.5
 42
0.625
 43
3.75
 44
1.25
 70
0
 73
0
 74
0
 77
1
 78
8
140
2.5
141
2.5
143
0.03937007874016
147
0.625
171
3
172
1
271
2
272
2
274
3
278
44
283
0
284
8
340
11
  0
ENDTAB
  0
TABLE
  2
BLOCK_RECORD
  5
1
100
AcDbSymbolTable
 70
1
  0
BLOCK_RECORD
  5
1F
100
AcDbSymbolTableRecord
100
AcDbBlockTableRecord
  2
*Model_Space
340
22
  0
BLOCK_RECORD
  5
1B
100
AcDbSymbolTableRecord
100
AcDbBlockTableRecord
  2
*Paper_Space
340
1E
  0
BLOCK_RECORD
  5
23
100
AcDbSymbolTableRecord
100
AcDbBlockTableRecord
  2
*Paper_Space0
340
26
  0
ENDTAB
  0
ENDSEC
  0
SECTION
  2
BLOCKS
  0
BLOCK
  5
20
100
AcDbEntity
  8
0
100
AcDbBlockBegin
  2
*Model_Space
 70
0
 10
0.0
 20
0.0
 30
0.0
  3
*Model_Space
  1

  0
ENDBLK
  5
21
100
AcDbEntity
  8
0
100
AcDbBlockEnd
  0
BLOCK
  5
1C
100
AcDbEntity
 67
1
  8
0
100
AcDbBlockBegin
  2
*Paper_Space
 70
0
 10
0.0
 20
0.0
 30
0.0
  3
*Paper_Space
  1

  0
ENDBLK
  5
1D
100
AcDbEntity
 67
1
  8
0
100
AcDbBlockEnd
  0
BLOCK
  5
24
100
AcDbEntity
  8
0
100
AcDbBlockBegin
  2
*Paper_Space0
 70
0
 10
0.0
 20
0.0
 30
0.0
  3
*Paper_Space0
  1

  0
ENDBLK
  5
25
100
AcDbEntity
  8
0
100
AcDbBlockEnd
  0
ENDSEC
  0
SECTION
  2
ENTITIES
  0
LWPOLYLINE
  5
43
  8
0
 62
7
370
-1
  6
ByLayer
100
AcDbEntity
100
AcDbPolyline
 90
72
 70
0
 10
25.7578285999999963
 20
52.8069241000000034
 10
25.4950275999999967
 20
52.985087749999991
 10
25.3712287500000002
 20
53.1787620000000061
 10
25.2943575499999973
 20
53.4325680000000034
 10
25.277273000000001
 20
54.0793515499999842
 10
25.4355216499999948
 20
54.8429888999999946
 10
25.7608511999999976
 20
55.6410295000000019
 10
26.134741499999997
 20
56.2260212500000307
 10
26.8137484999999991
 20
57.0483322499999872
 10
27.2310814999999984
 20
57.5627027499999713
 10
27.0162742500000022
 20
57.5398159000000078
 10
26.1770239500000024
 20
57.4716523499999994
 10
25.6060612499999962
 20
57.4280815500000017
 10
25.2660775499999986
 20
57.3155285500000105
 10
25.0524571500000022
 20
57.0654710499999851
 10
24.8605847000000004
 20
56.6093857000000185
 10
24.693902099999999
 20
56.1554504000000065
 10
24.6656931499999992
 20
56.1273191500000053
 10
24.6052540999999962
 20
56.1739436999999953
 10
24.5596616999999995
 20
56.2899070999999935
 10
24.6597812999999988
 20
56.6652002000000152
 10
24.9043893000000018
 20
57.3834408000000167
 10
25.1361046999999971
 20
57.893334799999991
 10
25.2480532499999981
 20
58.0470313499999975
 10
25.4269434999999966
 20
58.1248496499999874
 10
26.4416907999999964
 20
58.1385111999999822
 10
27.4652972999999996
 20
58.1457505999999853
 10
27.7014934000000004
 20
58.1919082499999831
 10
27.8532047499999997
 20
58.2761017999999922
 10
27.9752525500000004
 20
58.3472176000000218
 10
28.0101779999999962
 20
58.3131318000000078
 10
27.9692804999999964
 20
58.2103298000000109
 10
27.6581490500000022
 20
57.7953186999999957
 10
27.1006287999999991
 20
57.0603337499999839
 10
26.6764665999999977
 20
56.3441441499999769
 10
26.3765782000000009
 20
55.6287886000000071
 10
26.1918779500000021
 20
54.8963043999999911
 10
26.1515642499999998
 20
54.370647450000007
 10
26.2193910999999993
 20
53.9353611999999885
 10
26.385618700000002
 20
53.6216173499999798
 10
26.6405068999999983
 20
53.4605861999999945
 10
26.9425768499999982
 20
53.4602701499999853
 10
27.2799624999999999
 20
53.5884957999999756
 10
27.6370667999999995
 20
53.8287896999999873
 10
27.9982919999999993
 20
54.1646791000000007
 10
28.3480410499999991
 20
54.5796905500000094
 10
28.6707165499999945
 20
55.05735095
 10
28.9507214499999961
 20
55.581187199999988
 10
29.1724579999999989
 20
56.1347258499999953
 10
29.3661630499999973
 20
56.8791800500000022
 10
29.4142957500000009
 20
57.6706700500000125
 10
29.4002379999999981
 20
58.1918795500000101
 10
29.3320313999999946
 20
58.4569282499999758
 10
29.2502927499999998
 20
58.6687352999999803
 10
29.901600049999999
 20
58.9484860999999682
 10
30.0778859499999989
 20
58.9944050500000117
 10
30.1658108499999962
 20
58.9494738000000211
 10
30.3414166999999999
 20
58.6659034499999734
 10
30.3930014499999999
 20
58.2461036500000091
 10
30.3205913500000008
 20
57.6912987000000044
 10
30.1242122999999964
 20
57.0027129000000059
 10
29.8119359999999958
 20
56.2391210499999943
 10
29.4155189999999997
 20
55.5070733000000018
 10
28.951771449999999
 20
54.8246646499999883
 10
28.4375020999999961
 20
54.2099904500000207
 10
27.8895203999999985
 20
53.6811460499999953
 10
27.3246357999999958
 20
53.256226799999979
 10
26.7596573999999983
 20
52.9533280500000103
 10
26.2113946499999955
 20
52.7905447999999922
 10
25.9443114000000001
 20
52.7575611499999866
 10
25.7578285999999963
 20
52.8069349499999987
 10
25.7578285999999963
 20
52.8069241000000034
  0
LWPOLYLINE
  5
44
  8
0
 62
7
370
-1
  6
ByLayer
100
AcDbEntity
100
AcDbPolyline
 90
29
 70
0
 10
19.7420457499999991
 20
52.8027233999999908
 10
19.4238190999999993
 20
52.9133034500000008
 10
19.1836718499999996
 20
53.1131394500000056
 10
18.9927877999999986
 20
53.3800480499999992
 10
18.8786786999999983
 20
53.7287936500000001
 10
18.837431549999998
 20
54.1195871999999838
 10
18.8638012499999981
 20
54.6076758499999926
 10
19.0981826000000012
 20
55.6865760500000135
 10
19.4485388999999991
 20
56.5165898500000026
 10
19.9212352499999987
 20
57.1952685499999802
 10
20.5519513499999995
 20
57.7629135999999903
 10
21.3763665500000002
 20
58.2598250500000177
 10
22.0554018999999997
 20
58.5529980000000023
 10
22.6310843499999983
 20
58.6214929999999868
 10
22.9827681999999989
 20
58.6056138499999975
 10
23.20024175
 20
58.5237663500000167
 10
23.5790362499999979
 20
58.2103742499999726
 10
23.8008603000000001
 20
57.7512666499999909
 10
23.834836549999995
 20
57.3948105499999883
 10
23.7974334499999962
 20
56.9044192499999895
 10
23.5425998499999984
 20
55.7819517499999904
 10
23.178122799999997
 20
54.9267824000000076
 10
22.7711375499999988
 20
54.2606547000000035
 10
22.2272830500000005
 20
53.7652769499999863
 10
21.515632949999997
 20
53.3025303999999949
 10
20.7704584499999996
 20
52.9477626999999984
 10
20.1260314499999993
 20
52.7763228999999967
 10
19.7420457499999991
 20
52.8027233999999908
 10
19.7420457499999991
 20
52.8027233999999908
  0
LWPOLYLINE
  5
45
  8
0
 62
7
370
-1
  6
ByLayer
100
AcDbEntity
100
AcDbPolyline
 90
29
 70
0
 10
21.2973886999999991
 20
53.4141240499999981
 10
21.5920018999999996
 20
53.6092094999999915
 10
21.8732286499999979
 20
53.8927623499999982
 10
22.1350653999999984
 20
54.2576138999999955
 10
22.3715082500000015
 20
54.6965964999999983
 10
22.7455406499999953
 20
55.7066026999999906
 10
22.8655895999999998
 20
56.6467069000000265
 10
22.8524418500000017
 20
57.0499089999999569
 10
22.7881073000000001
 20
57.3415395000000103
 10
22.5937855499999998
 20
57.745207100000016
 10
22.3087340000000012
 20
58.0084770999999932
 10
22.1076443000000005
 20
58.0884345999999709
 10
21.8803564000000001
 20
58.1143559500000038
 10
21.4120844000000012
 20
58.0043876999999952
 10
21.0908176499999982
 20
57.7967012000000295
 10
20.7906860000000009
 20
57.5051284499999724
 10
20.5183058499999973
 20
57.1430790000000002
 10
20.2802921999999981
 20
56.7239644999999655
 10
19.9338282499999977
 20
55.7681809999999984
 10
19.8386086499999976
 20
55.2583335499999748
 10
19.8042183499999993
 20
54.7450627499999882
 10
19.846789900000001
 20
54.2340508499999885
 10
19.9781648499999989
 20
53.830494200000004
 10
20.1979655499999993
 20
53.535145650000004
 10
20.5058153999999959
 20
53.3487570000000062
 10
20.8939216499999993
 20
53.3140075999999965
 10
21.2973886999999991
 20
53.4141250999999784
 10
21.2973886999999991
 20
53.4141250999999784
 10
21.2973886999999991
 20
53.4141240499999981
  0
LWPOLYLINE
  5
46
  8
0
 62
7
370
-1
  6
ByLayer
100
AcDbEntity
100
AcDbPolyline
 90
55
 70
0
 10
14.4942342999999987
 20
52.9180571500000099
 10
12.0420219499999988
 20
53.0154106999999897
 10
10.4745584999999988
 20
53.0264391999999987
 10
9.8924728000000002
 20
53.0003204500000038
 10
10.0046499000000004
 20
53.1412889000000064
 10
10.2620608999999998
 20
53.3962509499999953
 10
10.6389377500000002
 20
53.4366682499999968
 10
11.1800254999999993
 20
53.5016016499999978
 10
11.5597580000000004
 20
53.7334451499999943
 10
11.8100776500000002
 20
54.0361146500000018
 10
12.0231653499999993
 20
54.4824692999999911
 10
12.4815085499999991
 20
56.1895809999999756
 10
13.0007598000000009
 20
58.2557919999999854
 10
13.1866815500000012
 20
58.7589817499999754
 10
13.3956430999999991
 20
59.1705597000000125
 10
13.6534247499999992
 20
59.5332933999999909
 10
13.9858053999999985
 20
59.8899496999999883
 10
14.6259175999999993
 20
60.4404716999999891
 10
15.2408896499999997
 20
60.8324380999999903
 10
15.6755896499999992
 20
60.9654024000000163
 10
16.2245632499999992
 20
61.0163364999999658
 10
16.5228801499999989
 20
61.0117437999999765
 10
16.6472344499999991
 20
60.9738622499999678
 10
16.6236374500000004
 20
60.8647584999999935
 10
16.4781018500000016
 20
60.646498500000007
 10
16.2522219999999997
 20
60.3205459499999961
 10
15.72064445
 20
60.3269467499999905
 10
15.0173876999999987
 20
60.2814624999999751
 10
14.7999004999999979
 20
60.2003720499999986
 10
14.6133147999999977
 20
60.0666226999999822
 10
14.3830445499999993
 20
59.8089792999999759
 10
14.1777604499999974
 20
59.3378667000000064
 10
13.4862920499999994
 20
56.6886193999999932
 10
13.1198812499999988
 20
55.3132426000000237
 10
12.8447192999999995
 20
54.6905778999999939
 10
12.214532049999999
 20
54.0037018499999988
 10
11.7149059999999992
 20
53.5183316499999933
 10
13.9639685499999988
 20
53.5313309999999944
 10
16.1947348499999997
 20
53.5737551999999937
 10
16.6004243999999979
 20
53.6457452999999873
 10
16.8968527000000002
 20
53.7827836000000161
 10
17.1669816499999968
 20
53.97448559999998
 10
17.4310401999999982
 20
54.2666827500000011
 10
18.0047370999999998
 20
55.2362499500000013
 10
18.0907429499999992
 20
55.3827330000000018
 10
18.1369432999999987
 20
55.3766251499999953
 10
17.9844822499999992
 20
54.8906554000000142
 10
17.5013124999999974
 20
53.8057008999999766
 10
17.179844499999998
 20
53.2328698999999972
 10
16.9923533499999984
 20
53.0580410499999857
 10
16.7439208999999991
 20
52.9448793999999907
 10
15.9349235500000006
 20
52.8653891499999986
 10
14.4942342999999987
 20
52.9180592499999989
 10
14.4942342999999987
 20
52.9180592499999989
 10
14.4942342999999987
 20
52.9180571500000099
  0
LWPOLYLINE
  5
47
  8
0
 62
7
370
-1
  6
ByLayer
100
AcDbEntity
100
AcDbPolyline
 90
44
 70
0
 10
31.6500635499999987
 20
52.7901163999999881
 10
31.3903887499999961
 20
52.8785414500000002
 10
31.1593358999999985
 20
53.042212649999982
 10
30.9738092999999992
 20
53.265430049999992
 10
30.8507142999999964
 20
53.5324933499999815
 10
30.8055698999999947
 20
54.2425282000000095
 10
30.8912960999999981
 20
55.1274286499999846
 10
31.1433657499999974
 20
56.0523421499999586
 10
31.4852072499999984
 20
56.8912116500000025
 10
31.7006728500000001
 20
57.2562833499999897
 10
31.9937845500000009
 20
57.5801649499999826
 10
32.6208211000000006
 20
58.0964534500000127
 10
33.2912719999999993
 20
58.4998410499999864
 10
33.6151717999999988
 20
58.6103199500000187
 10
33.9332528499999952
 20
58.6432276499999716
 10
34.2172537000000005
 20
58.5990908999999647
 10
34.4389125499999977
 20
58.4784371499999907
 10
34.5693221999999949
 20
58.3092034000000012
 10
34.6422131999999934
 20
58.0869593499999723
 10
34.6555758499999982
 20
57.8230362500000297
 10
34.6073990499999979
 20
57.5287657000000081
 10
34.4317648499999933
 20
57.1182086999999683
 10
34.0794957999999966
 20
56.6996381000000156
 10
33.2435239499999966
 20
56.0218774499999768
 10
32.0938649499999968
 20
55.2175424499999963
 10
31.7010000999999981
 20
54.9644819499999926
 10
31.701296549999995
 20
54.6902065499999708
 10
31.7540509999999969
 20
54.1809054500000116
 10
31.9092494000000002
 20
53.8026677999999947
 10
32.1640728499999966
 20
53.5597733999999832
 10
32.5157024499999991
 20
53.4565006500000095
 10
32.9100936500000003
 20
53.4900299500000074
 10
33.3573145499999981
 20
53.6539290000000051
 10
33.868629900000002
 20
53.9536462499999914
 10
34.4553058499999949
 20
54.3946308499999986
 10
34.7905547499999983
 20
54.6536360999999999
 10
34.8089489999999984
 20
54.5469788499999879
 10
34.7530154999999965
 20
54.4095758500000102
 10
34.5255308999999997
 20
54.1778730500000165
 10
33.7250101999999998
 20
53.5230650500000138
 10
32.9584765999999973
 20
53.0636322999999948
 10
32.2566076000000024
 20
52.8143808499999921
 10
31.6500810499999972
 20
52.7901163999999881
 10
31.6500635499999987
 20
52.7901163999999881
  0
LWPOLYLINE
  5
48
  8
0
 62
7
370
-1
  6
ByLayer
100
AcDbEntity
100
AcDbPolyline
 90
19
 70
0
 10
32.2019309499999977
 20
55.6074403499999903
 10
33.145237299999998
 20
56.3147833499999706
 10
33.4348531999999992
 20
56.6122742499999845
 10
33.6210248499999977
 20
56.888484099999971
 10
33.7339666999999963
 20
57.2055998499999987
 10
33.7679527499999992
 20
57.536076850000029
 10
33.7236759999999975
 20
57.8373428499999704
 10
33.6018301499999978
 20
58.0668269999999893
 10
33.4831836500000009
 20
58.1631515500000091
 10
33.3033483999999973
 20
58.1804107499999645
 10
32.9339489500000013
 20
58.0609494500000096
 10
32.5815707000000003
 20
57.7215744000000086
 10
32.2581685999999976
 20
57.1779078499999969
 10
31.9756972499999961
 20
56.4455716999999595
 10
31.7886540999999987
 20
55.7004794499999889
 10
31.7583850499999976
 20
55.3262958500000082
 10
32.2019309499999977
 20
55.6074403499999903
 10
32.2019309499999977
 20
55.6074403499999903
 10
32.2019309499999977
 20
55.6074403499999903
  0
LWPOLYLINE
  5
49
  8
0
 62
7
370
-1
  6
ByLayer
100
AcDbEntity
100
AcDbPolyline
 90
109
 70
0
 10
41.1172761999999992
 20
52.7400527499999896
 10
40.3237964499999961
 20
52.9478687499999978
 10
40.0013641999999976
 20
53.1209623000000022
 10
39.7318582499999948
 20
53.336871699999989
 10
39.5178195999999957
 20
53.5931154499999707
 10
39.36178855
 20
53.8872127500000033
 10
39.2663067999999953
 20
54.2166821000000141
 10
39.2339149999999961
 20
54.5790430499999957
 10
39.3209274499999992
 20
55.2834071999999992
 10
39.5508697499999968
 20
56.0786057999999912
 10
39.8770987999999988
 20
56.834552599999995
 10
40.2529718500000016
 20
57.4211620500000208
 10
40.608482599999995
 20
57.7802109499999688
 10
41.0611172999999923
 20
58.1507086999999956
 10
41.5280557999999971
 20
58.4704865499999755
 10
41.92647865
 20
58.677376449999997
 10
42.3217658499999985
 20
58.772239049999996
 10
42.6918219000000008
 20
58.7698058500000116
 10
42.8624549500000001
 20
58.6969907999999805
 10
43.0298385999999979
 20
58.5526927999999884
 10
43.2913228999999973
 20
58.1186539500000094
 10
43.3573458499999944
 20
58.0180863499999759
 10
43.7553479999999979
 20
58.2594204499999933
 10
44.2227628499999952
 20
58.6237085000000206
 10
44.4411432499999961
 20
58.9083291999999688
 10
44.5689153000000005
 20
59.2270864500000016
 10
44.6031375999999966
 20
59.5680004499999995
 10
44.5408687499999942
 20
59.9190921000000003
 10
44.4926334999999966
 20
60.1829731999999922
 10
44.9469331499999925
 20
60.4637558000000013
 10
45.3744168499999958
 20
60.7177224499999966
 10
45.4674811500000047
 20
60.5309670000000324
 10
45.5596021999999934
 20
60.1452474000000166
 10
45.4837029500000014
 20
59.7203204499999742
 10
45.2477210499999956
 20
59.2782546999999909
 10
44.8595948500000006
 20
58.8411183499999879
 10
44.1547655500000005
 20
58.2859935000000178
 10
42.305804099999996
 20
57.1039640500000019
 10
40.9976468999999994
 20
56.2623092499999871
 10
40.513251099999998
 20
55.8738291999999888
 10
40.340726999999994
 20
55.6402727999999911
 10
40.2350178999999954
 20
55.3851885999999922
 10
40.1954090999999991
 20
55.1059467000000041
 10
40.2211851999999936
 20
54.7999171999999817
 10
40.3164807499999966
 20
54.4658519999999839
 10
40.4721656500000009
 20
54.1712013499999898
 10
40.685575699999994
 20
53.9176690500000007
 10
40.9540452999999971
 20
53.7069596000000047
 10
41.2749098999999973
 20
53.5407771499999967
 10
41.6455045999999953
 20
53.4208258499999715
 10
42.525225049999996
 20
53.3264340000000061
 10
43.4299551000000008
 20
53.423811349999994
 10
44.2575255499999969
 20
53.7369496999999967
 10
44.8734828499999949
 20
54.137708449999991
 10
45.3747437499999933
 20
54.6630059500000129
 10
45.777188449999997
 20
55.3338621499999874
 10
46.0966974999999977
 20
56.1712952500000142
 10
46.3860344500000039
 20
57.4242074000000002
 10
45.3776942499999976
 20
57.3974712499999669
 10
44.9186489499999979
 20
57.2057507000000101
 10
44.5248149499999997
 20
56.851949349999984
 10
44.1781238499999986
 20
56.3143175000000156
 10
43.8605079499999988
 20
55.571105799999998
 10
43.7510034499999989
 20
55.3094293500000163
 10
43.659362950000002
 20
55.2669740000000047
 10
43.5584197999999958
 20
55.2904761499999893
 10
43.7977298499999961
 20
56.0676892999999836
 10
44.0997861499999928
 20
56.89995325000001
 10
44.3797458999999961
 20
57.4788983999999914
 10
44.6676919499999983
 20
57.8551221499999997
 10
44.9937074999999993
 20
58.0792218999999932
 10
45.2825635499999919
 20
58.1690878999999654
 10
45.940751149999997
 20
58.194938900000011
 10
46.6683741999999953
 20
58.2087540999999646
 10
47.0528180499999991
 20
58.4122283500000208
 10
47.4372622499999963
 20
58.6157036500000004
 10
47.4149235000000004
 20
58.5040116499999954
 10
47.3685680999999974
 20
58.2966286000000196
 10
47.3655647499999972
 20
58.216126499999973
 10
47.4529145999999997
 20
58.2009368500000051
 10
48.6136997500000021
 20
58.3263883999999848
 10
48.7727516499999965
 20
58.4421074999999632
 10
48.9277326999999929
 20
58.6608218000000079
 10
49.2529260999999963
 20
59.4557214999999815
 10
49.3653870499999954
 20
59.7590364000000136
 10
49.4003898499999963
 20
59.7799957999999947
 10
49.4440355500000024
 20
59.7487785999999801
 10
49.4927107500000005
 20
59.6701742000000195
 10
49.4907682500000021
 20
59.5331145499999934
 10
49.3049227999999928
 20
58.8999327000000221
 10
48.9863692499999956
 20
58.1147521500000153
 10
48.6878412999999952
 20
57.6577753500000085
 10
48.3709278500000011
 20
57.5187564000000293
 10
47.8431806999999978
 20
57.4663312999999789
 10
47.4102594000000011
 20
57.4389035500000205
 10
47.2496402000000018
 20
57.3971685000000207
 10
47.1849847000000011
 20
57.2683992999999987
 10
46.8478149999999971
 20
56.2637894000000074
 10
46.5255322000000007
 20
55.5527619499999901
 10
46.1349455000000006
 20
54.9862256999999772
 10
45.5928626999999977
 20
54.4150886999999841
 10
44.8579144999999997
 20
53.787300700000003
 10
44.1046654999999959
 20
53.3105208999999718
 10
43.314604199999998
 20
52.9750060000000076
 10
42.4692180499999949
 20
52.7710127
 10
41.7857128499999959
 20
52.7231218499999841
 10
41.1172761999999992
 20
52.7400527499999896
 10
41.1172761999999992
 20
52.7400527499999896
 10
41.1172761999999992
 20
52.7400527499999896
  0
LWPOLYLINE
  5
4A
  8
0
 62
7
370
-1
  6
ByLayer
100
AcDbEntity
100
AcDbPolyline
 90
16
 70
0
 10
41.336696449999998
 20
56.7907595500000184
 10
42.4449623499999973
 20
57.4817673499999842
 10
42.3955910000000031
 20
57.744034250000027
 10
42.216230699999997
 20
58.0780346999999892
 10
41.9395983999999942
 20
58.2426484499999901
 10
41.5947937999999979
 20
58.2307256999999936
 10
41.2109165999999973
 20
58.0351162999999701
 10
40.9372316500000011
 20
57.7883396999999945
 10
40.7026752999999957
 20
57.4775187000000187
 10
40.5033219500000001
 20
57.0963935500000161
 10
40.3352456499999974
 20
56.6387037999999734
 10
40.1983998499999942
 20
56.2090046000000143
 10
40.2082579499999966
 20
56.1533997500000055
 10
41.3367013499999985
 20
56.7907595500000184
 10
41.3367013499999985
 20
56.7907595500000184
 10
41.336696449999998
 20
56.7907595500000184
  0
LWPOLYLINE
  5
4B
  8
0
 62
7
370
-1
  6
ByLayer
100
AcDbEntity
100
AcDbPolyline
 90
72
 70
0
 10
53.2846065499999995
 20
52.9677609999999959
 10
53.1278086499999915
 20
52.9896958500000039
 10
53.3943168500000027
 20
53.251972550000005
 10
53.6608243499999986
 20
53.5142481999999973
 10
53.9470120000000009
 20
53.5565981999999963
 10
54.5434851499999951
 20
53.7113293499999997
 10
54.9754740499999954
 20
54.0129740499999969
 10
55.3051551499999903
 20
54.5282156999999756
 10
55.5947055999999975
 20
55.3237383999999963
 10
56.9704190999999938
 20
60.7437810000000127
 10
56.622333249999997
 20
60.7416008499999975
 10
56.0119377999999983
 20
60.649071699999979
 10
55.4739031000000011
 20
60.4926815499999861
 10
55.0017562499999997
 20
60.2716260999999918
 10
54.5791963499999966
 20
59.9868419499999845
 10
54.2533505499999933
 20
59.6653032499999654
 10
54.0157946999999936
 20
59.2966895499999964
 10
53.8581032499999921
 20
58.8706807500000195
 10
53.7815949999999958
 20
58.1365368500000272
 10
53.8383772500000006
 20
57.3598241999999914
 10
53.8688275999999959
 20
57.0602794999999787
 10
53.3682631999999941
 20
56.8164317000000096
 10
52.8928518999999966
 20
56.5978524999999877
 10
52.868563299999991
 20
56.7319896500000027
 10
52.8140294499999925
 20
57.596011199999964
 10
52.9612439999999935
 20
58.4135919500000114
 10
53.3002487500000015
 20
59.1528448000000253
 10
53.8210844500000007
 20
59.7818819500000131
 10
54.3662525000000016
 20
60.2114184000000137
 10
54.9881066000000018
 20
60.5453400999999758
 10
55.7360720000000001
 20
60.805067049999991
 10
56.659573249999994
 20
61.0120188999999868
 10
57.0840553499999928
 20
61.1168736500000023
 10
57.5681312500000004
 20
61.3059401499999694
 10
57.9438698999999957
 20
61.4578447000000097
 10
58.0526057999999949
 20
61.4695525500000031
 10
58.008752549999997
 20
61.2748685500000079
 10
57.9867102499999945
 20
61.1370231500000045
 10
58.5848105500000003
 20
61.1173268999999664
 10
59.2375353499999946
 20
61.0673514499999897
 10
59.7622171999999949
 20
60.9639075499999876
 10
60.1632219999999975
 20
60.8057614499999772
 10
60.4449156499999987
 20
60.5916800999999623
 10
60.6626110999999923
 20
60.2666414000000259
 10
60.712385999999988
 20
59.84659240000002
 10
60.6726263499999945
 20
59.4713294000000019
 10
60.5532598999999934
 20
59.1314555999999811
 10
60.3433337499999993
 20
58.8047981500000105
 10
60.0318942999999976
 20
58.469185600000003
 10
59.5477637999999985
 20
58.0778348499999879
 10
58.890350049999995
 20
57.6986140500000033
 10
58.4880786000000015
 20
57.4906829000000243
 10
58.6343593499999898
 20
57.4633748499999797
 10
59.1280556999999902
 20
57.3773553500000162
 10
59.5500492999999977
 20
57.2666381000000229
 10
59.894890299999993
 20
57.0892101499999853
 10
60.1653156999999936
 20
56.8431878000000097
 10
60.3640631999999968
 20
56.5266869999999813
 10
60.4431106999999983
 20
56.298675650000007
 10
60.4606925999999945
 20
56.0067305000000033
 10
60.4145335499999945
 20
55.5335822999999777
 10
60.2744561999999888
 20
55.1035054500000001
 10
60.0352385500000025
 20
54.705089600000008
 10
59.6916578999999956
 20
54.3269237000000089
 10
59.1179928499999932
 20
53.8864480000000015
 10
58.4140574500000014
 20
53.4947171499999854
 10
57.651001799999996
 20
53.1857164999999839
 10
56.8999766999999963
 20
52.9934324500000002
 10
56.322605149999994
 20
52.947140399999995
 10
54.9983318499999996
 20
52.9403336000000024
 10
53.2846065499999995
 20
52.9677609999999959
 10
53.2846065499999995
 20
52.9677609999999959
  0
LWPOLYLINE
  5
4C
  8
0
 62
7
370
-1
  6
ByLayer
100
AcDbEntity
100
AcDbPolyline
 90
25
 70
0
 10
57.7591773499999945
 20
53.4661690500000191
 10
58.2786179499999903
 20
53.6767377999999837
 10
58.7117702500000007
 20
54.0145931499999961
 10
59.0458050000000014
 20
54.4665285499999925
 10
59.2678936499999978
 20
55.0193371000000013
 10
59.3643942499999895
 20
55.5020150999999942
 10
59.3512716999999981
 20
55.9105595999999991
 10
59.2316907000000015
 20
56.3208212000000117
 10
59.0045550499999933
 20
56.6493123000000196
 10
58.6733493499999952
 20
56.8924660499999959
 10
58.2415567999999979
 20
57.046715249999977
 10
57.6934413999999975
 20
57.1182545500000174
 10
57.17543229999999
 20
57.1128312999999821
 10
56.9598893499999903
 20
57.0855487999999696
 10
56.7795843999999974
 20
56.4090051000000017
 10
56.4555865999999895
 20
55.4383416999999952
 10
55.954209849999998
 20
54.7078752500000007
 10
55.0370695000000012
 20
53.8041955500000029
 10
54.8529002000000006
 20
53.6253924499999926
 10
54.8907894499999998
 20
53.577760249999983
 10
56.6961440499999938
 20
53.3959856500000001
 10
57.2565258999999926
 20
53.4004414999999995
 10
57.7591773499999945
 20
53.4661690500000191
 10
57.7591773499999945
 20
53.4661690500000191
 10
57.7591773499999945
 20
53.4661690500000191
  0
LWPOLYLINE
  5
4D
  8
0
 62
7
370
-1
  6
ByLayer
100
AcDbEntity
100
AcDbPolyline
 90
17
 70
0
 10
57.9314599499999971
 20
57.4547536499999865
 10
58.4792141499999971
 20
57.6558776499999794
 10
58.9492977499999995
 20
58.0052150999999867
 10
59.3153438499999908
 20
58.4768768499999965
 10
59.5509866000000017
 20
59.0449740999999904
 10
59.6153505500000023
 20
59.625389250000012
 10
59.5369285000000019
 20
60.1391532000000097
 10
59.3449499999999901
 20
60.4727119500000185
 10
59.0592751000000007
 20
60.698311799999999
 10
58.6586916999999914
 20
60.826900749999993
 10
58.1219883999999993
 20
60.8694260999999983
 10
57.9021771999999899
 20
60.8705524000000082
 10
57.4718724999999964
 20
59.1426139499999977
 10
57.042563549999997
 20
57.3839664999999854
 10
57.3679137499999925
 20
57.3799145499999668
 10
57.9314599499999971
 20
57.4547504999999887
 10
57.9314599499999971
 20
57.4547536499999865
  0
LWPOLYLINE
  5
4E
  8
0
 62
7
370
-1
  6
ByLayer
100
AcDbEntity
100
AcDbPolyline
 90
48
 70
0
 10
71.9048119999999926
 20
52.8705499000000145
 10
71.7410364999999928
 20
53.068631350000004
 10
71.6346399999999903
 20
53.321721249999996
 10
71.5873696999999964
 20
53.6235115499999893
 10
71.6009717499999994
 20
53.9676945500000045
 10
71.9840516499999978
 20
55.7507391000000041
 10
72.3299517499999922
 20
57.2766127500000266
 10
71.7574357499999991
 20
57.3314679000000069
 10
71.1850086500000003
 20
57.3415395000000103
 10
71.4066954999999979
 20
57.4969622500000241
 10
71.6283725499999946
 20
57.6523849999999811
 10
72.0315144499999889
 20
57.6523849999999811
 10
72.3684762500000005
 20
57.6634113999999727
 10
72.4537694999999928
 20
57.7163831999999957
 10
72.6408150999999975
 20
58.530068099999994
 10
72.8303204999999991
 20
59.366252750000001
 10
72.9410958499999964
 20
59.4792313499999636
 10
73.3093927999999977
 20
59.6686569500000132
 10
73.780592200000001
 20
59.870864900000015
 10
73.5374902499999905
 20
58.8050665999999751
 10
73.2806878999999896
 20
57.7026758000000086
 10
73.4403288500000002
 20
57.6620831500000008
 10
74.1085442999999913
 20
57.6523849999999811
 10
74.9364010500000006
 20
57.6523849999999811
 10
74.7942299999999989
 20
57.5392173999999841
 10
74.5865694000000019
 20
57.3908464499999695
 10
73.8392367999999948
 20
57.3303062499999783
 10
73.1574129999999911
 20
57.3049690500000111
 10
72.9450805999999972
 20
56.4090012499999602
 10
72.5769590000000022
 20
54.7006270999999913
 10
72.5596168499999976
 20
54.339519150000001
 10
72.6253860499999888
 20
54.1050845999999979
 10
72.7561306500000029
 20
53.881921449999993
 10
72.9084684999999979
 20
53.765595100000013
 10
73.1014707499999901
 20
53.7487509999999986
 10
73.354208199999988
 20
53.8240342500000111
 10
74.5863915999999847
 20
54.4973222499999963
 10
74.658361400000004
 20
54.5312134499999956
 10
74.6703527499999922
 20
54.459444899999994
 10
74.5759090999999898
 20
54.3156564999999887
 10
74.1675147499999952
 20
54.0026816000000167
 10
73.2242657999999977
 20
53.3529121999999916
 10
72.5310039999999958
 20
52.9432287999999858
 10
72.1205404499999929
 20
52.7744441000000108
 10
72.0118420000000015
 20
52.792114550000008
 10
71.9048119999999926
 20
52.8705499000000145
 10
71.9048119999999926
 20
52.8705499000000145
 10
71.9048119999999926
 20
52.8705499000000145
  0
LWPOLYLINE
  5
4F
  8
0
 62
7
370
-1
  6
ByLayer
100
AcDbEntity
100
AcDbPolyline
 90
65
 70
0
 10
66.4529229000000043
 20
52.7911573000000089
 10
66.2306914499999948
 20
52.858797949999996
 10
66.0120422500000075
 20
52.9964036000000078
 10
65.8660100000000028
 20
53.1576076499999886
 10
65.7563220999999913
 20
53.3796987499999886
 10
65.6952138500000018
 20
53.628914850000001
 10
65.6949198499999909
 20
53.8714938999999902
 10
65.7677761999999859
 20
54.0413187999999991
 10
66.1056210499999963
 20
54.2773311499999807
 10
66.5169319499999858
 20
54.5360598999999979
 10
66.5614382999999918
 20
54.2506601000000046
 10
66.6240137499999889
 20
53.9030215500000054
 10
66.7523590999999925
 20
53.6238083499999902
 10
66.9356474500000047
 20
53.4170202999999901
 10
67.1630508499999905
 20
53.286657550000001
 10
67.4237420500000013
 20
53.2367188499999884
 10
67.7068938000000031
 20
53.2712046999999984
 10
68.0016788500000047
 20
53.39411419999999
 10
68.2972699499999862
 20
53.6094471499999941
 10
68.5807090499999958
 20
53.9672199499999863
 10
68.6983570000000014
 20
54.3743745999999817
 10
68.6913969000000009
 20
54.6054207999999903
 10
68.6095087999999862
 20
54.8007519500000058
 10
68.0877326499999924
 20
55.2823554500000114
 10
67.5969101499999994
 20
55.689858700000002
 10
67.3012465999999989
 20
56.0163656500000116
 10
67.1638114000000002
 20
56.3151998499999991
 10
67.1476742999999914
 20
56.6396848499999805
 10
67.2848942499999936
 20
57.1034054499999684
 10
67.5915446499999888
 20
57.5812118000000055
 10
68.0301264999999944
 20
58.0266480500000057
 10
68.5631400999999983
 20
58.3932569500000227
 10
69.0115404999999953
 20
58.5817448999999897
 10
69.4585706499999986
 20
58.6397787500000049
 10
69.8662621999999942
 20
58.5656627500000013
 10
70.1891806000000003
 20
58.3486133999999765
 10
70.2934602999999925
 20
58.2397700500000042
 10
70.1975666000000018
 20
58.1013964999999644
 10
69.9197145499999948
 20
57.7838089499999796
 10
69.7377659999999935
 20
57.6045945999999844
 10
69.5751482999999951
 20
57.7719162999999867
 10
69.2260897999999969
 20
58.0258640499999956
 10
68.8515995999999859
 20
58.1180869500000199
 10
68.4854715999999968
 20
58.0475934499999653
 10
68.1614996999999931
 20
57.8133920000000217
 10
67.9531072500000022
 20
57.5039076499999737
 10
67.89462189999999
 20
57.140345850000017
 10
67.9335040999999933
 20
56.8529884999999808
 10
68.0732170999999937
 20
56.5957986999999889
 10
68.3461397499999919
 20
56.3275002500000141
 10
68.7846495000000004
 20
56.0068176500000163
 10
69.3201411000000007
 20
55.5748259499999904
 10
69.4077495999999883
 20
55.3839170499999796
 10
69.4350912499999993
 20
55.1289914000000181
 10
69.4283187499999883
 20
54.8227049999999849
 10
69.356908599999997
 20
54.5513349499999833
 10
69.1953275999999988
 20
54.2114527499999781
 10
68.9557508500000012
 20
53.8773749499999894
 10
68.6554389500000042
 20
53.5696202999999969
 10
68.3116517999999928
 20
53.3087075500000083
 10
67.8404075999999918
 20
53.0598554499999864
 10
67.332597149999998
 20
52.8792470500000036
 10
66.8496317999999974
 20
52.7839812500000107
 10
66.4529229000000043
 20
52.7911573000000089
 10
66.4529229000000043
 20
52.7911573000000089
  0
LWPOLYLINE
  5
50
  8
0
 62
7
370
-1
  6
ByLayer
100
AcDbEntity
100
AcDbPolyline
 90
45
 70
0
 10
62.343525299999996
 20
52.8020121999999787
 10
62.0995032000000009
 20
52.8883068000000094
 10
61.8928761499999993
 20
53.0338987499999917
 10
61.7239923999999931
 20
53.2384635999999887
 10
61.5931994999999972
 20
53.5016775999999936
 10
61.5376534499999934
 20
53.7422217499999988
 10
61.5258832999999967
 20
54.1599397499999782
 10
61.5928813499999919
 20
54.9521563499999957
 10
61.7721194999999952
 20
55.7708868500000108
 10
62.0427884999999932
 20
56.5425748999999769
 10
62.3840783999999999
 20
57.1936630999999807
 10
62.8161516499999948
 20
57.6790550000000053
 10
63.4661457499999884
 20
58.1825167000000079
 10
64.0547631499999994
 20
58.5184750500000064
 10
64.5127713999999912
 20
58.6337373999999727
 10
64.9057937499999866
 20
58.6151681499999881
 10
65.1622656999999919
 20
58.4707343499999865
 10
65.346191399999995
 20
58.201691100000005
 10
65.3712804500000004
 20
57.7889840500000105
 10
65.3264090499999952
 20
57.4972209000000021
 10
65.2256776499999944
 20
57.2364716000000158
 10
64.7997661499999964
 20
56.6996181499999921
 10
63.9680187999999958
 20
56.0171188499999744
 10
62.8325158999999971
 20
55.2274666999999795
 10
62.4206043999999949
 20
54.9644819499999926
 10
62.4212959999999981
 20
54.7267759499999897
 10
62.5307080999999982
 20
54.0334140500000046
 10
62.6540032999999923
 20
53.7733780499999909
 10
62.8126022999999947
 20
53.6010856500000159
 10
63.0170376499999918
 20
53.495139249999994
 10
63.2446842999999959
 20
53.4471108500000014
 10
63.7768015500000018
 20
53.5272436999999854
 10
64.4233337999999947
 20
53.8463544499999784
 10
65.1986604500000055
 20
54.4093140499999777
 10
65.4715421500000048
 20
54.6171605000000113
 10
65.509510149999997
 20
54.6153307000000154
 10
65.5215273999999965
 20
54.5617401000000086
 10
65.4101469000000009
 20
54.3355123499999877
 10
64.9060992999999939
 20
53.8788162499999999
 10
64.1828263999999962
 20
53.342532250000005
 10
63.5003130999999925
 20
52.9782858499999918
 10
62.880040649999998
 20
52.7951035499999932
 10
62.3434916999999942
 20
52.8020121999999787
 10
62.3434916999999942
 20
52.8020121999999787
 10
62.343525299999996
 20
52.8020121999999787
  0
LWPOLYLINE
  5
51
  8
0
 62
7
370
-1
  6
ByLayer
100
AcDbEntity
100
AcDbPolyline
 90
19
 70
0
 10
62.9623088499999994
 20
55.6270043000000101
 10
63.9161477500000004
 20
56.357871149999994
 10
64.190359799999996
 20
56.6589394000000084
 10
64.3723051999999996
 20
56.957553799999971
 10
64.4660950499999927
 20
57.2076676499999621
 10
64.4840171499999997
 20
57.5061053000000015
 10
64.4591465000000028
 20
57.7931696999999645
 10
64.3854371999999984
 20
57.998603600000024
 10
64.2592639499999905
 20
58.1284865000000082
 10
64.0770021499999984
 20
58.1888975499999788
 10
63.8834741999999949
 20
58.1720020000000204
 10
63.6838275499999895
 20
58.0764516500000241
 10
63.2864273999999938
 20
57.6769130000000132
 10
62.925298099999992
 20
57.0453317000000197
 10
62.6409374499999956
 20
56.236758199999997
 10
62.488135149999998
 20
55.5724200500000052
 10
62.4777555499999906
 20
55.3118982500000129
 10
62.9623088499999994
 20
55.6270043000000101
 10
62.9623088499999994
 20
55.6270043000000101
  0
LWPOLYLINE
  5
52
  8
0
 62
7
370
-1
  6
ByLayer
100
AcDbEntity
100
AcDbPolyline
 90
80
 70
0
 10
81.1240384500000005
 20
52.8342727499999967
 10
82.0762067999999942
 20
58.5483527999999751
 10
82.3500782999999927
 20
60.4177647500000035
 10
81.902091249999998
 20
60.4314140500000008
 10
81.1650472500000006
 20
60.3958631500000251
 10
80.6112040999999948
 20
60.3016238999999814
 10
80.1764417999999921
 20
60.0947574499999746
 10
79.8661209499999956
 20
59.7718414999999936
 10
79.6907611500000002
 20
59.3490267999999901
 10
79.6608826999999877
 20
58.8424626999999987
 10
79.7697397000000024
 20
58.3061177999999813
 10
79.9756975499999925
 20
57.8125159499999768
 10
80.0827131999999864
 20
57.6252312999999958
 10
79.6164526499999994
 20
57.3300318500000117
 10
79.1501917499999905
 20
57.0348313499999904
 10
79.0656082999999938
 20
57.2004779499999927
 10
78.9284898499999912
 20
57.5638864499999841
 10
78.8551056999999957
 20
57.9726199499999666
 10
78.8489478000000048
 20
58.3903862500000059
 10
78.9135101999999904
 20
58.7808928000000037
 10
79.1747004999999859
 20
59.4008250499999804
 10
79.5856547499999891
 20
59.9210510500000169
 10
80.1435183499999937
 20
60.3388051000000019
 10
80.8454356499999989
 20
60.651321849999988
 10
81.6762778999999881
 20
60.7922077000000058
 10
83.172906949999998
 20
60.8326928999999836
 10
83.935704649999991
 20
60.8038581499999964
 10
83.8977961499999907
 20
60.7370928500000105
 10
83.6391776499999935
 20
60.6069649500000196
 10
83.4106055999999967
 20
60.4691667999999822
 10
83.0989323499999983
 20
58.7629615999999828
 10
82.3916733500000049
 20
54.6632422000000133
 10
82.3925059999999974
 20
54.4400475500000027
 10
82.5808290999999883
 20
54.588395399999996
 10
83.9356195999999954
 20
56.4920880999999895
 10
86.3167270000000002
 20
60.0737238499999648
 10
86.6773747000000014
 20
60.6482715999999868
 10
87.0007432000000023
 20
60.7776981000000092
 10
87.347641149999987
 20
60.9071249499999681
 10
87.347641149999987
 20
60.4774267999999893
 10
87.1606942499999917
 20
56.7564175499999806
 10
87.0637239499999964
 20
54.7713851999999974
 10
87.0382393999999948
 20
54.0128358000000048
 10
88.7622473499999955
 20
56.076234549999981
 10
89.5029155999999944
 20
57.0927384999999958
 10
90.0818383499999982
 20
58.0338132499999801
 10
90.5079475999999943
 20
58.9156596000000263
 10
90.790175000000005
 20
59.754478000000006
 10
90.866789649999987
 20
60.1385280999999736
 10
90.8858117999999848
 20
60.5779944000000228
 10
90.8192725999999908
 20
61.2309925499999963
 10
90.573288749999989
 20
61.7101240000000075
 10
90.4219511999999952
 20
61.9097163999999793
 10
90.5642800999999906
 20
62.0334186499999873
 10
90.9753400499999998
 20
62.3058306500000185
 10
91.2917291999999918
 20
62.4198511999999823
 10
91.5439615999999887
 20
62.3260007999999743
 10
91.7115531499999861
 20
62.2071862999999894
 10
91.8189572999999939
 20
62.0377789499999608
 10
91.8906285499999882
 20
61.7921499999999924
 10
91.9351314000000031
 20
61.4109692000000109
 10
91.9129833999999875
 20
60.9975754499999994
 10
91.665269500000008
 20
60.0650809499999809
 10
91.1405543999999992
 20
58.9765280999999959
 10
90.3319053000000025
 20
57.7137795500000266
 10
88.4757030499999928
 20
55.2753274499999918
 10
87.0495888499999921
 20
53.4174567499999853
 10
86.7570290999999969
 20
52.9949458499999935
 10
86.379905149999999
 20
52.8696581000000094
 10
85.9912049499999966
 20
52.7573231499999906
 10
86.0111083999999977
 20
53.1542616499999951
 10
86.2246069999999918
 20
57.3598241999999914
 10
86.2797743499999967
 20
58.9414815499999918
 10
86.2706865999999906
 20
59.3704548499999873
 10
84.0737008999999915
 20
56.1753769499999862
 10
81.9023383499999937
 20
52.9810249500000054
 10
81.5265184999999946
 20
52.8665081000000043
 10
81.1281278499999843
 20
52.7519898500000011
 10
81.1242754000000019
 20
52.8342727499999967
 10
81.1240384500000005
 20
52.8342727499999967
  0
LWPOLYLINE
  5
53
  8
0
 62
7
370
-1
  6
ByLayer
100
AcDbEntity
100
AcDbPolyline
 90
60
 70
0
 10
110.2793041000000045
 20
52.7918874000000073
 10
109.8527062499999829
 20
52.9981364500000041
 10
109.5947149499999824
 20
53.3640288999999939
 10
109.5243344999999948
 20
53.7329401000000075
 10
109.5673831000000007
 20
54.0033186000000001
 10
109.9874653500000079
 20
54.3019861999999875
 10
110.3456679500000064
 20
54.492260200000004
 10
110.3911851000000013
 20
54.3996729499999958
 10
110.4136418000000077
 20
54.1599397499999782
 10
110.5577637499999923
 20
53.6878065500000048
 10
110.8536079000000001
 20
53.3568112000000099
 10
111.0472656999999828
 20
53.2651286999999911
 10
111.2924480500000044
 20
53.2467047000000093
 10
111.5434806499999922
 20
53.2683956000000194
 10
111.769436099999993
 20
53.3564149999999984
 10
112.1316692999999844
 20
53.608370199999996
 10
112.3934696499999859
 20
53.9342110999999704
 10
112.5314396499999816
 20
54.2938224499999933
 10
112.5221821499999777
 20
54.647088999999994
 10
112.3382578499999909
 20
54.9344197500000178
 10
111.8255813499999931
 20
55.3604936499999951
 10
111.3198292499999837
 20
55.7798667999999793
 10
111.0958954000000034
 20
56.07865129999999
 10
110.9930895499999934
 20
56.4086110000000076
 10
111.0113991000000055
 20
56.7698389999999904
 10
111.1508107499999909
 20
57.1624287500000037
 10
111.4398655999999903
 20
57.5926172499999893
 10
111.8530416500000086
 20
58.004703749999976
 10
112.3293216499999971
 20
58.346942150000018
 10
112.8076893999999868
 20
58.5675849499999686
 10
113.2758675999999838
 20
58.6379160500000012
 10
113.6770522999999997
 20
58.581117699999993
 10
113.9616299499999883
 20
58.4042245499999808
 10
114.1295039499999859
 20
58.2346575999999914
 10
113.8488959999999821
 20
57.9064318000000071
 10
113.5682978499999791
 20
57.6127278999999817
 10
113.4009092999999808
 20
57.7826602499999922
 10
113.0670243499999827
 20
58.0364984500000105
 10
112.6849776499999933
 20
58.1061939499999767
 10
112.3139213000000041
 20
58.0444304999999758
 10
112.0067399499999823
 20
57.8279162999999699
 10
111.8518845499999941
 20
57.6183293000000276
 10
111.7557405999999958
 20
57.3708467499999983
 10
111.7247599999999892
 20
57.1112118500000179
 10
111.7653960499999926
 20
56.865168849999975
 10
111.9899402999999865
 20
56.5020613500000195
 10
112.4736721499999845
 20
56.114472400000011
 10
112.9191825999999992
 20
55.8012332499999957
 10
113.1638857999999885
 20
55.5771019999999965
 10
113.2671616999999884
 20
55.3681806999999822
 10
113.2883913000000007
 20
55.1005717500000003
 10
113.213550099999992
 20
54.6201953500000172
 10
112.9979304999999812
 20
54.1523076500000116
 10
112.6548870999999963
 20
53.718464449999999
 10
112.1977758999999821
 20
53.3402226000000041
 10
111.7125470999999806
 20
53.0740913500000033
 10
111.182303399999995
 20
52.8800569499999824
 10
110.680177999999998
 20
52.7790214000000049
 10
110.2793041000000045
 20
52.7918874000000073
 10
110.2793041000000045
 20
52.7918874000000073
  0
LWPOLYLINE
  5
54
  8
0
 62
7
370
-1
  6
ByLayer
100
AcDbEntity
100
AcDbPolyline
 90
58
 70
0
 10
102.2396129999999914
 20
52.9438598499999955
 10
102.1656772499999875
 20
53.214907199999999
 10
102.1946999499999862
 20
53.6679902500000026
 10
102.6521978999999902
 20
55.7324543999999946
 10
102.9790104000000071
 20
57.1704462000000149
 10
103.0041043499999915
 20
57.4546031499999685
 10
102.9614610499999969
 20
57.5963594500000227
 10
102.8595116500000017
 20
57.6781110499999841
 10
102.6961848499999945
 20
57.6756974500000297
 10
102.082368499999987
 20
57.3947419500000251
 10
100.6511278499999946
 20
56.5150183499999912
 10
100.2185306499999911
 20
54.8551832499999819
 10
99.7903584999999964
 20
53.2154850499999839
 10
99.3606260499999934
 20
53.0343225999999959
 10
98.945522199999985
 20
52.8638655999999969
 10
98.9706906999999916
 20
52.9633506499999953
 10
99.6155516999999975
 20
55.7324543999999946
 10
100.5997215999999952
 20
59.8026527000000101
 10
100.8472667999999857
 20
60.492224799999974
 10
101.1044390999999933
 20
60.881925649999971
 10
101.6242409000000038
 20
61.3895842000000016
 10
102.3490093500000029
 20
61.9800195000000258
 10
102.7957664999999849
 20
62.2490879499999892
 10
103.2242693999999972
 20
62.4026567500000056
 10
103.7418276999999875
 20
62.4413789999999835
 10
104.1410751499999918
 20
62.4102331999999933
 10
104.1282157999999924
 20
62.3110967499999902
 10
103.939934000000008
 20
62.0239182500000084
 10
103.7045442999999949
 20
61.7175639499999988
 10
103.5607359499999944
 20
61.6907140499999969
 10
102.9282050999999854
 20
61.7715199499999699
 10
102.5701529999999906
 20
61.7364286000000106
 10
102.2852239499999882
 20
61.5996996999999737
 10
102.0493929000000009
 20
61.3562473999999725
 10
101.8427521999999925
 20
60.9781028499999707
 10
101.6453955999999863
 20
60.4372971999999891
 10
100.7568992499999894
 20
56.9333086000000321
 10
101.408931399999986
 20
57.3153563500000018
 10
103.3061560999999813
 20
58.4195773000000145
 10
103.8310587999999939
 20
58.6295153500000197
 10
103.9809099000000003
 20
58.6371089500000267
 10
104.073777849999999
 20
58.5836513500000251
 10
104.0997272000000038
 20
58.5115989500000069
 10
104.0700279499999965
 20
58.3104686500000184
 10
103.7256653999999827
 20
56.9758395499999892
 10
103.173173950000006
 20
54.7268627500000093
 10
103.118194900000006
 20
54.2358225499999946
 10
103.1754632999999899
 20
53.9747421499999973
 10
103.2964415000000002
 20
53.8502209000000107
 10
103.495061249999992
 20
53.8448693999999932
 10
104.3067651500000039
 20
54.2331390999999883
 10
104.8612344499999836
 20
54.5353959500000087
 10
104.8530356999999924
 20
54.4333446999999921
 10
104.5193743999999896
 20
54.1246394499999894
 10
103.6250799499999999
 20
53.5246257000000014
 10
102.3480710000000045
 20
52.788561350000009
 10
102.2395832499999955
 20
52.9438609000000042
 10
102.2396129999999914
 20
52.9438598499999955
  0
LWPOLYLINE
  5
55
  8
0
 62
7
370
-1
  6
ByLayer
100
AcDbEntity
100
AcDbPolyline
 90
44
 70
0
 10
106.2202091999999993
 20
52.789587900000015
 10
105.9792180999999971
 20
52.8618670999999836
 10
105.7726123999999999
 20
52.9916404500000056
 10
105.5983369000000067
 20
53.180628200000001
 10
105.4543356999999872
 20
53.4305509499999971
 10
105.3846107999999901
 20
53.6707688999999846
 10
105.3721227999999854
 20
54.1599397499999782
 10
105.4569533500000063
 20
55.1274286499999846
 10
105.8160449499999913
 20
56.3527394500000014
 10
106.0500301000000007
 20
56.8874183500000186
 10
106.2911514000000039
 20
57.2943689499999778
 10
106.9403450499999906
 20
57.9148447499999861
 10
107.8148480499999948
 20
58.4823389499999848
 10
108.0842780499999947
 20
58.5942756000000031
 10
108.3785332000000068
 20
58.6322222499999839
 10
108.7990896999999819
 20
58.6018590499999732
 10
109.0346904499999994
 20
58.4462427500000103
 10
109.1782579999999996
 20
58.2081549000000109
 10
109.2259318499999949
 20
57.8986456999999746
 10
109.1738525499999923
 20
57.5287657000000081
 10
108.9982179999999943
 20
57.1182086999999683
 10
108.6459541999999914
 20
56.6996381000000156
 10
107.8111919499999942
 20
56.0240572499999985
 10
106.6570637999999889
 20
55.2190113999999994
 10
106.2609450000000066
 20
54.9644819499999926
 10
106.2792485999999883
 20
54.5804959000000167
 10
106.3611464999999896
 20
54.0285389000000009
 10
106.5797799500000025
 20
53.6805958500000031
 10
106.7726162999999957
 20
53.5367112000000134
 10
106.9970916000000045
 20
53.4592978500000129
 10
107.2534449000000052
 20
53.4484257999999954
 10
107.5419152499999882
 20
53.5041646999999898
 10
108.2161622499999964
 20
53.8157560500000045
 10
109.0217446500000023
 20
54.3946308499999986
 10
109.3569963499999886
 20
54.6536360999999999
 10
109.3753888499999931
 20
54.5516933499999936
 10
109.2569393999999932
 20
54.3414185999999972
 10
108.7902686500000016
 20
53.9147080500000015
 10
108.0735088999999931
 20
53.3735443499999747
 10
107.3912430499999999
 20
52.9990681499999994
 10
106.7659753999999879
 20
52.8011319500000127
 10
106.2202091999999993
 20
52.789587900000015
 10
106.2202091999999993
 20
52.789587900000015
 10
106.2202091999999993
 20
52.789587900000015
  0
LWPOLYLINE
  5
56
  8
0
 62
7
370
-1
  6
ByLayer
100
AcDbEntity
100
AcDbPolyline
 90
18
 70
0
 10
106.8063860500000004
 20
55.634935999999982
 10
107.4735609499999924
 20
56.1136869999999703
 10
107.9201228000000015
 20
56.5199995499999659
 10
108.1872364999999832
 20
56.8991783499999997
 10
108.3160662499999916
 20
57.2965295000000197
 10
108.3328406999999913
 20
57.6158793000000173
 10
108.2739213499999948
 20
57.8883417000000122
 10
108.1498218499999808
 20
58.0868620499999793
 10
107.9710551499999838
 20
58.1843853500000137
 10
107.6481605499999858
 20
58.1476357000000235
 10
107.311753149999987
 20
57.8958803500000272
 10
106.984923149999986
 20
57.4838925500000073
 10
106.7118559499999861
 20
56.9186925999999858
 10
106.3926429999999925
 20
55.8920603500000084
 10
106.3092278499999992
 20
55.47758859999999
 10
106.3245581999999843
 20
55.3261890999999935
 10
106.8063860500000004
 20
55.634935999999982
 10
106.8063860500000004
 20
55.634935999999982
  0
LWPOLYLINE
  5
57
  8
0
 62
7
370
-1
  6
ByLayer
100
AcDbEntity
100
AcDbPolyline
 90
14
 70
0
 10
93.0866100500000044
 20
60.3043136499999832
 10
92.8537809499999867
 20
60.7286284499999738
 10
92.8133944499999899
 20
60.8607839000000013
 10
92.8576333999999974
 20
60.9130504500000143
 10
93.5903373999999957
 20
61.4611704000000145
 10
93.6386965499999917
 20
61.4884179000000017
 10
93.6848923499999984
 20
61.4593896000000086
 10
93.8723477999999858
 20
61.1038259999999696
 10
94.0761163999999894
 20
60.6861321499999917
 10
93.7626353999999935
 20
60.4353679999999827
 10
93.3794862000000023
 20
60.1070228500000212
 10
93.2853015499999856
 20
60.0294428999999923
 10
93.0866593999999878
 20
60.3043136499999832
 10
93.0866100500000044
 20
60.3043136499999832
  0
LWPOLYLINE
  5
58
  8
0
 62
7
370
-1
  6
ByLayer
100
AcDbEntity
100
AcDbPolyline
 90
34
 70
0
 10
91.4767692999999866
 20
52.8297339499999907
 10
91.3388633499999969
 20
53.1087045999999816
 10
91.339804149999992
 20
53.5462077500000078
 10
91.7867341999999979
 20
55.330182949999994
 10
92.1919760999999909
 20
57.0114646499999935
 10
92.2255876500000085
 20
57.3729127999999946
 10
92.1686681999999848
 20
57.5432049500000176
 10
92.0733589999999822
 20
57.604803899999979
 10
91.9388382499999892
 20
57.6075073000000089
 10
91.4827948999999876
 20
57.4241926999999919
 10
91.0811940499999935
 20
57.2200090000000046
 10
91.0537635000000023
 20
57.3160518000000252
 10
91.1251193999999884
 20
57.453713099999959
 10
91.5017502000000036
 20
57.71569089999997
 10
92.7879074500000058
 20
58.4809774500000117
 10
93.1506687999999912
 20
58.6284537999999884
 10
93.3285562999999883
 20
58.6201454999999783
 10
92.878495149999992
 20
56.5918517499999894
 10
92.3720122499999832
 20
54.3802577499999984
 10
92.3765671499999854
 20
54.0367324000000053
 10
92.4694959999999924
 20
53.803920799999986
 10
92.6777564999999868
 20
53.7402246499999876
 10
92.9667532499999965
 20
53.7936945000000151
 10
93.6165135499999934
 20
54.1236034499999903
 10
94.1526890499999922
 20
54.3827952499999867
 10
93.9645273000000003
 20
54.2305589000000055
 10
93.7599487999999894
 20
54.0290712500000154
 10
93.4399679499999962
 20
53.7538515499999789
 10
92.3266298499999891
 20
53.0635566999999924
 10
91.7211554000000007
 20
52.7940497000000164
 10
91.5779486999999932
 20
52.7789318000000094
 10
91.4767692999999866
 20
52.8297339499999907
 10
91.4767692999999866
 20
52.8297339499999907
 10
91.4767692999999866
 20
52.8297339499999907
  0
LWPOLYLINE
  5
59
  8
0
 62
7
370
-1
  6
ByLayer
100
AcDbEntity
100
AcDbPolyline
 90
63
 70
0
 10
94.643002299999992
 20
52.7920917999999801
 10
94.3807242000000031
 20
52.8844295000000102
 10
94.1638978000000009
 20
53.0468578500000092
 10
94.0022082999999924
 20
53.2695226000000162
 10
93.9053394999999966
 20
53.542568799999998
 10
93.8957382999999908
 20
53.8140956499999845
 10
94.0695972999999981
 20
53.9783201999999847
 10
94.2499456499999866
 20
54.1582132000000058
 10
94.4954478999999878
 20
54.3945685500000025
 10
94.7279511499999956
 20
54.543925449999989
 10
94.7580784499999993
 20
54.2787920499999927
 10
94.852351999999982
 20
53.8163867499999924
 10
95.0727151499999934
 20
53.4810965499999895
 10
95.2945889000000079
 20
53.3140839000000142
 10
95.5466249499999947
 20
53.2372389500000054
 10
95.8244104999999848
 20
53.2510856499999932
 10
96.1235330999999888
 20
53.3561493500000097
 10
96.5107860499999788
 20
53.6256976500000064
 10
96.7772382499999964
 20
53.9734076000000016
 10
96.8981366499999837
 20
54.3528184500000009
 10
96.8487295999999844
 20
54.7174701499999969
 10
96.6990912999999921
 20
54.946850349999977
 10
96.2467187499999994
 20
55.3137641000000144
 10
95.5557952999999856
 20
55.9332339999999988
 10
95.4064551999999964
 20
56.1854748000000086
 10
95.3439095000000094
 20
56.4549436500000184
 10
95.3639182999999946
 20
56.7725833499999908
 10
95.4841023499999864
 20
57.1112696000000142
 10
95.7004653499999876
 20
57.4628022499999815
 10
96.0090099500000065
 20
57.8189797499999827
 10
96.5520107999999908
 20
58.2649298000000044
 10
97.1115082000000029
 20
58.5458107499999869
 10
97.6418834999999916
 20
58.6456857000000014
 10
98.0975180499999908
 20
58.5486177500000053
 10
98.3847339999999946
 20
58.3486133999999765
 10
98.4890136999999868
 20
58.2397700500000042
 10
98.3931203499999896
 20
58.1013964999999644
 10
98.1174809999999979
 20
57.7859831499999927
 10
97.9377448000000044
 20
57.6089436999999975
 10
97.7722623499999912
 20
57.7744251000000304
 10
97.5381609999999881
 20
57.9660941999999864
 10
97.2962486999999925
 20
58.0797577499999989
 10
97.0444478499999974
 20
58.1160461000000055
 10
96.7806818999999905
 20
58.0755896000000007
 10
96.4117752500000051
 20
57.8663004499999829
 10
96.1700474000000014
 20
57.5274318499999708
 10
96.0840058499999969
 20
57.1235822500000268
 10
96.1821574000000084
 20
56.7193490500000053
 10
96.4738260499999853
 20
56.3929152499999873
 10
97.0213044500000024
 20
55.9778313500000024
 10
97.507498549999994
 20
55.5905895999999871
 10
97.625868550000007
 20
55.3065117499999985
 10
97.6388101499999976
 20
54.9393544000000134
 10
97.5510441499999956
 20
54.5376363000000026
 10
97.3672934500000054
 20
54.1498761999999942
 10
97.0638392500000009
 20
53.7781408499999998
 10
96.6737449999999825
 20
53.4244017999999983
 10
96.1880730999999827
 20
53.1314567000000011
 10
95.6339261499999793
 20
52.9116717499999822
 10
95.0920029499999941
 20
52.7901745000000062
 10
94.643002299999992
 20
52.7920917999999801
 10
94.643002299999992
 20
52.7920917999999801
 10
94.643002299999992
 20
52.7920917999999801
  0
LWPOLYLINE
  5
5A
  8
0
 62
7
370
-1
  6
ByLayer
100
AcDbEntity
100
AcDbPolyline
 90
110
 70
0
 10
72.8382521999999994
 20
17.1692888499999867
 10
72.2774804499999988
 20
17.2710495999999978
 10
71.7883949999999942
 20
17.4585236000000066
 10
71.3901100499999899
 20
17.7219976499999916
 10
71.1017391000000032
 20
18.0517585499999882
 10
70.920868200000001
 20
18.4852461499999947
 10
70.8619523499999957
 20
19.0170592499999884
 10
70.9249792999999897
 20
19.6435739500000182
 10
71.1099374999999867
 20
20.3611663499999906
 10
71.3940072999999984
 20
21.0957382999999936
 10
71.7409657999999979
 20
21.6869820999999945
 10
72.1916796999999946
 20
22.191010800000015
 10
72.7870163999999988
 20
22.6639370999999983
 10
73.5160030499999948
 20
23.0862194499999873
 10
73.8247877499999987
 20
23.1918196999999964
 10
74.098027149999993
 20
23.2270598000000064
 10
74.3369168499999944
 20
23.1919407999999976
 10
74.5426524499999914
 20
23.0864626999999984
 10
74.7164291999999932
 20
22.9106258500000024
 10
74.8594430499999959
 20
22.6644309499999963
 10
74.9632190999999892
 20
22.4363510000000019
 10
75.2099264000000005
 20
22.5872538499999962
 10
75.8368320499999982
 20
23.060468549999996
 10
76.0307680999999889
 20
23.2939549499999998
 10
76.1510910999999879
 20
23.5314450000000193
 10
76.2021935499999898
 20
23.971509449999985
 10
76.1368373499999933
 20
24.4269367999999929
 10
76.0730270999999902
 20
24.6082690000000071
 10
76.5145143000000019
 20
24.8730831999999964
 10
76.9560014999999993
 20
25.1378987999999879
 10
77.0370387499999936
 20
25.0477272499999799
 10
77.1656500999999935
 20
24.7766291499999909
 10
77.1595331499999872
 20
24.3943062999999825
 10
77.0056794499999882
 20
23.938614350000023
 10
76.6829006999999905
 20
23.4880933000000027
 10
76.1681423999999936
 20
23.01738284999999
 10
75.4383500499999968
 20
22.5011205999999788
 10
73.9206887999999935
 20
21.5398508499999934
 10
72.583179549999997
 20
20.6782859500000029
 10
72.0937542500000035
 20
20.2717724999999973
 10
71.8682149499999952
 20
19.8857567999999958
 10
71.8273506999999967
 20
19.3760101500000133
 10
71.9553764999999999
 20
18.837398649999983
 10
72.2839904499999903
 20
18.3795734500000094
 10
72.5940057499999938
 20
18.1358744000000058
 10
72.9690951499999869
 20
17.9510702000000038
 10
73.3952911999999884
 20
17.8261366499999951
 10
73.8586278499999906
 20
17.7620498999999938
 10
74.3451383499999991
 20
17.7597847000000115
 10
74.840855949999991
 20
17.8203172000000052
 10
75.3318135499999926
 20
17.9446225000000084
 10
75.8040450999999962
 20
18.1336770999999999
 10
76.4564191999999991
 20
18.5486405999999988
 10
76.9917861999999928
 20
19.108959800000008
 10
77.4163578999999942
 20
19.8228799999999978
 10
77.7363460999999916
 20
20.6986454499999866
 10
77.9982552999999967
 20
21.8315912500000024
 10
77.9265290999999962
 20
21.8763548499999843
 10
77.6201142500000003
 20
21.8868324500000142
 10
77.1316815499999962
 20
21.8516469499999744
 10
76.7301706499999909
 20
21.7414109499999881
 10
76.3985725999999943
 20
21.5491044999999986
 10
76.1198773999999929
 20
21.2677083499999924
 10
75.7900101000000035
 20
20.7280944499999862
 10
75.4923914499999853
 20
20.0447464000000082
 10
75.3818478000000027
 20
19.7761847499999988
 10
75.2960113500000006
 20
19.6992040000000088
 10
75.1982706999999948
 20
19.7404606000000058
 10
75.424826049999993
 20
20.5345433999999898
 10
75.8293815999999907
 20
21.5942727000000048
 10
76.0445535499999892
 20
21.9928341499999931
 10
76.2638544499999966
 20
22.2779357500000117
 10
76.5050454000000002
 20
22.4679007000000013
 10
76.7858864499999925
 20
22.5810525499999812
 10
77.6269990999999919
 20
22.6317027999999993
 10
78.3090990500000004
 20
22.6404149999999902
 10
78.6728382999999951
 20
22.8476608499999827
 10
79.046336949999997
 20
23.0451462500000162
 10
79.0058972499999896
 20
22.8450936000000127
 10
78.9556984999999969
 20
22.6548010500000032
 10
79.3272311999999999
 20
22.6560754000000202
 10
79.9992990999999876
 20
22.7109623999999997
 10
80.3755004499999899
 20
22.8561192999999889
 10
80.7267628999999971
 20
23.5125355499999955
 10
80.9604326999999842
 20
24.2172721000000024
 10
80.9783807000000024
 20
24.2504461500000161
 10
81.0541136999999878
 20
24.1868228000000158
 10
81.1478044999999923
 20
24.0931390000000079
 10
81.0547262000000046
 20
23.7621009500000184
 10
80.6846565000000027
 20
22.7212233500000025
 10
80.4921267499999971
 20
22.339299149999988
 10
80.3227729500000009
 20
22.1131917999999814
 10
80.0189708499999881
 20
21.9579790500000058
 10
79.3825567500000062
 20
21.8988388500000042
 10
78.8469342499999897
 20
21.8757675499999777
 10
78.710413250000002
 20
21.4150282499999776
 10
78.4533889999999872
 20
20.6428964000000121
 10
78.1743353999999897
 20
20.041554050000002
 10
77.8218482999999992
 20
19.5195668499999897
 10
77.3445242499999921
 20
18.9855000999999959
 10
76.8436493999999897
 20
18.5179382500000145
 10
76.3197847999999937
 20
18.1170219999999915
 10
75.7755106500000011
 20
17.7837908500000026
 10
75.2134060999999861
 20
17.5192839499999877
 10
74.6360502999999937
 20
17.3245418500000028
 10
74.0460230999999993
 20
17.2006036999999878
 10
73.4459036499999911
 20
17.1485093500000119
 10
72.8382721499999946
 20
17.1692986500000018
 10
72.8382721499999946
 20
17.1692986500000018
 10
72.8382521999999994
 20
17.1692888499999867
  0
LWPOLYLINE
  5
5B
  8
0
 62
7
370
-1
  6
ByLayer
100
AcDbEntity
100
AcDbPolyline
 90
15
 70
0
 10
72.9881278000000009
 20
21.2459624999999903
 10
74.0385306499999984
 20
21.8656052999999986
 10
74.0370130499999988
 20
22.0850766499999907
 10
73.912806450000005
 20
22.4079918999999848
 10
73.6721096999999929
 20
22.6383184999999969
 10
73.3494544999999931
 20
22.6907233000000019
 10
72.9823678499999886
 20
22.5689796499999886
 10
72.6083767499999908
 20
22.2768595000000005
 10
72.2477661499999897
 20
21.8047277000000008
 10
71.9760408499999897
 20
21.1441391000000181
 10
71.8246686499999925
 20
20.6391360000000077
 10
71.8368650999999971
 20
20.5862419000000045
 10
71.9001695999999981
 20
20.6141708499999936
 10
72.9881278000000009
 20
21.2459624999999903
 10
72.9881278000000009
 20
21.2459624999999903
  0
LWPOLYLINE
  5
5C
  8
0
 62
7
370
-1
  6
ByLayer
100
AcDbEntity
100
AcDbPolyline
 90
59
 70
0
 10
84.6936103999999972
 20
17.3992433999999889
 10
84.9656643499999973
 20
17.6532030500000019
 10
85.2224764999999991
 20
17.8966084500000022
 10
85.5899201499999975
 20
17.9515507499999956
 10
86.2406880999999856
 20
18.116835100000003
 10
86.720310949999984
 20
18.4208751999999834
 10
87.0821370999999971
 20
18.9142278500000032
 10
87.3795166999999964
 20
19.6474494999999933
 10
88.7864183499999911
 20
25.1763596000000121
 10
88.593375850000001
 20
25.1932967999999846
 10
88.0141142999999886
 20
25.0863553499999909
 10
87.1607999499999977
 20
24.808374850000007
 10
86.4945073999999892
 20
24.3866934499999957
 10
86.0110891499999894
 20
23.8177383500000133
 10
85.7063987499999911
 20
23.0979370999999958
 10
85.6460863999999873
 20
22.7699888500000043
 10
85.6337874000000028
 20
22.2890874500000109
 10
85.6483274499999965
 20
21.6197019500000067
 10
85.659667099999993
 20
21.4805832499999951
 10
85.1758337499999953
 20
21.2631436500000177
 10
84.6760281499999934
 20
21.0457033499999966
 10
84.6134733499999925
 20
21.2814325500000052
 10
84.5813296999999977
 20
21.7331936499999756
 10
84.621859349999994
 20
22.2205395999999951
 10
84.7378122499999904
 20
22.6999542000000076
 10
84.9229573499999901
 20
23.1521510499999863
 10
85.1710628999999955
 20
23.5578454999999849
 10
85.8367793500000005
 20
24.2409306999999785
 10
86.7101588499999991
 20
24.8425015999999914
 10
87.5876340499999912
 20
25.2132751500000154
 10
88.658422299999998
 20
25.4931124000000011
 10
89.4067033999999978
 20
25.7329288999999903
 10
89.8521319499999862
 20
25.9095287499999927
 10
89.8444270499999789
 20
25.7909165499999915
 10
89.8400352499999855
 20
25.6120634000000109
 10
90.1486823999999842
 20
25.5635803499999952
 10
91.1954455999999993
 20
25.4559679500000016
 10
92.0130042999999915
 20
25.2953501499999902
 10
92.65225934999998
 20
25.0681773999999962
 10
93.1641112499999906
 20
24.7608994500000108
 10
93.4588567499999954
 20
24.4927455499999951
 10
93.6916760499999839
 20
24.181208799999979
 10
93.8622986000000026
 20
23.8267337000000055
 10
93.9704538499999984
 20
23.4297640499999886
 10
94.0107836499999934
 20
23.0838166999999999
 10
93.9858237500000087
 20
22.6365034000000094
 10
93.8216243999999904
 20
21.690669000000014
 10
93.5181852500000019
 20
20.7698785000000044
 10
93.1055247499999865
 20
19.947209799999996
 10
92.6136620499999879
 20
19.2957422000000065
 10
91.9444497999999868
 20
18.7296490500000061
 10
91.1025090499999948
 20
18.2071830499999976
 10
90.1920690999999835
 20
17.78455735
 10
89.3173588999999879
 20
17.5179843999999889
 10
88.2608996499999989
 20
17.4203697499999919
 10
86.2478690499999914
 20
17.3892078499999911
 10
84.6936401499999931
 20
17.3992433999999889
 10
84.6936401499999931
 20
17.3992433999999889
 10
84.6936103999999972
 20
17.3992433999999889
  0
LWPOLYLINE
  5
5D
  8
0
 62
7
370
-1
  6
ByLayer
100
AcDbEntity
100
AcDbPolyline
 90
33
 70
0
 10
90.0480871500000006
 20
18.0226991000000112
 10
90.53344684999999
 20
18.1868694000000062
 10
90.9710276999999934
 20
18.4132182499999999
 10
91.3627298499999796
 20
18.7040259000000049
 10
91.7104531000000094
 20
19.0615729499999986
 10
92.0160965500000003
 20
19.4881396499999937
 10
92.2815607
 20
19.9860059000000092
 10
92.5087449999999905
 20
20.5574519500000008
 10
92.6995495999999974
 20
21.204758049999981
 10
92.8501066500000007
 20
21.9673096999999871
 10
92.8907832999999954
 20
22.7279283000000021
 10
92.8515493499999991
 20
23.2906068500000174
 10
92.7318570500000021
 20
23.7711848499999974
 10
92.5249430000000075
 20
24.1882273500000053
 10
92.2240431000000029
 20
24.5603004499999997
 10
91.8646686999999957
 20
24.8494651999999974
 10
91.4149641999999858
 20
25.051323850000017
 10
90.8165671000000003
 20
25.1845342000000016
 10
90.0111145500000021
 20
25.2677547499999946
 10
89.7181495000000098
 20
25.2880901000000051
 10
89.1753460499999875
 20
23.1394691499999965
 10
88.6476692499999928
 20
21.1069054000000165
 10
88.254322099999996
 20
19.9454216500000143
 10
88.0465953499999898
 20
19.5546242499999892
 10
87.7987379499999889
 20
19.2175434499999938
 10
87.0843487499999895
 20
18.4857959999999935
 10
86.5620811999999944
 20
17.9657211999999902
 10
87.110800349999991
 20
17.9260662000000082
 10
88.6218546499999889
 20
17.9197679499999936
 10
89.5845278999999977
 20
17.9392489500000067
 10
90.0480871500000006
 20
18.0226991000000112
 10
90.0480871500000006
 20
18.0226991000000112
 10
90.0480871500000006
 20
18.0226991000000112
  0
LWPOLYLINE
  5
5E
  8
0
 62
7
370
-1
  6
ByLayer
100
AcDbEntity
100
AcDbPolyline
 90
44
 70
0
 10
94.8036543999999992
 20
17.329783099999986
 10
94.6059813999999903
 20
17.703904399999999
 10
94.5496670999999935
 20
18.3029454999999928
 10
94.5928367999999864
 20
18.9394453499999997
 10
94.7481905999999867
 20
19.7108943499999896
 10
95.1128237499999898
 20
20.877982650000007
 10
95.5535258999999826
 20
21.7612030999999888
 10
96.0227205000000055
 20
22.2094081999999844
 10
96.8322536999999954
 20
22.7538307499999917
 10
97.417587399999988
 20
23.0257282500000144
 10
98.2032201499999928
 20
23.0740180999999893
 10
98.9053939999999869
 20
23.0492744999999957
 10
99.5655801000000054
 20
22.9437369000000047
 10
99.7576929999999891
 20
22.9055424500000129
 10
99.5943637499999852
 20
22.6932839000000115
 10
99.428241849999992
 20
22.4075778499999956
 10
99.2495405999999889
 20
21.790791750000011
 10
98.6218796499999826
 20
19.0407395500000121
 10
98.5866353499999946
 20
18.5309193999999877
 10
98.6243299999999863
 20
18.3785798000000113
 10
98.7024055499999946
 20
18.2927464999999927
 10
98.8234890999999891
 20
18.2720135499999969
 10
98.9902077499999962
 20
18.3149753499999974
 10
99.4710594499999985
 20
18.5863607999999942
 10
99.9494401500000009
 20
18.899868749999996
 10
100.1597183999999885
 20
19.0334388999999931
 10
100.1587306999999925
 20
18.9150409000000082
 10
100.1182293999999899
 20
18.7887916999999902
 10
99.9301687999999899
 20
18.6331796000000054
 10
97.8553740500000089
 20
17.278764300000006
 10
97.6777651499999848
 20
17.212511400000011
 10
97.5597546000000051
 20
17.2291556499999956
 10
97.4964875499999977
 20
17.3318960500000117
 10
97.4831101999999845
 20
17.5239309000000105
 10
97.6972604999999845
 20
18.7564611500000069
 10
97.6975019999999859
 20
18.8048986999999954
 10
97.6241153999999938
 20
18.779605250000003
 10
97.0881869999999907
 20
18.4129158499999903
 10
95.6933211500000027
 20
17.4767228999999986
 10
95.2955405499999841
 20
17.2697042000000067
 10
95.0452450499999912
 20
17.2058466999999951
 10
94.9222259999999949
 20
17.232643749999994
 10
94.8036445999999842
 20
17.329783099999986
 10
94.8036543999999992
 20
17.329783099999986
  0
LWPOLYLINE
  5
5F
  8
0
 62
7
370
-1
  6
ByLayer
100
AcDbEntity
100
AcDbPolyline
 90
21
 70
0
 10
96.3547913999999821
 20
18.2838319999999896
 10
97.3704049500000082
 20
18.9328989500000091
 10
97.7223498999999833
 20
19.2000511500000073
 10
97.8201896000000062
 20
19.3747161999999946
 10
97.8756334500000094
 20
19.5760697999999991
 10
98.0385080500000043
 20
20.2709020499999895
 10
98.3816917999999987
 20
21.6428414999999745
 10
98.5369902999999994
 20
22.3820796500000085
 10
97.3438238499999926
 20
22.5599982999999895
 10
96.8839255999999978
 20
22.4894600000000082
 10
96.5413235500000013
 20
22.2278738500000088
 10
96.1648817499999922
 20
21.6240969000000121
 10
95.8354326999999842
 20
20.785246299999983
 10
95.6010474999999929
 20
19.8615872000000024
 10
95.5097968999999978
 20
19.0033847500000093
 10
95.5580793999999827
 20
18.4980396999999925
 10
95.7298443499999934
 20
18.225378500000005
 10
95.9893259499999942
 20
18.1674713499999996
 10
96.3547913999999821
 20
18.2838319999999896
 10
96.3547913999999821
 20
18.2838319999999896
 10
96.3547913999999821
 20
18.2838319999999896
  0
LWPOLYLINE
  5
60
  8
0
 62
7
370
-1
  6
ByLayer
100
AcDbEntity
100
AcDbPolyline
 90
54
 70
0
 10
103.8639048999999943
 20
17.2515511000000004
 10
103.7661470999999977
 20
17.4771099999999819
 10
103.7359679999999997
 20
17.786856499999999
 10
104.0370820999999921
 20
19.2537677500000086
 10
104.5745172499999995
 20
21.5607360500000027
 10
104.618526949999989
 20
21.9160542999999848
 10
104.5723587999999893
 20
22.0508501500000023
 10
104.3548131499999982
 20
22.1189475500000015
 10
104.0058288500000003
 20
22.0080605500000104
 10
103.0104239499999892
 20
21.4087464499999953
 10
102.3144569999999902
 20
20.9212384500000041
 10
101.8803876999999858
 20
19.2570273000000043
 10
101.4502499499999999
 20
17.6415939000000037
 10
100.6124269499999855
 20
17.3155492999999865
 10
100.8599343500000032
 20
18.3553069000000164
 10
101.4018008499999866
 20
20.4078381500000035
 10
101.676174599999996
 20
21.7488162500000044
 10
101.6821826999999985
 20
21.940986549999991
 10
101.6040767000000073
 20
22.0548691999999846
 10
101.5089907999999923
 20
22.1213254500000005
 10
101.3831538999999964
 20
22.1289561499999934
 10
100.8712543999999838
 20
21.9418311000000017
 10
100.4683890000000019
 20
21.7853740999999843
 10
100.4759948499999922
 20
21.8782448499999873
 10
100.8859522999999996
 20
22.1859287999999992
 10
102.6585097999999903
 20
23.0936303500000122
 10
102.7446846999999934
 20
23.0463037000000099
 10
102.7571331500000014
 20
22.8639550999999983
 10
102.5371906999999823
 20
21.8519829500000071
 10
102.4381760499999956
 20
21.3880800000000022
 10
103.6375161499999962
 20
22.110146450000002
 10
104.9083920500000033
 20
22.8721552499999916
 10
105.4384719499999932
 20
23.080247049999997
 10
105.6421198000000032
 20
23.0527031000000022
 10
105.7183588999999984
 20
22.9150211500000012
 10
105.3499572999999998
 20
21.5188270499999987
 10
104.849213000000006
 20
19.640194699999995
 10
104.7051949999999891
 20
18.8375428500000055
 10
104.736266950000001
 20
18.4061545499999966
 10
104.8120933999999949
 20
18.2974266999999884
 10
104.9337670500000002
 20
18.2453642000000116
 10
105.2149909999999977
 20
18.2984339999999861
 10
105.9322918499999844
 20
18.6799259499999835
 10
106.4096711999999911
 20
18.9358785000000012
 10
106.4701574999999849
 20
18.9442669499999852
 10
106.4691095999999959
 20
18.8959798999999862
 10
106.4062754999999925
 20
18.7681084499999997
 10
106.0474862999999885
 20
18.5018217999999877
 10
105.0538842499999959
 20
17.8364550000000008
 10
104.174185499999993
 20
17.3299511000000166
 10
103.9301983999999948
 20
17.2149229000000048
 10
103.8638849499999992
 20
17.2515511000000004
 10
103.8638849499999992
 20
17.2515511000000004
 10
103.8639048999999943
 20
17.2515511000000004
  0
LWPOLYLINE
  5
61
  8
0
 62
7
370
-1
  6
ByLayer
100
AcDbEntity
100
AcDbPolyline
 90
76
 70
0
 10
130.6512725000000046
 20
17.2698347500000011
 10
130.4925824999999975
 20
17.7042165999999952
 10
130.1635670999999945
 20
19.2537677500000086
 10
129.8053494499999942
 20
20.970636049999996
 10
129.7618675500000052
 20
21.1332747499999982
 10
129.1606368500000031
 20
20.3672294000000136
 10
127.6463698999999963
 20
18.4626571499999841
 10
127.0578851500000042
 20
17.8581669000000147
 10
126.5146382499999902
 20
17.5128912000000128
 10
125.8023406499999766
 20
17.3506844000000058
 10
125.2398185499999954
 20
17.337600000000009
 10
125.0449847499999976
 20
17.3660266500000091
 10
124.9943876999999901
 20
17.4112746499999957
 10
125.1602257499999808
 20
17.4834418499999913
 10
125.2936894999999851
 20
17.5467103000000009
 10
125.4491112000000044
 20
17.7193337999999869
 10
125.6125191999999942
 20
17.9527515999999991
 10
125.482764749999987
 20
17.9738142500000038
 10
125.353010299999994
 20
17.9738142500000038
 10
125.4634142999999966
 20
18.1342854000000102
 10
125.5738281000000001
 20
18.2947569000000101
 10
126.0960070999999942
 20
18.3117210499999885
 10
126.6160675499999968
 20
18.3562273999999945
 10
127.0047365999999869
 20
18.4799362999999914
 10
127.3515540499999901
 20
18.7281234000000154
 10
127.746060049999997
 20
19.1460653999999977
 10
129.6067174499999908
 20
21.4838568000000123
 10
129.5478138500000114
 20
22.0467012499999839
 10
129.2814617500000054
 20
23.2399103999999852
 10
129.0482486999999878
 20
24.0782598000000121
 10
128.8323193499999775
 20
24.5582137499999931
 10
128.5682726999999943
 20
24.7746645999999942
 10
128.1907080999999948
 20
24.8225040000000092
 10
127.6275661499999927
 20
24.7604143499999907
 10
127.3415454499999981
 20
24.7168652500000121
 10
127.429279600000001
 20
24.8427329499999985
 10
127.6565314500000028
 20
24.9713085999999862
 10
128.391839449999992
 20
25.17417875000001
 10
129.5444205999999951
 20
25.4343673500000023
 10
129.7547461000000055
 20
25.4247822500000211
 10
129.8331457499999999
 20
25.3345455999999842
 10
130.1285009499999887
 20
23.9002655500000003
 10
130.4177521499999841
 20
22.5183356999999944
 10
131.3211241999999856
 20
23.611973699999993
 10
132.3981882999999868
 20
24.8983689499999912
 10
132.7033399999999972
 20
25.177518450000008
 10
132.9775978999999779
 20
25.3443788499999982
 10
133.2577330000000018
 20
25.4598231999999882
 10
133.5398606500000085
 20
25.4857753500000115
 10
133.9523370499999828
 20
25.435685449999994
 10
134.2194615999999883
 20
25.2937107500000025
 10
134.2290221999999744
 20
25.1740492499999959
 10
134.0136580999999865
 20
24.8014802000000145
 10
133.6945070999999814
 20
24.3895966999999985
 10
133.4750921000000119
 20
24.4658540000000073
 10
133.0543283999999744
 20
24.5137308500000017
 10
132.575841650000001
 20
24.3884819499999992
 10
132.1041553999999962
 20
24.0261675499999967
 10
131.1527661499999908
 20
22.9368513499999835
 10
130.4763372500000003
 20
22.0593547999999942
 10
131.0037609999999972
 20
19.5890611000000092
 10
131.3177187000000004
 20
18.5485548499999879
 10
131.4672551499999997
 20
18.2463574999999878
 10
131.6264463499999806
 20
18.0534892999999954
 10
131.8481611999999927
 20
17.8971275000000105
 10
132.1008919999999875
 20
17.8049402999999984
 10
132.8351107999999954
 20
17.7826831000000141
 10
133.2902987500000052
 20
17.8019477999999935
 10
133.2171638000000087
 20
17.7039295999999808
 10
133.0034604499999773
 20
17.6096067000000005
 10
132.3779869999999903
 20
17.4837676999999871
 10
131.2666480999999976
 20
17.277134349999983
 10
130.8187170500000036
 20
17.2099567500000035
 10
130.6512725000000046
 20
17.2698249499999861
 10
130.6512725000000046
 20
17.2698249499999861
 10
130.6512725000000046
 20
17.2698347500000011
  0
LWPOLYLINE
  5
62
  8
0
 62
7
370
-1
  6
ByLayer
100
AcDbEntity
100
AcDbPolyline
 90
77
 70
0
 10
122.6789871999999946
 20
17.2698347500000011
 10
122.5171041499999944
 20
17.7156045499999948
 10
122.1743316499999992
 20
19.3269086500000071
 10
121.8150667999999968
 20
21.0430342500000052
 10
121.7826847999999984
 20
21.0692170499999918
 10
121.6957605500000028
 20
20.9959532999999965
 10
121.1868797999999856
 20
20.3664863500000024
 10
119.682649799999993
 20
18.4729541499999925
 10
119.0855998499999941
 20
17.8581669000000147
 10
118.5423529499999802
 20
17.5128912000000128
 10
117.830055349999995
 20
17.3506844000000058
 10
117.2675332499999854
 20
17.337600000000009
 10
117.0726994499999876
 20
17.3660266500000091
 10
117.0221023999999943
 20
17.4112746499999957
 10
117.187940449999985
 20
17.4834418499999913
 10
117.3214041999999893
 20
17.5467103000000009
 10
117.4768258999999944
 20
17.7193337999999869
 10
117.6402338999999984
 20
17.9527515999999991
 10
117.5104794500000054
 20
17.9738142500000038
 10
117.380724999999984
 20
17.9738142500000038
 10
117.4911387999999874
 20
18.1342854000000102
 10
117.6015427999999901
 20
18.2947569000000101
 10
118.1237217999999984
 20
18.3117210499999885
 10
118.748402150000004
 20
18.373751900000002
 10
119.0027264999999943
 20
18.4670510500000091
 10
119.2568089999999899
 20
18.6323340000000144
 10
119.8795520999999979
 20
19.27023595
 10
120.8472422499999794
 20
20.4702266999999836
 10
121.6304214999999971
 20
21.4774430500000051
 10
121.5886202999999881
 20
21.9854260500000009
 10
121.3090777500000002
 20
23.2216257000000041
 10
120.968366049999986
 20
24.3651523499999882
 10
120.8139992499999948
 20
24.6209130999999957
 10
120.6265430999999921
 20
24.7649226999999996
 10
120.2238260999999966
 20
24.8222939999999994
 10
119.6552808499999969
 20
24.7604185499999971
 10
119.3645977999999985
 20
24.721532499999995
 10
119.4523322999999806
 20
24.8465626500000099
 10
119.6943660499999851
 20
24.9723708500000043
 10
120.4195642999999905
 20
25.1733450499999947
 10
121.3581295499999868
 20
25.3995721000000003
 10
121.7399364999999989
 20
25.4429423500000098
 10
121.8409268999999995
 20
25.3501751999999954
 10
122.1566405499999917
 20
23.9016414000000168
 10
122.4457233999999914
 20
22.5180837000000054
 10
123.3481080999999904
 20
23.6117217000000039
 10
124.4961525499999766
 20
24.9769947000000059
 10
124.8821031499999918
 20
25.2803375999999957
 10
125.282179400000004
 20
25.4545014500000093
 10
125.682614749999999
 20
25.4957811499999991
 10
126.0696429999999992
 20
25.400471600000003
 10
126.2197138999999879
 20
25.32375159999998
 10
126.2664675999999844
 20
25.2346986499999844
 10
126.0391800499999846
 20
24.8090080000000057
 10
125.7194560999999879
 20
24.3986438500000133
 10
125.5028068000000019
 20
24.4659096500000146
 10
125.0820430999999928
 20
24.5137346999999863
 10
124.6036413999999866
 20
24.3884952500000054
 10
124.1315144999999944
 20
24.0261714000000097
 10
123.1796919499999916
 20
22.9374946500000192
 10
122.5040519499999903
 20
22.0610173000000032
 10
122.6705122999999844
 20
21.199585049999996
 10
123.0123257999999993
 20
19.6629030500000113
 10
123.287770899999984
 20
18.701820199999986
 10
123.5512459999999919
 20
18.1651497999999947
 10
123.8571494999999913
 20
17.9017062000000067
 10
124.2441014499999881
 20
17.7858156000000065
 10
124.7404598999999905
 20
17.775094050000007
 10
125.074140799999995
 20
17.8011980999999935
 10
125.0097379999999987
 20
17.6921780000000126
 10
124.8642580499999895
 20
17.5816637499999899
 10
124.2823973999999794
 20
17.4631330999999932
 10
123.2771459499999906
 20
17.274477499999989
 10
122.8455353999999886
 20
17.2097926000000143
 10
122.6789871999999946
 20
17.2698347500000011
 10
122.6789871999999946
 20
17.2698347500000011
 10
122.6789871999999946
 20
17.2698347500000011
  0
LWPOLYLINE
  5
63
  8
0
 62
7
370
-1
  6
ByLayer
100
AcDbEntity
100
AcDbPolyline
 90
68
 70
0
 10
114.7067018999999846
 20
17.2698347500000011
 10
114.5428357499999947
 20
17.7240521500000057
 10
114.1859456499999936
 20
19.3959671499999899
 10
113.8242311499999886
 20
21.1071706999999833
 10
112.4655923999999914
 20
19.4183335499999998
 10
111.3522430999999955
 20
18.0801515999999936
 10
110.9988060999999959
 20
17.7577641500000141
 10
110.6808160500000042
 20
17.5624837500000126
 10
109.9924335999999983
 20
17.3701906000000008
 10
109.2422953999999891
 20
17.343947600000007
 10
109.0177836999999954
 20
17.3704103999999973
 10
109.3206855999999902
 20
17.8325094500000034
 10
109.6235976499999936
 20
18.2946105999999986
 10
110.1486112999999847
 20
18.3111214999999845
 10
110.7722811999999948
 20
18.3704811499999892
 10
111.024605649999998
 20
18.461614499999996
 10
111.2764582999999874
 20
18.6247400499999856
 10
111.8963576499999846
 20
19.2600404499999911
 10
112.8671928999999921
 20
20.4625242500000013
 10
113.6904170499999935
 20
21.5680787000000009
 10
113.3961184999999858
 20
22.964276649999988
 10
112.9952288499999895
 20
24.3849640999999906
 10
112.8027540499999901
 20
24.6539814500000034
 10
112.521134950000004
 20
24.7980274500000064
 10
112.1234421999999853
 20
24.8238343499999985
 10
111.5827460999999943
 20
24.7381350999999938
 10
111.392905049999996
 20
24.7209301500000151
 10
111.4800469999999848
 20
24.8465584500000034
 10
111.7220846000000023
 20
24.9723670000000197
 10
112.4472789999999947
 20
25.1733412000000101
 10
113.5206673999999936
 20
25.4279882499999985
 10
113.7324138999999832
 20
25.4429104999999822
 10
113.8675527500000015
 20
25.3005014500000129
 10
114.180256049999997
 20
23.9221615499999984
 10
114.4709884499999788
 20
22.5205344000000025
 10
115.4398503999999974
 20
23.6886440000000107
 10
116.6042230499999874
 20
25.0614563499999861
 10
116.9738993499999964
 20
25.3207324999999912
 10
117.3549576499999887
 20
25.4656975999999986
 10
117.7339323999999863
 20
25.4932954500000051
 10
118.0973576999999892
 20
25.40046774999999
 10
118.2460506500000008
 20
25.3245653500000003
 10
118.2951850499999864
 20
25.2388650499999869
 10
118.0934068999999909
 20
24.8458412999999894
 10
117.8095687999999939
 20
24.4196844500000054
 10
117.7345729000000034
 20
24.399005399999993
 10
117.5662099499999869
 20
24.4505495500000052
 10
117.1097973499999938
 20
24.5138995499999908
 10
116.6313106000000062
 20
24.3884262999999919
 10
116.1592687499999954
 20
24.0261675499999967
 10
115.2085955999999953
 20
22.9388960499999826
 10
114.5318159999999921
 20
22.0622776499999986
 10
115.0316611499999766
 20
19.6926096499999801
 10
115.2718308000000036
 20
18.8351954000000035
 10
115.4731581500000033
 20
18.3074044999999899
 10
115.6949909499999904
 20
18.0388162499999964
 10
115.9768459499999835
 20
17.8638277999999957
 10
116.3306210499999906
 20
17.7775489500000106
 10
116.7682137999999981
 20
17.7750898500000005
 10
117.101895049999996
 20
17.801193899999987
 10
117.0375020499999863
 20
17.6921741499999996
 10
116.8920133499999849
 20
17.5816633999999965
 10
116.3101516499999946
 20
17.4631330999999932
 10
115.3049001999999916
 20
17.274477499999989
 10
114.8732892999999962
 20
17.2097926000000143
 10
114.7067414499999813
 20
17.2698347500000011
 10
114.7067414499999813
 20
17.2698347500000011
 10
114.7067018999999846
 20
17.2698347500000011
  0
LWPOLYLINE
  5
64
  8
0
 62
7
370
-1
  6
ByLayer
100
AcDbEntity
100
AcDbPolyline
 90
73
 70
0
 10
46.0794214999999951
 20
17.2804040499999871
 10
45.9985301999999976
 20
17.4723983000000089
 10
46.1702149999999918
 20
18.7681910499999844
 10
46.3220036999999962
 20
19.9673029500000041
 10
45.0075048499999966
 20
20.0103550499999869
 10
43.7137539999999944
 20
20.0326570499999832
 10
43.2951483999999951
 20
19.5609298500000079
 10
42.3644473000000019
 20
18.5795578500000147
 10
41.629257250000002
 20
17.9070818499999973
 10
41.1285409499999943
 20
17.5990832500000067
 10
40.6319766999999956
 20
17.4254013499999871
 10
40.1385963999999973
 20
17.3858271999999943
 10
39.6474322999999984
 20
17.4801525500000139
 10
39.8263593
 20
17.9078613000000075
 10
40.0575517999999988
 20
18.332058499999988
 10
40.3757682999999972
 20
18.2981280999999854
 10
40.8404877999999982
 20
18.2800450000000012
 10
41.2874805000000009
 20
18.3624332499999809
 10
41.7157096999999979
 20
18.5449788999999896
 10
42.124137999999995
 20
18.8273676499999851
 10
42.7436463999999958
 20
19.4549781999999993
 10
43.6485860999999957
 20
20.497708700000004
 10
46.7888966999999951
 20
24.5470861999999954
 10
46.1605395999999999
 20
24.6097239499999887
 10
45.0302779499999986
 20
24.7069658500000173
 10
44.550950499999999
 20
24.7335560500000042
 10
44.1882122499999994
 20
24.6955558500000052
 10
43.7966675999999993
 20
24.5973724499999946
 10
43.4793694999999971
 20
24.4475031499999886
 10
43.2330279500000003
 20
24.243885750000004
 10
43.0543539999999965
 20
23.9844577000000072
 10
42.9615367999999975
 20
23.7358306499999969
 10
42.9486084999999989
 20
23.3130502500000034
 10
42.9691125499999984
 20
22.8787625499999763
 10
43.0533403999999962
 20
22.5267930999999919
 10
43.1717264999999983
 20
22.1409464500000013
 10
43.0895020500000001
 20
22.0459665999999856
 10
42.7716974999999948
 20
21.8596626500000184
 10
42.3062219999999982
 20
21.6238179499999887
 10
42.2360246000000004
 20
21.682343899999978
 10
42.1734449499999968
 20
21.8638175000000103
 10
42.1098999999999961
 20
22.4353681999999992
 10
42.1607420500000032
 20
22.9817507500000033
 10
42.3616658500000014
 20
23.4978981999999803
 10
42.6880121499999987
 20
23.9955779000000007
 10
43.1444811000000001
 20
24.4973287999999911
 10
43.6628202500000029
 20
24.9372207000000117
 10
44.174776449999996
 20
25.2493230499999868
 10
44.5635764000000023
 20
25.395510349999995
 10
44.9706169500000001
 20
25.4622899999999959
 10
45.4645033500000011
 20
25.4541255499999863
 10
46.1138415499999894
 20
25.3754809000000137
 10
47.0822411500000015
 20
25.2616314999999929
 10
47.5066938499999907
 20
25.2905099999999834
 10
47.8238043499999961
 20
25.5117667000000097
 10
48.0095510999999959
 20
25.6354591500000026
 10
48.0641356999999942
 20
25.6271434999999883
 10
48.0838823499999961
 20
25.569969599999979
 10
47.9210788000000036
 20
24.608856650000007
 10
47.4468529499999931
 20
21.6052004000000011
 10
47.1299951499999992
 20
19.0380498000000102
 10
47.1312005499999955
 20
18.1886466999999925
 10
47.221907250000001
 20
17.9703079500000058
 10
47.3825915499999937
 20
17.8426570000000027
 10
47.7952387500000029
 20
17.7679512500000101
 10
48.4130128999999911
 20
17.7827244000000064
 10
48.7724936999999983
 20
17.8068569000000139
 10
48.7268109999999979
 20
17.7091757499999858
 10
48.5017207499999969
 20
17.6026262999999972
 10
47.5256760999999983
 20
17.4134379999999851
 10
46.2708735999999945
 20
17.2058466999999951
 10
46.0794214999999951
 20
17.2804040499999871
 10
46.0794214999999951
 20
17.2804040499999871
  0
LWPOLYLINE
  5
65
  8
0
 62
7
370
-1
  6
ByLayer
100
AcDbEntity
100
AcDbPolyline
 90
10
 70
0
 10
46.4144904999999994
 20
20.524579249999988
 10
46.7151859999999957
 20
22.3547288999999978
 10
46.9547067499999997
 20
23.9986148499999956
 10
46.9386994999999985
 20
24.1904011999999966
 10
46.8447269499999948
 20
24.1344557999999836
 10
44.0611703000000006
 20
20.4795475500000066
 10
45.2289487999999977
 20
20.4605820999999821
 10
46.2209380499999938
 20
20.4703635500000019
 10
46.4144904999999994
 20
20.524579249999988
 10
46.4144904999999994
 20
20.524579249999988
  0
LWPOLYLINE
  5
66
  8
0
 62
7
370
-1
  6
ByLayer
100
AcDbEntity
100
AcDbPolyline
 90
56
 70
0
 10
52.5823378500000018
 20
17.3594557499999951
 10
52.5230884499999959
 20
17.5814211999999941
 10
52.5212477999999976
 20
17.8724619500000017
 10
52.7039393999999959
 20
18.8332112500000051
 10
53.1113908499999923
 20
20.5154376000000127
 10
53.3735124999999897
 20
21.7448731500000179
 10
53.3792854000000005
 20
21.9608542999999941
 10
53.3147859999999909
 20
22.0682892499999923
 10
53.1707193499999917
 20
22.133185549999979
 10
52.9249685999999926
 20
22.0714858000000049
 10
51.8331866499999947
 20
21.4438734999999951
 10
51.0850595499999969
 20
20.9372985500000084
 10
50.6625402499999922
 20
19.2903382000000079
 10
50.2275063499999987
 20
17.6561192499999891
 10
49.374492999999994
 20
17.3292791000000079
 10
49.528462900000001
 20
17.982047300000005
 10
50.1653578999999894
 20
20.3746749499999851
 10
50.4316218000000021
 20
21.6447826000000134
 10
50.4753921000000005
 20
21.9695857499999931
 10
50.3703448499999951
 20
22.0599435000000028
 10
50.2705038499999972
 20
22.1216194499999972
 10
50.1453081499999982
 20
22.1275421499999823
 10
49.6472549999999941
 20
21.944805400000007
 10
49.2449082999999987
 20
21.7771064000000081
 10
49.2453034499999944
 20
21.8692421499999909
 10
49.3619563499999998
 20
22.0015001499999983
 10
49.7796410999999921
 20
22.2557093499999894
 10
50.8571475999999976
 20
22.8288438000000156
 10
51.3174165000000002
 20
23.0436387999999965
 10
51.4788389499999894
 20
23.0681220000000167
 10
51.5238115000000008
 20
22.9963429500000132
 10
51.5220954499999948
 20
22.8366565000000037
 10
51.3560267499999981
 20
22.0701484500000049
 10
51.2056215999999935
 20
21.3859274999999798
 10
51.9104484499999899
 20
21.7994783999999981
 10
53.6205144999999987
 20
22.8384422000000029
 10
53.9787811499999961
 20
23.0177825499999926
 10
54.2052192499999919
 20
23.0817552000000035
 10
54.4063610999999909
 20
23.057108200000016
 10
54.4836442499999976
 20
22.9205490500000053
 10
54.1377787999999995
 20
21.5778842999999938
 10
53.6020411499999909
 20
19.5694715999999858
 10
53.4830925999999991
 20
18.7662863500000014
 10
53.4923549999999963
 20
18.4429920499999866
 10
53.5805721499999947
 20
18.3183024500000045
 10
53.704355949999993
 20
18.2373254000000031
 10
53.8675686500000026
 20
18.249588000000017
 10
54.6956539500000005
 20
18.6772354999999948
 10
55.2336123499999943
 20
18.954830649999991
 10
55.2277449499999946
 20
18.8595375499999989
 10
54.9879449000000022
 20
18.628852199999983
 10
54.4271703499999973
 20
18.2281235499999923
 10
52.9430863500000015
 20
17.3208832999999913
 10
52.6641979499999948
 20
17.1691505999999947
 10
52.5823301499999971
 20
17.3594557499999951
 10
52.5823378500000018
 20
17.3594557499999951
  0
LWPOLYLINE
  5
67
  8
0
 62
7
370
-1
  6
ByLayer
100
AcDbEntity
100
AcDbPolyline
 90
53
 70
0
 10
59.135332549999994
 20
17.3429798500000061
 10
59.0750814499999919
 20
17.5755810999999937
 10
59.0824968999999953
 20
17.9073779500000114
 10
59.3261682999999991
 20
19.1074877000000072
 10
59.7358411999999959
 20
20.7897126500000127
 10
59.9213390999999902
 20
21.7455941499999881
 10
59.9266552500000032
 20
21.9952946500000053
 10
59.8476052999999908
 20
22.0871007000000077
 10
59.6983533999999949
 20
22.1330280499999787
 10
59.4642880999999974
 20
22.0668867999999918
 10
58.3922135999999909
 20
21.4439466499999867
 10
57.6380857500000019
 20
20.9742819999999881
 10
57.2211468499999967
 20
19.3058571999999913
 10
56.8042068999999898
 20
17.6374323999999945
 10
56.3732018500000009
 20
17.4725267499999859
 10
55.9270572000000001
 20
17.3227599999999882
 10
56.3291084999999967
 20
18.8697820499999978
 10
56.808605
 20
20.7431024500000092
 10
57.0069895500000001
 20
21.8451127999999812
 10
56.9640644999999921
 20
22.0387824999999964
 10
56.8258456499999909
 20
22.1190483499999857
 10
56.5781702499999994
 20
22.0877069000000006
 10
56.2068737999999968
 20
21.9465536499999985
 10
55.813745400000002
 20
21.7771064000000081
 10
55.8029296999999929
 20
21.8547140000000013
 10
55.8641733999999914
 20
21.9677839500000118
 10
56.9770886999999959
 20
22.6055773999999872
 10
58.0113978499999945
 20
23.0859985999999822
 10
58.0715334499999969
 20
23.045421349999998
 10
58.0780784499999925
 20
22.8924940999999933
 10
57.9071734500000019
 20
22.0516264499999863
 10
57.7573223499999884
 20
21.3802833999999962
 10
58.9339061499999914
 20
22.089494000000002
 10
60.4170136499999941
 20
22.9614108499999929
 10
60.7462614499999916
 20
23.0827579500000013
 10
60.9410752999999943
 20
23.0624383499999794
 10
61.0105401499999971
 20
23.0053358499999945
 10
61.0297019499999962
 20
22.9043345999999985
 10
60.6843352499999966
 20
21.5413138499999945
 10
60.0524830499999922
 20
19.049176999999986
 10
60.0202904000000004
 20
18.5571690499999988
 10
60.1344957499999992
 20
18.317143950000002
 10
60.2551260499999941
 20
18.2385017500000117
 10
60.4341262000000015
 20
18.2580159999999978
 10
61.2946533499999902
 20
18.6993890999999905
 10
61.7792076999999935
 20
18.9612076500000057
 10
61.7976743999999982
 20
18.8876922499999864
 10
61.4959705499999956
 20
18.5918638499999815
 10
60.1349850499999974
 20
17.6853904499999999
 10
59.2369434999999953
 20
17.2058466999999951
 10
59.135332549999994
 20
17.3429798500000061
 10
59.135332549999994
 20
17.3429798500000061
 10
59.135332549999994
 20
17.3429798500000061
  0
LWPOLYLINE
  5
68
  8
0
 62
7
370
-1
  6
ByLayer
100
AcDbEntity
100
AcDbPolyline
 90
45
 70
0
 10
63.155867949999994
 20
17.2478074999999933
 10
62.7746948499999959
 20
17.4728333500000019
 10
62.4995171500000026
 20
17.8761652999999967
 10
62.4190388499999997
 20
18.2021091000000013
 10
62.4023280999999912
 20
18.6297797000000003
 10
62.5351944000000017
 20
19.6707570499999918
 10
62.8480852999999939
 20
20.7600088499999913
 10
63.056405649999995
 20
21.248022600000013
 10
63.290971099999993
 20
21.6584465999999907
 10
63.6885910499999923
 20
22.1035815000000184
 10
64.3125815500000044
 20
22.5835704499999963
 10
64.9292300999999981
 20
22.9521883500000001
 10
65.2517442500000016
 20
23.059122450000018
 10
65.5594337999999937
 20
23.0868144500000199
 10
65.8337984499999891
 20
23.0359996999999908
 10
66.0563389499999971
 20
22.9074124999999924
 10
66.2201578499999925
 20
22.6682231999999999
 10
66.2689135499999935
 20
22.3210319500000196
 10
66.2267294499999934
 20
21.9909654999999873
 10
66.1065880999999962
 20
21.6711151999999743
 10
65.9086379000000022
 20
21.3617750500000056
 10
65.6330279499999989
 20
21.0632393999999863
 10
64.8273877999999968
 20
20.4314694500000087
 10
63.7364549499999882
 20
19.6704263000000026
 10
63.2938624499999989
 20
19.3817637999999874
 10
63.3162067999999962
 20
19.0892029999999977
 10
63.455699299999992
 20
18.3675502499999936
 10
63.5895021999999983
 20
18.1506783499999926
 10
63.7787643499999959
 20
17.9997324500000104
 10
64.0728290999999928
 20
17.8886753499999998
 10
64.4205582999999962
 20
17.9019711500000085
 10
64.7663883999999968
 20
17.9981805500000007
 10
65.1554155000000037
 20
18.1845258000000172
 10
66.0825259500000044
 20
18.8385928499999977
 10
66.3811476999999996
 20
19.0684752999999887
 10
66.4229832000000044
 20
19.0699453000000005
 10
66.4357326500000056
 20
19.0173045999999886
 10
66.3576189500000027
 20
18.8239379999999983
 10
65.8752415999999954
 20
18.3853953500000102
 10
65.2169038499999942
 20
17.8760599500000126
 10
64.5926620500000013
 20
17.5060661999999923
 10
64.0154455499999955
 20
17.2818078999999898
 10
63.498184049999999
 20
17.2096792000000107
 10
63.155867949999994
 20
17.2478074999999933
 10
63.155867949999994
 20
17.2478074999999933
  0
LWPOLYLINE
  5
69
  8
0
 62
7
370
-1
  6
ByLayer
100
AcDbEntity
100
AcDbPolyline
 90
18
 70
0
 10
63.9004558500000002
 20
20.1002578000000085
 10
64.8963804999999923
 20
20.8854999499999963
 10
65.1753101999999984
 20
21.2181924500000036
 10
65.3253873999999968
 20
21.5281377499999849
 10
65.3813124999999928
 20
21.9809635500000127
 10
65.3088943500000028
 20
22.3612683000000061
 10
65.1466046000000034
 20
22.5608407500000112
 10
64.907138450000005
 20
22.6180814999999882
 10
64.6845440499999995
 20
22.5724208500000145
 10
64.4647597999999959
 20
22.4397537000000113
 10
64.0480029000000002
 20
21.9370700499999884
 10
63.6856286499999911
 20
21.1573676999999805
 10
63.4063989999999933
 20
20.1479851999999937
 10
63.3336185999999941
 20
19.7595660499999894
 10
63.4038212499999929
 20
19.7688610000000153
 10
63.9004558500000002
 20
20.1002578000000085
 10
63.9004558500000002
 20
20.1002578000000085
 10
63.9004558500000002
 20
20.1002578000000085
  0
LWPOLYLINE
  5
6A
  8
0
 62
7
370
-1
  6
ByLayer
100
AcDbEntity
100
AcDbPolyline
 90
18
 70
0
 10
33.5655481000000009
 20
16.0452572000000089
 10
33.4634853000000021
 20
16.0930357000000015
 10
33.7440652499999985
 20
16.3990890000000036
 10
34.1950087499999995
 20
16.940216300000003
 10
34.5371099500000014
 20
17.5288869000000034
 10
34.777120349999997
 20
18.1794745999999918
 10
34.9217907499999995
 20
18.906352499999997
 10
35.0219512999999978
 20
19.369556149999994
 10
35.1488242
 20
19.4552921499999911
 10
35.3968804000000006
 20
19.5366345999999851
 10
35.8175135499999939
 20
19.6470070999999962
 10
35.7713863500000002
 20
19.2062139500000058
 10
35.5733230999999961
 20
18.4246418999999833
 10
35.2705118499999983
 20
17.7098376000000144
 10
34.8205938499999945
 20
17.0856539000000112
 10
33.675257699999996
 20
16.0023478999999895
 10
33.5655481000000009
 20
16.0452572000000089
 10
33.5655481000000009
 20
16.0452572000000089
  0
LWPOLYLINE
  5
6B
  8
0
 62
7
370
-1
  6
ByLayer
100
AcDbEntity
100
AcDbPolyline
 90
39
 70
0
 10
31.0232345499999944
 20
17.301463549999994
 10
30.8585284000000009
 20
17.607118899999989
 10
30.7862191000000003
 20
17.9765442500000177
 10
31.9608142000000015
 20
23.2216257000000041
 10
32.2837626999999969
 20
24.3985514500000136
 10
32.5327467500000012
 20
25.0992084000000091
 10
32.9128967999999986
 20
25.6309770499999843
 10
33.5655481000000009
 20
26.2469182499999931
 10
33.9876960499999967
 20
26.5551632499999926
 10
34.3914959499999924
 20
26.7625935500000196
 10
34.7825439499999973
 20
26.8714365499999985
 10
35.1664368999999937
 20
26.8839182499999936
 10
35.3718655499999954
 20
26.8586069499999951
 10
35.4500621999999979
 20
26.8103590999999994
 10
35.2570179499999981
 20
26.5129357499999969
 10
35.0275841999999997
 20
26.2597006000000022
 10
34.8667311999999967
 20
26.2384045000000015
 10
34.3452574499999983
 20
26.2566892000000109
 10
34.0210149999999985
 20
26.2433723999999984
 10
33.8698461500000008
 20
26.1811718000000155
 10
33.6457008999999942
 20
25.9234653999999978
 10
33.455165099999995
 20
25.5525175500000046
 10
32.6620143499999998
 20
22.6999818500000003
 10
31.8628208499999985
 20
19.2537677500000086
 10
31.8101063000000011
 20
18.6865199499999903
 10
31.8823256499999985
 20
18.3130692500000123
 10
32.0210789500000033
 20
18.1802200999999855
 10
32.2368059999999943
 20
18.1800027499999999
 10
32.5843230999999989
 20
18.3266695499999912
 10
33.1184465500000016
 20
18.6344746000000043
 10
33.6880438999999967
 20
18.9583586500000081
 10
33.7764468999999963
 20
18.9751981999999941
 10
33.7740266499999962
 20
18.9122997000000055
 10
31.5717552499999989
 20
17.340559600000006
 10
31.2439893499999961
 20
17.208019500000006
 10
31.1244692499999971
 20
17.2267956000000027
 10
31.0232345499999944
 20
17.301463549999994
 10
31.0232345499999944
 20
17.301463549999994
 10
31.0232345499999944
 20
17.301463549999994
  0
LWPOLYLINE
  5
6C
  8
0
 62
7
370
-1
  6
ByLayer
100
AcDbEntity
100
AcDbPolyline
 90
55
 70
0
 10
24.7274044499999981
 20
17.2881285500000104
 10
24.5778886499999984
 20
17.6213089500000137
 10
24.5763643999999957
 20
18.1472630499999923
 10
24.9766408499999955
 20
19.9058579999999949
 10
25.3634871000000004
 20
21.6183208500000035
 10
25.366780949999999
 20
21.8563488499999892
 10
25.2861143500000018
 20
21.9778691999999864
 10
25.1788757499999996
 20
22.0548481999999808
 10
25.0342420999999966
 20
22.0496191999999951
 10
24.5554245999999985
 20
21.8807025499999952
 10
24.2138116500000002
 20
21.7547035999999991
 10
24.2207062999999962
 20
21.8465400999999986
 10
24.5657503000000013
 20
22.109142300000002
 10
25.2884222499999964
 20
22.5377169500000036
 10
26.0265400499999977
 20
22.92899349999999
 10
26.4179219499999967
 20
23.0797017499999981
 10
26.4709441500000011
 20
22.9472207999999966
 10
26.0711548999999962
 20
21.2547051500000066
 10
25.617730599999998
 20
19.3889353000000142
 10
25.5202583999999995
 20
18.6629015999999979
 10
25.553289999999997
 20
18.3818477499999915
 10
25.6466356999999974
 20
18.1906721500000117
 10
25.7921152999999954
 20
18.0990536999999847
 10
25.9815496500000016
 20
18.1166716500000007
 10
27.1524130499999963
 20
18.8032806500000049
 10
27.6693151000000022
 20
19.1483827499999961
 10
27.9879809999999978
 20
20.4536016999999788
 10
28.4043717999999998
 20
22.1610920999999905
 10
28.5020966999999992
 20
22.5633635499999912
 10
28.9932593999999995
 20
22.8089428000000112
 10
29.4916810999999974
 20
23.046648800000014
 10
29.336623749999994
 20
22.5267930999999919
 10
28.5919756499999984
 20
19.7290082499999926
 10
28.4695473999999997
 20
19.0217097000000024
 10
28.4388289500000013
 20
18.5325076999999965
 10
28.5003354999999985
 20
18.2484700999999916
 10
28.6545818999999966
 20
18.1566647500000045
 10
28.997765999999995
 20
18.2843454499999893
 10
29.6342588499999948
 20
18.6255775999999855
 10
30.1112062999999957
 20
18.8684061999999813
 10
30.1677032999999994
 20
18.8500784500000123
 10
30.1297065999999951
 20
18.7450581500000055
 10
29.3666222499999989
 20
18.1745357499999898
 10
28.1267577499999994
 20
17.4373814999999865
 10
27.6217427499999957
 20
17.2171677999999986
 10
27.5094550499999997
 20
17.2308989999999937
 10
27.4386895999999965
 20
17.3181865500000072
 10
27.4022734999999962
 20
17.6060825499999964
 10
27.5185651999999976
 20
18.2962444000000062
 10
27.5977089499999977
 20
18.7772595499999966
 10
26.5806544499999973
 20
18.1531087500000012
 10
25.1721077999999991
 20
17.2945492999999999
 10
24.8840612999999991
 20
17.210393549999992
 10
24.727402699999999
 20
17.2881285500000104
 10
24.7274044499999981
 20
17.2881285500000104
  0
LWPOLYLINE
  5
6D
  8
0
 62
7
370
-1
  6
ByLayer
100
AcDbEntity
100
AcDbPolyline
 90
44
 70
0
 10
18.5125055500000002
 20
17.3360355000000084
 10
18.3183906499999978
 20
17.7025152500000047
 10
18.2643607999999986
 20
18.3029454999999928
 10
18.3130877999999981
 20
18.9935059999999964
 10
18.4866975999999994
 20
19.8160206999999957
 10
18.8926811499999978
 20
21.0418722500000115
 10
19.1279721500000015
 20
21.5318943000000047
 10
19.3609450999999986
 20
21.8835756999999944
 10
20.1225380999999999
 20
22.4833955500000116
 10
21.0066629499999991
 20
22.9915374500000098
 10
21.2978744999999989
 20
23.0594682499999806
 10
21.8996823499999991
 20
23.0727448000000095
 10
22.6161025999999978
 20
23.0495573000000036
 10
23.2805394499999991
 20
22.9436924499999861
 10
23.4728665499999956
 20
22.905454600000013
 10
23.304203649999998
 20
22.6907730000000072
 10
23.1248314499999985
 20
22.3747590499999944
 10
22.8855182500000005
 20
21.4914990500000158
 10
22.3228383000000008
 20
18.9290129000000036
 10
22.306497499999999
 20
18.4704820999999981
 10
22.353501099999999
 20
18.3415792000000124
 10
22.442373799999995
 20
18.2781640999999979
 10
22.7609850999999992
 20
18.3435356999999897
 10
23.2928489499999962
 20
18.6580726500000083
 10
23.7190453499999947
 20
18.9377261500000031
 10
23.8744684499999984
 20
19.0352651999999978
 10
23.8737768499999987
 20
18.9159536999999887
 10
23.8052559499999994
 20
18.7667784500000039
 10
23.4257929499999982
 20
18.4807595000000049
 10
22.0973924499999974
 20
17.598214200000001
 10
21.364764049999998
 20
17.2058466999999951
 10
21.2684286500000006
 20
17.2315510500000073
 10
21.2105620999999971
 20
17.3112698500000022
 10
21.2045791999999977
 20
17.6483838999999989
 10
21.4125488500000003
 20
18.7564611500000069
 10
21.410988549999999
 20
18.8048321999999928
 10
21.3311910000000005
 20
18.7757720500000005
 10
20.7599962500000004
 20
18.3845431000000019
 10
19.3920156500000012
 20
17.4659939999999949
 10
19.0059806999999985
 20
17.2665675000000078
 10
18.7600031499999993
 20
17.2058466999999951
 10
18.635702049999999
 20
17.2335327499999948
 10
18.5125055500000002
 20
17.3360355000000084
 10
18.5125055500000002
 20
17.3360355000000084
  0
LWPOLYLINE
  5
6E
  8
0
 62
7
370
-1
  6
ByLayer
100
AcDbEntity
100
AcDbPolyline
 90
23
 70
0
 10
20.0695435499999988
 20
18.2838319999999896
 10
21.0855448999999986
 20
18.9345505999999943
 10
21.3508830499999966
 20
19.1218513499999858
 10
21.4939014499999992
 20
19.2919524000000138
 10
21.7376372499999988
 20
20.2210827000000108
 10
22.0812931500000005
 20
21.5942559000000074
 10
22.2650119999999987
 20
22.3283850999999913
 10
22.175615699999998
 20
22.3903722000000016
 10
21.8356841499999987
 20
22.4646488500000032
 10
21.2657010999999976
 20
22.552624499999979
 10
20.8735351999999992
 20
22.5626436000000012
 10
20.5912626499999973
 20
22.488219249999986
 10
20.3509603499999976
 20
22.3228652500000067
 10
20.1484678499999994
 20
22.0911250000000052
 10
19.9491586000000005
 20
21.7650856500000032
 10
19.5889802499999988
 20
20.9149314500000116
 10
19.3282074999999978
 20
19.9420434499999999
 10
19.2246221999999989
 20
19.0160627999999861
 10
19.2715022500000011
 20
18.5001701500000024
 10
19.4445873999999996
 20
18.225378500000005
 10
19.7040752999999995
 20
18.1674713499999996
 10
20.0695435499999988
 20
18.2838319999999896
 10
20.0695435499999988
 20
18.2838319999999896
  0
LWPOLYLINE
  5
6F
  8
0
 62
7
370
-1
  6
ByLayer
100
AcDbEntity
100
AcDbPolyline
 90
63
 70
0
 10
10.1956386000000006
 20
17.62200335
 10
10.4317363499999995
 20
17.8629902499999957
 10
11.456431349999999
 20
17.8726905000000045
 10
12.4811263500000003
 20
17.8823903999999914
 10
12.6939826999999976
 20
18.6503617999999847
 10
13.6622622499999995
 20
22.4578189499999894
 10
14.2410439499999981
 20
25.0229517999999871
 10
13.2422181500000011
 20
24.8653954499999941
 10
12.8108854999999995
 20
24.7241655500000093
 10
12.4043877999999985
 20
24.4965801499999998
 10
12.1111892999999995
 20
24.2683769999999868
 10
11.8626304999999999
 20
23.9914310999999998
 10
11.6613468999999998
 20
23.6734151499999825
 10
11.5099736499999992
 20
23.3220025500000077
 10
11.3674998499999997
 20
22.5496830999999816
 10
11.3816695999999986
 20
22.1441230499999904
 10
11.4562909999999984
 20
21.7358606500000064
 10
11.5385738999999994
 20
21.3903378500000088
 10
11.0679442999999988
 20
21.1089742499999886
 10
10.6038320499999994
 20
20.8312387500000114
 10
10.5273720999999991
 20
21.0610018499999967
 10
10.4223251999999995
 20
21.5643659000000127
 10
10.4181881999999995
 20
22.1066835499999854
 10
10.51166935
 20
22.6480313499999966
 10
10.699477599999998
 20
23.1484854999999925
 10
11.0703816999999987
 20
23.7040650000000142
 10
11.5880757999999986
 20
24.2167876999999976
 10
12.2095837499999984
 20
24.6509340000000066
 10
12.8919304499999985
 20
24.9707842999999912
 10
13.4834832999999978
 20
25.1397230000000036
 10
14.1729573999999978
 20
25.2656260499999803
 10
14.5521557999999978
 20
25.3430716000000018
 10
14.9538689999999992
 20
25.525200400000017
 10
15.3612245499999975
 20
25.7335679999999911
 10
15.3362653499999979
 20
25.5858329999999796
 10
15.3113061499999983
 20
25.4380990500000053
 10
15.9084485000000004
 20
25.4400254500000074
 10
16.6718331499999977
 20
25.4183779500000071
 10
17.2333983499999981
 20
25.3187154499999849
 10
17.7910687500000009
 20
25.1065696000000003
 10
18.1601804999999992
 20
24.7902105500000118
 10
18.3463062999999984
 20
24.362167200000016
 10
18.3550198999999985
 20
23.8149677499999939
 10
18.2578686499999989
 20
23.3423252999999988
 10
18.0899946499999977
 20
22.9146939000000032
 10
17.8445035999999995
 20
22.5183315000000164
 10
17.5145022499999996
 20
22.1394963999999845
 10
17.0211334999999977
 20
21.7174656999999911
 10
16.4141659499999975
 20
21.383115250000003
 10
15.5009378999999985
 20
21.0229449500000101
 10
14.5894993999999976
 20
20.8420194500000093
 10
14.1434061999999976
 20
20.7623520999999869
 10
13.4581601000000006
 20
17.8514076999999816
 10
15.4999123999999977
 20
17.9165734999999984
 10
15.7247534499999979
 20
17.929918999999984
 10
15.6654994999999992
 20
17.8789054499999907
 10
14.8233658999999989
 20
17.5586708499999986
 10
13.9513065999999988
 20
17.4463418500000103
 10
11.9343272999999996
 20
17.4020881999999801
 10
9.9595412000000003
 20
17.3810290499999951
 10
10.1956386000000006
 20
17.6220082499999933
 10
10.1956386000000006
 20
17.6220082499999933
 10
10.1956386000000006
 20
17.62200335
  0
LWPOLYLINE
  5
70
  8
0
 62
7
370
-1
  6
ByLayer
100
AcDbEntity
100
AcDbPolyline
 90
22
 70
0
 10
15.4999123999999977
 20
21.2489196500000048
 10
16.0297217500000002
 20
21.4836404999999786
 10
16.5073055000000011
 20
21.8668162999999822
 10
16.8022067499999963
 20
22.2145458499999791
 10
17.0215153499999978
 20
22.5966642999999863
 10
17.1706395000000001
 20
23.025069550000012
 10
17.2549870499999969
 20
23.5116598500000009
 10
17.2681460000000015
 20
23.9201525500000116
 10
17.2175447499999983
 20
24.2718913499999758
 10
17.1036162499999982
 20
24.5664436499999965
 10
16.9267937999999987
 20
24.8033761499999912
 10
16.6875099999999996
 20
24.9822569499999929
 10
16.3861978000000015
 20
25.1026530999999977
 10
16.0232901499999976
 20
25.1641323499999885
 10
15.5992196499999984
 20
25.1662617500000181
 10
15.2248935999999997
 20
25.1336473499999897
 10
14.2704918999999997
 20
21.2389708999999982
 10
14.4562621
 20
21.1877970500000004
 10
14.7986579999999996
 20
21.1730084999999804
 10
15.4999123999999977
 20
21.2489196500000048
 10
15.4999123999999977
 20
21.2489196500000048
 10
15.4999123999999977
 20
21.2489196500000048
  0
LWPOLYLINE
  5
71
  8
0
 62
7
370
-1
  6
ByLayer
100
AcDbEntity
100
AcDbPolyline
 90
74
 70
0
 10
10.3343848999999999
 20
33.5756879500000025
 10
10.2703866999999995
 20
33.6085179499999924
 10
10.4923356999999999
 20
33.9898219500000209
 10
10.7142833
 20
34.357223949999991
 10
11.3974451499999994
 20
34.3578165000000126
 10
12.2571025500000008
 20
34.401453800000013
 10
12.7621203499999982
 20
34.5645495999999923
 10
13.1050661000000002
 20
34.8510690499999782
 10
13.3970056499999988
 20
35.3262892500000021
 10
13.6837491
 20
36.0746865499999956
 10
14.0604418499999984
 20
37.465640800000017
 10
14.3526670000000003
 20
38.608456249999989
 10
14.3396466499999988
 20
38.6605586499999845
 10
14.2200904999999995
 20
38.6724544500000036
 10
14.0690126499999977
 20
38.6724544500000036
 10
14.2856511000000008
 20
38.9558725500000094
 10
14.5022895499999986
 20
39.2392906499999867
 10
14.9658032999999993
 20
41.1000477999999703
 10
15.4158703999999993
 20
42.9742505499999936
 10
14.9117590999999994
 20
43.0106519500000104
 10
14.1122337999999985
 20
42.9747591
 10
13.4967738499999985
 20
42.7684117000000015
 10
13.0120563999999987
 20
42.4143366499999956
 10
12.6680616999999991
 20
41.9227189499999895
 10
12.4747699999999995
 20
41.3037432499999966
 10
12.4519146499999991
 20
40.6154237999999737
 10
12.5935323500000003
 20
39.8651406999999836
 10
12.6589165499999989
 20
39.5113554499999964
 10
11.6402418999999995
 20
39.0478210499999818
 10
11.5645781999999997
 20
39.3307144999999991
 10
11.4965326000000001
 20
40.0482526499999949
 10
11.5623655000000003
 20
40.7689771999999948
 10
11.7021064999999993
 20
41.2126956500000006
 10
11.8930031500000002
 20
41.6186802499999828
 10
12.1333831500000002
 20
41.9852961500000106
 10
12.4215734999999992
 20
42.3109077999999954
 10
12.7559025999999989
 20
42.5938810499999931
 10
13.1346971000000003
 20
42.8325806999999941
 10
13.5562854000000002
 20
43.0253715499999885
 10
14.0189944999999998
 20
43.1706187500000169
 10
14.8163123499999987
 20
43.3026985999999852
 10
16.6153042999999982
 20
43.3493473000000051
 10
18.5318895999999995
 20
43.410726799999992
 10
18.9445312000000001
 20
43.4886329500000102
 10
19.2940646499999993
 20
43.6294551000000013
 10
19.5591980499999991
 20
43.7197400499999844
 10
19.4943206499999988
 20
43.5813192500000071
 10
19.2527922999999994
 20
43.3924379000000044
 10
18.816696499999999
 20
43.0745087500000068
 10
18.6410311499999999
 20
42.9328714499999933
 10
17.5030834999999989
 20
42.9613817499999868
 10
16.3399061000000003
 20
42.9613817499999868
 10
15.3902048999999987
 20
39.2029830500000003
 10
16.4598815499999986
 20
39.1829480000000103
 10
17.5295567999999982
 20
39.1814660999999944
 10
17.4015614499999991
 20
39.0717942999999934
 10
17.2421903499999978
 20
38.9686416000000122
 10
17.0124101000000003
 20
38.8973147499999925
 10
16.1068141499999982
 20
38.8010353500000065
 10
15.2908601999999991
 20
38.7315816999999925
 10
15.0430909999999987
 20
37.8077430499999991
 10
14.6466428499999992
 20
36.4411033000000089
 10
14.4644496499999988
 20
36.0293521000000112
 10
14.2396880499999998
 20
35.6560112999999888
 10
13.88537395
 20
35.2224225500000045
 10
13.3917707000000004
 20
34.7455566499999975
 10
12.8359951999999993
 20
34.2936660499999846
 10
12.2951633000000005
 20
33.9350021500000025
 10
11.7246356499999997
 20
33.6802504499999884
 10
11.3860018999999983
 20
33.5941469499999812
 10
10.9103669500000002
 20
33.5675420499999859
 10
10.3343880499999994
 20
33.5756515500000035
 10
10.3343880499999994
 20
33.5756494500000144
 10
10.3343848999999999
 20
33.5756879500000025
  0
LWPOLYLINE
  5
72
  8
0
 62
7
370
-1
  6
ByLayer
100
AcDbEntity
100
AcDbPolyline
 90
35
 70
0
 10
19.2740533999999997
 20
36.3960078999999723
 10
19.8165330999999973
 20
38.440131450000024
 10
20.0220877499999972
 20
39.4121843500000182
 10
20.0072032999999969
 20
39.7246059000000002
 10
19.8643028499999978
 20
39.8752714500000138
 10
19.5924746499999998
 20
39.90221200000002
 10
19.157972749999999
 20
39.7317868499999918
 10
18.7642769999999999
 20
39.5649362499999881
 10
18.7800014500000003
 20
39.6810813000000167
 10
18.9179266499999983
 20
39.8220714500000099
 10
19.3597904499999984
 20
40.0849399999999889
 10
20.4120577499999989
 20
40.6205607499999815
 10
21.033197849999997
 20
40.8598361500000067
 10
21.0918071000000005
 20
40.8236825500000009
 10
21.1105765499999976
 20
40.7206807000000026
 10
21.0277451999999982
 20
40.2128979000000015
 10
20.9623137499999999
 20
39.8171011000000021
 10
21.5352721500000008
 20
40.2058026999999925
 10
22.2757776499999984
 20
40.694481450000012
 10
22.7419426499999986
 20
40.8585499000000141
 10
23.0770480499999984
 20
40.8311494499999981
 10
23.2419232499999993
 20
40.7425700500000119
 10
23.0685423500000013
 20
40.1901573499999927
 10
22.9009413500000001
 20
39.6654436499999861
 10
22.7197481000000003
 20
39.7843071499999894
 10
22.3987581999999996
 20
39.9520614500000022
 10
22.0338411999999977
 20
39.9750536500000067
 10
21.3955563499999997
 20
39.770605699999976
 10
21.1022189000000004
 20
39.6098857000000066
 10
20.9299649999999993
 20
39.4587553499999899
 10
20.3660971499999981
 20
37.4124775500000055
 10
19.8360249499999988
 20
35.4264022000000125
 10
18.9405380499999971
 20
35.0886266499999806
 10
19.2740572499999985
 20
36.3960078999999723
 10
19.2740533999999997
 20
36.3960078999999723
  0
LWPOLYLINE
  5
73
  8
0
 62
7
370
-1
  6
ByLayer
100
AcDbEntity
100
AcDbPolyline
 90
30
 70
0
 10
23.9872982999999991
 20
35.0205292499999814
 10
23.5899961500000011
 20
35.2074345000000051
 10
23.3071135499999968
 20
35.5427152499999863
 10
23.1484179500000025
 20
36.0086492499999906
 10
23.1236760999999973
 20
36.5875153000000068
 10
23.2577302999999986
 20
37.4800422499999968
 10
23.5191456499999987
 20
38.3002021499999898
 10
23.8961064999999984
 20
39.0195004500000096
 10
24.3767968500000016
 20
39.6094436500000029
 10
24.7539298999999993
 20
39.9240372999999806
 10
25.2261352000000016
 20
40.2373786499999824
 10
26.2515260000000019
 20
40.7374208499999781
 10
26.8065745500000006
 20
40.8598834000000011
 10
27.2936754999999991
 20
40.8100080500000217
 10
27.6909195499999967
 20
40.5943727000000081
 10
27.9763973999999997
 20
40.2195556000000067
 10
28.0814306499999979
 20
39.9452843999999914
 10
28.0972233500000002
 20
39.5322924499999999
 10
27.9902031499999993
 20
38.6363421499999902
 10
27.709654699999998
 20
37.6958424499999865
 10
27.310189900000001
 20
36.8539352999999892
 10
26.8464199500000014
 20
36.2537640500000009
 10
26.4014208499999974
 20
35.9062458999999876
 10
25.8586376999999992
 20
35.5619106499999873
 10
25.2990419499999994
 20
35.267663199999987
 10
24.8036046999999975
 20
35.0704081000000087
 10
24.3791001999999999
 20
35.0003324999999847
 10
23.9872982999999991
 20
35.0205292499999814
 10
23.9872982999999991
 20
35.0205292499999814
 10
23.9872982999999991
 20
35.0205292499999814
  0
LWPOLYLINE
  5
74
  8
0
 62
7
370
-1
  6
ByLayer
100
AcDbEntity
100
AcDbPolyline
 90
29
 70
0
 10
25.451527849999998
 20
35.5833274999999958
 10
25.7762067499999965
 20
35.7506617999999889
 10
26.0780838499999952
 20
36.0211459999999875
 10
26.3633103999999996
 20
36.4016012499999988
 10
26.6380376499999976
 20
36.8988469500000065
 10
26.9585959999999965
 20
37.7069118999999944
 10
27.1274741499999976
 20
38.4804742000000033
 10
27.1393247999999971
 20
39.1760704999999803
 10
26.9888013499999992
 20
39.7502364000000057
 10
26.8341125499999968
 20
40.0116328500000122
 10
26.6491690500000011
 20
40.1908751999999936
 10
26.4251812999999984
 20
40.2940324500000031
 10
26.153360450000001
 20
40.3271750000000111
 10
25.8042189999999962
 20
40.263695499999983
 10
25.4619256499999977
 20
40.0823520999999801
 10
25.1361789000000009
 20
39.7973422000000028
 10
24.8366779500000021
 20
39.4228638999999816
 10
24.5731220000000015
 20
38.9731146000000024
 10
24.3552092000000009
 20
38.4622917000000086
 10
24.1926390999999974
 20
37.9045929499999943
 10
24.095110199999997
 20
37.3142164500000035
 10
24.1012218999999988
 20
36.5789840500000025
 10
24.2758029499999992
 20
36.0171321999999918
 10
24.4213609500000004
 20
35.8102359999999749
 10
24.6031456999999989
 20
35.6574995000000001
 10
24.8191940500000001
 20
35.5625276999999755
 10
25.0675418000000008
 20
35.5289248999999927
 10
25.451527849999998
 20
35.5833274999999958
 10
25.451527849999998
 20
35.5833274999999958
  0
LWPOLYLINE
  5
75
  8
0
 62
7
370
-1
  6
ByLayer
100
AcDbEntity
100
AcDbPolyline
 90
75
 70
0
 10
34.8363854999999987
 20
35.1526237999999864
 10
34.6925278000000006
 20
35.3703003499999795
 10
34.6743365499999996
 20
35.7360195499999804
 10
35.0953385999999981
 20
37.7033891499999925
 10
35.410816699999998
 20
39.0802380499999913
 10
35.4595825499999933
 20
39.5940828500000066
 10
35.3831390499999969
 20
39.8527811499999984
 10
35.1746324999999942
 20
39.899850200000003
 10
34.7060206499999993
 20
39.7050286500000027
 10
33.8854449500000001
 20
39.2403753000000108
 10
33.4014684499999959
 20
38.9467732500000068
 10
32.9612870999999998
 20
37.1731223499999714
 10
32.5211057499999967
 20
35.3994725000000017
 10
32.0879740999999967
 20
35.2424842000000069
 10
31.6372787499999966
 20
35.1030603000000099
 10
31.8043978000000003
 20
35.753744949999998
 10
32.4132231500000003
 20
38.0080984499999772
 10
32.6773968500000009
 20
39.349044699999979
 10
32.6798461499999959
 20
39.6100200999999856
 10
32.6161681999999971
 20
39.7421734499999957
 10
32.4383625999999978
 20
39.8426640499999962
 10
31.8708365499999999
 20
39.5954600999999968
 10
30.8996257499999984
 20
38.9929725499999904
 10
30.6656154000000001
 20
38.8341831500000012
 10
30.2382632999999963
 20
37.2082525499999974
 10
29.7870275500000012
 20
35.486297350000001
 10
29.6960019999999965
 20
35.3804531499999939
 10
29.3556385499999983
 20
35.2381449000000089
 10
28.9309936999999984
 20
35.1031558500000074
 10
28.9527514500000009
 20
35.2415990499999907
 10
29.9289931499999966
 20
39.1844788999999878
 10
29.9768790999999943
 20
39.5737761999999975
 10
29.8874715999999978
 20
39.7574208499999884
 10
29.7813327000000001
 20
39.8314440999999988
 10
29.632655849999999
 20
39.8335231000000078
 10
29.1417181999999961
 20
39.6584404999999833
 10
28.789788999999999
 20
39.5230643499999985
 10
28.8133093499999973
 20
39.6513631500000088
 10
29.0067000999999962
 20
39.8222121499999844
 10
30.1758141999999978
 20
40.4942919499999903
 10
30.9710807000000017
 20
40.8667038499999933
 10
31.0823488499999989
 20
40.8019164000000103
 10
31.0947189000000002
 20
40.6226282000000083
 10
30.9266702499999973
 20
39.8832280000000026
 10
30.7940562999999976
 20
39.2528717000000142
 10
31.5296215499999981
 20
39.679191650000007
 10
33.0283362499999953
 20
40.5743421999999896
 10
33.4750181499999968
 20
40.7945597499999906
 10
33.7118281499999952
 20
40.8588334000000089
 10
33.7860274499999989
 20
40.8283448999999905
 10
33.7937743499999996
 20
40.7204241499999853
 10
33.6500853499999977
 20
39.9986202000000048
 10
33.5374983999999969
 20
39.383189299999998
 10
34.4308740999999969
 20
39.8605416999999989
 10
35.7293215999999987
 20
40.5658935499999984
 10
36.4133430499999946
 20
40.8560872999999845
 10
36.5804151999999974
 20
40.8409263499999895
 10
36.6159783499999989
 20
40.6396955999999818
 10
36.2343509499999996
 20
39.1114762500000097
 10
35.7219225999999992
 20
37.1248583999999937
 10
35.6392872500000024
 20
36.6167178999999976
 10
35.6487568499999981
 20
36.3194345499999827
 10
35.7695057999999975
 20
36.0928795500000206
 10
36.0049836999999968
 20
36.0418894499999851
 10
36.3770994999999928
 20
36.1692166500000098
 10
36.9077624999999969
 20
36.4776142499999878
 10
37.2716095500000009
 20
36.6977117499999963
 10
37.2956993499999996
 20
36.627256750000015
 10
37.0795190500000018
 20
36.3935040000000072
 10
36.5453270000000003
 20
35.9948347499999954
 10
35.2090031999999979
 20
35.1789441500000066
 10
34.944682499999999
 20
35.0520561999999813
 10
34.8363854999999987
 20
35.1526237999999864
 10
34.8363854999999987
 20
35.1526237999999864
 10
34.8363854999999987
 20
35.1526237999999864
  0
ENDSEC
  0
SECTION
  2
OBJECTS
  0
DICTIONARY
  5
C
100
AcDbDictionary
280
0
281
1
  3
ACAD_GROUP
350
D
  3
ACAD_LAYOUT
350
1A
  3
ACAD_MLINESTYLE
350
17
  3
ACAD_PLOTSETTINGS
350
19
  3
ACAD_PLOTSTYLENAME
350
E
  3
AcDbVariableDictionary
350
76
  0
DICTIONARY
  5
D
100
AcDbDictionary
280
0
281
1
  0
ACDBDICTIONARYWDFLT
  5
E
100
AcDbDictionary
281
1
  3
Normal
350
F
100
AcDbDictionaryWithDefault
340
F
  0
ACDBPLACEHOLDER
  5
F
  0
DICTIONARY
  5
17
100
AcDbDictionary
280
0
281
1
  3
Standard
350
18
  0
MLINESTYLE
  5
18
100
AcDbMlineStyle
  2
STANDARD
 70
0
  3

 62
256
 51
90.0
 52
90.0
 71
2
 49
0.5
 62
256
  6
BYLAYER
 49
-0.5
 62
256
  6
BYLAYER
  0
DICTIONARY
  5
19
100
AcDbDictionary
280
0
281
1
  0
DICTIONARY
  5
1A
100
AcDbDictionary
281
1
  3
Layout1
350
1E
  3
Layout2
350
26
  3
Model
350
22
  0
LAYOUT
  5
1E
100
AcDbPlotSettings
  1

  2
C:\Program Files\AutoCAD 2002\plotters\DWF ePlot (optimized for plotting).pc3
  4

  6

 40
0.0
 41
0.0
 42
0.0
 43
0.0
 44
0.0
 45
0.0
 46
0.0
 47
0.0
 48
0.0
 49
0.0
140
0.0
141
0.0
142
1.0
143
1.0
 70
688
 72
0
 73
0
 74
5
  7

 75
16
147
1.0
148
0.0
149
0.0
100
AcDbLayout
  1
Layout1
 70
1
 71
1
 10
0.0
 20
0.0
 11
420.0
 21
297.0
 12
0.0
 22
0.0
 32
0.0
 14
100000000000000000000.0
 24
100000000000000000000.0
 34
100000000000000000000.0
 15
-100000000000000000000.0
 25
-100000000000000000000.0
 35
-100000000000000000000.0
146
0.0
 13
0.0
 23
0.0
 33
0.0
 16
1.0
 26
0.0
 36
0.0
 17
0.0
 27
1.0
 37
0.0
 76
0
330
1B
  0
LAYOUT
  5
22
100
AcDbPlotSettings
  1

  2
C:\Program Files\AutoCAD 2002\plotters\DWF ePlot (optimized for plotting).pc3
  4

  6

 40
0.0
 41
0.0
 42
0.0
 43
0.0
 44
0.0
 45
0.0
 46
0.0
 47
0.0
 48
0.0
 49
0.0
140
0.0
141
0.0
142
1.0
143
1.0
 70
1712
 72
0
 73
0
 74
0
  7

 75
0
147
1.0
148
0.0
149
0.0
100
AcDbLayout
  1
Model
 70
1
 71
0
 10
0.0
 20
0.0
 11
12.0
 21
9.0
 12
0.0
 22
0.0
 32
0.0
 14
0.0
 24
0.0
 34
0.0
 15
0.0
 25
0.0
 35
0.0
146
0.0
 13
0.0
 23
0.0
 33
0.0
 16
1.0
 26
0.0
 36
0.0
 17
0.0
 27
1.0
 37
0.0
 76
0
330
1F
  0
LAYOUT
  5
26
100
AcDbPlotSettings
  1

  2
C:\Program Files\AutoCAD 2002\plotters\DWF ePlot (optimized for plotting).pc3
  4

  6

 40
0.0
 41
0.0
 42
0.0
 43
0.0
 44
0.0
 45
0.0
 46
0.0
 47
0.0
 48
0.0
 49
0.0
140
0.0
141
0.0
142
1.0
143
1.0
 70
688
 72
0
 73
0
 74
5
  7

 75
16
147
1.0
148
0.0
149
0.0
100
AcDbLayout
  1
Layout2
 70
1
 71
2
 10
0.0
 20
0.0
 11
12.0
 21
9.0
 12
0.0
 22
0.0
 32
0.0
 14
0.0
 24
0.0
 34
0.0
 15
0.0
 25
0.0
 35
0.0
146
0.0
 13
0.0
 23
0.0
 33
0.0
 16
1.0
 26
0.0
 36
0.0
 17
0.0
 27
1.0
 37
0.0
 76
0
330
23
  0
DICTIONARY
  5
76
100
AcDbDictionary
281
1
  3
DIMASSOC
350
78
  3
HIDETEXT
350
77
  0
DICTIONARYVAR
  5
77
100
DictionaryVariables
280
0
  1
2
  0
DICTIONARYVAR
  5
78
100
DictionaryVariables
280
0
  1
1
  0
ENDSEC
  0
EOF
