999
dxfrw 0.5.10
0
SECTION
2
HEADER
9
$ACADVER
1
AC1021
9
$HANDSEED
5
20000
9
$DWGCODEPAGE
3
ANSI_1252
9
$INSBASE
10
0
20
0
30
0
9
$EXTMIN
10
0.001654
20
0.288856
30
0
9
$EXTMAX
10
208.362197
20
423.189325
30
0
9
$LIMMIN
10
0
20
0
9
$LIMMAX
10
420
20
297
9
$ORTHOMODE
70
0
9
$LTSCALE
40
1
9
$TEXTSTYLE
7
STANDARD
9
$CLAYER
8
0
9
$DIMASZ
40
2.5
9
$DIMLFAC
40
1
9
$DIMSCALE
40
1
9
$DIMEXO
40
0.625
9
$DIMEXE
40
1.25
9
$DIMTXT
40
2.5
9
$DIMTSZ
40
0
9
$DIMAUNIT
70
0
9
$DIMADEC
70
0
9
$DIMLUNIT
70
2
9
$DIMSTYLE
2
Standard
9
$DIMGAP
40
0.625
9
$DIMTIH
70
0
9
$LUNITS
70
2
9
$LUPREC
70
4
9
$AUNITS
70
0
9
$AUPREC
70
2
9
$SPLINESEGS
70
8
9
$GRIDMODE
70
1
9
$SNAPSTYLE
70
0
9
$PINSBASE
10
0
20
0
30
0
9
$PLIMMIN
10
0
20
0
9
$PLIMMAX
10
21
20
29.7
9
$INSUNITS
70
4
9
$PSVPSCALE
40
1
0
ENDSEC
0
SECTION
2
CLASSES
0
ENDSEC
0
SECTION
2
TABLES
0
TABLE
2
VPORT
5
8
330
0
100
AcDbSymbolTable
70
1
0
VPORT
5
31
330
2
100
AcDbSymbolTableRecord
100
AcDbViewportTableRecord
2
*ACTIVE
70
0
10
0
20
0
11
1
21
1
12
119.651501027
22
80.4058086904
13
0
23
0
14
10
24
10
15
10
25
10
16
0
26
0
36
1
17
0
27
0
37
0
40
205.116858904
41
1.65333333333
42
50
43
0
44
0
50
0
51
0
71
0
72
100
73
1
74
3
75
0
76
1
77
0
78
0
281
0
65
1
110
0
120
0
130
0
111
1
121
0
131
0
112
0
122
1
132
0
79
0
146
0
348
10020
60
7
61
5
292
1
282
1
141
0
142
0
63
250
421
3358443
0
ENDTAB
0
TABLE
2
LTYPE
5
5
330
0
100
AcDbSymbolTable
70
4
0
LTYPE
5
14
330
5
100
AcDbSymbolTableRecord
100
AcDbLinetypeTableRecord
2
ByBlock
70
0
3

72
65
73
0
40
0
0
LTYPE
5
15
330
5
100
AcDbSymbolTableRecord
100
AcDbLinetypeTableRecord
2
ByLayer
70
0
3

72
65
73
0
40
0
0
LTYPE
5
16
330
5
100
AcDbSymbolTableRecord
100
AcDbLinetypeTableRecord
2
Continuous
70
0
3
Solid line
72
65
73
0
40
0
0
LTYPE
5
32
330
5
100
AcDbSymbolTableRecord
100
AcDbLinetypeTableRecord
2
DOT
70
0
3
Dot . . . . . . . . . . . . . . . . . . . . . .
72
65
73
2
40
6.35
49
0
74
0
49
-6.35
74
0
0
LTYPE
5
33
330
5
100
AcDbSymbolTableRecord
100
AcDbLinetypeTableRecord
2
DOT2
70
0
3
Dot (.5x) .....................................
72
65
73
2
40
3.175
49
0
74
0
49
-3.175
74
0
0
LTYPE
5
34
330
5
100
AcDbSymbolTableRecord
100
AcDbLinetypeTableRecord
2
DOTX2
70
0
3
Dot (2x) .  .  .  .  .  .  .  .  .  .  .  .  .
72
65
73
2
40
12.7
49
0
74
0
49
-12.7
74
0
0
LTYPE
5
35
330
5
100
AcDbSymbolTableRecord
100
AcDbLinetypeTableRecord
2
DASHED
70
0
3
Dot . . . . . . . . . . . . . . . . . . . . . .
72
65
73
2
40
19.05
49
12.7
74
0
49
-6.35
74
0
0
LTYPE
5
36
330
5
100
AcDbSymbolTableRecord
100
AcDbLinetypeTableRecord
2
DASHED2
70
0
3
Dashed (.5x) _ _ _ _ _ _ _ _ _ _ _ _ _ _ _ _ _
72
65
73
2
40
9.525
49
6.35
74
0
49
-3.175
74
0
0
LTYPE
5
37
330
5
100
AcDbSymbolTableRecord
100
AcDbLinetypeTableRecord
2
DASHEDX2
70
0
3
Dashed (2x) ____  ____  ____  ____  ____  ___
72
65
73
2
40
38.1
49
25.4
74
0
49
-12.7
74
0
0
LTYPE
5
38
330
5
100
AcDbSymbolTableRecord
100
AcDbLinetypeTableRecord
2
DASHDOT
70
0
3
Dash dot __ . __ . __ . __ . __ . __ . __ . __
72
65
73
4
40
25.4
49
12.7
74
0
49
-6.35
74
0
49
0
74
0
49
-6.35
74
0
0
LTYPE
5
39
330
5
100
AcDbSymbolTableRecord
100
AcDbLinetypeTableRecord
2
DASHDOT2
70
0
3
Dash dot (.5x) _._._._._._._._._._._._._._._.
72
65
73
4
40
12.7
49
6.35
74
0
49
-3.175
74
0
49
0
74
0
49
-3.175
74
0
0
LTYPE
5
3A
330
5
100
AcDbSymbolTableRecord
100
AcDbLinetypeTableRecord
2
DASHDOTX2
70
0
3
Dash dot (2x) ____  .  ____  .  ____  .  ___
72
65
73
4
40
50.8
49
25.4
74
0
49
-12.7
74
0
49
0
74
0
49
-12.7
74
0
0
LTYPE
5
3B
330
5
100
AcDbSymbolTableRecord
100
AcDbLinetypeTableRecord
2
DIVIDE
70
0
3
Divide ____ . . ____ . . ____ . . ____ . . ____
72
65
73
6
40
31.75
49
12.7
74
0
49
-6.35
74
0
49
0
74
0
49
-6.35
74
0
49
0
74
0
49
-6.35
74
0
0
LTYPE
5
3C
330
5
100
AcDbSymbolTableRecord
100
AcDbLinetypeTableRecord
2
DIVIDE2
70
0
3
Divide (.5x) __..__..__..__..__..__..__..__.._
72
65
73
6
40
15.875
49
6.35
74
0
49
-3.175
74
0
49
0
74
0
49
-3.175
74
0
49
0
74
0
49
-3.175
74
0
0
LTYPE
5
3D
330
5
100
AcDbSymbolTableRecord
100
AcDbLinetypeTableRecord
2
DIVIDEX2
70
0
3
Divide (2x) ________  .  .  ________  .  .  _
72
65
73
6
40
63.5
49
25.4
74
0
49
-12.7
74
0
49
0
74
0
49
-12.7
74
0
49
0
74
0
49
-12.7
74
0
0
LTYPE
5
3E
330
5
100
AcDbSymbolTableRecord
100
AcDbLinetypeTableRecord
2
BORDER
70
0
3
Border __ __ . __ __ . __ __ . __ __ . __ __ .
72
65
73
6
40
44.45
49
12.7
74
0
49
-6.35
74
0
49
12.7
74
0
49
-6.35
74
0
49
0
74
0
49
-6.35
74
0
0
LTYPE
5
3F
330
5
100
AcDbSymbolTableRecord
100
AcDbLinetypeTableRecord
2
BORDER2
70
0
3
Border (.5x) __.__.__.__.__.__.__.__.__.__.__.
72
65
73
6
40
22.225
49
6.35
74
0
49
-3.175
74
0
49
6.35
74
0
49
-3.175
74
0
49
0
74
0
49
-3.175
74
0
0
LTYPE
5
40
330
5
100
AcDbSymbolTableRecord
100
AcDbLinetypeTableRecord
2
BORDERX2
70
0
3
Border (2x) ____  ____  .  ____  ____  .  ___
72
65
73
6
40
88.9
49
25.4
74
0
49
-12.7
74
0
49
25.4
74
0
49
-12.7
74
0
49
0
74
0
49
-12.7
74
0
0
LTYPE
5
41
330
5
100
AcDbSymbolTableRecord
100
AcDbLinetypeTableRecord
2
CENTER
70
0
3
Center ____ _ ____ _ ____ _ ____ _ ____ _ ____
72
65
73
4
40
50.8
49
31.75
74
0
49
-6.35
74
0
49
6.35
74
0
49
-6.35
74
0
0
LTYPE
5
42
330
5
100
AcDbSymbolTableRecord
100
AcDbLinetypeTableRecord
2
CENTER2
70
0
3
Center (.5x) ___ _ ___ _ ___ _ ___ _ ___ _ ___
72
65
73
4
40
28.575
49
19.05
74
0
49
-3.175
74
0
49
3.175
74
0
49
-3.175
74
0
0
LTYPE
5
43
330
5
100
AcDbSymbolTableRecord
100
AcDbLinetypeTableRecord
2
CENTERX2
70
0
3
Center (2x) ________  __  ________  __  _____
72
65
73
4
40
101.6
49
63.5
74
0
49
-12.7
74
0
49
12.7
74
0
49
-12.7
74
0
0
ENDTAB
0
TABLE
2
LAYER
5
2
330
0
100
AcDbSymbolTable
70
1
0
LAYER
5
10
330
2
100
AcDbSymbolTableRecord
100
AcDbLayerTableRecord
2
0
70
0
62
7
6
CONTINUOUS
370
-3
390
F
0
LAYER
5
44
330
2
100
AcDbSymbolTableRecord
100
AcDbLayerTableRecord
2
cut
70
0
62
1
6
CONTINUOUS
370
0
390
F
0
ENDTAB
0
TABLE
2
STYLE
5
3
330
0
100
AcDbSymbolTable
70
3
0
STYLE
5
45
330
2
100
AcDbSymbolTableRecord
100
AcDbTextStyleTableRecord
2
Standard
70
0
40
0
41
1
50
0
71
0
42
1
3
txt
4

0
ENDTAB
0
TABLE
2
VIEW
5
6
330
0
100
AcDbSymbolTable
70
0
0
ENDTAB
0
TABLE
2
UCS
5
7
330
0
100
AcDbSymbolTable
70
0
0
ENDTAB
0
TABLE
2
APPID
5
9
330
0
100
AcDbSymbolTable
70
1
0
APPID
5
12
330
9
100
AcDbSymbolTableRecord
100
AcDbRegAppTableRecord
2
ACAD
70
0
0
ENDTAB
0
TABLE
2
DIMSTYLE
5
A
330
0
100
AcDbSymbolTable
70
1
100
AcDbDimStyleTable
71
1
0
DIMSTYLE
105
46
330
A
100
AcDbSymbolTableRecord
100
AcDbDimStyleTableRecord
2
Standard
70
0
40
1
41
2.5
42
0.625
43
0.38
44
1.25
45
0
46
0
47
0
48
0
140
2.5
141
0.09
142
0
143
25.4
144
1
145
0
146
1
147
0.625
148
0
71
0
72
0
73
0
74
1
75
0
76
0
77
0
78
0
79
0
170
0
171
2
172
0
173
0
174
0
175
0
176
0
177
0
178
0
179
0
271
4
272
4
273
2
274
2
275
0
276
0
277
2
278
46
279
0
280
0
281
0
282
0
283
1
284
0
285
0
286
0
288
0
289
3
340
Standard
341

371
-2
372
-2
0
ENDTAB
0
TABLE
2
BLOCK_RECORD
5
1
330
0
100
AcDbSymbolTable
70
2
0
BLOCK_RECORD
5
1F
330
1
100
AcDbSymbolTableRecord
100
AcDbBlockTableRecord
2
*Model_Space
70
0
280
1
281
0
0
BLOCK_RECORD
5
1E
330
1
100
AcDbSymbolTableRecord
100
AcDbBlockTableRecord
2
*Paper_Space
70
0
280
1
281
0
0
ENDTAB
0
ENDSEC
0
SECTION
2
BLOCKS
0
BLOCK
5
20
330
1F
100
AcDbEntity
8
0
100
AcDbBlockBegin
2
*Model_Space
70
0
10
0
20
0
30
0
3
*Model_Space
1

0
ENDBLK
5
21
330
1F
100
AcDbEntity
8
0
100
AcDbBlockEnd
0
BLOCK
5
1C
330
1B
100
AcDbEntity
8
0
100
AcDbBlockBegin
2
*Paper_Space
70
0
10
0
20
0
30
0
3
*Paper_Space
1

0
ENDBLK
5
1D
330
1F
100
AcDbEntity
8
0
100
AcDbBlockEnd
0
ENDSEC
0
SECTION
2
ENTITIES
0
LWPOLYLINE
5
47
100
AcDbEntity
8
cut
6
ByLayer
62
256
370
-1
100
AcDbPolyline
90
125
70
1
43
0
10
47.637823388
20
75.922000571
10
49.487153339
20
75.580918732
10
51.302610087
20
75.148023394
10
53.081674464
20
74.625833868
10
54.821827302
20
74.016869465
10
56.520549434
20
73.323649495
10
58.175321691
20
72.548693267
10
59.783624905
20
71.694520092
10
61.342939909
20
70.76364928
10
62.850747534
20
69.758600141
10
64.304528612
20
68.681891986
10
65.701763975
20
67.536044125
10
67.039934456
20
66.323575868
10
68.316520886
20
65.047006525
10
69.529004097
20
63.708855406
10
70.674864921
20
62.311641821
10
71.75158419
20
60.857885081
10
72.756642737
20
59.350104496
10
73.687521393
20
57.790819377
10
74.541700991
20
56.182549032
10
75.316662361
20
54.527812773
10
76.009886337
20
52.829129909
10
76.618853749
20
51.089019752
10
77.141045432
20
49.31000161
10
77.573942215
20
47.494594795
10
77.915024931
20
45.645318616
10
78.161774413
20
43.764692384
10
78.311671492
20
41.855235408
10
78.362197
20
39.919467
10
78.362197
20
39.919467
10
78.311671492
20
37.983603735
10
78.161774413
20
36.074060153
10
77.915024931
20
34.193355213
10
77.573942215
20
32.34400788
10
77.141045432
20
30.528537113
10
76.618853749
20
28.749461875
10
76.009886337
20
27.009301128
10
75.316662361
20
25.310573834
10
74.541700991
20
23.655798954
10
73.687521393
20
22.047495449
10
72.756642737
20
20.488182283
10
71.75158419
20
18.980378416
10
70.674864921
20
17.52660281
10
69.529004097
20
16.129374427
10
68.316520886
20
14.791212229
10
67.039934456
20
13.514635178
10
65.701763975
20
12.302162235
10
64.304528612
20
11.156312362
10
62.850747534
20
10.079604521
10
61.342939909
20
9.074557674
10
59.783624905
20
8.143690782
10
58.175321691
20
7.289522807
10
56.520549434
20
6.514572711
10
54.821827302
20
5.821359456
10
53.081674464
20
5.212402004
10
51.302610087
20
4.690219316
10
49.487153339
20
4.257330353
10
47.637823388
20
3.916254079
10
45.757139403
20
3.669509454
10
43.847620551
20
3.51961544
10
41.911786
20
3.469091
10
39.97598452
20
3.51961544
10
38.066496607
20
3.669509454
10
36.185841498
20
3.916254079
10
34.336538433
20
4.257330353
10
32.521106652
20
4.690219316
10
30.742065392
20
5.212402004
10
29.001933894
20
5.821359456
10
27.303231397
20
6.514572711
10
25.648477138
20
7.289522807
10
24.040190359
20
8.143690782
10
22.480890297
20
9.074557674
10
20.973096192
20
10.079604521
10
19.519327284
20
11.156312362
10
18.12210281
20
12.302162235
10
16.78394201
20
13.514635178
10
15.507364123
20
14.791212229
10
14.294888389
20
16.129374427
10
13.149034046
20
17.52660281
10
12.072320334
20
18.980378416
10
11.067266491
20
20.488182283
10
10.136391758
20
22.047495449
10
9.282215371
20
23.655798954
10
8.507256572
20
25.310573834
10
7.814034599
20
27.009301128
10
7.205068691
20
28.749461875
10
6.682878087
20
30.528537113
10
6.249982027
20
32.34400788
10
5.908899749
20
34.193355213
10
5.662150492
20
36.074060153
10
5.512253496
20
37.983603735
10
5.461728
20
39.919467
10
5.512253496
20
41.855235408
10
5.662150492
20
43.764692384
10
5.908899749
20
45.645318616
10
6.249982027
20
47.494594795
10
6.682878087
20
49.31000161
10
7.205068691
20
51.089019752
10
7.814034599
20
52.829129909
10
8.507256572
20
54.527812773
10
9.282215371
20
56.182549032
10
10.136391758
20
57.790819377
10
11.067266491
20
59.350104496
10
12.072320334
20
60.857885081
10
13.149034046
20
62.311641821
10
14.294888389
20
63.708855406
10
15.507364123
20
65.047006525
10
16.78394201
20
66.323575868
10
18.12210281
20
67.536044125
10
19.519327284
20
68.681891986
10
20.973096192
20
69.758600141
10
22.480890297
20
70.76364928
10
24.040190359
20
71.694520092
10
25.648477138
20
72.548693267
10
27.303231397
20
73.323649495
10
29.001933894
20
74.016869465
10
30.742065392
20
74.625833868
10
32.521106652
20
75.148023394
10
34.336538433
20
75.580918732
10
36.185841498
20
75.922000571
10
38.066496607
20
76.168749603
10
39.97598452
20
76.318646516
10
41.911786
20
76.369172
10
43.847620551
20
76.318646516
10
45.757139403
20
76.168749603
0
LWPOLYLINE
5
48
100
AcDbEntity
8
cut
6
ByLayer
62
256
370
-1
100
AcDbPolyline
90
125
70
1
43
0
10
41.61888584
20
38.538505461
10
41.548605874
20
38.555257516
10
41.479734342
20
38.575465468
10
41.412368796
20
38.599031978
10
41.34660679
20
38.625859708
10
41.282545875
20
38.655851318
10
41.220283605
20
38.688909468
10
41.15991753
20
38.724936821
10
41.101545205
20
38.763836036
10
41.04526418
20
38.805509775
10
40.99117201
20
38.849860698
10
40.939366245
20
38.896791467
10
40.889944439
20
38.946204742
10
40.843004143
20
38.998003184
10
40.798642911
20
39.052089454
10
40.756958295
20
39.108366212
10
40.718047846
20
39.166736121
10
40.682009118
20
39.22710184
10
40.648939664
20
39.28936603
10
40.618937034
20
39.353431352
10
40.592098782
20
39.419200468
10
40.568522461
20
39.486576038
10
40.548305622
20
39.555460723
10
40.531545818
20
39.625757183
10
40.518340601
20
39.69736808
10
40.508787524
20
39.770196075
10
40.50298414
20
39.844143828
10
40.501028
20
39.919114
10
40.50298414
20
39.994052179
10
40.508787524
20
40.067972134
10
40.518340601
20
40.140776312
10
40.531545818
20
40.21236716
10
40.548305622
20
40.282647126
10
40.568522461
20
40.351518658
10
40.592098782
20
40.418884204
10
40.618937034
20
40.48464621
10
40.648939664
20
40.548707125
10
40.682009118
20
40.610969395
10
40.718047846
20
40.67133547
10
40.756958295
20
40.729707795
10
40.798642911
20
40.78598882
10
40.843004143
20
40.84008099
10
40.889944439
20
40.891886755
10
40.939366245
20
40.941308561
10
40.99117201
20
40.988248857
10
41.04526418
20
41.032610089
10
41.101545205
20
41.074294705
10
41.15991753
20
41.113205154
10
41.220283605
20
41.149243882
10
41.282545875
20
41.182313336
10
41.34660679
20
41.212315966
10
41.412368796
20
41.239154218
10
41.479734342
20
41.262730539
10
41.548605874
20
41.282947378
10
41.61888584
20
41.299707182
10
41.690476688
20
41.312912399
10
41.763280866
20
41.322465476
10
41.837200821
20
41.32826886
10
41.912139
20
41.330225
10
41.987077179
20
41.32826886
10
42.060997134
20
41.322465476
10
42.133801312
20
41.312912399
10
42.20539216
20
41.299707182
10
42.275672126
20
41.282947378
10
42.344543658
20
41.262730539
10
42.411909204
20
41.239154218
10
42.47767121
20
41.212315966
10
42.541732125
20
41.182313336
10
42.603994395
20
41.149243882
10
42.66436047
20
41.113205154
10
42.722732795
20
41.074294705
10
42.77901382
20
41.032610089
10
42.83310599
20
40.988248857
10
42.884911755
20
40.941308561
10
42.934333561
20
40.891886755
10
42.981273857
20
40.84008099
10
43.025635089
20
40.78598882
10
43.067319705
20
40.729707795
10
43.106230154
20
40.67133547
10
43.142268882
20
40.610969395
10
43.175338336
20
40.548707125
10
43.205340966
20
40.48464621
10
43.232179218
20
40.418884204
10
43.255755539
20
40.351518658
10
43.275972378
20
40.282647126
10
43.292732182
20
40.21236716
10
43.305937399
20
40.140776312
10
43.315490476
20
40.067972134
10
43.32129386
20
39.994052179
10
43.32325
20
39.919114
10
43.32325
20
39.919114
10
43.32129386
20
39.844143828
10
43.315490476
20
39.770196075
10
43.305937399
20
39.69736808
10
43.292732182
20
39.625757183
10
43.275972378
20
39.555460723
10
43.255755539
20
39.486576038
10
43.232179218
20
39.419200468
10
43.205340966
20
39.353431352
10
43.175338336
20
39.28936603
10
43.142268882
20
39.22710184
10
43.106230154
20
39.166736121
10
43.067319705
20
39.108366212
10
43.025635089
20
39.052089454
10
42.981273857
20
38.998003184
10
42.934333561
20
38.946204742
10
42.884911755
20
38.896791467
10
42.83310599
20
38.849860698
10
42.77901382
20
38.805509775
10
42.722732795
20
38.763836036
10
42.66436047
20
38.724936821
10
42.603994395
20
38.688909468
10
42.541732125
20
38.655851318
10
42.47767121
20
38.625859708
10
42.411909204
20
38.599031978
10
42.344543658
20
38.575465468
10
42.275672126
20
38.555257516
10
42.20539216
20
38.538505461
10
42.133801312
20
38.525306643
10
42.060997134
20
38.515758401
10
41.987077179
20
38.509958073
10
41.912139
20
38.508003
10
41.837200821
20
38.509958073
10
41.763280866
20
38.515758401
10
41.690476688
20
38.525306643
0
LWPOLYLINE
5
49
100
AcDbEntity
8
cut
6
ByLayer
62
256
370
-1
100
AcDbPolyline
90
125
70
1
43
0
10
95.8408335944
20
67.356164611
10
97.2380471789
20
68.502018954
10
98.6918039187
20
69.578732666
10
100.199584504
20
70.583786509
10
101.758869623
20
71.514661242
10
103.367139968
20
72.368837629
10
105.021876227
20
73.143796428
10
106.720559091
20
73.837018401
10
108.460669248
20
74.445984309
10
110.23968739
20
74.968174913
10
112.055094205
20
75.401070973
10
113.904370384
20
75.742153251
10
115.784996616
20
75.988902508
10
117.694453592
20
76.138799504
10
119.630222
20
76.189325
10
121.566089622
20
76.138799504
10
123.475639412
20
75.988902508
10
125.356352274
20
75.742153251
10
127.205709111
20
75.401070973
10
129.021190825
20
74.968174913
10
130.80027832
20
74.445984309
10
132.540452499
20
73.837018401
10
134.239194265
20
73.143796428
10
135.893984521
20
72.368837629
10
137.50230417
20
71.514661242
10
139.061634115
20
70.583786509
10
140.56945526
20
69.578732666
10
142.023248507
20
68.502018954
10
143.42049476
20
67.356164611
10
144.758674921
20
66.143688877
10
146.035269894
20
64.86711099
10
147.247760582
20
63.52895019
10
148.393627888
20
62.131725716
10
149.470352715
20
60.677956808
10
150.475415966
20
59.170162703
10
151.406298544
20
57.610862641
10
152.260481352
20
56.002575862
10
153.035445294
20
54.347821603
10
153.728671272
20
52.649119106
10
154.33764019
20
50.908987608
10
154.85983295
20
49.129946348
10
155.292730457
20
47.314514567
10
155.633813611
20
45.465211502
10
155.880563318
20
43.584556393
10
156.03046048
20
41.67506848
10
156.080986
20
39.739267
10
156.080986
20
39.739267
10
156.03046048
20
37.803432449
10
155.880563318
20
35.893913597
10
155.633813611
20
34.013229612
10
155.292730457
20
32.163899661
10
154.85983295
20
30.348442913
10
154.33764019
20
28.569378536
10
153.728671272
20
26.829225698
10
153.035445294
20
25.130503566
10
152.260481352
20
23.475731309
10
151.406298544
20
21.867428095
10
150.475415966
20
20.308113091
10
149.470352715
20
18.800305466
10
148.393627888
20
17.346524388
10
147.247760582
20
15.949289025
10
146.035269894
20
14.611118544
10
144.758674921
20
13.334532114
10
143.42049476
20
12.122048903
10
142.023248507
20
10.976188079
10
140.56945526
20
9.89946881
10
139.061634115
20
8.894410263
10
137.50230417
20
7.963531607
10
135.893984521
20
7.109352009
10
134.239194265
20
6.334390639
10
132.540452499
20
5.641166663
10
130.80027832
20
5.032199251
10
129.021190825
20
4.510007568
10
127.205709111
20
4.077110785
10
125.356352274
20
3.736028069
10
123.475639412
20
3.489278587
10
121.566089622
20
3.339381508
10
119.630222
20
3.288856
10
117.694453592
20
3.339381508
10
115.784996616
20
3.489278587
10
113.904370384
20
3.736028069
10
112.055094205
20
4.077110785
10
110.23968739
20
4.510007568
10
108.460669248
20
5.032199251
10
106.720559091
20
5.641166663
10
105.021876227
20
6.334390639
10
103.367139968
20
7.109352009
10
101.758869623
20
7.963531607
10
100.199584504
20
8.894410263
10
98.6918039187
20
9.89946881
10
97.2380471789
20
10.976188079
10
95.8408335944
20
12.122048903
10
94.5026824755
20
13.334532114
10
93.2261131322
20
14.611118544
10
92.0136448749
20
15.949289025
10
90.8677970136
20
17.346524388
10
89.7910888586
20
18.800305466
10
88.7860397201
20
20.308113091
10
87.8551689083
20
21.867428095
10
87.0009957333
20
23.475731309
10
86.2260395055
20
25.130503566
10
85.5328195348
20
26.829225698
10
84.9238551317
20
28.569378536
10
84.4016656061
20
30.348442913
10
83.9687702684
20
32.163899661
10
83.6276884288
20
34.013229612
10
83.3809393974
20
35.893913597
10
83.2310424844
20
37.803432449
10
83.180517
20
39.739267
10
83.2310424844
20
41.67506848
10
83.3809393974
20
43.584556393
10
83.6276884288
20
45.465211502
10
83.9687702684
20
47.314514567
10
84.4016656061
20
49.129946348
10
84.9238551317
20
50.908987608
10
85.5328195348
20
52.649119106
10
86.2260395055
20
54.347821603
10
87.0009957333
20
56.002575862
10
87.8551689083
20
57.610862641
10
88.7860397201
20
59.170162703
10
89.7910888586
20
60.677956808
10
90.8677970136
20
62.131725716
10
92.0136448749
20
63.52895019
10
93.2261131322
20
64.86711099
10
94.5026824755
20
66.143688877
0
LWPOLYLINE
5
4A
100
AcDbEntity
8
cut
6
ByLayer
62
256
370
-1
100
AcDbPolyline
90
125
70
1
43
0
10
120.38279647
20
38.544736821
10
120.322430395
20
38.508709468
10
120.260168125
20
38.475651318
10
120.19610721
20
38.445659708
10
120.130345204
20
38.418831978
10
120.062979658
20
38.395265468
10
119.994108126
20
38.375057516
10
119.92382816
20
38.358305461
10
119.852237312
20
38.345106643
10
119.779433134
20
38.335558401
10
119.705513179
20
38.329758073
10
119.630575
20
38.327803
10
119.555636821
20
38.329758073
10
119.481716866
20
38.335558401
10
119.408912688
20
38.345106643
10
119.33732184
20
38.358305461
10
119.267041874
20
38.375057516
10
119.198170342
20
38.395265468
10
119.130804796
20
38.418831978
10
119.06504279
20
38.445659708
10
119.000981875
20
38.475651318
10
118.938719605
20
38.508709468
10
118.87835353
20
38.544736821
10
118.819981205
20
38.583636036
10
118.76370018
20
38.625309775
10
118.70960801
20
38.669660698
10
118.657802245
20
38.716591467
10
118.608380439
20
38.766004742
10
118.561440143
20
38.817803184
10
118.517078911
20
38.871889454
10
118.475394295
20
38.928166212
10
118.436483846
20
38.986536121
10
118.400445118
20
39.04690184
10
118.367375664
20
39.10916603
10
118.337373034
20
39.173231352
10
118.310534782
20
39.239000468
10
118.286958461
20
39.306376038
10
118.266741622
20
39.375260723
10
118.249981818
20
39.445557183
10
118.236776601
20
39.51716808
10
118.227223524
20
39.589996075
10
118.22142014
20
39.663943828
10
118.219464
20
39.738914
10
118.22142014
20
39.813852179
10
118.227223524
20
39.887772134
10
118.236776601
20
39.960576312
10
118.249981818
20
40.03216716
10
118.266741622
20
40.102447126
10
118.286958461
20
40.171318658
10
118.310534782
20
40.238684204
10
118.337373034
20
40.30444621
10
118.367375664
20
40.368507125
10
118.400445118
20
40.430769395
10
118.436483846
20
40.49113547
10
118.475394295
20
40.549507795
10
118.517078911
20
40.60578882
10
118.561440143
20
40.65988099
10
118.608380439
20
40.711686755
10
118.657802245
20
40.761108561
10
118.70960801
20
40.808048857
10
118.76370018
20
40.852410089
10
118.819981205
20
40.894094705
10
118.87835353
20
40.933005154
10
118.938719605
20
40.969043882
10
119.000981875
20
41.002113336
10
119.06504279
20
41.032115966
10
119.130804796
20
41.058954218
10
119.198170342
20
41.082530539
10
119.267041874
20
41.102747378
10
119.33732184
20
41.119507182
10
119.408912688
20
41.132712399
10
119.481716866
20
41.142265476
10
119.555636821
20
41.14806886
10
119.630575
20
41.150025
10
119.705513179
20
41.14806886
10
119.779433134
20
41.142265476
10
119.852237312
20
41.132712399
10
119.92382816
20
41.119507182
10
119.994108126
20
41.102747378
10
120.062979658
20
41.082530539
10
120.130345204
20
41.058954218
10
120.19610721
20
41.032115966
10
120.260168125
20
41.002113336
10
120.322430395
20
40.969043882
10
120.38279647
20
40.933005154
10
120.441168795
20
40.894094705
10
120.49744982
20
40.852410089
10
120.55154199
20
40.808048857
10
120.603347755
20
40.761108561
10
120.652769561
20
40.711686755
10
120.699709857
20
40.65988099
10
120.744071089
20
40.60578882
10
120.785755705
20
40.549507795
10
120.824666154
20
40.49113547
10
120.860704882
20
40.430769395
10
120.893774336
20
40.368507125
10
120.923776966
20
40.30444621
10
120.950615218
20
40.238684204
10
120.974191539
20
40.171318658
10
120.994408378
20
40.102447126
10
121.011168182
20
40.03216716
10
121.024373399
20
39.960576312
10
121.033926476
20
39.887772134
10
121.03972986
20
39.813852179
10
121.041686
20
39.738914
10
121.041686
20
39.738914
10
121.03972986
20
39.663943828
10
121.033926476
20
39.589996075
10
121.024373399
20
39.51716808
10
121.011168182
20
39.445557183
10
120.994408378
20
39.375260723
10
120.974191539
20
39.306376038
10
120.950615218
20
39.239000468
10
120.923776966
20
39.173231352
10
120.893774336
20
39.10916603
10
120.860704882
20
39.04690184
10
120.824666154
20
38.986536121
10
120.785755705
20
38.928166212
10
120.744071089
20
38.871889454
10
120.699709857
20
38.817803184
10
120.652769561
20
38.766004742
10
120.603347755
20
38.716591467
10
120.55154199
20
38.669660698
10
120.49744982
20
38.625309775
10
120.441168795
20
38.583636036
0
ENDSEC
0
SECTION
2
OBJECTS
0
DICTIONARY
5
C
330
0
100
AcDbDictionary
281
1
3
ACAD_GROUP
350
D
0
DICTIONARY
5
D
330
C
100
AcDbDictionary
281
1
0
ENDSEC
0
EOF
