999
dxfrw 0.5.10
0
SECTION
2
HEADER
9
$ACADVER
1
AC1021
9
$HANDSEED
5
20000
9
$DWGCODEPAGE
3
ANSI_1252
9
$INSBASE
10
0
20
0
30
0
9
$EXTMIN
10
0.001654
20
5.645594
30
0
9
$EXTMAX
10
208.059514
20
203.027936
30
0
9
$LIMMIN
10
0
20
0
9
$LIMMAX
10
420
20
297
9
$ORTHOMODE
70
0
9
$LTSCALE
40
1
9
$TEXTSTYLE
7
STANDARD
9
$CLAYER
8
0
9
$DIMASZ
40
2.5
9
$DIMLFAC
40
1
9
$DIMSCALE
40
1
9
$DIMEXO
40
0.625
9
$DIMEXE
40
1.25
9
$DIMTXT
40
2.5
9
$DIMTSZ
40
0
9
$DIMAUNIT
70
0
9
$DIMADEC
70
0
9
$DIMLUNIT
70
2
9
$DIMSTYLE
2
Standard
9
$DIMGAP
40
0.625
9
$DIMTIH
70
0
9
$LUNITS
70
2
9
$LUPREC
70
4
9
$AUNITS
70
0
9
$AUPREC
70
2
9
$SPLINESEGS
70
8
9
$GRIDMODE
70
0
9
$SNAPSTYLE
70
0
9
$PINSBASE
10
0
20
0
30
0
9
$PLIMMIN
10
0
20
0
9
$PLIMMAX
10
21
20
29.7
9
$INSUNITS
70
4
9
$PSVPSCALE
40
1
0
ENDSEC
0
SECTION
2
CLASSES
0
ENDSEC
0
SECTION
2
TABLES
0
TABLE
2
VPORT
5
8
330
0
100
AcDbSymbolTable
70
1
0
VPORT
5
31
330
2
100
AcDbSymbolTableRecord
100
AcDbViewportTableRecord
2
*ACTIVE
70
0
10
0
20
0
11
1
21
1
12
168.569251836
22
129.489914005
13
0
23
0
14
10
24
10
15
10
25
10
16
0
26
0
36
1
17
0
27
0
37
0
40
316.859495933
41
1.65333333333
42
50
43
0
44
0
50
0
51
0
71
0
72
100
73
1
74
3
75
0
76
0
77
0
78
0
281
0
65
1
110
0
120
0
130
0
111
1
121
0
131
0
112
0
122
1
132
0
79
0
146
0
348
10020
60
7
61
5
292
1
282
1
141
0
142
0
63
250
421
3358443
0
ENDTAB
0
TABLE
2
LTYPE
5
5
330
0
100
AcDbSymbolTable
70
4
0
LTYPE
5
14
330
5
100
AcDbSymbolTableRecord
100
AcDbLinetypeTableRecord
2
ByBlock
70
0
3

72
65
73
0
40
0
0
LTYPE
5
15
330
5
100
AcDbSymbolTableRecord
100
AcDbLinetypeTableRecord
2
ByLayer
70
0
3

72
65
73
0
40
0
0
LTYPE
5
16
330
5
100
AcDbSymbolTableRecord
100
AcDbLinetypeTableRecord
2
Continuous
70
0
3
Solid line
72
65
73
0
40
0
0
LTYPE
5
32
330
5
100
AcDbSymbolTableRecord
100
AcDbLinetypeTableRecord
2
DOT
70
0
3
Dot . . . . . . . . . . . . . . . . . . . . . .
72
65
73
2
40
6.35
49
0
74
0
49
-6.35
74
0
0
LTYPE
5
33
330
5
100
AcDbSymbolTableRecord
100
AcDbLinetypeTableRecord
2
DOT2
70
0
3
Dot (.5x) .....................................
72
65
73
2
40
3.175
49
0
74
0
49
-3.175
74
0
0
LTYPE
5
34
330
5
100
AcDbSymbolTableRecord
100
AcDbLinetypeTableRecord
2
DOTX2
70
0
3
Dot (2x) .  .  .  .  .  .  .  .  .  .  .  .  .
72
65
73
2
40
12.7
49
0
74
0
49
-12.7
74
0
0
LTYPE
5
35
330
5
100
AcDbSymbolTableRecord
100
AcDbLinetypeTableRecord
2
DASHED
70
0
3
Dot . . . . . . . . . . . . . . . . . . . . . .
72
65
73
2
40
19.05
49
12.7
74
0
49
-6.35
74
0
0
LTYPE
5
36
330
5
100
AcDbSymbolTableRecord
100
AcDbLinetypeTableRecord
2
DASHED2
70
0
3
Dashed (.5x) _ _ _ _ _ _ _ _ _ _ _ _ _ _ _ _ _
72
65
73
2
40
9.525
49
6.35
74
0
49
-3.175
74
0
0
LTYPE
5
37
330
5
100
AcDbSymbolTableRecord
100
AcDbLinetypeTableRecord
2
DASHEDX2
70
0
3
Dashed (2x) ____  ____  ____  ____  ____  ___
72
65
73
2
40
38.1
49
25.4
74
0
49
-12.7
74
0
0
LTYPE
5
38
330
5
100
AcDbSymbolTableRecord
100
AcDbLinetypeTableRecord
2
DASHDOT
70
0
3
Dash dot __ . __ . __ . __ . __ . __ . __ . __
72
65
73
4
40
25.4
49
12.7
74
0
49
-6.35
74
0
49
0
74
0
49
-6.35
74
0
0
LTYPE
5
39
330
5
100
AcDbSymbolTableRecord
100
AcDbLinetypeTableRecord
2
DASHDOT2
70
0
3
Dash dot (.5x) _._._._._._._._._._._._._._._.
72
65
73
4
40
12.7
49
6.35
74
0
49
-3.175
74
0
49
0
74
0
49
-3.175
74
0
0
LTYPE
5
3A
330
5
100
AcDbSymbolTableRecord
100
AcDbLinetypeTableRecord
2
DASHDOTX2
70
0
3
Dash dot (2x) ____  .  ____  .  ____  .  ___
72
65
73
4
40
50.8
49
25.4
74
0
49
-12.7
74
0
49
0
74
0
49
-12.7
74
0
0
LTYPE
5
3B
330
5
100
AcDbSymbolTableRecord
100
AcDbLinetypeTableRecord
2
DIVIDE
70
0
3
Divide ____ . . ____ . . ____ . . ____ . . ____
72
65
73
6
40
31.75
49
12.7
74
0
49
-6.35
74
0
49
0
74
0
49
-6.35
74
0
49
0
74
0
49
-6.35
74
0
0
LTYPE
5
3C
330
5
100
AcDbSymbolTableRecord
100
AcDbLinetypeTableRecord
2
DIVIDE2
70
0
3
Divide (.5x) __..__..__..__..__..__..__..__.._
72
65
73
6
40
15.875
49
6.35
74
0
49
-3.175
74
0
49
0
74
0
49
-3.175
74
0
49
0
74
0
49
-3.175
74
0
0
LTYPE
5
3D
330
5
100
AcDbSymbolTableRecord
100
AcDbLinetypeTableRecord
2
DIVIDEX2
70
0
3
Divide (2x) ________  .  .  ________  .  .  _
72
65
73
6
40
63.5
49
25.4
74
0
49
-12.7
74
0
49
0
74
0
49
-12.7
74
0
49
0
74
0
49
-12.7
74
0
0
LTYPE
5
3E
330
5
100
AcDbSymbolTableRecord
100
AcDbLinetypeTableRecord
2
BORDER
70
0
3
Border __ __ . __ __ . __ __ . __ __ . __ __ .
72
65
73
6
40
44.45
49
12.7
74
0
49
-6.35
74
0
49
12.7
74
0
49
-6.35
74
0
49
0
74
0
49
-6.35
74
0
0
LTYPE
5
3F
330
5
100
AcDbSymbolTableRecord
100
AcDbLinetypeTableRecord
2
BORDER2
70
0
3
Border (.5x) __.__.__.__.__.__.__.__.__.__.__.
72
65
73
6
40
22.225
49
6.35
74
0
49
-3.175
74
0
49
6.35
74
0
49
-3.175
74
0
49
0
74
0
49
-3.175
74
0
0
LTYPE
5
40
330
5
100
AcDbSymbolTableRecord
100
AcDbLinetypeTableRecord
2
BORDERX2
70
0
3
Border (2x) ____  ____  .  ____  ____  .  ___
72
65
73
6
40
88.9
49
25.4
74
0
49
-12.7
74
0
49
25.4
74
0
49
-12.7
74
0
49
0
74
0
49
-12.7
74
0
0
LTYPE
5
41
330
5
100
AcDbSymbolTableRecord
100
AcDbLinetypeTableRecord
2
CENTER
70
0
3
Center ____ _ ____ _ ____ _ ____ _ ____ _ ____
72
65
73
4
40
50.8
49
31.75
74
0
49
-6.35
74
0
49
6.35
74
0
49
-6.35
74
0
0
LTYPE
5
42
330
5
100
AcDbSymbolTableRecord
100
AcDbLinetypeTableRecord
2
CENTER2
70
0
3
Center (.5x) ___ _ ___ _ ___ _ ___ _ ___ _ ___
72
65
73
4
40
28.575
49
19.05
74
0
49
-3.175
74
0
49
3.175
74
0
49
-3.175
74
0
0
LTYPE
5
43
330
5
100
AcDbSymbolTableRecord
100
AcDbLinetypeTableRecord
2
CENTERX2
70
0
3
Center (2x) ________  __  ________  __  _____
72
65
73
4
40
101.6
49
63.5
74
0
49
-12.7
74
0
49
12.7
74
0
49
-12.7
74
0
0
ENDTAB
0
TABLE
2
LAYER
5
2
330
0
100
AcDbSymbolTable
70
1
0
LAYER
5
10
330
2
100
AcDbSymbolTableRecord
100
AcDbLayerTableRecord
2
0
70
0
62
7
6
CONTINUOUS
370
-3
390
F
0
LAYER
5
44
330
2
100
AcDbSymbolTableRecord
100
AcDbLayerTableRecord
2
cut
70
0
62
1
6
CONTINUOUS
370
0
390
F
0
ENDTAB
0
TABLE
2
STYLE
5
3
330
0
100
AcDbSymbolTable
70
3
0
STYLE
5
45
330
2
100
AcDbSymbolTableRecord
100
AcDbTextStyleTableRecord
2
Standard
70
0
40
0
41
1
50
0
71
0
42
1
3
txt
4

0
ENDTAB
0
TABLE
2
VIEW
5
6
330
0
100
AcDbSymbolTable
70
0
0
ENDTAB
0
TABLE
2
UCS
5
7
330
0
100
AcDbSymbolTable
70
0
0
ENDTAB
0
TABLE
2
APPID
5
9
330
0
100
AcDbSymbolTable
70
1
0
APPID
5
12
330
9
100
AcDbSymbolTableRecord
100
AcDbRegAppTableRecord
2
ACAD
70
0
0
ENDTAB
0
TABLE
2
DIMSTYLE
5
A
330
0
100
AcDbSymbolTable
70
1
100
AcDbDimStyleTable
71
1
0
DIMSTYLE
105
46
330
A
100
AcDbSymbolTableRecord
100
AcDbDimStyleTableRecord
2
Standard
70
0
40
1
41
2.5
42
0.625
43
0.38
44
1.25
45
0
46
0
47
0
48
0
140
2.5
141
0.09
142
0
143
25.4
144
1
145
0
146
1
147
0.625
148
0
71
0
72
0
73
0
74
1
75
0
76
0
77
0
78
0
79
0
170
0
171
2
172
0
173
0
174
0
175
0
176
0
177
0
178
0
179
0
271
4
272
4
273
2
274
2
275
0
276
0
277
2
278
46
279
0
280
0
281
0
282
0
283
1
284
0
285
0
286
0
288
0
289
3
340
Standard
341

371
-2
372
-2
0
ENDTAB
0
TABLE
2
BLOCK_RECORD
5
1
330
0
100
AcDbSymbolTable
70
2
0
BLOCK_RECORD
5
1F
330
1
100
AcDbSymbolTableRecord
100
AcDbBlockTableRecord
2
*Model_Space
70
0
280
1
281
0
0
BLOCK_RECORD
5
1E
330
1
100
AcDbSymbolTableRecord
100
AcDbBlockTableRecord
2
*Paper_Space
70
0
280
1
281
0
0
ENDTAB
0
ENDSEC
0
SECTION
2
BLOCKS
0
BLOCK
5
20
330
1F
100
AcDbEntity
8
0
100
AcDbBlockBegin
2
*Model_Space
70
0
10
0
20
0
30
0
3
*Model_Space
1

0
ENDBLK
5
21
330
1F
100
AcDbEntity
8
0
100
AcDbBlockEnd
0
BLOCK
5
1C
330
1B
100
AcDbEntity
8
0
100
AcDbBlockBegin
2
*Paper_Space
70
0
10
0
20
0
30
0
3
*Paper_Space
1

0
ENDBLK
5
1D
330
1F
100
AcDbEntity
8
0
100
AcDbBlockEnd
0
ENDSEC
0
SECTION
2
ENTITIES
0
LINE
5
47
100
AcDbEntity
8
cut
6
ByLayer
62
256
370
-1
100
AcDbLine
10
0.001654
20
92.710797
11
0.001654
21
104.710533
0
LINE
5
48
100
AcDbEntity
8
cut
6
ByLayer
62
256
370
-1
100
AcDbLine
10
0.001654
20
104.710533
11
6.001773
21
104.710533
0
LINE
5
49
100
AcDbEntity
8
cut
6
ByLayer
62
256
370
-1
100
AcDbLine
10
73.057103
20
104.710533
11
79.057147
21
104.710533
0
LINE
5
4A
100
AcDbEntity
8
cut
6
ByLayer
62
256
370
-1
100
AcDbLine
10
79.057147
20
104.710533
11
79.057147
21
92.710797
0
LINE
5
4B
100
AcDbEntity
8
cut
6
ByLayer
62
256
370
-1
100
AcDbLine
10
79.057147
20
92.710797
11
73.057103
21
92.710797
0
LINE
5
4C
100
AcDbEntity
8
cut
6
ByLayer
62
256
370
-1
100
AcDbLine
10
73.057103
20
92.710797
11
73.057103
21
43.332844
0
LINE
5
4D
100
AcDbEntity
8
cut
6
ByLayer
62
256
370
-1
100
AcDbLine
10
73.057103
20
43.332844
11
79.057147
21
43.332844
0
LINE
5
4E
100
AcDbEntity
8
cut
6
ByLayer
62
256
370
-1
100
AcDbLine
10
79.057147
20
43.332844
11
79.057147
21
31.332756
0
LINE
5
4F
100
AcDbEntity
8
cut
6
ByLayer
62
256
370
-1
100
AcDbLine
10
79.057147
20
31.332756
11
73.057103
21
31.332756
0
LINE
5
50
100
AcDbEntity
8
cut
6
ByLayer
62
256
370
-1
100
AcDbLine
10
6.001773
20
31.332756
11
0.001654
21
31.332756
0
LINE
5
51
100
AcDbEntity
8
cut
6
ByLayer
62
256
370
-1
100
AcDbLine
10
0.001654
20
31.332756
11
0.001654
21
43.332844
0
LINE
5
52
100
AcDbEntity
8
cut
6
ByLayer
62
256
370
-1
100
AcDbLine
10
0.001654
20
43.332844
11
6.001773
21
43.332844
0
LINE
5
53
100
AcDbEntity
8
cut
6
ByLayer
62
256
370
-1
100
AcDbLine
10
6.001773
20
43.332844
11
6.001773
21
92.710797
0
LINE
5
54
100
AcDbEntity
8
cut
6
ByLayer
62
256
370
-1
100
AcDbLine
10
6.001773
20
92.710797
11
0.001654
21
92.710797
0
LINE
5
55
100
AcDbEntity
8
cut
6
ByLayer
62
256
370
-1
100
AcDbLine
10
0.001654
20
92.710797
11
0.001654
21
92.710797
0
LINE
5
56
100
AcDbEntity
8
cut
6
ByLayer
62
256
370
-1
100
AcDbLine
10
50.029533
20
18.864178
11
50.029533
21
18.864178
0
LINE
5
57
100
AcDbEntity
8
cut
6
ByLayer
62
256
370
-1
100
AcDbLine
10
27.029516
20
18.864178
11
27.029516
21
18.864178
0
LINE
5
58
100
AcDbEntity
8
cut
6
ByLayer
62
256
370
-1
100
AcDbLine
10
0.442076
20
183.972292
11
0.442076
21
195.972381
0
LINE
5
59
100
AcDbEntity
8
cut
6
ByLayer
62
256
370
-1
100
AcDbLine
10
0.442076
20
195.972381
11
6.441899
21
195.972381
0
LINE
5
5A
100
AcDbEntity
8
cut
6
ByLayer
62
256
370
-1
100
AcDbLine
10
73.497369
20
195.972381
11
79.497414
21
195.972381
0
LINE
5
5B
100
AcDbEntity
8
cut
6
ByLayer
62
256
370
-1
100
AcDbLine
10
79.497414
20
195.972381
11
79.497414
21
183.972292
0
LINE
5
5C
100
AcDbEntity
8
cut
6
ByLayer
62
256
370
-1
100
AcDbLine
10
79.497414
20
183.972292
11
73.497369
21
183.972292
0
LINE
5
5D
100
AcDbEntity
8
cut
6
ByLayer
62
256
370
-1
100
AcDbLine
10
73.497369
20
183.972292
11
73.497369
21
134.594339
0
LINE
5
5E
100
AcDbEntity
8
cut
6
ByLayer
62
256
370
-1
100
AcDbLine
10
73.497369
20
134.594339
11
79.497414
21
134.594339
0
LINE
5
5F
100
AcDbEntity
8
cut
6
ByLayer
62
256
370
-1
100
AcDbLine
10
79.497414
20
134.594339
11
79.497414
21
122.594603
0
LINE
5
60
100
AcDbEntity
8
cut
6
ByLayer
62
256
370
-1
100
AcDbLine
10
79.497414
20
122.594603
11
73.497369
21
122.594603
0
LINE
5
61
100
AcDbEntity
8
cut
6
ByLayer
62
256
370
-1
100
AcDbLine
10
6.441899
20
122.594603
11
0.442076
21
122.594603
0
LINE
5
62
100
AcDbEntity
8
cut
6
ByLayer
62
256
370
-1
100
AcDbLine
10
0.442076
20
122.594603
11
0.442076
21
134.594339
0
LINE
5
63
100
AcDbEntity
8
cut
6
ByLayer
62
256
370
-1
100
AcDbLine
10
0.442076
20
134.594339
11
6.441899
21
134.594339
0
LINE
5
64
100
AcDbEntity
8
cut
6
ByLayer
62
256
370
-1
100
AcDbLine
10
6.441899
20
134.594339
11
6.441899
21
183.972292
0
LINE
5
65
100
AcDbEntity
8
cut
6
ByLayer
62
256
370
-1
100
AcDbLine
10
6.441899
20
183.972292
11
0.442076
21
183.972292
0
LINE
5
66
100
AcDbEntity
8
cut
6
ByLayer
62
256
370
-1
100
AcDbLine
10
0.442076
20
183.972292
11
0.442076
21
183.972292
0
LINE
5
67
100
AcDbEntity
8
cut
6
ByLayer
62
256
370
-1
100
AcDbLine
10
62.926736
20
130.039625
11
62.926736
21
130.039625
0
LINE
5
68
100
AcDbEntity
8
cut
6
ByLayer
62
256
370
-1
100
AcDbLine
10
47.545272
20
182.095161
11
47.545272
21
182.095161
0
LINE
5
69
100
AcDbEntity
8
cut
6
ByLayer
62
256
370
-1
100
AcDbLine
10
14.351564
20
128.981292
11
14.351564
21
128.981292
0
ARC
5
6A
100
AcDbEntity
8
cut
6
ByLayer
62
256
370
-1
100
AcDbCircle
10
141.938272
20
89.667133
40
2
100
AcDbArc
50
270
51
0
0
LINE
5
6B
100
AcDbEntity
8
cut
6
ByLayer
62
256
370
-1
100
AcDbLine
10
143.938272
20
89.667133
11
143.938272
21
171.927336354
0
ARC
5
6C
100
AcDbEntity
8
cut
6
ByLayer
62
256
370
-1
100
AcDbCircle
10
138.938272
20
171.927336354
40
5
100
AcDbArc
50
0
51
65.5494721398
0
LINE
5
6D
100
AcDbEntity
8
cut
6
ByLayer
62
256
370
-1
100
AcDbLine
10
141.007808903
20
176.47893135
11
109.412617
21
190.844756
0
LINE
5
6E
100
AcDbEntity
8
cut
6
ByLayer
62
256
370
-1
100
AcDbLine
10
109.412617
20
190.844756
11
111.934625
21
196.205214
0
LINE
5
6F
100
AcDbEntity
8
cut
6
ByLayer
62
256
370
-1
100
AcDbLine
10
111.934625
20
196.205214
11
101.075772
21
201.312731
0
LINE
5
70
100
AcDbEntity
8
cut
6
ByLayer
62
256
370
-1
100
AcDbLine
10
101.075772
20
201.312731
11
98.550942
21
195.945922
0
LINE
5
71
100
AcDbEntity
8
cut
6
ByLayer
62
256
370
-1
100
AcDbLine
10
98.550942
20
195.945922
11
84.8672336094
21
202.373189101
0
ARC
5
72
100
AcDbEntity
8
cut
6
ByLayer
62
256
370
-1
100
AcDbCircle
10
84.016953
20
200.562934178
40
2
100
AcDbArc
50
64.8404554355
51
180
0
LINE
5
73
100
AcDbEntity
8
cut
6
ByLayer
62
256
370
-1
100
AcDbLine
10
208.059514
20
87.667133
11
148.138547
21
87.667133
0
ARC
5
74
100
AcDbEntity
8
cut
6
ByLayer
62
256
370
-1
100
AcDbCircle
10
148.138547
20
89.667133
40
2
100
AcDbArc
50
180
51
270
0
LINE
5
75
100
AcDbEntity
8
cut
6
ByLayer
62
256
370
-1
100
AcDbLine
10
146.138547
20
89.667133
11
146.138547
21
171.927349939
0
ARC
5
76
100
AcDbEntity
8
cut
6
ByLayer
62
256
370
-1
100
AcDbCircle
10
151.138547
20
171.927349939
40
5
100
AcDbArc
50
114.450747962
51
180
0
LINE
5
77
100
AcDbEntity
8
cut
6
ByLayer
62
256
370
-1
100
AcDbLine
10
149.068992612
20
176.478936985
11
180.66385
21
190.844756
0
LINE
5
78
100
AcDbEntity
8
cut
6
ByLayer
62
256
370
-1
100
AcDbLine
10
180.66385
20
190.844756
11
178.142194
21
196.205214
0
LINE
5
79
100
AcDbEntity
8
cut
6
ByLayer
62
256
370
-1
100
AcDbLine
10
178.142194
20
196.205214
11
189.001047
21
201.312731
0
LINE
5
7A
100
AcDbEntity
8
cut
6
ByLayer
62
256
370
-1
100
AcDbLine
10
189.001047
20
201.312731
11
191.525525
21
195.945922
0
LINE
5
7B
100
AcDbEntity
8
cut
6
ByLayer
62
256
370
-1
100
AcDbLine
10
191.525525
20
195.945922
11
205.209233391
21
202.373189101
0
ARC
5
7C
100
AcDbEntity
8
cut
6
ByLayer
62
256
370
-1
100
AcDbCircle
10
206.059514
20
200.562934178
40
2
100
AcDbArc
50
0
51
115.159544564
0
LINE
5
7D
100
AcDbEntity
8
cut
6
ByLayer
62
256
370
-1
100
AcDbLine
10
208.059514
20
200.562934178
11
208.059514
21
87.667133
0
LINE
5
7E
100
AcDbEntity
8
cut
6
ByLayer
62
256
370
-1
100
AcDbLine
10
208.059514
20
87.667133
11
208.059514
21
87.667133
0
LINE
5
7F
100
AcDbEntity
8
cut
6
ByLayer
62
256
370
-1
100
AcDbLine
10
82.016953
20
200.562934178
11
82.016953
21
89.667133
0
LINE
5
80
100
AcDbEntity
8
cut
6
ByLayer
62
256
370
-1
100
AcDbLine
10
84.016953
20
87.667133
11
141.938272
21
87.667133
0
ARC
5
81
100
AcDbEntity
8
cut
6
ByLayer
62
256
370
-1
100
AcDbCircle
10
84.016953
20
89.667133
40
2
100
AcDbArc
50
180
51
270
0
LINE
5
82
100
AcDbEntity
8
cut
6
ByLayer
62
256
370
-1
100
AcDbLine
10
6.441899
20
195.972381
11
6.441899
21
201.027936
0
ARC
5
83
100
AcDbEntity
8
cut
6
ByLayer
62
256
370
-1
100
AcDbCircle
10
8.441899
20
201.027936
40
2
100
AcDbArc
50
90
51
180
0
LINE
5
84
100
AcDbEntity
8
cut
6
ByLayer
62
256
370
-1
100
AcDbLine
10
8.441899
20
203.027936
11
71.497369
21
203.027936
0
LINE
5
85
100
AcDbEntity
8
cut
6
ByLayer
62
256
370
-1
100
AcDbLine
10
73.497369
20
201.027936
11
73.497369
21
195.972381
0
ARC
5
86
100
AcDbEntity
8
cut
6
ByLayer
62
256
370
-1
100
AcDbCircle
10
71.497369
20
201.027936
40
2
100
AcDbArc
50
0
51
90
0
LINE
5
87
100
AcDbEntity
8
cut
6
ByLayer
62
256
370
-1
100
AcDbLine
10
73.497369
20
122.594603
11
73.497369
21
117.539047
0
ARC
5
88
100
AcDbEntity
8
cut
6
ByLayer
62
256
370
-1
100
AcDbCircle
10
71.497369
20
117.539047
40
2
100
AcDbArc
50
270
51
0
0
LINE
5
89
100
AcDbEntity
8
cut
6
ByLayer
62
256
370
-1
100
AcDbLine
10
71.497369
20
115.539047
11
8.441899
21
115.539047
0
LINE
5
8A
100
AcDbEntity
8
cut
6
ByLayer
62
256
370
-1
100
AcDbLine
10
6.441899
20
117.539047
11
6.441899
21
122.594603
0
ARC
5
8B
100
AcDbEntity
8
cut
6
ByLayer
62
256
370
-1
100
AcDbCircle
10
8.441899
20
117.539047
40
2
100
AcDbArc
50
180
51
270
0
LINE
5
8C
100
AcDbEntity
8
cut
6
ByLayer
62
256
370
-1
100
AcDbLine
10
6.001773
20
104.710533
11
6.001773
21
109.766089
0
ARC
5
8D
100
AcDbEntity
8
cut
6
ByLayer
62
256
370
-1
100
AcDbCircle
10
8.001773
20
109.766089
40
2
100
AcDbArc
50
90
51
180
0
LINE
5
8E
100
AcDbEntity
8
cut
6
ByLayer
62
256
370
-1
100
AcDbLine
10
8.001773
20
111.766089
11
71.057103
21
111.766089
0
LINE
5
8F
100
AcDbEntity
8
cut
6
ByLayer
62
256
370
-1
100
AcDbLine
10
73.057103
20
109.766089
11
73.057103
21
104.710533
0
ARC
5
90
100
AcDbEntity
8
cut
6
ByLayer
62
256
370
-1
100
AcDbCircle
10
71.057103
20
109.766089
40
2
100
AcDbArc
50
0
51
90
0
LINE
5
91
100
AcDbEntity
8
cut
6
ByLayer
62
256
370
-1
100
AcDbLine
10
6.001773
20
7.645594
11
6.001773
21
31.332756
0
ARC
5
92
100
AcDbEntity
8
cut
6
ByLayer
62
256
370
-1
100
AcDbCircle
10
8.001773
20
7.645594
40
2
100
AcDbArc
50
180
51
270
0
LINE
5
93
100
AcDbEntity
8
cut
6
ByLayer
62
256
370
-1
100
AcDbLine
10
71.057103
20
5.645594
11
8.001773
21
5.645594
0
LINE
5
94
100
AcDbEntity
8
cut
6
ByLayer
62
256
370
-1
100
AcDbLine
10
73.057103
20
31.332756
11
73.057103
21
7.645594
0
ARC
5
95
100
AcDbEntity
8
cut
6
ByLayer
62
256
370
-1
100
AcDbCircle
10
71.057103
20
7.645594
40
2
100
AcDbArc
50
270
51
0
0
LWPOLYLINE
5
96
100
AcDbEntity
8
cut
6
ByLayer
62
256
370
-1
100
AcDbPolyline
90
248
70
1
43
0
10
28.2373074667
20
19.8426638376
10
28.2871228379
20
19.8307804521
10
28.3359384451
20
19.8164461775
10
28.3836852554
20
19.7997302881
10
28.4302942358
20
19.7807020585
10
28.4756963534
20
19.759430763
10
28.5198225752
20
19.735985676
10
28.5626038684
20
19.7104360719
10
28.6039712
20
19.6828512252
10
28.643855537
20
19.6533004102
10
28.6821878466
20
19.6218529014
10
28.7188990958
20
19.5885779731
10
28.7539202517
20
19.5535448999
10
28.7871822814
20
19.5168229561
10
28.8186161518
20
19.478481416
10
28.8481528302
20
19.4385895542
10
28.8757232835
20
19.3972166451
10
28.9012584789
20
19.3544319629
10
28.9246893833
20
19.3103047823
10
28.945946964
20
19.2649043775
10
28.9649621879
20
19.218300023
10
28.9816660221
20
19.1705609932
10
28.9959894337
20
19.1217565625
10
29.0078633897
20
19.0719560053
10
29.0172188573
20
19.0212285961
10
29.0239868035
20
18.9696436091
10
29.0280981954
20
18.917270319
10
29.029484
20
18.864178
10
29.0280981954
20
18.8110536881
10
29.0239868035
20
18.7586525997
10
29.0172188573
20
18.7070437959
10
29.0078633897
20
18.6562963378
10
28.9959894337
20
18.6064792865
10
28.9816660221
20
18.5576617031
10
28.9649621879
20
18.5099126489
10
28.945946964
20
18.4633011849
10
28.9246893833
20
18.4178963722
10
28.9012584789
20
18.3737672719
10
28.8757232835
20
18.3309829453
10
28.8481528302
20
18.2896124534
10
28.8186161518
20
18.2497248573
10
28.7871822814
20
18.2113892182
10
28.7539202517
20
18.1746745971
10
28.7188990958
20
18.1396500553
10
28.6821878466
20
18.1063846539
10
28.643855537
20
18.0749474539
10
28.6039712
20
18.0454075165
10
28.5626038684
20
18.0178339028
10
28.5198225752
20
17.992295674
10
28.4756963534
20
17.9688618911
10
28.4302942358
20
17.9476016154
10
28.3836852554
20
17.9285839078
10
28.3359384451
20
17.9118778296
10
28.2871228379
20
17.8975524419
10
28.2373074667
20
17.8856768058
10
28.1865613643
20
17.8763199825
10
28.1349535638
20
17.869551033
10
28.082553098
20
17.8654390184
10
28.029429
20
17.864053
10
27.9763181147
20
17.8654390184
10
27.9239300157
20
17.869551033
10
27.8723337638
20
17.8763199825
10
27.8215984199
20
17.8856768058
10
27.771793045
20
17.8975524419
10
27.7229867
20
17.9118778296
10
27.6752484459
20
17.9285839078
10
27.6286473435
20
17.9476016154
10
27.5832524538
20
17.9688618911
10
27.5391328377
20
17.992295674
10
27.4963575562
20
18.0178339028
10
27.4549956701
20
18.0454075165
10
27.4151162403
20
18.0749474539
10
27.3767883279
20
18.1063846539
10
27.3400809937
20
18.1396500553
10
27.3050632987
20
18.1746745971
10
27.2718043037
20
18.2113892182
10
27.2403730698
20
18.2497248573
10
27.2108386577
20
18.2896124534
10
27.1832701285
20
18.3309829453
10
27.1577365431
20
18.3737672719
10
27.1343069624
20
18.4178963722
10
27.1130504473
20
18.4633011849
10
27.0940360588
20
18.5099126489
10
27.0773328577
20
18.5576617031
10
27.063009905
20
18.6064792865
10
27.0511362617
20
18.6562963378
10
27.0417809886
20
18.7070437959
10
27.0350131467
20
18.7586525997
10
27.0309017968
20
18.8110536881
10
27.029516
20
18.864178
10
27.0309017968
20
18.917270319
10
27.0350131467
20
18.9696436091
10
27.0417809886
20
19.0212285961
10
27.0511362617
20
19.0719560053
10
27.063009905
20
19.1217565625
10
27.0773328577
20
19.1705609932
10
27.0940360588
20
19.218300023
10
27.1130504473
20
19.2649043775
10
27.1343069624
20
19.3103047823
10
27.1577365431
20
19.3544319629
10
27.1832701285
20
19.3972166451
10
27.2108386577
20
19.4385895542
10
27.2403730698
20
19.478481416
10
27.2718043037
20
19.5168229561
10
27.3050632987
20
19.5535448999
10
27.3400809937
20
19.5885779731
10
27.3767883279
20
19.6218529014
10
27.4151162403
20
19.6533004102
10
27.4549956701
20
19.6828512252
10
27.4963575562
20
19.7104360719
10
27.5391328377
20
19.735985676
10
27.5832524538
20
19.759430763
10
27.6286473435
20
19.7807020585
10
27.6752484459
20
19.7997302881
10
27.7229867
20
19.8164461775
10
27.771793045
20
19.8307804521
10
27.8215984199
20
19.8426638376
10
27.8723337638
20
19.8520270595
10
27.9239300157
20
19.8588008435
10
27.9763181147
20
19.8629159151
10
28.029429
20
19.864303
10
28.082553098
20
19.8629159151
10
28.1349535638
20
19.8588008435
10
28.1865613643
20
19.8520270595
10
28.2373074667
20
19.8426638376
10
28.1865613643
20
19.8520270595
10
28.1349535638
20
19.8588008435
10
28.082553098
20
19.8629159151
10
28.029429
20
19.864303
10
27.9763181147
20
19.8629159151
10
27.9239300157
20
19.8588008435
10
27.8723337638
20
19.8520270595
10
27.8215984199
20
19.8426638376
10
27.771793045
20
19.8307804521
10
27.7229867
20
19.8164461775
10
27.6752484459
20
19.7997302881
10
27.6286473435
20
19.7807020585
10
27.5832524538
20
19.759430763
10
27.5391328377
20
19.735985676
10
27.4963575562
20
19.7104360719
10
27.4549956701
20
19.6828512252
10
27.4151162403
20
19.6533004102
10
27.3767883279
20
19.6218529014
10
27.3400809937
20
19.5885779731
10
27.3050632987
20
19.5535448999
10
27.2718043037
20
19.5168229561
10
27.2403730698
20
19.478481416
10
27.2108386577
20
19.4385895542
10
27.1832701285
20
19.3972166451
10
27.1577365431
20
19.3544319629
10
27.1343069624
20
19.3103047823
10
27.1130504473
20
19.2649043775
10
27.0940360588
20
19.218300023
10
27.0773328577
20
19.1705609932
10
27.063009905
20
19.1217565625
10
27.0511362617
20
19.0719560053
10
27.0417809886
20
19.0212285961
10
27.0350131467
20
18.9696436091
10
27.0309017968
20
18.917270319
10
27.029516
20
18.864178
10
27.0309017968
20
18.8110536881
10
27.0350131467
20
18.7586525997
10
27.0417809886
20
18.7070437959
10
27.0511362617
20
18.6562963378
10
27.063009905
20
18.6064792865
10
27.0773328577
20
18.5576617031
10
27.0940360588
20
18.5099126489
10
27.1130504473
20
18.4633011849
10
27.1343069624
20
18.4178963722
10
27.1577365431
20
18.3737672719
10
27.1832701285
20
18.3309829453
10
27.2108386577
20
18.2896124534
10
27.2403730698
20
18.2497248573
10
27.2718043037
20
18.2113892182
10
27.3050632987
20
18.1746745971
10
27.3400809937
20
18.1396500553
10
27.3767883279
20
18.1063846539
10
27.4151162403
20
18.0749474539
10
27.4549956701
20
18.0454075165
10
27.4963575562
20
18.0178339028
10
27.5391328377
20
17.992295674
10
27.5832524538
20
17.9688618911
10
27.6286473435
20
17.9476016154
10
27.6752484459
20
17.9285839078
10
27.7229867
20
17.9118778296
10
27.771793045
20
17.8975524419
10
27.8215984199
20
17.8856768058
10
27.8723337638
20
17.8763199825
10
27.9239300157
20
17.869551033
10
27.9763181147
20
17.8654390184
10
28.029429
20
17.864053
10
28.082553098
20
17.8654390184
10
28.1349535638
20
17.869551033
10
28.1865613643
20
17.8763199825
10
28.2373074667
20
17.8856768058
10
28.2871228379
20
17.8975524419
10
28.3359384451
20
17.9118778296
10
28.3836852554
20
17.9285839078
10
28.4302942358
20
17.9476016154
10
28.4756963534
20
17.9688618911
10
28.5198225752
20
17.992295674
10
28.5626038684
20
18.0178339028
10
28.6039712
20
18.0454075165
10
28.643855537
20
18.0749474539
10
28.6821878466
20
18.1063846539
10
28.7188990958
20
18.1396500553
10
28.7539202517
20
18.1746745971
10
28.7871822814
20
18.2113892182
10
28.8186161518
20
18.2497248573
10
28.8481528302
20
18.2896124534
10
28.8757232835
20
18.3309829453
10
28.9012584789
20
18.3737672719
10
28.9246893833
20
18.4178963722
10
28.945946964
20
18.4633011849
10
28.9649621879
20
18.5099126489
10
28.9816660221
20
18.5576617031
10
28.9959894337
20
18.6064792865
10
29.0078633897
20
18.6562963378
10
29.0172188573
20
18.7070437959
10
29.0239868035
20
18.7586525997
10
29.0280981954
20
18.8110536881
10
29.029484
20
18.864178
10
29.0280981954
20
18.917270319
10
29.0239868035
20
18.9696436091
10
29.0172188573
20
19.0212285961
10
29.0078633897
20
19.0719560053
10
28.9959894337
20
19.1217565625
10
28.9816660221
20
19.1705609932
10
28.9649621879
20
19.218300023
10
28.945946964
20
19.2649043775
10
28.9246893833
20
19.3103047823
10
28.9012584789
20
19.3544319629
10
28.8757232835
20
19.3972166451
10
28.8481528302
20
19.4385895542
10
28.8186161518
20
19.478481416
10
28.7871822814
20
19.5168229561
10
28.7539202517
20
19.5535448999
10
28.7188990958
20
19.5885779731
10
28.6821878466
20
19.6218529014
10
28.643855537
20
19.6533004102
10
28.6039712
20
19.6828512252
10
28.5626038684
20
19.7104360719
10
28.5198225752
20
19.735985676
10
28.4756963534
20
19.759430763
10
28.4302942358
20
19.7807020585
10
28.3836852554
20
19.7997302881
10
28.3359384451
20
19.8164461775
10
28.2871228379
20
19.8307804521
0
LWPOLYLINE
5
97
100
AcDbEntity
8
cut
6
ByLayer
62
256
370
-1
100
AcDbPolyline
90
248
70
1
43
0
10
50.9237848061
20
17.869551033
10
50.8721810475
20
17.8763199825
10
50.821440407
20
17.8856768058
10
50.7716318039
20
17.8975524419
10
50.7228241576
20
17.9118778296
10
50.6750863873
20
17.9285839078
10
50.6284874124
20
17.9476016154
10
50.5830961522
20
17.9688618911
10
50.5389815262
20
17.992295674
10
50.4962124535
20
18.0178339028
10
50.4548578536
20
18.0454075165
10
50.4149866459
20
18.0749474539
10
50.3766677495
20
18.1063846539
10
50.339970084
20
18.1396500553
10
50.3049625685
20
18.1746745971
10
50.2717141225
20
18.2113892182
10
50.2402936653
20
18.2497248573
10
50.2107701162
20
18.2896124534
10
50.1832123945
20
18.3309829453
10
50.1576894197
20
18.3737672719
10
50.134270111
20
18.4178963722
10
50.1130233878
20
18.4633011849
10
50.0940181694
20
18.5099126489
10
50.0773233752
20
18.5576617031
10
50.0630079245
20
18.6064792865
10
50.0511407366
20
18.6562963378
10
50.0417907308
20
18.7070437959
10
50.0350268266
20
18.7586525997
10
50.0309179432
20
18.8110536881
10
50.029533
20
18.864178
10
50.0309179432
20
18.917270319
10
50.0350268266
20
18.9696436091
10
50.0417907308
20
19.0212285961
10
50.0511407366
20
19.0719560053
10
50.0630079245
20
19.1217565625
10
50.0773233752
20
19.1705609932
10
50.0940181694
20
19.218300023
10
50.1130233878
20
19.2649043775
10
50.134270111
20
19.3103047823
10
50.1576894197
20
19.3544319629
10
50.1832123945
20
19.3972166451
10
50.2107701162
20
19.4385895542
10
50.2402936653
20
19.478481416
10
50.2717141225
20
19.5168229561
10
50.3049625685
20
19.5535448999
10
50.339970084
20
19.5885779731
10
50.3766677495
20
19.6218529014
10
50.4149866459
20
19.6533004102
10
50.4548578536
20
19.6828512252
10
50.4962124535
20
19.7104360719
10
50.5389815262
20
19.735985676
10
50.5830961522
20
19.759430763
10
50.6284874124
20
19.7807020585
10
50.6750863873
20
19.7997302881
10
50.7228241576
20
19.8164461775
10
50.7716318039
20
19.8307804521
10
50.821440407
20
19.8426638376
10
50.8721810475
20
19.8520270595
10
50.9237848061
20
19.8588008435
10
50.9761827634
20
19.8629159151
10
51.029306
20
19.864303
10
51.0824303119
20
19.8629159151
10
51.1348314003
20
19.8588008435
10
51.1864402041
20
19.8520270595
10
51.2371876622
20
19.8426638376
10
51.2870047135
20
19.8307804521
10
51.3358222969
20
19.8164461775
10
51.3835713511
20
19.7997302881
10
51.4301828151
20
19.7807020585
10
51.4755876278
20
19.759430763
10
51.5197167281
20
19.735985676
10
51.5625010547
20
19.7104360719
10
51.6038715466
20
19.6828512252
10
51.6437591427
20
19.6533004102
10
51.6820947818
20
19.6218529014
10
51.7188094029
20
19.5885779731
10
51.7538339447
20
19.5535448999
10
51.7870993461
20
19.5168229561
10
51.8185365461
20
19.478481416
10
51.8480764835
20
19.4385895542
10
51.8756500972
20
19.3972166451
10
51.901188326
20
19.3544319629
10
51.9246221089
20
19.3103047823
10
51.9458823846
20
19.2649043775
10
51.9649000922
20
19.218300023
10
51.9816061704
20
19.1705609932
10
51.9959315581
20
19.1217565625
10
52.0078071942
20
19.0719560053
10
52.0171640175
20
19.0212285961
10
52.023932967
20
18.9696436091
10
52.0280449816
20
18.917270319
10
52.029431
20
18.864178
10
52.0280449816
20
18.8110536881
10
52.023932967
20
18.7586525997
10
52.0171640175
20
18.7070437959
10
52.0078071942
20
18.6562963378
10
51.9959315581
20
18.6064792865
10
51.9816061704
20
18.5576617031
10
51.9649000922
20
18.5099126489
10
51.9458823846
20
18.4633011849
10
51.9246221089
20
18.4178963722
10
51.901188326
20
18.3737672719
10
51.8756500972
20
18.3309829453
10
51.8480764835
20
18.2896124534
10
51.8185365461
20
18.2497248573
10
51.7870993461
20
18.2113892182
10
51.7538339447
20
18.1746745971
10
51.7188094029
20
18.1396500553
10
51.6820947818
20
18.1063846539
10
51.6437591427
20
18.0749474539
10
51.6038715466
20
18.0454075165
10
51.5625010547
20
18.0178339028
10
51.5197167281
20
17.992295674
10
51.4755876278
20
17.9688618911
10
51.4301828151
20
17.9476016154
10
51.3835713511
20
17.9285839078
10
51.3358222969
20
17.9118778296
10
51.2870047135
20
17.8975524419
10
51.2371876622
20
17.8856768058
10
51.1864402041
20
17.8763199825
10
51.1348314003
20
17.869551033
10
51.0824303119
20
17.8654390184
10
51.029306
20
17.864053
10
50.9761827634
20
17.8654390184
10
50.9237848061
20
17.869551033
10
50.9761827634
20
17.8654390184
10
51.029306
20
17.864053
10
51.0824303119
20
17.8654390184
10
51.1348314003
20
17.869551033
10
51.1864402041
20
17.8763199825
10
51.2371876622
20
17.8856768058
10
51.2870047135
20
17.8975524419
10
51.3358222969
20
17.9118778296
10
51.3835713511
20
17.9285839078
10
51.4301828151
20
17.9476016154
10
51.4755876278
20
17.9688618911
10
51.5197167281
20
17.992295674
10
51.5625010547
20
18.0178339028
10
51.6038715466
20
18.0454075165
10
51.6437591427
20
18.0749474539
10
51.6820947818
20
18.1063846539
10
51.7188094029
20
18.1396500553
10
51.7538339447
20
18.1746745971
10
51.7870993461
20
18.2113892182
10
51.8185365461
20
18.2497248573
10
51.8480764835
20
18.2896124534
10
51.8756500972
20
18.3309829453
10
51.901188326
20
18.3737672719
10
51.9246221089
20
18.4178963722
10
51.9458823846
20
18.4633011849
10
51.9649000922
20
18.5099126489
10
51.9816061704
20
18.5576617031
10
51.9959315581
20
18.6064792865
10
52.0078071942
20
18.6562963378
10
52.0171640175
20
18.7070437959
10
52.023932967
20
18.7586525997
10
52.0280449816
20
18.8110536881
10
52.029431
20
18.864178
10
52.0280449816
20
18.917270319
10
52.023932967
20
18.9696436091
10
52.0171640175
20
19.0212285961
10
52.0078071942
20
19.0719560053
10
51.9959315581
20
19.1217565625
10
51.9816061704
20
19.1705609932
10
51.9649000922
20
19.218300023
10
51.9458823846
20
19.2649043775
10
51.9246221089
20
19.3103047823
10
51.901188326
20
19.3544319629
10
51.8756500972
20
19.3972166451
10
51.8480764835
20
19.4385895542
10
51.8185365461
20
19.478481416
10
51.7870993461
20
19.5168229561
10
51.7538339447
20
19.5535448999
10
51.7188094029
20
19.5885779731
10
51.6820947818
20
19.6218529014
10
51.6437591427
20
19.6533004102
10
51.6038715466
20
19.6828512252
10
51.5625010547
20
19.7104360719
10
51.5197167281
20
19.735985676
10
51.4755876278
20
19.759430763
10
51.4301828151
20
19.7807020585
10
51.3835713511
20
19.7997302881
10
51.3358222969
20
19.8164461775
10
51.2870047135
20
19.8307804521
10
51.2371876622
20
19.8426638376
10
51.1864402041
20
19.8520270595
10
51.1348314003
20
19.8588008435
10
51.0824303119
20
19.8629159151
10
51.029306
20
19.864303
10
50.9761827634
20
19.8629159151
10
50.9237848061
20
19.8588008435
10
50.8721810475
20
19.8520270595
10
50.821440407
20
19.8426638376
10
50.7716318039
20
19.8307804521
10
50.7228241576
20
19.8164461775
10
50.6750863873
20
19.7997302881
10
50.6284874124
20
19.7807020585
10
50.5830961522
20
19.759430763
10
50.5389815262
20
19.735985676
10
50.4962124535
20
19.7104360719
10
50.4548578536
20
19.6828512252
10
50.4149866459
20
19.6533004102
10
50.3766677495
20
19.6218529014
10
50.339970084
20
19.5885779731
10
50.3049625685
20
19.5535448999
10
50.2717141225
20
19.5168229561
10
50.2402936653
20
19.478481416
10
50.2107701162
20
19.4385895542
10
50.1832123945
20
19.3972166451
10
50.1576894197
20
19.3544319629
10
50.134270111
20
19.3103047823
10
50.1130233878
20
19.2649043775
10
50.0940181694
20
19.218300023
10
50.0773233752
20
19.1705609932
10
50.0630079245
20
19.1217565625
10
50.0511407366
20
19.0719560053
10
50.0417907308
20
19.0212285961
10
50.0350268266
20
18.9696436091
10
50.0309179432
20
18.917270319
10
50.029533
20
18.864178
10
50.0309179432
20
18.8110536881
10
50.0350268266
20
18.7586525997
10
50.0417907308
20
18.7070437959
10
50.0511407366
20
18.6562963378
10
50.0630079245
20
18.6064792865
10
50.0773233752
20
18.5576617031
10
50.0940181694
20
18.5099126489
10
50.1130233878
20
18.4633011849
10
50.134270111
20
18.4178963722
10
50.1576894197
20
18.3737672719
10
50.1832123945
20
18.3309829453
10
50.2107701162
20
18.2896124534
10
50.2402936653
20
18.2497248573
10
50.2717141225
20
18.2113892182
10
50.3049625685
20
18.1746745971
10
50.339970084
20
18.1396500553
10
50.3766677495
20
18.1063846539
10
50.4149866459
20
18.0749474539
10
50.4548578536
20
18.0454075165
10
50.4962124535
20
18.0178339028
10
50.5389815262
20
17.992295674
10
50.5830961522
20
17.9688618911
10
50.6284874124
20
17.9476016154
10
50.6750863873
20
17.9285839078
10
50.7228241576
20
17.9118778296
10
50.7716318039
20
17.8975524419
10
50.821440407
20
17.8856768058
10
50.8721810475
20
17.8763199825
0
LWPOLYLINE
5
98
100
AcDbEntity
8
cut
6
ByLayer
62
256
370
-1
100
AcDbPolyline
90
248
70
1
43
0
10
48.9916786278
20
181.199844891
10
48.9462738151
20
181.178584615
10
48.8996623511
20
181.159566908
10
48.8519132969
20
181.14286083
10
48.8030957135
20
181.128535442
10
48.7532786622
20
181.116659806
10
48.7025312041
20
181.107302982
10
48.6509224003
20
181.100534033
10
48.5985213119
20
181.096422018
10
48.545397
20
181.095036
10
48.492304681
20
181.096422018
10
48.4399313909
20
181.100534033
10
48.3883464039
20
181.107302982
10
48.3376189947
20
181.116659806
10
48.2878184375
20
181.128535442
10
48.2390140068
20
181.14286083
10
48.191274977
20
181.159566908
10
48.1446706225
20
181.178584615
10
48.0992702177
20
181.199844891
10
48.0551430371
20
181.223278674
10
48.0123583549
20
181.248816903
10
47.9709854458
20
181.276390516
10
47.931093584
20
181.305930454
10
47.8927520439
20
181.337367654
10
47.8560301001
20
181.370633055
10
47.8209970269
20
181.405657597
10
47.7877220986
20
181.442372218
10
47.7562745898
20
181.480707857
10
47.7267237748
20
181.520595453
10
47.6991389281
20
181.561965945
10
47.673589324
20
181.604750272
10
47.650144237
20
181.648879372
10
47.6288729415
20
181.694284185
10
47.6098447119
20
181.740895649
10
47.5931288225
20
181.788644703
10
47.5787945479
20
181.837462286
10
47.5669111624
20
181.887279338
10
47.5575479405
20
181.938026796
10
47.5507741565
20
181.9896356
10
47.5466590849
20
182.042036688
10
47.545272
20
182.095161
10
47.5466590849
20
182.148253319
10
47.5507741565
20
182.200626609
10
47.5575479405
20
182.252211596
10
47.5669111624
20
182.302939005
10
47.5787945479
20
182.352739562
10
47.5931288225
20
182.401543993
10
47.6098447119
20
182.449283023
10
47.6288729415
20
182.495887377
10
47.650144237
20
182.541287782
10
47.673589324
20
182.585414963
10
47.6991389281
20
182.628199645
10
47.7267237748
20
182.669572554
10
47.7562745898
20
182.709464416
10
47.7877220986
20
182.747805956
10
47.8209970269
20
182.7845279
10
47.8560301001
20
182.819560973
10
47.8927520439
20
182.852835901
10
47.931093584
20
182.88428341
10
47.9709854458
20
182.913834225
10
48.0123583549
20
182.941419072
10
48.0551430371
20
182.966968676
10
48.0992702177
20
182.990413763
10
48.1446706225
20
183.011685059
10
48.191274977
20
183.030713288
10
48.2390140068
20
183.047429177
10
48.2878184375
20
183.061763452
10
48.3376189947
20
183.073646838
10
48.3883464039
20
183.08301006
10
48.4399313909
20
183.089783844
10
48.492304681
20
183.093898915
10
48.545397
20
183.095286
10
48.5985213119
20
183.093898915
10
48.6509224003
20
183.089783844
10
48.7025312041
20
183.08301006
10
48.7532786622
20
183.073646838
10
48.8030957135
20
183.061763452
10
48.8519132969
20
183.047429177
10
48.8996623511
20
183.030713288
10
48.9462738151
20
183.011685059
10
48.9916786278
20
182.990413763
10
49.0358077281
20
182.966968676
10
49.0785920547
20
182.941419072
10
49.1199625466
20
182.913834225
10
49.1598501427
20
182.88428341
10
49.1981857818
20
182.852835901
10
49.2349004029
20
182.819560973
10
49.2699249447
20
182.7845279
10
49.3031903461
20
182.747805956
10
49.3346275461
20
182.709464416
10
49.3641674835
20
182.669572554
10
49.3917410972
20
182.628199645
10
49.417279326
20
182.585414963
10
49.4407131089
20
182.541287782
10
49.4619733846
20
182.495887377
10
49.4809910922
20
182.449283023
10
49.4976971704
20
182.401543993
10
49.5120225581
20
182.352739562
10
49.5238981942
20
182.302939005
10
49.5332550175
20
182.252211596
10
49.540023967
20
182.200626609
10
49.5441359816
20
182.148253319
10
49.545522
20
182.095161
10
49.5441359816
20
182.042036688
10
49.540023967
20
181.9896356
10
49.5332550175
20
181.938026796
10
49.5238981942
20
181.887279338
10
49.5120225581
20
181.837462286
10
49.4976971704
20
181.788644703
10
49.4809910922
20
181.740895649
10
49.4619733846
20
181.694284185
10
49.4407131089
20
181.648879372
10
49.417279326
20
181.604750272
10
49.3917410972
20
181.561965945
10
49.3641674835
20
181.520595453
10
49.3346275461
20
181.480707857
10
49.3031903461
20
181.442372218
10
49.2699249447
20
181.405657597
10
49.2349004029
20
181.370633055
10
49.1981857818
20
181.337367654
10
49.1598501427
20
181.305930454
10
49.1199625466
20
181.276390516
10
49.0785920547
20
181.248816903
10
49.0358077281
20
181.223278674
10
48.9916786278
20
181.199844891
10
49.0358077281
20
181.223278674
10
49.0785920547
20
181.248816903
10
49.1199625466
20
181.276390516
10
49.1598501427
20
181.305930454
10
49.1981857818
20
181.337367654
10
49.2349004029
20
181.370633055
10
49.2699249447
20
181.405657597
10
49.3031903461
20
181.442372218
10
49.3346275461
20
181.480707857
10
49.3641674835
20
181.520595453
10
49.3917410972
20
181.561965945
10
49.417279326
20
181.604750272
10
49.4407131089
20
181.648879372
10
49.4619733846
20
181.694284185
10
49.4809910922
20
181.740895649
10
49.4976971704
20
181.788644703
10
49.5120225581
20
181.837462286
10
49.5238981942
20
181.887279338
10
49.5332550175
20
181.938026796
10
49.540023967
20
181.9896356
10
49.5441359816
20
182.042036688
10
49.545522
20
182.095161
10
49.5441359816
20
182.148253319
10
49.540023967
20
182.200626609
10
49.5332550175
20
182.252211596
10
49.5238981942
20
182.302939005
10
49.5120225581
20
182.352739562
10
49.4976971704
20
182.401543993
10
49.4809910922
20
182.449283023
10
49.4619733846
20
182.495887377
10
49.4407131089
20
182.541287782
10
49.417279326
20
182.585414963
10
49.3917410972
20
182.628199645
10
49.3641674835
20
182.669572554
10
49.3346275461
20
182.709464416
10
49.3031903461
20
182.747805956
10
49.2699249447
20
182.7845279
10
49.2349004029
20
182.819560973
10
49.1981857818
20
182.852835901
10
49.1598501427
20
182.88428341
10
49.1199625466
20
182.913834225
10
49.0785920547
20
182.941419072
10
49.0358077281
20
182.966968676
10
48.9916786278
20
182.990413763
10
48.9462738151
20
183.011685059
10
48.8996623511
20
183.030713288
10
48.8519132969
20
183.047429177
10
48.8030957135
20
183.061763452
10
48.7532786622
20
183.073646838
10
48.7025312041
20
183.08301006
10
48.6509224003
20
183.089783844
10
48.5985213119
20
183.093898915
10
48.545397
20
183.095286
10
48.492304681
20
183.093898915
10
48.4399313909
20
183.089783844
10
48.3883464039
20
183.08301006
10
48.3376189947
20
183.073646838
10
48.2878184375
20
183.061763452
10
48.2390140068
20
183.047429177
10
48.191274977
20
183.030713288
10
48.1446706225
20
183.011685059
10
48.0992702177
20
182.990413763
10
48.0551430371
20
182.966968676
10
48.0123583549
20
182.941419072
10
47.9709854458
20
182.913834225
10
47.931093584
20
182.88428341
10
47.8927520439
20
182.852835901
10
47.8560301001
20
182.819560973
10
47.8209970269
20
182.7845279
10
47.7877220986
20
182.747805956
10
47.7562745898
20
182.709464416
10
47.7267237748
20
182.669572554
10
47.6991389281
20
182.628199645
10
47.673589324
20
182.585414963
10
47.650144237
20
182.541287782
10
47.6288729415
20
182.495887377
10
47.6098447119
20
182.449283023
10
47.5931288225
20
182.401543993
10
47.5787945479
20
182.352739562
10
47.5669111624
20
182.302939005
10
47.5575479405
20
182.252211596
10
47.5507741565
20
182.200626609
10
47.5466590849
20
182.148253319
10
47.545272
20
182.095161
10
47.5466590849
20
182.042036688
10
47.5507741565
20
181.9896356
10
47.5575479405
20
181.938026796
10
47.5669111624
20
181.887279338
10
47.5787945479
20
181.837462286
10
47.5931288225
20
181.788644703
10
47.6098447119
20
181.740895649
10
47.6288729415
20
181.694284185
10
47.650144237
20
181.648879372
10
47.673589324
20
181.604750272
10
47.6991389281
20
181.561965945
10
47.7267237748
20
181.520595453
10
47.7562745898
20
181.480707857
10
47.7877220986
20
181.442372218
10
47.8209970269
20
181.405657597
10
47.8560301001
20
181.370633055
10
47.8927520439
20
181.337367654
10
47.931093584
20
181.305930454
10
47.9709854458
20
181.276390516
10
48.0123583549
20
181.248816903
10
48.0551430371
20
181.223278674
10
48.0992702177
20
181.199844891
10
48.1446706225
20
181.178584615
10
48.191274977
20
181.159566908
10
48.2390140068
20
181.14286083
10
48.2878184375
20
181.128535442
10
48.3376189947
20
181.116659806
10
48.3883464039
20
181.107302982
10
48.4399313909
20
181.100534033
10
48.492304681
20
181.096422018
10
48.545397
20
181.095036
10
48.5985213119
20
181.096422018
10
48.6509224003
20
181.100534033
10
48.7025312041
20
181.107302982
10
48.7532786622
20
181.116659806
10
48.8030957135
20
181.128535442
10
48.8519132969
20
181.14286083
10
48.8996623511
20
181.159566908
10
48.9462738151
20
181.178584615
0
LWPOLYLINE
5
99
100
AcDbEntity
8
cut
6
ByLayer
62
256
370
-1
100
AcDbPolyline
90
249
70
1
43
0
10
19.3028815544
20
182.100276681
10
19.3069951102
20
182.047903391
10
19.3137665068
20
181.996318404
10
19.3231265832
20
181.945590995
10
19.3350061787
20
181.895790438
10
19.3493361324
20
181.846986007
10
19.3660472835
20
181.799246977
10
19.3850704712
20
181.752642623
10
19.4063365347
20
181.707242218
10
19.4297763131
20
181.663115037
10
19.4553206457
20
181.620330355
10
19.4829003716
20
181.578957446
10
19.5124463299
20
181.539065584
10
19.5438893599
20
181.500724044
10
19.5771603008
20
181.4640021
10
19.6121899916
20
181.428969027
10
19.6489092717
20
181.395694099
10
19.6872489802
20
181.36424659
10
19.7271399562
20
181.334695775
10
19.768513039
20
181.307110928
10
19.8112990677
20
181.281561324
10
19.8554288815
20
181.258116237
10
19.9008333196
20
181.236844941
10
19.9474432211
20
181.217816712
10
19.9951894253
20
181.201100823
10
20.0440027713
20
181.186766548
10
20.0938140984
20
181.174883162
10
20.1445542455
20
181.16551994
10
20.1961540521
20
181.158746156
10
20.2485443572
20
181.154631085
10
20.301656
20
181.153244
10
20.354757709
20
181.154631085
10
20.407138715
20
181.158746156
10
20.4587298361
20
181.16551994
10
20.5094618905
20
181.174883162
10
20.5592656966
20
181.186766548
10
20.6080720724
20
181.201100823
10
20.6558118364
20
181.217816712
10
20.7024158067
20
181.236844941
10
20.7478148015
20
181.258116237
10
20.791939639
20
181.281561324
10
20.8347211376
20
181.307110928
10
20.8760901154
20
181.334695775
10
20.9159773907
20
181.36424659
10
20.9543137817
20
181.395694099
10
20.9910301066
20
181.428969027
10
21.0260571837
20
181.4640021
10
21.0593258312
20
181.500724044
10
21.0907668674
20
181.539065584
10
21.1203111104
20
181.578957446
10
21.1478893785
20
181.620330355
10
21.17343249
20
181.663115037
10
21.1968712631
20
181.707242218
10
21.2181365159
20
181.752642623
10
21.2371590668
20
181.799246977
10
21.253869734
20
181.846986007
10
21.2681993357
20
181.895790438
10
21.2800786901
20
181.945590995
10
21.2894386156
20
181.996318404
10
21.2962099302
20
182.047903391
10
21.3003234523
20
182.100276681
10
21.30171
20
182.153369
10
21.3003234523
20
182.20646141
10
21.2962099302
20
182.258834779
10
21.2894386156
20
182.310419833
10
21.2800786901
20
182.361147299
10
21.2681993357
20
182.410947903
10
21.253869734
20
182.459752371
10
21.2371590668
20
182.507491429
10
21.2181365159
20
182.554095804
10
21.1968712631
20
182.599496221
10
21.17343249
20
182.643623407
10
21.1478893785
20
182.686408088
10
21.1203111104
20
182.72778099
10
21.0907668674
20
182.76767284
10
21.0593258312
20
182.806014363
10
21.0260571837
20
182.842736287
10
20.9910301066
20
182.877769336
10
20.9543137817
20
182.911044237
10
20.9159773907
20
182.942491717
10
20.8760901154
20
182.972042501
10
20.8347211376
20
182.999627316
10
20.791939639
20
183.025176887
10
20.7478148015
20
183.048621942
10
20.7024158067
20
183.069893207
10
20.6558118364
20
183.088921407
10
20.6080720724
20
183.105637268
10
20.5592656966
20
183.119971518
10
20.5094618905
20
183.131854881
10
20.4587298361
20
183.141218085
10
20.407138715
20
183.147991855
10
20.354757709
20
183.152106918
10
20.301656
20
183.153494
10
20.2485443572
20
183.152106918
10
20.1961540521
20
183.147991855
10
20.1445542455
20
183.141218085
10
20.0938140984
20
183.131854881
10
20.0440027713
20
183.119971518
10
19.9951894253
20
183.105637268
10
19.9474432211
20
183.088921407
10
19.9008333196
20
183.069893207
10
19.8554288815
20
183.048621942
10
19.8112990677
20
183.025176887
10
19.768513039
20
182.999627316
10
19.7271399562
20
182.972042501
10
19.6872489802
20
182.942491717
10
19.6489092717
20
182.911044237
10
19.6121899916
20
182.877769336
10
19.5771603008
20
182.842736287
10
19.5438893599
20
182.806014363
10
19.5124463299
20
182.76767284
10
19.4829003716
20
182.72778099
10
19.4553206457
20
182.686408088
10
19.4297763131
20
182.643623407
10
19.4063365347
20
182.599496221
10
19.3850704712
20
182.554095804
10
19.3660472835
20
182.507491429
10
19.3493361324
20
182.459752371
10
19.3350061787
20
182.410947903
10
19.3231265832
20
182.361147299
10
19.3137665068
20
182.310419833
10
19.3069951102
20
182.258834779
10
19.3028815544
20
182.20646141
10
19.301495
20
182.153369
10
19.3028815544
20
182.100276681
10
19.3069951102
20
182.047903391
10
19.3137665068
20
181.996318404
10
19.3231265832
20
181.945590995
10
19.3350061787
20
181.895790438
10
19.3493361324
20
181.846986007
10
19.3660472835
20
181.799246977
10
19.3850704712
20
181.752642623
10
19.4063365347
20
181.707242218
10
19.4297763131
20
181.663115037
10
19.4553206457
20
181.620330355
10
19.4829003716
20
181.578957446
10
19.5124463299
20
181.539065584
10
19.5438893599
20
181.500724044
10
19.5771603008
20
181.4640021
10
19.6121899916
20
181.428969027
10
19.6489092717
20
181.395694099
10
19.6872489802
20
181.36424659
10
19.7271399562
20
181.334695775
10
19.768513039
20
181.307110928
10
19.8112990677
20
181.281561324
10
19.8554288815
20
181.258116237
10
19.9008333196
20
181.236844941
10
19.9474432211
20
181.217816712
10
19.9951894253
20
181.201100823
10
20.0440027713
20
181.186766548
10
20.0938140984
20
181.174883162
10
20.1445542455
20
181.16551994
10
20.1961540521
20
181.158746156
10
20.2485443572
20
181.154631085
10
20.301656
20
181.153244
10
20.354757709
20
181.154631085
10
20.407138715
20
181.158746156
10
20.4587298361
20
181.16551994
10
20.5094618905
20
181.174883162
10
20.5592656966
20
181.186766548
10
20.6080720724
20
181.201100823
10
20.6558118364
20
181.217816712
10
20.7024158067
20
181.236844941
10
20.7478148015
20
181.258116237
10
20.791939639
20
181.281561324
10
20.8347211376
20
181.307110928
10
20.8760901154
20
181.334695775
10
20.9159773907
20
181.36424659
10
20.9543137817
20
181.395694099
10
20.9910301066
20
181.428969027
10
21.0260571837
20
181.4640021
10
21.0593258312
20
181.500724044
10
21.0907668674
20
181.539065584
10
21.1203111104
20
181.578957446
10
21.1478893785
20
181.620330355
10
21.17343249
20
181.663115037
10
21.1968712631
20
181.707242218
10
21.2181365159
20
181.752642623
10
21.2371590668
20
181.799246977
10
21.253869734
20
181.846986007
10
21.2681993357
20
181.895790438
10
21.2800786901
20
181.945590995
10
21.2894386156
20
181.996318404
10
21.2962099302
20
182.047903391
10
21.3003234523
20
182.100276681
10
21.30171
20
182.153369
10
21.3003234523
20
182.20646141
10
21.2962099302
20
182.258834779
10
21.2894386156
20
182.310419833
10
21.2800786901
20
182.361147299
10
21.2681993357
20
182.410947903
10
21.253869734
20
182.459752371
10
21.2371590668
20
182.507491429
10
21.2181365159
20
182.554095804
10
21.1968712631
20
182.599496221
10
21.17343249
20
182.643623407
10
21.1478893785
20
182.686408088
10
21.1203111104
20
182.72778099
10
21.0907668674
20
182.76767284
10
21.0593258312
20
182.806014363
10
21.0260571837
20
182.842736287
10
20.9910301066
20
182.877769336
10
20.9543137817
20
182.911044237
10
20.9159773907
20
182.942491717
10
20.8760901154
20
182.972042501
10
20.8347211376
20
182.999627316
10
20.791939639
20
183.025176887
10
20.7478148015
20
183.048621942
10
20.7024158067
20
183.069893207
10
20.6558118364
20
183.088921407
10
20.6080720724
20
183.105637268
10
20.5592656966
20
183.119971518
10
20.5094618905
20
183.131854881
10
20.4587298361
20
183.141218085
10
20.407138715
20
183.147991855
10
20.354757709
20
183.152106918
10
20.301656
20
183.153494
10
20.2485443572
20
183.152106918
10
20.1961540521
20
183.147991855
10
20.1445542455
20
183.141218085
10
20.0938140984
20
183.131854881
10
20.0440027713
20
183.119971518
10
19.9951894253
20
183.105637268
10
19.9474432211
20
183.088921407
10
19.9008333196
20
183.069893207
10
19.8554288815
20
183.048621942
10
19.8112990677
20
183.025176887
10
19.768513039
20
182.999627316
10
19.7271399562
20
182.972042501
10
19.6872489802
20
182.942491717
10
19.6489092717
20
182.911044237
10
19.6121899916
20
182.877769336
10
19.5771603008
20
182.842736287
10
19.5438893599
20
182.806014363
10
19.5124463299
20
182.76767284
10
19.4829003716
20
182.72778099
10
19.4553206457
20
182.686408088
10
19.4297763131
20
182.643623407
10
19.4063365347
20
182.599496221
10
19.3850704712
20
182.554095804
10
19.3660472835
20
182.507491429
10
19.3493361324
20
182.459752371
10
19.3350061787
20
182.410947903
10
19.3231265832
20
182.361147299
10
19.3137665068
20
182.310419833
10
19.3069951102
20
182.258834779
10
19.3028815544
20
182.20646141
10
19.301495
20
182.153369
10
19.301495
20
182.153369
0
LWPOLYLINE
5
9A
100
AcDbEntity
8
cut
6
ByLayer
62
256
370
-1
100
AcDbPolyline
90
248
70
1
43
0
10
16.3039705619
20
128.674775703
10
16.287258922
20
128.627026649
10
16.2682353278
20
128.580415185
10
16.2469689823
20
128.535010372
10
16.2235290884
20
128.490881272
10
16.1979848491
20
128.448096945
10
16.1704054672
20
128.406726453
10
16.1408601457
20
128.366838857
10
16.1094180874
20
128.328503218
10
16.0761484953
20
128.291788597
10
16.0411205723
20
128.256764055
10
16.0044035213
20
128.223498654
10
15.9660665453
20
128.192061454
10
15.926178847
20
128.162521516
10
15.8848096296
20
128.134947903
10
15.8420280957
20
128.109409674
10
15.7979034485
20
128.085975891
10
15.7525048907
20
128.064715615
10
15.7059016254
20
128.045697908
10
15.6581628554
20
128.02899183
10
15.6093577836
20
128.014666442
10
15.5595556129
20
128.002790806
10
15.5088255463
20
127.993433982
10
15.4572367867
20
127.986665033
10
15.4048585369
20
127.982553018
10
15.35176
20
127.981167
10
15.2986482503
20
127.982553018
10
15.2462576338
20
127.986665033
10
15.1946573256
20
127.993433982
10
15.1439165006
20
128.002790806
10
15.0941043335
20
128.014666442
10
15.0452899995
20
128.02899183
10
14.9975426733
20
128.045697908
10
14.9509315299
20
128.064715615
10
14.9055257443
20
128.085975891
10
14.8613944913
20
128.109409674
10
14.8186069459
20
128.134947903
10
14.7772322829
20
128.162521516
10
14.7373396774
20
128.192061454
10
14.6989983041
20
128.223498654
10
14.6622773381
20
128.256764055
10
14.6272459543
20
128.291788597
10
14.5939733275
20
128.328503218
10
14.5625286327
20
128.366838857
10
14.5329810449
20
128.406726453
10
14.5053997388
20
128.448096945
10
14.4798538896
20
128.490881272
10
14.4564126719
20
128.535010372
10
14.4351452609
20
128.580415185
10
14.4161208314
20
128.627026649
10
14.3994085583
20
128.674775703
10
14.3850776165
20
128.723593286
10
14.373197181
20
128.773410338
10
14.3638364267
20
128.824157796
10
14.3570645285
20
128.8757666
10
14.3529506613
20
128.928167688
10
14.351564
20
128.981292
10
14.3529506613
20
129.034384319
10
14.3570645285
20
129.086757609
10
14.3638364267
20
129.138342596
10
14.373197181
20
129.189070005
10
14.3850776165
20
129.238870562
10
14.3994085583
20
129.287674993
10
14.4161208314
20
129.335414023
10
14.4351452609
20
129.382018377
10
14.4564126719
20
129.427418782
10
14.4798538896
20
129.471545963
10
14.5053997388
20
129.514330645
10
14.5329810449
20
129.555703554
10
14.5625286327
20
129.595595416
10
14.5939733275
20
129.633936956
10
14.6272459543
20
129.6706589
10
14.6622773381
20
129.705691973
10
14.6989983041
20
129.738966901
10
14.7373396774
20
129.77041441
10
14.7772322829
20
129.799965225
10
14.8186069459
20
129.827550072
10
14.8613944913
20
129.853099676
10
14.9055257443
20
129.876544763
10
14.9509315299
20
129.897816059
10
14.9975426733
20
129.916844288
10
15.0452899995
20
129.933560177
10
15.0941043335
20
129.947894452
10
15.1439165006
20
129.959777838
10
15.1946573256
20
129.96914106
10
15.2462576338
20
129.975914844
10
15.2986482503
20
129.980029915
10
15.35176
20
129.981417
10
15.4048585369
20
129.980029915
10
15.4572367867
20
129.975914844
10
15.5088255463
20
129.96914106
10
15.5595556129
20
129.959777838
10
15.6093577836
20
129.947894452
10
15.6581628554
20
129.933560177
10
15.7059016254
20
129.916844288
10
15.7525048907
20
129.897816059
10
15.7979034485
20
129.876544763
10
15.8420280957
20
129.853099676
10
15.8848096296
20
129.827550072
10
15.926178847
20
129.799965225
10
15.9660665453
20
129.77041441
10
16.0044035213
20
129.738966901
10
16.0411205723
20
129.705691973
10
16.0761484953
20
129.6706589
10
16.1094180874
20
129.633936956
10
16.1408601457
20
129.595595416
10
16.1704054672
20
129.555703554
10
16.1979848491
20
129.514330645
10
16.2235290884
20
129.471545963
10
16.2469689823
20
129.427418782
10
16.2682353278
20
129.382018377
10
16.287258922
20
129.335414023
10
16.3039705619
20
129.287674993
10
16.3183010447
20
129.238870562
10
16.3301811675
20
129.189070005
10
16.3395417274
20
129.138342596
10
16.3463135213
20
129.086757609
10
16.3504273465
20
129.034384319
10
16.351814
20
128.981292
10
16.3504273465
20
128.928167688
10
16.3463135213
20
128.8757666
10
16.3395417274
20
128.824157796
10
16.3301811675
20
128.773410338
10
16.3183010447
20
128.723593286
10
16.3039705619
20
128.674775703
10
16.3183010447
20
128.723593286
10
16.3301811675
20
128.773410338
10
16.3395417274
20
128.824157796
10
16.3463135213
20
128.8757666
10
16.3504273465
20
128.928167688
10
16.351814
20
128.981292
10
16.3504273465
20
129.034384319
10
16.3463135213
20
129.086757609
10
16.3395417274
20
129.138342596
10
16.3301811675
20
129.189070005
10
16.3183010447
20
129.238870562
10
16.3039705619
20
129.287674993
10
16.287258922
20
129.335414023
10
16.2682353278
20
129.382018377
10
16.2469689823
20
129.427418782
10
16.2235290884
20
129.471545963
10
16.1979848491
20
129.514330645
10
16.1704054672
20
129.555703554
10
16.1408601457
20
129.595595416
10
16.1094180874
20
129.633936956
10
16.0761484953
20
129.6706589
10
16.0411205723
20
129.705691973
10
16.0044035213
20
129.738966901
10
15.9660665453
20
129.77041441
10
15.926178847
20
129.799965225
10
15.8848096296
20
129.827550072
10
15.8420280957
20
129.853099676
10
15.7979034485
20
129.876544763
10
15.7525048907
20
129.897816059
10
15.7059016254
20
129.916844288
10
15.6581628554
20
129.933560177
10
15.6093577836
20
129.947894452
10
15.5595556129
20
129.959777838
10
15.5088255463
20
129.96914106
10
15.4572367867
20
129.975914844
10
15.4048585369
20
129.980029915
10
15.35176
20
129.981417
10
15.2986482503
20
129.980029915
10
15.2462576338
20
129.975914844
10
15.1946573256
20
129.96914106
10
15.1439165006
20
129.959777838
10
15.0941043335
20
129.947894452
10
15.0452899995
20
129.933560177
10
14.9975426733
20
129.916844288
10
14.9509315299
20
129.897816059
10
14.9055257443
20
129.876544763
10
14.8613944913
20
129.853099676
10
14.8186069459
20
129.827550072
10
14.7772322829
20
129.799965225
10
14.7373396774
20
129.77041441
10
14.6989983041
20
129.738966901
10
14.6622773381
20
129.705691973
10
14.6272459543
20
129.6706589
10
14.5939733275
20
129.633936956
10
14.5625286327
20
129.595595416
10
14.5329810449
20
129.555703554
10
14.5053997388
20
129.514330645
10
14.4798538896
20
129.471545963
10
14.4564126719
20
129.427418782
10
14.4351452609
20
129.382018377
10
14.4161208314
20
129.335414023
10
14.3994085583
20
129.287674993
10
14.3850776165
20
129.238870562
10
14.373197181
20
129.189070005
10
14.3638364267
20
129.138342596
10
14.3570645285
20
129.086757609
10
14.3529506613
20
129.034384319
10
14.351564
20
128.981292
10
14.3529506613
20
128.928167688
10
14.3570645285
20
128.8757666
10
14.3638364267
20
128.824157796
10
14.373197181
20
128.773410338
10
14.3850776165
20
128.723593286
10
14.3994085583
20
128.674775703
10
14.4161208314
20
128.627026649
10
14.4351452609
20
128.580415185
10
14.4564126719
20
128.535010372
10
14.4798538896
20
128.490881272
10
14.5053997388
20
128.448096945
10
14.5329810449
20
128.406726453
10
14.5625286327
20
128.366838857
10
14.5939733275
20
128.328503218
10
14.6272459543
20
128.291788597
10
14.6622773381
20
128.256764055
10
14.6989983041
20
128.223498654
10
14.7373396774
20
128.192061454
10
14.7772322829
20
128.162521516
10
14.8186069459
20
128.134947903
10
14.8613944913
20
128.109409674
10
14.9055257443
20
128.085975891
10
14.9509315299
20
128.064715615
10
14.9975426733
20
128.045697908
10
15.0452899995
20
128.02899183
10
15.0941043335
20
128.014666442
10
15.1439165006
20
128.002790806
10
15.1946573256
20
127.993433982
10
15.2462576338
20
127.986665033
10
15.2986482503
20
127.982553018
10
15.35176
20
127.981167
10
15.4048585369
20
127.982553018
10
15.4572367867
20
127.986665033
10
15.5088255463
20
127.993433982
10
15.5595556129
20
128.002790806
10
15.6093577836
20
128.014666442
10
15.6581628554
20
128.02899183
10
15.7059016254
20
128.045697908
10
15.7525048907
20
128.064715615
10
15.7979034485
20
128.085975891
10
15.8420280957
20
128.109409674
10
15.8848096296
20
128.134947903
10
15.926178847
20
128.162521516
10
15.9660665453
20
128.192061454
10
16.0044035213
20
128.223498654
10
16.0411205723
20
128.256764055
10
16.0761484953
20
128.291788597
10
16.1094180874
20
128.328503218
10
16.1408601457
20
128.366838857
10
16.1704054672
20
128.406726453
10
16.1979848491
20
128.448096945
10
16.2235290884
20
128.490881272
10
16.2469689823
20
128.535010372
10
16.2682353278
20
128.580415185
10
16.287258922
20
128.627026649
0
LWPOLYLINE
5
9B
100
AcDbEntity
8
cut
6
ByLayer
62
256
370
-1
100
AcDbPolyline
90
248
70
1
43
0
10
63.7190829947
20
131.018110838
10
63.7698104039
20
131.02747406
10
63.8213953909
20
131.034247844
10
63.873768681
20
131.038362915
10
63.926861
20
131.03975
10
63.979953319
20
131.038362915
10
64.0323266091
20
131.034247844
10
64.0839115961
20
131.02747406
10
64.1346390053
20
131.018110838
10
64.1844395625
20
131.006227452
10
64.2332439932
20
130.991893177
10
64.280983023
20
130.975177288
10
64.3275873775
20
130.956149059
10
64.3729877823
20
130.934877763
10
64.4171149629
20
130.911432676
10
64.4598996451
20
130.885883072
10
64.5012725542
20
130.858298225
10
64.541164416
20
130.82874741
10
64.5795059561
20
130.797299901
10
64.6162278999
20
130.764024973
10
64.6512609731
20
130.7289919
10
64.6845359014
20
130.692269956
10
64.7159834102
20
130.653928416
10
64.7455342252
20
130.614036554
10
64.7731190719
20
130.572663645
10
64.798668676
20
130.529878963
10
64.822113763
20
130.485751782
10
64.8433850585
20
130.440351377
10
64.8624132881
20
130.393747023
10
64.8791291775
20
130.346007993
10
64.8934634521
20
130.297203562
10
64.9053468376
20
130.247403005
10
64.9147100595
20
130.196675596
10
64.9214838435
20
130.145090609
10
64.9255989151
20
130.092717319
10
64.926986
20
130.039625
10
64.9255989151
20
129.986500688
10
64.9214838435
20
129.9340996
10
64.9147100595
20
129.882490796
10
64.9053468376
20
129.831743338
10
64.8934634521
20
129.781926286
10
64.8791291775
20
129.733108703
10
64.8624132881
20
129.685359649
10
64.8433850585
20
129.638748185
10
64.822113763
20
129.593343372
10
64.798668676
20
129.549214272
10
64.7731190719
20
129.506429945
10
64.7455342252
20
129.465059453
10
64.7159834102
20
129.425171857
10
64.6845359014
20
129.386836218
10
64.6512609731
20
129.350121597
10
64.6162278999
20
129.315097055
10
64.5795059561
20
129.281831654
10
64.541164416
20
129.250394454
10
64.5012725542
20
129.220854516
10
64.4598996451
20
129.193280903
10
64.4171149629
20
129.167742674
10
64.3729877823
20
129.144308891
10
64.3275873775
20
129.123048615
10
64.280983023
20
129.104030908
10
64.2332439932
20
129.08732483
10
64.1844395625
20
129.072999442
10
64.1346390053
20
129.061123806
10
64.0839115961
20
129.051766982
10
64.0323266091
20
129.044998033
10
63.979953319
20
129.040886018
10
63.926861
20
129.0395
10
63.873768681
20
129.040886018
10
63.8213953909
20
129.044998033
10
63.7698104039
20
129.051766982
10
63.7190829947
20
129.061123806
10
63.6692824375
20
129.072999442
10
63.6204780068
20
129.08732483
10
63.572738977
20
129.104030908
10
63.5261346225
20
129.123048615
10
63.4807342177
20
129.144308891
10
63.4366070371
20
129.167742674
10
63.3938223549
20
129.193280903
10
63.3524494458
20
129.220854516
10
63.312557584
20
129.250394454
10
63.2742160439
20
129.281831654
10
63.2374941001
20
129.315097055
10
63.2024610269
20
129.350121597
10
63.1691860986
20
129.386836218
10
63.1377385898
20
129.425171857
10
63.1081877748
20
129.465059453
10
63.0806029281
20
129.506429945
10
63.055053324
20
129.549214272
10
63.031608237
20
129.593343372
10
63.0103369415
20
129.638748185
10
62.9913087119
20
129.685359649
10
62.9745928225
20
129.733108703
10
62.9602585479
20
129.781926286
10
62.9483751624
20
129.831743338
10
62.9390119405
20
129.882490796
10
62.9322381565
20
129.9340996
10
62.9281230849
20
129.986500688
10
62.926736
20
130.039625
10
62.9281230849
20
130.092717319
10
62.9322381565
20
130.145090609
10
62.9390119405
20
130.196675596
10
62.9483751624
20
130.247403005
10
62.9602585479
20
130.297203562
10
62.9745928225
20
130.346007993
10
62.9913087119
20
130.393747023
10
63.0103369415
20
130.440351377
10
63.031608237
20
130.485751782
10
63.055053324
20
130.529878963
10
63.0806029281
20
130.572663645
10
63.1081877748
20
130.614036554
10
63.1377385898
20
130.653928416
10
63.1691860986
20
130.692269956
10
63.2024610269
20
130.7289919
10
63.2374941001
20
130.764024973
10
63.2742160439
20
130.797299901
10
63.312557584
20
130.82874741
10
63.3524494458
20
130.858298225
10
63.3938223549
20
130.885883072
10
63.4366070371
20
130.911432676
10
63.4807342177
20
130.934877763
10
63.5261346225
20
130.956149059
10
63.572738977
20
130.975177288
10
63.6204780068
20
130.991893177
10
63.6692824375
20
131.006227452
10
63.7190829947
20
131.018110838
10
63.6692824375
20
131.006227452
10
63.6204780068
20
130.991893177
10
63.572738977
20
130.975177288
10
63.5261346225
20
130.956149059
10
63.4807342177
20
130.934877763
10
63.4366070371
20
130.911432676
10
63.3938223549
20
130.885883072
10
63.3524494458
20
130.858298225
10
63.312557584
20
130.82874741
10
63.2742160439
20
130.797299901
10
63.2374941001
20
130.764024973
10
63.2024610269
20
130.7289919
10
63.1691860986
20
130.692269956
10
63.1377385898
20
130.653928416
10
63.1081877748
20
130.614036554
10
63.0806029281
20
130.572663645
10
63.055053324
20
130.529878963
10
63.031608237
20
130.485751782
10
63.0103369415
20
130.440351377
10
62.9913087119
20
130.393747023
10
62.9745928225
20
130.346007993
10
62.9602585479
20
130.297203562
10
62.9483751624
20
130.247403005
10
62.9390119405
20
130.196675596
10
62.9322381565
20
130.145090609
10
62.9281230849
20
130.092717319
10
62.926736
20
130.039625
10
62.9281230849
20
129.986500688
10
62.9322381565
20
129.9340996
10
62.9390119405
20
129.882490796
10
62.9483751624
20
129.831743338
10
62.9602585479
20
129.781926286
10
62.9745928225
20
129.733108703
10
62.9913087119
20
129.685359649
10
63.0103369415
20
129.638748185
10
63.031608237
20
129.593343372
10
63.055053324
20
129.549214272
10
63.0806029281
20
129.506429945
10
63.1081877748
20
129.465059453
10
63.1377385898
20
129.425171857
10
63.1691860986
20
129.386836218
10
63.2024610269
20
129.350121597
10
63.2374941001
20
129.315097055
10
63.2742160439
20
129.281831654
10
63.312557584
20
129.250394454
10
63.3524494458
20
129.220854516
10
63.3938223549
20
129.193280903
10
63.4366070371
20
129.167742674
10
63.4807342177
20
129.144308891
10
63.5261346225
20
129.123048615
10
63.572738977
20
129.104030908
10
63.6204780068
20
129.08732483
10
63.6692824375
20
129.072999442
10
63.7190829947
20
129.061123806
10
63.7698104039
20
129.051766982
10
63.8213953909
20
129.044998033
10
63.873768681
20
129.040886018
10
63.926861
20
129.0395
10
63.979953319
20
129.040886018
10
64.0323266091
20
129.044998033
10
64.0839115961
20
129.051766982
10
64.1346390053
20
129.061123806
10
64.1844395625
20
129.072999442
10
64.2332439932
20
129.08732483
10
64.280983023
20
129.104030908
10
64.3275873775
20
129.123048615
10
64.3729877823
20
129.144308891
10
64.4171149629
20
129.167742674
10
64.4598996451
20
129.193280903
10
64.5012725542
20
129.220854516
10
64.541164416
20
129.250394454
10
64.5795059561
20
129.281831654
10
64.6162278999
20
129.315097055
10
64.6512609731
20
129.350121597
10
64.6845359014
20
129.386836218
10
64.7159834102
20
129.425171857
10
64.7455342252
20
129.465059453
10
64.7731190719
20
129.506429945
10
64.798668676
20
129.549214272
10
64.822113763
20
129.593343372
10
64.8433850585
20
129.638748185
10
64.8624132881
20
129.685359649
10
64.8791291775
20
129.733108703
10
64.8934634521
20
129.781926286
10
64.9053468376
20
129.831743338
10
64.9147100595
20
129.882490796
10
64.9214838435
20
129.9340996
10
64.9255989151
20
129.986500688
10
64.926986
20
130.039625
10
64.9255989151
20
130.092717319
10
64.9214838435
20
130.145090609
10
64.9147100595
20
130.196675596
10
64.9053468376
20
130.247403005
10
64.8934634521
20
130.297203562
10
64.8791291775
20
130.346007993
10
64.8624132881
20
130.393747023
10
64.8433850585
20
130.440351377
10
64.822113763
20
130.485751782
10
64.798668676
20
130.529878963
10
64.7731190719
20
130.572663645
10
64.7455342252
20
130.614036554
10
64.7159834102
20
130.653928416
10
64.6845359014
20
130.692269956
10
64.6512609731
20
130.7289919
10
64.6162278999
20
130.764024973
10
64.5795059561
20
130.797299901
10
64.541164416
20
130.82874741
10
64.5012725542
20
130.858298225
10
64.4598996451
20
130.885883072
10
64.4171149629
20
130.911432676
10
64.3729877823
20
130.934877763
10
64.3275873775
20
130.956149059
10
64.280983023
20
130.975177288
10
64.2332439932
20
130.991893177
10
64.1844395625
20
131.006227452
10
64.1346390053
20
131.018110838
10
64.0839115961
20
131.02747406
10
64.0323266091
20
131.034247844
10
63.979953319
20
131.038362915
10
63.926861
20
131.03975
10
63.873768681
20
131.038362915
10
63.8213953909
20
131.034247844
10
63.7698104039
20
131.02747406
0
LWPOLYLINE
5
9C
100
AcDbEntity
8
cut
6
ByLayer
62
256
370
-1
100
AcDbPolyline
90
5
70
1
43
0
10
90.308642
20
106.647566
10
90.308642
20
94.797831
10
90.308642
20
94.797831
10
93.158702
20
94.797831
10
93.158702
20
106.647566
0
LWPOLYLINE
5
9D
100
AcDbEntity
8
cut
6
ByLayer
62
256
370
-1
100
AcDbPolyline
90
5
70
1
43
0
10
114.091861
20
107.731017
10
114.091861
20
148.231317
10
93.841711
20
148.231317
10
93.841711
20
107.731017
10
93.841711
20
107.731017
0
LWPOLYLINE
5
9E
100
AcDbEntity
8
cut
6
ByLayer
62
256
370
-1
100
AcDbPolyline
90
5
70
1
43
0
10
133.345061
20
94.797831
10
136.195121
20
94.797831
10
136.195121
20
106.647566
10
133.345061
20
106.647566
10
133.345061
20
94.797831
0
LWPOLYLINE
5
9F
100
AcDbEntity
8
cut
6
ByLayer
62
256
370
-1
100
AcDbPolyline
90
5
70
1
43
0
10
133.345061
20
156.175519
10
136.195121
20
156.175519
10
136.195121
20
168.025254
10
133.345061
20
168.025254
10
133.345061
20
156.175519
0
LWPOLYLINE
5
A0
100
AcDbEntity
8
cut
6
ByLayer
62
256
370
-1
100
AcDbPolyline
90
5
70
1
43
0
10
90.308642
20
168.025254
10
90.308642
20
156.175519
10
90.308642
20
156.175519
10
93.158702
20
156.175519
10
93.158702
20
168.025254
0
LWPOLYLINE
5
A1
100
AcDbEntity
8
cut
6
ByLayer
62
256
370
-1
100
AcDbPolyline
90
5
70
1
43
0
10
175.984606
20
107.731017
10
196.235144
20
107.731017
10
196.235144
20
148.231317
10
175.984606
20
148.231317
10
175.984606
20
107.731017
0
LWPOLYLINE
5
A2
100
AcDbEntity
8
cut
6
ByLayer
62
256
370
-1
100
AcDbPolyline
90
5
70
1
43
0
10
196.917733
20
156.175519
10
199.767793
20
156.175519
10
199.767793
20
168.025254
10
196.917733
20
168.025254
10
196.917733
20
156.175519
0
LWPOLYLINE
5
A3
100
AcDbEntity
8
cut
6
ByLayer
62
256
370
-1
100
AcDbPolyline
90
5
70
1
43
0
10
153.881314
20
168.025254
10
153.881314
20
156.175519
10
153.881314
20
156.175519
10
156.731374
20
156.175519
10
156.731374
20
168.025254
0
LWPOLYLINE
5
A4
100
AcDbEntity
8
cut
6
ByLayer
62
256
370
-1
100
AcDbPolyline
90
5
70
1
43
0
10
153.881314
20
106.647566
10
153.881314
20
94.797831
10
153.881314
20
94.797831
10
156.731374
20
94.797831
10
156.731374
20
106.647566
0
LWPOLYLINE
5
A5
100
AcDbEntity
8
cut
6
ByLayer
62
256
370
-1
100
AcDbPolyline
90
5
70
1
43
0
10
196.917733
20
94.797831
10
199.767793
20
94.797831
10
199.767793
20
106.647566
10
196.917733
20
106.647566
10
196.917733
20
94.797831
0
LWPOLYLINE
5
A6
100
AcDbEntity
8
cut
6
ByLayer
62
256
370
-1
100
AcDbPolyline
90
5
70
1
43
0
10
64.337847
20
92.189392
10
69.337767
20
92.189392
10
69.337767
20
97.189593
10
64.337847
20
97.189593
10
64.337847
20
92.189392
0
LWPOLYLINE
5
A7
100
AcDbEntity
8
cut
6
ByLayer
62
256
370
-1
100
AcDbPolyline
90
5
70
1
43
0
10
15.35176
20
92.189392
10
15.35176
20
97.189593
10
10.351841
20
97.189593
10
10.351841
20
92.189392
10
10.351841
20
92.189392
0
LWPOLYLINE
5
A8
100
AcDbEntity
8
cut
6
ByLayer
62
256
370
-1
100
AcDbPolyline
90
5
70
1
43
0
10
10.351841
20
51.739116
10
10.351841
20
46.738914
10
10.351841
20
46.738914
10
15.35176
20
46.738914
10
15.35176
20
51.739116
0
LWPOLYLINE
5
A9
100
AcDbEntity
8
cut
6
ByLayer
62
256
370
-1
100
AcDbPolyline
90
5
70
1
43
0
10
64.337847
20
51.769948
10
64.337847
20
46.769606
10
64.337847
20
46.769606
10
69.337767
20
46.769606
10
69.337767
20
51.769948
0
LINE
5
AA
100
AcDbEntity
8
cut
6
ByLayer
62
256
370
-1
100
AcDbLine
10
81.067978
20
33.469091
11
81.067978
21
33.469091
0
ARC
5
AB
100
AcDbEntity
8
cut
6
ByLayer
62
256
370
-1
100
AcDbCircle
10
83.067978
20
80.474863
40
2
100
AcDbArc
50
90
51
180
0
LINE
5
AC
100
AcDbEntity
8
cut
6
ByLayer
62
256
370
-1
100
AcDbLine
10
189.06797
20
82.474863
11
83.067978
21
82.474863
0
ARC
5
AD
100
AcDbEntity
8
cut
6
ByLayer
62
256
370
-1
100
AcDbCircle
10
189.06797
20
80.474863
40
2
100
AcDbArc
50
0
51
90
0
LINE
5
AE
100
AcDbEntity
8
cut
6
ByLayer
62
256
370
-1
100
AcDbLine
10
191.06797
20
35.469091
11
191.06797
21
80.474863
0
ARC
5
AF
100
AcDbEntity
8
cut
6
ByLayer
62
256
370
-1
100
AcDbCircle
10
189.06797
20
35.469091
40
2
100
AcDbArc
50
270
51
0
0
LINE
5
B0
100
AcDbEntity
8
cut
6
ByLayer
62
256
370
-1
100
AcDbLine
10
83.067978
20
33.469091
11
189.06797
21
33.469091
0
LINE
5
B1
100
AcDbEntity
8
cut
6
ByLayer
62
256
370
-1
100
AcDbLine
10
81.067978
20
80.474863
11
81.067978
21
35.469091
0
ARC
5
B2
100
AcDbEntity
8
cut
6
ByLayer
62
256
370
-1
100
AcDbCircle
10
83.067978
20
35.469091
40
2
100
AcDbArc
50
180
51
270
0
LWPOLYLINE
5
B3
100
AcDbEntity
8
cut
6
ByLayer
62
256
370
-1
100
AcDbPolyline
90
5
70
1
43
0
10
169.8652
20
63.896844
10
169.8652
20
52.047109
10
169.8652
20
52.047109
10
172.71526
20
52.047109
10
172.71526
20
63.896844
0
LWPOLYLINE
5
B4
100
AcDbEntity
8
cut
6
ByLayer
62
256
370
-1
100
AcDbPolyline
90
5
70
1
43
0
10
99.420276
20
52.047109
10
102.270473
20
52.047109
10
102.270473
20
63.896844
10
99.420276
20
63.896844
10
99.420276
20
52.047109
0
ENDSEC
0
SECTION
2
OBJECTS
0
DICTIONARY
5
C
330
0
100
AcDbDictionary
281
1
3
ACAD_GROUP
350
D
0
DICTIONARY
5
D
330
C
100
AcDbDictionary
281
1
0
ENDSEC
0
EOF
