999
dxfrw 0.5.10
0
SECTION
2
HEADER
9
$ACADVER
1
AC1009
9
$DWGCODEPAGE
3
ANSI_1252
9
$INSBASE
10
0
20
0
30
0
9
$EXTMIN
10
9.00000000001
20
3.548957244
30
0
9
$EXTMAX
10
71.586442932
20
49
30
0
9
$LIMMIN
10
0
20
0
9
$LIMMAX
10
420
20
297
9
$ORTHOMODE
70
0
9
$LTSCALE
40
1
9
$TEXTSTYLE
7
STANDARD
9
$CLAYER
8
0
9
$DIMASZ
40
2.5
9
$DIMLFAC
40
1
9
$DIMSCALE
40
1
9
$DIMEXO
40
0.625
9
$DIMEXE
40
1.25
9
$DIMTXT
40
2.5
9
$DIMTSZ
40
0
9
$DIMUNIT
70
2
9
$DIMSTYLE
2
STANDARD
9
$DIMGAP
40
0.625
9
$DIMTIH
70
0
9
$LUNITS
70
2
9
$LUPREC
70
4
9
$AUNITS
70
0
9
$AUPREC
70
2
9
$GRIDMODE
70
1
9
$SNAPSTYLE
70
0
9
$PLIMMIN
10
0
20
0
9
$PLIMMAX
10
21
20
29.7
0
ENDSEC
0
SECTION
2
CLASSES
0
ENDSEC
0
SECTION
2
TABLES
0
TABLE
2
VPORT
70
1
0
VPORT
2
*ACTIVE
70
0
10
0
20
0
11
1
21
1
12
148.75
22
87.5
13
0
23
0
14
10
24
10
15
10
25
10
16
0
26
0
36
1
17
0
27
0
37
0
40
187.5
41
1.65333333333
42
50
43
0
44
0
50
0
51
0
71
0
72
100
73
1
74
3
75
0
76
1
77
0
78
0
0
ENDTAB
0
TABLE
2
LTYPE
70
4
0
LTYPE
2
BYBLOCK
70
0
3

72
65
73
0
40
0
0
LTYPE
2
BYLAYER
70
0
3

72
65
73
0
40
0
0
LTYPE
2
CONTINUOUS
70
0
3
Solid line
72
65
73
0
40
0
0
LTYPE
2
DOT
70
0
3
Dot . . . . . . . . . . . . . . . . . . . . . .
72
65
73
2
40
6.35
49
0
49
-6.35
0
LTYPE
2
DOT2
70
0
3
Dot (.5x) .....................................
72
65
73
2
40
3.175
49
0
49
-3.175
0
LTYPE
2
DOTX2
70
0
3
Dot (2x) .  .  .  .  .  .  .  .  .  .  .  .  .
72
65
73
2
40
12.7
49
0
49
-12.7
0
LTYPE
2
DASHED
70
0
3
Dot . . . . . . . . . . . . . . . . . . . . . .
72
65
73
2
40
19.05
49
12.7
49
-6.35
0
LTYPE
2
DASHED2
70
0
3
Dashed (.5x) _ _ _ _ _ _ _ _ _ _ _ _ _ _ _ _ _
72
65
73
2
40
9.525
49
6.35
49
-3.175
0
LTYPE
2
DASHEDX2
70
0
3
Dashed (2x) ____  ____  ____  ____  ____  ___
72
65
73
2
40
38.1
49
25.4
49
-12.7
0
LTYPE
2
DASHDOT
70
0
3
Dash dot __ . __ . __ . __ . __ . __ . __ . __
72
65
73
4
40
25.4
49
12.7
49
-6.35
49
0
49
-6.35
0
LTYPE
2
DASHDOT2
70
0
3
Dash dot (.5x) _._._._._._._._._._._._._._._.
72
65
73
4
40
12.7
49
6.35
49
-3.175
49
0
49
-3.175
0
LTYPE
2
DASHDOTX2
70
0
3
Dash dot (2x) ____  .  ____  .  ____  .  ___
72
65
73
4
40
50.8
49
25.4
49
-12.7
49
0
49
-12.7
0
LTYPE
2
DIVIDE
70
0
3
Divide ____ . . ____ . . ____ . . ____ . . ____
72
65
73
6
40
31.75
49
12.7
49
-6.35
49
0
49
-6.35
49
0
49
-6.35
0
LTYPE
2
DIVIDE2
70
0
3
Divide (.5x) __..__..__..__..__..__..__..__.._
72
65
73
6
40
15.875
49
6.35
49
-3.175
49
0
49
-3.175
49
0
49
-3.175
0
LTYPE
2
DIVIDEX2
70
0
3
Divide (2x) ________  .  .  ________  .  .  _
72
65
73
6
40
63.5
49
25.4
49
-12.7
49
0
49
-12.7
49
0
49
-12.7
0
LTYPE
2
BORDER
70
0
3
Border __ __ . __ __ . __ __ . __ __ . __ __ .
72
65
73
6
40
44.45
49
12.7
49
-6.35
49
12.7
49
-6.35
49
0
49
-6.35
0
LTYPE
2
BORDER2
70
0
3
Border (.5x) __.__.__.__.__.__.__.__.__.__.__.
72
65
73
6
40
22.225
49
6.35
49
-3.175
49
6.35
49
-3.175
49
0
49
-3.175
0
LTYPE
2
BORDERX2
70
0
3
Border (2x) ____  ____  .  ____  ____  .  ___
72
65
73
6
40
88.9
49
25.4
49
-12.7
49
25.4
49
-12.7
49
0
49
-12.7
0
LTYPE
2
CENTER
70
0
3
Center ____ _ ____ _ ____ _ ____ _ ____ _ ____
72
65
73
4
40
50.8
49
31.75
49
-6.35
49
6.35
49
-6.35
0
LTYPE
2
CENTER2
70
0
3
Center (.5x) ___ _ ___ _ ___ _ ___ _ ___ _ ___
72
65
73
4
40
28.575
49
19.05
49
-3.175
49
3.175
49
-3.175
0
LTYPE
2
CENTERX2
70
0
3
Center (2x) ________  __  ________  __  _____
72
65
73
4
40
101.6
49
63.5
49
-12.7
49
12.7
49
-12.7
0
ENDTAB
0
TABLE
2
LAYER
70
1
0
LAYER
2
0
70
0
62
7
6
CONTINUOUS
0
ENDTAB
0
TABLE
2
STYLE
70
3
0
STYLE
2
STANDARD
70
0
40
0
41
1
50
0
71
0
42
1
3
TXT
4

0
ENDTAB
0
TABLE
2
VIEW
70
0
0
ENDTAB
0
TABLE
2
UCS
70
0
0
ENDTAB
0
TABLE
2
APPID
70
1
0
APPID
2
ACAD
70
0
0
ENDTAB
0
TABLE
2
DIMSTYLE
70
1
0
DIMSTYLE
2
STANDARD
70
0
3

4

5

6

7

40
1
41
2.5
42
0.625
43
0.38
44
1.25
45
0
46
0
47
0
48
0
140
2.5
141
0.09
142
0
143
25.4
144
1
145
0
146
1
147
0.625
71
0
72
0
73
0
74
1
75
0
76
0
77
0
78
0
170
0
171
2
172
0
173
0
174
0
175
0
176
0
177
0
178
0
0
ENDTAB
0
ENDSEC
0
SECTION
2
BLOCKS
0
BLOCK
8
0
2
$MODEL_SPACE
70
0
10
0
20
0
30
0
3
$MODEL_SPACE
1

0
ENDBLK
8
0
0
BLOCK
8
0
2
$PAPER_SPACE
70
0
10
0
20
0
30
0
3
$PAPER_SPACE
1

0
ENDBLK
8
0
0
ENDSEC
0
SECTION
2
ENTITIES
0
POLYLINE
5
31
8
0
6
BYLAYER
62
256
66
1
10
0
20
0
30
0
70
1
0
VERTEX
5
32
8
0
6
BYLAYER
62
256
10
17.6044166667
20
44.7765833333
30
0
0
VERTEX
5
33
8
0
6
BYLAYER
62
256
10
17.7614035673
20
44.698136326
30
0
0
VERTEX
5
34
8
0
6
BYLAYER
62
256
10
17.913654936
20
44.6058402205
30
0
0
VERTEX
5
35
8
0
6
BYLAYER
62
256
10
18.0599438585
20
44.5009166962
30
0
0
VERTEX
5
36
8
0
6
BYLAYER
62
256
10
18.1990434211
20
44.3845874326
30
0
0
VERTEX
5
37
8
0
6
BYLAYER
62
256
10
18.3297267095
20
44.2580741091
30
0
0
VERTEX
5
38
8
0
6
BYLAYER
62
256
10
18.4507668099
20
44.1225984052
30
0
0
VERTEX
5
39
8
0
6
BYLAYER
62
256
10
18.5609368082
20
43.9793820002
30
0
0
VERTEX
5
3A
8
0
6
BYLAYER
62
256
10
18.6590097905
20
43.8296465736
30
0
0
VERTEX
5
3B
8
0
6
BYLAYER
62
256
10
18.7437588426
20
43.6746138048
30
0
0
VERTEX
5
3C
8
0
6
BYLAYER
62
256
10
18.8140408668
20
43.5155387641
30
0
0
VERTEX
5
3D
8
0
6
BYLAYER
62
256
10
18.8701739701
20
43.3542586416
30
0
0
VERTEX
5
3E
8
0
6
BYLAYER
62
256
10
18.9137174046
20
43.1931050783
30
0
0
VERTEX
5
3F
8
0
6
BYLAYER
62
256
10
18.9462698585
20
43.0344254264
30
0
0
VERTEX
5
40
8
0
6
BYLAYER
62
256
10
18.9694300197
20
42.8805670376
30
0
0
VERTEX
5
41
8
0
6
BYLAYER
62
256
10
18.9847965764
20
42.7338772638
30
0
0
VERTEX
5
42
8
0
6
BYLAYER
62
256
10
18.9939682168
20
42.5967034571
30
0
0
VERTEX
5
43
8
0
6
BYLAYER
62
256
10
18.9985436288
20
42.4713929692
30
0
0
VERTEX
5
44
8
0
6
BYLAYER
62
256
10
19.0001215006
20
42.3602931521
30
0
0
VERTEX
5
45
8
0
6
BYLAYER
62
256
10
19.0003
20
42.26574931
30
0
0
VERTEX
5
46
8
0
6
BYLAYER
62
256
10
19.0003
20
42.1886222205
30
0
0
VERTEX
5
47
8
0
6
BYLAYER
62
256
10
19.0003
20
42.1256712713
30
0
0
VERTEX
5
48
8
0
6
BYLAYER
62
256
10
19.0003
20
42.0729535157
30
0
0
VERTEX
5
49
8
0
6
BYLAYER
62
256
10
19.0003
20
42.0265260068
30
0
0
VERTEX
5
4A
8
0
6
BYLAYER
62
256
10
19.0003
20
41.9824457978
30
0
0
VERTEX
5
4B
8
0
6
BYLAYER
62
256
10
19.0003
20
41.9367699418
30
0
0
VERTEX
5
4C
8
0
6
BYLAYER
62
256
10
19.0003
20
41.885555492
30
0
0
VERTEX
5
4D
8
0
6
BYLAYER
62
256
10
19.0003
20
41.8248595014
30
0
0
VERTEX
5
4E
8
0
6
BYLAYER
62
256
10
19.0003
20
41.7507390233
30
0
0
VERTEX
5
4F
8
0
6
BYLAYER
62
256
10
19.0002134174
20
41.6595915716
30
0
0
VERTEX
5
50
8
0
6
BYLAYER
62
256
10
18.9990196054
20
41.551487594
30
0
0
VERTEX
5
51
8
0
6
BYLAYER
62
256
10
18.9951280072
20
41.4287385425
30
0
0
VERTEX
5
52
8
0
6
BYLAYER
62
256
10
18.9869399347
20
41.293687843
30
0
0
VERTEX
5
53
8
0
6
BYLAYER
62
256
10
18.9728566999
20
41.1486789216
30
0
0
VERTEX
5
54
8
0
6
BYLAYER
62
256
10
18.9512796146
20
40.9960552041
30
0
0
VERTEX
5
55
8
0
6
BYLAYER
62
256
10
18.9206099907
20
40.8381601165
30
0
0
VERTEX
5
56
8
0
6
BYLAYER
62
256
10
18.8792491401
20
40.6773370849
30
0
0
VERTEX
5
57
8
0
6
BYLAYER
62
256
10
18.8255983747
20
40.5159295351
30
0
0
VERTEX
5
58
8
0
6
BYLAYER
62
256
10
18.7580663648
20
40.3562779823
30
0
0
VERTEX
5
59
8
0
6
BYLAYER
62
256
10
18.6759521396
20
40.2003707113
30
0
0
VERTEX
5
5A
8
0
6
BYLAYER
62
256
10
18.5802839379
20
40.0495119244
30
0
0
VERTEX
5
5B
8
0
6
BYLAYER
62
256
10
18.4722886738
20
39.9049272269
30
0
0
VERTEX
5
5C
8
0
6
BYLAYER
62
256
10
18.3531932612
20
39.7678422242
30
0
0
VERTEX
5
5D
8
0
6
BYLAYER
62
256
10
18.2242246142
20
39.6394825216
30
0
0
VERTEX
5
5E
8
0
6
BYLAYER
62
256
10
18.0866096467
20
39.5210737245
30
0
0
VERTEX
5
5F
8
0
6
BYLAYER
62
256
10
17.9415752728
20
39.4138414383
30
0
0
VERTEX
5
60
8
0
6
BYLAYER
62
256
10
17.7903484064
20
39.3190112682
30
0
0
VERTEX
5
61
8
0
6
BYLAYER
62
256
10
17.6341559617
20
39.2378088197
30
0
0
VERTEX
5
62
8
0
6
BYLAYER
62
256
10
17.474324558
20
39.1712072597
30
0
0
VERTEX
5
63
8
0
6
BYLAYER
62
256
10
17.3128888287
20
39.1183871779
30
0
0
VERTEX
5
64
8
0
6
BYLAYER
62
256
10
17.1521897846
20
39.0777534643
30
0
0
VERTEX
5
65
8
0
6
BYLAYER
62
256
10
16.994569662
20
39.0477079068
30
0
0
VERTEX
5
66
8
0
6
BYLAYER
62
256
10
16.8423706972
20
39.026652293
30
0
0
VERTEX
5
67
8
0
6
BYLAYER
62
256
10
16.6979351266
20
39.0129884108
30
0
0
VERTEX
5
68
8
0
6
BYLAYER
62
256
10
16.5636051864
20
39.005118048
30
0
0
VERTEX
5
69
8
0
6
BYLAYER
62
256
10
16.441723113
20
39.0014429923
30
0
0
VERTEX
5
6A
8
0
6
BYLAYER
62
256
10
16.3346311426
20
39.0003650314
30
0
0
VERTEX
5
6B
8
0
6
BYLAYER
62
256
10
16.2446162737
20
39.0003
30
0
0
VERTEX
5
6C
8
0
6
BYLAYER
62
256
10
16.1714634404
20
39.0003
30
0
0
VERTEX
5
6D
8
0
6
BYLAYER
62
256
10
16.111485783
20
39.0003
30
0
0
VERTEX
5
6E
8
0
6
BYLAYER
62
256
10
16.0607407114
20
39.0003
30
0
0
VERTEX
5
6F
8
0
6
BYLAYER
62
256
10
16.0152856358
20
39.0003
30
0
0
VERTEX
5
70
8
0
6
BYLAYER
62
256
10
15.9711779661
20
39.0003
30
0
0
VERTEX
5
71
8
0
6
BYLAYER
62
256
10
15.9244751125
20
39.0003
30
0
0
VERTEX
5
72
8
0
6
BYLAYER
62
256
10
15.871234485
20
39.0003
30
0
0
VERTEX
5
73
8
0
6
BYLAYER
62
256
10
15.8075134936
20
39.0003
30
0
0
VERTEX
5
74
8
0
6
BYLAYER
62
256
10
15.7293695485
20
39.0003
30
0
0
VERTEX
5
75
8
0
6
BYLAYER
62
256
10
15.6337238516
20
39.000519481
30
0
0
VERTEX
5
76
8
0
6
BYLAYER
62
256
10
15.5216670975
20
39.0022373511
30
0
0
VERTEX
5
77
8
0
6
BYLAYER
62
256
10
15.3955463821
20
39.0070517573
30
0
0
VERTEX
5
78
8
0
6
BYLAYER
62
256
10
15.2577090573
20
39.016560912
30
0
0
VERTEX
5
79
8
0
6
BYLAYER
62
256
10
15.1105024751
20
39.0323630274
30
0
0
VERTEX
5
7A
8
0
6
BYLAYER
62
256
10
14.9562739872
20
39.0560563156
30
0
0
VERTEX
5
7B
8
0
6
BYLAYER
62
256
10
14.7973709458
20
39.0892389889
30
0
0
VERTEX
5
7C
8
0
6
BYLAYER
62
256
10
14.6361407025
20
39.1335092596
30
0
0
VERTEX
5
7D
8
0
6
BYLAYER
62
256
10
14.4749306094
20
39.1904653399
30
0
0
VERTEX
5
7E
8
0
6
BYLAYER
62
256
10
14.3160645669
20
39.2616466125
30
0
0
VERTEX
5
7F
8
0
6
BYLAYER
62
256
10
14.1613270906
20
39.3472393808
30
0
0
VERTEX
5
80
8
0
6
BYLAYER
62
256
10
14.0119633114
20
39.446076869
30
0
0
VERTEX
5
81
8
0
6
BYLAYER
62
256
10
13.8691949089
20
39.5569334717
30
0
0
VERTEX
5
82
8
0
6
BYLAYER
62
256
10
13.7342435623
20
39.6785835836
30
0
0
VERTEX
5
83
8
0
6
BYLAYER
62
256
10
13.6083309512
20
39.8098015993
30
0
0
VERTEX
5
84
8
0
6
BYLAYER
62
256
10
13.4926787549
20
39.9493619135
30
0
0
VERTEX
5
85
8
0
6
BYLAYER
62
256
10
13.3885086529
20
40.0960389207
30
0
0
VERTEX
5
86
8
0
6
BYLAYER
62
256
10
13.2970423246
20
40.2486070157
30
0
0
VERTEX
5
87
8
0
6
BYLAYER
62
256
10
13.2195013348
20
40.4058405476
30
0
0
VERTEX
5
88
8
0
6
BYLAYER
62
256
10
13.1565442426
20
40.5662905834
30
0
0
VERTEX
5
89
8
0
6
BYLAYER
62
256
10
13.106961218
20
40.7277672064
30
0
0
VERTEX
5
8A
8
0
6
BYLAYER
62
256
10
13.0691553573
20
40.8879269908
30
0
0
VERTEX
5
8B
8
0
6
BYLAYER
62
256
10
13.041529757
20
41.0444265104
30
0
0
VERTEX
5
8C
8
0
6
BYLAYER
62
256
10
13.0224875134
20
41.1949223394
30
0
0
VERTEX
5
8D
8
0
6
BYLAYER
62
256
10
13.0104317231
20
41.3370710517
30
0
0
VERTEX
5
8E
8
0
6
BYLAYER
62
256
10
13.0037654823
20
41.4685292214
30
0
0
VERTEX
5
8F
8
0
6
BYLAYER
62
256
10
13.0008918876
20
41.5869534225
30
0
0
VERTEX
5
90
8
0
6
BYLAYER
62
256
10
13.0002140353
20
41.690000229
30
0
0
VERTEX
5
91
8
0
6
BYLAYER
62
256
10
13.0002
20
41.7755820081
30
0
0
VERTEX
5
92
8
0
6
BYLAYER
62
256
10
13.0002
20
41.8450837751
30
0
0
VERTEX
5
93
8
0
6
BYLAYER
62
256
10
13.0002
20
41.9023932255
30
0
0
VERTEX
5
94
8
0
6
BYLAYER
62
256
10
13.0002
20
41.951453306
30
0
0
VERTEX
5
95
8
0
6
BYLAYER
62
256
10
13.0002
20
41.9962069636
30
0
0
VERTEX
5
96
8
0
6
BYLAYER
62
256
10
13.0002
20
42.0405971451
30
0
0
VERTEX
5
97
8
0
6
BYLAYER
62
256
10
13.0002
20
42.0885667973
30
0
0
VERTEX
5
98
8
0
6
BYLAYER
62
256
10
13.0002
20
42.1440588671
30
0
0
VERTEX
5
99
8
0
6
BYLAYER
62
256
10
13.0002
20
42.2110163014
30
0
0
VERTEX
5
9A
8
0
6
BYLAYER
62
256
10
13.0002017544
20
42.2933751363
30
0
0
VERTEX
5
9B
8
0
6
BYLAYER
62
256
10
13.0006456853
20
42.3933434697
30
0
0
VERTEX
5
9C
8
0
6
BYLAYER
62
256
10
13.0029859392
20
42.5091362784
30
0
0
VERTEX
5
9D
8
0
6
BYLAYER
62
256
10
13.0088194197
20
42.6384062104
30
0
0
VERTEX
5
9E
8
0
6
BYLAYER
62
256
10
13.0197430303
20
42.7788059138
30
0
0
VERTEX
5
9F
8
0
6
BYLAYER
62
256
10
13.0373536748
20
42.9279880367
30
0
0
VERTEX
5
A0
8
0
6
BYLAYER
62
256
10
13.0632482566
20
43.0836052272
30
0
0
VERTEX
5
A1
8
0
6
BYLAYER
62
256
10
13.0990236793
20
43.2433101333
30
0
0
VERTEX
5
A2
8
0
6
BYLAYER
62
256
10
13.1462768465
20
43.4047554033
30
0
0
VERTEX
5
A3
8
0
6
BYLAYER
62
256
10
13.2066046619
20
43.5655936851
30
0
0
VERTEX
5
A4
8
0
6
BYLAYER
62
256
10
13.2814058474
20
43.7235567757
30
0
0
VERTEX
5
A5
8
0
6
BYLAYER
62
256
10
13.3703542108
20
43.8770653602
30
0
0
VERTEX
5
A6
8
0
6
BYLAYER
62
256
10
13.4722354128
20
44.0248948276
30
0
0
VERTEX
5
A7
8
0
6
BYLAYER
62
256
10
13.585827774
20
44.1658234986
30
0
0
VERTEX
5
A8
8
0
6
BYLAYER
62
256
10
13.709909615
20
44.2986296938
30
0
0
VERTEX
5
A9
8
0
6
BYLAYER
62
256
10
13.8432592563
20
44.4220917336
30
0
0
VERTEX
5
AA
8
0
6
BYLAYER
62
256
10
13.9846550184
20
44.5349879388
30
0
0
VERTEX
5
AB
8
0
6
BYLAYER
62
256
10
14.1328752221
20
44.6360966298
30
0
0
VERTEX
5
AC
8
0
6
BYLAYER
62
256
10
14.2866981878
20
44.7241961272
30
0
0
VERTEX
5
AD
8
0
6
BYLAYER
62
256
10
14.4448965107
20
44.7980790877
30
0
0
VERTEX
5
AE
8
0
6
BYLAYER
62
256
10
14.6058414993
20
44.8575429533
30
0
0
VERTEX
5
AF
8
0
6
BYLAYER
62
256
10
14.7672467666
20
44.9040319772
30
0
0
VERTEX
5
B0
8
0
6
BYLAYER
62
256
10
14.9267649606
20
44.9391430631
30
0
0
VERTEX
5
B1
8
0
6
BYLAYER
62
256
10
15.0820487295
20
44.9644731146
30
0
0
VERTEX
5
B2
8
0
6
BYLAYER
62
256
10
15.2307507212
20
44.9816190351
30
0
0
VERTEX
5
B3
8
0
6
BYLAYER
62
256
10
15.370523584
20
44.9921777283
30
0
0
VERTEX
5
B4
8
0
6
BYLAYER
62
256
10
15.4990199658
20
44.9977460979
30
0
0
VERTEX
5
B5
8
0
6
BYLAYER
62
256
10
15.6138925149
20
44.9999210473
30
0
0
VERTEX
5
B6
8
0
6
BYLAYER
62
256
10
15.7127938792
20
45.0002994802
30
0
0
VERTEX
5
B7
8
0
6
BYLAYER
62
256
10
15.7940790018
20
45.0003
30
0
0
VERTEX
5
B8
8
0
6
BYLAYER
62
256
10
15.8602039825
20
45.0003
30
0
0
VERTEX
5
B9
8
0
6
BYLAYER
62
256
10
15.9151093638
20
45.0003
30
0
0
VERTEX
5
BA
8
0
6
BYLAYER
62
256
10
15.9627377356
20
45.0003
30
0
0
VERTEX
5
BB
8
0
6
BYLAYER
62
256
10
16.0070316877
20
45.0003
30
0
0
VERTEX
5
BC
8
0
6
BYLAYER
62
256
10
16.0519338103
20
45.0003
30
0
0
VERTEX
5
BD
8
0
6
BYLAYER
62
256
10
16.1013866932
20
45.0003
30
0
0
VERTEX
5
BE
8
0
6
BYLAYER
62
256
10
16.1593329263
20
45.0003
30
0
0
VERTEX
5
BF
8
0
6
BYLAYER
62
256
10
16.2297150996
20
45.0003
30
0
0
VERTEX
5
C0
8
0
6
BYLAYER
62
256
10
16.3163880877
20
45.0002777125
30
0
0
VERTEX
5
C1
8
0
6
BYLAYER
62
256
10
16.420446157
20
44.9995094106
30
0
0
VERTEX
5
C2
8
0
6
BYLAYER
62
256
10
16.5397334987
20
44.9964455597
30
0
0
VERTEX
5
C3
8
0
6
BYLAYER
62
256
10
16.6719078764
20
44.9894892564
30
0
0
VERTEX
5
C4
8
0
6
BYLAYER
62
256
10
16.8146270538
20
44.977043597
30
0
0
VERTEX
5
C5
8
0
6
BYLAYER
62
256
10
16.9655487947
20
44.957511678
30
0
0
VERTEX
5
C6
8
0
6
BYLAYER
62
256
10
17.1223308627
20
44.9292965956
30
0
0
VERTEX
5
C7
8
0
6
BYLAYER
62
256
10
17.2826310216
20
44.8908014465
30
0
0
VERTEX
5
C8
8
0
6
BYLAYER
62
256
10
17.444107035
20
44.8404293269
30
0
0
SEQEND
5
C9
8
0
6
BYLAYER
62
256
0
POLYLINE
5
CA
8
0
6
BYLAYER
62
256
66
1
10
0
20
0
30
0
70
1
0
VERTEX
5
CB
8
0
6
BYLAYER
62
256
10
24.891416232
20
15.0304007984
30
0
0
VERTEX
5
CC
8
0
6
BYLAYER
62
256
10
25.12346394
20
14.8358243388
30
0
0
VERTEX
5
CD
8
0
6
BYLAYER
62
256
10
25.3513282
20
14.6641078344
30
0
0
VERTEX
5
CE
8
0
6
BYLAYER
62
256
10
25.574419212
20
14.5162299944
30
0
0
VERTEX
5
CF
8
0
6
BYLAYER
62
256
10
25.792147176
20
14.393169528
30
0
0
VERTEX
5
D0
8
0
6
BYLAYER
62
256
10
25.841393616
20
14.3676080988
30
0
0
VERTEX
5
D1
8
0
6
BYLAYER
62
256
10
25.894706764
20
14.3394207252
30
0
0
VERTEX
5
D2
8
0
6
BYLAYER
62
256
10
25.951902252
20
14.308715874
30
0
0
VERTEX
5
D3
8
0
6
BYLAYER
62
256
10
26.012795696
20
14.2756020144
30
0
0
VERTEX
5
D4
8
0
6
BYLAYER
62
256
10
26.077202728
20
14.2401876136
30
0
0
VERTEX
5
D5
8
0
6
BYLAYER
62
256
10
26.144938972
20
14.20258114
30
0
0
VERTEX
5
D6
8
0
6
BYLAYER
62
256
10
26.215820056
20
14.162891062
30
0
0
VERTEX
5
D7
8
0
6
BYLAYER
62
256
10
26.289661596
20
14.1212258468
30
0
0
VERTEX
5
D8
8
0
6
BYLAYER
62
256
10
26.366279228
20
14.0776939628
30
0
0
VERTEX
5
D9
8
0
6
BYLAYER
62
256
10
26.445488572
20
14.0324038784
30
0
0
VERTEX
5
DA
8
0
6
BYLAYER
62
256
10
26.527105256
20
13.9854640616
30
0
0
VERTEX
5
DB
8
0
6
BYLAYER
62
256
10
26.6109449
20
13.9369829796
30
0
0
VERTEX
5
DC
8
0
6
BYLAYER
62
256
10
26.696823136
20
13.8870691012
30
0
0
VERTEX
5
DD
8
0
6
BYLAYER
62
256
10
26.784555584
20
13.8358308944
30
0
0
VERTEX
5
DE
8
0
6
BYLAYER
62
256
10
26.873957872
20
13.7833768272
30
0
0
VERTEX
5
DF
8
0
6
BYLAYER
62
256
10
26.964845624
20
13.7298153672
30
0
0
VERTEX
5
E0
8
0
6
BYLAYER
62
256
10
27.057034468
20
13.6752549828
30
0
0
VERTEX
5
E1
8
0
6
BYLAYER
62
256
10
27.150340028
20
13.6198041424
30
0
0
VERTEX
5
E2
8
0
6
BYLAYER
62
256
10
27.244577928
20
13.5635713132
30
0
0
VERTEX
5
E3
8
0
6
BYLAYER
62
256
10
27.339563792
20
13.5066649636
30
0
0
VERTEX
5
E4
8
0
6
BYLAYER
62
256
10
27.435113252
20
13.449193562
30
0
0
VERTEX
5
E5
8
0
6
BYLAYER
62
256
10
27.531041924
20
13.391265576
30
0
0
VERTEX
5
E6
8
0
6
BYLAYER
62
256
10
27.627165444
20
13.332989474
30
0
0
VERTEX
5
E7
8
0
6
BYLAYER
62
256
10
27.723299428
20
13.2744737236
30
0
0
VERTEX
5
E8
8
0
6
BYLAYER
62
256
10
27.819259504
20
13.2158267928
30
0
0
VERTEX
5
E9
8
0
6
BYLAYER
62
256
10
27.9148613
20
13.15715715
30
0
0
VERTEX
5
EA
8
0
6
BYLAYER
62
256
10
28.009920436
20
13.0985732632
30
0
0
VERTEX
5
EB
8
0
6
BYLAYER
62
256
10
28.104252544
20
13.0401836004
30
0
0
VERTEX
5
EC
8
0
6
BYLAYER
62
256
10
28.197673244
20
12.9820966296
30
0
0
VERTEX
5
ED
8
0
6
BYLAYER
62
256
10
28.289998168
20
12.9244208188
30
0
0
VERTEX
5
EE
8
0
6
BYLAYER
62
256
10
28.381042932
20
12.867264636
30
0
0
VERTEX
5
EF
8
0
6
BYLAYER
62
256
10
28.472555696
20
12.8098200232
30
0
0
VERTEX
5
F0
8
0
6
BYLAYER
62
256
10
28.566270324
20
12.7512891856
30
0
0
VERTEX
5
F1
8
0
6
BYLAYER
62
256
10
28.66198014
20
12.6917954236
30
0
0
VERTEX
5
F2
8
0
6
BYLAYER
62
256
10
28.75947848
20
12.6314620368
30
0
0
VERTEX
5
F3
8
0
6
BYLAYER
62
256
10
28.858558684
20
12.5704123248
30
0
0
VERTEX
5
F4
8
0
6
BYLAYER
62
256
10
28.95901408
20
12.5087695868
30
0
0
VERTEX
5
F5
8
0
6
BYLAYER
62
256
10
29.060638004
20
12.4466571232
30
0
0
VERTEX
5
F6
8
0
6
BYLAYER
62
256
10
29.163223788
20
12.3841982332
30
0
0
VERTEX
5
F7
8
0
6
BYLAYER
62
256
10
29.266564768
20
12.3215162168
30
0
0
VERTEX
5
F8
8
0
6
BYLAYER
62
256
10
29.370454272
20
12.2587343736
30
0
0
VERTEX
5
F9
8
0
6
BYLAYER
62
256
10
29.47468564
20
12.1959760036
30
0
0
VERTEX
5
FA
8
0
6
BYLAYER
62
256
10
29.579052208
20
12.1333644056
30
0
0
VERTEX
5
FB
8
0
6
BYLAYER
62
256
10
29.6833473
20
12.07102288
30
0
0
VERTEX
5
FC
8
0
6
BYLAYER
62
256
10
29.787364256
20
12.0090747264
30
0
0
VERTEX
5
FD
8
0
6
BYLAYER
62
256
10
29.890896412
20
11.9476432444
30
0
0
VERTEX
5
FE
8
0
6
BYLAYER
62
256
10
29.993737096
20
11.886851734
30
0
0
VERTEX
5
FF
8
0
6
BYLAYER
62
256
10
30.095679644
20
11.826823494
30
0
0
VERTEX
5
100
8
0
6
BYLAYER
62
256
10
30.196517392
20
11.7676818252
30
0
0
VERTEX
5
101
8
0
6
BYLAYER
62
256
10
30.296043668
20
11.7095500264
30
0
0
VERTEX
5
102
8
0
6
BYLAYER
62
256
10
30.394051812
20
11.652551398
30
0
0
VERTEX
5
103
8
0
6
BYLAYER
62
256
10
30.490335152
20
11.5968092392
30
0
0
VERTEX
5
104
8
0
6
BYLAYER
62
256
10
30.584687028
20
11.54244685
30
0
0
VERTEX
5
105
8
0
6
BYLAYER
62
256
10
30.676900768
20
11.4895875296
30
0
0
VERTEX
5
106
8
0
6
BYLAYER
62
256
10
30.766769712
20
11.4383545784
30
0
0
VERTEX
5
107
8
0
6
BYLAYER
62
256
10
30.854087184
20
11.3888712956
30
0
0
VERTEX
5
108
8
0
6
BYLAYER
62
256
10
30.938646528
20
11.3412609808
30
0
0
VERTEX
5
109
8
0
6
BYLAYER
62
256
10
31.020241072
20
11.295646934
30
0
0
VERTEX
5
10A
8
0
6
BYLAYER
62
256
10
31.098664152
20
11.2521524552
30
0
0
VERTEX
5
10B
8
0
6
BYLAYER
62
256
10
31.173709096
20
11.2109008432
30
0
0
VERTEX
5
10C
8
0
6
BYLAYER
62
256
10
31.245169248
20
11.1720153984
30
0
0
VERTEX
5
10D
8
0
6
BYLAYER
62
256
10
31.312837932
20
11.13561942
30
0
0
VERTEX
5
10E
8
0
6
BYLAYER
62
256
10
31.382441188
20
11.0983500968
30
0
0
VERTEX
5
10F
8
0
6
BYLAYER
62
256
10
31.459639788
20
11.056873048
30
0
0
VERTEX
5
110
8
0
6
BYLAYER
62
256
10
31.544129168
20
11.0113542212
30
0
0
VERTEX
5
111
8
0
6
BYLAYER
62
256
10
31.635604772
20
10.9619595632
30
0
0
VERTEX
5
112
8
0
6
BYLAYER
62
256
10
31.73376204
20
10.9088550212
30
0
0
VERTEX
5
113
8
0
6
BYLAYER
62
256
10
31.838296416
20
10.8522065416
30
0
0
VERTEX
5
114
8
0
6
BYLAYER
62
256
10
31.948903332
20
10.7921800724
30
0
0
VERTEX
5
115
8
0
6
BYLAYER
62
256
10
32.065278236
20
10.72894156
30
0
0
VERTEX
5
116
8
0
6
BYLAYER
62
256
10
32.187116564
20
10.6626569516
30
0
0
VERTEX
5
117
8
0
6
BYLAYER
62
256
10
32.31411376
20
10.593492194
30
0
0
VERTEX
5
118
8
0
6
BYLAYER
62
256
10
32.44596526
20
10.5216132348
30
0
0
VERTEX
5
119
8
0
6
BYLAYER
62
256
10
32.582366508
20
10.4471860204
30
0
0
VERTEX
5
11A
8
0
6
BYLAYER
62
256
10
32.723012944
20
10.370376498
30
0
0
VERTEX
5
11B
8
0
6
BYLAYER
62
256
10
32.867600008
20
10.2913506152
30
0
0
VERTEX
5
11C
8
0
6
BYLAYER
62
256
10
33.01582314
20
10.210274318
30
0
0
VERTEX
5
11D
8
0
6
BYLAYER
62
256
10
33.16737778
20
10.1273135544
30
0
0
VERTEX
5
11E
8
0
6
BYLAYER
62
256
10
33.321959372
20
10.0426342712
30
0
0
VERTEX
5
11F
8
0
6
BYLAYER
62
256
10
33.479263352
20
9.9564024148
30
0
0
VERTEX
5
120
8
0
6
BYLAYER
62
256
10
33.63898516
20
9.8687839332
30
0
0
VERTEX
5
121
8
0
6
BYLAYER
62
256
10
33.80082024
20
9.7799447728
30
0
0
VERTEX
5
122
8
0
6
BYLAYER
62
256
10
33.964464032
20
9.6900508804
30
0
0
VERTEX
5
123
8
0
6
BYLAYER
62
256
10
34.129611972
20
9.599268204
30
0
0
VERTEX
5
124
8
0
6
BYLAYER
62
256
10
34.295959504
20
9.5077626896
30
0
0
VERTEX
5
125
8
0
6
BYLAYER
62
256
10
34.463202072
20
9.4157002848
30
0
0
VERTEX
5
126
8
0
6
BYLAYER
62
256
10
34.631035112
20
9.3232469368
30
0
0
VERTEX
5
127
8
0
6
BYLAYER
62
256
10
34.799154064
20
9.230568592
30
0
0
VERTEX
5
128
8
0
6
BYLAYER
62
256
10
34.967254368
20
9.137831198
30
0
0
VERTEX
5
129
8
0
6
BYLAYER
62
256
10
35.135031468
20
9.0452007012
30
0
0
VERTEX
5
12A
8
0
6
BYLAYER
62
256
10
35.3021808
20
8.9528430496
30
0
0
VERTEX
5
12B
8
0
6
BYLAYER
62
256
10
35.468397808
20
8.8609241896
30
0
0
VERTEX
5
12C
8
0
6
BYLAYER
62
256
10
35.633377932
20
8.769610068
30
0
0
VERTEX
5
12D
8
0
6
BYLAYER
62
256
10
35.801631016
20
8.6767657024
30
0
0
VERTEX
5
12E
8
0
6
BYLAYER
62
256
10
35.977557596
20
8.580307548
30
0
0
VERTEX
5
12F
8
0
6
BYLAYER
62
256
10
36.16068914
20
8.4804792756
30
0
0
VERTEX
5
130
8
0
6
BYLAYER
62
256
10
36.350557116
20
8.3775245544
30
0
0
VERTEX
5
131
8
0
6
BYLAYER
62
256
10
36.546692996
20
8.2716870548
30
0
0
VERTEX
5
132
8
0
6
BYLAYER
62
256
10
36.748628252
20
8.1632104468
30
0
0
VERTEX
5
133
8
0
6
BYLAYER
62
256
10
36.955894348
20
8.0523384
30
0
0
VERTEX
5
134
8
0
6
BYLAYER
62
256
10
37.168022756
20
7.9393145848
30
0
0
VERTEX
5
135
8
0
6
BYLAYER
62
256
10
37.384544952
20
7.8243826712
30
0
0
VERTEX
5
136
8
0
6
BYLAYER
62
256
10
37.604992396
20
7.7077863288
30
0
0
VERTEX
5
137
8
0
6
BYLAYER
62
256
10
37.828896564
20
7.5897692276
30
0
0
VERTEX
5
138
8
0
6
BYLAYER
62
256
10
38.055788924
20
7.4705750376
30
0
0
VERTEX
5
139
8
0
6
BYLAYER
62
256
10
38.285200948
20
7.3504474292
30
0
0
VERTEX
5
13A
8
0
6
BYLAYER
62
256
10
38.516664104
20
7.229630072
30
0
0
VERTEX
5
13B
8
0
6
BYLAYER
62
256
10
38.74970986
20
7.1083666356
30
0
0
VERTEX
5
13C
8
0
6
BYLAYER
62
256
10
38.983869688
20
6.9869007908
30
0
0
VERTEX
5
13D
8
0
6
BYLAYER
62
256
10
39.21867506
20
6.8654762068
30
0
0
VERTEX
5
13E
8
0
6
BYLAYER
62
256
10
39.45365744
20
6.7443365544
30
0
0
VERTEX
5
13F
8
0
6
BYLAYER
62
256
10
39.688348304
20
6.6237255028
30
0
0
VERTEX
5
140
8
0
6
BYLAYER
62
256
10
39.92227912
20
6.503886722
30
0
0
VERTEX
5
141
8
0
6
BYLAYER
62
256
10
40.154981352
20
6.3850638824
30
0
0
VERTEX
5
142
8
0
6
BYLAYER
62
256
10
40.38598648
20
6.267500654
30
0
0
VERTEX
5
143
8
0
6
BYLAYER
62
256
10
40.614825964
20
6.1514407064
30
0
0
VERTEX
5
144
8
0
6
BYLAYER
62
256
10
40.84103128
20
6.0371277096
30
0
0
VERTEX
5
145
8
0
6
BYLAYER
62
256
10
41.0641339
20
5.924805334
30
0
0
VERTEX
5
146
8
0
6
BYLAYER
62
256
10
41.283665288
20
5.8147172488
30
0
0
VERTEX
5
147
8
0
6
BYLAYER
62
256
10
41.499156912
20
5.7071071248
30
0
0
VERTEX
5
148
8
0
6
BYLAYER
62
256
10
41.710140248
20
5.6022186316
30
0
0
VERTEX
5
149
8
0
6
BYLAYER
62
256
10
41.916146764
20
5.5002954388
30
0
0
VERTEX
5
14A
8
0
6
BYLAYER
62
256
10
42.116707932
20
5.4015812172
30
0
0
VERTEX
5
14B
8
0
6
BYLAYER
62
256
10
42.311355216
20
5.306319636
30
0
0
VERTEX
5
14C
8
0
6
BYLAYER
62
256
10
45.911804568
20
3.548957244
30
0
0
VERTEX
5
14D
8
0
6
BYLAYER
62
256
10
49.717995216
20
3.900429528
30
0
0
VERTEX
5
14E
8
0
6
BYLAYER
62
256
10
50.14077668
20
3.9401688396
30
0
0
VERTEX
5
14F
8
0
6
BYLAYER
62
256
10
50.546081008
20
3.9793869896
30
0
0
VERTEX
5
150
8
0
6
BYLAYER
62
256
10
50.934532108
20
4.0182090164
30
0
0
VERTEX
5
151
8
0
6
BYLAYER
62
256
10
51.306753888
20
4.0567599572
30
0
0
VERTEX
5
152
8
0
6
BYLAYER
62
256
10
51.66337026
20
4.0951648496
30
0
0
VERTEX
5
153
8
0
6
BYLAYER
62
256
10
52.005005128
20
4.1335487316
30
0
0
VERTEX
5
154
8
0
6
BYLAYER
62
256
10
52.332282412
20
4.1720366404
30
0
0
VERTEX
5
155
8
0
6
BYLAYER
62
256
10
52.645826008
20
4.2107536144
30
0
0
VERTEX
5
156
8
0
6
BYLAYER
62
256
10
52.94625984
20
4.2498246908
30
0
0
VERTEX
5
157
8
0
6
BYLAYER
62
256
10
53.234207804
20
4.2893749076
30
0
0
VERTEX
5
158
8
0
6
BYLAYER
62
256
10
53.51029382
20
4.329529302
30
0
0
VERTEX
5
159
8
0
6
BYLAYER
62
256
10
53.775141788
20
4.370412912
30
0
0
VERTEX
5
15A
8
0
6
BYLAYER
62
256
10
54.029375628
20
4.4121507748
30
0
0
VERTEX
5
15B
8
0
6
BYLAYER
62
256
10
54.27361924
20
4.4548679292
30
0
0
VERTEX
5
15C
8
0
6
BYLAYER
62
256
10
54.50849654
20
4.4986894116
30
0
0
VERTEX
5
15D
8
0
6
BYLAYER
62
256
10
54.734631432
20
4.5437402604
30
0
0
VERTEX
5
15E
8
0
6
BYLAYER
62
256
10
54.952647832
20
4.5901455136
30
0
0
VERTEX
5
15F
8
0
6
BYLAYER
62
256
10
55.163169644
20
4.638030208
30
0
0
VERTEX
5
160
8
0
6
BYLAYER
62
256
10
55.36682078
20
4.6875193816
30
0
0
VERTEX
5
161
8
0
6
BYLAYER
62
256
10
55.564225148
20
4.7387380724
30
0
0
VERTEX
5
162
8
0
6
BYLAYER
62
256
10
55.756006656
20
4.791811318
30
0
0
VERTEX
5
163
8
0
6
BYLAYER
62
256
10
55.94278922
20
4.8468641556
30
0
0
VERTEX
5
164
8
0
6
BYLAYER
62
256
10
56.125196744
20
4.9040216232
30
0
0
VERTEX
5
165
8
0
6
BYLAYER
62
256
10
56.303853136
20
4.9634087588
30
0
0
VERTEX
5
166
8
0
6
BYLAYER
62
256
10
56.479382312
20
5.0251505996
30
0
0
VERTEX
5
167
8
0
6
BYLAYER
62
256
10
56.652408176
20
5.0893721836
30
0
0
VERTEX
5
168
8
0
6
BYLAYER
62
256
10
56.82355464
20
5.1561985484
30
0
0
VERTEX
5
169
8
0
6
BYLAYER
62
256
10
56.993445612
20
5.2257547312
30
0
0
VERTEX
5
16A
8
0
6
BYLAYER
62
256
10
57.162705004
20
5.2981657704
30
0
0
VERTEX
5
16B
8
0
6
BYLAYER
62
256
10
57.33195672
20
5.3735567036
30
0
0
VERTEX
5
16C
8
0
6
BYLAYER
62
256
10
57.501824676
20
5.452052568
30
0
0
VERTEX
5
16D
8
0
6
BYLAYER
62
256
10
58.7877
20
6.060699528
30
0
0
VERTEX
5
16E
8
0
6
BYLAYER
62
256
10
60.476482932
20
5.186304852
30
0
0
VERTEX
5
16F
8
0
6
BYLAYER
62
256
10
60.756187788
20
5.0427395908
30
0
0
VERTEX
5
170
8
0
6
BYLAYER
62
256
10
61.020654524
20
4.9091921864
30
0
0
VERTEX
5
171
8
0
6
BYLAYER
62
256
10
61.270384884
20
4.7857251196
30
0
0
VERTEX
5
172
8
0
6
BYLAYER
62
256
10
61.50588062
20
4.6724008716
30
0
0
VERTEX
5
173
8
0
6
BYLAYER
62
256
10
61.727643472
20
4.5692819228
30
0
0
VERTEX
5
174
8
0
6
BYLAYER
62
256
10
61.936175196
20
4.4764307548
30
0
0
VERTEX
5
175
8
0
6
BYLAYER
62
256
10
62.131977536
20
4.393909848
30
0
0
VERTEX
5
176
8
0
6
BYLAYER
62
256
10
62.31555224
20
4.321781684
30
0
0
VERTEX
5
177
8
0
6
BYLAYER
62
256
10
62.487401056
20
4.2601087432
30
0
0
VERTEX
5
178
8
0
6
BYLAYER
62
256
10
62.648025732
20
4.2089535068
30
0
0
VERTEX
5
179
8
0
6
BYLAYER
62
256
10
62.797928016
20
4.1683784556
30
0
0
VERTEX
5
17A
8
0
6
BYLAYER
62
256
10
62.937609656
20
4.1384460708
30
0
0
VERTEX
5
17B
8
0
6
BYLAYER
62
256
10
63.067572396
20
4.1192188332
30
0
0
VERTEX
5
17C
8
0
6
BYLAYER
62
256
10
63.188317988
20
4.1107592236
30
0
0
VERTEX
5
17D
8
0
6
BYLAYER
62
256
10
63.30034818
20
4.1131297232
30
0
0
VERTEX
5
17E
8
0
6
BYLAYER
62
256
10
63.40416472
20
4.1263928132
30
0
0
VERTEX
5
17F
8
0
6
BYLAYER
62
256
10
63.500269352
20
4.150610974
30
0
0
VERTEX
5
180
8
0
6
BYLAYER
62
256
10
63.589163824
20
4.1858466872
30
0
0
VERTEX
5
181
8
0
6
BYLAYER
62
256
10
63.671349888
20
4.2321624332
30
0
0
VERTEX
5
182
8
0
6
BYLAYER
62
256
10
63.747329288
20
4.2896206932
30
0
0
VERTEX
5
183
8
0
6
BYLAYER
62
256
10
63.817603772
20
4.358283948
30
0
0
VERTEX
5
184
8
0
6
BYLAYER
62
256
10
63.882675092
20
4.4382146788
30
0
0
VERTEX
5
185
8
0
6
BYLAYER
62
256
10
63.943044992
20
4.529475366
30
0
0
VERTEX
5
186
8
0
6
BYLAYER
62
256
10
63.99921522
20
4.6321284916
30
0
0
VERTEX
5
187
8
0
6
BYLAYER
62
256
10
64.051687524
20
4.7462365356
30
0
0
VERTEX
5
188
8
0
6
BYLAYER
62
256
10
64.100963652
20
4.8718619796
30
0
0
VERTEX
5
189
8
0
6
BYLAYER
62
256
10
64.147545352
20
5.009067304
30
0
0
VERTEX
5
18A
8
0
6
BYLAYER
62
256
10
64.191934372
20
5.15791499
30
0
0
VERTEX
5
18B
8
0
6
BYLAYER
62
256
10
64.234632456
20
5.3184675188
30
0
0
VERTEX
5
18C
8
0
6
BYLAYER
62
256
10
64.27614136
20
5.4907873712
30
0
0
VERTEX
5
18D
8
0
6
BYLAYER
62
256
10
64.316962824
20
5.674937028
30
0
0
VERTEX
5
18E
8
0
6
BYLAYER
62
256
10
64.336673456
20
5.7662307588
30
0
0
VERTEX
5
18F
8
0
6
BYLAYER
62
256
10
64.355742072
20
5.8518295936
30
0
0
VERTEX
5
190
8
0
6
BYLAYER
62
256
10
64.374501556
20
5.9319180884
30
0
0
VERTEX
5
191
8
0
6
BYLAYER
62
256
10
64.393284788
20
6.006680798
30
0
0
VERTEX
5
192
8
0
6
BYLAYER
62
256
10
64.412424648
20
6.0763022784
30
0
0
VERTEX
5
193
8
0
6
BYLAYER
62
256
10
64.432254024
20
6.1409670844
30
0
0
VERTEX
5
194
8
0
6
BYLAYER
62
256
10
64.453105796
20
6.200859772
30
0
0
VERTEX
5
195
8
0
6
BYLAYER
62
256
10
64.47531284
20
6.2561648956
30
0
0
VERTEX
5
196
8
0
6
BYLAYER
62
256
10
64.499208048
20
6.3070670116
30
0
0
VERTEX
5
197
8
0
6
BYLAYER
62
256
10
64.525124292
20
6.3537506744
30
0
0
VERTEX
5
198
8
0
6
BYLAYER
62
256
10
64.55339446
20
6.39640044
30
0
0
VERTEX
5
199
8
0
6
BYLAYER
62
256
10
64.584351432
20
6.435200864
30
0
0
VERTEX
5
19A
8
0
6
BYLAYER
62
256
10
64.618328088
20
6.4703365008
30
0
0
VERTEX
5
19B
8
0
6
BYLAYER
62
256
10
64.655657312
20
6.5019919068
30
0
0
VERTEX
5
19C
8
0
6
BYLAYER
62
256
10
64.696671988
20
6.5303516364
30
0
0
VERTEX
5
19D
8
0
6
BYLAYER
62
256
10
64.741704996
20
6.555600246
30
0
0
VERTEX
5
19E
8
0
6
BYLAYER
62
256
10
64.791089216
20
6.57792229
30
0
0
VERTEX
5
19F
8
0
6
BYLAYER
62
256
10
64.845157532
20
6.5975023244
30
0
0
VERTEX
5
1A0
8
0
6
BYLAYER
62
256
10
64.904242824
20
6.614524904
30
0
0
VERTEX
5
1A1
8
0
6
BYLAYER
62
256
10
64.968677976
20
6.6291745848
30
0
0
VERTEX
5
1A2
8
0
6
BYLAYER
62
256
10
65.038795868
20
6.641635922
30
0
0
VERTEX
5
1A3
8
0
6
BYLAYER
62
256
10
65.114929384
20
6.6520934708
30
0
0
VERTEX
5
1A4
8
0
6
BYLAYER
62
256
10
65.197411404
20
6.6607317864
30
0
0
VERTEX
5
1A5
8
0
6
BYLAYER
62
256
10
65.286574812
20
6.6677354244
30
0
0
VERTEX
5
1A6
8
0
6
BYLAYER
62
256
10
65.382752488
20
6.6732889404
30
0
0
VERTEX
5
1A7
8
0
6
BYLAYER
62
256
10
65.486277312
20
6.6775768892
30
0
0
VERTEX
5
1A8
8
0
6
BYLAYER
62
256
10
65.597482172
20
6.6807838268
30
0
0
VERTEX
5
1A9
8
0
6
BYLAYER
62
256
10
65.716699944
20
6.683094308
30
0
0
VERTEX
5
1AA
8
0
6
BYLAYER
62
256
10
65.844263512
20
6.6846928884
30
0
0
VERTEX
5
1AB
8
0
6
BYLAYER
62
256
10
65.98050576
20
6.6857641232
30
0
0
VERTEX
5
1AC
8
0
6
BYLAYER
62
256
10
66.125759568
20
6.686492568
30
0
0
VERTEX
5
1AD
8
0
6
BYLAYER
62
256
10
66.266766936
20
6.6873386676
30
0
0
VERTEX
5
1AE
8
0
6
BYLAYER
62
256
10
66.399774124
20
6.6888104368
30
0
0
VERTEX
5
1AF
8
0
6
BYLAYER
62
256
10
66.525181712
20
6.6911062204
30
0
0
VERTEX
5
1B0
8
0
6
BYLAYER
62
256
10
66.643390268
20
6.6944243616
30
0
0
VERTEX
5
1B1
8
0
6
BYLAYER
62
256
10
66.754800376
20
6.6989632048
30
0
0
VERTEX
5
1B2
8
0
6
BYLAYER
62
256
10
66.859812612
20
6.704921094
30
0
0
VERTEX
5
1B3
8
0
6
BYLAYER
62
256
10
66.958827548
20
6.7124963732
30
0
0
VERTEX
5
1B4
8
0
6
BYLAYER
62
256
10
67.05224576
20
6.7218873864
30
0
0
VERTEX
5
1B5
8
0
6
BYLAYER
62
256
10
67.140467832
20
6.7332924772
30
0
0
VERTEX
5
1B6
8
0
6
BYLAYER
62
256
10
67.223894332
20
6.74690999
30
0
0
VERTEX
5
1B7
8
0
6
BYLAYER
62
256
10
67.30292584
20
6.7629382688
30
0
0
VERTEX
5
1B8
8
0
6
BYLAYER
62
256
10
67.377962936
20
6.7815756572
30
0
0
VERTEX
5
1B9
8
0
6
BYLAYER
62
256
10
67.449406192
20
6.8030205
30
0
0
VERTEX
5
1BA
8
0
6
BYLAYER
62
256
10
67.517656184
20
6.82747114
30
0
0
VERTEX
5
1BB
8
0
6
BYLAYER
62
256
10
67.583113488
20
6.8551259224
30
0
0
VERTEX
5
1BC
8
0
6
BYLAYER
62
256
10
67.646178684
20
6.88618319
30
0
0
VERTEX
5
1BD
8
0
6
BYLAYER
62
256
10
67.707252348
20
6.920841288
30
0
0
VERTEX
5
1BE
8
0
6
BYLAYER
62
256
10
67.766735056
20
6.9592985596
30
0
0
VERTEX
5
1BF
8
0
6
BYLAYER
62
256
10
67.82502738
20
7.0017533488
30
0
0
VERTEX
5
1C0
8
0
6
BYLAYER
62
256
10
67.8825299
20
7.048404
30
0
0
VERTEX
5
1C1
8
0
6
BYLAYER
62
256
10
67.939643196
20
7.0994488568
30
0
0
VERTEX
5
1C2
8
0
6
BYLAYER
62
256
10
67.99676784
20
7.1550862636
30
0
0
VERTEX
5
1C3
8
0
6
BYLAYER
62
256
10
68.054304408
20
7.215514564
30
0
0
VERTEX
5
1C4
8
0
6
BYLAYER
62
256
10
68.112653476
20
7.280932102
30
0
0
VERTEX
5
1C5
8
0
6
BYLAYER
62
256
10
68.172215624
20
7.3515372216
30
0
0
VERTEX
5
1C6
8
0
6
BYLAYER
62
256
10
68.233391428
20
7.4275282672
30
0
0
VERTEX
5
1C7
8
0
6
BYLAYER
62
256
10
68.29658146
20
7.5091035824
30
0
0
VERTEX
5
1C8
8
0
6
BYLAYER
62
256
10
68.3621863
20
7.5964615112
30
0
0
VERTEX
5
1C9
8
0
6
BYLAYER
62
256
10
68.430606524
20
7.689800398
30
0
0
VERTEX
5
1CA
8
0
6
BYLAYER
62
256
10
68.502242712
20
7.789318586
30
0
0
VERTEX
5
1CB
8
0
6
BYLAYER
62
256
10
68.577495432
20
7.89521442
30
0
0
VERTEX
5
1CC
8
0
6
BYLAYER
62
256
10
68.633290696
20
7.9753051312
30
0
0
VERTEX
5
1CD
8
0
6
BYLAYER
62
256
10
68.687067332
20
8.0549497396
30
0
0
VERTEX
5
1CE
8
0
6
BYLAYER
62
256
10
68.738838172
20
8.1341855724
30
0
0
VERTEX
5
1CF
8
0
6
BYLAYER
62
256
10
68.788616056
20
8.213049958
30
0
0
VERTEX
5
1D0
8
0
6
BYLAYER
62
256
10
68.836413812
20
8.291580224
30
0
0
VERTEX
5
1D1
8
0
6
BYLAYER
62
256
10
68.882244276
20
8.3698136984
30
0
0
VERTEX
5
1D2
8
0
6
BYLAYER
62
256
10
68.92612028
20
8.4477877092
30
0
0
VERTEX
5
1D3
8
0
6
BYLAYER
62
256
10
68.968054656
20
8.525539584
30
0
0
VERTEX
5
1D4
8
0
6
BYLAYER
62
256
10
69.00806024
20
8.6031066504
30
0
0
VERTEX
5
1D5
8
0
6
BYLAYER
62
256
10
69.04614986
20
8.6805262368
30
0
0
VERTEX
5
1D6
8
0
6
BYLAYER
62
256
10
69.08233636
20
8.7578356708
30
0
0
VERTEX
5
1D7
8
0
6
BYLAYER
62
256
10
69.11663256
20
8.8350722804
30
0
0
VERTEX
5
1D8
8
0
6
BYLAYER
62
256
10
69.149051304
20
8.9122733932
30
0
0
VERTEX
5
1D9
8
0
6
BYLAYER
62
256
10
69.17960542
20
8.9894763368
30
0
0
VERTEX
5
1DA
8
0
6
BYLAYER
62
256
10
69.20830774
20
9.06671844
30
0
0
VERTEX
5
1DB
8
0
6
BYLAYER
62
256
10
69.235171104
20
9.1440370296
30
0
0
VERTEX
5
1DC
8
0
6
BYLAYER
62
256
10
69.260208336
20
9.2214694344
30
0
0
VERTEX
5
1DD
8
0
6
BYLAYER
62
256
10
69.283432276
20
9.2990529816
30
0
0
VERTEX
5
1DE
8
0
6
BYLAYER
62
256
10
69.30485576
20
9.3768249992
30
0
0
VERTEX
5
1DF
8
0
6
BYLAYER
62
256
10
69.324491612
20
9.4548228152
30
0
0
VERTEX
5
1E0
8
0
6
BYLAYER
62
256
10
69.342352672
20
9.5330837572
30
0
0
VERTEX
5
1E1
8
0
6
BYLAYER
62
256
10
69.358451772
20
9.6116451532
30
0
0
VERTEX
5
1E2
8
0
6
BYLAYER
62
256
10
69.372801744
20
9.6905443312
30
0
0
VERTEX
5
1E3
8
0
6
BYLAYER
62
256
10
69.38541542
20
9.7698186188
30
0
0
VERTEX
5
1E4
8
0
6
BYLAYER
62
256
10
69.396305636
20
9.849505344
30
0
0
VERTEX
5
1E5
8
0
6
BYLAYER
62
256
10
69.405485228
20
9.9296418348
30
0
0
VERTEX
5
1E6
8
0
6
BYLAYER
62
256
10
69.412967024
20
10.0102654184
30
0
0
VERTEX
5
1E7
8
0
6
BYLAYER
62
256
10
69.418763856
20
10.0914134236
30
0
0
VERTEX
5
1E8
8
0
6
BYLAYER
62
256
10
69.422888564
20
10.1731231776
30
0
0
VERTEX
5
1E9
8
0
6
BYLAYER
62
256
10
69.42535398
20
10.2554320084
30
0
0
VERTEX
5
1EA
8
0
6
BYLAYER
62
256
10
69.426172932
20
10.338377244
30
0
0
VERTEX
5
1EB
8
0
6
BYLAYER
62
256
10
69.42656542
20
10.4044199632
30
0
0
VERTEX
5
1EC
8
0
6
BYLAYER
62
256
10
69.427729796
20
10.4700493336
30
0
0
VERTEX
5
1ED
8
0
6
BYLAYER
62
256
10
69.42964644
20
10.5351673236
30
0
0
VERTEX
5
1EE
8
0
6
BYLAYER
62
256
10
69.432295732
20
10.5996759
30
0
0
VERTEX
5
1EF
8
0
6
BYLAYER
62
256
10
69.435658044
20
10.6634770312
30
0
0
VERTEX
5
1F0
8
0
6
BYLAYER
62
256
10
69.439713756
20
10.7264726844
30
0
0
VERTEX
5
1F1
8
0
6
BYLAYER
62
256
10
69.444443244
20
10.788564828
30
0
0
VERTEX
5
1F2
8
0
6
BYLAYER
62
256
10
69.449826884
20
10.8496554292
30
0
0
VERTEX
5
1F3
8
0
6
BYLAYER
62
256
10
69.45584506
20
10.909646456
30
0
0
VERTEX
5
1F4
8
0
6
BYLAYER
62
256
10
69.462478144
20
10.968439876
30
0
0
VERTEX
5
1F5
8
0
6
BYLAYER
62
256
10
69.469706508
20
11.0259376572
30
0
0
VERTEX
5
1F6
8
0
6
BYLAYER
62
256
10
69.47751054
20
11.0820417668
30
0
0
VERTEX
5
1F7
8
0
6
BYLAYER
62
256
10
69.485870612
20
11.1366541732
30
0
0
VERTEX
5
1F8
8
0
6
BYLAYER
62
256
10
69.4947671
20
11.189676844
30
0
0
VERTEX
5
1F9
8
0
6
BYLAYER
62
256
10
69.504180384
20
11.2410117468
30
0
0
VERTEX
5
1FA
8
0
6
BYLAYER
62
256
10
69.514090836
20
11.2905608492
30
0
0
VERTEX
5
1FB
8
0
6
BYLAYER
62
256
10
69.52447884
20
11.3382261192
30
0
0
VERTEX
5
1FC
8
0
6
BYLAYER
62
256
10
69.535324772
20
11.3839095244
30
0
0
VERTEX
5
1FD
8
0
6
BYLAYER
62
256
10
69.546609004
20
11.4275130324
30
0
0
VERTEX
5
1FE
8
0
6
BYLAYER
62
256
10
69.55831192
20
11.4689386112
30
0
0
VERTEX
5
1FF
8
0
6
BYLAYER
62
256
10
69.570413892
20
11.5080882284
30
0
0
VERTEX
5
200
8
0
6
BYLAYER
62
256
10
69.5828953
20
11.544863852
30
0
0
VERTEX
5
201
8
0
6
BYLAYER
62
256
10
69.595736516
20
11.5791674492
30
0
0
VERTEX
5
202
8
0
6
BYLAYER
62
256
10
69.608917928
20
11.6109009884
30
0
0
VERTEX
5
203
8
0
6
BYLAYER
62
256
10
69.622419904
20
11.6399664372
30
0
0
VERTEX
5
204
8
0
6
BYLAYER
62
256
10
69.636222824
20
11.6662657628
30
0
0
VERTEX
5
205
8
0
6
BYLAYER
62
256
10
69.650307064
20
11.6897009336
30
0
0
VERTEX
5
206
8
0
6
BYLAYER
62
256
10
69.664653004
20
11.7101739168
30
0
0
VERTEX
5
207
8
0
6
BYLAYER
62
256
10
69.67924102
20
11.7275866804
30
0
0
VERTEX
5
208
8
0
6
BYLAYER
62
256
10
69.694051488
20
11.7418411924
30
0
0
VERTEX
5
209
8
0
6
BYLAYER
62
256
10
69.709064784
20
11.75283942
30
0
0
VERTEX
5
20A
8
0
6
BYLAYER
62
256
10
69.756042816
20
11.7874412572
30
0
0
VERTEX
5
20B
8
0
6
BYLAYER
62
256
10
69.808578564
20
11.8362034184
30
0
0
VERTEX
5
20C
8
0
6
BYLAYER
62
256
10
69.866190772
20
11.8982138636
30
0
0
VERTEX
5
20D
8
0
6
BYLAYER
62
256
10
69.928398172
20
11.9725605532
30
0
0
VERTEX
5
20E
8
0
6
BYLAYER
62
256
10
69.994719504
20
12.0583314468
30
0
0
VERTEX
5
20F
8
0
6
BYLAYER
62
256
10
70.0646735
20
12.1546145048
30
0
0
VERTEX
5
210
8
0
6
BYLAYER
62
256
10
70.137778896
20
12.2604976872
30
0
0
VERTEX
5
211
8
0
6
BYLAYER
62
256
10
70.213554432
20
12.3750689536
30
0
0
VERTEX
5
212
8
0
6
BYLAYER
62
256
10
70.29151884
20
12.4974162644
30
0
0
VERTEX
5
213
8
0
6
BYLAYER
62
256
10
70.371190856
20
12.6266275796
30
0
0
VERTEX
5
214
8
0
6
BYLAYER
62
256
10
70.45208922
20
12.7617908596
30
0
0
VERTEX
5
215
8
0
6
BYLAYER
62
256
10
70.533732668
20
12.901994064
30
0
0
VERTEX
5
216
8
0
6
BYLAYER
62
256
10
70.615639936
20
13.0463251528
30
0
0
VERTEX
5
217
8
0
6
BYLAYER
62
256
10
70.697329756
20
13.193872086
30
0
0
VERTEX
5
218
8
0
6
BYLAYER
62
256
10
70.778320864
20
13.3437228244
30
0
0
VERTEX
5
219
8
0
6
BYLAYER
62
256
10
70.858132004
20
13.4949653268
30
0
0
VERTEX
5
21A
8
0
6
BYLAYER
62
256
10
70.936281904
20
13.6466875544
30
0
0
VERTEX
5
21B
8
0
6
BYLAYER
62
256
10
71.012289304
20
13.7979774668
30
0
0
VERTEX
5
21C
8
0
6
BYLAYER
62
256
10
71.085672944
20
13.9479230236
30
0
0
VERTEX
5
21D
8
0
6
BYLAYER
62
256
10
71.155951552
20
14.0956121856
30
0
0
VERTEX
5
21E
8
0
6
BYLAYER
62
256
10
71.222643868
20
14.2401329124
30
0
0
VERTEX
5
21F
8
0
6
BYLAYER
62
256
10
71.285268628
20
14.3805731644
30
0
0
VERTEX
5
220
8
0
6
BYLAYER
62
256
10
71.343344568
20
14.5160209012
30
0
0
VERTEX
5
221
8
0
6
BYLAYER
62
256
10
71.396390428
20
14.6455640828
30
0
0
VERTEX
5
222
8
0
6
BYLAYER
62
256
10
71.443924936
20
14.7682906696
30
0
0
VERTEX
5
223
8
0
6
BYLAYER
62
256
10
71.485466836
20
14.8832886216
30
0
0
VERTEX
5
224
8
0
6
BYLAYER
62
256
10
71.52053486
20
14.9896458988
30
0
0
VERTEX
5
225
8
0
6
BYLAYER
62
256
10
71.548647744
20
15.0864504612
30
0
0
VERTEX
5
226
8
0
6
BYLAYER
62
256
10
71.569324228
20
15.1727902688
30
0
0
VERTEX
5
227
8
0
6
BYLAYER
62
256
10
71.582083044
20
15.2477532816
30
0
0
VERTEX
5
228
8
0
6
BYLAYER
62
256
10
71.586442932
20
15.31042746
30
0
0
VERTEX
5
229
8
0
6
BYLAYER
62
256
10
71.58558312
20
15.3392698584
30
0
0
VERTEX
5
22A
8
0
6
BYLAYER
62
256
10
71.583032692
20
15.3692713352
30
0
0
VERTEX
5
22B
8
0
6
BYLAYER
62
256
10
71.57883516
20
15.4003552764
30
0
0
VERTEX
5
22C
8
0
6
BYLAYER
62
256
10
71.573034024
20
15.4324450688
30
0
0
VERTEX
5
22D
8
0
6
BYLAYER
62
256
10
71.5656728
20
15.4654640984
30
0
0
VERTEX
5
22E
8
0
6
BYLAYER
62
256
10
71.556794992
20
15.4993357516
30
0
0
VERTEX
5
22F
8
0
6
BYLAYER
62
256
10
71.546444108
20
15.5339834144
30
0
0
VERTEX
5
230
8
0
6
BYLAYER
62
256
10
71.534663664
20
15.5693304732
30
0
0
VERTEX
5
231
8
0
6
BYLAYER
62
256
10
71.52149716
20
15.6053003144
30
0
0
VERTEX
5
232
8
0
6
BYLAYER
62
256
10
71.506988108
20
15.641816324
30
0
0
VERTEX
5
233
8
0
6
BYLAYER
62
256
10
71.491180016
20
15.6788018884
30
0
0
VERTEX
5
234
8
0
6
BYLAYER
62
256
10
71.474116392
20
15.716180394
30
0
0
VERTEX
5
235
8
0
6
BYLAYER
62
256
10
71.455840748
20
15.7538752268
30
0
0
VERTEX
5
236
8
0
6
BYLAYER
62
256
10
71.436396588
20
15.7918097728
30
0
0
VERTEX
5
237
8
0
6
BYLAYER
62
256
10
71.41582742
20
15.8299074192
30
0
0
VERTEX
5
238
8
0
6
BYLAYER
62
256
10
71.394176756
20
15.8680915516
30
0
0
VERTEX
5
239
8
0
6
BYLAYER
62
256
10
71.371488108
20
15.9062855564
30
0
0
VERTEX
5
23A
8
0
6
BYLAYER
62
256
10
71.347804972
20
15.9444128196
30
0
0
VERTEX
5
23B
8
0
6
BYLAYER
62
256
10
71.323170872
20
15.982396728
30
0
0
VERTEX
5
23C
8
0
6
BYLAYER
62
256
10
71.297629304
20
16.0201606672
30
0
0
VERTEX
5
23D
8
0
6
BYLAYER
62
256
10
71.271223784
20
16.057628024
30
0
0
VERTEX
5
23E
8
0
6
BYLAYER
62
256
10
71.243997816
20
16.0947221844
30
0
0
VERTEX
5
23F
8
0
6
BYLAYER
62
256
10
71.215994908
20
16.1313665352
30
0
0
VERTEX
5
240
8
0
6
BYLAYER
62
256
10
71.187258576
20
16.1674844616
30
0
0
VERTEX
5
241
8
0
6
BYLAYER
62
256
10
71.15783232
20
16.2029993508
30
0
0
VERTEX
5
242
8
0
6
BYLAYER
62
256
10
71.127759652
20
16.2378345888
30
0
0
VERTEX
5
243
8
0
6
BYLAYER
62
256
10
71.09708408
20
16.2719135616
30
0
0
VERTEX
5
244
8
0
6
BYLAYER
62
256
10
71.065849116
20
16.3051596556
30
0
0
VERTEX
5
245
8
0
6
BYLAYER
62
256
10
71.034098264
20
16.3374962572
30
0
0
VERTEX
5
246
8
0
6
BYLAYER
62
256
10
71.001875032
20
16.3688467524
30
0
0
VERTEX
5
247
8
0
6
BYLAYER
62
256
10
70.969222932
20
16.399134528
30
0
0
VERTEX
5
248
8
0
6
BYLAYER
62
256
10
70.934582768
20
16.4317065696
30
0
0
VERTEX
5
249
8
0
6
BYLAYER
62
256
10
70.900593524
20
16.4661044532
30
0
0
VERTEX
5
24A
8
0
6
BYLAYER
62
256
10
70.867287544
20
16.5022522232
30
0
0
VERTEX
5
24B
8
0
6
BYLAYER
62
256
10
70.834697168
20
16.5400739256
30
0
0
VERTEX
5
24C
8
0
6
BYLAYER
62
256
10
70.80285474
20
16.5794936048
30
0
0
VERTEX
5
24D
8
0
6
BYLAYER
62
256
10
70.771792596
20
16.6204353064
30
0
0
VERTEX
5
24E
8
0
6
BYLAYER
62
256
10
70.741543076
20
16.662823076
30
0
0
VERTEX
5
24F
8
0
6
BYLAYER
62
256
10
70.712138528
20
16.706580958
30
0
0
VERTEX
5
250
8
0
6
BYLAYER
62
256
10
70.683611288
20
16.7516329984
30
0
0
VERTEX
5
251
8
0
6
BYLAYER
62
256
10
70.6559937
20
16.7979032416
30
0
0
VERTEX
5
252
8
0
6
BYLAYER
62
256
10
70.629318104
20
16.8453157336
30
0
0
VERTEX
5
253
8
0
6
BYLAYER
62
256
10
70.60361684
20
16.8937945188
30
0
0
VERTEX
5
254
8
0
6
BYLAYER
62
256
10
70.578922252
20
16.9432636432
30
0
0
VERTEX
5
255
8
0
6
BYLAYER
62
256
10
70.55526668
20
16.9936471516
30
0
0
VERTEX
5
256
8
0
6
BYLAYER
62
256
10
70.532682464
20
17.0448690892
30
0
0
VERTEX
5
257
8
0
6
BYLAYER
62
256
10
70.511201944
20
17.0968535012
30
0
0
VERTEX
5
258
8
0
6
BYLAYER
62
256
10
70.490857464
20
17.1495244328
30
0
0
VERTEX
5
259
8
0
6
BYLAYER
62
256
10
70.471681364
20
17.2028059292
30
0
0
VERTEX
5
25A
8
0
6
BYLAYER
62
256
10
70.453705984
20
17.2566220356
30
0
0
VERTEX
5
25B
8
0
6
BYLAYER
62
256
10
70.436963672
20
17.3108967976
30
0
0
VERTEX
5
25C
8
0
6
BYLAYER
62
256
10
70.421486756
20
17.3655542596
30
0
0
VERTEX
5
25D
8
0
6
BYLAYER
62
256
10
70.407307592
20
17.4205184676
30
0
0
VERTEX
5
25E
8
0
6
BYLAYER
62
256
10
70.394458508
20
17.4757134664
30
0
0
VERTEX
5
25F
8
0
6
BYLAYER
62
256
10
70.382971856
20
17.5310633012
30
0
0
VERTEX
5
260
8
0
6
BYLAYER
62
256
10
70.372879968
20
17.5864920172
30
0
0
VERTEX
5
261
8
0
6
BYLAYER
62
256
10
70.364215192
20
17.64192366
30
0
0
VERTEX
5
262
8
0
6
BYLAYER
62
256
10
70.357009868
20
17.697282274
30
0
0
VERTEX
5
263
8
0
6
BYLAYER
62
256
10
70.351296332
20
17.7524919052
30
0
0
VERTEX
5
264
8
0
6
BYLAYER
62
256
10
70.347106932
20
17.8074765984
30
0
0
VERTEX
5
265
8
0
6
BYLAYER
62
256
10
70.344474004
20
17.8621603992
30
0
0
VERTEX
5
266
8
0
6
BYLAYER
62
256
10
70.343429892
20
17.916467352
30
0
0
VERTEX
5
267
8
0
6
BYLAYER
62
256
10
70.341924952
20
18.0510673412
30
0
0
VERTEX
5
268
8
0
6
BYLAYER
62
256
10
70.338617988
20
18.1822701716
30
0
0
VERTEX
5
269
8
0
6
BYLAYER
62
256
10
70.33351698
20
18.3100520616
30
0
0
VERTEX
5
26A
8
0
6
BYLAYER
62
256
10
70.326629928
20
18.4343892304
30
0
0
VERTEX
5
26B
8
0
6
BYLAYER
62
256
10
70.31796482
20
18.5552578976
30
0
0
VERTEX
5
26C
8
0
6
BYLAYER
62
256
10
70.307529644
20
18.6726342812
30
0
0
VERTEX
5
26D
8
0
6
BYLAYER
62
256
10
70.295332396
20
18.7864946012
30
0
0
VERTEX
5
26E
8
0
6
BYLAYER
62
256
10
70.281381064
20
18.896815076
30
0
0
VERTEX
5
26F
8
0
6
BYLAYER
62
256
10
70.26568364
20
19.0035719244
30
0
0
VERTEX
5
270
8
0
6
BYLAYER
62
256
10
70.248248116
20
19.106741366
30
0
0
VERTEX
5
271
8
0
6
BYLAYER
62
256
10
70.229082476
20
19.2062996196
30
0
0
VERTEX
5
272
8
0
6
BYLAYER
62
256
10
70.20819472
20
19.302222904
30
0
0
VERTEX
5
273
8
0
6
BYLAYER
62
256
10
70.185592832
20
19.3944874384
30
0
0
VERTEX
5
274
8
0
6
BYLAYER
62
256
10
70.161284808
20
19.4830694416
30
0
0
VERTEX
5
275
8
0
6
BYLAYER
62
256
10
70.135278636
20
19.5679451328
30
0
0
VERTEX
5
276
8
0
6
BYLAYER
62
256
10
70.107582308
20
19.6490907312
30
0
0
VERTEX
5
277
8
0
6
BYLAYER
62
256
10
70.078203812
20
19.7264824552
30
0
0
VERTEX
5
278
8
0
6
BYLAYER
62
256
10
70.047151144
20
19.8000965244
30
0
0
VERTEX
5
279
8
0
6
BYLAYER
62
256
10
70.014432288
20
19.8699091576
30
0
0
VERTEX
5
27A
8
0
6
BYLAYER
62
256
10
69.980055244
20
19.9358965736
30
0
0
VERTEX
5
27B
8
0
6
BYLAYER
62
256
10
69.944027996
20
19.9980349916
30
0
0
VERTEX
5
27C
8
0
6
BYLAYER
62
256
10
69.906358536
20
20.0563006304
30
0
0
VERTEX
5
27D
8
0
6
BYLAYER
62
256
10
69.867054856
20
20.1106697096
30
0
0
VERTEX
5
27E
8
0
6
BYLAYER
62
256
10
69.826124948
20
20.1611184472
30
0
0
VERTEX
5
27F
8
0
6
BYLAYER
62
256
10
69.7835768
20
20.2076230632
30
0
0
VERTEX
5
280
8
0
6
BYLAYER
62
256
10
69.739418404
20
20.250159776
30
0
0
VERTEX
5
281
8
0
6
BYLAYER
62
256
10
69.693657752
20
20.2887048048
30
0
0
VERTEX
5
282
8
0
6
BYLAYER
62
256
10
69.646302832
20
20.3232343688
30
0
0
VERTEX
5
283
8
0
6
BYLAYER
62
256
10
69.59736164
20
20.3537246864
30
0
0
VERTEX
5
284
8
0
6
BYLAYER
62
256
10
69.546842164
20
20.3801519772
30
0
0
VERTEX
5
285
8
0
6
BYLAYER
62
256
10
69.494752392
20
20.40249246
30
0
0
VERTEX
5
286
8
0
6
BYLAYER
62
256
10
69.430143636
20
20.4254579352
30
0
0
VERTEX
5
287
8
0
6
BYLAYER
62
256
10
69.367597552
20
20.4439383036
30
0
0
VERTEX
5
288
8
0
6
BYLAYER
62
256
10
69.30707744
20
20.45788825
30
0
0
VERTEX
5
289
8
0
6
BYLAYER
62
256
10
69.248546584
20
20.4672624576
30
0
0
VERTEX
5
28A
8
0
6
BYLAYER
62
256
10
69.191968288
20
20.4720156104
30
0
0
VERTEX
5
28B
8
0
6
BYLAYER
62
256
10
69.13730584
20
20.4721023928
30
0
0
VERTEX
5
28C
8
0
6
BYLAYER
62
256
10
69.084522532
20
20.4674774888
30
0
0
VERTEX
5
28D
8
0
6
BYLAYER
62
256
10
69.03358166
20
20.4580955824
30
0
0
VERTEX
5
28E
8
0
6
BYLAYER
62
256
10
68.984446524
20
20.4439113572
30
0
0
VERTEX
5
28F
8
0
6
BYLAYER
62
256
10
68.937080404
20
20.4248794976
30
0
0
VERTEX
5
290
8
0
6
BYLAYER
62
256
10
68.891446608
20
20.4009546876
30
0
0
VERTEX
5
291
8
0
6
BYLAYER
62
256
10
68.84750842
20
20.3720916112
30
0
0
VERTEX
5
292
8
0
6
BYLAYER
62
256
10
68.805229136
20
20.338244952
30
0
0
VERTEX
5
293
8
0
6
BYLAYER
62
256
10
68.764572052
20
20.2993693944
30
0
0
VERTEX
5
294
8
0
6
BYLAYER
62
256
10
68.725500456
20
20.2554196224
30
0
0
VERTEX
5
295
8
0
6
BYLAYER
62
256
10
68.687977652
20
20.2063503196
30
0
0
VERTEX
5
296
8
0
6
BYLAYER
62
256
10
68.651966924
20
20.1521161704
30
0
0
VERTEX
5
297
8
0
6
BYLAYER
62
256
10
68.617431572
20
20.0926718592
30
0
0
VERTEX
5
298
8
0
6
BYLAYER
62
256
10
68.584334884
20
20.0279720688
30
0
0
VERTEX
5
299
8
0
6
BYLAYER
62
256
10
68.552640156
20
19.9579714844
30
0
0
VERTEX
5
29A
8
0
6
BYLAYER
62
256
10
68.522310684
20
19.8826247896
30
0
0
VERTEX
5
29B
8
0
6
BYLAYER
62
256
10
68.49330976
20
19.801886668
30
0
0
VERTEX
5
29C
8
0
6
BYLAYER
62
256
10
68.46560068
20
19.715711804
30
0
0
VERTEX
5
29D
8
0
6
BYLAYER
62
256
10
68.439146732
20
19.6240548816
30
0
0
VERTEX
5
29E
8
0
6
BYLAYER
62
256
10
68.413911216
20
19.5268705848
30
0
0
VERTEX
5
29F
8
0
6
BYLAYER
62
256
10
68.38985742
20
19.4241135976
30
0
0
VERTEX
5
2A0
8
0
6
BYLAYER
62
256
10
68.36694864
20
19.3157386036
30
0
0
VERTEX
5
2A1
8
0
6
BYLAYER
62
256
10
68.345148172
20
19.2017002872
30
0
0
VERTEX
5
2A2
8
0
6
BYLAYER
62
256
10
68.324419308
20
19.0819533328
30
0
0
VERTEX
5
2A3
8
0
6
BYLAYER
62
256
10
68.304725344
20
18.9564524236
30
0
0
VERTEX
5
2A4
8
0
6
BYLAYER
62
256
10
68.286029568
20
18.825152244
30
0
0
VERTEX
5
2A5
8
0
6
BYLAYER
62
256
10
68.275400716
20
18.7541080028
30
0
0
VERTEX
5
2A6
8
0
6
BYLAYER
62
256
10
68.2626778
20
18.6820903296
30
0
0
VERTEX
5
2A7
8
0
6
BYLAYER
62
256
10
68.247899012
20
18.6091768696
30
0
0
VERTEX
5
2A8
8
0
6
BYLAYER
62
256
10
68.231102536
20
18.535445268
30
0
0
VERTEX
5
2A9
8
0
6
BYLAYER
62
256
10
68.212326572
20
18.4609731692
30
0
0
VERTEX
5
2AA
8
0
6
BYLAYER
62
256
10
68.1916093
20
18.3858382188
30
0
0
VERTEX
5
2AB
8
0
6
BYLAYER
62
256
10
68.168988916
20
18.3101180616
30
0
0
VERTEX
5
2AC
8
0
6
BYLAYER
62
256
10
68.144503608
20
18.2338903428
30
0
0
VERTEX
5
2AD
8
0
6
BYLAYER
62
256
10
68.118191568
20
18.1572327072
30
0
0
VERTEX
5
2AE
8
0
6
BYLAYER
62
256
10
68.090090984
20
18.0802227996
30
0
0
VERTEX
5
2AF
8
0
6
BYLAYER
62
256
10
68.060240052
20
18.0029382656
30
0
0
VERTEX
5
2B0
8
0
6
BYLAYER
62
256
10
68.028676952
20
17.9254567496
30
0
0
VERTEX
5
2B1
8
0
6
BYLAYER
62
256
10
67.995439884
20
17.8478558972
30
0
0
VERTEX
5
2B2
8
0
6
BYLAYER
62
256
10
67.960567032
20
17.7702133532
30
0
0
VERTEX
5
2B3
8
0
6
BYLAYER
62
256
10
67.924096588
20
17.6926067628
30
0
0
VERTEX
5
2B4
8
0
6
BYLAYER
62
256
10
67.886066744
20
17.6151137704
30
0
0
VERTEX
5
2B5
8
0
6
BYLAYER
62
256
10
67.846515688
20
17.5378120216
30
0
0
VERTEX
5
2B6
8
0
6
BYLAYER
62
256
10
67.805481612
20
17.4607791616
30
0
0
VERTEX
5
2B7
8
0
6
BYLAYER
62
256
10
67.7630027
20
17.3840928344
30
0
0
VERTEX
5
2B8
8
0
6
BYLAYER
62
256
10
67.719117152
20
17.3078306864
30
0
0
VERTEX
5
2B9
8
0
6
BYLAYER
62
256
10
67.673863152
20
17.2320703616
30
0
0
VERTEX
5
2BA
8
0
6
BYLAYER
62
256
10
67.627278892
20
17.1568895052
30
0
0
VERTEX
5
2BB
8
0
6
BYLAYER
62
256
10
67.579402564
20
17.0823657624
30
0
0
VERTEX
5
2BC
8
0
6
BYLAYER
62
256
10
67.530272352
20
17.0085767784
30
0
0
VERTEX
5
2BD
8
0
6
BYLAYER
62
256
10
67.479926452
20
16.935600198
30
0
0
VERTEX
5
2BE
8
0
6
BYLAYER
62
256
10
67.428403052
20
16.863513666
30
0
0
VERTEX
5
2BF
8
0
6
BYLAYER
62
256
10
67.375740344
20
16.792394828
30
0
0
VERTEX
5
2C0
8
0
6
BYLAYER
62
256
10
67.321976516
20
16.7223213284
30
0
0
VERTEX
5
2C1
8
0
6
BYLAYER
62
256
10
67.267149756
20
16.6533708124
30
0
0
VERTEX
5
2C2
8
0
6
BYLAYER
62
256
10
67.21129826
20
16.5856209252
30
0
0
VERTEX
5
2C3
8
0
6
BYLAYER
62
256
10
67.154460216
20
16.519149312
30
0
0
VERTEX
5
2C4
8
0
6
BYLAYER
62
256
10
66.185767932
20
15.404725068
30
0
0
VERTEX
5
2C5
8
0
6
BYLAYER
62
256
10
61.4880375
20
15.593319312
30
0
0
VERTEX
5
2C6
8
0
6
BYLAYER
62
256
10
60.997245808
20
15.6136145436
30
0
0
VERTEX
5
2C7
8
0
6
BYLAYER
62
256
10
60.535249392
20
15.6341302864
30
0
0
VERTEX
5
2C8
8
0
6
BYLAYER
62
256
10
60.101105876
20
15.6552453844
30
0
0
VERTEX
5
2C9
8
0
6
BYLAYER
62
256
10
59.693872868
20
15.6773386804
30
0
0
VERTEX
5
2CA
8
0
6
BYLAYER
62
256
10
59.312607988
20
15.700789018
30
0
0
VERTEX
5
2CB
8
0
6
BYLAYER
62
256
10
58.956368848
20
15.7259752404
30
0
0
VERTEX
5
2CC
8
0
6
BYLAYER
62
256
10
58.624213064
20
15.7532761904
30
0
0
VERTEX
5
2CD
8
0
6
BYLAYER
62
256
10
58.315198248
20
15.7830707124
30
0
0
VERTEX
5
2CE
8
0
6
BYLAYER
62
256
10
58.02838202
20
15.8157376488
30
0
0
VERTEX
5
2CF
8
0
6
BYLAYER
62
256
10
57.762821992
20
15.8516558436
30
0
0
VERTEX
5
2D0
8
0
6
BYLAYER
62
256
10
57.517575784
20
15.8912041396
30
0
0
VERTEX
5
2D1
8
0
6
BYLAYER
62
256
10
57.291701004
20
15.9347613804
30
0
0
VERTEX
5
2D2
8
0
6
BYLAYER
62
256
10
57.084255272
20
15.9827064092
30
0
0
VERTEX
5
2D3
8
0
6
BYLAYER
62
256
10
56.8942962
20
16.0354180692
30
0
0
VERTEX
5
2D4
8
0
6
BYLAYER
62
256
10
56.720881408
20
16.093275204
30
0
0
VERTEX
5
2D5
8
0
6
BYLAYER
62
256
10
56.563068504
20
16.1566566568
30
0
0
VERTEX
5
2D6
8
0
6
BYLAYER
62
256
10
56.419915108
20
16.2259412712
30
0
0
VERTEX
5
2D7
8
0
6
BYLAYER
62
256
10
56.290478832
20
16.3015078896
30
0
0
VERTEX
5
2D8
8
0
6
BYLAYER
62
256
10
56.173817296
20
16.3837353564
30
0
0
VERTEX
5
2D9
8
0
6
BYLAYER
62
256
10
56.068988108
20
16.4730025144
30
0
0
VERTEX
5
2DA
8
0
6
BYLAYER
62
256
10
55.975048892
20
16.5696882072
30
0
0
VERTEX
5
2DB
8
0
6
BYLAYER
62
256
10
55.891057256
20
16.674171278
30
0
0
VERTEX
5
2DC
8
0
6
BYLAYER
62
256
10
55.816070816
20
16.7868305696
30
0
0
VERTEX
5
2DD
8
0
6
BYLAYER
62
256
10
55.749147192
20
16.908044926
30
0
0
VERTEX
5
2DE
8
0
6
BYLAYER
62
256
10
55.689343992
20
17.0381931904
30
0
0
VERTEX
5
2DF
8
0
6
BYLAYER
62
256
10
55.635718836
20
17.177654206
30
0
0
VERTEX
5
2E0
8
0
6
BYLAYER
62
256
10
55.587329336
20
17.326806816
30
0
0
VERTEX
5
2E1
8
0
6
BYLAYER
62
256
10
55.543233108
20
17.486029864
30
0
0
VERTEX
5
2E2
8
0
6
BYLAYER
62
256
10
55.502487768
20
17.6557021928
30
0
0
VERTEX
5
2E3
8
0
6
BYLAYER
62
256
10
55.464150932
20
17.8362026464
30
0
0
VERTEX
5
2E4
8
0
6
BYLAYER
62
256
10
55.427280216
20
18.027910068
30
0
0
VERTEX
5
2E5
8
0
6
BYLAYER
62
256
10
55.411578272
20
18.1147939316
30
0
0
VERTEX
5
2E6
8
0
6
BYLAYER
62
256
10
55.39754428
20
18.19694209
30
0
0
VERTEX
5
2E7
8
0
6
BYLAYER
62
256
10
55.385310416
20
18.2745828048
30
0
0
VERTEX
5
2E8
8
0
6
BYLAYER
62
256
10
55.375008856
20
18.3479443372
30
0
0
VERTEX
5
2E9
8
0
6
BYLAYER
62
256
10
55.366771776
20
18.4172549484
30
0
0
VERTEX
5
2EA
8
0
6
BYLAYER
62
256
10
55.360731348
20
18.4827429
30
0
0
VERTEX
5
2EB
8
0
6
BYLAYER
62
256
10
55.357019756
20
18.5446364536
30
0
0
VERTEX
5
2EC
8
0
6
BYLAYER
62
256
10
55.355769168
20
18.6031638704
30
0
0
VERTEX
5
2ED
8
0
6
BYLAYER
62
256
10
55.35711176
20
18.6585534116
30
0
0
VERTEX
5
2EE
8
0
6
BYLAYER
62
256
10
55.361179716
20
18.7110333392
30
0
0
VERTEX
5
2EF
8
0
6
BYLAYER
62
256
10
55.368105204
20
18.760831914
30
0
0
VERTEX
5
2F0
8
0
6
BYLAYER
62
256
10
55.3780204
20
18.8081773976
30
0
0
VERTEX
5
2F1
8
0
6
BYLAYER
62
256
10
55.391057484
20
18.8532980512
30
0
0
VERTEX
5
2F2
8
0
6
BYLAYER
62
256
10
55.407348632
20
18.8964221368
30
0
0
VERTEX
5
2F3
8
0
6
BYLAYER
62
256
10
55.427026016
20
18.9377779152
30
0
0
VERTEX
5
2F4
8
0
6
BYLAYER
62
256
10
55.450221812
20
18.977593648
30
0
0
VERTEX
5
2F5
8
0
6
BYLAYER
62
256
10
55.477068196
20
19.0160975968
30
0
0
VERTEX
5
2F6
8
0
6
BYLAYER
62
256
10
55.507697348
20
19.0535180224
30
0
0
VERTEX
5
2F7
8
0
6
BYLAYER
62
256
10
55.54224144
20
19.0900831868
30
0
0
VERTEX
5
2F8
8
0
6
BYLAYER
62
256
10
55.580832648
20
19.1260213512
30
0
0
VERTEX
5
2F9
8
0
6
BYLAYER
62
256
10
55.623603152
20
19.1615607772
30
0
0
VERTEX
5
2FA
8
0
6
BYLAYER
62
256
10
55.67068512
20
19.196929726
30
0
0
VERTEX
5
2FB
8
0
6
BYLAYER
62
256
10
55.722210732
20
19.2323564588
30
0
0
VERTEX
5
2FC
8
0
6
BYLAYER
62
256
10
55.778312168
20
19.2680692372
30
0
0
VERTEX
5
2FD
8
0
6
BYLAYER
62
256
10
55.839121596
20
19.3042963224
30
0
0
VERTEX
5
2FE
8
0
6
BYLAYER
62
256
10
55.9047712
20
19.3412659764
30
0
0
VERTEX
5
2FF
8
0
6
BYLAYER
62
256
10
55.975393148
20
19.37920646
30
0
0
VERTEX
5
300
8
0
6
BYLAYER
62
256
10
56.05111962
20
19.4183460344
30
0
0
VERTEX
5
301
8
0
6
BYLAYER
62
256
10
56.132082788
20
19.458912962
30
0
0
VERTEX
5
302
8
0
6
BYLAYER
62
256
10
56.218414836
20
19.5011355032
30
0
0
VERTEX
5
303
8
0
6
BYLAYER
62
256
10
56.310247932
20
19.54524192
30
0
0
VERTEX
5
304
8
0
6
BYLAYER
62
256
10
56.488640012
20
19.6350702644
30
0
0
VERTEX
5
305
8
0
6
BYLAYER
62
256
10
56.654054068
20
19.7279413204
30
0
0
VERTEX
5
306
8
0
6
BYLAYER
62
256
10
56.80653942
20
19.8234490908
30
0
0
VERTEX
5
307
8
0
6
BYLAYER
62
256
10
56.9461454
20
19.9211875784
30
0
0
VERTEX
5
308
8
0
6
BYLAYER
62
256
10
57.072921344
20
20.0207507856
30
0
0
VERTEX
5
309
8
0
6
BYLAYER
62
256
10
57.186916572
20
20.1217327164
30
0
0
VERTEX
5
30A
8
0
6
BYLAYER
62
256
10
57.288180424
20
20.2237273724
30
0
0
VERTEX
5
30B
8
0
6
BYLAYER
62
256
10
57.37676222
20
20.3263287572
30
0
0
VERTEX
5
30C
8
0
6
BYLAYER
62
256
10
57.452711292
20
20.429130874
30
0
0
VERTEX
5
30D
8
0
6
BYLAYER
62
256
10
57.516076976
20
20.5317277248
30
0
0
VERTEX
5
30E
8
0
6
BYLAYER
62
256
10
57.566908592
20
20.6337133128
30
0
0
VERTEX
5
30F
8
0
6
BYLAYER
62
256
10
57.605255476
20
20.7346816408
30
0
0
VERTEX
5
310
8
0
6
BYLAYER
62
256
10
57.631166956
20
20.834226712
30
0
0
VERTEX
5
311
8
0
6
BYLAYER
62
256
10
57.644692356
20
20.9319425292
30
0
0
VERTEX
5
312
8
0
6
BYLAYER
62
256
10
57.645881016
20
21.0274230948
30
0
0
VERTEX
5
313
8
0
6
BYLAYER
62
256
10
57.63478226
20
21.1202624124
30
0
0
VERTEX
5
314
8
0
6
BYLAYER
62
256
10
57.611445416
20
21.210054484
30
0
0
VERTEX
5
315
8
0
6
BYLAYER
62
256
10
57.575919816
20
21.2963933132
30
0
0
VERTEX
5
316
8
0
6
BYLAYER
62
256
10
57.528254792
20
21.3788729024
30
0
0
VERTEX
5
317
8
0
6
BYLAYER
62
256
10
57.468499668
20
21.4570872548
30
0
0
VERTEX
5
318
8
0
6
BYLAYER
62
256
10
57.396703772
20
21.5306303732
30
0
0
VERTEX
5
319
8
0
6
BYLAYER
62
256
10
57.312916444
20
21.5990962604
30
0
0
VERTEX
5
31A
8
0
6
BYLAYER
62
256
10
57.217187004
20
21.6620789188
30
0
0
VERTEX
5
31B
8
0
6
BYLAYER
62
256
10
57.109564784
20
21.7191723524
30
0
0
VERTEX
5
31C
8
0
6
BYLAYER
62
256
10
56.990099116
20
21.7699705628
30
0
0
VERTEX
5
31D
8
0
6
BYLAYER
62
256
10
56.858839324
20
21.8140675536
30
0
0
VERTEX
5
31E
8
0
6
BYLAYER
62
256
10
56.715834744
20
21.8510573276
30
0
0
VERTEX
5
31F
8
0
6
BYLAYER
62
256
10
56.561134704
20
21.8805338876
30
0
0
VERTEX
5
320
8
0
6
BYLAYER
62
256
10
56.394788532
20
21.9020912364
30
0
0
VERTEX
5
321
8
0
6
BYLAYER
62
256
10
56.216845556
20
21.9153233768
30
0
0
VERTEX
5
322
8
0
6
BYLAYER
62
256
10
56.027355108
20
21.919824312
30
0
0
VERTEX
5
323
8
0
6
BYLAYER
62
256
10
55.89281964
20
21.9160782268
30
0
0
VERTEX
5
324
8
0
6
BYLAYER
62
256
10
55.7574429
20
21.9049267324
30
0
0
VERTEX
5
325
8
0
6
BYLAYER
62
256
10
55.621391072
20
21.8864999704
30
0
0
VERTEX
5
326
8
0
6
BYLAYER
62
256
10
55.484830352
20
21.8609280824
30
0
0
VERTEX
5
327
8
0
6
BYLAYER
62
256
10
55.347926928
20
21.8283412104
30
0
0
VERTEX
5
328
8
0
6
BYLAYER
62
256
10
55.210846996
20
21.7888694952
30
0
0
VERTEX
5
329
8
0
6
BYLAYER
62
256
10
55.073756744
20
21.7426430792
30
0
0
VERTEX
5
32A
8
0
6
BYLAYER
62
256
10
54.93682236
20
21.6897921036
30
0
0
VERTEX
5
32B
8
0
6
BYLAYER
62
256
10
54.800210044
20
21.6304467104
30
0
0
VERTEX
5
32C
8
0
6
BYLAYER
62
256
10
54.66408598
20
21.5647370412
30
0
0
VERTEX
5
32D
8
0
6
BYLAYER
62
256
10
54.528616364
20
21.4927932372
30
0
0
VERTEX
5
32E
8
0
6
BYLAYER
62
256
10
54.393967388
20
21.4147454404
30
0
0
VERTEX
5
32F
8
0
6
BYLAYER
62
256
10
54.260305236
20
21.3307237924
30
0
0
VERTEX
5
330
8
0
6
BYLAYER
62
256
10
54.127796108
20
21.2408584348
30
0
0
VERTEX
5
331
8
0
6
BYLAYER
62
256
10
53.996606188
20
21.1452795092
30
0
0
VERTEX
5
332
8
0
6
BYLAYER
62
256
10
53.866901672
20
21.0441171572
30
0
0
VERTEX
5
333
8
0
6
BYLAYER
62
256
10
53.738848752
20
20.9375015204
30
0
0
VERTEX
5
334
8
0
6
BYLAYER
62
256
10
53.612613616
20
20.8255627408
30
0
0
VERTEX
5
335
8
0
6
BYLAYER
62
256
10
53.488362456
20
20.7084309596
30
0
0
VERTEX
5
336
8
0
6
BYLAYER
62
256
10
53.366261464
20
20.5862363184
30
0
0
VERTEX
5
337
8
0
6
BYLAYER
62
256
10
53.246476832
20
20.4591089592
30
0
0
VERTEX
5
338
8
0
6
BYLAYER
62
256
10
53.129174752
20
20.3271790236
30
0
0
VERTEX
5
339
8
0
6
BYLAYER
62
256
10
53.014521416
20
20.1905766528
30
0
0
VERTEX
5
33A
8
0
6
BYLAYER
62
256
10
52.902683012
20
20.0494319892
30
0
0
VERTEX
5
33B
8
0
6
BYLAYER
62
256
10
52.793825732
20
19.9038751736
30
0
0
VERTEX
5
33C
8
0
6
BYLAYER
62
256
10
52.688115768
20
19.754036348
30
0
0
VERTEX
5
33D
8
0
6
BYLAYER
62
256
10
52.585719312
20
19.6000456544
30
0
0
VERTEX
5
33E
8
0
6
BYLAYER
62
256
10
52.486802556
20
19.4420332336
30
0
0
VERTEX
5
33F
8
0
6
BYLAYER
62
256
10
52.391531688
20
19.280129228
30
0
0
VERTEX
5
340
8
0
6
BYLAYER
62
256
10
52.300072904
20
19.1144637788
30
0
0
VERTEX
5
341
8
0
6
BYLAYER
62
256
10
52.212592392
20
18.945167028
30
0
0
VERTEX
5
342
8
0
6
BYLAYER
62
256
10
52.174367616
20
18.8704958564
30
0
0
VERTEX
5
343
8
0
6
BYLAYER
62
256
10
52.133823828
20
18.7948524728
30
0
0
VERTEX
5
344
8
0
6
BYLAYER
62
256
10
52.091081208
20
18.7183851808
30
0
0
VERTEX
5
345
8
0
6
BYLAYER
62
256
10
52.046259944
20
18.6412422832
30
0
0
VERTEX
5
346
8
0
6
BYLAYER
62
256
10
51.999480228
20
18.5635720832
30
0
0
VERTEX
5
347
8
0
6
BYLAYER
62
256
10
51.95086224
20
18.4855228836
30
0
0
VERTEX
5
348
8
0
6
BYLAYER
62
256
10
51.900526168
20
18.4072429872
30
0
0
VERTEX
5
349
8
0
6
BYLAYER
62
256
10
51.8485922
20
18.3288806976
30
0
0
VERTEX
5
34A
8
0
6
BYLAYER
62
256
10
51.79518052
20
18.2505843172
30
0
0
VERTEX
5
34B
8
0
6
BYLAYER
62
256
10
51.740411316
20
18.1725021496
30
0
0
VERTEX
5
34C
8
0
6
BYLAYER
62
256
10
51.684404776
20
18.094782498
30
0
0
VERTEX
5
34D
8
0
6
BYLAYER
62
256
10
51.627281084
20
18.0175736648
30
0
0
VERTEX
5
34E
8
0
6
BYLAYER
62
256
10
51.569160428
20
17.9410239532
30
0
0
VERTEX
5
34F
8
0
6
BYLAYER
62
256
10
51.510162992
20
17.8652816664
30
0
0
VERTEX
5
350
8
0
6
BYLAYER
62
256
10
51.450408964
20
17.7904951072
30
0
0
VERTEX
5
351
8
0
6
BYLAYER
62
256
10
51.390018536
20
17.7168125792
30
0
0
VERTEX
5
352
8
0
6
BYLAYER
62
256
10
51.329111884
20
17.6443823848
30
0
0
VERTEX
5
353
8
0
6
BYLAYER
62
256
10
51.2678092
20
17.5733528276
30
0
0
VERTEX
5
354
8
0
6
BYLAYER
62
256
10
51.206230672
20
17.50387221
30
0
0
VERTEX
5
355
8
0
6
BYLAYER
62
256
10
51.144496484
20
17.4360888356
30
0
0
VERTEX
5
356
8
0
6
BYLAYER
62
256
10
51.082726824
20
17.3701510072
30
0
0
VERTEX
5
357
8
0
6
BYLAYER
62
256
10
51.021041876
20
17.3062070276
30
0
0
VERTEX
5
358
8
0
6
BYLAYER
62
256
10
50.959561828
20
17.2444052
30
0
0
VERTEX
5
359
8
0
6
BYLAYER
62
256
10
50.898406864
20
17.184893828
30
0
0
VERTEX
5
35A
8
0
6
BYLAYER
62
256
10
50.837697176
20
17.1278212136
30
0
0
VERTEX
5
35B
8
0
6
BYLAYER
62
256
10
50.777552948
20
17.0733356608
30
0
0
VERTEX
5
35C
8
0
6
BYLAYER
62
256
10
50.718094364
20
17.021585472
30
0
0
VERTEX
5
35D
8
0
6
BYLAYER
62
256
10
50.659441612
20
16.9727189504
30
0
0
VERTEX
5
35E
8
0
6
BYLAYER
62
256
10
50.60171488
20
16.9268843992
30
0
0
VERTEX
5
35F
8
0
6
BYLAYER
62
256
10
50.545034352
20
16.8842301216
30
0
0
VERTEX
5
360
8
0
6
BYLAYER
62
256
10
50.489520216
20
16.84490442
30
0
0
VERTEX
5
361
8
0
6
BYLAYER
62
256
10
50.433708592
20
16.805601846
30
0
0
VERTEX
5
362
8
0
6
BYLAYER
62
256
10
50.376146728
20
16.7630148804
30
0
0
VERTEX
5
363
8
0
6
BYLAYER
62
256
10
50.31697148
20
16.7172890036
30
0
0
VERTEX
5
364
8
0
6
BYLAYER
62
256
10
50.256319724
20
16.6685696948
30
0
0
VERTEX
5
365
8
0
6
BYLAYER
62
256
10
50.194328316
20
16.6170024344
30
0
0
VERTEX
5
366
8
0
6
BYLAYER
62
256
10
50.131134132
20
16.5627327024
30
0
0
VERTEX
5
367
8
0
6
BYLAYER
62
256
10
50.066874028
20
16.5059059784
30
0
0
VERTEX
5
368
8
0
6
BYLAYER
62
256
10
50.001684876
20
16.4466677424
30
0
0
VERTEX
5
369
8
0
6
BYLAYER
62
256
10
49.935703536
20
16.3851634744
30
0
0
VERTEX
5
36A
8
0
6
BYLAYER
62
256
10
49.86906688
20
16.3215386544
30
0
0
VERTEX
5
36B
8
0
6
BYLAYER
62
256
10
49.801911772
20
16.2559387624
30
0
0
VERTEX
5
36C
8
0
6
BYLAYER
62
256
10
49.734375076
20
16.188509278
30
0
0
VERTEX
5
36D
8
0
6
BYLAYER
62
256
10
49.66659366
20
16.1193956812
30
0
0
VERTEX
5
36E
8
0
6
BYLAYER
62
256
10
49.598704384
20
16.048743452
30
0
0
VERTEX
5
36F
8
0
6
BYLAYER
62
256
10
49.530844124
20
15.9766980704
30
0
0
VERTEX
5
370
8
0
6
BYLAYER
62
256
10
49.463149736
20
15.9034050164
30
0
0
VERTEX
5
371
8
0
6
BYLAYER
62
256
10
49.395758088
20
15.8290097696
30
0
0
VERTEX
5
372
8
0
6
BYLAYER
62
256
10
49.328806052
20
15.7536578104
30
0
0
VERTEX
5
373
8
0
6
BYLAYER
62
256
10
49.262430484
20
15.6774946184
30
0
0
VERTEX
5
374
8
0
6
BYLAYER
62
256
10
49.19676826
20
15.6006656732
30
0
0
VERTEX
5
375
8
0
6
BYLAYER
62
256
10
49.131956236
20
15.5233164556
30
0
0
VERTEX
5
376
8
0
6
BYLAYER
62
256
10
49.068131284
20
15.4455924448
30
0
0
VERTEX
5
377
8
0
6
BYLAYER
62
256
10
49.005430268
20
15.3676391208
30
0
0
VERTEX
5
378
8
0
6
BYLAYER
62
256
10
48.943990052
20
15.289601964
30
0
0
VERTEX
5
379
8
0
6
BYLAYER
62
256
10
48.883947504
20
15.211626454
30
0
0
VERTEX
5
37A
8
0
6
BYLAYER
62
256
10
48.825439492
20
15.1338580704
30
0
0
VERTEX
5
37B
8
0
6
BYLAYER
62
256
10
48.768602876
20
15.0564422936
30
0
0
VERTEX
5
37C
8
0
6
BYLAYER
62
256
10
48.713574524
20
14.9795246036
30
0
0
VERTEX
5
37D
8
0
6
BYLAYER
62
256
10
48.660491304
20
14.90325048
30
0
0
VERTEX
5
37E
8
0
6
BYLAYER
62
256
10
48.60949008
20
14.8277654028
30
0
0
VERTEX
5
37F
8
0
6
BYLAYER
62
256
10
48.560707716
20
14.753214852
30
0
0
VERTEX
5
380
8
0
6
BYLAYER
62
256
10
48.5131021
20
14.6792047084
30
0
0
VERTEX
5
381
8
0
6
BYLAYER
62
256
10
48.465590416
20
14.6053246992
30
0
0
VERTEX
5
382
8
0
6
BYLAYER
62
256
10
48.418249068
20
14.5316960748
30
0
0
VERTEX
5
383
8
0
6
BYLAYER
62
256
10
48.37115444
20
14.4584400848
30
0
0
VERTEX
5
384
8
0
6
BYLAYER
62
256
10
48.324382928
20
14.3856779796
30
0
0
VERTEX
5
385
8
0
6
BYLAYER
62
256
10
48.278010924
20
14.3135310092
30
0
0
VERTEX
5
386
8
0
6
BYLAYER
62
256
10
48.23211482
20
14.242120424
30
0
0
VERTEX
5
387
8
0
6
BYLAYER
62
256
10
48.186771012
20
14.1715674732
30
0
0
VERTEX
5
388
8
0
6
BYLAYER
62
256
10
48.142055888
20
14.1019934072
30
0
0
VERTEX
5
389
8
0
6
BYLAYER
62
256
10
48.098045844
20
14.0335194764
30
0
0
VERTEX
5
38A
8
0
6
BYLAYER
62
256
10
48.054817272
20
13.9662669304
30
0
0
VERTEX
5
38B
8
0
6
BYLAYER
62
256
10
48.012446564
20
13.9003570196
30
0
0
VERTEX
5
38C
8
0
6
BYLAYER
62
256
10
47.971010112
20
13.8359109936
30
0
0
VERTEX
5
38D
8
0
6
BYLAYER
62
256
10
47.930584312
20
13.7730501028
30
0
0
VERTEX
5
38E
8
0
6
BYLAYER
62
256
10
47.891245552
20
13.7118955972
30
0
0
VERTEX
5
38F
8
0
6
BYLAYER
62
256
10
47.853070228
20
13.6525687268
30
0
0
VERTEX
5
390
8
0
6
BYLAYER
62
256
10
47.816134736
20
13.5951907416
30
0
0
VERTEX
5
391
8
0
6
BYLAYER
62
256
10
47.78051546
20
13.5398828916
30
0
0
VERTEX
5
392
8
0
6
BYLAYER
62
256
10
47.7462888
20
13.4867664268
30
0
0
VERTEX
5
393
8
0
6
BYLAYER
62
256
10
47.713531144
20
13.4359625976
30
0
0
VERTEX
5
394
8
0
6
BYLAYER
62
256
10
47.682318888
20
13.3875926536
30
0
0
VERTEX
5
395
8
0
6
BYLAYER
62
256
10
47.652728424
20
13.3417778452
30
0
0
VERTEX
5
396
8
0
6
BYLAYER
62
256
10
47.624836148
20
13.298639422
30
0
0
VERTEX
5
397
8
0
6
BYLAYER
62
256
10
47.598718444
20
13.2582986344
30
0
0
VERTEX
5
398
8
0
6
BYLAYER
62
256
10
47.574451712
20
13.2208767328
30
0
0
VERTEX
5
399
8
0
6
BYLAYER
62
256
10
47.55211234
20
13.1864949664
30
0
0
VERTEX
5
39A
8
0
6
BYLAYER
62
256
10
47.531776728
20
13.1552745856
30
0
0
VERTEX
5
39B
8
0
6
BYLAYER
62
256
10
47.51352126
20
13.1273368404
30
0
0
VERTEX
5
39C
8
0
6
BYLAYER
62
256
10
47.497422336
20
13.1028029812
30
0
0
VERTEX
5
39D
8
0
6
BYLAYER
62
256
10
47.483556344
20
13.0817942576
30
0
0
VERTEX
5
39E
8
0
6
BYLAYER
62
256
10
47.471999676
20
13.06443192
30
0
0
VERTEX
5
39F
8
0
6
BYLAYER
62
256
10
47.4590806
20
13.050816922
30
0
0
VERTEX
5
3A0
8
0
6
BYLAYER
62
256
10
47.441172732
20
13.0409216608
30
0
0
VERTEX
5
3A1
8
0
6
BYLAYER
62
256
10
47.418421644
20
13.0346745512
30
0
0
VERTEX
5
3A2
8
0
6
BYLAYER
62
256
10
47.390972892
20
13.0320040076
30
0
0
VERTEX
5
3A3
8
0
6
BYLAYER
62
256
10
47.35897204
20
13.032838446
30
0
0
VERTEX
5
3A4
8
0
6
BYLAYER
62
256
10
47.322564652
20
13.03710628
30
0
0
VERTEX
5
3A5
8
0
6
BYLAYER
62
256
10
47.281896292
20
13.0447359252
30
0
0
VERTEX
5
3A6
8
0
6
BYLAYER
62
256
10
47.23711252
20
13.0556557964
30
0
0
VERTEX
5
3A7
8
0
6
BYLAYER
62
256
10
47.1883589
20
13.069794308
30
0
0
VERTEX
5
3A8
8
0
6
BYLAYER
62
256
10
47.135780996
20
13.0870798752
30
0
0
VERTEX
5
3A9
8
0
6
BYLAYER
62
256
10
47.079524372
20
13.1074409128
30
0
0
VERTEX
5
3AA
8
0
6
BYLAYER
62
256
10
47.019734592
20
13.130805836
30
0
0
VERTEX
5
3AB
8
0
6
BYLAYER
62
256
10
46.956557212
20
13.1571030588
30
0
0
VERTEX
5
3AC
8
0
6
BYLAYER
62
256
10
46.8901378
20
13.1862609968
30
0
0
VERTEX
5
3AD
8
0
6
BYLAYER
62
256
10
46.82062192
20
13.2182080644
30
0
0
VERTEX
5
3AE
8
0
6
BYLAYER
62
256
10
46.748155132
20
13.2528726768
30
0
0
VERTEX
5
3AF
8
0
6
BYLAYER
62
256
10
46.672883
20
13.2901832484
30
0
0
VERTEX
5
3B0
8
0
6
BYLAYER
62
256
10
46.594951088
20
13.3300681944
30
0
0
VERTEX
5
3B1
8
0
6
BYLAYER
62
256
10
46.514504956
20
13.3724559296
30
0
0
VERTEX
5
3B2
8
0
6
BYLAYER
62
256
10
46.431690168
20
13.4172748688
30
0
0
VERTEX
5
3B3
8
0
6
BYLAYER
62
256
10
46.346652292
20
13.4644534272
30
0
0
VERTEX
5
3B4
8
0
6
BYLAYER
62
256
10
46.259536884
20
13.5139200188
30
0
0
VERTEX
5
3B5
8
0
6
BYLAYER
62
256
10
46.170489512
20
13.5656030592
30
0
0
VERTEX
5
3B6
8
0
6
BYLAYER
62
256
10
46.079655732
20
13.6194309632
30
0
0
VERTEX
5
3B7
8
0
6
BYLAYER
62
256
10
45.987181116
20
13.6753321452
30
0
0
VERTEX
5
3B8
8
0
6
BYLAYER
62
256
10
45.89321122
20
13.7332350204
30
0
0
VERTEX
5
3B9
8
0
6
BYLAYER
62
256
10
45.797891612
20
13.7930680032
30
0
0
VERTEX
5
3BA
8
0
6
BYLAYER
62
256
10
45.701367848
20
13.8547595092
30
0
0
VERTEX
5
3BB
8
0
6
BYLAYER
62
256
10
45.6037855
20
13.9182379528
30
0
0
VERTEX
5
3BC
8
0
6
BYLAYER
62
256
10
45.505290124
20
13.9834317488
30
0
0
VERTEX
5
3BD
8
0
6
BYLAYER
62
256
10
45.406027284
20
14.050269312
30
0
0
VERTEX
5
3BE
8
0
6
BYLAYER
62
256
10
45.306738412
20
14.1174875248
30
0
0
VERTEX
5
3BF
8
0
6
BYLAYER
62
256
10
45.208166564
20
14.1838110616
30
0
0
VERTEX
5
3C0
8
0
6
BYLAYER
62
256
10
45.110458876
20
14.2491511552
30
0
0
VERTEX
5
3C1
8
0
6
BYLAYER
62
256
10
45.013762504
20
14.3134190376
30
0
0
VERTEX
5
3C2
8
0
6
BYLAYER
62
256
10
44.918224592
20
14.3765259416
30
0
0
VERTEX
5
3C3
8
0
6
BYLAYER
62
256
10
44.823992284
20
14.4383830992
30
0
0
VERTEX
5
3C4
8
0
6
BYLAYER
62
256
10
44.731212728
20
14.4989017436
30
0
0
VERTEX
5
3C5
8
0
6
BYLAYER
62
256
10
44.640033072
20
14.5579931068
30
0
0
VERTEX
5
3C6
8
0
6
BYLAYER
62
256
10
44.55060046
20
14.6155684212
30
0
0
VERTEX
5
3C7
8
0
6
BYLAYER
62
256
10
44.463062036
20
14.6715389196
30
0
0
VERTEX
5
3C8
8
0
6
BYLAYER
62
256
10
44.377564956
20
14.725815834
30
0
0
VERTEX
5
3C9
8
0
6
BYLAYER
62
256
10
44.294256356
20
14.7783103972
30
0
0
VERTEX
5
3CA
8
0
6
BYLAYER
62
256
10
44.213283388
20
14.8289338416
30
0
0
VERTEX
5
3CB
8
0
6
BYLAYER
62
256
10
44.134793196
20
14.8775974
30
0
0
VERTEX
5
3CC
8
0
6
BYLAYER
62
256
10
44.058932928
20
14.924212304
30
0
0
VERTEX
5
3CD
8
0
6
BYLAYER
62
256
10
43.985849732
20
14.9686897868
30
0
0
VERTEX
5
3CE
8
0
6
BYLAYER
62
256
10
43.915690752
20
15.0109410804
30
0
0
VERTEX
5
3CF
8
0
6
BYLAYER
62
256
10
43.848603132
20
15.0508774176
30
0
0
VERTEX
5
3D0
8
0
6
BYLAYER
62
256
10
43.784734024
20
15.0884100308
30
0
0
VERTEX
5
3D1
8
0
6
BYLAYER
62
256
10
43.724230572
20
15.1234501524
30
0
0
VERTEX
5
3D2
8
0
6
BYLAYER
62
256
10
43.667239924
20
15.1559090148
30
0
0
VERTEX
5
3D3
8
0
6
BYLAYER
62
256
10
43.613909224
20
15.1856978504
30
0
0
VERTEX
5
3D4
8
0
6
BYLAYER
62
256
10
43.564385616
20
15.212727892
30
0
0
VERTEX
5
3D5
8
0
6
BYLAYER
62
256
10
43.518816252
20
15.236910372
30
0
0
VERTEX
5
3D6
8
0
6
BYLAYER
62
256
10
43.47734828
20
15.2581565224
30
0
0
VERTEX
5
3D7
8
0
6
BYLAYER
62
256
10
43.44012884
20
15.276377576
30
0
0
VERTEX
5
3D8
8
0
6
BYLAYER
62
256
10
43.40730508
20
15.2914847652
30
0
0
VERTEX
5
3D9
8
0
6
BYLAYER
62
256
10
43.379024148
20
15.3033893228
30
0
0
VERTEX
5
3DA
8
0
6
BYLAYER
62
256
10
43.355433192
20
15.3120024804
30
0
0
VERTEX
5
3DB
8
0
6
BYLAYER
62
256
10
43.336679352
20
15.3172354716
30
0
0
VERTEX
5
3DC
8
0
6
BYLAYER
62
256
10
43.322909784
20
15.318999528
30
0
0
VERTEX
5
3DD
8
0
6
BYLAYER
62
256
10
43.309332736
20
15.320630898
30
0
0
VERTEX
5
3DE
8
0
6
BYLAYER
62
256
10
43.291149288
20
15.3254704376
30
0
0
VERTEX
5
3DF
8
0
6
BYLAYER
62
256
10
43.268496692
20
15.3334362916
30
0
0
VERTEX
5
3E0
8
0
6
BYLAYER
62
256
10
43.241512184
20
15.3444466052
30
0
0
VERTEX
5
3E1
8
0
6
BYLAYER
62
256
10
43.210333012
20
15.3584195228
30
0
0
VERTEX
5
3E2
8
0
6
BYLAYER
62
256
10
43.175096412
20
15.37527319
30
0
0
VERTEX
5
3E3
8
0
6
BYLAYER
62
256
10
43.135939628
20
15.3949257512
30
0
0
VERTEX
5
3E4
8
0
6
BYLAYER
62
256
10
43.092999904
20
15.4172953512
30
0
0
VERTEX
5
3E5
8
0
6
BYLAYER
62
256
10
43.046414484
20
15.4423001352
30
0
0
VERTEX
5
3E6
8
0
6
BYLAYER
62
256
10
42.996320608
20
15.469858248
30
0
0
VERTEX
5
3E7
8
0
6
BYLAYER
62
256
10
42.942855516
20
15.499887834
30
0
0
VERTEX
5
3E8
8
0
6
BYLAYER
62
256
10
42.886156456
20
15.5323070388
30
0
0
VERTEX
5
3E9
8
0
6
BYLAYER
62
256
10
42.826360664
20
15.5670340072
30
0
0
VERTEX
5
3EA
8
0
6
BYLAYER
62
256
10
42.763605388
20
15.6039868836
30
0
0
VERTEX
5
3EB
8
0
6
BYLAYER
62
256
10
42.698027868
20
15.6430838132
30
0
0
VERTEX
5
3EC
8
0
6
BYLAYER
62
256
10
42.629765348
20
15.6842429404
30
0
0
VERTEX
5
3ED
8
0
6
BYLAYER
62
256
10
42.558955068
20
15.7273824112
30
0
0
VERTEX
5
3EE
8
0
6
BYLAYER
62
256
10
42.485734272
20
15.7724203692
30
0
0
VERTEX
5
3EF
8
0
6
BYLAYER
62
256
10
42.4102402
20
15.8192749604
30
0
0
VERTEX
5
3F0
8
0
6
BYLAYER
62
256
10
42.332610096
20
15.8678643288
30
0
0
VERTEX
5
3F1
8
0
6
BYLAYER
62
256
10
42.252981204
20
15.9181066196
30
0
0
VERTEX
5
3F2
8
0
6
BYLAYER
62
256
10
42.171490764
20
15.9699199776
30
0
0
VERTEX
5
3F3
8
0
6
BYLAYER
62
256
10
42.08827602
20
16.023222548
30
0
0
VERTEX
5
3F4
8
0
6
BYLAYER
62
256
10
42.003474212
20
16.0779324756
30
0
0
VERTEX
5
3F5
8
0
6
BYLAYER
62
256
10
41.917222584
20
16.1339679052
30
0
0
VERTEX
5
3F6
8
0
6
BYLAYER
62
256
10
41.82965838
20
16.1912469812
30
0
0
VERTEX
5
3F7
8
0
6
BYLAYER
62
256
10
41.74091884
20
16.2496878492
30
0
0
VERTEX
5
3F8
8
0
6
BYLAYER
62
256
10
41.651141208
20
16.309208654
30
0
0
VERTEX
5
3F9
8
0
6
BYLAYER
62
256
10
41.560462724
20
16.36972754
30
0
0
VERTEX
5
3FA
8
0
6
BYLAYER
62
256
10
41.469020632
20
16.4311626524
30
0
0
VERTEX
5
3FB
8
0
6
BYLAYER
62
256
10
41.376952176
20
16.493432136
30
0
0
VERTEX
5
3FC
8
0
6
BYLAYER
62
256
10
41.284434556
20
16.5559952356
30
0
0
VERTEX
5
3FD
8
0
6
BYLAYER
62
256
10
41.191658964
20
16.6183005924
30
0
0
VERTEX
5
3FE
8
0
6
BYLAYER
62
256
10
41.098784752
20
16.680250446
30
0
0
VERTEX
5
3FF
8
0
6
BYLAYER
62
256
10
41.005971276
20
16.741747036
30
0
0
VERTEX
5
400
8
0
6
BYLAYER
62
256
10
40.913377888
20
16.8026926024
30
0
0
VERTEX
5
401
8
0
6
BYLAYER
62
256
10
40.821163936
20
16.8629893844
30
0
0
VERTEX
5
402
8
0
6
BYLAYER
62
256
10
40.72948878
20
16.9225396216
30
0
0
VERTEX
5
403
8
0
6
BYLAYER
62
256
10
40.638511768
20
16.9812455544
30
0
0
VERTEX
5
404
8
0
6
BYLAYER
62
256
10
40.548392256
20
17.0390094216
30
0
0
VERTEX
5
405
8
0
6
BYLAYER
62
256
10
40.459289592
20
17.0957334632
30
0
0
VERTEX
5
406
8
0
6
BYLAYER
62
256
10
40.371363136
20
17.1513199192
30
0
0
VERTEX
5
407
8
0
6
BYLAYER
62
256
10
40.284772236
20
17.2056710288
30
0
0
VERTEX
5
408
8
0
6
BYLAYER
62
256
10
40.199676248
20
17.2586890316
30
0
0
VERTEX
5
409
8
0
6
BYLAYER
62
256
10
40.11623452
20
17.3102761676
30
0
0
VERTEX
5
40A
8
0
6
BYLAYER
62
256
10
40.034606412
20
17.3603346764
30
0
0
VERTEX
5
40B
8
0
6
BYLAYER
62
256
10
39.954951272
20
17.4087667976
30
0
0
VERTEX
5
40C
8
0
6
BYLAYER
62
256
10
39.877428452
20
17.4554747708
30
0
0
VERTEX
5
40D
8
0
6
BYLAYER
62
256
10
39.802197308
20
17.5003608356
30
0
0
VERTEX
5
40E
8
0
6
BYLAYER
62
256
10
39.729417192
20
17.543327232
30
0
0
VERTEX
5
40F
8
0
6
BYLAYER
62
256
10
39.659247456
20
17.5842761992
30
0
0
VERTEX
5
410
8
0
6
BYLAYER
62
256
10
39.591847452
20
17.6231099772
30
0
0
VERTEX
5
411
8
0
6
BYLAYER
62
256
10
39.52737654
20
17.6597308052
30
0
0
VERTEX
5
412
8
0
6
BYLAYER
62
256
10
39.465994064
20
17.6940409236
30
0
0
VERTEX
5
413
8
0
6
BYLAYER
62
256
10
39.40785938
20
17.7259425712
30
0
0
VERTEX
5
414
8
0
6
BYLAYER
62
256
10
39.35313184
20
17.7553379884
30
0
0
VERTEX
5
415
8
0
6
BYLAYER
62
256
10
39.301970804
20
17.7821294148
30
0
0
VERTEX
5
416
8
0
6
BYLAYER
62
256
10
39.254535612
20
17.8062190896
30
0
0
VERTEX
5
417
8
0
6
BYLAYER
62
256
10
39.210985632
20
17.8275092524
30
0
0
VERTEX
5
418
8
0
6
BYLAYER
62
256
10
39.171480204
20
17.8459021436
30
0
0
VERTEX
5
419
8
0
6
BYLAYER
62
256
10
39.136178684
20
17.861300002
30
0
0
VERTEX
5
41A
8
0
6
BYLAYER
62
256
10
39.105240432
20
17.873605068
30
0
0
VERTEX
5
41B
8
0
6
BYLAYER
62
256
10
39.07432972
20
17.8857930224
30
0
0
VERTEX
5
41C
8
0
6
BYLAYER
62
256
10
39.039110896
20
17.9008432668
30
0
0
VERTEX
5
41D
8
0
6
BYLAYER
62
256
10
38.999743144
20
17.9186636232
30
0
0
VERTEX
5
41E
8
0
6
BYLAYER
62
256
10
38.95638564
20
17.939161912
30
0
0
VERTEX
5
41F
8
0
6
BYLAYER
62
256
10
38.90919756
20
17.9622459544
30
0
0
VERTEX
5
420
8
0
6
BYLAYER
62
256
10
38.858338084
20
17.9878235716
30
0
0
VERTEX
5
421
8
0
6
BYLAYER
62
256
10
38.803966396
20
18.0158025844
30
0
0
VERTEX
5
422
8
0
6
BYLAYER
62
256
10
38.746241664
20
18.0460908144
30
0
0
VERTEX
5
423
8
0
6
BYLAYER
62
256
10
38.685323076
20
18.0785960824
30
0
0
VERTEX
5
424
8
0
6
BYLAYER
62
256
10
38.621369808
20
18.1132262096
30
0
0
VERTEX
5
425
8
0
6
BYLAYER
62
256
10
38.554541032
20
18.1498890168
30
0
0
VERTEX
5
426
8
0
6
BYLAYER
62
256
10
38.484995936
20
18.1884923252
30
0
0
VERTEX
5
427
8
0
6
BYLAYER
62
256
10
38.412893692
20
18.228943956
30
0
0
VERTEX
5
428
8
0
6
BYLAYER
62
256
10
38.338393484
20
18.2711517304
30
0
0
VERTEX
5
429
8
0
6
BYLAYER
62
256
10
38.261654484
20
18.3150234688
30
0
0
VERTEX
5
42A
8
0
6
BYLAYER
62
256
10
38.182835876
20
18.3604669932
30
0
0
VERTEX
5
42B
8
0
6
BYLAYER
62
256
10
38.102096836
20
18.407390124
30
0
0
VERTEX
5
42C
8
0
6
BYLAYER
62
256
10
38.01959654
20
18.4557006828
30
0
0
VERTEX
5
42D
8
0
6
BYLAYER
62
256
10
37.935494172
20
18.50530649
30
0
0
VERTEX
5
42E
8
0
6
BYLAYER
62
256
10
37.849948908
20
18.5561153676
30
0
0
VERTEX
5
42F
8
0
6
BYLAYER
62
256
10
37.763119924
20
18.6080351356
30
0
0
VERTEX
5
430
8
0
6
BYLAYER
62
256
10
37.675166404
20
18.660973616
30
0
0
VERTEX
5
431
8
0
6
BYLAYER
62
256
10
37.58624752
20
18.7148386296
30
0
0
VERTEX
5
432
8
0
6
BYLAYER
62
256
10
37.496522456
20
18.7695379972
30
0
0
VERTEX
5
433
8
0
6
BYLAYER
62
256
10
37.406150388
20
18.8249795404
30
0
0
VERTEX
5
434
8
0
6
BYLAYER
62
256
10
37.315290492
20
18.8810710796
30
0
0
VERTEX
5
435
8
0
6
BYLAYER
62
256
10
37.224101952
20
18.9377204364
30
0
0
VERTEX
5
436
8
0
6
BYLAYER
62
256
10
37.132743944
20
18.994835432
30
0
0
VERTEX
5
437
8
0
6
BYLAYER
62
256
10
37.041375644
20
19.0523238868
30
0
0
VERTEX
5
438
8
0
6
BYLAYER
62
256
10
36.950156236
20
19.1100936224
30
0
0
VERTEX
5
439
8
0
6
BYLAYER
62
256
10
36.859244892
20
19.16805246
30
0
0
VERTEX
5
43A
8
0
6
BYLAYER
62
256
10
36.768769164
20
19.2257176816
30
0
0
VERTEX
5
43B
8
0
6
BYLAYER
62
256
10
36.678840804
20
19.2826171728
30
0
0
VERTEX
5
43C
8
0
6
BYLAYER
62
256
10
36.589596152
20
19.3386746604
30
0
0
VERTEX
5
43D
8
0
6
BYLAYER
62
256
10
36.50117154
20
19.3938138704
30
0
0
VERTEX
5
43E
8
0
6
BYLAYER
62
256
10
36.413703312
20
19.4479585288
30
0
0
VERTEX
5
43F
8
0
6
BYLAYER
62
256
10
36.327327804
20
19.5010323624
30
0
0
VERTEX
5
440
8
0
6
BYLAYER
62
256
10
36.242181348
20
19.5529590976
30
0
0
VERTEX
5
441
8
0
6
BYLAYER
62
256
10
36.158400288
20
19.60366246
30
0
0
VERTEX
5
442
8
0
6
BYLAYER
62
256
10
36.076120956
20
19.6530661768
30
0
0
VERTEX
5
443
8
0
6
BYLAYER
62
256
10
35.995479692
20
19.7010939736
30
0
0
VERTEX
5
444
8
0
6
BYLAYER
62
256
10
35.916612836
20
19.7476695768
30
0
0
VERTEX
5
445
8
0
6
BYLAYER
62
256
10
35.83965672
20
19.7927167132
30
0
0
VERTEX
5
446
8
0
6
BYLAYER
62
256
10
35.764747684
20
19.8361591084
30
0
0
VERTEX
5
447
8
0
6
BYLAYER
62
256
10
35.692022068
20
19.8779204892
30
0
0
VERTEX
5
448
8
0
6
BYLAYER
62
256
10
35.621616204
20
19.917924582
30
0
0
VERTEX
5
449
8
0
6
BYLAYER
62
256
10
35.553666432
20
19.9560951124
30
0
0
VERTEX
5
44A
8
0
6
BYLAYER
62
256
10
35.488309092
20
19.9923558076
30
0
0
VERTEX
5
44B
8
0
6
BYLAYER
62
256
10
35.42568052
20
20.0266303932
30
0
0
VERTEX
5
44C
8
0
6
BYLAYER
62
256
10
35.365917048
20
20.058842596
30
0
0
VERTEX
5
44D
8
0
6
BYLAYER
62
256
10
35.309155016
20
20.088916142
30
0
0
VERTEX
5
44E
8
0
6
BYLAYER
62
256
10
35.255530768
20
20.1167747576
30
0
0
VERTEX
5
44F
8
0
6
BYLAYER
62
256
10
35.205180636
20
20.1423421692
30
0
0
VERTEX
5
450
8
0
6
BYLAYER
62
256
10
35.158240952
20
20.1655421028
30
0
0
VERTEX
5
451
8
0
6
BYLAYER
62
256
10
35.114848064
20
20.1862982848
30
0
0
VERTEX
5
452
8
0
6
BYLAYER
62
256
10
35.075138304
20
20.204534442
30
0
0
VERTEX
5
453
8
0
6
BYLAYER
62
256
10
35.039248008
20
20.2201743
30
0
0
VERTEX
5
454
8
0
6
BYLAYER
62
256
10
35.007313516
20
20.2331415856
30
0
0
VERTEX
5
455
8
0
6
BYLAYER
62
256
10
34.979471164
20
20.2433600248
30
0
0
VERTEX
5
456
8
0
6
BYLAYER
62
256
10
34.955857288
20
20.250753344
30
0
0
VERTEX
5
457
8
0
6
BYLAYER
62
256
10
34.936608232
20
20.2552452696
30
0
0
VERTEX
5
458
8
0
6
BYLAYER
62
256
10
34.921860324
20
20.256759528
30
0
0
VERTEX
5
459
8
0
6
BYLAYER
62
256
10
34.908428108
20
20.2575118648
30
0
0
VERTEX
5
45A
8
0
6
BYLAYER
62
256
10
34.89308324
20
20.2597434952
30
0
0
VERTEX
5
45B
8
0
6
BYLAYER
62
256
10
34.875896904
20
20.2634163484
30
0
0
VERTEX
5
45C
8
0
6
BYLAYER
62
256
10
34.856940272
20
20.2684923544
30
0
0
VERTEX
5
45D
8
0
6
BYLAYER
62
256
10
34.836284524
20
20.2749334428
30
0
0
VERTEX
5
45E
8
0
6
BYLAYER
62
256
10
34.814000836
20
20.2827015428
30
0
0
VERTEX
5
45F
8
0
6
BYLAYER
62
256
10
34.790160388
20
20.2917585844
30
0
0
VERTEX
5
460
8
0
6
BYLAYER
62
256
10
34.764834356
20
20.3020664972
30
0
0
VERTEX
5
461
8
0
6
BYLAYER
62
256
10
34.73809392
20
20.3135872104
30
0
0
VERTEX
5
462
8
0
6
BYLAYER
62
256
10
34.710010252
20
20.3262826544
30
0
0
VERTEX
5
463
8
0
6
BYLAYER
62
256
10
34.680654532
20
20.340114758
30
0
0
VERTEX
5
464
8
0
6
BYLAYER
62
256
10
34.650097944
20
20.3550454512
30
0
0
VERTEX
5
465
8
0
6
BYLAYER
62
256
10
34.618411656
20
20.3710366636
30
0
0
VERTEX
5
466
8
0
6
BYLAYER
62
256
10
34.585666852
20
20.3880503252
30
0
0
VERTEX
5
467
8
0
6
BYLAYER
62
256
10
34.551934704
20
20.4060483648
30
0
0
VERTEX
5
468
8
0
6
BYLAYER
62
256
10
34.517286396
20
20.4249927124
30
0
0
VERTEX
5
469
8
0
6
BYLAYER
62
256
10
34.4817931
20
20.4448452976
30
0
0
VERTEX
5
46A
8
0
6
BYLAYER
62
256
10
34.445525996
20
20.4655680504
30
0
0
VERTEX
5
46B
8
0
6
BYLAYER
62
256
10
34.408556264
20
20.4871229
30
0
0
VERTEX
5
46C
8
0
6
BYLAYER
62
256
10
34.37095508
20
20.5094717756
30
0
0
VERTEX
5
46D
8
0
6
BYLAYER
62
256
10
34.33279362
20
20.5325766076
30
0
0
VERTEX
5
46E
8
0
6
BYLAYER
62
256
10
34.29414306
20
20.5563993256
30
0
0
VERTEX
5
46F
8
0
6
BYLAYER
62
256
10
34.25507458
20
20.5809018584
30
0
0
VERTEX
5
470
8
0
6
BYLAYER
62
256
10
34.21565936
20
20.6060461364
30
0
0
VERTEX
5
471
8
0
6
BYLAYER
62
256
10
34.175968572
20
20.6317940892
30
0
0
VERTEX
5
472
8
0
6
BYLAYER
62
256
10
34.1360734
20
20.6581076456
30
0
0
VERTEX
5
473
8
0
6
BYLAYER
62
256
10
34.096045016
20
20.684948736
30
0
0
VERTEX
5
474
8
0
6
BYLAYER
62
256
10
34.055954596
20
20.71227929
30
0
0
VERTEX
5
475
8
0
6
BYLAYER
62
256
10
34.015873328
20
20.7400612368
30
0
0
VERTEX
5
476
8
0
6
BYLAYER
62
256
10
33.97587238
20
20.7682565064
30
0
0
VERTEX
5
477
8
0
6
BYLAYER
62
256
10
33.936022932
20
20.796827028
30
0
0
VERTEX
5
478
8
0
6
BYLAYER
62
256
10
33.893286268
20
20.827156946
30
0
0
VERTEX
5
479
8
0
6
BYLAYER
62
256
10
33.844719784
20
20.860570658
30
0
0
VERTEX
5
47A
8
0
6
BYLAYER
62
256
10
33.790538556
20
20.8969404744
30
0
0
VERTEX
5
47B
8
0
6
BYLAYER
62
256
10
33.730957652
20
20.9361387048
30
0
0
VERTEX
5
47C
8
0
6
BYLAYER
62
256
10
33.666192144
20
20.9780376596
30
0
0
VERTEX
5
47D
8
0
6
BYLAYER
62
256
10
33.596457104
20
21.0225096492
30
0
0
VERTEX
5
47E
8
0
6
BYLAYER
62
256
10
33.521967604
20
21.0694269832
30
0
0
VERTEX
5
47F
8
0
6
BYLAYER
62
256
10
33.442938716
20
21.118661972
30
0
0
VERTEX
5
480
8
0
6
BYLAYER
62
256
10
33.359585508
20
21.1700869256
30
0
0
VERTEX
5
481
8
0
6
BYLAYER
62
256
10
33.272123052
20
21.2235741544
30
0
0
VERTEX
5
482
8
0
6
BYLAYER
62
256
10
33.180766424
20
21.278995968
30
0
0
VERTEX
5
483
8
0
6
BYLAYER
62
256
10
33.085730692
20
21.3362246768
30
0
0
VERTEX
5
484
8
0
6
BYLAYER
62
256
10
32.987230924
20
21.3951325908
30
0
0
VERTEX
5
485
8
0
6
BYLAYER
62
256
10
32.8854822
20
21.4555920204
30
0
0
VERTEX
5
486
8
0
6
BYLAYER
62
256
10
32.780699584
20
21.5174752756
30
0
0
VERTEX
5
487
8
0
6
BYLAYER
62
256
10
32.673098152
20
21.580654666
30
0
0
VERTEX
5
488
8
0
6
BYLAYER
62
256
10
32.562892972
20
21.6450025024
30
0
0
VERTEX
5
489
8
0
6
BYLAYER
62
256
10
32.450299116
20
21.7103910948
30
0
0
VERTEX
5
48A
8
0
6
BYLAYER
62
256
10
32.33553166
20
21.7766927528
30
0
0
VERTEX
5
48B
8
0
6
BYLAYER
62
256
10
32.218805668
20
21.8437797872
30
0
0
VERTEX
5
48C
8
0
6
BYLAYER
62
256
10
32.100336216
20
21.9115245076
30
0
0
VERTEX
5
48D
8
0
6
BYLAYER
62
256
10
31.980338376
20
21.9797992244
30
0
0
VERTEX
5
48E
8
0
6
BYLAYER
62
256
10
31.859027216
20
22.0484762476
30
0
0
VERTEX
5
48F
8
0
6
BYLAYER
62
256
10
31.736617812
20
22.1174278872
30
0
0
VERTEX
5
490
8
0
6
BYLAYER
62
256
10
31.613325232
20
22.1865264532
30
0
0
VERTEX
5
491
8
0
6
BYLAYER
62
256
10
31.489364548
20
22.2556442564
30
0
0
VERTEX
5
492
8
0
6
BYLAYER
62
256
10
31.364950828
20
22.324653606
30
0
0
VERTEX
5
493
8
0
6
BYLAYER
62
256
10
31.240299152
20
22.3934268128
30
0
0
VERTEX
5
494
8
0
6
BYLAYER
62
256
10
31.115624584
20
22.4618361868
30
0
0
VERTEX
5
495
8
0
6
BYLAYER
62
256
10
30.9911422
20
22.5297540376
30
0
0
VERTEX
5
496
8
0
6
BYLAYER
62
256
10
30.867067068
20
22.597052676
30
0
0
VERTEX
5
497
8
0
6
BYLAYER
62
256
10
30.691229272
20
22.6926449844
30
0
0
VERTEX
5
498
8
0
6
BYLAYER
62
256
10
30.523639728
20
22.7848302408
30
0
0
VERTEX
5
499
8
0
6
BYLAYER
62
256
10
30.364091428
20
22.873782236
30
0
0
VERTEX
5
49A
8
0
6
BYLAYER
62
256
10
30.212377368
20
22.9596747604
30
0
0
VERTEX
5
49B
8
0
6
BYLAYER
62
256
10
30.068290532
20
23.042681604
30
0
0
VERTEX
5
49C
8
0
6
BYLAYER
62
256
10
29.931623924
20
23.1229765572
30
0
0
VERTEX
5
49D
8
0
6
BYLAYER
62
256
10
29.802170528
20
23.2007334104
30
0
0
VERTEX
5
49E
8
0
6
BYLAYER
62
256
10
29.67972334
20
23.2761259536
30
0
0
VERTEX
5
49F
8
0
6
BYLAYER
62
256
10
29.564075356
20
23.3493279776
30
0
0
VERTEX
5
4A0
8
0
6
BYLAYER
62
256
10
29.455019564
20
23.4205132724
30
0
0
VERTEX
5
4A1
8
0
6
BYLAYER
62
256
10
29.352348956
20
23.4898556288
30
0
0
VERTEX
5
4A2
8
0
6
BYLAYER
62
256
10
29.255856528
20
23.557528836
30
0
0
VERTEX
5
4A3
8
0
6
BYLAYER
62
256
10
29.165335268
20
23.6237066856
30
0
0
VERTEX
5
4A4
8
0
6
BYLAYER
62
256
10
29.080578176
20
23.6885629668
30
0
0
VERTEX
5
4A5
8
0
6
BYLAYER
62
256
10
29.001378236
20
23.7522714708
30
0
0
VERTEX
5
4A6
8
0
6
BYLAYER
62
256
10
28.927528448
20
23.8150059872
30
0
0
VERTEX
5
4A7
8
0
6
BYLAYER
62
256
10
28.858821804
20
23.8769403068
30
0
0
VERTEX
5
4A8
8
0
6
BYLAYER
62
256
10
28.795051292
20
23.93824822
30
0
0
VERTEX
5
4A9
8
0
6
BYLAYER
62
256
10
28.736009908
20
23.9991035164
30
0
0
VERTEX
5
4AA
8
0
6
BYLAYER
62
256
10
28.681490644
20
24.0596799872
30
0
0
VERTEX
5
4AB
8
0
6
BYLAYER
62
256
10
28.631286492
20
24.120151422
30
0
0
VERTEX
5
4AC
8
0
6
BYLAYER
62
256
10
28.585190448
20
24.1806916116
30
0
0
VERTEX
5
4AD
8
0
6
BYLAYER
62
256
10
28.5429955
20
24.241474346
30
0
0
VERTEX
5
4AE
8
0
6
BYLAYER
62
256
10
28.504494644
20
24.302673416
30
0
0
VERTEX
5
4AF
8
0
6
BYLAYER
62
256
10
28.469480868
20
24.3644626112
30
0
0
VERTEX
5
4B0
8
0
6
BYLAYER
62
256
10
28.437747172
20
24.427015722
30
0
0
VERTEX
5
4B1
8
0
6
BYLAYER
62
256
10
28.409086544
20
24.4905065392
30
0
0
VERTEX
5
4B2
8
0
6
BYLAYER
62
256
10
28.383291976
20
24.5551088528
30
0
0
VERTEX
5
4B3
8
0
6
BYLAYER
62
256
10
28.36015646
20
24.6209964536
30
0
0
VERTEX
5
4B4
8
0
6
BYLAYER
62
256
10
28.339472996
20
24.6883431312
30
0
0
VERTEX
5
4B5
8
0
6
BYLAYER
62
256
10
28.321034568
20
24.757322676
30
0
0
VERTEX
5
4B6
8
0
6
BYLAYER
62
256
10
28.307369672
20
24.8123668548
30
0
0
VERTEX
5
4B7
8
0
6
BYLAYER
62
256
10
28.290355612
20
24.8811403448
30
0
0
VERTEX
5
4B8
8
0
6
BYLAYER
62
256
10
28.270099352
20
24.9632106612
30
0
0
VERTEX
5
4B9
8
0
6
BYLAYER
62
256
10
28.246707844
20
25.0581453196
30
0
0
VERTEX
5
4BA
8
0
6
BYLAYER
62
256
10
28.220288052
20
25.1655118356
30
0
0
VERTEX
5
4BB
8
0
6
BYLAYER
62
256
10
28.19094694
20
25.2848777252
30
0
0
VERTEX
5
4BC
8
0
6
BYLAYER
62
256
10
28.158791464
20
25.4158105036
30
0
0
VERTEX
5
4BD
8
0
6
BYLAYER
62
256
10
28.123928584
20
25.5578776868
30
0
0
VERTEX
5
4BE
8
0
6
BYLAYER
62
256
10
28.086465264
20
25.7106467904
30
0
0
VERTEX
5
4BF
8
0
6
BYLAYER
62
256
10
28.04650846
20
25.8736853296
30
0
0
VERTEX
5
4C0
8
0
6
BYLAYER
62
256
10
28.004165132
20
26.0465608208
30
0
0
VERTEX
5
4C1
8
0
6
BYLAYER
62
256
10
27.959542244
20
26.2288407788
30
0
0
VERTEX
5
4C2
8
0
6
BYLAYER
62
256
10
27.912746756
20
26.4200927196
30
0
0
VERTEX
5
4C3
8
0
6
BYLAYER
62
256
10
27.863885628
20
26.6198841588
30
0
0
VERTEX
5
4C4
8
0
6
BYLAYER
62
256
10
27.813065816
20
26.827782612
30
0
0
VERTEX
5
4C5
8
0
6
BYLAYER
62
256
10
27.760394284
20
27.0433555948
30
0
0
VERTEX
5
4C6
8
0
6
BYLAYER
62
256
10
27.705977992
20
27.2661706232
30
0
0
VERTEX
5
4C7
8
0
6
BYLAYER
62
256
10
27.6499239
20
27.4957952124
30
0
0
VERTEX
5
4C8
8
0
6
BYLAYER
62
256
10
27.592338972
20
27.731796878
30
0
0
VERTEX
5
4C9
8
0
6
BYLAYER
62
256
10
27.53333016
20
27.973743136
30
0
0
VERTEX
5
4CA
8
0
6
BYLAYER
62
256
10
27.473004428
20
28.2212015016
30
0
0
VERTEX
5
4CB
8
0
6
BYLAYER
62
256
10
27.41146874
20
28.4737394908
30
0
0
VERTEX
5
4CC
8
0
6
BYLAYER
62
256
10
27.348830052
20
28.7309246192
30
0
0
VERTEX
5
4CD
8
0
6
BYLAYER
62
256
10
27.285195324
20
28.9923244024
30
0
0
VERTEX
5
4CE
8
0
6
BYLAYER
62
256
10
27.22067152
20
29.2575063556
30
0
0
VERTEX
5
4CF
8
0
6
BYLAYER
62
256
10
27.1553656
20
29.5260379948
30
0
0
VERTEX
5
4D0
8
0
6
BYLAYER
62
256
10
27.089384516
20
29.797486836
30
0
0
VERTEX
5
4D1
8
0
6
BYLAYER
62
256
10
27.02283524
20
30.071420394
30
0
0
VERTEX
5
4D2
8
0
6
BYLAYER
62
256
10
26.955824724
20
30.3474061848
30
0
0
VERTEX
5
4D3
8
0
6
BYLAYER
62
256
10
26.888459932
20
30.6250117244
30
0
0
VERTEX
5
4D4
8
0
6
BYLAYER
62
256
10
26.820847824
20
30.903804528
30
0
0
VERTEX
5
4D5
8
0
6
BYLAYER
62
256
10
26.752100472
20
31.1847917104
30
0
0
VERTEX
5
4D6
8
0
6
BYLAYER
62
256
10
26.681367316
20
31.4689066504
30
0
0
VERTEX
5
4D7
8
0
6
BYLAYER
62
256
10
26.608811072
20
31.7556062576
30
0
0
VERTEX
5
4D8
8
0
6
BYLAYER
62
256
10
26.53459446
20
32.0443474436
30
0
0
VERTEX
5
4D9
8
0
6
BYLAYER
62
256
10
26.458880196
20
32.3345871184
30
0
0
VERTEX
5
4DA
8
0
6
BYLAYER
62
256
10
26.381831
20
32.6257821932
30
0
0
VERTEX
5
4DB
8
0
6
BYLAYER
62
256
10
26.303609592
20
32.917389578
30
0
0
VERTEX
5
4DC
8
0
6
BYLAYER
62
256
10
26.224378688
20
33.208866184
30
0
0
VERTEX
5
4DD
8
0
6
BYLAYER
62
256
10
26.144301008
20
33.4996689216
30
0
0
VERTEX
5
4DE
8
0
6
BYLAYER
62
256
10
26.063539268
20
33.7892547012
30
0
0
VERTEX
5
4DF
8
0
6
BYLAYER
62
256
10
25.982256188
20
34.0770804336
30
0
0
VERTEX
5
4E0
8
0
6
BYLAYER
62
256
10
25.900614488
20
34.3626030296
30
0
0
VERTEX
5
4E1
8
0
6
BYLAYER
62
256
10
25.818776888
20
34.6452794
30
0
0
VERTEX
5
4E2
8
0
6
BYLAYER
62
256
10
25.7369061
20
34.9245664552
30
0
0
VERTEX
5
4E3
8
0
6
BYLAYER
62
256
10
25.655164848
20
35.1999211056
30
0
0
VERTEX
5
4E4
8
0
6
BYLAYER
62
256
10
25.573715852
20
35.470800262
30
0
0
VERTEX
5
4E5
8
0
6
BYLAYER
62
256
10
25.492721824
20
35.7366608352
30
0
0
VERTEX
5
4E6
8
0
6
BYLAYER
62
256
10
25.412345484
20
35.9969597356
30
0
0
VERTEX
5
4E7
8
0
6
BYLAYER
62
256
10
25.332749556
20
36.251153874
30
0
0
VERTEX
5
4E8
8
0
6
BYLAYER
62
256
10
25.254096752
20
36.4987001612
30
0
0
VERTEX
5
4E9
8
0
6
BYLAYER
62
256
10
25.176549796
20
36.7390555072
30
0
0
VERTEX
5
4EA
8
0
6
BYLAYER
62
256
10
25.1002714
20
36.9716768236
30
0
0
VERTEX
5
4EB
8
0
6
BYLAYER
62
256
10
25.025424288
20
37.19602102
30
0
0
VERTEX
5
4EC
8
0
6
BYLAYER
62
256
10
24.95217118
20
37.411545008
30
0
0
VERTEX
5
4ED
8
0
6
BYLAYER
62
256
10
24.880674788
20
37.6177056976
30
0
0
VERTEX
5
4EE
8
0
6
BYLAYER
62
256
10
24.811097836
20
37.8139599996
30
0
0
VERTEX
5
4EF
8
0
6
BYLAYER
62
256
10
24.743603036
20
37.9997648244
30
0
0
VERTEX
5
4F0
8
0
6
BYLAYER
62
256
10
24.678353116
20
38.1745770832
30
0
0
VERTEX
5
4F1
8
0
6
BYLAYER
62
256
10
24.615510788
20
38.3378536864
30
0
0
VERTEX
5
4F2
8
0
6
BYLAYER
62
256
10
24.555238772
20
38.4890515444
30
0
0
VERTEX
5
4F3
8
0
6
BYLAYER
62
256
10
24.497699784
20
38.627627568
30
0
0
VERTEX
5
4F4
8
0
6
BYLAYER
62
256
10
24.391954396
20
38.877392772
30
0
0
VERTEX
5
4F5
8
0
6
BYLAYER
62
256
10
24.292336732
20
39.11458144
30
0
0
VERTEX
5
4F6
8
0
6
BYLAYER
62
256
10
24.198781968
20
39.3394910588
30
0
0
VERTEX
5
4F7
8
0
6
BYLAYER
62
256
10
24.111225288
20
39.5524191136
30
0
0
VERTEX
5
4F8
8
0
6
BYLAYER
62
256
10
24.029601868
20
39.7536630912
30
0
0
VERTEX
5
4F9
8
0
6
BYLAYER
62
256
10
23.95384688
20
39.9435204772
30
0
0
VERTEX
5
4FA
8
0
6
BYLAYER
62
256
10
23.883895508
20
40.122288758
30
0
0
VERTEX
5
4FB
8
0
6
BYLAYER
62
256
10
23.819682932
20
40.2902654188
30
0
0
VERTEX
5
4FC
8
0
6
BYLAYER
62
256
10
23.761144324
20
40.4477479464
30
0
0
VERTEX
5
4FD
8
0
6
BYLAYER
62
256
10
23
20
42
30
0
42
2.41421356237
0
VERTEX
5
4FE
8
0
6
BYLAYER
62
256
10
16
20
35
30
0
0
VERTEX
5
4FF
8
0
6
BYLAYER
62
256
10
18.894819108
20
26.3903919872
30
0
0
VERTEX
5
500
8
0
6
BYLAYER
62
256
10
18.968644036
20
26.1610159728
30
0
0
VERTEX
5
501
8
0
6
BYLAYER
62
256
10
19.044078292
20
25.9109565896
30
0
0
VERTEX
5
502
8
0
6
BYLAYER
62
256
10
19.12115204
20
25.6402230404
30
0
0
VERTEX
5
503
8
0
6
BYLAYER
62
256
10
19.199895432
20
25.348824528
30
0
0
VERTEX
5
504
8
0
6
BYLAYER
62
256
10
19.321953684
20
24.9069813888
30
0
0
VERTEX
5
505
8
0
6
BYLAYER
62
256
10
19.455752964
20
24.461573054
30
0
0
VERTEX
5
506
8
0
6
BYLAYER
62
256
10
19.600703472
20
24.0135782332
30
0
0
VERTEX
5
507
8
0
6
BYLAYER
62
256
10
19.756215416
20
23.5639756352
30
0
0
VERTEX
5
508
8
0
6
BYLAYER
62
256
10
19.921698996
20
23.1137439696
30
0
0
VERTEX
5
509
8
0
6
BYLAYER
62
256
10
20.09656442
20
22.6638619456
30
0
0
VERTEX
5
50A
8
0
6
BYLAYER
62
256
10
20.280221888
20
22.2153082728
30
0
0
VERTEX
5
50B
8
0
6
BYLAYER
62
256
10
20.472081612
20
21.76906166
30
0
0
VERTEX
5
50C
8
0
6
BYLAYER
62
256
10
20.671553792
20
21.3261008164
30
0
0
VERTEX
5
50D
8
0
6
BYLAYER
62
256
10
20.878048632
20
20.887404452
30
0
0
VERTEX
5
50E
8
0
6
BYLAYER
62
256
10
21.090976336
20
20.4539512752
30
0
0
VERTEX
5
50F
8
0
6
BYLAYER
62
256
10
21.309747112
20
20.026719996
30
0
0
VERTEX
5
510
8
0
6
BYLAYER
62
256
10
21.533771164
20
19.6066893236
30
0
0
VERTEX
5
511
8
0
6
BYLAYER
62
256
10
21.762458692
20
19.1948379668
30
0
0
VERTEX
5
512
8
0
6
BYLAYER
62
256
10
21.995219904
20
18.7921446352
30
0
0
VERTEX
5
513
8
0
6
BYLAYER
62
256
10
22.231465008
20
18.399588038
30
0
0
VERTEX
5
514
8
0
6
BYLAYER
62
256
10
22.4706042
20
18.0181468848
30
0
0
VERTEX
5
515
8
0
6
BYLAYER
62
256
10
22.712047692
20
17.6487998844
30
0
0
VERTEX
5
516
8
0
6
BYLAYER
62
256
10
22.955205684
20
17.2925257464
30
0
0
VERTEX
5
517
8
0
6
BYLAYER
62
256
10
23.199488384
20
16.9503031796
30
0
0
VERTEX
5
518
8
0
6
BYLAYER
62
256
10
23.444305992
20
16.623110894
30
0
0
VERTEX
5
519
8
0
6
BYLAYER
62
256
10
23.68906872
20
16.3119275988
30
0
0
VERTEX
5
51A
8
0
6
BYLAYER
62
256
10
23.933186764
20
16.0177320028
30
0
0
VERTEX
5
51B
8
0
6
BYLAYER
62
256
10
24.176070332
20
15.7415028152
30
0
0
VERTEX
5
51C
8
0
6
BYLAYER
62
256
10
24.417129632
20
15.484218746
30
0
0
VERTEX
5
51D
8
0
6
BYLAYER
62
256
10
24.65577486
20
15.246858504
30
0
0
SEQEND
5
51E
8
0
6
BYLAYER
62
256
0
POLYLINE
5
51F
8
0
6
BYLAYER
62
256
66
1
10
0
20
0
30
0
70
1
0
VERTEX
5
520
8
0
6
BYLAYER
62
256
10
64.90811604
20
10.2365504968
30
0
0
VERTEX
5
521
8
0
6
BYLAYER
62
256
10
64.941106408
20
10.2583840548
30
0
0
VERTEX
5
522
8
0
6
BYLAYER
62
256
10
64.979214572
20
10.2783680016
30
0
0
VERTEX
5
523
8
0
6
BYLAYER
62
256
10
65.022453876
20
10.296520248
30
0
0
VERTEX
5
524
8
0
6
BYLAYER
62
256
10
65.07083768
20
10.3128587048
30
0
0
VERTEX
5
525
8
0
6
BYLAYER
62
256
10
65.124379328
20
10.3274012824
30
0
0
VERTEX
5
526
8
0
6
BYLAYER
62
256
10
65.183092176
20
10.3401658912
30
0
0
VERTEX
5
527
8
0
6
BYLAYER
62
256
10
65.246989568
20
10.3511704424
30
0
0
VERTEX
5
528
8
0
6
BYLAYER
62
256
10
65.31608486
20
10.360432846
30
0
0
VERTEX
5
529
8
0
6
BYLAYER
62
256
10
65.3903914
20
10.3679710132
30
0
0
VERTEX
5
52A
8
0
6
BYLAYER
62
256
10
65.46992254
20
10.3738028544
30
0
0
VERTEX
5
52B
8
0
6
BYLAYER
62
256
10
65.554691632
20
10.37794628
30
0
0
VERTEX
5
52C
8
0
6
BYLAYER
62
256
10
65.644712024
20
10.3804192012
30
0
0
VERTEX
5
52D
8
0
6
BYLAYER
62
256
10
65.739997068
20
10.381239528
30
0
0
VERTEX
5
52E
8
0
6
BYLAYER
62
256
10
65.739997068
20
10.381239528
30
0
0
VERTEX
5
52F
8
0
6
BYLAYER
62
256
10
65.809426692
20
10.3808455536
30
0
0
VERTEX
5
530
8
0
6
BYLAYER
62
256
10
65.875533188
20
10.3796412284
30
0
0
VERTEX
5
531
8
0
6
BYLAYER
62
256
10
65.938370308
20
10.3775929512
30
0
0
VERTEX
5
532
8
0
6
BYLAYER
62
256
10
65.997991804
20
10.3746671188
30
0
0
VERTEX
5
533
8
0
6
BYLAYER
62
256
10
66.054451428
20
10.3708301304
30
0
0
VERTEX
5
534
8
0
6
BYLAYER
62
256
10
66.107802928
20
10.3660483828
30
0
0
VERTEX
5
535
8
0
6
BYLAYER
62
256
10
66.158100056
20
10.3602882744
30
0
0
VERTEX
5
536
8
0
6
BYLAYER
62
256
10
66.205396572
20
10.3535162032
30
0
0
VERTEX
5
537
8
0
6
BYLAYER
62
256
10
66.249746216
20
10.3456985668
30
0
0
VERTEX
5
538
8
0
6
BYLAYER
62
256
10
66.291202748
20
10.3368017636
30
0
0
VERTEX
5
539
8
0
6
BYLAYER
62
256
10
66.329819916
20
10.3267921912
30
0
0
VERTEX
5
53A
8
0
6
BYLAYER
62
256
10
66.365651472
20
10.3156362476
30
0
0
VERTEX
5
53B
8
0
6
BYLAYER
62
256
10
66.398751172
20
10.3033003308
30
0
0
VERTEX
5
53C
8
0
6
BYLAYER
62
256
10
66.42917276
20
10.2897508388
30
0
0
VERTEX
5
53D
8
0
6
BYLAYER
62
256
10
66.456969992
20
10.2749541692
30
0
0
VERTEX
5
53E
8
0
6
BYLAYER
62
256
10
66.48219662
20
10.25887672
30
0
0
VERTEX
5
53F
8
0
6
BYLAYER
62
256
10
66.504906392
20
10.2414848892
30
0
0
VERTEX
5
540
8
0
6
BYLAYER
62
256
10
66.525153064
20
10.2227450748
30
0
0
VERTEX
5
541
8
0
6
BYLAYER
62
256
10
66.542990388
20
10.2026236744
30
0
0
VERTEX
5
542
8
0
6
BYLAYER
62
256
10
66.558472112
20
10.1810870864
30
0
0
VERTEX
5
543
8
0
6
BYLAYER
62
256
10
66.571651988
20
10.1581017084
30
0
0
VERTEX
5
544
8
0
6
BYLAYER
62
256
10
66.582583772
20
10.1336339388
30
0
0
VERTEX
5
545
8
0
6
BYLAYER
62
256
10
66.591321212
20
10.1076501748
30
0
0
VERTEX
5
546
8
0
6
BYLAYER
62
256
10
66.59791806
20
10.0801168148
30
0
0
VERTEX
5
547
8
0
6
BYLAYER
62
256
10
66.602428068
20
10.0510002564
30
0
0
VERTEX
5
548
8
0
6
BYLAYER
62
256
10
66.604904988
20
10.0202668976
30
0
0
VERTEX
5
549
8
0
6
BYLAYER
62
256
10
66.605402572
20
9.9878831368
30
0
0
VERTEX
5
54A
8
0
6
BYLAYER
62
256
10
66.603974568
20
9.9538153716
30
0
0
VERTEX
5
54B
8
0
6
BYLAYER
62
256
10
66.600674732
20
9.9180299996
30
0
0
VERTEX
5
54C
8
0
6
BYLAYER
62
256
10
66.595556816
20
9.8804934192
30
0
0
VERTEX
5
54D
8
0
6
BYLAYER
62
256
10
66.588674568
20
9.841172028
30
0
0
VERTEX
5
54E
8
0
6
BYLAYER
62
256
10
66.574342236
20
9.7786208688
30
0
0
VERTEX
5
54F
8
0
6
BYLAYER
62
256
10
66.556140048
20
9.7191053308
30
0
0
VERTEX
5
550
8
0
6
BYLAYER
62
256
10
66.5342525
20
9.662668394
30
0
0
VERTEX
5
551
8
0
6
BYLAYER
62
256
10
66.508864096
20
9.6093530384
30
0
0
VERTEX
5
552
8
0
6
BYLAYER
62
256
10
66.480159328
20
9.559202244
30
0
0
VERTEX
5
553
8
0
6
BYLAYER
62
256
10
66.448322704
20
9.5122589908
30
0
0
VERTEX
5
554
8
0
6
BYLAYER
62
256
10
66.413538712
20
9.4685662584
30
0
0
VERTEX
5
555
8
0
6
BYLAYER
62
256
10
66.375991864
20
9.4281670272
30
0
0
VERTEX
5
556
8
0
6
BYLAYER
62
256
10
66.335866648
20
9.3911042768
30
0
0
VERTEX
5
557
8
0
6
BYLAYER
62
256
10
66.293347572
20
9.3574209872
30
0
0
VERTEX
5
558
8
0
6
BYLAYER
62
256
10
66.248619128
20
9.3271601384
30
0
0
VERTEX
5
559
8
0
6
BYLAYER
62
256
10
66.20186582
20
9.3003647104
30
0
0
VERTEX
5
55A
8
0
6
BYLAYER
62
256
10
66.153272144
20
9.2770776832
30
0
0
VERTEX
5
55B
8
0
6
BYLAYER
62
256
10
66.103022604
20
9.2573420364
30
0
0
VERTEX
5
55C
8
0
6
BYLAYER
62
256
10
66.051301692
20
9.2412007504
30
0
0
VERTEX
5
55D
8
0
6
BYLAYER
62
256
10
65.998293912
20
9.2286968052
30
0
0
VERTEX
5
55E
8
0
6
BYLAYER
62
256
10
65.944183764
20
9.21987318
30
0
0
VERTEX
5
55F
8
0
6
BYLAYER
62
256
10
65.889155744
20
9.2147728556
30
0
0
VERTEX
5
560
8
0
6
BYLAYER
62
256
10
65.833394352
20
9.2134388112
30
0
0
VERTEX
5
561
8
0
6
BYLAYER
62
256
10
65.777084092
20
9.2159140276
30
0
0
VERTEX
5
562
8
0
6
BYLAYER
62
256
10
65.720409452
20
9.222241484
30
0
0
VERTEX
5
563
8
0
6
BYLAYER
62
256
10
65.663554944
20
9.2324641604
30
0
0
VERTEX
5
564
8
0
6
BYLAYER
62
256
10
65.60670506
20
9.2466250376
30
0
0
VERTEX
5
565
8
0
6
BYLAYER
62
256
10
65.5500443
20
9.2647670944
30
0
0
VERTEX
5
566
8
0
6
BYLAYER
62
256
10
65.49375716
20
9.2869333116
30
0
0
VERTEX
5
567
8
0
6
BYLAYER
62
256
10
65.438028148
20
9.3131666684
30
0
0
VERTEX
5
568
8
0
6
BYLAYER
62
256
10
65.383041756
20
9.3435101456
30
0
0
VERTEX
5
569
8
0
6
BYLAYER
62
256
10
65.328982484
20
9.3780067224
30
0
0
VERTEX
5
56A
8
0
6
BYLAYER
62
256
10
65.276034836
20
9.4166993792
30
0
0
VERTEX
5
56B
8
0
6
BYLAYER
62
256
10
65.224383304
20
9.4596310956
30
0
0
VERTEX
5
56C
8
0
6
BYLAYER
62
256
10
65.174212392
20
9.506844852
30
0
0
VERTEX
5
56D
8
0
6
BYLAYER
62
256
10
65.117365436
20
9.565034126
30
0
0
VERTEX
5
56E
8
0
6
BYLAYER
62
256
10
65.065395964
20
9.6210513976
30
0
0
VERTEX
5
56F
8
0
6
BYLAYER
62
256
10
65.018317324
20
9.6749145772
30
0
0
VERTEX
5
570
8
0
6
BYLAYER
62
256
10
64.976142864
20
9.726641576
30
0
0
VERTEX
5
571
8
0
6
BYLAYER
62
256
10
64.93888594
20
9.7762503044
30
0
0
VERTEX
5
572
8
0
6
BYLAYER
62
256
10
64.9065599
20
9.8237586728
30
0
0
VERTEX
5
573
8
0
6
BYLAYER
62
256
10
64.879178092
20
9.8691845924
30
0
0
VERTEX
5
574
8
0
6
BYLAYER
62
256
10
64.856753872
20
9.9125459728
30
0
0
VERTEX
5
575
8
0
6
BYLAYER
62
256
10
64.839300588
20
9.9538607256
30
0
0
VERTEX
5
576
8
0
6
BYLAYER
62
256
10
64.826831592
20
9.9931467612
30
0
0
VERTEX
5
577
8
0
6
BYLAYER
62
256
10
64.819360236
20
10.03042199
30
0
0
VERTEX
5
578
8
0
6
BYLAYER
62
256
10
64.816899864
20
10.0657043228
30
0
0
VERTEX
5
579
8
0
6
BYLAYER
62
256
10
64.819463832
20
10.09901167
30
0
0
VERTEX
5
57A
8
0
6
BYLAYER
62
256
10
64.827065492
20
10.1303619424
30
0
0
VERTEX
5
57B
8
0
6
BYLAYER
62
256
10
64.839718192
20
10.1597730508
30
0
0
VERTEX
5
57C
8
0
6
BYLAYER
62
256
10
64.85743528
20
10.1872629056
30
0
0
VERTEX
5
57D
8
0
6
BYLAYER
62
256
10
64.880230112
20
10.2128494176
30
0
0
SEQEND
5
57E
8
0
6
BYLAYER
62
256
0
ENDSEC
0
EOF
