999
dxfrw 0.5.10
0
SECTION
2
HEADER
9
$ACADVER
1
AC1009
9
$DWGCODEPAGE
3
ANSI_1252
9
$INSBASE
10
0
20
0
30
0
9
$EXTMIN
10
5.477502932
20
6.984756658
30
0
9
$EXTMAX
10
66
20
51
30
0
9
$LIMMIN
10
0
20
0
9
$LIMMAX
10
420
20
297
9
$ORTHOMODE
70
0
9
$LTSCALE
40
1
9
$TEXTSTYLE
7
STANDARD
9
$CLAYER
8
0
9
$DIMASZ
40
2.5
9
$DIMLFAC
40
1
9
$DIMSCALE
40
1
9
$DIMEXO
40
0.625
9
$DIMEXE
40
1.25
9
$DIMTXT
40
2.5
9
$DIMTSZ
40
0
9
$DIMUNIT
70
2
9
$DIMSTYLE
2
STANDARD
9
$DIMGAP
40
0.625
9
$DIMTIH
70
0
9
$LUNITS
70
2
9
$LUPREC
70
4
9
$AUNITS
70
0
9
$AUPREC
70
2
9
$GRIDMODE
70
1
9
$SNAPSTYLE
70
0
9
$PLIMMIN
10
0
20
0
9
$PLIMMAX
10
21
20
29.7
0
ENDSEC
0
SECTION
2
CLASSES
0
ENDSEC
0
SECTION
2
TABLES
0
TABLE
2
VPORT
70
1
0
VPORT
2
*ACTIVE
70
0
10
0
20
0
11
1
21
1
12
148.75
22
87.5
13
0
23
0
14
10
24
10
15
10
25
10
16
0
26
0
36
1
17
0
27
0
37
0
40
187.5
41
1.65333333333
42
50
43
0
44
0
50
0
51
0
71
0
72
100
73
1
74
3
75
0
76
1
77
0
78
0
0
ENDTAB
0
TABLE
2
LTYPE
70
4
0
LTYPE
2
BYBLOCK
70
0
3

72
65
73
0
40
0
0
LTYPE
2
BYLAYER
70
0
3

72
65
73
0
40
0
0
LTYPE
2
CONTINUOUS
70
0
3
Solid line
72
65
73
0
40
0
0
LTYPE
2
DOT
70
0
3
Dot . . . . . . . . . . . . . . . . . . . . . .
72
65
73
2
40
6.35
49
0
49
-6.35
0
LTYPE
2
DOT2
70
0
3
Dot (.5x) .....................................
72
65
73
2
40
3.175
49
0
49
-3.175
0
LTYPE
2
DOTX2
70
0
3
Dot (2x) .  .  .  .  .  .  .  .  .  .  .  .  .
72
65
73
2
40
12.7
49
0
49
-12.7
0
LTYPE
2
DASHED
70
0
3
Dot . . . . . . . . . . . . . . . . . . . . . .
72
65
73
2
40
19.05
49
12.7
49
-6.35
0
LTYPE
2
DASHED2
70
0
3
Dashed (.5x) _ _ _ _ _ _ _ _ _ _ _ _ _ _ _ _ _
72
65
73
2
40
9.525
49
6.35
49
-3.175
0
LTYPE
2
DASHEDX2
70
0
3
Dashed (2x) ____  ____  ____  ____  ____  ___
72
65
73
2
40
38.1
49
25.4
49
-12.7
0
LTYPE
2
DASHDOT
70
0
3
Dash dot __ . __ . __ . __ . __ . __ . __ . __
72
65
73
4
40
25.4
49
12.7
49
-6.35
49
0
49
-6.35
0
LTYPE
2
DASHDOT2
70
0
3
Dash dot (.5x) _._._._._._._._._._._._._._._.
72
65
73
4
40
12.7
49
6.35
49
-3.175
49
0
49
-3.175
0
LTYPE
2
DASHDOTX2
70
0
3
Dash dot (2x) ____  .  ____  .  ____  .  ___
72
65
73
4
40
50.8
49
25.4
49
-12.7
49
0
49
-12.7
0
LTYPE
2
DIVIDE
70
0
3
Divide ____ . . ____ . . ____ . . ____ . . ____
72
65
73
6
40
31.75
49
12.7
49
-6.35
49
0
49
-6.35
49
0
49
-6.35
0
LTYPE
2
DIVIDE2
70
0
3
Divide (.5x) __..__..__..__..__..__..__..__.._
72
65
73
6
40
15.875
49
6.35
49
-3.175
49
0
49
-3.175
49
0
49
-3.175
0
LTYPE
2
DIVIDEX2
70
0
3
Divide (2x) ________  .  .  ________  .  .  _
72
65
73
6
40
63.5
49
25.4
49
-12.7
49
0
49
-12.7
49
0
49
-12.7
0
LTYPE
2
BORDER
70
0
3
Border __ __ . __ __ . __ __ . __ __ . __ __ .
72
65
73
6
40
44.45
49
12.7
49
-6.35
49
12.7
49
-6.35
49
0
49
-6.35
0
LTYPE
2
BORDER2
70
0
3
Border (.5x) __.__.__.__.__.__.__.__.__.__.__.
72
65
73
6
40
22.225
49
6.35
49
-3.175
49
6.35
49
-3.175
49
0
49
-3.175
0
LTYPE
2
BORDERX2
70
0
3
Border (2x) ____  ____  .  ____  ____  .  ___
72
65
73
6
40
88.9
49
25.4
49
-12.7
49
25.4
49
-12.7
49
0
49
-12.7
0
LTYPE
2
CENTER
70
0
3
Center ____ _ ____ _ ____ _ ____ _ ____ _ ____
72
65
73
4
40
50.8
49
31.75
49
-6.35
49
6.35
49
-6.35
0
LTYPE
2
CENTER2
70
0
3
Center (.5x) ___ _ ___ _ ___ _ ___ _ ___ _ ___
72
65
73
4
40
28.575
49
19.05
49
-3.175
49
3.175
49
-3.175
0
LTYPE
2
CENTERX2
70
0
3
Center (2x) ________  __  ________  __  _____
72
65
73
4
40
101.6
49
63.5
49
-12.7
49
12.7
49
-12.7
0
ENDTAB
0
TABLE
2
LAYER
70
1
0
LAYER
2
0
70
0
62
7
6
CONTINUOUS
0
ENDTAB
0
TABLE
2
STYLE
70
3
0
STYLE
2
STANDARD
70
0
40
0
41
1
50
0
71
0
42
1
3
TXT
4

0
ENDTAB
0
TABLE
2
VIEW
70
0
0
ENDTAB
0
TABLE
2
UCS
70
0
0
ENDTAB
0
TABLE
2
APPID
70
1
0
APPID
2
ACAD
70
0
0
ENDTAB
0
TABLE
2
DIMSTYLE
70
1
0
DIMSTYLE
2
STANDARD
70
0
3

4

5

6

7

40
1
41
2.5
42
0.625
43
0.38
44
1.25
45
0
46
0
47
0
48
0
140
2.5
141
0.09
142
0
143
25.4
144
1
145
0
146
1
147
0.625
71
0
72
0
73
0
74
1
75
0
76
0
77
0
78
0
170
0
171
2
172
0
173
0
174
0
175
0
176
0
177
0
178
0
0
ENDTAB
0
ENDSEC
0
SECTION
2
BLOCKS
0
BLOCK
8
0
2
$MODEL_SPACE
70
0
10
0
20
0
30
0
3
$MODEL_SPACE
1

0
ENDBLK
8
0
0
BLOCK
8
0
2
$PAPER_SPACE
70
0
10
0
20
0
30
0
3
$PAPER_SPACE
1

0
ENDBLK
8
0
0
ENDSEC
0
SECTION
2
ENTITIES
0
POLYLINE
5
31
8
0
6
BYLAYER
62
256
66
1
10
0
20
0
30
0
70
1
0
VERTEX
5
32
8
0
6
BYLAYER
62
256
10
60.6044166667
20
46.7765833333
30
0
0
VERTEX
5
33
8
0
6
BYLAYER
62
256
10
60.7614035673
20
46.698136326
30
0
0
VERTEX
5
34
8
0
6
BYLAYER
62
256
10
60.913654936
20
46.6058402205
30
0
0
VERTEX
5
35
8
0
6
BYLAYER
62
256
10
61.0599438585
20
46.5009166962
30
0
0
VERTEX
5
36
8
0
6
BYLAYER
62
256
10
61.1990434211
20
46.3845874326
30
0
0
VERTEX
5
37
8
0
6
BYLAYER
62
256
10
61.3297267095
20
46.2580741091
30
0
0
VERTEX
5
38
8
0
6
BYLAYER
62
256
10
61.4507668099
20
46.1225984052
30
0
0
VERTEX
5
39
8
0
6
BYLAYER
62
256
10
61.5609368082
20
45.9793820002
30
0
0
VERTEX
5
3A
8
0
6
BYLAYER
62
256
10
61.6590097905
20
45.8296465736
30
0
0
VERTEX
5
3B
8
0
6
BYLAYER
62
256
10
61.7437588426
20
45.6746138048
30
0
0
VERTEX
5
3C
8
0
6
BYLAYER
62
256
10
61.8140408668
20
45.5155387641
30
0
0
VERTEX
5
3D
8
0
6
BYLAYER
62
256
10
61.8701739701
20
45.3542586416
30
0
0
VERTEX
5
3E
8
0
6
BYLAYER
62
256
10
61.9137174046
20
45.1931050783
30
0
0
VERTEX
5
3F
8
0
6
BYLAYER
62
256
10
61.9462698585
20
45.0344254264
30
0
0
VERTEX
5
40
8
0
6
BYLAYER
62
256
10
61.9694300197
20
44.8805670376
30
0
0
VERTEX
5
41
8
0
6
BYLAYER
62
256
10
61.9847965764
20
44.7338772638
30
0
0
VERTEX
5
42
8
0
6
BYLAYER
62
256
10
61.9939682168
20
44.5967034571
30
0
0
VERTEX
5
43
8
0
6
BYLAYER
62
256
10
61.9985436288
20
44.4713929692
30
0
0
VERTEX
5
44
8
0
6
BYLAYER
62
256
10
62.0001215006
20
44.3602931521
30
0
0
VERTEX
5
45
8
0
6
BYLAYER
62
256
10
62.0003
20
44.26574931
30
0
0
VERTEX
5
46
8
0
6
BYLAYER
62
256
10
62.0003
20
44.1886222205
30
0
0
VERTEX
5
47
8
0
6
BYLAYER
62
256
10
62.0003
20
44.1256712713
30
0
0
VERTEX
5
48
8
0
6
BYLAYER
62
256
10
62.0003
20
44.0729535157
30
0
0
VERTEX
5
49
8
0
6
BYLAYER
62
256
10
62.0003
20
44.0265260068
30
0
0
VERTEX
5
4A
8
0
6
BYLAYER
62
256
10
62.0003
20
43.9824457978
30
0
0
VERTEX
5
4B
8
0
6
BYLAYER
62
256
10
62.0003
20
43.9367699418
30
0
0
VERTEX
5
4C
8
0
6
BYLAYER
62
256
10
62.0003
20
43.885555492
30
0
0
VERTEX
5
4D
8
0
6
BYLAYER
62
256
10
62.0003
20
43.8248595014
30
0
0
VERTEX
5
4E
8
0
6
BYLAYER
62
256
10
62.0003
20
43.7507390233
30
0
0
VERTEX
5
4F
8
0
6
BYLAYER
62
256
10
62.0002134174
20
43.6595915716
30
0
0
VERTEX
5
50
8
0
6
BYLAYER
62
256
10
61.9990196054
20
43.551487594
30
0
0
VERTEX
5
51
8
0
6
BYLAYER
62
256
10
61.9951280072
20
43.4287385425
30
0
0
VERTEX
5
52
8
0
6
BYLAYER
62
256
10
61.9869399347
20
43.293687843
30
0
0
VERTEX
5
53
8
0
6
BYLAYER
62
256
10
61.9728566999
20
43.1486789216
30
0
0
VERTEX
5
54
8
0
6
BYLAYER
62
256
10
61.9512796146
20
42.9960552041
30
0
0
VERTEX
5
55
8
0
6
BYLAYER
62
256
10
61.9206099907
20
42.8381601165
30
0
0
VERTEX
5
56
8
0
6
BYLAYER
62
256
10
61.8792491401
20
42.6773370849
30
0
0
VERTEX
5
57
8
0
6
BYLAYER
62
256
10
61.8255983747
20
42.5159295351
30
0
0
VERTEX
5
58
8
0
6
BYLAYER
62
256
10
61.7580663648
20
42.3562779823
30
0
0
VERTEX
5
59
8
0
6
BYLAYER
62
256
10
61.6759521396
20
42.2003707113
30
0
0
VERTEX
5
5A
8
0
6
BYLAYER
62
256
10
61.5802839379
20
42.0495119244
30
0
0
VERTEX
5
5B
8
0
6
BYLAYER
62
256
10
61.4722886738
20
41.9049272269
30
0
0
VERTEX
5
5C
8
0
6
BYLAYER
62
256
10
61.3531932612
20
41.7678422242
30
0
0
VERTEX
5
5D
8
0
6
BYLAYER
62
256
10
61.2242246142
20
41.6394825216
30
0
0
VERTEX
5
5E
8
0
6
BYLAYER
62
256
10
61.0866096467
20
41.5210737245
30
0
0
VERTEX
5
5F
8
0
6
BYLAYER
62
256
10
60.9415752728
20
41.4138414383
30
0
0
VERTEX
5
60
8
0
6
BYLAYER
62
256
10
60.7903484064
20
41.3190112682
30
0
0
VERTEX
5
61
8
0
6
BYLAYER
62
256
10
60.6341559617
20
41.2378088197
30
0
0
VERTEX
5
62
8
0
6
BYLAYER
62
256
10
60.474324558
20
41.1712072597
30
0
0
VERTEX
5
63
8
0
6
BYLAYER
62
256
10
60.3128888287
20
41.1183871779
30
0
0
VERTEX
5
64
8
0
6
BYLAYER
62
256
10
60.1521897846
20
41.0777534643
30
0
0
VERTEX
5
65
8
0
6
BYLAYER
62
256
10
59.994569662
20
41.0477079068
30
0
0
VERTEX
5
66
8
0
6
BYLAYER
62
256
10
59.8423706972
20
41.026652293
30
0
0
VERTEX
5
67
8
0
6
BYLAYER
62
256
10
59.6979351266
20
41.0129884108
30
0
0
VERTEX
5
68
8
0
6
BYLAYER
62
256
10
59.5636051864
20
41.005118048
30
0
0
VERTEX
5
69
8
0
6
BYLAYER
62
256
10
59.441723113
20
41.0014429923
30
0
0
VERTEX
5
6A
8
0
6
BYLAYER
62
256
10
59.3346311426
20
41.0003650314
30
0
0
VERTEX
5
6B
8
0
6
BYLAYER
62
256
10
59.2446162737
20
41.0003
30
0
0
VERTEX
5
6C
8
0
6
BYLAYER
62
256
10
59.1714634404
20
41.0003
30
0
0
VERTEX
5
6D
8
0
6
BYLAYER
62
256
10
59.111485783
20
41.0003
30
0
0
VERTEX
5
6E
8
0
6
BYLAYER
62
256
10
59.0607407114
20
41.0003
30
0
0
VERTEX
5
6F
8
0
6
BYLAYER
62
256
10
59.0152856358
20
41.0003
30
0
0
VERTEX
5
70
8
0
6
BYLAYER
62
256
10
58.9711779661
20
41.0003
30
0
0
VERTEX
5
71
8
0
6
BYLAYER
62
256
10
58.9244751125
20
41.0003
30
0
0
VERTEX
5
72
8
0
6
BYLAYER
62
256
10
58.871234485
20
41.0003
30
0
0
VERTEX
5
73
8
0
6
BYLAYER
62
256
10
58.8075134936
20
41.0003
30
0
0
VERTEX
5
74
8
0
6
BYLAYER
62
256
10
58.7293695485
20
41.0003
30
0
0
VERTEX
5
75
8
0
6
BYLAYER
62
256
10
58.6337238516
20
41.000519481
30
0
0
VERTEX
5
76
8
0
6
BYLAYER
62
256
10
58.5216670975
20
41.0022373511
30
0
0
VERTEX
5
77
8
0
6
BYLAYER
62
256
10
58.3955463821
20
41.0070517573
30
0
0
VERTEX
5
78
8
0
6
BYLAYER
62
256
10
58.2577090573
20
41.016560912
30
0
0
VERTEX
5
79
8
0
6
BYLAYER
62
256
10
58.1105024751
20
41.0323630274
30
0
0
VERTEX
5
7A
8
0
6
BYLAYER
62
256
10
57.9562739872
20
41.0560563156
30
0
0
VERTEX
5
7B
8
0
6
BYLAYER
62
256
10
57.7973709458
20
41.0892389889
30
0
0
VERTEX
5
7C
8
0
6
BYLAYER
62
256
10
57.6361407025
20
41.1335092596
30
0
0
VERTEX
5
7D
8
0
6
BYLAYER
62
256
10
57.4749306094
20
41.1904653399
30
0
0
VERTEX
5
7E
8
0
6
BYLAYER
62
256
10
57.3160645669
20
41.2616466125
30
0
0
VERTEX
5
7F
8
0
6
BYLAYER
62
256
10
57.1613270906
20
41.3472393808
30
0
0
VERTEX
5
80
8
0
6
BYLAYER
62
256
10
57.0119633114
20
41.446076869
30
0
0
VERTEX
5
81
8
0
6
BYLAYER
62
256
10
56.8691949089
20
41.5569334717
30
0
0
VERTEX
5
82
8
0
6
BYLAYER
62
256
10
56.7342435623
20
41.6785835836
30
0
0
VERTEX
5
83
8
0
6
BYLAYER
62
256
10
56.6083309512
20
41.8098015993
30
0
0
VERTEX
5
84
8
0
6
BYLAYER
62
256
10
56.4926787549
20
41.9493619135
30
0
0
VERTEX
5
85
8
0
6
BYLAYER
62
256
10
56.3885086529
20
42.0960389207
30
0
0
VERTEX
5
86
8
0
6
BYLAYER
62
256
10
56.2970423246
20
42.2486070157
30
0
0
VERTEX
5
87
8
0
6
BYLAYER
62
256
10
56.2195013348
20
42.4058405476
30
0
0
VERTEX
5
88
8
0
6
BYLAYER
62
256
10
56.1565442426
20
42.5662905834
30
0
0
VERTEX
5
89
8
0
6
BYLAYER
62
256
10
56.106961218
20
42.7277672064
30
0
0
VERTEX
5
8A
8
0
6
BYLAYER
62
256
10
56.0691553573
20
42.8879269908
30
0
0
VERTEX
5
8B
8
0
6
BYLAYER
62
256
10
56.041529757
20
43.0444265104
30
0
0
VERTEX
5
8C
8
0
6
BYLAYER
62
256
10
56.0224875134
20
43.1949223394
30
0
0
VERTEX
5
8D
8
0
6
BYLAYER
62
256
10
56.0104317231
20
43.3370710517
30
0
0
VERTEX
5
8E
8
0
6
BYLAYER
62
256
10
56.0037654823
20
43.4685292214
30
0
0
VERTEX
5
8F
8
0
6
BYLAYER
62
256
10
56.0008918876
20
43.5869534225
30
0
0
VERTEX
5
90
8
0
6
BYLAYER
62
256
10
56.0002140353
20
43.690000229
30
0
0
VERTEX
5
91
8
0
6
BYLAYER
62
256
10
56.0002
20
43.7755820081
30
0
0
VERTEX
5
92
8
0
6
BYLAYER
62
256
10
56.0002
20
43.8450837751
30
0
0
VERTEX
5
93
8
0
6
BYLAYER
62
256
10
56.0002
20
43.9023932255
30
0
0
VERTEX
5
94
8
0
6
BYLAYER
62
256
10
56.0002
20
43.951453306
30
0
0
VERTEX
5
95
8
0
6
BYLAYER
62
256
10
56.0002
20
43.9962069636
30
0
0
VERTEX
5
96
8
0
6
BYLAYER
62
256
10
56.0002
20
44.0405971451
30
0
0
VERTEX
5
97
8
0
6
BYLAYER
62
256
10
56.0002
20
44.0885667973
30
0
0
VERTEX
5
98
8
0
6
BYLAYER
62
256
10
56.0002
20
44.1440588671
30
0
0
VERTEX
5
99
8
0
6
BYLAYER
62
256
10
56.0002
20
44.2110163014
30
0
0
VERTEX
5
9A
8
0
6
BYLAYER
62
256
10
56.0002017544
20
44.2933751363
30
0
0
VERTEX
5
9B
8
0
6
BYLAYER
62
256
10
56.0006456853
20
44.3933434697
30
0
0
VERTEX
5
9C
8
0
6
BYLAYER
62
256
10
56.0029859392
20
44.5091362784
30
0
0
VERTEX
5
9D
8
0
6
BYLAYER
62
256
10
56.0088194197
20
44.6384062104
30
0
0
VERTEX
5
9E
8
0
6
BYLAYER
62
256
10
56.0197430303
20
44.7788059138
30
0
0
VERTEX
5
9F
8
0
6
BYLAYER
62
256
10
56.0373536748
20
44.9279880367
30
0
0
VERTEX
5
A0
8
0
6
BYLAYER
62
256
10
56.0632482566
20
45.0836052272
30
0
0
VERTEX
5
A1
8
0
6
BYLAYER
62
256
10
56.0990236793
20
45.2433101333
30
0
0
VERTEX
5
A2
8
0
6
BYLAYER
62
256
10
56.1462768465
20
45.4047554033
30
0
0
VERTEX
5
A3
8
0
6
BYLAYER
62
256
10
56.2066046619
20
45.5655936851
30
0
0
VERTEX
5
A4
8
0
6
BYLAYER
62
256
10
56.2814058474
20
45.7235567757
30
0
0
VERTEX
5
A5
8
0
6
BYLAYER
62
256
10
56.3703542108
20
45.8770653602
30
0
0
VERTEX
5
A6
8
0
6
BYLAYER
62
256
10
56.4722354128
20
46.0248948276
30
0
0
VERTEX
5
A7
8
0
6
BYLAYER
62
256
10
56.585827774
20
46.1658234986
30
0
0
VERTEX
5
A8
8
0
6
BYLAYER
62
256
10
56.709909615
20
46.2986296938
30
0
0
VERTEX
5
A9
8
0
6
BYLAYER
62
256
10
56.8432592563
20
46.4220917336
30
0
0
VERTEX
5
AA
8
0
6
BYLAYER
62
256
10
56.9846550184
20
46.5349879388
30
0
0
VERTEX
5
AB
8
0
6
BYLAYER
62
256
10
57.1328752221
20
46.6360966298
30
0
0
VERTEX
5
AC
8
0
6
BYLAYER
62
256
10
57.2866981878
20
46.7241961272
30
0
0
VERTEX
5
AD
8
0
6
BYLAYER
62
256
10
57.4448965107
20
46.7980790877
30
0
0
VERTEX
5
AE
8
0
6
BYLAYER
62
256
10
57.6058414993
20
46.8575429533
30
0
0
VERTEX
5
AF
8
0
6
BYLAYER
62
256
10
57.7672467666
20
46.9040319772
30
0
0
VERTEX
5
B0
8
0
6
BYLAYER
62
256
10
57.9267649606
20
46.9391430631
30
0
0
VERTEX
5
B1
8
0
6
BYLAYER
62
256
10
58.0820487295
20
46.9644731146
30
0
0
VERTEX
5
B2
8
0
6
BYLAYER
62
256
10
58.2307507212
20
46.9816190351
30
0
0
VERTEX
5
B3
8
0
6
BYLAYER
62
256
10
58.370523584
20
46.9921777283
30
0
0
VERTEX
5
B4
8
0
6
BYLAYER
62
256
10
58.4990199658
20
46.9977460979
30
0
0
VERTEX
5
B5
8
0
6
BYLAYER
62
256
10
58.6138925149
20
46.9999210473
30
0
0
VERTEX
5
B6
8
0
6
BYLAYER
62
256
10
58.7127938792
20
47.0002994802
30
0
0
VERTEX
5
B7
8
0
6
BYLAYER
62
256
10
58.7940790018
20
47.0003
30
0
0
VERTEX
5
B8
8
0
6
BYLAYER
62
256
10
58.8602039825
20
47.0003
30
0
0
VERTEX
5
B9
8
0
6
BYLAYER
62
256
10
58.9151093638
20
47.0003
30
0
0
VERTEX
5
BA
8
0
6
BYLAYER
62
256
10
58.9627377356
20
47.0003
30
0
0
VERTEX
5
BB
8
0
6
BYLAYER
62
256
10
59.0070316877
20
47.0003
30
0
0
VERTEX
5
BC
8
0
6
BYLAYER
62
256
10
59.0519338103
20
47.0003
30
0
0
VERTEX
5
BD
8
0
6
BYLAYER
62
256
10
59.1013866932
20
47.0003
30
0
0
VERTEX
5
BE
8
0
6
BYLAYER
62
256
10
59.1593329263
20
47.0003
30
0
0
VERTEX
5
BF
8
0
6
BYLAYER
62
256
10
59.2297150996
20
47.0003
30
0
0
VERTEX
5
C0
8
0
6
BYLAYER
62
256
10
59.3163880877
20
47.0002777125
30
0
0
VERTEX
5
C1
8
0
6
BYLAYER
62
256
10
59.420446157
20
46.9995094106
30
0
0
VERTEX
5
C2
8
0
6
BYLAYER
62
256
10
59.5397334987
20
46.9964455597
30
0
0
VERTEX
5
C3
8
0
6
BYLAYER
62
256
10
59.6719078764
20
46.9894892564
30
0
0
VERTEX
5
C4
8
0
6
BYLAYER
62
256
10
59.8146270538
20
46.977043597
30
0
0
VERTEX
5
C5
8
0
6
BYLAYER
62
256
10
59.9655487947
20
46.957511678
30
0
0
VERTEX
5
C6
8
0
6
BYLAYER
62
256
10
60.1223308627
20
46.9292965956
30
0
0
VERTEX
5
C7
8
0
6
BYLAYER
62
256
10
60.2826310216
20
46.8908014465
30
0
0
VERTEX
5
C8
8
0
6
BYLAYER
62
256
10
60.444107035
20
46.8404293269
30
0
0
SEQEND
5
C9
8
0
6
BYLAYER
62
256
0
POLYLINE
5
CA
8
0
6
BYLAYER
62
256
66
1
10
0
20
0
30
0
70
0
0
VERTEX
5
CB
8
0
6
BYLAYER
62
256
10
57.519349792
20
31.063866448
30
0
0
VERTEX
5
CC
8
0
6
BYLAYER
62
256
10
57.488476136
20
31.0359560452
30
0
0
VERTEX
5
CD
8
0
6
BYLAYER
62
256
10
59
20
37
30
0
42
2.41421356237
0
VERTEX
5
CE
8
0
6
BYLAYER
62
256
10
52
20
44
30
0
0
VERTEX
5
CF
8
0
6
BYLAYER
62
256
10
51.94663906
20
43.5944200296
30
0
0
VERTEX
5
D0
8
0
6
BYLAYER
62
256
10
51.935247104
20
43.4807929972
30
0
0
VERTEX
5
D1
8
0
6
BYLAYER
62
256
10
51.920112972
20
43.3619437004
30
0
0
VERTEX
5
D2
8
0
6
BYLAYER
62
256
10
51.901238632
20
43.2378882724
30
0
0
VERTEX
5
D3
8
0
6
BYLAYER
62
256
10
51.878626048
20
43.108642846
30
0
0
VERTEX
5
D4
8
0
6
BYLAYER
62
256
10
51.852277188
20
42.9742235552
30
0
0
VERTEX
5
D5
8
0
6
BYLAYER
62
256
10
51.822194012
20
42.8346465328
30
0
0
VERTEX
5
D6
8
0
6
BYLAYER
62
256
10
51.788378492
20
42.6899279124
30
0
0
VERTEX
5
D7
8
0
6
BYLAYER
62
256
10
51.75083258
20
42.5400838268
30
0
0
VERTEX
5
D8
8
0
6
BYLAYER
62
256
10
51.709558256
20
42.38513041
30
0
0
VERTEX
5
D9
8
0
6
BYLAYER
62
256
10
51.664557476
20
42.2250837944
30
0
0
VERTEX
5
DA
8
0
6
BYLAYER
62
256
10
51.615832204
20
42.059960114
30
0
0
VERTEX
5
DB
8
0
6
BYLAYER
62
256
10
51.563384408
20
41.889775502
30
0
0
VERTEX
5
DC
8
0
6
BYLAYER
62
256
10
51.507216056
20
41.7145460916
30
0
0
VERTEX
5
DD
8
0
6
BYLAYER
62
256
10
51.447329104
20
41.534288016
30
0
0
VERTEX
5
DE
8
0
6
BYLAYER
62
256
10
51.383725528
20
41.3490174084
30
0
0
VERTEX
5
DF
8
0
6
BYLAYER
62
256
10
51.316407284
20
41.1587504024
30
0
0
VERTEX
5
E0
8
0
6
BYLAYER
62
256
10
51.24537634
20
40.9635031312
30
0
0
VERTEX
5
E1
8
0
6
BYLAYER
62
256
10
51.17063466
20
40.7632917276
30
0
0
VERTEX
5
E2
8
0
6
BYLAYER
62
256
10
51.092184212
20
40.5581323256
30
0
0
VERTEX
5
E3
8
0
6
BYLAYER
62
256
10
51.010026956
20
40.348041058
30
0
0
VERTEX
5
E4
8
0
6
BYLAYER
62
256
10
50.924164864
20
40.1330340584
30
0
0
VERTEX
5
E5
8
0
6
BYLAYER
62
256
10
50.834599892
20
39.91312746
30
0
0
VERTEX
5
E6
8
0
6
BYLAYER
62
256
10
50.7903287
20
39.8045201064
30
0
0
VERTEX
5
E7
8
0
6
BYLAYER
62
256
10
50.745651712
20
39.693102596
30
0
0
VERTEX
5
E8
8
0
6
BYLAYER
62
256
10
50.700653044
20
39.5791251044
30
0
0
VERTEX
5
E9
8
0
6
BYLAYER
62
256
10
50.655416808
20
39.4628378052
30
0
0
VERTEX
5
EA
8
0
6
BYLAYER
62
256
10
50.61002712
20
39.3444908744
30
0
0
VERTEX
5
EB
8
0
6
BYLAYER
62
256
10
50.564568096
20
39.224334486
30
0
0
VERTEX
5
EC
8
0
6
BYLAYER
62
256
10
50.519123852
20
39.1026188148
30
0
0
VERTEX
5
ED
8
0
6
BYLAYER
62
256
10
50.4737785
20
38.9795940364
30
0
0
VERTEX
5
EE
8
0
6
BYLAYER
62
256
10
50.428616156
20
38.8555103248
30
0
0
VERTEX
5
EF
8
0
6
BYLAYER
62
256
10
50.38372094
20
38.7306178552
30
0
0
VERTEX
5
F0
8
0
6
BYLAYER
62
256
10
50.339176964
20
38.6051668024
30
0
0
VERTEX
5
F1
8
0
6
BYLAYER
62
256
10
50.295068344
20
38.4794073408
30
0
0
VERTEX
5
F2
8
0
6
BYLAYER
62
256
10
50.251479192
20
38.3535896456
30
0
0
VERTEX
5
F3
8
0
6
BYLAYER
62
256
10
50.208493624
20
38.227963892
30
0
0
VERTEX
5
F4
8
0
6
BYLAYER
62
256
10
50.16619576
20
38.102780254
30
0
0
VERTEX
5
F5
8
0
6
BYLAYER
62
256
10
50.124669708
20
37.9782889068
30
0
0
VERTEX
5
F6
8
0
6
BYLAYER
62
256
10
50.083999592
20
37.8547400252
30
0
0
VERTEX
5
F7
8
0
6
BYLAYER
62
256
10
50.044269516
20
37.7323837836
30
0
0
VERTEX
5
F8
8
0
6
BYLAYER
62
256
10
50.005563608
20
37.6114703576
30
0
0
VERTEX
5
F9
8
0
6
BYLAYER
62
256
10
49.967965972
20
37.4922499216
30
0
0
VERTEX
5
FA
8
0
6
BYLAYER
62
256
10
49.931560732
20
37.3749726504
30
0
0
VERTEX
5
FB
8
0
6
BYLAYER
62
256
10
49.896431996
20
37.2598887188
30
0
0
VERTEX
5
FC
8
0
6
BYLAYER
62
256
10
49.862663884
20
37.1472483016
30
0
0
VERTEX
5
FD
8
0
6
BYLAYER
62
256
10
49.830340508
20
37.0373015736
30
0
0
VERTEX
5
FE
8
0
6
BYLAYER
62
256
10
49.799545988
20
36.9302987096
30
0
0
VERTEX
5
FF
8
0
6
BYLAYER
62
256
10
49.770364432
20
36.8264898844
30
0
0
VERTEX
5
100
8
0
6
BYLAYER
62
256
10
49.742879964
20
36.7261252728
30
0
0
VERTEX
5
101
8
0
6
BYLAYER
62
256
10
49.717176692
20
36.62945505
30
0
0
VERTEX
5
102
8
0
6
BYLAYER
62
256
10
49.693338732
20
36.5367293904
30
0
0
VERTEX
5
103
8
0
6
BYLAYER
62
256
10
49.6714502
20
36.4481984688
30
0
0
VERTEX
5
104
8
0
6
BYLAYER
62
256
10
49.651595216
20
36.36411246
30
0
0
VERTEX
5
105
8
0
6
BYLAYER
62
256
10
49.535135048
20
35.8574195344
30
0
0
VERTEX
5
106
8
0
6
BYLAYER
62
256
10
49.424105192
20
35.3735726688
30
0
0
VERTEX
5
107
8
0
6
BYLAYER
62
256
10
49.318356112
20
34.9118701704
30
0
0
VERTEX
5
108
8
0
6
BYLAYER
62
256
10
49.217738264
20
34.4716103464
30
0
0
VERTEX
5
109
8
0
6
BYLAYER
62
256
10
49.1221021
20
34.0520915036
30
0
0
VERTEX
5
10A
8
0
6
BYLAYER
62
256
10
49.031298084
20
33.6526119488
30
0
0
VERTEX
5
10B
8
0
6
BYLAYER
62
256
10
48.945176672
20
33.27246999
30
0
0
VERTEX
5
10C
8
0
6
BYLAYER
62
256
10
48.86358832
20
32.9109639336
30
0
0
VERTEX
5
10D
8
0
6
BYLAYER
62
256
10
48.786383484
20
32.5673920868
30
0
0
VERTEX
5
10E
8
0
6
BYLAYER
62
256
10
48.713412624
20
32.2410527568
30
0
0
VERTEX
5
10F
8
0
6
BYLAYER
62
256
10
48.644526196
20
31.9312442508
30
0
0
VERTEX
5
110
8
0
6
BYLAYER
62
256
10
48.579574656
20
31.6372648756
30
0
0
VERTEX
5
111
8
0
6
BYLAYER
62
256
10
48.518408468
20
31.3584129384
30
0
0
VERTEX
5
112
8
0
6
BYLAYER
62
256
10
48.46087808
20
31.0939867464
30
0
0
VERTEX
5
113
8
0
6
BYLAYER
62
256
10
48.406833956
20
30.8432846068
30
0
0
VERTEX
5
114
8
0
6
BYLAYER
62
256
10
48.356126552
20
30.6056048264
30
0
0
VERTEX
5
115
8
0
6
BYLAYER
62
256
10
48.308606324
20
30.3802457124
30
0
0
VERTEX
5
116
8
0
6
BYLAYER
62
256
10
48.264123728
20
30.1665055724
30
0
0
VERTEX
5
117
8
0
6
BYLAYER
62
256
10
48.222529228
20
29.9636827124
30
0
0
VERTEX
5
118
8
0
6
BYLAYER
62
256
10
48.183673272
20
29.7710754404
30
0
0
VERTEX
5
119
8
0
6
BYLAYER
62
256
10
48.147406328
20
29.5879820632
30
0
0
VERTEX
5
11A
8
0
6
BYLAYER
62
256
10
48.113578844
20
29.413700888
30
0
0
VERTEX
5
11B
8
0
6
BYLAYER
62
256
10
48.08204128
20
29.247530222
30
0
0
VERTEX
5
11C
8
0
6
BYLAYER
62
256
10
48.052644096
20
29.0887683716
30
0
0
VERTEX
5
11D
8
0
6
BYLAYER
62
256
10
48.025237748
20
28.9367136448
30
0
0
VERTEX
5
11E
8
0
6
BYLAYER
62
256
10
47.999672692
20
28.7906643484
30
0
0
VERTEX
5
11F
8
0
6
BYLAYER
62
256
10
47.975799388
20
28.6499187888
30
0
0
VERTEX
5
120
8
0
6
BYLAYER
62
256
10
47.953468292
20
28.5137752744
30
0
0
VERTEX
5
121
8
0
6
BYLAYER
62
256
10
47.93252986
20
28.3815321112
30
0
0
VERTEX
5
122
8
0
6
BYLAYER
62
256
10
47.912834552
20
28.2524876068
30
0
0
VERTEX
5
123
8
0
6
BYLAYER
62
256
10
47.894232824
20
28.125940068
30
0
0
VERTEX
5
124
8
0
6
BYLAYER
62
256
10
47.872312928
20
27.9784878784
30
0
0
VERTEX
5
125
8
0
6
BYLAYER
62
256
10
47.849991644
20
27.8385414596
30
0
0
VERTEX
5
126
8
0
6
BYLAYER
62
256
10
47.826948652
20
27.7057081008
30
0
0
VERTEX
5
127
8
0
6
BYLAYER
62
256
10
47.802863636
20
27.5795950912
30
0
0
VERTEX
5
128
8
0
6
BYLAYER
62
256
10
47.777416268
20
27.4598097196
30
0
0
VERTEX
5
129
8
0
6
BYLAYER
62
256
10
47.750286236
20
27.3459592748
30
0
0
VERTEX
5
12A
8
0
6
BYLAYER
62
256
10
47.721153212
20
27.2376510464
30
0
0
VERTEX
5
12B
8
0
6
BYLAYER
62
256
10
47.689696876
20
27.1344923224
30
0
0
VERTEX
5
12C
8
0
6
BYLAYER
62
256
10
47.655596908
20
27.036090392
30
0
0
VERTEX
5
12D
8
0
6
BYLAYER
62
256
10
47.618532992
20
26.9420525448
30
0
0
VERTEX
5
12E
8
0
6
BYLAYER
62
256
10
47.5781848
20
26.8519860692
30
0
0
VERTEX
5
12F
8
0
6
BYLAYER
62
256
10
47.534232016
20
26.7654982544
30
0
0
VERTEX
5
130
8
0
6
BYLAYER
62
256
10
47.48635432
20
26.6821963896
30
0
0
VERTEX
5
131
8
0
6
BYLAYER
62
256
10
47.434231388
20
26.6016877632
30
0
0
VERTEX
5
132
8
0
6
BYLAYER
62
256
10
47.3775429
20
26.5235796644
30
0
0
VERTEX
5
133
8
0
6
BYLAYER
62
256
10
47.31596854
20
26.447479382
30
0
0
VERTEX
5
134
8
0
6
BYLAYER
62
256
10
47.24918798
20
26.3729942052
30
0
0
VERTEX
5
135
8
0
6
BYLAYER
62
256
10
47.1768809
20
26.2997314232
30
0
0
VERTEX
5
136
8
0
6
BYLAYER
62
256
10
47.098726984
20
26.2272983244
30
0
0
VERTEX
5
137
8
0
6
BYLAYER
62
256
10
47.014405912
20
26.1553021984
30
0
0
VERTEX
5
138
8
0
6
BYLAYER
62
256
10
46.92359736
20
26.0833503336
30
0
0
VERTEX
5
139
8
0
6
BYLAYER
62
256
10
46.825981004
20
26.0110500192
30
0
0
VERTEX
5
13A
8
0
6
BYLAYER
62
256
10
46.721236528
20
25.938008544
30
0
0
VERTEX
5
13B
8
0
6
BYLAYER
62
256
10
46.609043612
20
25.8638331972
30
0
0
VERTEX
5
13C
8
0
6
BYLAYER
62
256
10
46.489081936
20
25.788131268
30
0
0
VERTEX
5
13D
8
0
6
BYLAYER
62
256
10
46.361031172
20
25.7105100448
30
0
0
VERTEX
5
13E
8
0
6
BYLAYER
62
256
10
46.224571008
20
25.6305768168
30
0
0
VERTEX
5
13F
8
0
6
BYLAYER
62
256
10
46.079381116
20
25.5479388728
30
0
0
VERTEX
5
140
8
0
6
BYLAYER
62
256
10
45.92514118
20
25.462203502
30
0
0
VERTEX
5
141
8
0
6
BYLAYER
62
256
10
45.76153088
20
25.3729779936
30
0
0
VERTEX
5
142
8
0
6
BYLAYER
62
256
10
45.588229892
20
25.279869636
30
0
0
VERTEX
5
143
8
0
6
BYLAYER
62
256
10
45.52156138
20
25.2440214108
30
0
0
VERTEX
5
144
8
0
6
BYLAYER
62
256
10
45.44875634
20
25.2044057288
30
0
0
VERTEX
5
145
8
0
6
BYLAYER
62
256
10
45.37007786
20
25.1611751484
30
0
0
VERTEX
5
146
8
0
6
BYLAYER
62
256
10
45.28578904
20
25.1144822268
30
0
0
VERTEX
5
147
8
0
6
BYLAYER
62
256
10
45.196152964
20
25.064479522
30
0
0
VERTEX
5
148
8
0
6
BYLAYER
62
256
10
45.101432728
20
25.011319592
30
0
0
VERTEX
5
149
8
0
6
BYLAYER
62
256
10
45.001891424
20
24.955154994
30
0
0
VERTEX
5
14A
8
0
6
BYLAYER
62
256
10
44.897792144
20
24.896138286
30
0
0
VERTEX
5
14B
8
0
6
BYLAYER
62
256
10
44.78939798
20
24.834422026
30
0
0
VERTEX
5
14C
8
0
6
BYLAYER
62
256
10
44.676972028
20
24.7701587716
30
0
0
VERTEX
5
14D
8
0
6
BYLAYER
62
256
10
44.560777376
20
24.7035010804
30
0
0
VERTEX
5
14E
8
0
6
BYLAYER
62
256
10
44.441077116
20
24.6346015104
30
0
0
VERTEX
5
14F
8
0
6
BYLAYER
62
256
10
44.31813434
20
24.5636126196
30
0
0
VERTEX
5
150
8
0
6
BYLAYER
62
256
10
44.192212144
20
24.4906869652
30
0
0
VERTEX
5
151
8
0
6
BYLAYER
62
256
10
44.06357362
20
24.4159771052
30
0
0
VERTEX
5
152
8
0
6
BYLAYER
62
256
10
43.932481856
20
24.3396355976
30
0
0
VERTEX
5
153
8
0
6
BYLAYER
62
256
10
43.799199948
20
24.2618149996
30
0
0
VERTEX
5
154
8
0
6
BYLAYER
62
256
10
43.663990988
20
24.1826678696
30
0
0
VERTEX
5
155
8
0
6
BYLAYER
62
256
10
43.527118068
20
24.1023467652
30
0
0
VERTEX
5
156
8
0
6
BYLAYER
62
256
10
43.388844276
20
24.021004244
30
0
0
VERTEX
5
157
8
0
6
BYLAYER
62
256
10
43.249432712
20
23.938792864
30
0
0
VERTEX
5
158
8
0
6
BYLAYER
62
256
10
43.10914646
20
23.8558651824
30
0
0
VERTEX
5
159
8
0
6
BYLAYER
62
256
10
42.96824862
20
23.7723737576
30
0
0
VERTEX
5
15A
8
0
6
BYLAYER
62
256
10
42.82700228
20
23.6884711472
30
0
0
VERTEX
5
15B
8
0
6
BYLAYER
62
256
10
42.685670532
20
23.6043099088
30
0
0
VERTEX
5
15C
8
0
6
BYLAYER
62
256
10
42.544516472
20
23.5200426004
30
0
0
VERTEX
5
15D
8
0
6
BYLAYER
62
256
10
42.403803188
20
23.4358217796
30
0
0
VERTEX
5
15E
8
0
6
BYLAYER
62
256
10
42.263793776
20
23.351800004
30
0
0
VERTEX
5
15F
8
0
6
BYLAYER
62
256
10
42.124751324
20
23.268129832
30
0
0
VERTEX
5
160
8
0
6
BYLAYER
62
256
10
41.986938924
20
23.1849638204
30
0
0
VERTEX
5
161
8
0
6
BYLAYER
62
256
10
41.850619676
20
23.102454528
30
0
0
VERTEX
5
162
8
0
6
BYLAYER
62
256
10
41.714860852
20
23.020151574
30
0
0
VERTEX
5
163
8
0
6
BYLAYER
62
256
10
41.578710908
20
22.937598476
30
0
0
VERTEX
5
164
8
0
6
BYLAYER
62
256
10
41.442404704
20
22.8549386368
30
0
0
VERTEX
5
165
8
0
6
BYLAYER
62
256
10
41.306177096
20
22.7723154604
30
0
0
VERTEX
5
166
8
0
6
BYLAYER
62
256
10
41.170262952
20
22.6898723504
30
0
0
VERTEX
5
167
8
0
6
BYLAYER
62
256
10
41.03489712
20
22.6077527096
30
0
0
VERTEX
5
168
8
0
6
BYLAYER
62
256
10
40.900314464
20
22.526099942
30
0
0
VERTEX
5
169
8
0
6
BYLAYER
62
256
10
40.766749848
20
22.4450574508
30
0
0
VERTEX
5
16A
8
0
6
BYLAYER
62
256
10
40.63443812
20
22.3647686396
30
0
0
VERTEX
5
16B
8
0
6
BYLAYER
62
256
10
40.503614148
20
22.2853769116
30
0
0
VERTEX
5
16C
8
0
6
BYLAYER
62
256
10
40.374512792
20
22.2070256708
30
0
0
VERTEX
5
16D
8
0
6
BYLAYER
62
256
10
40.247368904
20
22.12985832
30
0
0
VERTEX
5
16E
8
0
6
BYLAYER
62
256
10
40.122417344
20
22.0540182632
30
0
0
VERTEX
5
16F
8
0
6
BYLAYER
62
256
10
39.999892976
20
21.9796489036
30
0
0
VERTEX
5
170
8
0
6
BYLAYER
62
256
10
39.880030656
20
21.9068936448
30
0
0
VERTEX
5
171
8
0
6
BYLAYER
62
256
10
39.76306524
20
21.83589589
30
0
0
VERTEX
5
172
8
0
6
BYLAYER
62
256
10
39.649231596
20
21.7667990428
30
0
0
VERTEX
5
173
8
0
6
BYLAYER
62
256
10
39.538764572
20
21.6997465068
30
0
0
VERTEX
5
174
8
0
6
BYLAYER
62
256
10
39.431899036
20
21.6348816852
30
0
0
VERTEX
5
175
8
0
6
BYLAYER
62
256
10
39.328869844
20
21.5723479816
30
0
0
VERTEX
5
176
8
0
6
BYLAYER
62
256
10
39.229911852
20
21.5122887996
30
0
0
VERTEX
5
177
8
0
6
BYLAYER
62
256
10
39.135259924
20
21.4548475424
30
0
0
VERTEX
5
178
8
0
6
BYLAYER
62
256
10
39.045148916
20
21.4001676136
30
0
0
VERTEX
5
179
8
0
6
BYLAYER
62
256
10
38.959813684
20
21.3483924168
30
0
0
VERTEX
5
17A
8
0
6
BYLAYER
62
256
10
38.879489096
20
21.2996653552
30
0
0
VERTEX
5
17B
8
0
6
BYLAYER
62
256
10
38.80441
20
21.254129832
30
0
0
VERTEX
5
17C
8
0
6
BYLAYER
62
256
10
38.734811264
20
21.2119292516
30
0
0
VERTEX
5
17D
8
0
6
BYLAYER
62
256
10
38.670927744
20
21.1732070164
30
0
0
VERTEX
5
17E
8
0
6
BYLAYER
62
256
10
38.6129943
20
21.1381065304
30
0
0
VERTEX
5
17F
8
0
6
BYLAYER
62
256
10
38.561245788
20
21.1067711972
30
0
0
VERTEX
5
180
8
0
6
BYLAYER
62
256
10
38.515917068
20
21.07934442
30
0
0
VERTEX
5
181
8
0
6
BYLAYER
62
256
10
38.30258368
20
20.949463416
30
0
0
VERTEX
5
182
8
0
6
BYLAYER
62
256
10
38.077396424
20
20.8107360328
30
0
0
VERTEX
5
183
8
0
6
BYLAYER
62
256
10
37.841513784
20
20.6639394844
30
0
0
VERTEX
5
184
8
0
6
BYLAYER
62
256
10
37.596094236
20
20.5098509872
30
0
0
VERTEX
5
185
8
0
6
BYLAYER
62
256
10
37.342296268
20
20.349247756
30
0
0
VERTEX
5
186
8
0
6
BYLAYER
62
256
10
37.081278356
20
20.1829070064
30
0
0
VERTEX
5
187
8
0
6
BYLAYER
62
256
10
36.814198988
20
20.0116059528
30
0
0
VERTEX
5
188
8
0
6
BYLAYER
62
256
10
36.542216644
20
19.8361218112
30
0
0
VERTEX
5
189
8
0
6
BYLAYER
62
256
10
36.266489808
20
19.6572317968
30
0
0
VERTEX
5
18A
8
0
6
BYLAYER
62
256
10
35.988176956
20
19.4757131248
30
0
0
VERTEX
5
18B
8
0
6
BYLAYER
62
256
10
35.708436576
20
19.29234301
30
0
0
VERTEX
5
18C
8
0
6
BYLAYER
62
256
10
35.428427148
20
19.1078986684
30
0
0
VERTEX
5
18D
8
0
6
BYLAYER
62
256
10
35.149307156
20
18.9231573148
30
0
0
VERTEX
5
18E
8
0
6
BYLAYER
62
256
10
34.87223508
20
18.7388961648
30
0
0
VERTEX
5
18F
8
0
6
BYLAYER
62
256
10
34.5983694
20
18.5558924332
30
0
0
VERTEX
5
190
8
0
6
BYLAYER
62
256
10
34.328868604
20
18.3749233352
30
0
0
VERTEX
5
191
8
0
6
BYLAYER
62
256
10
34.064891172
20
18.1967660868
30
0
0
VERTEX
5
192
8
0
6
BYLAYER
62
256
10
33.80759558
20
18.0221979028
30
0
0
VERTEX
5
193
8
0
6
BYLAYER
62
256
10
33.55814032
20
17.851995998
30
0
0
VERTEX
5
194
8
0
6
BYLAYER
62
256
10
33.317683868
20
17.6869375884
30
0
0
VERTEX
5
195
8
0
6
BYLAYER
62
256
10
33.087384708
20
17.5277998892
30
0
0
VERTEX
5
196
8
0
6
BYLAYER
62
256
10
32.86840132
20
17.3753601152
30
0
0
VERTEX
5
197
8
0
6
BYLAYER
62
256
10
32.661892192
20
17.230395482
30
0
0
VERTEX
5
198
8
0
6
BYLAYER
62
256
10
32.4690158
20
17.0936832048
30
0
0
VERTEX
5
199
8
0
6
BYLAYER
62
256
10
32.290930628
20
16.9660004984
30
0
0
VERTEX
5
19A
8
0
6
BYLAYER
62
256
10
32.128795156
20
16.8481245788
30
0
0
VERTEX
5
19B
8
0
6
BYLAYER
62
256
10
31.983767872
20
16.7408326612
30
0
0
VERTEX
5
19C
8
0
6
BYLAYER
62
256
10
31.857007252
20
16.64490196
30
0
0
VERTEX
5
19D
8
0
6
BYLAYER
62
256
10
31.74967178
20
16.5611096916
30
0
0
VERTEX
5
19E
8
0
6
BYLAYER
62
256
10
31.662919944
20
16.4902330704
30
0
0
VERTEX
5
19F
8
0
6
BYLAYER
62
256
10
31.597910216
20
16.433049312
30
0
0
VERTEX
5
1A0
8
0
6
BYLAYER
62
256
10
31.564097716
20
16.4021461364
30
0
0
VERTEX
5
1A1
8
0
6
BYLAYER
62
256
10
31.529467092
20
16.371656538
30
0
0
VERTEX
5
1A2
8
0
6
BYLAYER
62
256
10
31.494093956
20
16.3416211752
30
0
0
VERTEX
5
1A3
8
0
6
BYLAYER
62
256
10
31.458053932
20
16.3120807048
30
0
0
VERTEX
5
1A4
8
0
6
BYLAYER
62
256
10
31.42142264
20
16.2830757844
30
0
0
VERTEX
5
1A5
8
0
6
BYLAYER
62
256
10
31.3842757
20
16.2546470712
30
0
0
VERTEX
5
1A6
8
0
6
BYLAYER
62
256
10
31.346688724
20
16.2268352224
30
0
0
VERTEX
5
1A7
8
0
6
BYLAYER
62
256
10
31.30873734
20
16.199680896
30
0
0
VERTEX
5
1A8
8
0
6
BYLAYER
62
256
10
31.270497164
20
16.1732247492
30
0
0
VERTEX
5
1A9
8
0
6
BYLAYER
62
256
10
31.232043812
20
16.1475074396
30
0
0
VERTEX
5
1AA
8
0
6
BYLAYER
62
256
10
31.193452908
20
16.122569624
30
0
0
VERTEX
5
1AB
8
0
6
BYLAYER
62
256
10
31.154800072
20
16.09845196
30
0
0
VERTEX
5
1AC
8
0
6
BYLAYER
62
256
10
31.116160916
20
16.0751951056
30
0
0
VERTEX
5
1AD
8
0
6
BYLAYER
62
256
10
31.077611068
20
16.0528397172
30
0
0
VERTEX
5
1AE
8
0
6
BYLAYER
62
256
10
31.03922614
20
16.0314264532
30
0
0
VERTEX
5
1AF
8
0
6
BYLAYER
62
256
10
31.001081756
20
16.0109959704
30
0
0
VERTEX
5
1B0
8
0
6
BYLAYER
62
256
10
30.963253532
20
15.9915889264
30
0
0
VERTEX
5
1B1
8
0
6
BYLAYER
62
256
10
30.925817092
20
15.9732459784
30
0
0
VERTEX
5
1B2
8
0
6
BYLAYER
62
256
10
30.888848048
20
15.9560077844
30
0
0
VERTEX
5
1B3
8
0
6
BYLAYER
62
256
10
30.852422028
20
15.9399150012
30
0
0
VERTEX
5
1B4
8
0
6
BYLAYER
62
256
10
30.816614644
20
15.925008286
30
0
0
VERTEX
5
1B5
8
0
6
BYLAYER
62
256
10
30.781501516
20
15.9113282972
30
0
0
VERTEX
5
1B6
8
0
6
BYLAYER
62
256
10
30.747158268
20
15.8989156912
30
0
0
VERTEX
5
1B7
8
0
6
BYLAYER
62
256
10
30.713660516
20
15.887811126
30
0
0
VERTEX
5
1B8
8
0
6
BYLAYER
62
256
10
30.68108388
20
15.8780552588
30
0
0
VERTEX
5
1B9
8
0
6
BYLAYER
62
256
10
30.64950398
20
15.8696887468
30
0
0
VERTEX
5
1BA
8
0
6
BYLAYER
62
256
10
30.618996436
20
15.8627522476
30
0
0
VERTEX
5
1BB
8
0
6
BYLAYER
62
256
10
30.58963686
20
15.8572864188
30
0
0
VERTEX
5
1BC
8
0
6
BYLAYER
62
256
10
30.56150088
20
15.853331918
30
0
0
VERTEX
5
1BD
8
0
6
BYLAYER
62
256
10
30.534664112
20
15.8509294016
30
0
0
VERTEX
5
1BE
8
0
6
BYLAYER
62
256
10
30.509202176
20
15.850119528
30
0
0
VERTEX
5
1BF
8
0
6
BYLAYER
62
256
10
30.449833488
20
15.8547806152
30
0
0
VERTEX
5
1C0
8
0
6
BYLAYER
62
256
10
30.384552048
20
15.8684290404
30
0
0
VERTEX
5
1C1
8
0
6
BYLAYER
62
256
10
30.313890736
20
15.8905625496
30
0
0
VERTEX
5
1C2
8
0
6
BYLAYER
62
256
10
30.238382432
20
15.9206788876
30
0
0
VERTEX
5
1C3
8
0
6
BYLAYER
62
256
10
30.158560016
20
15.9582758012
30
0
0
VERTEX
5
1C4
8
0
6
BYLAYER
62
256
10
30.074956372
20
16.0028510348
30
0
0
VERTEX
5
1C5
8
0
6
BYLAYER
62
256
10
29.98810438
20
16.0539023344
30
0
0
VERTEX
5
1C6
8
0
6
BYLAYER
62
256
10
29.89853692
20
16.110927446
30
0
0
VERTEX
5
1C7
8
0
6
BYLAYER
62
256
10
29.806786876
20
16.1734241148
30
0
0
VERTEX
5
1C8
8
0
6
BYLAYER
62
256
10
29.713387128
20
16.2408900868
30
0
0
VERTEX
5
1C9
8
0
6
BYLAYER
62
256
10
29.618870556
20
16.3128231068
30
0
0
VERTEX
5
1CA
8
0
6
BYLAYER
62
256
10
29.52377004
20
16.3887209212
30
0
0
VERTEX
5
1CB
8
0
6
BYLAYER
62
256
10
29.42861846
20
16.4680812752
30
0
0
VERTEX
5
1CC
8
0
6
BYLAYER
62
256
10
29.333948704
20
16.5504019144
30
0
0
VERTEX
5
1CD
8
0
6
BYLAYER
62
256
10
29.240293644
20
16.6351805848
30
0
0
VERTEX
5
1CE
8
0
6
BYLAYER
62
256
10
29.148186168
20
16.7219150316
30
0
0
VERTEX
5
1CF
8
0
6
BYLAYER
62
256
10
29.058159156
20
16.8101030004
30
0
0
VERTEX
5
1D0
8
0
6
BYLAYER
62
256
10
28.970745484
20
16.8992422368
30
0
0
VERTEX
5
1D1
8
0
6
BYLAYER
62
256
10
28.88647804
20
16.9888304868
30
0
0
VERTEX
5
1D2
8
0
6
BYLAYER
62
256
10
28.8058897
20
17.0783654956
30
0
0
VERTEX
5
1D3
8
0
6
BYLAYER
62
256
10
28.729513348
20
17.1673450088
30
0
0
VERTEX
5
1D4
8
0
6
BYLAYER
62
256
10
28.657881864
20
17.255266772
30
0
0
VERTEX
5
1D5
8
0
6
BYLAYER
62
256
10
28.591528128
20
17.3416285308
30
0
0
VERTEX
5
1D6
8
0
6
BYLAYER
62
256
10
28.53098502
20
17.4259280312
30
0
0
VERTEX
5
1D7
8
0
6
BYLAYER
62
256
10
28.476785428
20
17.5076630184
30
0
0
VERTEX
5
1D8
8
0
6
BYLAYER
62
256
10
28.429462224
20
17.586331238
30
0
0
VERTEX
5
1D9
8
0
6
BYLAYER
62
256
10
28.389548296
20
17.661430436
30
0
0
VERTEX
5
1DA
8
0
6
BYLAYER
62
256
10
28.35757652
20
17.7324583576
30
0
0
VERTEX
5
1DB
8
0
6
BYLAYER
62
256
10
28.33407978
20
17.798912748
30
0
0
VERTEX
5
1DC
8
0
6
BYLAYER
62
256
10
28.319590956
20
17.860291354
30
0
0
VERTEX
5
1DD
8
0
6
BYLAYER
62
256
10
28.314642932
20
17.91609192
30
0
0
VERTEX
5
1DE
8
0
6
BYLAYER
62
256
10
28.314021632
20
17.937519542
30
0
0
VERTEX
5
1DF
8
0
6
BYLAYER
62
256
10
28.312179912
20
17.9586523848
30
0
0
VERTEX
5
1E0
8
0
6
BYLAYER
62
256
10
28.309151044
20
17.9794628016
30
0
0
VERTEX
5
1E1
8
0
6
BYLAYER
62
256
10
28.3049683
20
17.9999231436
30
0
0
VERTEX
5
1E2
8
0
6
BYLAYER
62
256
10
28.299664952
20
18.020005764
30
0
0
VERTEX
5
1E3
8
0
6
BYLAYER
62
256
10
28.293274272
20
18.0396830144
30
0
0
VERTEX
5
1E4
8
0
6
BYLAYER
62
256
10
28.285829532
20
18.0589272476
30
0
0
VERTEX
5
1E5
8
0
6
BYLAYER
62
256
10
28.277364004
20
18.0777108156
30
0
0
VERTEX
5
1E6
8
0
6
BYLAYER
62
256
10
28.26791096
20
18.0960060704
30
0
0
VERTEX
5
1E7
8
0
6
BYLAYER
62
256
10
28.257503676
20
18.1137853652
30
0
0
VERTEX
5
1E8
8
0
6
BYLAYER
62
256
10
28.246175416
20
18.1310210512
30
0
0
VERTEX
5
1E9
8
0
6
BYLAYER
62
256
10
28.23395946
20
18.1476854812
30
0
0
VERTEX
5
1EA
8
0
6
BYLAYER
62
256
10
28.220889072
20
18.1637510076
30
0
0
VERTEX
5
1EB
8
0
6
BYLAYER
62
256
10
28.206997532
20
18.1791899824
30
0
0
VERTEX
5
1EC
8
0
6
BYLAYER
62
256
10
28.192318108
20
18.193974758
30
0
0
VERTEX
5
1ED
8
0
6
BYLAYER
62
256
10
28.176884072
20
18.2080776864
30
0
0
VERTEX
5
1EE
8
0
6
BYLAYER
62
256
10
28.160728696
20
18.2214711204
30
0
0
VERTEX
5
1EF
8
0
6
BYLAYER
62
256
10
28.143885252
20
18.234127412
30
0
0
VERTEX
5
1F0
8
0
6
BYLAYER
62
256
10
28.126387012
20
18.2460189132
30
0
0
VERTEX
5
1F1
8
0
6
BYLAYER
62
256
10
28.108267252
20
18.2571179768
30
0
0
VERTEX
5
1F2
8
0
6
BYLAYER
62
256
10
28.089559236
20
18.2673969548
30
0
0
VERTEX
5
1F3
8
0
6
BYLAYER
62
256
10
28.070296244
20
18.2768281992
30
0
0
VERTEX
5
1F4
8
0
6
BYLAYER
62
256
10
28.05051154
20
18.2853840628
30
0
0
VERTEX
5
1F5
8
0
6
BYLAYER
62
256
10
28.030238404
20
18.293036898
30
0
0
VERTEX
5
1F6
8
0
6
BYLAYER
62
256
10
28.009510104
20
18.2997590564
30
0
0
VERTEX
5
1F7
8
0
6
BYLAYER
62
256
10
27.988359916
20
18.3055228904
30
0
0
VERTEX
5
1F8
8
0
6
BYLAYER
62
256
10
27.966821104
20
18.3103007528
30
0
0
VERTEX
5
1F9
8
0
6
BYLAYER
62
256
10
27.944926944
20
18.3140649952
30
0
0
VERTEX
5
1FA
8
0
6
BYLAYER
62
256
10
27.922710712
20
18.3167879704
30
0
0
VERTEX
5
1FB
8
0
6
BYLAYER
62
256
10
27.900205676
20
18.3184420308
30
0
0
VERTEX
5
1FC
8
0
6
BYLAYER
62
256
10
27.877445108
20
18.318999528
30
0
0
VERTEX
5
1FD
8
0
6
BYLAYER
62
256
10
27.851318032
20
18.3223817668
30
0
0
VERTEX
5
1FE
8
0
6
BYLAYER
62
256
10
27.8188268
20
18.332414114
30
0
0
VERTEX
5
1FF
8
0
6
BYLAYER
62
256
10
27.780172976
20
18.3489250164
30
0
0
VERTEX
5
200
8
0
6
BYLAYER
62
256
10
27.73555814
20
18.3717429208
30
0
0
VERTEX
5
201
8
0
6
BYLAYER
62
256
10
27.685183852
20
18.400696274
30
0
0
VERTEX
5
202
8
0
6
BYLAYER
62
256
10
27.629251688
20
18.4356135224
30
0
0
VERTEX
5
203
8
0
6
BYLAYER
62
256
10
27.567963216
20
18.4763231128
30
0
0
VERTEX
5
204
8
0
6
BYLAYER
62
256
10
27.501520008
20
18.5226534916
30
0
0
VERTEX
5
205
8
0
6
BYLAYER
62
256
10
27.430123632
20
18.574433106
30
0
0
VERTEX
5
206
8
0
6
BYLAYER
62
256
10
27.353975656
20
18.631490402
30
0
0
VERTEX
5
207
8
0
6
BYLAYER
62
256
10
27.273277656
20
18.6936538272
30
0
0
VERTEX
5
208
8
0
6
BYLAYER
62
256
10
27.188231196
20
18.7607518276
30
0
0
VERTEX
5
209
8
0
6
BYLAYER
62
256
10
27.099037848
20
18.83261285
30
0
0
VERTEX
5
20A
8
0
6
BYLAYER
62
256
10
27.005899184
20
18.9090653412
30
0
0
VERTEX
5
20B
8
0
6
BYLAYER
62
256
10
26.909016768
20
18.989937748
30
0
0
VERTEX
5
20C
8
0
6
BYLAYER
62
256
10
26.80859218
20
19.0750585164
30
0
0
VERTEX
5
20D
8
0
6
BYLAYER
62
256
10
26.70482698
20
19.164256094
30
0
0
VERTEX
5
20E
8
0
6
BYLAYER
62
256
10
26.597922744
20
19.2573589272
30
0
0
VERTEX
5
20F
8
0
6
BYLAYER
62
256
10
26.48808104
20
19.354195462
30
0
0
VERTEX
5
210
8
0
6
BYLAYER
62
256
10
26.375503436
20
19.454594146
30
0
0
VERTEX
5
211
8
0
6
BYLAYER
62
256
10
26.260391508
20
19.5583834256
30
0
0
VERTEX
5
212
8
0
6
BYLAYER
62
256
10
26.14294682
20
19.6653917472
30
0
0
VERTEX
5
213
8
0
6
BYLAYER
62
256
10
26.023370944
20
19.775447558
30
0
0
VERTEX
5
214
8
0
6
BYLAYER
62
256
10
25.901865448
20
19.888379304
30
0
0
VERTEX
5
215
8
0
6
BYLAYER
62
256
10
25.778631908
20
20.0040154324
30
0
0
VERTEX
5
216
8
0
6
BYLAYER
62
256
10
25.653871888
20
20.1221843896
30
0
0
VERTEX
5
217
8
0
6
BYLAYER
62
256
10
25.52778696
20
20.2427146228
30
0
0
VERTEX
5
218
8
0
6
BYLAYER
62
256
10
25.400578696
20
20.365434578
30
0
0
VERTEX
5
219
8
0
6
BYLAYER
62
256
10
25.27244866
20
20.490172702
30
0
0
VERTEX
5
21A
8
0
6
BYLAYER
62
256
10
25.143598428
20
20.616757442
30
0
0
VERTEX
5
21B
8
0
6
BYLAYER
62
256
10
25.014229568
20
20.745017244
30
0
0
VERTEX
5
21C
8
0
6
BYLAYER
62
256
10
24.783855712
20
20.9722532284
30
0
0
VERTEX
5
21D
8
0
6
BYLAYER
62
256
10
24.557603704
20
21.1909661156
30
0
0
VERTEX
5
21E
8
0
6
BYLAYER
62
256
10
24.335489752
20
21.4011455812
30
0
0
VERTEX
5
21F
8
0
6
BYLAYER
62
256
10
24.11753006
20
21.6027812996
30
0
0
VERTEX
5
220
8
0
6
BYLAYER
62
256
10
23.90374084
20
21.7958629464
30
0
0
VERTEX
5
221
8
0
6
BYLAYER
62
256
10
23.694138304
20
21.9803801964
30
0
0
VERTEX
5
222
8
0
6
BYLAYER
62
256
10
23.488738656
20
22.1563227244
30
0
0
VERTEX
5
223
8
0
6
BYLAYER
62
256
10
23.287558108
20
22.3236802056
30
0
0
VERTEX
5
224
8
0
6
BYLAYER
62
256
10
23.090612868
20
22.4824423152
30
0
0
VERTEX
5
225
8
0
6
BYLAYER
62
256
10
22.897919148
20
22.632598728
30
0
0
VERTEX
5
226
8
0
6
BYLAYER
62
256
10
22.709493148
20
22.7741391192
30
0
0
VERTEX
5
227
8
0
6
BYLAYER
62
256
10
22.525351084
20
22.9070531636
30
0
0
VERTEX
5
228
8
0
6
BYLAYER
62
256
10
22.345509164
20
23.0313305364
30
0
0
VERTEX
5
229
8
0
6
BYLAYER
62
256
10
22.169983596
20
23.1469609124
30
0
0
VERTEX
5
22A
8
0
6
BYLAYER
62
256
10
21.998790588
20
23.2539339668
30
0
0
VERTEX
5
22B
8
0
6
BYLAYER
62
256
10
21.831946352
20
23.3522393748
30
0
0
VERTEX
5
22C
8
0
6
BYLAYER
62
256
10
21.669467092
20
23.4418668112
30
0
0
VERTEX
5
22D
8
0
6
BYLAYER
62
256
10
21.51136902
20
23.5228059512
30
0
0
VERTEX
5
22E
8
0
6
BYLAYER
62
256
10
21.357668344
20
23.5950464692
30
0
0
VERTEX
5
22F
8
0
6
BYLAYER
62
256
10
21.208381272
20
23.6585780412
30
0
0
VERTEX
5
230
8
0
6
BYLAYER
62
256
10
21.063524016
20
23.7133903416
30
0
0
VERTEX
5
231
8
0
6
BYLAYER
62
256
10
20.923112784
20
23.7594730456
30
0
0
VERTEX
5
232
8
0
6
BYLAYER
62
256
10
20.787163784
20
23.796815828
30
0
0
VERTEX
5
233
8
0
6
BYLAYER
62
256
10
20.655693224
20
23.825408364
30
0
0
VERTEX
5
234
8
0
6
BYLAYER
62
256
10
20.528717312
20
23.8452403288
30
0
0
VERTEX
5
235
8
0
6
BYLAYER
62
256
10
20.406252256
20
23.8563013972
30
0
0
VERTEX
5
236
8
0
6
BYLAYER
62
256
10
20.288314272
20
23.8585812444
30
0
0
VERTEX
5
237
8
0
6
BYLAYER
62
256
10
20.17491956
20
23.8520695452
30
0
0
VERTEX
5
238
8
0
6
BYLAYER
62
256
10
20.066084336
20
23.8367559748
30
0
0
VERTEX
5
239
8
0
6
BYLAYER
62
256
10
19.961824804
20
23.812630208
30
0
0
VERTEX
5
23A
8
0
6
BYLAYER
62
256
10
19.862157176
20
23.77968192
30
0
0
VERTEX
5
23B
8
0
6
BYLAYER
62
256
10
19.7803926
20
23.7448385064
30
0
0
VERTEX
5
23C
8
0
6
BYLAYER
62
256
10
19.706145796
20
23.7060672368
30
0
0
VERTEX
5
23D
8
0
6
BYLAYER
62
256
10
19.639363156
20
23.6635303328
30
0
0
VERTEX
5
23E
8
0
6
BYLAYER
62
256
10
19.579991072
20
23.6173900148
30
0
0
VERTEX
5
23F
8
0
6
BYLAYER
62
256
10
19.527975928
20
23.5678085044
30
0
0
VERTEX
5
240
8
0
6
BYLAYER
62
256
10
19.483264124
20
23.5149480224
30
0
0
VERTEX
5
241
8
0
6
BYLAYER
62
256
10
19.445802048
20
23.4589707896
30
0
0
VERTEX
5
242
8
0
6
BYLAYER
62
256
10
19.415536092
20
23.4000390276
30
0
0
VERTEX
5
243
8
0
6
BYLAYER
62
256
10
19.392412644
20
23.3383149572
30
0
0
VERTEX
5
244
8
0
6
BYLAYER
62
256
10
19.3763781
20
23.2739607996
30
0
0
VERTEX
5
245
8
0
6
BYLAYER
62
256
10
19.367378844
20
23.2071387756
30
0
0
VERTEX
5
246
8
0
6
BYLAYER
62
256
10
19.365361276
20
23.1380111064
30
0
0
VERTEX
5
247
8
0
6
BYLAYER
62
256
10
19.370271784
20
23.0667400128
30
0
0
VERTEX
5
248
8
0
6
BYLAYER
62
256
10
19.382056756
20
22.9934877164
30
0
0
VERTEX
5
249
8
0
6
BYLAYER
62
256
10
19.400662588
20
22.918416438
30
0
0
VERTEX
5
24A
8
0
6
BYLAYER
62
256
10
19.426035672
20
22.8416883984
30
0
0
VERTEX
5
24B
8
0
6
BYLAYER
62
256
10
19.458122392
20
22.7634658192
30
0
0
VERTEX
5
24C
8
0
6
BYLAYER
62
256
10
19.496869144
20
22.6839109208
30
0
0
VERTEX
5
24D
8
0
6
BYLAYER
62
256
10
19.54222232
20
22.6031859248
30
0
0
VERTEX
5
24E
8
0
6
BYLAYER
62
256
10
19.594128308
20
22.521453052
30
0
0
VERTEX
5
24F
8
0
6
BYLAYER
62
256
10
19.652533504
20
22.4388745236
30
0
0
VERTEX
5
250
8
0
6
BYLAYER
62
256
10
19.717384296
20
22.3556125608
30
0
0
VERTEX
5
251
8
0
6
BYLAYER
62
256
10
19.788627076
20
22.2718293844
30
0
0
VERTEX
5
252
8
0
6
BYLAYER
62
256
10
19.866208232
20
22.1876872152
30
0
0
VERTEX
5
253
8
0
6
BYLAYER
62
256
10
19.95007416
20
22.1033482748
30
0
0
VERTEX
5
254
8
0
6
BYLAYER
62
256
10
20.040171252
20
22.018974784
30
0
0
VERTEX
5
255
8
0
6
BYLAYER
62
256
10
20.136445896
20
21.934728964
30
0
0
VERTEX
5
256
8
0
6
BYLAYER
62
256
10
20.238844484
20
21.8507730356
30
0
0
VERTEX
5
257
8
0
6
BYLAYER
62
256
10
20.347313408
20
21.7672692204
30
0
0
VERTEX
5
258
8
0
6
BYLAYER
62
256
10
20.461799056
20
21.6843797388
30
0
0
VERTEX
5
259
8
0
6
BYLAYER
62
256
10
20.582247824
20
21.602266812
30
0
0
VERTEX
5
25A
8
0
6
BYLAYER
62
256
10
20.689828824
20
21.5308455668
30
0
0
VERTEX
5
25B
8
0
6
BYLAYER
62
256
10
20.790727804
20
21.4632664788
30
0
0
VERTEX
5
25C
8
0
6
BYLAYER
62
256
10
20.88509432
20
21.3992432208
30
0
0
VERTEX
5
25D
8
0
6
BYLAYER
62
256
10
20.97307792
20
21.3384894648
30
0
0
VERTEX
5
25E
8
0
6
BYLAYER
62
256
10
21.05482816
20
21.2807188828
30
0
0
VERTEX
5
25F
8
0
6
BYLAYER
62
256
10
21.130494592
20
21.2256451468
30
0
0
VERTEX
5
260
8
0
6
BYLAYER
62
256
10
21.200226768
20
21.1729819292
30
0
0
VERTEX
5
261
8
0
6
BYLAYER
62
256
10
21.26417424
20
21.122442902
30
0
0
VERTEX
5
262
8
0
6
BYLAYER
62
256
10
21.322486564
20
21.0737417372
30
0
0
VERTEX
5
263
8
0
6
BYLAYER
62
256
10
21.375313292
20
21.0265921068
30
0
0
VERTEX
5
264
8
0
6
BYLAYER
62
256
10
21.422803976
20
20.9807076832
30
0
0
VERTEX
5
265
8
0
6
BYLAYER
62
256
10
21.465108168
20
20.9358021384
30
0
0
VERTEX
5
266
8
0
6
BYLAYER
62
256
10
21.50237542
20
20.8915891444
30
0
0
VERTEX
5
267
8
0
6
BYLAYER
62
256
10
21.534755288
20
20.8477823736
30
0
0
VERTEX
5
268
8
0
6
BYLAYER
62
256
10
21.562397324
20
20.804095498
30
0
0
VERTEX
5
269
8
0
6
BYLAYER
62
256
10
21.585451076
20
20.7602421896
30
0
0
VERTEX
5
26A
8
0
6
BYLAYER
62
256
10
21.604066104
20
20.7159361208
30
0
0
VERTEX
5
26B
8
0
6
BYLAYER
62
256
10
21.618391956
20
20.6708909632
30
0
0
VERTEX
5
26C
8
0
6
BYLAYER
62
256
10
21.628578188
20
20.6248203896
30
0
0
VERTEX
5
26D
8
0
6
BYLAYER
62
256
10
21.634774348
20
20.5774380712
30
0
0
VERTEX
5
26E
8
0
6
BYLAYER
62
256
10
21.637129996
20
20.5284576812
30
0
0
VERTEX
5
26F
8
0
6
BYLAYER
62
256
10
21.635794676
20
20.4775928908
30
0
0
VERTEX
5
270
8
0
6
BYLAYER
62
256
10
21.630917948
20
20.4245573728
30
0
0
VERTEX
5
271
8
0
6
BYLAYER
62
256
10
21.622649364
20
20.3690647988
30
0
0
VERTEX
5
272
8
0
6
BYLAYER
62
256
10
21.611138472
20
20.3108288408
30
0
0
VERTEX
5
273
8
0
6
BYLAYER
62
256
10
21.596534828
20
20.2495631716
30
0
0
VERTEX
5
274
8
0
6
BYLAYER
62
256
10
21.578987984
20
20.1849814632
30
0
0
VERTEX
5
275
8
0
6
BYLAYER
62
256
10
21.558647496
20
20.1167973868
30
0
0
VERTEX
5
276
8
0
6
BYLAYER
62
256
10
21.535662912
20
20.0447246156
30
0
0
VERTEX
5
277
8
0
6
BYLAYER
62
256
10
21.510183788
20
19.9684768212
30
0
0
VERTEX
5
278
8
0
6
BYLAYER
62
256
10
21.482359676
20
19.887767676
30
0
0
VERTEX
5
279
8
0
6
BYLAYER
62
256
10
21.465027576
20
19.8390553488
30
0
0
VERTEX
5
27A
8
0
6
BYLAYER
62
256
10
21.446942248
20
19.7901648768
30
0
0
VERTEX
5
27B
8
0
6
BYLAYER
62
256
10
21.428150484
20
19.7411817312
30
0
0
VERTEX
5
27C
8
0
6
BYLAYER
62
256
10
21.408699076
20
19.6921913844
30
0
0
VERTEX
5
27D
8
0
6
BYLAYER
62
256
10
21.388634804
20
19.6432793084
30
0
0
VERTEX
5
27E
8
0
6
BYLAYER
62
256
10
21.368004464
20
19.5945309756
30
0
0
VERTEX
5
27F
8
0
6
BYLAYER
62
256
10
21.346854848
20
19.5460318576
30
0
0
VERTEX
5
280
8
0
6
BYLAYER
62
256
10
21.325232736
20
19.4978674268
30
0
0
VERTEX
5
281
8
0
6
BYLAYER
62
256
10
21.303184928
20
19.4501231548
30
0
0
VERTEX
5
282
8
0
6
BYLAYER
62
256
10
21.280758204
20
19.402884514
30
0
0
VERTEX
5
283
8
0
6
BYLAYER
62
256
10
21.25799936
20
19.3562369768
30
0
0
VERTEX
5
284
8
0
6
BYLAYER
62
256
10
21.234955184
20
19.3102660144
30
0
0
VERTEX
5
285
8
0
6
BYLAYER
62
256
10
21.21167246
20
19.2650570992
30
0
0
VERTEX
5
286
8
0
6
BYLAYER
62
256
10
21.188197984
20
19.2206957036
30
0
0
VERTEX
5
287
8
0
6
BYLAYER
62
256
10
21.164578544
20
19.1772672992
30
0
0
VERTEX
5
288
8
0
6
BYLAYER
62
256
10
21.140860924
20
19.1348573584
30
0
0
VERTEX
5
289
8
0
6
BYLAYER
62
256
10
21.11709192
20
19.0935513532
30
0
0
VERTEX
5
28A
8
0
6
BYLAYER
62
256
10
21.09331832
20
19.0534347552
30
0
0
VERTEX
5
28B
8
0
6
BYLAYER
62
256
10
21.069586912
20
19.0145930372
30
0
0
VERTEX
5
28C
8
0
6
BYLAYER
62
256
10
21.045944484
20
18.9771116704
30
0
0
VERTEX
5
28D
8
0
6
BYLAYER
62
256
10
21.022437824
20
18.9410761276
30
0
0
VERTEX
5
28E
8
0
6
BYLAYER
62
256
10
20.999113728
20
18.9065718804
30
0
0
VERTEX
5
28F
8
0
6
BYLAYER
62
256
10
20.97601898
20
18.8736844008
30
0
0
VERTEX
5
290
8
0
6
BYLAYER
62
256
10
20.953200368
20
18.8424991612
30
0
0
VERTEX
5
291
8
0
6
BYLAYER
62
256
10
20.930704688
20
18.8131016336
30
0
0
VERTEX
5
292
8
0
6
BYLAYER
62
256
10
20.908578724
20
18.78557729
30
0
0
VERTEX
5
293
8
0
6
BYLAYER
62
256
10
20.886869264
20
18.760011602
30
0
0
VERTEX
5
294
8
0
6
BYLAYER
62
256
10
20.865623104
20
18.7364900424
30
0
0
VERTEX
5
295
8
0
6
BYLAYER
62
256
10
20.844887024
20
18.7150980828
30
0
0
VERTEX
5
296
8
0
6
BYLAYER
62
256
10
20.824707824
20
18.6959211952
30
0
0
VERTEX
5
297
8
0
6
BYLAYER
62
256
10
20.805132284
20
18.679044852
30
0
0
VERTEX
5
298
8
0
6
BYLAYER
62
256
10
20.780731424
20
18.6632939336
30
0
0
VERTEX
5
299
8
0
6
BYLAYER
62
256
10
20.746239612
20
18.6474545388
30
0
0
VERTEX
5
29A
8
0
6
BYLAYER
62
256
10
20.701949784
20
18.631554812
30
0
0
VERTEX
5
29B
8
0
6
BYLAYER
62
256
10
20.648154888
20
18.6156228996
30
0
0
VERTEX
5
29C
8
0
6
BYLAYER
62
256
10
20.585147864
20
18.5996869456
30
0
0
VERTEX
5
29D
8
0
6
BYLAYER
62
256
10
20.513221652
20
18.5837750956
30
0
0
VERTEX
5
29E
8
0
6
BYLAYER
62
256
10
20.4326692
20
18.5679154948
30
0
0
VERTEX
5
29F
8
0
6
BYLAYER
62
256
10
20.343783444
20
18.5521362884
30
0
0
VERTEX
5
2A0
8
0
6
BYLAYER
62
256
10
20.246857332
20
18.5364656216
30
0
0
VERTEX
5
2A1
8
0
6
BYLAYER
62
256
10
20.142183804
20
18.5209316392
30
0
0
VERTEX
5
2A2
8
0
6
BYLAYER
62
256
10
20.0300558
20
18.5055624868
30
0
0
VERTEX
5
2A3
8
0
6
BYLAYER
62
256
10
19.910766268
20
18.4903863092
30
0
0
VERTEX
5
2A4
8
0
6
BYLAYER
62
256
10
19.784608144
20
18.4754312516
30
0
0
VERTEX
5
2A5
8
0
6
BYLAYER
62
256
10
19.651874376
20
18.4607254596
30
0
0
VERTEX
5
2A6
8
0
6
BYLAYER
62
256
10
19.512857904
20
18.446297078
30
0
0
VERTEX
5
2A7
8
0
6
BYLAYER
62
256
10
19.367851668
20
18.432174252
30
0
0
VERTEX
5
2A8
8
0
6
BYLAYER
62
256
10
19.217148612
20
18.4183851268
30
0
0
VERTEX
5
2A9
8
0
6
BYLAYER
62
256
10
19.06104168
20
18.4049578476
30
0
0
VERTEX
5
2AA
8
0
6
BYLAYER
62
256
10
18.899823812
20
18.3919205592
30
0
0
VERTEX
5
2AB
8
0
6
BYLAYER
62
256
10
18.733787952
20
18.3793014072
30
0
0
VERTEX
5
2AC
8
0
6
BYLAYER
62
256
10
18.563227044
20
18.3671285368
30
0
0
VERTEX
5
2AD
8
0
6
BYLAYER
62
256
10
18.388434024
20
18.3554300928
30
0
0
VERTEX
5
2AE
8
0
6
BYLAYER
62
256
10
18.20970184
20
18.3442342204
30
0
0
VERTEX
5
2AF
8
0
6
BYLAYER
62
256
10
18.027323436
20
18.3335690652
30
0
0
VERTEX
5
2B0
8
0
6
BYLAYER
62
256
10
17.841591748
20
18.3234627716
30
0
0
VERTEX
5
2B1
8
0
6
BYLAYER
62
256
10
17.652799724
20
18.3139434856
30
0
0
VERTEX
5
2B2
8
0
6
BYLAYER
62
256
10
17.4612403
20
18.305039352
30
0
0
VERTEX
5
2B3
8
0
6
BYLAYER
62
256
10
17.267206424
20
18.2967785156
30
0
0
VERTEX
5
2B4
8
0
6
BYLAYER
62
256
10
17.07099104
20
18.2891891224
30
0
0
VERTEX
5
2B5
8
0
6
BYLAYER
62
256
10
16.872887084
20
18.2822993168
30
0
0
VERTEX
5
2B6
8
0
6
BYLAYER
62
256
10
16.6731875
20
18.276137244
30
0
0
VERTEX
5
2B7
8
0
6
BYLAYER
62
256
10
16.437515472
20
18.268919336
30
0
0
VERTEX
5
2B8
8
0
6
BYLAYER
62
256
10
16.208373968
20
18.2610713488
30
0
0
VERTEX
5
2B9
8
0
6
BYLAYER
62
256
10
15.985789692
20
18.2525976284
30
0
0
VERTEX
5
2BA
8
0
6
BYLAYER
62
256
10
15.769789352
20
18.2435025212
30
0
0
VERTEX
5
2BB
8
0
6
BYLAYER
62
256
10
15.56039966
20
18.233790374
30
0
0
VERTEX
5
2BC
8
0
6
BYLAYER
62
256
10
15.35764732
20
18.2234655328
30
0
0
VERTEX
5
2BD
8
0
6
BYLAYER
62
256
10
15.16155904
20
18.212532344
30
0
0
VERTEX
5
2BE
8
0
6
BYLAYER
62
256
10
14.972161524
20
18.2009951536
30
0
0
VERTEX
5
2BF
8
0
6
BYLAYER
62
256
10
14.789481484
20
18.1888583084
30
0
0
VERTEX
5
2C0
8
0
6
BYLAYER
62
256
10
14.613545628
20
18.1761261548
30
0
0
VERTEX
5
2C1
8
0
6
BYLAYER
62
256
10
14.44438066
20
18.1628030388
30
0
0
VERTEX
5
2C2
8
0
6
BYLAYER
62
256
10
14.282013288
20
18.1488933072
30
0
0
VERTEX
5
2C3
8
0
6
BYLAYER
62
256
10
14.12647022
20
18.1344013056
30
0
0
VERTEX
5
2C4
8
0
6
BYLAYER
62
256
10
13.977778168
20
18.1193313812
30
0
0
VERTEX
5
2C5
8
0
6
BYLAYER
62
256
10
13.835963832
20
18.1036878796
30
0
0
VERTEX
5
2C6
8
0
6
BYLAYER
62
256
10
13.701053924
20
18.087475148
30
0
0
VERTEX
5
2C7
8
0
6
BYLAYER
62
256
10
13.573075148
20
18.070697532
30
0
0
VERTEX
5
2C8
8
0
6
BYLAYER
62
256
10
13.452054216
20
18.053359378
30
0
0
VERTEX
5
2C9
8
0
6
BYLAYER
62
256
10
13.338017836
20
18.0354650328
30
0
0
VERTEX
5
2CA
8
0
6
BYLAYER
62
256
10
13.230992708
20
18.0170188424
30
0
0
VERTEX
5
2CB
8
0
6
BYLAYER
62
256
10
13.131005548
20
17.9980251536
30
0
0
VERTEX
5
2CC
8
0
6
BYLAYER
62
256
10
13.038083056
20
17.978488312
30
0
0
VERTEX
5
2CD
8
0
6
BYLAYER
62
256
10
12.952251948
20
17.9584126644
30
0
0
VERTEX
5
2CE
8
0
6
BYLAYER
62
256
10
12.87353892
20
17.9378025572
30
0
0
VERTEX
5
2CF
8
0
6
BYLAYER
62
256
10
12.801970692
20
17.9166623364
30
0
0
VERTEX
5
2D0
8
0
6
BYLAYER
62
256
10
12.737573964
20
17.8949963488
30
0
0
VERTEX
5
2D1
8
0
6
BYLAYER
62
256
10
12.680375444
20
17.8728089408
30
0
0
VERTEX
5
2D2
8
0
6
BYLAYER
62
256
10
12.63040184
20
17.850104458
30
0
0
VERTEX
5
2D3
8
0
6
BYLAYER
62
256
10
12.587679864
20
17.8268872476
30
0
0
VERTEX
5
2D4
8
0
6
BYLAYER
62
256
10
12.552236216
20
17.8031616556
30
0
0
VERTEX
5
2D5
8
0
6
BYLAYER
62
256
10
12.524097608
20
17.778932028
30
0
0
VERTEX
5
2D6
8
0
6
BYLAYER
62
256
10
12.478473336
20
17.7372032108
30
0
0
VERTEX
5
2D7
8
0
6
BYLAYER
62
256
10
12.42759538
20
17.6977369152
30
0
0
VERTEX
5
2D8
8
0
6
BYLAYER
62
256
10
12.37192138
20
17.6605620796
30
0
0
VERTEX
5
2D9
8
0
6
BYLAYER
62
256
10
12.311908976
20
17.625707642
30
0
0
VERTEX
5
2DA
8
0
6
BYLAYER
62
256
10
12.248015808
20
17.5932025416
30
0
0
VERTEX
5
2DB
8
0
6
BYLAYER
62
256
10
12.180699512
20
17.563075716
30
0
0
VERTEX
5
2DC
8
0
6
BYLAYER
62
256
10
12.110417732
20
17.5353561044
30
0
0
VERTEX
5
2DD
8
0
6
BYLAYER
62
256
10
12.037628104
20
17.5100726444
30
0
0
VERTEX
5
2DE
8
0
6
BYLAYER
62
256
10
11.962788272
20
17.4872542748
30
0
0
VERTEX
5
2DF
8
0
6
BYLAYER
62
256
10
11.886355876
20
17.466929934
30
0
0
VERTEX
5
2E0
8
0
6
BYLAYER
62
256
10
11.808788552
20
17.4491285604
30
0
0
VERTEX
5
2E1
8
0
6
BYLAYER
62
256
10
11.73054394
20
17.433879092
30
0
0
VERTEX
5
2E2
8
0
6
BYLAYER
62
256
10
11.652079684
20
17.421210468
30
0
0
VERTEX
5
2E3
8
0
6
BYLAYER
62
256
10
11.57385342
20
17.411151626
30
0
0
VERTEX
5
2E4
8
0
6
BYLAYER
62
256
10
11.496322792
20
17.4037315048
30
0
0
VERTEX
5
2E5
8
0
6
BYLAYER
62
256
10
11.419945436
20
17.3989790424
30
0
0
VERTEX
5
2E6
8
0
6
BYLAYER
62
256
10
11.345178992
20
17.396923178
30
0
0
VERTEX
5
2E7
8
0
6
BYLAYER
62
256
10
11.2724811
20
17.3975928492
30
0
0
VERTEX
5
2E8
8
0
6
BYLAYER
62
256
10
11.2023094
20
17.4010169948
30
0
0
VERTEX
5
2E9
8
0
6
BYLAYER
62
256
10
11.135121536
20
17.4072245528
30
0
0
VERTEX
5
2EA
8
0
6
BYLAYER
62
256
10
11.07137514
20
17.4162444624
30
0
0
VERTEX
5
2EB
8
0
6
BYLAYER
62
256
10
11.01152786
20
17.4281056612
30
0
0
VERTEX
5
2EC
8
0
6
BYLAYER
62
256
10
10.956037328
20
17.4428370876
30
0
0
VERTEX
5
2ED
8
0
6
BYLAYER
62
256
10
10.905361192
20
17.4604676808
30
0
0
VERTEX
5
2EE
8
0
6
BYLAYER
62
256
10
10.859957084
20
17.4810263784
30
0
0
VERTEX
5
2EF
8
0
6
BYLAYER
62
256
10
10.820282648
20
17.5045421188
30
0
0
VERTEX
5
2F0
8
0
6
BYLAYER
62
256
10
10.786795524
20
17.5310438412
30
0
0
VERTEX
5
2F1
8
0
6
BYLAYER
62
256
10
10.759953348
20
17.5605604832
30
0
0
VERTEX
5
2F2
8
0
6
BYLAYER
62
256
10
10.740213768
20
17.5931209832
30
0
0
VERTEX
5
2F3
8
0
6
BYLAYER
62
256
10
10.728034416
20
17.62875428
30
0
0
VERTEX
5
2F4
8
0
6
BYLAYER
62
256
10
10.723872932
20
17.667489312
30
0
0
VERTEX
5
2F5
8
0
6
BYLAYER
62
256
10
10.72236826
20
17.6830963604
30
0
0
VERTEX
5
2F6
8
0
6
BYLAYER
62
256
10
10.717904996
20
17.7002664368
30
0
0
VERTEX
5
2F7
8
0
6
BYLAYER
62
256
10
10.710559292
20
17.7189342752
30
0
0
VERTEX
5
2F8
8
0
6
BYLAYER
62
256
10
10.70040728
20
17.73903461
30
0
0
VERTEX
5
2F9
8
0
6
BYLAYER
62
256
10
10.687525104
20
17.7605021764
30
0
0
VERTEX
5
2FA
8
0
6
BYLAYER
62
256
10
10.671988904
20
17.783271708
30
0
0
VERTEX
5
2FB
8
0
6
BYLAYER
62
256
10
10.65387482
20
17.80727794
30
0
0
VERTEX
5
2FC
8
0
6
BYLAYER
62
256
10
10.633258996
20
17.8324556068
30
0
0
VERTEX
5
2FD
8
0
6
BYLAYER
62
256
10
10.610217568
20
17.8587394424
30
0
0
VERTEX
5
2FE
8
0
6
BYLAYER
62
256
10
10.58482668
20
17.886064182
30
0
0
VERTEX
5
2FF
8
0
6
BYLAYER
62
256
10
10.557162472
20
17.9143645596
30
0
0
VERTEX
5
300
8
0
6
BYLAYER
62
256
10
10.527301084
20
17.94357531
30
0
0
VERTEX
5
301
8
0
6
BYLAYER
62
256
10
10.49531866
20
17.9736311672
30
0
0
VERTEX
5
302
8
0
6
BYLAYER
62
256
10
10.46129134
20
18.0044668664
30
0
0
VERTEX
5
303
8
0
6
BYLAYER
62
256
10
10.42529526
20
18.0360171412
30
0
0
VERTEX
5
304
8
0
6
BYLAYER
62
256
10
10.387406564
20
18.0682167272
30
0
0
VERTEX
5
305
8
0
6
BYLAYER
62
256
10
10.347701392
20
18.101000358
30
0
0
VERTEX
5
306
8
0
6
BYLAYER
62
256
10
10.306255888
20
18.1343027684
30
0
0
VERTEX
5
307
8
0
6
BYLAYER
62
256
10
10.263146188
20
18.1680586928
30
0
0
VERTEX
5
308
8
0
6
BYLAYER
62
256
10
10.218448436
20
18.202202866
30
0
0
VERTEX
5
309
8
0
6
BYLAYER
62
256
10
10.172238772
20
18.2366700224
30
0
0
VERTEX
5
30A
8
0
6
BYLAYER
62
256
10
10.124593336
20
18.271394896
30
0
0
VERTEX
5
30B
8
0
6
BYLAYER
62
256
10
10.075588272
20
18.306312222
30
0
0
VERTEX
5
30C
8
0
6
BYLAYER
62
256
10
10.025299716
20
18.3413567348
30
0
0
VERTEX
5
30D
8
0
6
BYLAYER
62
256
10
9.973803812
20
18.3764631684
30
0
0
VERTEX
5
30E
8
0
6
BYLAYER
62
256
10
9.921176696
20
18.4115662572
30
0
0
VERTEX
5
30F
8
0
6
BYLAYER
62
256
10
9.867494516
20
18.4466007364
30
0
0
VERTEX
5
310
8
0
6
BYLAYER
62
256
10
9.812833408
20
18.4815013404
30
0
0
VERTEX
5
311
8
0
6
BYLAYER
62
256
10
9.757269516
20
18.5162028032
30
0
0
VERTEX
5
312
8
0
6
BYLAYER
62
256
10
9.700878976
20
18.5506398596
30
0
0
VERTEX
5
313
8
0
6
BYLAYER
62
256
10
9.643737932
20
18.584747244
30
0
0
VERTEX
5
314
8
0
6
BYLAYER
62
256
10
9.555627012
20
18.6372681432
30
0
0
VERTEX
5
315
8
0
6
BYLAYER
62
256
10
9.472327092
20
18.688112666
30
0
0
VERTEX
5
316
8
0
6
BYLAYER
62
256
10
9.393707848
20
18.737498234
30
0
0
VERTEX
5
317
8
0
6
BYLAYER
62
256
10
9.319638952
20
18.7856422692
30
0
0
VERTEX
5
318
8
0
6
BYLAYER
62
256
10
9.24999008
20
18.8327621924
30
0
0
VERTEX
5
319
8
0
6
BYLAYER
62
256
10
9.184630904
20
18.8790754256
30
0
0
VERTEX
5
31A
8
0
6
BYLAYER
62
256
10
9.123431104
20
18.9247993904
30
0
0
VERTEX
5
31B
8
0
6
BYLAYER
62
256
10
9.066260356
20
18.9701515084
30
0
0
VERTEX
5
31C
8
0
6
BYLAYER
62
256
10
9.012988328
20
19.0153492008
30
0
0
VERTEX
5
31D
8
0
6
BYLAYER
62
256
10
8.9634847
20
19.0606098896
30
0
0
VERTEX
5
31E
8
0
6
BYLAYER
62
256
10
8.917619148
20
19.106150996
30
0
0
VERTEX
5
31F
8
0
6
BYLAYER
62
256
10
8.87526134
20
19.152189942
30
0
0
VERTEX
5
320
8
0
6
BYLAYER
62
256
10
8.83628096
20
19.1989441488
30
0
0
VERTEX
5
321
8
0
6
BYLAYER
62
256
10
8.800547676
20
19.246631038
30
0
0
VERTEX
5
322
8
0
6
BYLAYER
62
256
10
8.767931164
20
19.2954680312
30
0
0
VERTEX
5
323
8
0
6
BYLAYER
62
256
10
8.738301104
20
19.34567255
30
0
0
VERTEX
5
324
8
0
6
BYLAYER
62
256
10
8.711527164
20
19.397462016
30
0
0
VERTEX
5
325
8
0
6
BYLAYER
62
256
10
8.687479024
20
19.4510538508
30
0
0
VERTEX
5
326
8
0
6
BYLAYER
62
256
10
8.666026356
20
19.5066654756
30
0
0
VERTEX
5
327
8
0
6
BYLAYER
62
256
10
8.647038836
20
19.5645143128
30
0
0
VERTEX
5
328
8
0
6
BYLAYER
62
256
10
8.63038614
20
19.6248177828
30
0
0
VERTEX
5
329
8
0
6
BYLAYER
62
256
10
8.615937944
20
19.687793308
30
0
0
VERTEX
5
32A
8
0
6
BYLAYER
62
256
10
8.603563916
20
19.75365831
30
0
0
VERTEX
5
32B
8
0
6
BYLAYER
62
256
10
8.59313374
20
19.82263021
30
0
0
VERTEX
5
32C
8
0
6
BYLAYER
62
256
10
8.584517084
20
19.8949264296
30
0
0
VERTEX
5
32D
8
0
6
BYLAYER
62
256
10
8.577583628
20
19.9707643904
30
0
0
VERTEX
5
32E
8
0
6
BYLAYER
62
256
10
8.572203044
20
20.050361514
30
0
0
VERTEX
5
32F
8
0
6
BYLAYER
62
256
10
8.568245008
20
20.133935222
30
0
0
VERTEX
5
330
8
0
6
BYLAYER
62
256
10
8.565579192
20
20.221702936
30
0
0
VERTEX
5
331
8
0
6
BYLAYER
62
256
10
8.564075276
20
20.3138820776
30
0
0
VERTEX
5
332
8
0
6
BYLAYER
62
256
10
8.563602932
20
20.410690068
30
0
0
VERTEX
5
333
8
0
6
BYLAYER
62
256
10
8.562296476
20
20.5133983172
30
0
0
VERTEX
5
334
8
0
6
BYLAYER
62
256
10
8.558420476
20
20.6146249416
30
0
0
VERTEX
5
335
8
0
6
BYLAYER
62
256
10
8.552039968
20
20.714242074
30
0
0
VERTEX
5
336
8
0
6
BYLAYER
62
256
10
8.54322
20
20.8121218484
30
0
0
VERTEX
5
337
8
0
6
BYLAYER
62
256
10
8.532025612
20
20.9081363976
30
0
0
VERTEX
5
338
8
0
6
BYLAYER
62
256
10
8.51852184
20
21.0021578556
30
0
0
VERTEX
5
339
8
0
6
BYLAYER
62
256
10
8.502773736
20
21.0940583548
30
0
0
VERTEX
5
33A
8
0
6
BYLAYER
62
256
10
8.484846336
20
21.1837100292
30
0
0
VERTEX
5
33B
8
0
6
BYLAYER
62
256
10
8.464804684
20
21.270985012
30
0
0
VERTEX
5
33C
8
0
6
BYLAYER
62
256
10
8.442713824
20
21.3557554368
30
0
0
VERTEX
5
33D
8
0
6
BYLAYER
62
256
10
8.418638792
20
21.4378934364
30
0
0
VERTEX
5
33E
8
0
6
BYLAYER
62
256
10
8.392644636
20
21.5172711444
30
0
0
VERTEX
5
33F
8
0
6
BYLAYER
62
256
10
8.364796396
20
21.593760694
30
0
0
VERTEX
5
340
8
0
6
BYLAYER
62
256
10
8.335159116
20
21.6672342188
30
0
0
VERTEX
5
341
8
0
6
BYLAYER
62
256
10
8.303797836
20
21.737563852
30
0
0
VERTEX
5
342
8
0
6
BYLAYER
62
256
10
8.2707776
20
21.8046217272
30
0
0
VERTEX
5
343
8
0
6
BYLAYER
62
256
10
8.236163448
20
21.8682799772
30
0
0
VERTEX
5
344
8
0
6
BYLAYER
62
256
10
8.20002042
20
21.9284107356
30
0
0
VERTEX
5
345
8
0
6
BYLAYER
62
256
10
8.162413564
20
21.9848861356
30
0
0
VERTEX
5
346
8
0
6
BYLAYER
62
256
10
8.12340792
20
22.0375783108
30
0
0
VERTEX
5
347
8
0
6
BYLAYER
62
256
10
8.083068528
20
22.0863593944
30
0
0
VERTEX
5
348
8
0
6
BYLAYER
62
256
10
8.041460432
20
22.13110152
30
0
0
VERTEX
5
349
8
0
6
BYLAYER
62
256
10
7.998648676
20
22.1716768204
30
0
0
VERTEX
5
34A
8
0
6
BYLAYER
62
256
10
7.954698296
20
22.2079574292
30
0
0
VERTEX
5
34B
8
0
6
BYLAYER
62
256
10
7.90967434
20
22.23981548
30
0
0
VERTEX
5
34C
8
0
6
BYLAYER
62
256
10
7.863641848
20
22.2671231056
30
0
0
VERTEX
5
34D
8
0
6
BYLAYER
62
256
10
7.816665864
20
22.28975244
30
0
0
VERTEX
5
34E
8
0
6
BYLAYER
62
256
10
7.768811424
20
22.307575616
30
0
0
VERTEX
5
34F
8
0
6
BYLAYER
62
256
10
7.720143576
20
22.3204647672
30
0
0
VERTEX
5
350
8
0
6
BYLAYER
62
256
10
7.670727364
20
22.3282920268
30
0
0
VERTEX
5
351
8
0
6
BYLAYER
62
256
10
7.620627824
20
22.330929528
30
0
0
VERTEX
5
352
8
0
6
BYLAYER
62
256
10
7.593134864
20
22.32644903
30
0
0
VERTEX
5
353
8
0
6
BYLAYER
62
256
10
7.56357226
20
22.3133135364
30
0
0
VERTEX
5
354
8
0
6
BYLAYER
62
256
10
7.53213966
20
22.2919820472
30
0
0
VERTEX
5
355
8
0
6
BYLAYER
62
256
10
7.499036704
20
22.2629135624
30
0
0
VERTEX
5
356
8
0
6
BYLAYER
62
256
10
7.46446304
20
22.2265670828
30
0
0
VERTEX
5
357
8
0
6
BYLAYER
62
256
10
7.428618316
20
22.183401608
30
0
0
VERTEX
5
358
8
0
6
BYLAYER
62
256
10
7.391702172
20
22.1338761384
30
0
0
VERTEX
5
359
8
0
6
BYLAYER
62
256
10
7.353914264
20
22.0784496744
30
0
0
VERTEX
5
35A
8
0
6
BYLAYER
62
256
10
7.315454232
20
22.0175812156
30
0
0
VERTEX
5
35B
8
0
6
BYLAYER
62
256
10
7.276521724
20
21.9517297628
30
0
0
VERTEX
5
35C
8
0
6
BYLAYER
62
256
10
7.237316384
20
21.881354316
30
0
0
VERTEX
5
35D
8
0
6
BYLAYER
62
256
10
7.198037856
20
21.8069138752
30
0
0
VERTEX
5
35E
8
0
6
BYLAYER
62
256
10
7.158885792
20
21.7288674412
30
0
0
VERTEX
5
35F
8
0
6
BYLAYER
62
256
10
7.120059836
20
21.6476740132
30
0
0
VERTEX
5
360
8
0
6
BYLAYER
62
256
10
7.081759628
20
21.563792592
30
0
0
VERTEX
5
361
8
0
6
BYLAYER
62
256
10
7.044184824
20
21.4776821776
30
0
0
VERTEX
5
362
8
0
6
BYLAYER
62
256
10
7.00753506
20
21.3898017704
30
0
0
VERTEX
5
363
8
0
6
BYLAYER
62
256
10
6.972009992
20
21.3006103708
30
0
0
VERTEX
5
364
8
0
6
BYLAYER
62
256
10
6.93780926
20
21.2105669784
30
0
0
VERTEX
5
365
8
0
6
BYLAYER
62
256
10
6.905132508
20
21.1201305936
30
0
0
VERTEX
5
366
8
0
6
BYLAYER
62
256
10
6.874179388
20
21.0297602164
30
0
0
VERTEX
5
367
8
0
6
BYLAYER
62
256
10
6.84514954
20
20.9399148476
30
0
0
VERTEX
5
368
8
0
6
BYLAYER
62
256
10
6.818242616
20
20.8510534868
30
0
0
VERTEX
5
369
8
0
6
BYLAYER
62
256
10
6.793658256
20
20.7636351348
30
0
0
VERTEX
5
36A
8
0
6
BYLAYER
62
256
10
6.771596112
20
20.6781187912
30
0
0
VERTEX
5
36B
8
0
6
BYLAYER
62
256
10
6.752255828
20
20.594963456
30
0
0
VERTEX
5
36C
8
0
6
BYLAYER
62
256
10
6.735837044
20
20.5146281304
30
0
0
VERTEX
5
36D
8
0
6
BYLAYER
62
256
10
6.722539416
20
20.4375718136
30
0
0
VERTEX
5
36E
8
0
6
BYLAYER
62
256
10
6.712562584
20
20.364253506
30
0
0
VERTEX
5
36F
8
0
6
BYLAYER
62
256
10
6.706106192
20
20.295132208
30
0
0
VERTEX
5
370
8
0
6
BYLAYER
62
256
10
6.703369892
20
20.23066692
30
0
0
VERTEX
5
371
8
0
6
BYLAYER
62
256
10
6.702171392
20
20.20179778
30
0
0
VERTEX
5
372
8
0
6
BYLAYER
62
256
10
6.699334624
20
20.1711958572
30
0
0
VERTEX
5
373
8
0
6
BYLAYER
62
256
10
6.694901924
20
20.138951528
30
0
0
VERTEX
5
374
8
0
6
BYLAYER
62
256
10
6.688915628
20
20.105155168
30
0
0
VERTEX
5
375
8
0
6
BYLAYER
62
256
10
6.681418072
20
20.0698971532
30
0
0
VERTEX
5
376
8
0
6
BYLAYER
62
256
10
6.672451588
20
20.03326786
30
0
0
VERTEX
5
377
8
0
6
BYLAYER
62
256
10
6.66205852
20
19.9953576636
30
0
0
VERTEX
5
378
8
0
6
BYLAYER
62
256
10
6.6502812
20
19.9562569404
30
0
0
VERTEX
5
379
8
0
6
BYLAYER
62
256
10
6.637161968
20
19.916056066
30
0
0
VERTEX
5
37A
8
0
6
BYLAYER
62
256
10
6.622743152
20
19.8748454168
30
0
0
VERTEX
5
37B
8
0
6
BYLAYER
62
256
10
6.607067096
20
19.8327153688
30
0
0
VERTEX
5
37C
8
0
6
BYLAYER
62
256
10
6.590176136
20
19.7897562972
30
0
0
VERTEX
5
37D
8
0
6
BYLAYER
62
256
10
6.572112604
20
19.7460585784
30
0
0
VERTEX
5
37E
8
0
6
BYLAYER
62
256
10
6.552918836
20
19.7017125884
30
0
0
VERTEX
5
37F
8
0
6
BYLAYER
62
256
10
6.532637176
20
19.6568087028
30
0
0
VERTEX
5
380
8
0
6
BYLAYER
62
256
10
6.511309952
20
19.611437298
30
0
0
VERTEX
5
381
8
0
6
BYLAYER
62
256
10
6.488979504
20
19.5656887496
30
0
0
VERTEX
5
382
8
0
6
BYLAYER
62
256
10
6.465688164
20
19.519653434
30
0
0
VERTEX
5
383
8
0
6
BYLAYER
62
256
10
6.441478276
20
19.4734217264
30
0
0
VERTEX
5
384
8
0
6
BYLAYER
62
256
10
6.416392168
20
19.4270840032
30
0
0
VERTEX
5
385
8
0
6
BYLAYER
62
256
10
6.390472184
20
19.38073064
30
0
0
VERTEX
5
386
8
0
6
BYLAYER
62
256
10
6.363760656
20
19.3344520132
30
0
0
VERTEX
5
387
8
0
6
BYLAYER
62
256
10
6.33629992
20
19.2883384984
30
0
0
VERTEX
5
388
8
0
6
BYLAYER
62
256
10
6.308132316
20
19.2424804716
30
0
0
VERTEX
5
389
8
0
6
BYLAYER
62
256
10
6.279300172
20
19.1969683088
30
0
0
VERTEX
5
38A
8
0
6
BYLAYER
62
256
10
6.249845832
20
19.151892386
30
0
0
VERTEX
5
38B
8
0
6
BYLAYER
62
256
10
6.219811632
20
19.1073430792
30
0
0
VERTEX
5
38C
8
0
6
BYLAYER
62
256
10
6.189239904
20
19.0634107636
30
0
0
VERTEX
5
38D
8
0
6
BYLAYER
62
256
10
6.158172988
20
19.0201858164
30
0
0
VERTEX
5
38E
8
0
6
BYLAYER
62
256
10
6.12665322
20
18.9777586124
30
0
0
VERTEX
5
38F
8
0
6
BYLAYER
62
256
10
6.094722932
20
18.936219528
30
0
0
VERTEX
5
390
8
0
6
BYLAYER
62
256
10
6.06276632
20
18.8948187096
30
0
0
VERTEX
5
391
8
0
6
BYLAYER
62
256
10
6.031170072
20
18.852802668
30
0
0
VERTEX
5
392
8
0
6
BYLAYER
62
256
10
5.999979984
20
18.8102554808
30
0
0
VERTEX
5
393
8
0
6
BYLAYER
62
256
10
5.969241856
20
18.7672612248
30
0
0
VERTEX
5
394
8
0
6
BYLAYER
62
256
10
5.939001488
20
18.7239039772
30
0
0
VERTEX
5
395
8
0
6
BYLAYER
62
256
10
5.90930468
20
18.6802678148
30
0
0
VERTEX
5
396
8
0
6
BYLAYER
62
256
10
5.880197228
20
18.6364368148
30
0
0
VERTEX
5
397
8
0
6
BYLAYER
62
256
10
5.851724936
20
18.592495054
30
0
0
VERTEX
5
398
8
0
6
BYLAYER
62
256
10
5.823933596
20
18.54852661
30
0
0
VERTEX
5
399
8
0
6
BYLAYER
62
256
10
5.796869012
20
18.5046155592
30
0
0
VERTEX
5
39A
8
0
6
BYLAYER
62
256
10
5.77057698
20
18.4608459788
30
0
0
VERTEX
5
39B
8
0
6
BYLAYER
62
256
10
5.7451033
20
18.417301946
30
0
0
VERTEX
5
39C
8
0
6
BYLAYER
62
256
10
5.720493772
20
18.3740675376
30
0
0
VERTEX
5
39D
8
0
6
BYLAYER
62
256
10
5.696794196
20
18.3312268308
30
0
0
VERTEX
5
39E
8
0
6
BYLAYER
62
256
10
5.674050368
20
18.2888639028
30
0
0
VERTEX
5
39F
8
0
6
BYLAYER
62
256
10
5.652308088
20
18.2470628308
30
0
0
VERTEX
5
3A0
8
0
6
BYLAYER
62
256
10
5.631613152
20
18.2059076908
30
0
0
VERTEX
5
3A1
8
0
6
BYLAYER
62
256
10
5.612011368
20
18.1654825612
30
0
0
VERTEX
5
3A2
8
0
6
BYLAYER
62
256
10
5.593548524
20
18.125871518
30
0
0
VERTEX
5
3A3
8
0
6
BYLAYER
62
256
10
5.576270424
20
18.0871586388
30
0
0
VERTEX
5
3A4
8
0
6
BYLAYER
62
256
10
5.560222868
20
18.0494280004
30
0
0
VERTEX
5
3A5
8
0
6
BYLAYER
62
256
10
5.545451656
20
18.01276368
30
0
0
VERTEX
5
3A6
8
0
6
BYLAYER
62
256
10
5.53200258
20
17.9772497544
30
0
0
VERTEX
5
3A7
8
0
6
BYLAYER
62
256
10
5.519921448
20
17.9429703008
30
0
0
VERTEX
5
3A8
8
0
6
BYLAYER
62
256
10
5.509254052
20
17.910009396
30
0
0
VERTEX
5
3A9
8
0
6
BYLAYER
62
256
10
5.500046196
20
17.8784511176
30
0
0
VERTEX
5
3AA
8
0
6
BYLAYER
62
256
10
5.492343672
20
17.848379542
30
0
0
VERTEX
5
3AB
8
0
6
BYLAYER
62
256
10
5.486192288
20
17.8198787468
30
0
0
VERTEX
5
3AC
8
0
6
BYLAYER
62
256
10
5.481637836
20
17.7930328088
30
0
0
VERTEX
5
3AD
8
0
6
BYLAYER
62
256
10
5.478726116
20
17.7679258048
30
0
0
VERTEX
5
3AE
8
0
6
BYLAYER
62
256
10
5.477502932
20
17.744641812
30
0
0
VERTEX
5
3AF
8
0
6
BYLAYER
62
256
10
5.479222348
20
17.7195789868
30
0
0
VERTEX
5
3B0
8
0
6
BYLAYER
62
256
10
5.485040656
20
17.689195268
30
0
0
VERTEX
5
3B1
8
0
6
BYLAYER
62
256
10
5.494851904
20
17.65366469
30
0
0
VERTEX
5
3B2
8
0
6
BYLAYER
62
256
10
5.508550148
20
17.6131612864
30
0
0
VERTEX
5
3B3
8
0
6
BYLAYER
62
256
10
5.526029428
20
17.567859092
30
0
0
VERTEX
5
3B4
8
0
6
BYLAYER
62
256
10
5.547183804
20
17.51793214
30
0
0
VERTEX
5
3B5
8
0
6
BYLAYER
62
256
10
5.571907324
20
17.4635544652
30
0
0
VERTEX
5
3B6
8
0
6
BYLAYER
62
256
10
5.600094032
20
17.4049001012
30
0
0
VERTEX
5
3B7
8
0
6
BYLAYER
62
256
10
5.631637984
20
17.342143082
30
0
0
VERTEX
5
3B8
8
0
6
BYLAYER
62
256
10
5.666433228
20
17.2754574416
30
0
0
VERTEX
5
3B9
8
0
6
BYLAYER
62
256
10
5.704373816
20
17.2050172144
30
0
0
VERTEX
5
3BA
8
0
6
BYLAYER
62
256
10
5.745353796
20
17.130996434
30
0
0
VERTEX
5
3BB
8
0
6
BYLAYER
62
256
10
5.789267216
20
17.0535691348
30
0
0
VERTEX
5
3BC
8
0
6
BYLAYER
62
256
10
5.836008128
20
16.9729093508
30
0
0
VERTEX
5
3BD
8
0
6
BYLAYER
62
256
10
5.885470588
20
16.889191116
30
0
0
VERTEX
5
3BE
8
0
6
BYLAYER
62
256
10
5.937548636
20
16.802588464
30
0
0
VERTEX
5
3BF
8
0
6
BYLAYER
62
256
10
5.992136328
20
16.7132754296
30
0
0
VERTEX
5
3C0
8
0
6
BYLAYER
62
256
10
6.049127716
20
16.621426046
30
0
0
VERTEX
5
3C1
8
0
6
BYLAYER
62
256
10
6.108416844
20
16.527214348
30
0
0
VERTEX
5
3C2
8
0
6
BYLAYER
62
256
10
6.169897764
20
16.4308143692
30
0
0
VERTEX
5
3C3
8
0
6
BYLAYER
62
256
10
6.233464528
20
16.332400144
30
0
0
VERTEX
5
3C4
8
0
6
BYLAYER
62
256
10
6.299011188
20
16.232145706
30
0
0
VERTEX
5
3C5
8
0
6
BYLAYER
62
256
10
6.366431788
20
16.1302250892
30
0
0
VERTEX
5
3C6
8
0
6
BYLAYER
62
256
10
6.435620384
20
16.026812328
30
0
0
VERTEX
5
3C7
8
0
6
BYLAYER
62
256
10
6.506471024
20
15.9220814564
30
0
0
VERTEX
5
3C8
8
0
6
BYLAYER
62
256
10
6.578877756
20
15.8162065084
30
0
0
VERTEX
5
3C9
8
0
6
BYLAYER
62
256
10
6.652734628
20
15.7093615176
30
0
0
VERTEX
5
3CA
8
0
6
BYLAYER
62
256
10
6.7279357
20
15.6017205188
30
0
0
VERTEX
5
3CB
8
0
6
BYLAYER
62
256
10
6.804375012
20
15.4934575456
30
0
0
VERTEX
5
3CC
8
0
6
BYLAYER
62
256
10
6.881946616
20
15.384746632
30
0
0
VERTEX
5
3CD
8
0
6
BYLAYER
62
256
10
6.960544568
20
15.275761812
30
0
0
VERTEX
5
3CE
8
0
6
BYLAYER
62
256
10
7.0401859
20
15.1651021128
30
0
0
VERTEX
5
3CF
8
0
6
BYLAYER
62
256
10
7.120854076
20
15.0514231884
30
0
0
VERTEX
5
3D0
8
0
6
BYLAYER
62
256
10
7.20239138
20
14.9349842964
30
0
0
VERTEX
5
3D1
8
0
6
BYLAYER
62
256
10
7.284640092
20
14.8160446932
30
0
0
VERTEX
5
3D2
8
0
6
BYLAYER
62
256
10
7.3674425
20
14.694863636
30
0
0
VERTEX
5
3D3
8
0
6
BYLAYER
62
256
10
7.45064088
20
14.571700382
30
0
0
VERTEX
5
3D4
8
0
6
BYLAYER
62
256
10
7.534077516
20
14.4468141884
30
0
0
VERTEX
5
3D5
8
0
6
BYLAYER
62
256
10
7.617594692
20
14.3204643124
30
0
0
VERTEX
5
3D6
8
0
6
BYLAYER
62
256
10
7.701034684
20
14.1929100104
30
0
0
VERTEX
5
3D7
8
0
6
BYLAYER
62
256
10
7.784239784
20
14.0644105404
30
0
0
VERTEX
5
3D8
8
0
6
BYLAYER
62
256
10
7.867052264
20
13.9352251588
30
0
0
VERTEX
5
3D9
8
0
6
BYLAYER
62
256
10
7.949314412
20
13.8056131228
30
0
0
VERTEX
5
3DA
8
0
6
BYLAYER
62
256
10
8.030868512
20
13.6758336896
30
0
0
VERTEX
5
3DB
8
0
6
BYLAYER
62
256
10
8.111556836
20
13.546146116
30
0
0
VERTEX
5
3DC
8
0
6
BYLAYER
62
256
10
8.19122168
20
13.4168096596
30
0
0
VERTEX
5
3DD
8
0
6
BYLAYER
62
256
10
8.269705312
20
13.2880835772
30
0
0
VERTEX
5
3DE
8
0
6
BYLAYER
62
256
10
8.346850028
20
13.1602271256
30
0
0
VERTEX
5
3DF
8
0
6
BYLAYER
62
256
10
8.4224981
20
13.0334995624
30
0
0
VERTEX
5
3E0
8
0
6
BYLAYER
62
256
10
8.496491812
20
12.908160144
30
0
0
VERTEX
5
3E1
8
0
6
BYLAYER
62
256
10
8.568673448
20
12.7844681284
30
0
0
VERTEX
5
3E2
8
0
6
BYLAYER
62
256
10
8.638885288
20
12.6626827716
30
0
0
VERTEX
5
3E3
8
0
6
BYLAYER
62
256
10
8.70696962
20
12.5430633316
30
0
0
VERTEX
5
3E4
8
0
6
BYLAYER
62
256
10
8.772768716
20
12.4258690652
30
0
0
VERTEX
5
3E5
8
0
6
BYLAYER
62
256
10
8.836124868
20
12.3113592292
30
0
0
VERTEX
5
3E6
8
0
6
BYLAYER
62
256
10
8.896880352
20
12.1997930808
30
0
0
VERTEX
5
3E7
8
0
6
BYLAYER
62
256
10
8.954877452
20
12.0914298772
30
0
0
VERTEX
5
3E8
8
0
6
BYLAYER
62
256
10
9.009958452
20
11.9865288756
30
0
0
VERTEX
5
3E9
8
0
6
BYLAYER
62
256
10
9.061965632
20
11.8853493324
30
0
0
VERTEX
5
3EA
8
0
6
BYLAYER
62
256
10
9.110741272
20
11.7881505056
30
0
0
VERTEX
5
3EB
8
0
6
BYLAYER
62
256
10
9.156127656
20
11.6951916516
30
0
0
VERTEX
5
3EC
8
0
6
BYLAYER
62
256
10
9.197967068
20
11.606732028
30
0
0
VERTEX
5
3ED
8
0
6
BYLAYER
62
256
10
9.280260792
20
11.433389168
30
0
0
VERTEX
5
3EE
8
0
6
BYLAYER
62
256
10
9.361974088
20
11.2691190852
30
0
0
VERTEX
5
3EF
8
0
6
BYLAYER
62
256
10
9.443337508
20
11.1138067972
30
0
0
VERTEX
5
3F0
8
0
6
BYLAYER
62
256
10
9.524581608
20
10.9673373196
30
0
0
VERTEX
5
3F1
8
0
6
BYLAYER
62
256
10
9.605936948
20
10.82959567
30
0
0
VERTEX
5
3F2
8
0
6
BYLAYER
62
256
10
9.687634084
20
10.7004668648
30
0
0
VERTEX
5
3F3
8
0
6
BYLAYER
62
256
10
9.769903572
20
10.5798359208
30
0
0
VERTEX
5
3F4
8
0
6
BYLAYER
62
256
10
9.852975972
20
10.4675878548
30
0
0
VERTEX
5
3F5
8
0
6
BYLAYER
62
256
10
9.937081836
20
10.3636076832
30
0
0
VERTEX
5
3F6
8
0
6
BYLAYER
62
256
10
10.022451724
20
10.2677804236
30
0
0
VERTEX
5
3F7
8
0
6
BYLAYER
62
256
10
10.109316192
20
10.179991092
30
0
0
VERTEX
5
3F8
8
0
6
BYLAYER
62
256
10
10.197905792
20
10.1001247052
30
0
0
VERTEX
5
3F9
8
0
6
BYLAYER
62
256
10
10.288451088
20
10.02806628
30
0
0
VERTEX
5
3FA
8
0
6
BYLAYER
62
256
10
10.381182632
20
9.9637008336
30
0
0
VERTEX
5
3FB
8
0
6
BYLAYER
62
256
10
10.476330984
20
9.9069133824
30
0
0
VERTEX
5
3FC
8
0
6
BYLAYER
62
256
10
10.5741267
20
9.8575889428
30
0
0
VERTEX
5
3FD
8
0
6
BYLAYER
62
256
10
10.674800336
20
9.815612532
30
0
0
VERTEX
5
3FE
8
0
6
BYLAYER
62
256
10
10.778582444
20
9.7808691668
30
0
0
VERTEX
5
3FF
8
0
6
BYLAYER
62
256
10
10.885703592
20
9.753243864
30
0
0
VERTEX
5
400
8
0
6
BYLAYER
62
256
10
10.996394324
20
9.73262164
30
0
0
VERTEX
5
401
8
0
6
BYLAYER
62
256
10
11.110885204
20
9.7188875116
30
0
0
VERTEX
5
402
8
0
6
BYLAYER
62
256
10
11.229406788
20
9.7119264956
30
0
0
VERTEX
5
403
8
0
6
BYLAYER
62
256
10
11.352189636
20
9.7116236088
30
0
0
VERTEX
5
404
8
0
6
BYLAYER
62
256
10
11.479464296
20
9.717863868
30
0
0
VERTEX
5
405
8
0
6
BYLAYER
62
256
10
11.611461332
20
9.73053229
30
0
0
VERTEX
5
406
8
0
6
BYLAYER
62
256
10
11.748411296
20
9.7495138912
30
0
0
VERTEX
5
407
8
0
6
BYLAYER
62
256
10
11.890544752
20
9.7746936888
30
0
0
VERTEX
5
408
8
0
6
BYLAYER
62
256
10
12.038092248
20
9.8059566992
30
0
0
VERTEX
5
409
8
0
6
BYLAYER
62
256
10
12.191284344
20
9.8431879396
30
0
0
VERTEX
5
40A
8
0
6
BYLAYER
62
256
10
12.3503516
20
9.886272426
30
0
0
VERTEX
5
40B
8
0
6
BYLAYER
62
256
10
12.515524568
20
9.935095176
30
0
0
VERTEX
5
40C
8
0
6
BYLAYER
62
256
10
12.59885268
20
9.9603564584
30
0
0
VERTEX
5
40D
8
0
6
BYLAYER
62
256
10
12.67857488
20
9.9838620576
30
0
0
VERTEX
5
40E
8
0
6
BYLAYER
62
256
10
12.754788924
20
10.0056060308
30
0
0
VERTEX
5
40F
8
0
6
BYLAYER
62
256
10
12.827592588
20
10.025582434
30
0
0
VERTEX
5
410
8
0
6
BYLAYER
62
256
10
12.897083636
20
10.043785324
30
0
0
VERTEX
5
411
8
0
6
BYLAYER
62
256
10
12.963359832
20
10.0602087576
30
0
0
VERTEX
5
412
8
0
6
BYLAYER
62
256
10
13.026518948
20
10.0748467916
30
0
0
VERTEX
5
413
8
0
6
BYLAYER
62
256
10
13.086658752
20
10.087693482
30
0
0
VERTEX
5
414
8
0
6
BYLAYER
62
256
10
13.143877004
20
10.0987428856
30
0
0
VERTEX
5
415
8
0
6
BYLAYER
62
256
10
13.198271476
20
10.1079890592
30
0
0
VERTEX
5
416
8
0
6
BYLAYER
62
256
10
13.249939932
20
10.1154260592
30
0
0
VERTEX
5
417
8
0
6
BYLAYER
62
256
10
13.298980144
20
10.1210479424
30
0
0
VERTEX
5
418
8
0
6
BYLAYER
62
256
10
13.345489872
20
10.1248487656
30
0
0
VERTEX
5
419
8
0
6
BYLAYER
62
256
10
13.389566888
20
10.1268225848
30
0
0
VERTEX
5
41A
8
0
6
BYLAYER
62
256
10
13.43130896
20
10.1269634572
30
0
0
VERTEX
5
41B
8
0
6
BYLAYER
62
256
10
13.470813852
20
10.1252654392
30
0
0
VERTEX
5
41C
8
0
6
BYLAYER
62
256
10
13.508179332
20
10.1217225872
30
0
0
VERTEX
5
41D
8
0
6
BYLAYER
62
256
10
13.543503164
20
10.116328958
30
0
0
VERTEX
5
41E
8
0
6
BYLAYER
62
256
10
13.57688312
20
10.1090786084
30
0
0
VERTEX
5
41F
8
0
6
BYLAYER
62
256
10
13.608416968
20
10.0999655948
30
0
0
VERTEX
5
420
8
0
6
BYLAYER
62
256
10
13.638202468
20
10.0889839736
30
0
0
VERTEX
5
421
8
0
6
BYLAYER
62
256
10
13.666337392
20
10.076127802
30
0
0
VERTEX
5
422
8
0
6
BYLAYER
62
256
10
13.692919504
20
10.061391136
30
0
0
VERTEX
5
423
8
0
6
BYLAYER
62
256
10
13.718046576
20
10.0447680324
30
0
0
VERTEX
5
424
8
0
6
BYLAYER
62
256
10
13.741816368
20
10.026252548
30
0
0
VERTEX
5
425
8
0
6
BYLAYER
62
256
10
13.764326652
20
10.0058387392
30
0
0
VERTEX
5
426
8
0
6
BYLAYER
62
256
10
13.785675196
20
9.9835206628
30
0
0
VERTEX
5
427
8
0
6
BYLAYER
62
256
10
13.805959764
20
9.9592923752
30
0
0
VERTEX
5
428
8
0
6
BYLAYER
62
256
10
13.82527812
20
9.9331479332
30
0
0
VERTEX
5
429
8
0
6
BYLAYER
62
256
10
13.84372804
20
9.9050813932
30
0
0
VERTEX
5
42A
8
0
6
BYLAYER
62
256
10
13.861407284
20
9.875086812
30
0
0
VERTEX
5
42B
8
0
6
BYLAYER
62
256
10
13.874228892
20
9.852612694
30
0
0
VERTEX
5
42C
8
0
6
BYLAYER
62
256
10
13.888476288
20
9.828450384
30
0
0
VERTEX
5
42D
8
0
6
BYLAYER
62
256
10
13.90409282
20
9.8026796836
30
0
0
VERTEX
5
42E
8
0
6
BYLAYER
62
256
10
13.921021836
20
9.7753803948
30
0
0
VERTEX
5
42F
8
0
6
BYLAYER
62
256
10
13.939206688
20
9.7466323196
30
0
0
VERTEX
5
430
8
0
6
BYLAYER
62
256
10
13.958590724
20
9.71651526
30
0
0
VERTEX
5
431
8
0
6
BYLAYER
62
256
10
13.979117296
20
9.685109018
30
0
0
VERTEX
5
432
8
0
6
BYLAYER
62
256
10
14.000729748
20
9.6524933956
30
0
0
VERTEX
5
433
8
0
6
BYLAYER
62
256
10
14.023371428
20
9.6187481944
30
0
0
VERTEX
5
434
8
0
6
BYLAYER
62
256
10
14.046985692
20
9.5839532168
30
0
0
VERTEX
5
435
8
0
6
BYLAYER
62
256
10
14.071515888
20
9.5481882644
30
0
0
VERTEX
5
436
8
0
6
BYLAYER
62
256
10
14.096905356
20
9.5115331392
30
0
0
VERTEX
5
437
8
0
6
BYLAYER
62
256
10
14.123097456
20
9.4740676428
30
0
0
VERTEX
5
438
8
0
6
BYLAYER
62
256
10
14.150035532
20
9.435871578
30
0
0
VERTEX
5
439
8
0
6
BYLAYER
62
256
10
14.177662932
20
9.3970247464
30
0
0
VERTEX
5
43A
8
0
6
BYLAYER
62
256
10
14.205923008
20
9.3576069496
30
0
0
VERTEX
5
43B
8
0
6
BYLAYER
62
256
10
14.234759108
20
9.31769799
30
0
0
VERTEX
5
43C
8
0
6
BYLAYER
62
256
10
14.26411458
20
9.2773776692
30
0
0
VERTEX
5
43D
8
0
6
BYLAYER
62
256
10
14.293932776
20
9.2367257892
30
0
0
VERTEX
5
43E
8
0
6
BYLAYER
62
256
10
14.324157044
20
9.195822152
30
0
0
VERTEX
5
43F
8
0
6
BYLAYER
62
256
10
14.354730728
20
9.15474656
30
0
0
VERTEX
5
440
8
0
6
BYLAYER
62
256
10
14.385597184
20
9.1135788144
30
0
0
VERTEX
5
441
8
0
6
BYLAYER
62
256
10
14.416699756
20
9.0723987172
30
0
0
VERTEX
5
442
8
0
6
BYLAYER
62
256
10
14.4479818
20
9.0312860712
30
0
0
VERTEX
5
443
8
0
6
BYLAYER
62
256
10
14.479386656
20
8.9903206772
30
0
0
VERTEX
5
444
8
0
6
BYLAYER
62
256
10
14.51085768
20
8.949582338
30
0
0
VERTEX
5
445
8
0
6
BYLAYER
62
256
10
14.54233822
20
8.9091508552
30
0
0
VERTEX
5
446
8
0
6
BYLAYER
62
256
10
14.57377162
20
8.8691060312
30
0
0
VERTEX
5
447
8
0
6
BYLAYER
62
256
10
14.605101236
20
8.8295276672
30
0
0
VERTEX
5
448
8
0
6
BYLAYER
62
256
10
14.636270412
20
8.7904955656
30
0
0
VERTEX
5
449
8
0
6
BYLAYER
62
256
10
14.6672225
20
8.752089528
30
0
0
VERTEX
5
44A
8
0
6
BYLAYER
62
256
10
15.250152284
20
8.04057192
30
0
0
VERTEX
5
44B
8
0
6
BYLAYER
62
256
10
17.127530432
20
9.069272568
30
0
0
VERTEX
5
44C
8
0
6
BYLAYER
62
256
10
19.013479676
20
10.106544312
30
0
0
VERTEX
5
44D
8
0
6
BYLAYER
62
256
10
23.274012284
20
8.674937028
30
0
0
VERTEX
5
44E
8
0
6
BYLAYER
62
256
10
23.527293332
20
8.5906748012
30
0
0
VERTEX
5
44F
8
0
6
BYLAYER
62
256
10
23.779476516
20
8.5080864148
30
0
0
VERTEX
5
450
8
0
6
BYLAYER
62
256
10
24.03035898
20
8.4272212928
30
0
0
VERTEX
5
451
8
0
6
BYLAYER
62
256
10
24.279737876
20
8.34812886
30
0
0
VERTEX
5
452
8
0
6
BYLAYER
62
256
10
24.527410344
20
8.2708585416
30
0
0
VERTEX
5
453
8
0
6
BYLAYER
62
256
10
24.773173532
20
8.1954597616
30
0
0
VERTEX
5
454
8
0
6
BYLAYER
62
256
10
25.016824584
20
8.1219819452
30
0
0
VERTEX
5
455
8
0
6
BYLAYER
62
256
10
25.258160648
20
8.0504745172
30
0
0
VERTEX
5
456
8
0
6
BYLAYER
62
256
10
25.496978868
20
7.9809869016
30
0
0
VERTEX
5
457
8
0
6
BYLAYER
62
256
10
25.733076388
20
7.9135685236
30
0
0
VERTEX
5
458
8
0
6
BYLAYER
62
256
10
25.966250356
20
7.8482688076
30
0
0
VERTEX
5
459
8
0
6
BYLAYER
62
256
10
26.196297916
20
7.7851371788
30
0
0
VERTEX
5
45A
8
0
6
BYLAYER
62
256
10
26.423016216
20
7.7242230616
30
0
0
VERTEX
5
45B
8
0
6
BYLAYER
62
256
10
26.6462024
20
7.6655758804
30
0
0
VERTEX
5
45C
8
0
6
BYLAYER
62
256
10
26.865653616
20
7.60924506
30
0
0
VERTEX
5
45D
8
0
6
BYLAYER
62
256
10
27.081167008
20
7.5552800256
30
0
0
VERTEX
5
45E
8
0
6
BYLAYER
62
256
10
27.292539716
20
7.5037302012
30
0
0
VERTEX
5
45F
8
0
6
BYLAYER
62
256
10
27.499568896
20
7.454645012
30
0
0
VERTEX
5
460
8
0
6
BYLAYER
62
256
10
27.702051684
20
7.4080738824
30
0
0
VERTEX
5
461
8
0
6
BYLAYER
62
256
10
27.899785232
20
7.3640662368
30
0
0
VERTEX
5
462
8
0
6
BYLAYER
62
256
10
28.092566684
20
7.3226715008
30
0
0
VERTEX
5
463
8
0
6
BYLAYER
62
256
10
28.280193188
20
7.2839390984
30
0
0
VERTEX
5
464
8
0
6
BYLAYER
62
256
10
28.46246188
20
7.2479184544
30
0
0
VERTEX
5
465
8
0
6
BYLAYER
62
256
10
28.639169916
20
7.2146589932
30
0
0
VERTEX
5
466
8
0
6
BYLAYER
62
256
10
28.81011444
20
7.1842101404
30
0
0
VERTEX
5
467
8
0
6
BYLAYER
62
256
10
28.975092592
20
7.1566213196
30
0
0
VERTEX
5
468
8
0
6
BYLAYER
62
256
10
29.133901524
20
7.131941956
30
0
0
VERTEX
5
469
8
0
6
BYLAYER
62
256
10
29.286338376
20
7.1102214744
30
0
0
VERTEX
5
46A
8
0
6
BYLAYER
62
256
10
29.4322003
20
7.0915092996
30
0
0
VERTEX
5
46B
8
0
6
BYLAYER
62
256
10
29.571284436
20
7.075854856
30
0
0
VERTEX
5
46C
8
0
6
BYLAYER
62
256
10
29.703387932
20
7.063307568
30
0
0
VERTEX
5
46D
8
0
6
BYLAYER
62
256
10
29.89686788
20
7.0470136048
30
0
0
VERTEX
5
46E
8
0
6
BYLAYER
62
256
10
30.079448596
20
7.0322543228
30
0
0
VERTEX
5
46F
8
0
6
BYLAYER
62
256
10
30.2518501
20
7.0191873956
30
0
0
VERTEX
5
470
8
0
6
BYLAYER
62
256
10
30.414792416
20
7.0079704964
30
0
0
VERTEX
5
471
8
0
6
BYLAYER
62
256
10
30.568995564
20
6.9987612996
30
0
0
VERTEX
5
472
8
0
6
BYLAYER
62
256
10
30.715179568
20
6.9917174784
30
0
0
VERTEX
5
473
8
0
6
BYLAYER
62
256
10
30.854064452
20
6.9869967068
30
0
0
VERTEX
5
474
8
0
6
BYLAYER
62
256
10
30.986370232
20
6.984756658
30
0
0
VERTEX
5
475
8
0
6
BYLAYER
62
256
10
31.11281694
20
6.9851550064
30
0
0
VERTEX
5
476
8
0
6
BYLAYER
62
256
10
31.234124588
20
6.9883494248
30
0
0
VERTEX
5
477
8
0
6
BYLAYER
62
256
10
31.351013204
20
6.9944975872
30
0
0
VERTEX
5
478
8
0
6
BYLAYER
62
256
10
31.464202812
20
7.0037571672
30
0
0
VERTEX
5
479
8
0
6
BYLAYER
62
256
10
31.574413432
20
7.0162858388
30
0
0
VERTEX
5
47A
8
0
6
BYLAYER
62
256
10
31.682365084
20
7.0322412756
30
0
0
VERTEX
5
47B
8
0
6
BYLAYER
62
256
10
31.788777792
20
7.0517811508
30
0
0
VERTEX
5
47C
8
0
6
BYLAYER
62
256
10
31.894371576
20
7.0750631384
30
0
0
VERTEX
5
47D
8
0
6
BYLAYER
62
256
10
31.999866464
20
7.102244912
30
0
0
VERTEX
5
47E
8
0
6
BYLAYER
62
256
10
32.105982476
20
7.1334841456
30
0
0
VERTEX
5
47F
8
0
6
BYLAYER
62
256
10
32.213439632
20
7.1689385124
30
0
0
VERTEX
5
480
8
0
6
BYLAYER
62
256
10
32.322957952
20
7.208765686
30
0
0
VERTEX
5
481
8
0
6
BYLAYER
62
256
10
32.435257464
20
7.2531233404
30
0
0
VERTEX
5
482
8
0
6
BYLAYER
62
256
10
32.551058192
20
7.3021691492
30
0
0
VERTEX
5
483
8
0
6
BYLAYER
62
256
10
32.671080148
20
7.356060786
30
0
0
VERTEX
5
484
8
0
6
BYLAYER
62
256
10
32.796043364
20
7.4149559244
30
0
0
VERTEX
5
485
8
0
6
BYLAYER
62
256
10
32.92666786
20
7.4790122384
30
0
0
VERTEX
5
486
8
0
6
BYLAYER
62
256
10
33.063673656
20
7.5483874012
30
0
0
VERTEX
5
487
8
0
6
BYLAYER
62
256
10
33.207780776
20
7.6232390864
30
0
0
VERTEX
5
488
8
0
6
BYLAYER
62
256
10
33.35970924
20
7.7037249684
30
0
0
VERTEX
5
489
8
0
6
BYLAYER
62
256
10
33.520179072
20
7.79000272
30
0
0
VERTEX
5
48A
8
0
6
BYLAYER
62
256
10
33.689910296
20
7.8822300152
30
0
0
VERTEX
5
48B
8
0
6
BYLAYER
62
256
10
33.869622932
20
7.980564528
30
0
0
VERTEX
5
48C
8
0
6
BYLAYER
62
256
10
33.976816884
20
8.039229354
30
0
0
VERTEX
5
48D
8
0
6
BYLAYER
62
256
10
34.084730292
20
8.098031586
30
0
0
VERTEX
5
48E
8
0
6
BYLAYER
62
256
10
34.193167364
20
8.1568709128
30
0
0
VERTEX
5
48F
8
0
6
BYLAYER
62
256
10
34.301932312
20
8.215647024
30
0
0
VERTEX
5
490
8
0
6
BYLAYER
62
256
10
34.410829348
20
8.2742596096
30
0
0
VERTEX
5
491
8
0
6
BYLAYER
62
256
10
34.519662684
20
8.3326083584
30
0
0
VERTEX
5
492
8
0
6
BYLAYER
62
256
10
34.628236536
20
8.39059296
30
0
0
VERTEX
5
493
8
0
6
BYLAYER
62
256
10
34.736355108
20
8.448113104
30
0
0
VERTEX
5
494
8
0
6
BYLAYER
62
256
10
34.843822616
20
8.5050684796
30
0
0
VERTEX
5
495
8
0
6
BYLAYER
62
256
10
34.950443272
20
8.5613587768
30
0
0
VERTEX
5
496
8
0
6
BYLAYER
62
256
10
35.056021284
20
8.616883684
30
0
0
VERTEX
5
497
8
0
6
BYLAYER
62
256
10
35.160360868
20
8.671542892
30
0
0
VERTEX
5
498
8
0
6
BYLAYER
62
256
10
35.263266236
20
8.7252360888
30
0
0
VERTEX
5
499
8
0
6
BYLAYER
62
256
10
35.364541596
20
8.7778629652
30
0
0
VERTEX
5
49A
8
0
6
BYLAYER
62
256
10
35.463991164
20
8.8293232096
30
0
0
VERTEX
5
49B
8
0
6
BYLAYER
62
256
10
35.561419144
20
8.879516512
30
0
0
VERTEX
5
49C
8
0
6
BYLAYER
62
256
10
35.65662976
20
8.9283425616
30
0
0
VERTEX
5
49D
8
0
6
BYLAYER
62
256
10
35.749427212
20
8.975701048
30
0
0
VERTEX
5
49E
8
0
6
BYLAYER
62
256
10
35.839615716
20
9.0214916608
30
0
0
VERTEX
5
49F
8
0
6
BYLAYER
62
256
10
35.926999484
20
9.0656140892
30
0
0
VERTEX
5
4A0
8
0
6
BYLAYER
62
256
10
36.011382732
20
9.1079680224
30
0
0
VERTEX
5
4A1
8
0
6
BYLAYER
62
256
10
36.092569664
20
9.14845315
30
0
0
VERTEX
5
4A2
8
0
6
BYLAYER
62
256
10
36.170364496
20
9.186969162
30
0
0
VERTEX
5
4A3
8
0
6
BYLAYER
62
256
10
36.24457144
20
9.2234157472
30
0
0
VERTEX
5
4A4
8
0
6
BYLAYER
62
256
10
36.314994704
20
9.2576925952
30
0
0
VERTEX
5
4A5
8
0
6
BYLAYER
62
256
10
36.381438504
20
9.2896993956
30
0
0
VERTEX
5
4A6
8
0
6
BYLAYER
62
256
10
36.443707052
20
9.3193358376
30
0
0
VERTEX
5
4A7
8
0
6
BYLAYER
62
256
10
36.501604556
20
9.3465016108
30
0
0
VERTEX
5
4A8
8
0
6
BYLAYER
62
256
10
36.554935228
20
9.3710964048
30
0
0
VERTEX
5
4A9
8
0
6
BYLAYER
62
256
10
36.603503284
20
9.3930199084
30
0
0
VERTEX
5
4AA
8
0
6
BYLAYER
62
256
10
36.647112932
20
9.412171812
30
0
0
VERTEX
5
4AB
8
0
6
BYLAYER
62
256
10
36.726526064
20
9.4465021568
30
0
0
VERTEX
5
4AC
8
0
6
BYLAYER
62
256
10
36.801920608
20
9.4792196092
30
0
0
VERTEX
5
4AD
8
0
6
BYLAYER
62
256
10
36.873900744
20
9.5106528464
30
0
0
VERTEX
5
4AE
8
0
6
BYLAYER
62
256
10
36.943070664
20
9.5411305468
30
0
0
VERTEX
5
4AF
8
0
6
BYLAYER
62
256
10
37.010034556
20
9.5709813884
30
0
0
VERTEX
5
4B0
8
0
6
BYLAYER
62
256
10
37.075396604
20
9.6005340488
30
0
0
VERTEX
5
4B1
8
0
6
BYLAYER
62
256
10
37.139760996
20
9.6301172056
30
0
0
VERTEX
5
4B2
8
0
6
BYLAYER
62
256
10
37.203731924
20
9.6600595372
30
0
0
VERTEX
5
4B3
8
0
6
BYLAYER
62
256
10
37.267913568
20
9.6906897208
30
0
0
VERTEX
5
4B4
8
0
6
BYLAYER
62
256
10
37.332910124
20
9.7223364352
30
0
0
VERTEX
5
4B5
8
0
6
BYLAYER
62
256
10
37.399325772
20
9.7553283576
30
0
0
VERTEX
5
4B6
8
0
6
BYLAYER
62
256
10
37.467764704
20
9.7899941656
30
0
0
VERTEX
5
4B7
8
0
6
BYLAYER
62
256
10
37.538831108
20
9.826662538
30
0
0
VERTEX
5
4B8
8
0
6
BYLAYER
62
256
10
37.613129164
20
9.8656621516
30
0
0
VERTEX
5
4B9
8
0
6
BYLAYER
62
256
10
37.691263068
20
9.9073216852
30
0
0
VERTEX
5
4BA
8
0
6
BYLAYER
62
256
10
37.773837008
20
9.951969816
30
0
0
VERTEX
5
4BB
8
0
6
BYLAYER
62
256
10
37.86145516
20
9.999935222
30
0
0
VERTEX
5
4BC
8
0
6
BYLAYER
62
256
10
37.954721724
20
10.0515465816
30
0
0
VERTEX
5
4BD
8
0
6
BYLAYER
62
256
10
38.054240884
20
10.107132572
30
0
0
VERTEX
5
4BE
8
0
6
BYLAYER
62
256
10
38.160616824
20
10.1670218712
30
0
0
VERTEX
5
4BF
8
0
6
BYLAYER
62
256
10
38.274453732
20
10.2315431572
30
0
0
VERTEX
5
4C0
8
0
6
BYLAYER
62
256
10
38.3963558
20
10.301025108
30
0
0
VERTEX
5
4C1
8
0
6
BYLAYER
62
256
10
38.526927212
20
10.3757964012
30
0
0
VERTEX
5
4C2
8
0
6
BYLAYER
62
256
10
38.666772152
20
10.4561857148
30
0
0
VERTEX
5
4C3
8
0
6
BYLAYER
62
256
10
38.816494816
20
10.5425217264
30
0
0
VERTEX
5
4C4
8
0
6
BYLAYER
62
256
10
38.976699384
20
10.6351331144
30
0
0
VERTEX
5
4C5
8
0
6
BYLAYER
62
256
10
39.147990048
20
10.734348556
30
0
0
VERTEX
5
4C6
8
0
6
BYLAYER
62
256
10
39.330970992
20
10.8404967296
30
0
0
VERTEX
5
4C7
8
0
6
BYLAYER
62
256
10
39.526246408
20
10.9539063128
30
0
0
VERTEX
5
4C8
8
0
6
BYLAYER
62
256
10
39.734420476
20
11.0749059836
30
0
0
VERTEX
5
4C9
8
0
6
BYLAYER
62
256
10
39.956097392
20
11.20382442
30
0
0
VERTEX
5
4CA
8
0
6
BYLAYER
62
256
10
40.041982064
20
11.253546654
30
0
0
VERTEX
5
4CB
8
0
6
BYLAYER
62
256
10
40.127569872
20
11.3026350316
30
0
0
VERTEX
5
4CC
8
0
6
BYLAYER
62
256
10
40.212724504
20
11.351021996
30
0
0
VERTEX
5
4CD
8
0
6
BYLAYER
62
256
10
40.297309656
20
11.3986399888
30
0
0
VERTEX
5
4CE
8
0
6
BYLAYER
62
256
10
40.381189008
20
11.4454214528
30
0
0
VERTEX
5
4CF
8
0
6
BYLAYER
62
256
10
40.46422626
20
11.4912988304
30
0
0
VERTEX
5
4D0
8
0
6
BYLAYER
62
256
10
40.546285092
20
11.5362045644
30
0
0
VERTEX
5
4D1
8
0
6
BYLAYER
62
256
10
40.627229196
20
11.5800710972
30
0
0
VERTEX
5
4D2
8
0
6
BYLAYER
62
256
10
40.706922264
20
11.6228308708
30
0
0
VERTEX
5
4D3
8
0
6
BYLAYER
62
256
10
40.785227984
20
11.6644163284
30
0
0
VERTEX
5
4D4
8
0
6
BYLAYER
62
256
10
40.862010048
20
11.7047599124
30
0
0
VERTEX
5
4D5
8
0
6
BYLAYER
62
256
10
40.93713214
20
11.7437940648
30
0
0
VERTEX
5
4D6
8
0
6
BYLAYER
62
256
10
41.010457952
20
11.7814512284
30
0
0
VERTEX
5
4D7
8
0
6
BYLAYER
62
256
10
41.081851176
20
11.817663846
30
0
0
VERTEX
5
4D8
8
0
6
BYLAYER
62
256
10
41.1511755
20
11.8523643596
30
0
0
VERTEX
5
4D9
8
0
6
BYLAYER
62
256
10
41.218294612
20
11.8854852116
30
0
0
VERTEX
5
4DA
8
0
6
BYLAYER
62
256
10
41.2830722
20
11.9169588448
30
0
0
VERTEX
5
4DB
8
0
6
BYLAYER
62
256
10
41.34537196
20
11.946717702
30
0
0
VERTEX
5
4DC
8
0
6
BYLAYER
62
256
10
41.405057576
20
11.9746942248
30
0
0
VERTEX
5
4DD
8
0
6
BYLAYER
62
256
10
41.461992736
20
12.0008208568
30
0
0
VERTEX
5
4DE
8
0
6
BYLAYER
62
256
10
41.516041136
20
12.0250300396
30
0
0
VERTEX
5
4DF
8
0
6
BYLAYER
62
256
10
41.56706646
20
12.047254216
30
0
0
VERTEX
5
4E0
8
0
6
BYLAYER
62
256
10
41.614932396
20
12.0674258284
30
0
0
VERTEX
5
4E1
8
0
6
BYLAYER
62
256
10
41.65950264
20
12.0854773196
30
0
0
VERTEX
5
4E2
8
0
6
BYLAYER
62
256
10
41.700640876
20
12.101341132
30
0
0
VERTEX
5
4E3
8
0
6
BYLAYER
62
256
10
41.7382108
20
12.114949708
30
0
0
VERTEX
5
4E4
8
0
6
BYLAYER
62
256
10
41.772076092
20
12.1262354896
30
0
0
VERTEX
5
4E5
8
0
6
BYLAYER
62
256
10
41.802100448
20
12.1351309204
30
0
0
VERTEX
5
4E6
8
0
6
BYLAYER
62
256
10
41.828147556
20
12.1415684416
30
0
0
VERTEX
5
4E7
8
0
6
BYLAYER
62
256
10
41.850081104
20
12.1454804968
30
0
0
VERTEX
5
4E8
8
0
6
BYLAYER
62
256
10
41.867764784
20
12.146799528
30
0
0
VERTEX
5
4E9
8
0
6
BYLAYER
62
256
10
41.885751772
20
12.14851915
30
0
0
VERTEX
5
4EA
8
0
6
BYLAYER
62
256
10
41.908586908
20
12.1536200048
30
0
0
VERTEX
5
4EB
8
0
6
BYLAYER
62
256
10
41.936121404
20
12.1620150752
30
0
0
VERTEX
5
4EC
8
0
6
BYLAYER
62
256
10
41.968206448
20
12.1736173444
30
0
0
VERTEX
5
4ED
8
0
6
BYLAYER
62
256
10
42.00469324
20
12.1883397952
30
0
0
VERTEX
5
4EE
8
0
6
BYLAYER
62
256
10
42.04543298
20
12.2060954108
30
0
0
VERTEX
5
4EF
8
0
6
BYLAYER
62
256
10
42.090276868
20
12.2267971736
30
0
0
VERTEX
5
4F0
8
0
6
BYLAYER
62
256
10
42.139076096
20
12.2503580676
30
0
0
VERTEX
5
4F1
8
0
6
BYLAYER
62
256
10
42.191681872
20
12.2766910748
30
0
0
VERTEX
5
4F2
8
0
6
BYLAYER
62
256
10
42.247945388
20
12.3057091784
30
0
0
VERTEX
5
4F3
8
0
6
BYLAYER
62
256
10
42.30771784
20
12.337325362
30
0
0
VERTEX
5
4F4
8
0
6
BYLAYER
62
256
10
42.370850432
20
12.371452608
30
0
0
VERTEX
5
4F5
8
0
6
BYLAYER
62
256
10
42.43719436
20
12.4080038992
30
0
0
VERTEX
5
4F6
8
0
6
BYLAYER
62
256
10
42.506600824
20
12.4468922192
30
0
0
VERTEX
5
4F7
8
0
6
BYLAYER
62
256
10
42.57892102
20
12.4880305508
30
0
0
VERTEX
5
4F8
8
0
6
BYLAYER
62
256
10
42.654006148
20
12.5313318768
30
0
0
VERTEX
5
4F9
8
0
6
BYLAYER
62
256
10
42.731707404
20
12.57670918
30
0
0
VERTEX
5
4FA
8
0
6
BYLAYER
62
256
10
42.811875988
20
12.624075444
30
0
0
VERTEX
5
4FB
8
0
6
BYLAYER
62
256
10
42.8943631
20
12.6733436508
30
0
0
VERTEX
5
4FC
8
0
6
BYLAYER
62
256
10
42.979019932
20
12.7244267844
30
0
0
VERTEX
5
4FD
8
0
6
BYLAYER
62
256
10
43.065697692
20
12.7772378276
30
0
0
VERTEX
5
4FE
8
0
6
BYLAYER
62
256
10
43.154247572
20
12.8316897628
30
0
0
VERTEX
5
4FF
8
0
6
BYLAYER
62
256
10
43.244520772
20
12.8876955732
30
0
0
VERTEX
5
500
8
0
6
BYLAYER
62
256
10
43.336368488
20
12.9451682424
30
0
0
VERTEX
5
501
8
0
6
BYLAYER
62
256
10
43.42964192
20
13.0040207524
30
0
0
VERTEX
5
502
8
0
6
BYLAYER
62
256
10
43.524192268
20
13.0641660872
30
0
0
VERTEX
5
503
8
0
6
BYLAYER
62
256
10
43.619870732
20
13.1255172288
30
0
0
VERTEX
5
504
8
0
6
BYLAYER
62
256
10
43.716528504
20
13.1879871608
30
0
0
VERTEX
5
505
8
0
6
BYLAYER
62
256
10
43.814016788
20
13.251488866
30
0
0
VERTEX
5
506
8
0
6
BYLAYER
62
256
10
43.91218678
20
13.3159353276
30
0
0
VERTEX
5
507
8
0
6
BYLAYER
62
256
10
44.010889676
20
13.381239528
30
0
0
VERTEX
5
508
8
0
6
BYLAYER
62
256
10
44.109777132
20
13.4465616264
30
0
0
VERTEX
5
509
8
0
6
BYLAYER
62
256
10
44.208493724
20
13.5110617732
30
0
0
VERTEX
5
50A
8
0
6
BYLAYER
62
256
10
44.306878624
20
13.5746529404
30
0
0
VERTEX
5
50B
8
0
6
BYLAYER
62
256
10
44.404771004
20
13.6372480992
30
0
0
VERTEX
5
50C
8
0
6
BYLAYER
62
256
10
44.50201004
20
13.6987602216
30
0
0
VERTEX
5
50D
8
0
6
BYLAYER
62
256
10
44.5984349
20
13.7591022792
30
0
0
VERTEX
5
50E
8
0
6
BYLAYER
62
256
10
44.693884756
20
13.8181872432
30
0
0
VERTEX
5
50F
8
0
6
BYLAYER
62
256
10
44.788198788
20
13.875928086
30
0
0
VERTEX
5
510
8
0
6
BYLAYER
62
256
10
44.881216164
20
13.9322377788
30
0
0
VERTEX
5
511
8
0
6
BYLAYER
62
256
10
44.97277606
20
13.9870292928
30
0
0
VERTEX
5
512
8
0
6
BYLAYER
62
256
10
45.06271764
20
14.0402156004
30
0
0
VERTEX
5
513
8
0
6
BYLAYER
62
256
10
45.150880088
20
14.0917096728
30
0
0
VERTEX
5
514
8
0
6
BYLAYER
62
256
10
45.237102568
20
14.1414244816
30
0
0
VERTEX
5
515
8
0
6
BYLAYER
62
256
10
45.32122426
20
14.1892729984
30
0
0
VERTEX
5
516
8
0
6
BYLAYER
62
256
10
45.403084332
20
14.2351681952
30
0
0
VERTEX
5
517
8
0
6
BYLAYER
62
256
10
45.48252196
20
14.2790230432
30
0
0
VERTEX
5
518
8
0
6
BYLAYER
62
256
10
45.559376312
20
14.3207505144
30
0
0
VERTEX
5
519
8
0
6
BYLAYER
62
256
10
45.633486564
20
14.36026358
30
0
0
VERTEX
5
51A
8
0
6
BYLAYER
62
256
10
45.704691888
20
14.397475212
30
0
0
VERTEX
5
51B
8
0
6
BYLAYER
62
256
10
45.77283146
20
14.432298382
30
0
0
VERTEX
5
51C
8
0
6
BYLAYER
62
256
10
45.837744444
20
14.4646460612
30
0
0
VERTEX
5
51D
8
0
6
BYLAYER
62
256
10
45.899270024
20
14.4944312216
30
0
0
VERTEX
5
51E
8
0
6
BYLAYER
62
256
10
45.957247368
20
14.5215668348
30
0
0
VERTEX
5
51F
8
0
6
BYLAYER
62
256
10
46.011515644
20
14.5459658728
30
0
0
VERTEX
5
520
8
0
6
BYLAYER
62
256
10
46.061914032
20
14.5675413064
30
0
0
VERTEX
5
521
8
0
6
BYLAYER
62
256
10
46.1082817
20
14.5862061076
30
0
0
VERTEX
5
522
8
0
6
BYLAYER
62
256
10
46.150457824
20
14.6018732484
30
0
0
VERTEX
5
523
8
0
6
BYLAYER
62
256
10
46.188281576
20
14.6144556996
30
0
0
VERTEX
5
524
8
0
6
BYLAYER
62
256
10
46.221592128
20
14.623866434
30
0
0
VERTEX
5
525
8
0
6
BYLAYER
62
256
10
46.250228652
20
14.630018422
30
0
0
VERTEX
5
526
8
0
6
BYLAYER
62
256
10
46.274030324
20
14.632824636
30
0
0
VERTEX
5
527
8
0
6
BYLAYER
62
256
10
46.299087208
20
14.6366344328
30
0
0
VERTEX
5
528
8
0
6
BYLAYER
62
256
10
46.331447732
20
14.6457585572
30
0
0
VERTEX
5
529
8
0
6
BYLAYER
62
256
10
46.370889176
20
14.6600577072
30
0
0
VERTEX
5
52A
8
0
6
BYLAYER
62
256
10
46.417188824
20
14.6793925808
30
0
0
VERTEX
5
52B
8
0
6
BYLAYER
62
256
10
46.470123944
20
14.7036238756
30
0
0
VERTEX
5
52C
8
0
6
BYLAYER
62
256
10
46.529471824
20
14.7326122896
30
0
0
VERTEX
5
52D
8
0
6
BYLAYER
62
256
10
46.595009736
20
14.76621852
30
0
0
VERTEX
5
52E
8
0
6
BYLAYER
62
256
10
46.666514964
20
14.8043032652
30
0
0
VERTEX
5
52F
8
0
6
BYLAYER
62
256
10
46.743764784
20
14.8467272228
30
0
0
VERTEX
5
530
8
0
6
BYLAYER
62
256
10
46.826536476
20
14.8933510904
30
0
0
VERTEX
5
531
8
0
6
BYLAYER
62
256
10
46.91460732
20
14.944035566
30
0
0
VERTEX
5
532
8
0
6
BYLAYER
62
256
10
47.007754588
20
14.9986413472
30
0
0
VERTEX
5
533
8
0
6
BYLAYER
62
256
10
47.105755568
20
15.0570291324
30
0
0
VERTEX
5
534
8
0
6
BYLAYER
62
256
10
47.208387532
20
15.1190596188
30
0
0
VERTEX
5
535
8
0
6
BYLAYER
62
256
10
47.31542776
20
15.184593504
30
0
0
VERTEX
5
536
8
0
6
BYLAYER
62
256
10
47.426653532
20
15.2534914864
30
0
0
VERTEX
5
537
8
0
6
BYLAYER
62
256
10
47.541842128
20
15.3256142636
30
0
0
VERTEX
5
538
8
0
6
BYLAYER
62
256
10
47.660770824
20
15.4008225332
30
0
0
VERTEX
5
539
8
0
6
BYLAYER
62
256
10
47.7832169
20
15.4789769928
30
0
0
VERTEX
5
53A
8
0
6
BYLAYER
62
256
10
47.908957636
20
15.5599383408
30
0
0
VERTEX
5
53B
8
0
6
BYLAYER
62
256
10
48.037770308
20
15.6435672748
30
0
0
VERTEX
5
53C
8
0
6
BYLAYER
62
256
10
48.169432196
20
15.7297244924
30
0
0
VERTEX
5
53D
8
0
6
BYLAYER
62
256
10
48.303720576
20
15.8182706916
30
0
0
VERTEX
5
53E
8
0
6
BYLAYER
62
256
10
48.440412732
20
15.9090665696
30
0
0
VERTEX
5
53F
8
0
6
BYLAYER
62
256
10
48.57928594
20
16.0019728252
30
0
0
VERTEX
5
540
8
0
6
BYLAYER
62
256
10
48.72011748
20
16.0968501552
30
0
0
VERTEX
5
541
8
0
6
BYLAYER
62
256
10
48.862684628
20
16.193559258
30
0
0
VERTEX
5
542
8
0
6
BYLAYER
62
256
10
49.006764664
20
16.2919608316
30
0
0
VERTEX
5
543
8
0
6
BYLAYER
62
256
10
49.152134868
20
16.3919155732
30
0
0
VERTEX
5
544
8
0
6
BYLAYER
62
256
10
49.29857252
20
16.4932841808
30
0
0
VERTEX
5
545
8
0
6
BYLAYER
62
256
10
49.445854892
20
16.595927352
30
0
0
VERTEX
5
546
8
0
6
BYLAYER
62
256
10
49.68324614
20
16.7624129644
30
0
0
VERTEX
5
547
8
0
6
BYLAYER
62
256
10
49.908020008
20
16.9211974768
30
0
0
VERTEX
5
548
8
0
6
BYLAYER
62
256
10
50.120815288
20
17.072957316
30
0
0
VERTEX
5
549
8
0
6
BYLAYER
62
256
10
50.322270764
20
17.2183689072
30
0
0
VERTEX
5
54A
8
0
6
BYLAYER
62
256
10
50.513025232
20
17.3581086768
30
0
0
VERTEX
5
54B
8
0
6
BYLAYER
62
256
10
50.693717472
20
17.49285305
30
0
0
VERTEX
5
54C
8
0
6
BYLAYER
62
256
10
50.86498628
20
17.6232784528
30
0
0
VERTEX
5
54D
8
0
6
BYLAYER
62
256
10
51.02747044
20
17.7500613116
30
0
0
VERTEX
5
54E
8
0
6
BYLAYER
62
256
10
51.18180874
20
17.873878052
30
0
0
VERTEX
5
54F
8
0
6
BYLAYER
62
256
10
51.328639972
20
17.9954050996
30
0
0
VERTEX
5
550
8
0
6
BYLAYER
62
256
10
51.468602924
20
18.1153188804
30
0
0
VERTEX
5
551
8
0
6
BYLAYER
62
256
10
51.602336384
20
18.2342958204
30
0
0
VERTEX
5
552
8
0
6
BYLAYER
62
256
10
51.730479136
20
18.3530123456
30
0
0
VERTEX
5
553
8
0
6
BYLAYER
62
256
10
51.853669976
20
18.4721448812
30
0
0
VERTEX
5
554
8
0
6
BYLAYER
62
256
10
51.972547684
20
18.592369854
30
0
0
VERTEX
5
555
8
0
6
BYLAYER
62
256
10
52.087751056
20
18.7143636888
30
0
0
VERTEX
5
556
8
0
6
BYLAYER
62
256
10
52.19991888
20
18.8388028124
30
0
0
VERTEX
5
557
8
0
6
BYLAYER
62
256
10
52.30968994
20
18.9663636504
30
0
0
VERTEX
5
558
8
0
6
BYLAYER
62
256
10
52.417703028
20
19.0977226284
30
0
0
VERTEX
5
559
8
0
6
BYLAYER
62
256
10
52.524596928
20
19.2335561724
30
0
0
VERTEX
5
55A
8
0
6
BYLAYER
62
256
10
52.631010436
20
19.3745407084
30
0
0
VERTEX
5
55B
8
0
6
BYLAYER
62
256
10
52.737582332
20
19.521352662
30
0
0
VERTEX
5
55C
8
0
6
BYLAYER
62
256
10
52.844951412
20
19.6746684596
30
0
0
VERTEX
5
55D
8
0
6
BYLAYER
62
256
10
52.95375646
20
19.8351645264
30
0
0
VERTEX
5
55E
8
0
6
BYLAYER
62
256
10
53.064636268
20
20.0035172884
30
0
0
VERTEX
5
55F
8
0
6
BYLAYER
62
256
10
53.17822962
20
20.1804031716
30
0
0
VERTEX
5
560
8
0
6
BYLAYER
62
256
10
53.295175308
20
20.3664986024
30
0
0
VERTEX
5
561
8
0
6
BYLAYER
62
256
10
53.41611212
20
20.5624800056
30
0
0
VERTEX
5
562
8
0
6
BYLAYER
62
256
10
53.54167884
20
20.7690238076
30
0
0
VERTEX
5
563
8
0
6
BYLAYER
62
256
10
53.672514264
20
20.9868064348
30
0
0
VERTEX
5
564
8
0
6
BYLAYER
62
256
10
53.809257176
20
21.216504312
30
0
0
VERTEX
5
565
8
0
6
BYLAYER
62
256
10
53.893633076
20
21.3595858216
30
0
0
VERTEX
5
566
8
0
6
BYLAYER
62
256
10
53.977316652
20
21.503125008
30
0
0
VERTEX
5
567
8
0
6
BYLAYER
62
256
10
54.060184764
20
21.6468715824
30
0
0
VERTEX
5
568
8
0
6
BYLAYER
62
256
10
54.142114276
20
21.790575256
30
0
0
VERTEX
5
569
8
0
6
BYLAYER
62
256
10
54.222982048
20
21.93398574
30
0
0
VERTEX
5
56A
8
0
6
BYLAYER
62
256
10
54.302664948
20
22.0768527452
30
0
0
VERTEX
5
56B
8
0
6
BYLAYER
62
256
10
54.381039832
20
22.2189259828
30
0
0
VERTEX
5
56C
8
0
6
BYLAYER
62
256
10
54.457983568
20
22.3599551636
30
0
0
VERTEX
5
56D
8
0
6
BYLAYER
62
256
10
54.533373012
20
22.4996899988
30
0
0
VERTEX
5
56E
8
0
6
BYLAYER
62
256
10
54.607085036
20
22.6378801996
30
0
0
VERTEX
5
56F
8
0
6
BYLAYER
62
256
10
54.678996492
20
22.7742754772
30
0
0
VERTEX
5
570
8
0
6
BYLAYER
62
256
10
54.748984248
20
22.908625542
30
0
0
VERTEX
5
571
8
0
6
BYLAYER
62
256
10
54.816925168
20
23.0406801056
30
0
0
VERTEX
5
572
8
0
6
BYLAYER
62
256
10
54.882696108
20
23.1701888792
30
0
0
VERTEX
5
573
8
0
6
BYLAYER
62
256
10
54.946173936
20
23.2969015732
30
0
0
VERTEX
5
574
8
0
6
BYLAYER
62
256
10
55.007235512
20
23.4205678996
30
0
0
VERTEX
5
575
8
0
6
BYLAYER
62
256
10
55.0657577
20
23.5409375684
30
0
0
VERTEX
5
576
8
0
6
BYLAYER
62
256
10
55.121617364
20
23.6577602916
30
0
0
VERTEX
5
577
8
0
6
BYLAYER
62
256
10
55.17469136
20
23.7707857796
30
0
0
VERTEX
5
578
8
0
6
BYLAYER
62
256
10
55.224856556
20
23.8797637436
30
0
0
VERTEX
5
579
8
0
6
BYLAYER
62
256
10
55.271989812
20
23.9844438952
30
0
0
VERTEX
5
57A
8
0
6
BYLAYER
62
256
10
55.315967988
20
24.0845759448
30
0
0
VERTEX
5
57B
8
0
6
BYLAYER
62
256
10
55.356667952
20
24.1799096036
30
0
0
VERTEX
5
57C
8
0
6
BYLAYER
62
256
10
55.393966564
20
24.2701945828
30
0
0
VERTEX
5
57D
8
0
6
BYLAYER
62
256
10
55.427740688
20
24.3551805932
30
0
0
VERTEX
5
57E
8
0
6
BYLAYER
62
256
10
55.457867184
20
24.4346173464
30
0
0
VERTEX
5
57F
8
0
6
BYLAYER
62
256
10
55.484222912
20
24.5082545532
30
0
0
VERTEX
5
580
8
0
6
BYLAYER
62
256
10
55.50668474
20
24.5758419244
30
0
0
VERTEX
5
581
8
0
6
BYLAYER
62
256
10
55.525129528
20
24.6371291712
30
0
0
VERTEX
5
582
8
0
6
BYLAYER
62
256
10
55.539434136
20
24.6918660048
30
0
0
VERTEX
5
583
8
0
6
BYLAYER
62
256
10
55.549475432
20
24.739802136
30
0
0
VERTEX
5
584
8
0
6
BYLAYER
62
256
10
55.55842938
20
24.7869846856
30
0
0
VERTEX
5
585
8
0
6
BYLAYER
62
256
10
55.569509404
20
24.8394869808
30
0
0
VERTEX
5
586
8
0
6
BYLAYER
62
256
10
55.582647408
20
24.8970988912
30
0
0
VERTEX
5
587
8
0
6
BYLAYER
62
256
10
55.597775304
20
24.959610286
30
0
0
VERTEX
5
588
8
0
6
BYLAYER
62
256
10
55.614824992
20
25.0268110336
30
0
0
VERTEX
5
589
8
0
6
BYLAYER
62
256
10
55.633728384
20
25.0984910036
30
0
0
VERTEX
5
58A
8
0
6
BYLAYER
62
256
10
55.654417384
20
25.1744400652
30
0
0
VERTEX
5
58B
8
0
6
BYLAYER
62
256
10
55.6768239
20
25.2544480868
30
0
0
VERTEX
5
58C
8
0
6
BYLAYER
62
256
10
55.70087984
20
25.338304938
30
0
0
VERTEX
5
58D
8
0
6
BYLAYER
62
256
10
55.726517112
20
25.425800488
30
0
0
VERTEX
5
58E
8
0
6
BYLAYER
62
256
10
55.753667624
20
25.5167246056
30
0
0
VERTEX
5
58F
8
0
6
BYLAYER
62
256
10
55.782263276
20
25.6108671596
30
0
0
VERTEX
5
590
8
0
6
BYLAYER
62
256
10
55.812235984
20
25.7080180196
30
0
0
VERTEX
5
591
8
0
6
BYLAYER
62
256
10
55.843517648
20
25.8079670544
30
0
0
VERTEX
5
592
8
0
6
BYLAYER
62
256
10
55.87604018
20
25.9105041332
30
0
0
VERTEX
5
593
8
0
6
BYLAYER
62
256
10
55.909735488
20
26.0154191248
30
0
0
VERTEX
5
594
8
0
6
BYLAYER
62
256
10
55.944535472
20
26.1225018984
30
0
0
VERTEX
5
595
8
0
6
BYLAYER
62
256
10
55.980372048
20
26.2315423236
30
0
0
VERTEX
5
596
8
0
6
BYLAYER
62
256
10
56.017177112
20
26.3423302684
30
0
0
VERTEX
5
597
8
0
6
BYLAYER
62
256
10
56.054882584
20
26.4546556028
30
0
0
VERTEX
5
598
8
0
6
BYLAYER
62
256
10
56.09342036
20
26.5683081956
30
0
0
VERTEX
5
599
8
0
6
BYLAYER
62
256
10
56.132722356
20
26.683077916
30
0
0
VERTEX
5
59A
8
0
6
BYLAYER
62
256
10
56.172720472
20
26.7987546324
30
0
0
VERTEX
5
59B
8
0
6
BYLAYER
62
256
10
56.21334662
20
26.9151282148
30
0
0
VERTEX
5
59C
8
0
6
BYLAYER
62
256
10
56.2545327
20
27.0319885316
30
0
0
VERTEX
5
59D
8
0
6
BYLAYER
62
256
10
56.296210628
20
27.149125452
30
0
0
VERTEX
5
59E
8
0
6
BYLAYER
62
256
10
56.338312308
20
27.2663288456
30
0
0
VERTEX
5
59F
8
0
6
BYLAYER
62
256
10
56.380769644
20
27.3833885808
30
0
0
VERTEX
5
5A0
8
0
6
BYLAYER
62
256
10
56.423514548
20
27.5000945268
30
0
0
VERTEX
5
5A1
8
0
6
BYLAYER
62
256
10
56.46647892
20
27.6162365528
30
0
0
VERTEX
5
5A2
8
0
6
BYLAYER
62
256
10
56.509594676
20
27.731604528
30
0
0
VERTEX
5
5A3
8
0
6
BYLAYER
62
256
10
56.552510728
20
27.8465480272
30
0
0
VERTEX
5
5A4
8
0
6
BYLAYER
62
256
10
56.594882756
20
27.961430756
30
0
0
VERTEX
5
5A5
8
0
6
BYLAYER
62
256
10
56.63665224
20
28.076063216
30
0
0
VERTEX
5
5A6
8
0
6
BYLAYER
62
256
10
56.677760668
20
28.1902559076
30
0
0
VERTEX
5
5A7
8
0
6
BYLAYER
62
256
10
56.718149512
20
28.303819332
30
0
0
VERTEX
5
5A8
8
0
6
BYLAYER
62
256
10
56.757760264
20
28.4165639904
30
0
0
VERTEX
5
5A9
8
0
6
BYLAYER
62
256
10
56.7965344
20
28.528300384
30
0
0
VERTEX
5
5AA
8
0
6
BYLAYER
62
256
10
56.834413408
20
28.6388390132
30
0
0
VERTEX
5
5AB
8
0
6
BYLAYER
62
256
10
56.871338764
20
28.7479903792
30
0
0
VERTEX
5
5AC
8
0
6
BYLAYER
62
256
10
56.907251948
20
28.8555649832
30
0
0
VERTEX
5
5AD
8
0
6
BYLAYER
62
256
10
56.942094452
20
28.961373326
30
0
0
VERTEX
5
5AE
8
0
6
BYLAYER
62
256
10
56.975807752
20
29.0652259088
30
0
0
VERTEX
5
5AF
8
0
6
BYLAYER
62
256
10
57.008333328
20
29.1669332328
30
0
0
VERTEX
5
5B0
8
0
6
BYLAYER
62
256
10
57.039612668
20
29.2663057988
30
0
0
VERTEX
5
5B1
8
0
6
BYLAYER
62
256
10
57.069587248
20
29.3631541076
30
0
0
VERTEX
5
5B2
8
0
6
BYLAYER
62
256
10
57.098198552
20
29.4572886604
30
0
0
VERTEX
5
5B3
8
0
6
BYLAYER
62
256
10
57.125388064
20
29.548519958
30
0
0
VERTEX
5
5B4
8
0
6
BYLAYER
62
256
10
57.151097268
20
29.636658502
30
0
0
VERTEX
5
5B5
8
0
6
BYLAYER
62
256
10
57.17526764
20
29.7215147928
30
0
0
VERTEX
5
5B6
8
0
6
BYLAYER
62
256
10
57.197840664
20
29.8028993316
30
0
0
VERTEX
5
5B7
8
0
6
BYLAYER
62
256
10
57.218757828
20
29.8806226196
30
0
0
VERTEX
5
5B8
8
0
6
BYLAYER
62
256
10
57.237960604
20
29.9544951576
30
0
0
VERTEX
5
5B9
8
0
6
BYLAYER
62
256
10
57.25539048
20
30.0243274468
30
0
0
VERTEX
5
5BA
8
0
6
BYLAYER
62
256
10
57.27098894
20
30.089929988
30
0
0
VERTEX
5
5BB
8
0
6
BYLAYER
62
256
10
57.284697464
20
30.151113282
30
0
0
VERTEX
5
5BC
8
0
6
BYLAYER
62
256
10
57.296457532
20
30.2076878304
30
0
0
VERTEX
5
5BD
8
0
6
BYLAYER
62
256
10
57.306210628
20
30.259464134
30
0
0
VERTEX
5
5BE
8
0
6
BYLAYER
62
256
10
57.313898236
20
30.306252694
30
0
0
VERTEX
5
5BF
8
0
6
BYLAYER
62
256
10
57.319461832
20
30.3478640108
30
0
0
VERTEX
5
5C0
8
0
6
BYLAYER
62
256
10
57.322842904
20
30.3841085856
30
0
0
VERTEX
5
5C1
8
0
6
BYLAYER
62
256
10
57.323982932
20
30.41479692
30
0
0
VERTEX
5
5C2
8
0
6
BYLAYER
62
256
10
57.325900832
20
30.505107718
30
0
0
VERTEX
5
5C3
8
0
6
BYLAYER
62
256
10
57.331533216
20
30.5891159084
30
0
0
VERTEX
5
5C4
8
0
6
BYLAYER
62
256
10
57.340698104
20
30.666835396
30
0
0
VERTEX
5
5C5
8
0
6
BYLAYER
62
256
10
57.353213512
20
30.738280084
30
0
0
VERTEX
5
5C6
8
0
6
BYLAYER
62
256
10
57.368897468
20
30.8034638764
30
0
0
VERTEX
5
5C7
8
0
6
BYLAYER
62
256
10
57.387567988
20
30.8624006776
30
0
0
VERTEX
5
5C8
8
0
6
BYLAYER
62
256
10
57.409043096
20
30.9151043912
30
0
0
VERTEX
5
5C9
8
0
6
BYLAYER
62
256
10
57.433140808
20
30.9615889208
30
0
0
VERTEX
5
5CA
8
0
6
BYLAYER
62
256
10
57.459679148
20
31.0018681712
30
0
0
VERTEX
5
5CB
8
0
6
BYLAYER
62
256
10
57.488476136
20
31.0359560452
30
0
0
SEQEND
5
5CC
8
0
6
BYLAYER
62
256
0
ENDSEC
0
EOF
