999
dxfrw 0.5.10
0
SECTION
2
HEADER
9
$ACADVER
1
AC1021
9
$HANDSEED
5
20000
9
$DWGCODEPAGE
3
ANSI_1252
9
$INSBASE
10
0
20
0
30
0
9
$EXTMIN
10
-22.0887841603
20
-6.21435146525
30
0
9
$EXTMAX
10
21.3473098174
20
32.7554859456
30
0
9
$LIMMIN
10
0
20
0
9
$LIMMAX
10
420
20
297
9
$ORTHOMODE
70
0
9
$LTSCALE
40
1
9
$TEXTSTYLE
7
STANDARD
9
$CLAYER
8
0
9
$DIMASZ
40
2.5
9
$DIMLFAC
40
1
9
$DIMSCALE
40
1
9
$DIMEXO
40
0.625
9
$DIMEXE
40
1.25
9
$DIMTXT
40
2.5
9
$DIMTSZ
40
0
9
$DIMAUNIT
70
0
9
$DIMADEC
70
0
9
$DIMLUNIT
70
2
9
$DIMSTYLE
2
Standard
9
$DIMGAP
40
0.625
9
$DIMTIH
70
0
9
$LUNITS
70
2
9
$LUPREC
70
4
9
$AUNITS
70
0
9
$AUPREC
70
2
9
$SPLINESEGS
70
8
9
$GRIDMODE
70
1
9
$SNAPSTYLE
70
0
9
$PINSBASE
10
0
20
0
30
0
9
$PLIMMIN
10
0
20
0
9
$PLIMMAX
10
21
20
29.7
9
$INSUNITS
70
4
9
$PSVPSCALE
40
1
0
ENDSEC
0
SECTION
2
CLASSES
0
ENDSEC
0
SECTION
2
TABLES
0
TABLE
2
VPORT
5
8
330
0
100
AcDbSymbolTable
70
1
0
VPORT
5
31
330
2
100
AcDbSymbolTableRecord
100
AcDbViewportTableRecord
2
*ACTIVE
70
0
10
0
20
0
11
1
21
1
12
19.0511790767
22
19.1512728372
13
0
23
0
14
10
24
10
15
10
25
10
16
0
26
0
36
1
17
0
27
0
37
0
40
50.0468802365
41
1.65333333333
42
50
43
0
44
0
50
0
51
0
71
0
72
100
73
1
74
3
75
0
76
1
77
0
78
0
281
0
65
1
110
0
120
0
130
0
111
1
121
0
131
0
112
0
122
1
132
0
79
0
146
0
348
10020
60
7
61
5
292
1
282
1
141
0
142
0
63
250
421
3358443
0
ENDTAB
0
TABLE
2
LTYPE
5
5
330
0
100
AcDbSymbolTable
70
4
0
LTYPE
5
14
330
5
100
AcDbSymbolTableRecord
100
AcDbLinetypeTableRecord
2
ByBlock
70
0
3

72
65
73
0
40
0
0
LTYPE
5
15
330
5
100
AcDbSymbolTableRecord
100
AcDbLinetypeTableRecord
2
ByLayer
70
0
3

72
65
73
0
40
0
0
LTYPE
5
16
330
5
100
AcDbSymbolTableRecord
100
AcDbLinetypeTableRecord
2
Continuous
70
0
3
Solid line
72
65
73
0
40
0
0
LTYPE
5
32
330
5
100
AcDbSymbolTableRecord
100
AcDbLinetypeTableRecord
2
DOT
70
0
3
Dot . . . . . . . . . . . . . . . . . . . . . .
72
65
73
2
40
6.35
49
0
74
0
49
-6.35
74
0
0
LTYPE
5
33
330
5
100
AcDbSymbolTableRecord
100
AcDbLinetypeTableRecord
2
DOT2
70
0
3
Dot (.5x) .....................................
72
65
73
2
40
3.175
49
0
74
0
49
-3.175
74
0
0
LTYPE
5
34
330
5
100
AcDbSymbolTableRecord
100
AcDbLinetypeTableRecord
2
DOTX2
70
0
3
Dot (2x) .  .  .  .  .  .  .  .  .  .  .  .  .
72
65
73
2
40
12.7
49
0
74
0
49
-12.7
74
0
0
LTYPE
5
35
330
5
100
AcDbSymbolTableRecord
100
AcDbLinetypeTableRecord
2
DASHED
70
0
3
Dot . . . . . . . . . . . . . . . . . . . . . .
72
65
73
2
40
19.05
49
12.7
74
0
49
-6.35
74
0
0
LTYPE
5
36
330
5
100
AcDbSymbolTableRecord
100
AcDbLinetypeTableRecord
2
DASHED2
70
0
3
Dashed (.5x) _ _ _ _ _ _ _ _ _ _ _ _ _ _ _ _ _
72
65
73
2
40
9.525
49
6.35
74
0
49
-3.175
74
0
0
LTYPE
5
37
330
5
100
AcDbSymbolTableRecord
100
AcDbLinetypeTableRecord
2
DASHEDX2
70
0
3
Dashed (2x) ____  ____  ____  ____  ____  ___
72
65
73
2
40
38.1
49
25.4
74
0
49
-12.7
74
0
0
LTYPE
5
38
330
5
100
AcDbSymbolTableRecord
100
AcDbLinetypeTableRecord
2
DASHDOT
70
0
3
Dash dot __ . __ . __ . __ . __ . __ . __ . __
72
65
73
4
40
25.4
49
12.7
74
0
49
-6.35
74
0
49
0
74
0
49
-6.35
74
0
0
LTYPE
5
39
330
5
100
AcDbSymbolTableRecord
100
AcDbLinetypeTableRecord
2
DASHDOT2
70
0
3
Dash dot (.5x) _._._._._._._._._._._._._._._.
72
65
73
4
40
12.7
49
6.35
74
0
49
-3.175
74
0
49
0
74
0
49
-3.175
74
0
0
LTYPE
5
3A
330
5
100
AcDbSymbolTableRecord
100
AcDbLinetypeTableRecord
2
DASHDOTX2
70
0
3
Dash dot (2x) ____  .  ____  .  ____  .  ___
72
65
73
4
40
50.8
49
25.4
74
0
49
-12.7
74
0
49
0
74
0
49
-12.7
74
0
0
LTYPE
5
3B
330
5
100
AcDbSymbolTableRecord
100
AcDbLinetypeTableRecord
2
DIVIDE
70
0
3
Divide ____ . . ____ . . ____ . . ____ . . ____
72
65
73
6
40
31.75
49
12.7
74
0
49
-6.35
74
0
49
0
74
0
49
-6.35
74
0
49
0
74
0
49
-6.35
74
0
0
LTYPE
5
3C
330
5
100
AcDbSymbolTableRecord
100
AcDbLinetypeTableRecord
2
DIVIDE2
70
0
3
Divide (.5x) __..__..__..__..__..__..__..__.._
72
65
73
6
40
15.875
49
6.35
74
0
49
-3.175
74
0
49
0
74
0
49
-3.175
74
0
49
0
74
0
49
-3.175
74
0
0
LTYPE
5
3D
330
5
100
AcDbSymbolTableRecord
100
AcDbLinetypeTableRecord
2
DIVIDEX2
70
0
3
Divide (2x) ________  .  .  ________  .  .  _
72
65
73
6
40
63.5
49
25.4
74
0
49
-12.7
74
0
49
0
74
0
49
-12.7
74
0
49
0
74
0
49
-12.7
74
0
0
LTYPE
5
3E
330
5
100
AcDbSymbolTableRecord
100
AcDbLinetypeTableRecord
2
BORDER
70
0
3
Border __ __ . __ __ . __ __ . __ __ . __ __ .
72
65
73
6
40
44.45
49
12.7
74
0
49
-6.35
74
0
49
12.7
74
0
49
-6.35
74
0
49
0
74
0
49
-6.35
74
0
0
LTYPE
5
3F
330
5
100
AcDbSymbolTableRecord
100
AcDbLinetypeTableRecord
2
BORDER2
70
0
3
Border (.5x) __.__.__.__.__.__.__.__.__.__.__.
72
65
73
6
40
22.225
49
6.35
74
0
49
-3.175
74
0
49
6.35
74
0
49
-3.175
74
0
49
0
74
0
49
-3.175
74
0
0
LTYPE
5
40
330
5
100
AcDbSymbolTableRecord
100
AcDbLinetypeTableRecord
2
BORDERX2
70
0
3
Border (2x) ____  ____  .  ____  ____  .  ___
72
65
73
6
40
88.9
49
25.4
74
0
49
-12.7
74
0
49
25.4
74
0
49
-12.7
74
0
49
0
74
0
49
-12.7
74
0
0
LTYPE
5
41
330
5
100
AcDbSymbolTableRecord
100
AcDbLinetypeTableRecord
2
CENTER
70
0
3
Center ____ _ ____ _ ____ _ ____ _ ____ _ ____
72
65
73
4
40
50.8
49
31.75
74
0
49
-6.35
74
0
49
6.35
74
0
49
-6.35
74
0
0
LTYPE
5
42
330
5
100
AcDbSymbolTableRecord
100
AcDbLinetypeTableRecord
2
CENTER2
70
0
3
Center (.5x) ___ _ ___ _ ___ _ ___ _ ___ _ ___
72
65
73
4
40
28.575
49
19.05
74
0
49
-3.175
74
0
49
3.175
74
0
49
-3.175
74
0
0
LTYPE
5
43
330
5
100
AcDbSymbolTableRecord
100
AcDbLinetypeTableRecord
2
CENTERX2
70
0
3
Center (2x) ________  __  ________  __  _____
72
65
73
4
40
101.6
49
63.5
74
0
49
-12.7
74
0
49
12.7
74
0
49
-12.7
74
0
0
ENDTAB
0
TABLE
2
LAYER
5
2
330
0
100
AcDbSymbolTable
70
1
0
LAYER
5
10
330
2
100
AcDbSymbolTableRecord
100
AcDbLayerTableRecord
2
0
70
0
62
7
6
CONTINUOUS
370
-3
390
F
0
ENDTAB
0
TABLE
2
STYLE
5
3
330
0
100
AcDbSymbolTable
70
3
0
STYLE
5
44
330
2
100
AcDbSymbolTableRecord
100
AcDbTextStyleTableRecord
2
Standard
70
0
40
0
41
1
50
0
71
0
42
1
3
txt
4

0
ENDTAB
0
TABLE
2
VIEW
5
6
330
0
100
AcDbSymbolTable
70
0
0
ENDTAB
0
TABLE
2
UCS
5
7
330
0
100
AcDbSymbolTable
70
0
0
ENDTAB
0
TABLE
2
APPID
5
9
330
0
100
AcDbSymbolTable
70
1
0
APPID
5
12
330
9
100
AcDbSymbolTableRecord
100
AcDbRegAppTableRecord
2
ACAD
70
0
0
ENDTAB
0
TABLE
2
DIMSTYLE
5
A
330
0
100
AcDbSymbolTable
70
1
100
AcDbDimStyleTable
71
1
0
DIMSTYLE
105
45
330
A
100
AcDbSymbolTableRecord
100
AcDbDimStyleTableRecord
2
Standard
70
0
40
1
41
2.5
42
0.625
43
0.38
44
1.25
45
0
46
0
47
0
48
0
140
2.5
141
0.09
142
0
143
25.4
144
1
145
0
146
1
147
0.625
148
0
71
0
72
0
73
0
74
1
75
0
76
0
77
0
78
0
79
0
170
0
171
2
172
0
173
0
174
0
175
0
176
0
177
0
178
0
179
0
271
4
272
4
273
2
274
2
275
0
276
0
277
2
278
46
279
0
280
0
281
0
282
0
283
1
284
0
285
0
286
0
288
0
289
3
340
Standard
341

371
-2
372
-2
0
ENDTAB
0
TABLE
2
BLOCK_RECORD
5
1
330
0
100
AcDbSymbolTable
70
2
0
BLOCK_RECORD
5
1F
330
1
100
AcDbSymbolTableRecord
100
AcDbBlockTableRecord
2
*Model_Space
70
0
280
1
281
0
0
BLOCK_RECORD
5
1E
330
1
100
AcDbSymbolTableRecord
100
AcDbBlockTableRecord
2
*Paper_Space
70
0
280
1
281
0
0
ENDTAB
0
ENDSEC
0
SECTION
2
BLOCKS
0
BLOCK
5
20
330
1F
100
AcDbEntity
8
0
100
AcDbBlockBegin
2
*Model_Space
70
0
10
0
20
0
30
0
3
*Model_Space
1

0
ENDBLK
5
21
330
1F
100
AcDbEntity
8
0
100
AcDbBlockEnd
0
BLOCK
5
1C
330
1B
100
AcDbEntity
8
0
100
AcDbBlockBegin
2
*Paper_Space
70
0
10
0
20
0
30
0
3
*Paper_Space
1

0
ENDBLK
5
1D
330
1F
100
AcDbEntity
8
0
100
AcDbBlockEnd
0
ENDSEC
0
SECTION
2
ENTITIES
0
LWPOLYLINE
5
46
100
AcDbEntity
8
0
6
ByLayer
62
256
370
-1
100
AcDbPolyline
90
151
70
1
43
0
10
11.3044166667
20
2.776583333
10
11.4614035673
20
2.698136326
10
11.613654936
20
2.60584022
10
11.7599438585
20
2.500916696
10
11.8990434211
20
2.384587433
10
12.0297267095
20
2.258074109
10
12.1507668099
20
2.122598405
10
12.2609368082
20
1.979382
10
12.3590097905
20
1.829646574
10
12.4437588426
20
1.674613805
10
12.5140408668
20
1.515538764
10
12.5701739701
20
1.354258642
10
12.6137174046
20
1.193105078
10
12.6462698585
20
1.034425426
10
12.6694300197
20
0.880567038
10
12.6847965764
20
0.733877264
10
12.6939682168
20
0.596703457
10
12.6985436288
20
0.471392969
10
12.7001215006
20
0.360293152
10
12.7003
20
0.26574931
10
12.7003
20
0.188622221
10
12.7003
20
0.125671271
10
12.7003
20
0.072953516
10
12.7003
20
0.026526007
10
12.7003
20
-0.017554202
10
12.7003
20
-0.063230058
10
12.7003
20
-0.114444508
10
12.7003
20
-0.175140499
10
12.7003
20
-0.249260977
10
12.7002134174
20
-0.340408428
10
12.6990196054
20
-0.448512406
10
12.6951280072
20
-0.571261457
10
12.6869399347
20
-0.706312157
10
12.6728566999
20
-0.851321078
10
12.6512796146
20
-1.003944796
10
12.6206099907
20
-1.161839883
10
12.5792491401
20
-1.322662915
10
12.5255983747
20
-1.484070465
10
12.4580663648
20
-1.643722018
10
12.3759521396
20
-1.799629289
10
12.2802839379
20
-1.950488076
10
12.1722886738
20
-2.095072773
10
12.0531932612
20
-2.232157776
10
11.9242246142
20
-2.360517478
10
11.7866096467
20
-2.478926275
10
11.6415752728
20
-2.586158562
10
11.4903484064
20
-2.680988732
10
11.3341559617
20
-2.76219118
10
11.174324558
20
-2.82879274
10
11.0128888287
20
-2.881612822
10
10.8521897846
20
-2.922246536
10
10.694569662
20
-2.952292093
10
10.5423706972
20
-2.973347707
10
10.3979351266
20
-2.987011589
10
10.2636051864
20
-2.994881952
10
10.141723113
20
-2.998557008
10
10.0346311426
20
-2.999634969
10
9.9446162737
20
-2.9997
10
9.8714634404
20
-2.9997
10
9.811485783
20
-2.9997
10
9.7607407114
20
-2.9997
10
9.7152856358
20
-2.9997
10
9.6711779661
20
-2.9997
10
9.6244751125
20
-2.9997
10
9.571234485
20
-2.9997
10
9.5075134936
20
-2.9997
10
9.4293695485
20
-2.9997
10
9.3337238516
20
-2.999480519
10
9.2216670975
20
-2.997762649
10
9.0955463821
20
-2.992948243
10
8.9577090573
20
-2.983439088
10
8.8105024751
20
-2.967636973
10
8.6562739872
20
-2.943943684
10
8.4973709458
20
-2.910761011
10
8.3361407025
20
-2.86649074
10
8.1749306094
20
-2.80953466
10
8.0160645669
20
-2.738353387
10
7.8613270906
20
-2.652760619
10
7.7119633114
20
-2.553923131
10
7.5691949089
20
-2.443066528
10
7.4342435623
20
-2.321416416
10
7.3083309512
20
-2.190198401
10
7.1926787549
20
-2.050638087
10
7.0885086529
20
-1.903961079
10
6.9970423246
20
-1.751392984
10
6.9195013348
20
-1.594159452
10
6.8565442426
20
-1.433709417
10
6.806961218
20
-1.272232794
10
6.7691553573
20
-1.112073009
10
6.741529757
20
-0.95557349
10
6.7224875134
20
-0.805077661
10
6.7104317231
20
-0.662928948
10
6.7037654823
20
-0.531470779
10
6.7008918876
20
-0.413046578
10
6.7002140353
20
-0.309999771
10
6.7002
20
-0.224417992
10
6.7002
20
-0.154916225
10
6.7002
20
-0.097606775
10
6.7002
20
-0.048546694
10
6.7002
20
-0.00379303599999
10
6.7002
20
0.040597145
10
6.7002
20
0.088566797
10
6.7002
20
0.144058867
10
6.7002
20
0.211016301
10
6.7002017544
20
0.293375136
10
6.7006456853
20
0.39334347
10
6.7029859392
20
0.509136278
10
6.7088194197
20
0.63840621
10
6.7197430303
20
0.778805914
10
6.7373536748
20
0.927988037
10
6.7632482566
20
1.083605227
10
6.7990236793
20
1.243310133
10
6.8462768465
20
1.404755403
10
6.9066046619
20
1.565593685
10
6.9814058474
20
1.723556776
10
7.0703542108
20
1.87706536
10
7.1722354128
20
2.024894828
10
7.285827774
20
2.165823499
10
7.409909615
20
2.298629694
10
7.5432592563
20
2.422091734
10
7.6846550184
20
2.534987939
10
7.8328752221
20
2.63609663
10
7.9866981878
20
2.724196127
10
8.1448965107
20
2.798079088
10
8.3058414993
20
2.857542953
10
8.4672467666
20
2.904031977
10
8.6267649606
20
2.939143063
10
8.7820487295
20
2.964473115
10
8.9307507212
20
2.981619035
10
9.070523584
20
2.992177728
10
9.1990199658
20
2.997746098
10
9.3138925149
20
2.999921047
10
9.4127938792
20
3.00029948
10
9.4940790018
20
3.0003
10
9.5602039825
20
3.0003
10
9.6151093638
20
3.0003
10
9.6627377356
20
3.0003
10
9.7070316877
20
3.0003
10
9.7519338103
20
3.0003
10
9.8013866932
20
3.0003
10
9.8593329263
20
3.0003
10
9.9297150996
20
3.0003
10
10.0163880877
20
3.000277713
10
10.120446157
20
2.999509411
10
10.2397334987
20
2.99644556
10
10.3719078764
20
2.989489256
10
10.5146270538
20
2.977043597
10
10.6655487947
20
2.957511678
10
10.8223308627
20
2.929296596
10
10.9826310216
20
2.890801447
10
11.144107035
20
2.840429327
0
LWPOLYLINE
5
47
100
AcDbEntity
8
0
6
ByLayer
62
256
370
-1
100
AcDbPolyline
90
151
70
1
43
0
10
-8.6953666667
20
2.776583333
10
-8.5384004716
20
2.698136326
10
-8.3861971339
20
2.60584022
10
-8.2399783331
20
2.500916696
10
-8.1009657486
20
2.384587433
10
-7.9703810598
20
2.258074109
10
-7.8494459462
20
2.122598405
10
-7.7393820872
20
1.979382
10
-7.6414111621
20
1.829646574
10
-7.5567548505
20
1.674613805
10
-7.4865512238
20
1.515538764
10
-7.4304807783
20
1.354258642
10
-7.3869859486
20
1.193105078
10
-7.3544698311
20
1.034425426
10
-7.3313355221
20
0.880567038
10
-7.3159861181
20
0.733877264
10
-7.3068247155
20
0.596703457
10
-7.3022544107
20
0.471392969
10
-7.3006783001
20
0.360293152
10
-7.3005
20
0.26574931
10
-7.3005
20
0.188622221
10
-7.3005
20
0.125671271
10
-7.3005
20
0.072953516
10
-7.3005
20
0.026526007
10
-7.3005
20
-0.017554202
10
-7.3005
20
-0.063230058
10
-7.3005
20
-0.114444508
10
-7.3005
20
-0.175140499
10
-7.3005
20
-0.249260977
10
-7.3005864859
20
-0.340408428
10
-7.3017789654
20
-0.448512406
10
-7.3056662196
20
-0.571261457
10
-7.3138451522
20
-0.706312157
10
-7.3279126669
20
-0.851321078
10
-7.349465667
20
-1.003944796
10
-7.3801010563
20
-1.161839883
10
-7.4214157384
20
-1.322662915
10
-7.4750066167
20
-1.484070465
10
-7.542463255
20
-1.643722018
10
-7.6244870693
20
-1.799629289
10
-7.7200545619
20
-1.950488076
10
-7.8279440535
20
-2.095072773
10
-7.9469338645
20
-2.232157776
10
-8.0758023155
20
-2.360517478
10
-8.2133277272
20
-2.478926275
10
-8.3582884201
20
-2.586158562
10
-8.5094627147
20
-2.680988732
10
-8.6656289316
20
-2.76219118
10
-8.8254647607
20
-2.82879274
10
-8.9869333076
20
-2.881612822
10
-9.1476884573
20
-2.922246536
10
-9.3053828577
20
-2.952292093
10
-9.457669157
20
-2.973347707
10
-9.6022000032
20
-2.987011589
10
-9.7366280445
20
-2.994881952
10
-9.8586059289
20
-2.998557008
10
-9.9657863046
20
-2.999634969
10
-10.0558771054
20
-2.9997
10
-10.1290905086
20
-2.9997
10
-10.1891135081
20
-2.9997
10
-10.2398890508
20
-2.9997
10
-10.2853600834
20
-2.9997
10
-10.3294695529
20
-2.9997
10
-10.3761604061
20
-2.9997
10
-10.4293755899
20
-2.9997
10
-10.493058051
20
-2.9997
10
-10.5711507365
20
-2.9997
10
-10.666733291
20
-2.999480519
10
-10.7787182333
20
-2.997762649
10
-10.9047623929
20
-2.992948243
10
-11.0425223441
20
-2.983439088
10
-11.1896546608
20
-2.967636973
10
-11.343815917
20
-2.943943684
10
-11.5026626867
20
-2.910761011
10
-11.6638515441
20
-2.86649074
10
-11.825039063
20
-2.80953466
10
-11.9839051056
20
-2.738353387
10
-12.138665156
20
-2.652760619
10
-12.288070321
20
-2.553923131
10
-12.4308949953
20
-2.443066528
10
-12.5659135735
20
-2.321416416
10
-12.6919004503
20
-2.190198401
10
-12.8076300201
20
-2.050638087
10
-12.9118766779
20
-1.903961079
10
-13.003414818
20
-1.751392984
10
-13.0810189502
20
-1.594159452
10
-13.144027635
20
-1.433709417
10
-13.1936512924
20
-1.272232794
10
-13.2314881345
20
-1.112073009
10
-13.2591363737
20
-0.95557349
10
-13.2781942222
20
-0.805077661
10
-13.2902598921
20
-0.662928948
10
-13.2969315958
20
-0.531470779
10
-13.2998075454
20
-0.413046578
10
-13.3004859532
20
-0.309999771
10
-13.3005
20
-0.224417992
10
-13.3005
20
-0.154916225
10
-13.3005
20
-0.097606775
10
-13.3005
20
-0.048546694
10
-13.3005
20
-0.00379303599999
10
-13.3005
20
0.040597145
10
-13.3005
20
0.088566797
10
-13.3005
20
0.144058867
10
-13.3005
20
0.211016301
10
-13.3004982442
20
0.293375136
10
-13.3000539495
20
0.39334347
10
-13.2977117778
20
0.509136278
10
-13.2918735168
20
0.63840621
10
-13.2809409544
20
0.778805914
10
-13.2633158782
20
0.927988037
10
-13.2374000761
20
1.083605227
10
-13.2015953358
20
1.243310133
10
-13.1543034451
20
1.404755403
10
-13.0939261917
20
1.565593685
10
-13.0190639132
20
1.723556776
10
-12.9300450644
20
1.87706536
10
-12.8280878971
20
2.024894828
10
-12.7144180166
20
2.165823499
10
-12.5902610282
20
2.298629694
10
-12.4568425374
20
2.422091734
10
-12.3153881495
20
2.534987939
10
-12.1671234698
20
2.63609663
10
-12.0132741037
20
2.724196127
10
-11.8550713421
20
2.798079088
10
-11.6941449633
20
2.857542953
10
-11.5327778538
20
2.904031977
10
-11.3733134394
20
2.939143063
10
-11.2180951463
20
2.964473115
10
-11.0694664003
20
2.981619035
10
-10.9297706275
20
2.992177728
10
-10.8013512537
20
2.997746098
10
-10.6865517051
20
2.999921047
10
-10.5877154075
20
3.00029948
10
-10.5064838905
20
3.0003
10
-10.440399854
20
3.0003
10
-10.3855223973
20
3.0003
10
-10.3379085738
20
3.0003
10
-10.2936154365
20
3.0003
10
-10.2487000386
20
3.0003
10
-10.1992194333
20
3.0003
10
-10.1412306736
20
3.0003
10
-10.0707908127
20
3.0003
10
-9.9840446957
20
3.000277713
10
-9.8799001792
20
2.999509411
10
-9.7605180255
20
2.99644556
10
-9.6282455864
20
2.989489256
10
-9.4854302139
20
2.977043597
10
-9.3344192599
20
2.957511678
10
-9.1775600762
20
2.929296596
10
-9.0172000149
20
2.890801447
10
-8.8556864277
20
2.840429327
0
SPLINE
5
48
100
AcDbEntity
8
0
6
ByLayer
62
7
370
-1
100
AcDbSpline
210
0
220
0
230
1
70
8
71
3
72
8
73
4
74
0
42
1e-07
43
1e-07
40
0
40
0
40
0
40
0
40
1
40
1
40
1
40
1
10
-5.075592
20
-6.1847898
30
0
10
-5.1190054
20
-6.1449118
30
0
10
-5.7137907
20
-6.0609648
30
0
10
-6.3973349
20
-5.9982409
30
0
0
SPLINE
5
49
100
AcDbEntity
8
0
6
ByLayer
62
7
370
-1
100
AcDbSpline
210
0
220
0
230
1
70
8
71
3
72
8
73
4
74
0
42
1e-07
43
1e-07
40
0
40
0
40
0
40
0
40
1
40
1
40
1
40
1
10
-6.3973349
20
-5.9982409
30
0
10
-9.4225271
20
-5.7206443
30
0
10
-12.5915668
20
-4.5264972
30
0
10
-15.1737438
20
-2.6911468
30
0
0
SPLINE
5
4A
100
AcDbEntity
8
0
6
ByLayer
62
7
370
-1
100
AcDbSpline
210
0
220
0
230
1
70
8
71
3
72
8
73
4
74
0
42
1e-07
43
1e-07
40
0
40
0
40
0
40
0
40
1
40
1
40
1
40
1
10
-15.1737438
20
-2.6911468
30
0
10
-16.4584552
20
-1.7780027
30
0
10
-16.9679919
20
-1.1420234
30
0
10
-17.5829361
20
0.3158914
30
0
0
SPLINE
5
4B
100
AcDbEntity
8
0
6
ByLayer
62
7
370
-1
100
AcDbSpline
210
0
220
0
230
1
70
8
71
3
72
8
73
4
74
0
42
1e-07
43
1e-07
40
0
40
0
40
0
40
0
40
1
40
1
40
1
40
1
10
-17.5829361
20
0.3158914
30
0
10
-18.0164176
20
1.3435924
30
0
10
-18.0466221
20
1.5823693
30
0
10
-18.0484794
20
3.9961539
30
0
0
SPLINE
5
4C
100
AcDbEntity
8
0
6
ByLayer
62
7
370
-1
100
AcDbSpline
210
0
220
0
230
1
70
8
71
3
72
8
73
4
74
0
42
1e-07
43
1e-07
40
0
40
0
40
0
40
0
40
1
40
1
40
1
40
1
10
-18.0484794
20
3.9961539
30
0
10
-18.0499949
20
5.9754235
30
0
10
-17.9789633
20
6.8182073
30
0
10
-17.743873
20
7.6099149
30
0
0
SPLINE
5
4D
100
AcDbEntity
8
0
6
ByLayer
62
7
370
-1
100
AcDbSpline
210
0
220
0
230
1
70
8
71
3
72
8
73
4
74
0
42
1e-07
43
1e-07
40
0
40
0
40
0
40
0
40
1
40
1
40
1
40
1
10
-17.743873
20
7.6099149
30
0
10
-17.2264742
20
9.3523445
30
0
10
-16.0028328
20
11.1499214
30
0
10
-13.6351687
20
13.6457612
30
0
0
SPLINE
5
4E
100
AcDbEntity
8
0
6
ByLayer
62
7
370
-1
100
AcDbSpline
210
0
220
0
230
1
70
8
71
3
72
8
73
4
74
0
42
1e-07
43
1e-07
40
0
40
0
40
0
40
0
40
1
40
1
40
1
40
1
10
-13.4330798
20
15.7537879
30
0
10
-13.8673812
20
16.3382236
30
0
10
-14.2731936
20
16.8223233
30
0
10
-14.3348854
20
16.8295648
30
0
0
SPLINE
5
4F
100
AcDbEntity
8
0
6
ByLayer
62
7
370
-1
100
AcDbSpline
210
0
220
0
230
1
70
8
71
3
72
8
73
4
74
0
42
1e-07
43
1e-07
40
0
40
0
40
0
40
0
40
1
40
1
40
1
40
1
10
-14.3348854
20
16.8295648
30
0
10
-14.3965772
20
16.8368064
30
0
10
-14.6019277
20
16.8778974
30
0
10
-14.7912198
20
16.9208778
30
0
0
SPLINE
5
50
100
AcDbEntity
8
0
6
ByLayer
62
7
370
-1
100
AcDbSpline
210
0
220
0
230
1
70
8
71
3
72
8
73
4
74
0
42
1e-07
43
1e-07
40
0
40
0
40
0
40
0
40
1
40
1
40
1
40
1
10
-14.7912198
20
16.9208778
30
0
10
-15.7410943
20
17.1365566
30
0
10
-17.7881562
20
17.17413
30
0
10
-18.4910216
20
16.988787
30
0
0
SPLINE
5
51
100
AcDbEntity
8
0
6
ByLayer
62
7
370
-1
100
AcDbSpline
210
0
220
0
230
1
70
8
71
3
72
8
73
4
74
0
42
1e-07
43
1e-07
40
0
40
0
40
0
40
0
40
1
40
1
40
1
40
1
10
-18.4910216
20
16.988787
30
0
10
-20.0275579
20
16.5836082
30
0
10
-20.2709266
20
16.5878737
30
0
10
-20.6836677
20
17.0272164
30
0
0
LWPOLYLINE
5
52
100
AcDbEntity
8
0
6
ByLayer
62
7
370
-1
100
AcDbPolyline
90
3
70
0
43
0
10
-13.6351687
20
13.6457612
10
-12.6434413
20
14.6911772
10
-13.4330798
20
15.7537879
0
SPLINE
5
53
100
AcDbEntity
8
0
6
ByLayer
62
7
370
-1
100
AcDbSpline
210
0
220
0
230
1
70
8
71
3
72
8
73
4
74
0
42
1e-07
43
1e-07
40
0
40
0
40
0
40
0
40
1
40
1
40
1
40
1
10
-20.7266386
20
18.1099153
30
0
10
-20.5381562
20
18.4796123
30
0
10
-20.3839435
20
18.846028
30
0
10
-20.3839435
20
18.9241719
30
0
0
SPLINE
5
54
100
AcDbEntity
8
0
6
ByLayer
62
7
370
-1
100
AcDbSpline
210
0
220
0
230
1
70
8
71
3
72
8
73
4
74
0
42
1e-07
43
1e-07
40
0
40
0
40
0
40
0
40
1
40
1
40
1
40
1
10
-20.3839435
20
18.9241719
30
0
10
-20.3839435
20
19.0023158
30
0
10
-20.7778963
20
19.6248035
30
0
10
-21.2593942
20
20.3074776
30
0
0
SPLINE
5
55
100
AcDbEntity
8
0
6
ByLayer
62
7
370
-1
100
AcDbSpline
210
0
220
0
230
1
70
8
71
3
72
8
73
4
74
0
42
1e-07
43
1e-07
40
0
40
0
40
0
40
0
40
1
40
1
40
1
40
1
10
-21.2593942
20
20.3074776
30
0
10
-22.1074048
20
21.5097979
30
0
10
-22.1326693
20
21.5798808
30
0
10
-22.0654347
20
22.5433967
30
0
0
SPLINE
5
56
100
AcDbEntity
8
0
6
ByLayer
62
7
370
-1
100
AcDbSpline
210
0
220
0
230
1
70
8
71
3
72
8
73
4
74
0
42
1e-07
43
1e-07
40
0
40
0
40
0
40
0
40
1
40
1
40
1
40
1
10
-22.0654347
20
22.5433967
30
0
10
-21.9631852
20
24.008697
30
0
10
-21.7263945
20
24.1601558
30
0
10
-20.5260775
20
23.5280173
30
0
0
SPLINE
5
57
100
AcDbEntity
8
0
6
ByLayer
62
7
370
-1
100
AcDbSpline
210
0
220
0
230
1
70
8
71
3
72
8
73
4
74
0
42
1e-07
43
1e-07
40
0
40
0
40
0
40
0
40
1
40
1
40
1
40
1
10
-20.5260775
20
23.5280173
30
0
10
-19.3290261
20
22.8975986
30
0
10
-18.2268179
20
22.7793656
30
0
10
-17.3377456
20
23.1860071
30
0
0
SPLINE
5
58
100
AcDbEntity
8
0
6
ByLayer
62
7
370
-1
100
AcDbSpline
210
0
220
0
230
1
70
8
71
3
72
8
73
4
74
0
42
1e-07
43
1e-07
40
0
40
0
40
0
40
0
40
1
40
1
40
1
40
1
10
-17.3377456
20
23.1860071
30
0
10
-16.5553317
20
23.5438658
30
0
10
-16.3580053
20
23.8499324
30
0
10
-15.8015107
20
25.5688147
30
0
0
SPLINE
5
59
100
AcDbEntity
8
0
6
ByLayer
62
7
370
-1
100
AcDbSpline
210
0
220
0
230
1
70
8
71
3
72
8
73
4
74
0
42
1e-07
43
1e-07
40
0
40
0
40
0
40
0
40
1
40
1
40
1
40
1
10
-15.8015107
20
25.5688147
30
0
10
-15.0738041
20
27.8165307
30
0
10
-13.3697322
20
29.9616465
30
0
10
-11.3417601
20
31.1828278
30
0
0
SPLINE
5
5A
100
AcDbEntity
8
0
6
ByLayer
62
7
370
-1
100
AcDbSpline
210
0
220
0
230
1
70
8
71
3
72
8
73
4
74
0
42
1e-07
43
1e-07
40
0
40
0
40
0
40
0
40
1
40
1
40
1
40
1
10
-11.3417601
20
31.1828278
30
0
10
-9.2828313
20
32.42265
30
0
10
-6.0299958
20
33.054231
30
0
10
-3.9499402
20
32.6180472
30
0
0
SPLINE
5
5B
100
AcDbEntity
8
0
6
ByLayer
62
7
370
-1
100
AcDbSpline
210
0
220
0
230
1
70
8
71
3
72
8
73
4
74
0
42
1e-07
43
1e-07
40
0
40
0
40
0
40
0
40
1
40
1
40
1
40
1
10
-3.9499402
20
32.6180472
30
0
10
-2.7551005
20
32.3674917
30
0
10
-0.8728442
20
31.4746845
30
0
10
0.9084623
20
30.3135706
30
0
0
SPLINE
5
5C
100
AcDbEntity
8
0
6
ByLayer
62
7
370
-1
100
AcDbSpline
210
0
220
0
230
1
70
8
71
3
72
8
73
4
74
0
42
1e-07
43
1e-07
40
0
40
0
40
0
40
0
40
1
40
1
40
1
40
1
10
0.9084623
20
30.3135706
30
0
10
2.6684046
20
29.1663818
30
0
10
3.1504819
20
29.0981427
30
0
10
4.6488378
20
29.7841124
30
0
0
SPLINE
5
5D
100
AcDbEntity
8
0
6
ByLayer
62
7
370
-1
100
AcDbSpline
210
0
220
0
230
1
70
8
71
3
72
8
73
4
74
0
42
1e-07
43
1e-07
40
0
40
0
40
0
40
0
40
1
40
1
40
1
40
1
10
4.6488378
20
29.7841124
30
0
10
5.192485
20
30.033003
30
0
10
5.7064958
20
30.193868
30
0
10
5.7910834
20
30.1415903
30
0
0
SPLINE
5
5E
100
AcDbEntity
8
0
6
ByLayer
62
7
370
-1
100
AcDbSpline
210
0
220
0
230
1
70
8
71
3
72
8
73
4
74
0
42
1e-07
43
1e-07
40
0
40
0
40
0
40
0
40
1
40
1
40
1
40
1
10
5.7910834
20
30.1415903
30
0
10
6.1691032
20
29.9079611
30
0
10
5.9219104
20
29.05671
30
0
10
5.2565433
20
28.3008139
30
0
0
SPLINE
5
5F
100
AcDbEntity
8
0
6
ByLayer
62
7
370
-1
100
AcDbSpline
210
0
220
0
230
1
70
8
71
3
72
8
73
4
74
0
42
1e-07
43
1e-07
40
0
40
0
40
0
40
0
40
1
40
1
40
1
40
1
10
5.2565433
20
28.3008139
30
0
10
4.8779588
20
27.8707194
30
0
10
4.5682081
20
27.4726283
30
0
10
4.5682081
20
27.4161672
30
0
0
SPLINE
5
60
100
AcDbEntity
8
0
6
ByLayer
62
7
370
-1
100
AcDbSpline
210
0
220
0
230
1
70
8
71
3
72
8
73
4
74
0
42
1e-07
43
1e-07
40
0
40
0
40
0
40
0
40
1
40
1
40
1
40
1
10
4.5682081
20
27.4161672
30
0
10
4.5682081
20
27.3597061
30
0
10
4.8779588
20
27.3135105
30
0
10
5.2565433
20
27.3135105
30
0
0
SPLINE
5
61
100
AcDbEntity
8
0
6
ByLayer
62
7
370
-1
100
AcDbSpline
210
0
220
0
230
1
70
8
71
3
72
8
73
4
74
0
42
1e-07
43
1e-07
40
0
40
0
40
0
40
0
40
1
40
1
40
1
40
1
10
5.2565433
20
27.3135105
30
0
10
6.066078
20
27.3135105
30
0
10
6.1119814
20
27.1348726
30
0
10
5.5064623
20
26.3409931
30
0
0
SPLINE
5
62
100
AcDbEntity
8
0
6
ByLayer
62
7
370
-1
100
AcDbSpline
210
0
220
0
230
1
70
8
71
3
72
8
73
4
74
0
42
1e-07
43
1e-07
40
0
40
0
40
0
40
0
40
1
40
1
40
1
40
1
10
5.5064623
20
26.3409931
30
0
10
5.1830238
20
25.9169435
30
0
10
4.886071
20
25.7370999
30
0
10
4.3741732
20
25.6552441
30
0
0
SPLINE
5
63
100
AcDbEntity
8
0
6
ByLayer
62
7
370
-1
100
AcDbSpline
210
0
220
0
230
1
70
8
71
3
72
8
73
4
74
0
42
1e-07
43
1e-07
40
0
40
0
40
0
40
0
40
1
40
1
40
1
40
1
10
4.3741732
20
25.6552441
30
0
10
3.7705843
20
25.5587264
30
0
10
3.6938054
20
25.497058
30
0
10
3.7840979
20
25.1812923
30
0
0
SPLINE
5
64
100
AcDbEntity
8
0
6
ByLayer
62
7
370
-1
100
AcDbSpline
210
0
220
0
230
1
70
8
71
3
72
8
73
4
74
0
42
1e-07
43
1e-07
40
0
40
0
40
0
40
0
40
1
40
1
40
1
40
1
10
3.7840979
20
25.1812923
30
0
10
4.2840444
20
23.4328875
30
0
10
4.4896518
20
20.8490144
30
0
10
4.2187024
20
19.719574
30
0
0
SPLINE
5
65
100
AcDbEntity
8
0
6
ByLayer
62
7
370
-1
100
AcDbSpline
210
0
220
0
230
1
70
8
71
3
72
8
73
4
74
0
42
1e-07
43
1e-07
40
0
40
0
40
0
40
0
40
1
40
1
40
1
40
1
10
4.2187024
20
19.719574
30
0
10
3.8444856
20
18.1596641
30
0
10
2.6541476
20
16.6729459
30
0
10
0.5052063
20
15.0814652
30
0
0
SPLINE
5
66
100
AcDbEntity
8
0
6
ByLayer
62
7
370
-1
100
AcDbSpline
210
0
220
0
230
1
70
8
71
3
72
8
73
4
74
0
42
1e-07
43
1e-07
40
0
40
0
40
0
40
0
40
1
40
1
40
1
40
1
10
0.5052063
20
15.0814652
30
0
10
-0.2909017
20
14.4918767
30
0
10
-0.9051908
20
13.9724142
30
0
10
-0.8598812
20
13.9271046
30
0
0
SPLINE
5
67
100
AcDbEntity
8
0
6
ByLayer
62
7
370
-1
100
AcDbSpline
210
0
220
0
230
1
70
8
71
3
72
8
73
4
74
0
42
1e-07
43
1e-07
40
0
40
0
40
0
40
0
40
1
40
1
40
1
40
1
10
-0.8598812
20
13.9271046
30
0
10
-0.8145715
20
13.8817932
30
0
10
0.367207
20
13.8258263
30
0
10
1.7662914
20
13.8027293
30
0
0
LWPOLYLINE
5
68
100
AcDbEntity
8
0
6
ByLayer
62
7
370
-1
100
AcDbPolyline
90
3
70
0
43
0
10
-20.6836677
20
17.0272164
10
-21.0693336
20
17.4377388
10
-20.7266386
20
18.1099153
0
SPLINE
5
69
100
AcDbEntity
8
0
6
ByLayer
62
7
370
-1
100
AcDbSpline
210
0
220
0
230
1
70
8
71
3
72
8
73
4
74
0
42
1e-07
43
1e-07
40
0
40
0
40
0
40
0
40
1
40
1
40
1
40
1
10
6.5471709
20
12.9492574
30
0
10
11.9247065
20
10.9986099
30
0
10
12.1644712
20
10.9254915
30
0
10
12.8329258
20
11.0323815
30
0
0
SPLINE
5
6A
100
AcDbEntity
8
0
6
ByLayer
62
7
370
-1
100
AcDbSpline
210
0
220
0
230
1
70
8
71
3
72
8
73
4
74
0
42
1e-07
43
1e-07
40
0
40
0
40
0
40
0
40
1
40
1
40
1
40
1
10
12.8329258
20
11.0323815
30
0
10
14.0654665
20
11.2294725
30
0
10
16.7929439
20
13.174885
30
0
10
18.57391
20
15.1272204
30
0
0
LWPOLYLINE
5
6B
100
AcDbEntity
8
0
6
ByLayer
62
7
370
-1
100
AcDbPolyline
90
3
70
0
43
0
10
1.7662914
20
13.8027293
10
4.3100823
20
13.7607391
10
6.5471709
20
12.9492574
0
SPLINE
5
6C
100
AcDbEntity
8
0
6
ByLayer
62
7
370
-1
100
AcDbSpline
210
0
220
0
230
1
70
8
71
3
72
8
73
4
74
0
42
1e-07
43
1e-07
40
0
40
0
40
0
40
0
40
1
40
1
40
1
40
1
10
20.0800877
20
15.9565446
30
0
10
20.37339
20
15.6042643
30
0
10
20.4211617
20
15.3718668
30
0
10
20.3453992
20
14.6659152
30
0
0
SPLINE
5
6D
100
AcDbEntity
8
0
6
ByLayer
62
7
370
-1
100
AcDbSpline
210
0
220
0
230
1
70
8
71
3
72
8
73
4
74
0
42
1e-07
43
1e-07
40
0
40
0
40
0
40
0
40
1
40
1
40
1
40
1
10
20.3453992
20
14.6659152
30
0
10
20.2808352
20
14.0643309
30
0
10
20.2993828
20
13.9215857
30
0
10
20.4069518
20
14.1921206
30
0
0
SPLINE
5
6E
100
AcDbEntity
8
0
6
ByLayer
62
7
370
-1
100
AcDbSpline
210
0
220
0
230
1
70
8
71
3
72
8
73
4
74
0
42
1e-07
43
1e-07
40
0
40
0
40
0
40
0
40
1
40
1
40
1
40
1
10
20.4069518
20
14.1921206
30
0
10
20.7705895
20
15.1066256
30
0
10
21.2609591
20
14.4256022
30
0
10
21.3408731
20
12.8951043
30
0
0
SPLINE
5
6F
100
AcDbEntity
8
0
6
ByLayer
62
7
370
-1
100
AcDbSpline
210
0
220
0
230
1
70
8
71
3
72
8
73
4
74
0
42
1e-07
43
1e-07
40
0
40
0
40
0
40
0
40
1
40
1
40
1
40
1
10
21.3408731
20
12.8951043
30
0
10
21.4077062
20
11.6150761
30
0
10
20.9535175
20
9.9931862
30
0
10
20.0053948
20
8.1261665
30
0
0
SPLINE
5
70
100
AcDbEntity
8
0
6
ByLayer
62
7
370
-1
100
AcDbSpline
210
0
220
0
230
1
70
8
71
3
72
8
73
4
74
0
42
1e-07
43
1e-07
40
0
40
0
40
0
40
0
40
1
40
1
40
1
40
1
10
20.0053948
20
8.1261665
30
0
10
19.7650769
20
7.652936
30
0
10
19.3959218
20
6.7236835
30
0
10
19.1850481
20
6.0611606
30
0
0
SPLINE
5
71
100
AcDbEntity
8
0
6
ByLayer
62
7
370
-1
100
AcDbSpline
210
0
220
0
230
1
70
8
71
3
72
8
73
4
74
0
42
1e-07
43
1e-07
40
0
40
0
40
0
40
0
40
1
40
1
40
1
40
1
10
19.1850481
20
6.0611606
30
0
10
18.3989859
20
3.5914754
30
0
10
16.5534332
20
0.5088073
30
0
10
14.578665
20
-1.6329744
30
0
0
SPLINE
5
72
100
AcDbEntity
8
0
6
ByLayer
62
7
370
-1
100
AcDbSpline
210
0
220
0
230
1
70
8
71
3
72
8
73
4
74
0
42
1e-07
43
1e-07
40
0
40
0
40
0
40
0
40
1
40
1
40
1
40
1
10
14.578665
20
-1.6329744
30
0
10
13.876513
20
-2.3945143
30
0
10
11.8133642
20
-3.8479842
30
0
10
10.8492677
20
-4.2603024
30
0
0
SPLINE
5
73
100
AcDbEntity
8
0
6
ByLayer
62
7
370
-1
100
AcDbSpline
210
0
220
0
230
1
70
8
71
3
72
8
73
4
74
0
42
1e-07
43
1e-07
40
0
40
0
40
0
40
0
40
1
40
1
40
1
40
1
10
10.8492677
20
-4.2603024
30
0
10
9.0413719
20
-5.0334897
30
0
10
7.0650938
20
-5.5628793
30
0
10
4.3961242
20
-5.9889107
30
0
0
SPLINE
5
74
100
AcDbEntity
8
0
6
ByLayer
62
7
370
-1
100
AcDbSpline
210
0
220
0
230
1
70
8
71
3
72
8
73
4
74
0
42
1e-07
43
1e-07
40
0
40
0
40
0
40
0
40
1
40
1
40
1
40
1
10
4.3961242
20
-5.9889107
30
0
10
3.6552691
20
-6.1071702
30
0
10
-4.9659952
20
-6.2854613
30
0
10
-5.075592
20
-6.1847898
30
0
0
LWPOLYLINE
5
75
100
AcDbEntity
8
0
6
ByLayer
62
7
370
-1
100
AcDbPolyline
90
3
70
0
43
0
10
18.57391
20
15.1272204
10
19.7223738
20
16.3861889
10
20.0800877
20
15.9565446
0
LWPOLYLINE
5
76
100
AcDbEntity
8
0
6
ByLayer
62
7
370
-1
100
AcDbPolyline
90
3
70
0
43
0
10
-5.075592
20
-6.1847898
10
-5.075592
20
-6.1847898
10
-5.075592
20
-6.1847898
0
ENDSEC
0
SECTION
2
OBJECTS
0
DICTIONARY
5
C
330
0
100
AcDbDictionary
281
1
3
ACAD_GROUP
350
D
0
DICTIONARY
5
D
330
C
100
AcDbDictionary
281
1
0
ENDSEC
0
EOF
