999
dxfrw 0.6.3
  0
SECTION
  2
HEADER
  9
$ACADVER
  1
AC1021
  9
$DWGCODEPAGE
  3
ANSI_1252
  9
$INSBASE
 10
0
 20
0
 30
0
  9
$EXTMIN
 10
6.694453884278738
 20
8.694808694184911
 30
0
  9
$EXTMAX
 10
222.0000000003888
 20
112.9164738359054
 30
0
  9
$LIMMIN
 10
0
 20
0
  9
$LIMMAX
 10
420
 20
297
  9
$ORTHOMODE
 70
    0
  9
$REGENMODE
 70
    1
  9
$FILLMODE
 70
    1
  9
$QTEXTMODE
 70
    0
  9
$MIRRTEXT
 70
    0
  9
$LTSCALE
 40
1
  9
$ATTMODE
 70
    0
  9
$TEXTSIZE
 40
2.5
  9
$TRACEWID
 40
15.68
  9
$TEXTSTYLE
  7
STANDARD
  9
$CLAYER
  8
0
  9
$CELTYPE
  6
BYLAYER
  9
$CECOLOR
 62
  256
  9
$CELTSCALE
 40
1
  9
$DISPSILH
 70
    0
  9
$DIMSCALE
 40
1
  9
$DIMASZ
 40
2.5
  9
$DIMEXO
 40
0.625
  9
$DIMDLI
 40
3.75
  9
$DIMRND
 40
0
  9
$DIMDLE
 40
0
  9
$DIMEXE
 40
1.25
  9
$DIMTP
 40
0
  9
$DIMTM
 40
0
  9
$DIMTXT
 40
2.5
  9
$DIMCEN
 40
2.5
  9
$DIMTSZ
 40
0
  9
$DIMTOL
 70
    0
  9
$DIMLIM
 70
    0
  9
$DIMTIH
 70
    0
  9
$DIMTOH
 70
    0
  9
$DIMSE1
 70
    0
  9
$DIMSE2
 70
    0
  9
$DIMTAD
 70
    1
  9
$DIMZIN
 70
    8
  9
$DIMBLK
  1

  9
$DIMASO
 70
    1
  9
$DIMSHO
 70
    1
  9
$DIMPOST
  1

  9
$DIMAPOST
  1

  9
$DIMALT
 70
    0
  9
$DIMALTD
 70
    3
  9
$DIMALTF
 40
0.03937
  9
$DIMLFAC
 40
1
  9
$DIMTOFL
 70
    1
  9
$DIMTVP
 40
0
  9
$DIMTIX
 70
    0
  9
$DIMSOXD
 70
    0
  9
$DIMSAH
 70
    0
  9
$DIMBLK1
  1

  9
$DIMBLK2
  1

  9
$DIMSTYLE
  2
STANDARD
  9
$DIMCLRD
 70
    0
  9
$DIMCLRE
 70
    0
  9
$DIMCLRT
 70
    0
  9
$DIMTFAC
 40
1
  9
$DIMGAP
 40
0.625
  9
$DIMJUST
 70
    0
  9
$DIMSD1
 70
    0
  9
$DIMSD2
 70
    0
  9
$DIMTOLJ
 70
    0
  9
$DIMTZIN
 70
    8
  9
$DIMALTZ
 70
    0
  9
$DIMALTTZ
 70
    0
  9
$DIMUPT
 70
    0
  9
$DIMDEC
 70
    4
  9
$DIMTDEC
 70
    2
  9
$DIMALTU
 70
    2
  9
$DIMALTTD
 70
    3
  9
$DIMTXSTY
  7
STANDARD
  9
$DIMAUNIT
 70
    0
  9
$DIMADEC
 70
    0
  9
$DIMALTRND
 40
0
  9
$DIMAZIN
 70
    0
  9
$DIMDSEP
 70
   44
  9
$DIMATFIT
 70
    3
  9
$DIMFRAC
 70
    0
  9
$DIMLDRBLK
  1
STANDARD
  9
$DIMLUNIT
 70
    2
  9
$DIMLWD
 70
   -2
  9
$DIMLWE
 70
   -2
  9
$DIMTMOVE
 70
    0
  9
$DIMFXL
 40
1
  9
$DIMFXLON
 70
    0
  9
$DIMJOGANG
 40
0.7854
  9
$DIMTFILL
 70
    0
  9
$DIMTFILLCLR
 70
    0
  9
$DIMARCSYM
 70
    0
  9
$DIMLTYPE
  6

  9
$DIMLTEX1
  6

  9
$DIMLTEX2
  6

  9
$LUNITS
 70
    2
  9
$LUPREC
 70
    4
  9
$SKETCHINC
 40
1
  9
$FILLETRAD
 40
0
  9
$AUNITS
 70
    0
  9
$AUPREC
 70
    2
  9
$MENU
  1
.
  9
$ELEVATION
 40
0
  9
$PELEVATION
 40
0
  9
$THICKNESS
 40
0
  9
$LIMCHECK
 70
    0
  9
$CHAMFERA
 40
0
  9
$CHAMFERB
 40
0
  9
$CHAMFERC
 40
0
  9
$CHAMFERD
 40
0
  9
$SKPOLY
 70
    0
  9
$USRTIMER
 70
    1
  9
$ANGBASE
 50
0
  9
$ANGDIR
 70
    0
  9
$PDMODE
 70
   34
  9
$PDSIZE
 40
0
  9
$PLINEWID
 40
0
  9
$SPLFRAME
 70
    0
  9
$SPLINETYPE
 70
    2
  9
$SPLINESEGS
 70
    8
  9
$HANDSEED
  5
20000
  9
$SURFTAB1
 70
    6
  9
$SURFTAB2
 70
    6
  9
$SURFTYPE
 70
    6
  9
$SURFU
 70
    6
  9
$SURFV
 70
    6
  9
$UCSBASE
  2

  9
$UCSNAME
  2

  9
$UCSORG
 10
0
 20
0
 30
0
  9
$UCSXDIR
 10
1
 20
0
 30
0
  9
$UCSYDIR
 10
0
 20
1
 30
0
  9
$UCSORTHOREF
  2

  9
$UCSORTHOVIEW
 70
    0
  9
$UCSORGTOP
 10
0
 20
0
 30
0
  9
$UCSORGBOTTOM
 10
0
 20
0
 30
0
  9
$UCSORGLEFT
 10
0
 20
0
 30
0
  9
$UCSORGRIGHT
 10
0
 20
0
 30
0
  9
$UCSORGFRONT
 10
0
 20
0
 30
0
  9
$UCSORGBACK
 10
0
 20
0
 30
0
  9
$PUCSBASE
  2

  9
$PUCSNAME
  2

  9
$PUCSORG
 10
0
 20
0
 30
0
  9
$PUCSXDIR
 10
1
 20
0
 30
0
  9
$PUCSYDIR
 10
0
 20
1
 30
0
  9
$PUCSORTHOREF
  2

  9
$PUCSORTHOVIEW
 70
    0
  9
$PUCSORGTOP
 10
0
 20
0
 30
0
  9
$PUCSORGBOTTOM
 10
0
 20
0
 30
0
  9
$PUCSORGLEFT
 10
0
 20
0
 30
0
  9
$PUCSORGRIGHT
 10
0
 20
0
 30
0
  9
$PUCSORGFRONT
 10
0
 20
0
 30
0
  9
$PUCSORGBACK
 10
0
 20
0
 30
0
  9
$USERI1
 70
    0
  9
$USERI2
 70
    0
  9
$USERI3
 70
    0
  9
$USERI4
 70
    0
  9
$USERI5
 70
    0
  9
$USERR1
 40
0
  9
$USERR2
 40
0
  9
$USERR3
 40
0
  9
$USERR4
 40
0
  9
$USERR5
 40
0
  9
$WORLDVIEW
 70
    1
  9
$SHADEDGE
 70
    3
  9
$SHADEDIF
 70
   70
  9
$TILEMODE
 70
    1
  9
$MAXACTVP
 70
   64
  9
$PINSBASE
 10
0
 20
0
 30
0
  9
$PLIMCHECK
 70
    0
  9
$PEXTMIN
 10
0
 20
0
 30
0
  9
$PEXTMAX
 10
0
 20
0
 30
0
  9
$GRIDMODE
 70
    1
  9
$SNAPSTYLE
 70
    0
  9
$PLIMMIN
 10
0
 20
0
  9
$PLIMMAX
 10
21
 20
29.7
  9
$UNITMODE
 70
    0
  9
$VISRETAIN
 70
    1
  9
$PLINEGEN
 70
    0
  9
$PSLTSCALE
 70
    1
  9
$TREEDEPTH
 70
 3020
  9
$CMLSTYLE
  2
Standard
  9
$CMLJUST
 70
    0
  9
$CMLSCALE
 40
20
  9
$PROXYGRAPHICS
 70
    1
  9
$MEASUREMENT
 70
    1
  9
$CELWEIGHT
370
   -1
  9
$ENDCAPS
280
    0
  9
$JOINSTYLE
280
    0
  9
$LWDISPLAY
290
    0
  9
$INSUNITS
 70
    4
  9
$HYPERLINKBASE
  1

  9
$STYLESHEET
  1

  9
$XEDIT
290
    1
  9
$CEPSNTYPE
380
    0
  9
$PSTYLEMODE
290
    1
  9
$EXTNAMES
290
    1
  9
$PSVPSCALE
 40
1
  9
$OLESTARTUP
290
    0
  9
$SORTENTS
280
  127
  9
$INDEXCTL
280
    0
  9
$HIDETEXT
280
    1
  9
$XCLIPFRAME
290
    0
  9
$HALOGAP
280
    0
  9
$OBSCOLOR
 70
  257
  9
$OBSLTYPE
280
    0
  9
$INTERSECTIONDISPLAY
280
    0
  9
$INTERSECTIONCOLOR
 70
  257
  9
$DIMASSOC
280
    1
  9
$PROJECTNAME
  1

  9
$CAMERADISPLAY
290
    0
  9
$LENSLENGTH
 40
50
  9
$CAMERAHEIGHT
 40
0
  9
$STEPSPERSEC
 40
2
  9
$STEPSIZE
 40
50
  9
$3DDWFPREC
 40
2
  9
$PSOLWIDTH
 40
5
  9
$PSOLHEIGHT
 40
80
  9
$LOFTANG1
 40
1.570796326794897
  9
$LOFTANG2
 40
1.570796326794897
  9
$LOFTMAG1
 40
0
  9
$LOFTMAG2
 40
0
  9
$LOFTPARAM
 70
    7
  9
$LOFTNORMALS
280
    1
  9
$LATITUDE
 40
1
  9
$LONGITUDE
 40
1
  9
$NORTHDIRECTION
 40
0
  9
$TIMEZONE
 70
-8000
  9
$LIGHTGLYPHDISPLAY
280
    1
  9
$TILEMODELIGHTSYNCH
280
    1
  9
$SOLIDHIST
280
    1
  9
$SHOWHIST
280
    1
  9
$DWFFRAME
280
    2
  9
$DGNFRAME
280
    0
  9
$REALWORLDSCALE
290
    1
  9
$INTERFERECOLOR
 62
    1
  9
$CSHADOW
280
    0
  9
$SHADOWPLANELOCATION
 40
0
  0
ENDSEC
  0
SECTION
  2
CLASSES
  0
ENDSEC
  0
SECTION
  2
TABLES
  0
TABLE
  2
VPORT
  5
8
330
0
100
AcDbSymbolTable
 70
    1
  0
VPORT
  5
31
330
2
100
AcDbSymbolTableRecord
100
AcDbViewportTableRecord
  2
*ACTIVE
 70
    0
 10
0
 20
0
 11
1
 21
1
 12
148.7894144144144
 22
87.55630630630631
 13
0
 23
0
 14
10
 24
10
 15
10
 25
10
 16
0
 26
0
 36
1
 17
0
 27
0
 37
0
 40
187.5
 41
2.337837837837838
 42
50
 43
0
 44
0
 50
0
 51
0
 71
    0
 72
  100
 73
    1
 74
    3
 75
    0
 76
    1
 77
    0
 78
    0
281
    0
 65
    1
110
0
120
0
130
0
111
1
121
0
131
0
112
0
122
1
132
0
 79
    0
146
0
348
10020
 60
    7
 61
    5
292
1
282
    1
141
0
142
0
 63
  250
421
3358443
  0
ENDTAB
  0
TABLE
  2
LTYPE
  5
5
330
0
100
AcDbSymbolTable
 70
    4
  0
LTYPE
  5
14
330
5
100
AcDbSymbolTableRecord
100
AcDbLinetypeTableRecord
  2
ByBlock
 70
    0
  3

 72
   65
 73
    0
 40
0
  0
LTYPE
  5
15
330
5
100
AcDbSymbolTableRecord
100
AcDbLinetypeTableRecord
  2
ByLayer
 70
    0
  3

 72
   65
 73
    0
 40
0
  0
LTYPE
  5
16
330
5
100
AcDbSymbolTableRecord
100
AcDbLinetypeTableRecord
  2
Continuous
 70
    0
  3
Solid line
 72
   65
 73
    0
 40
0
  0
LTYPE
  5
32
330
5
100
AcDbSymbolTableRecord
100
AcDbLinetypeTableRecord
  2
DOT
 70
    0
  3
Dot . . . . . . . . . . . . . . . . . . . . . .
 72
   65
 73
    2
 40
6.35
 49
0
 74
    0
 49
-6.35
 74
    0
  0
LTYPE
  5
33
330
5
100
AcDbSymbolTableRecord
100
AcDbLinetypeTableRecord
  2
DOTTINY
 70
    0
  3
Dot (.15x) .....................................
 72
   65
 73
    2
 40
0.9525
 49
0
 74
    0
 49
-0.9525
 74
    0
  0
LTYPE
  5
34
330
5
100
AcDbSymbolTableRecord
100
AcDbLinetypeTableRecord
  2
DOT2
 70
    0
  3
Dot (.5x) .....................................
 72
   65
 73
    2
 40
3.175
 49
0
 74
    0
 49
-3.175
 74
    0
  0
LTYPE
  5
35
330
5
100
AcDbSymbolTableRecord
100
AcDbLinetypeTableRecord
  2
DOTX2
 70
    0
  3
Dot (2x) .  .  .  .  .  .  .  .  .  .  .  .  .
 72
   65
 73
    2
 40
12.7
 49
0
 74
    0
 49
-12.7
 74
    0
  0
LTYPE
  5
36
330
5
100
AcDbSymbolTableRecord
100
AcDbLinetypeTableRecord
  2
DASHED
 70
    0
  3
Dashed _ _ _ _ _ _ _ _ _ _ _ _ _ _ _ _ _
 72
   65
 73
    2
 40
19.05
 49
12.7
 74
    0
 49
-6.35
 74
    0
  0
LTYPE
  5
37
330
5
100
AcDbSymbolTableRecord
100
AcDbLinetypeTableRecord
  2
DASHEDTINY
 70
    0
  3
Dashed (.15x) _ _ _ _ _ _ _ _ _ _ _ _ _ _ _ _ _
 72
   65
 73
    2
 40
2.8575
 49
1.905
 74
    0
 49
-0.9525
 74
    0
  0
LTYPE
  5
38
330
5
100
AcDbSymbolTableRecord
100
AcDbLinetypeTableRecord
  2
DASHED2
 70
    0
  3
Dashed (.5x) _ _ _ _ _ _ _ _ _ _ _ _ _ _ _ _ _
 72
   65
 73
    2
 40
9.524999999999999
 49
6.35
 74
    0
 49
-3.175
 74
    0
  0
LTYPE
  5
39
330
5
100
AcDbSymbolTableRecord
100
AcDbLinetypeTableRecord
  2
DASHEDX2
 70
    0
  3
Dashed (2x) ____  ____  ____  ____  ____  ___
 72
   65
 73
    2
 40
38.09999999999999
 49
25.4
 74
    0
 49
-12.7
 74
    0
  0
LTYPE
  5
3A
330
5
100
AcDbSymbolTableRecord
100
AcDbLinetypeTableRecord
  2
DASHDOT
 70
    0
  3
Dash dot __ . __ . __ . __ . __ . __ . __ . __
 72
   65
 73
    4
 40
25.4
 49
12.7
 74
    0
 49
-6.35
 74
    0
 49
0
 74
    0
 49
-6.35
 74
    0
  0
LTYPE
  5
3B
330
5
100
AcDbSymbolTableRecord
100
AcDbLinetypeTableRecord
  2
DASHDOTTINY
 70
    0
  3
Dash dot (.15x) _._._._._._._._._._._._._._._.
 72
   65
 73
    4
 40
3.81
 49
1.905
 74
    0
 49
-0.9525
 74
    0
 49
0
 74
    0
 49
-0.9525
 74
    0
  0
LTYPE
  5
3C
330
5
100
AcDbSymbolTableRecord
100
AcDbLinetypeTableRecord
  2
DASHDOT2
 70
    0
  3
Dash dot (.5x) _._._._._._._._._._._._._._._.
 72
   65
 73
    4
 40
12.7
 49
6.35
 74
    0
 49
-3.175
 74
    0
 49
0
 74
    0
 49
-3.175
 74
    0
  0
LTYPE
  5
3D
330
5
100
AcDbSymbolTableRecord
100
AcDbLinetypeTableRecord
  2
DASHDOTX2
 70
    0
  3
Dash dot (2x) ____  .  ____  .  ____  .  ___
 72
   65
 73
    4
 40
50.8
 49
25.4
 74
    0
 49
-12.7
 74
    0
 49
0
 74
    0
 49
-12.7
 74
    0
  0
LTYPE
  5
3E
330
5
100
AcDbSymbolTableRecord
100
AcDbLinetypeTableRecord
  2
DIVIDE
 70
    0
  3
Divide ____ . . ____ . . ____ . . ____ . . ____
 72
   65
 73
    6
 40
31.75
 49
12.7
 74
    0
 49
-6.35
 74
    0
 49
0
 74
    0
 49
-6.35
 74
    0
 49
0
 74
    0
 49
-6.35
 74
    0
  0
LTYPE
  5
3F
330
5
100
AcDbSymbolTableRecord
100
AcDbLinetypeTableRecord
  2
DIVIDETINY
 70
    0
  3
Divide (.15x) __..__..__..__..__..__..__..__.._
 72
   65
 73
    6
 40
4.7625
 49
1.905
 74
    0
 49
-0.9525
 74
    0
 49
0
 74
    0
 49
-0.9525
 74
    0
 49
0
 74
    0
 49
-0.9525
 74
    0
  0
LTYPE
  5
40
330
5
100
AcDbSymbolTableRecord
100
AcDbLinetypeTableRecord
  2
DIVIDE2
 70
    0
  3
Divide (.5x) __..__..__..__..__..__..__..__.._
 72
   65
 73
    6
 40
15.875
 49
6.35
 74
    0
 49
-3.175
 74
    0
 49
0
 74
    0
 49
-3.175
 74
    0
 49
0
 74
    0
 49
-3.175
 74
    0
  0
LTYPE
  5
41
330
5
100
AcDbSymbolTableRecord
100
AcDbLinetypeTableRecord
  2
DIVIDEX2
 70
    0
  3
Divide (2x) ________  .  .  ________  .  .  _
 72
   65
 73
    6
 40
63.5
 49
25.4
 74
    0
 49
-12.7
 74
    0
 49
0
 74
    0
 49
-12.7
 74
    0
 49
0
 74
    0
 49
-12.7
 74
    0
  0
LTYPE
  5
42
330
5
100
AcDbSymbolTableRecord
100
AcDbLinetypeTableRecord
  2
BORDER
 70
    0
  3
Border __ __ . __ __ . __ __ . __ __ . __ __ .
 72
   65
 73
    6
 40
44.45
 49
12.7
 74
    0
 49
-6.35
 74
    0
 49
12.7
 74
    0
 49
-6.35
 74
    0
 49
0
 74
    0
 49
-6.35
 74
    0
  0
LTYPE
  5
43
330
5
100
AcDbSymbolTableRecord
100
AcDbLinetypeTableRecord
  2
BORDERTINY
 70
    0
  3
Border (.15x) __.__.__.__.__.__.__.__.__.__.__.
 72
   65
 73
    6
 40
6.6675
 49
1.905
 74
    0
 49
-0.9525
 74
    0
 49
1.905
 74
    0
 49
-0.9525
 74
    0
 49
0
 74
    0
 49
-0.9525
 74
    0
  0
LTYPE
  5
44
330
5
100
AcDbSymbolTableRecord
100
AcDbLinetypeTableRecord
  2
BORDER2
 70
    0
  3
Border (.5x) __.__.__.__.__.__.__.__.__.__.__.
 72
   65
 73
    6
 40
22.225
 49
6.35
 74
    0
 49
-3.175
 74
    0
 49
6.35
 74
    0
 49
-3.175
 74
    0
 49
0
 74
    0
 49
-3.175
 74
    0
  0
LTYPE
  5
45
330
5
100
AcDbSymbolTableRecord
100
AcDbLinetypeTableRecord
  2
BORDERX2
 70
    0
  3
Border (2x) ____  ____  .  ____  ____  .  ___
 72
   65
 73
    6
 40
88.89999999999999
 49
25.4
 74
    0
 49
-12.7
 74
    0
 49
25.4
 74
    0
 49
-12.7
 74
    0
 49
0
 74
    0
 49
-12.7
 74
    0
  0
LTYPE
  5
46
330
5
100
AcDbSymbolTableRecord
100
AcDbLinetypeTableRecord
  2
CENTER
 70
    0
  3
Center ____ _ ____ _ ____ _ ____ _ ____ _ ____
 72
   65
 73
    4
 40
50.8
 49
31.75
 74
    0
 49
-6.35
 74
    0
 49
6.35
 74
    0
 49
-6.35
 74
    0
  0
LTYPE
  5
47
330
5
100
AcDbSymbolTableRecord
100
AcDbLinetypeTableRecord
  2
CENTERTINY
 70
    0
  3
Center (.15x) ___ _ ___ _ ___ _ ___ _ ___ _ ___
 72
   65
 73
    4
 40
7.619999999999999
 49
4.7625
 74
    0
 49
-0.9525
 74
    0
 49
0.9525
 74
    0
 49
-0.9525
 74
    0
  0
LTYPE
  5
48
330
5
100
AcDbSymbolTableRecord
100
AcDbLinetypeTableRecord
  2
CENTER2
 70
    0
  3
Center (.5x) ___ _ ___ _ ___ _ ___ _ ___ _ ___
 72
   65
 73
    4
 40
28.575
 49
19.05
 74
    0
 49
-3.175
 74
    0
 49
3.175
 74
    0
 49
-3.175
 74
    0
  0
LTYPE
  5
49
330
5
100
AcDbSymbolTableRecord
100
AcDbLinetypeTableRecord
  2
CENTERX2
 70
    0
  3
Center (2x) ________  __  ________  __  _____
 72
   65
 73
    4
 40
101.6
 49
63.5
 74
    0
 49
-12.7
 74
    0
 49
12.7
 74
    0
 49
-12.7
 74
    0
  0
ENDTAB
  0
TABLE
  2
LAYER
  5
2
330
0
100
AcDbSymbolTable
 70
    1
  0
LAYER
  5
10
330
2
100
AcDbSymbolTableRecord
100
AcDbLayerTableRecord
  2
0
 70
    0
 62
    7
  6
CONTINUOUS
370
   -3
390
F
  0
ENDTAB
  0
TABLE
  2
STYLE
  5
3
330
0
100
AcDbSymbolTable
 70
    3
  0
STYLE
  5
4A
330
2
100
AcDbSymbolTableRecord
100
AcDbTextStyleTableRecord
  2
Standard
 70
    0
 40
0
 41
1
 50
0
 71
    0
 42
1
  3
txt
  4

  0
ENDTAB
  0
TABLE
  2
VIEW
  5
6
330
0
100
AcDbSymbolTable
 70
    0
  0
ENDTAB
  0
TABLE
  2
UCS
  5
7
330
0
100
AcDbSymbolTable
 70
    0
  0
ENDTAB
  0
TABLE
  2
APPID
  5
9
330
0
100
AcDbSymbolTable
 70
    1
  0
APPID
  5
12
330
9
100
AcDbSymbolTableRecord
100
AcDbRegAppTableRecord
  2
ACAD
 70
    0
  0
APPID
  5
4B
330
9
100
AcDbSymbolTableRecord
100
AcDbRegAppTableRecord
  2
LibreCad
 70
    0
  0
ENDTAB
  0
TABLE
  2
DIMSTYLE
  5
A
330
0
100
AcDbSymbolTable
 70
    1
100
AcDbDimStyleTable
 71
    1
  0
DIMSTYLE
105
4C
330
A
100
AcDbSymbolTableRecord
100
AcDbDimStyleTableRecord
  2
Standard
 70
    0
 40
1
 41
2.5
 42
0.625
 43
0.38
 44
1.25
 45
0
 46
0
 47
0
 48
0
 49
1
140
2.5
141
0.09
142
0
143
25.4
144
1
145
0
146
1
147
0.625
148
0
 71
    0
 72
    0
 73
    0
 74
    1
 75
    0
 76
    0
 77
    0
 78
    1
 79
    0
170
    0
171
    2
172
    0
173
    0
174
    0
175
    0
176
    0
177
    0
178
    0
179
    0
271
    4
272
    4
273
    2
274
    2
275
    0
276
    0
277
    2
278
    0
279
    0
280
    0
281
    0
282
    0
283
    1
284
    0
285
    0
286
    0
288
    0
289
    3
340
standard
341

371
   -2
372
   -2
  0
ENDTAB
  0
TABLE
  2
BLOCK_RECORD
  5
1
330
0
100
AcDbSymbolTable
 70
    2
  0
BLOCK_RECORD
  5
1F
330
1
100
AcDbSymbolTableRecord
100
AcDbBlockTableRecord
  2
*Model_Space
 70
    0
280
    1
281
    0
  0
BLOCK_RECORD
  5
1E
330
1
100
AcDbSymbolTableRecord
100
AcDbBlockTableRecord
  2
*Paper_Space
 70
    0
280
    1
281
    0
  0
ENDTAB
  0
ENDSEC
  0
SECTION
  2
BLOCKS
  0
BLOCK
  5
20
330
1F
100
AcDbEntity
  8
0
100
AcDbBlockBegin
  2
*Model_Space
 70
    0
 10
0
 20
0
 30
0
  3
*Model_Space
  1

  0
ENDBLK
  5
21
330
1F
100
AcDbEntity
  8
0
100
AcDbBlockEnd
  0
BLOCK
  5
1C
330
1B
100
AcDbEntity
  8
0
100
AcDbBlockBegin
  2
*Paper_Space
 70
    0
 10
0
 20
0
 30
0
  3
*Paper_Space
  1

  0
ENDBLK
  5
1D
330
1F
100
AcDbEntity
  8
0
100
AcDbBlockEnd
  0
ENDSEC
  0
SECTION
  2
ENTITIES
  0
LINE
  5
4D
100
AcDbEntity
  8
0
  6
ByLayer
 62
  256
370
   -1
100
AcDbLine
 10
197.640874568
 20
84.02084927200001
 11
197.640874568
 21
84.02084927200001
  0
LWPOLYLINE
  5
4E
100
AcDbEntity
  8
0
  6
ByLayer
 62
  256
370
   -1
100
AcDbPolyline
 90
  151
 70
    1
 43
0
 10
215.604416667
 20
73.7765833333
 10
215.761403567
 20
73.698136326
 10
215.913654936
 20
73.6058402205
 10
216.059943859
 20
73.50091669619999
 10
216.199043421
 20
73.3845874326
 10
216.32972671
 20
73.25807410909999
 10
216.45076681
 20
73.12259840519999
 10
216.560936808
 20
72.9793820002
 10
216.65900979
 20
72.8296465736
 10
216.743758843
 20
72.6746138048
 10
216.814040867
 20
72.5155387641
 10
216.87017397
 20
72.3542586416
 10
216.913717405
 20
72.19310507829999
 10
216.946269858
 20
72.03442542640001
 10
216.96943002
 20
71.8805670376
 10
216.984796576
 20
71.7338772638
 10
216.993968217
 20
71.59670345710001
 10
216.998543629
 20
71.4713929692
 10
217.000121501
 20
71.3602931521
 10
217.0003
 20
71.26574931
 10
217.0003
 20
71.18862222049999
 10
217.0003
 20
71.12567127130001
 10
217.0003
 20
71.07295351569999
 10
217.0003
 20
71.0265260068
 10
217.0003
 20
70.9824457978
 10
217.0003
 20
70.93676994179999
 10
217.0003
 20
70.88555549199999
 10
217.0003
 20
70.8248595014
 10
217.0003
 20
70.7507390233
 10
217.000213417
 20
70.6595915716
 10
216.999019605
 20
70.55148759399999
 10
216.995128007
 20
70.4287385425
 10
216.986939935
 20
70.293687843
 10
216.9728567
 20
70.14867892159999
 10
216.951279615
 20
69.9960552041
 10
216.920609991
 20
69.83816011650001
 10
216.87924914
 20
69.6773370849
 10
216.825598375
 20
69.5159295351
 10
216.758066365
 20
69.3562779823
 10
216.67595214
 20
69.2003707113
 10
216.580283938
 20
69.04951192439999
 10
216.472288674
 20
68.9049272269
 10
216.353193261
 20
68.7678422242
 10
216.224224614
 20
68.6394825216
 10
216.086609647
 20
68.5210737245
 10
215.941575273
 20
68.4138414383
 10
215.790348406
 20
68.3190112682
 10
215.634155962
 20
68.23780881970001
 10
215.474324558
 20
68.1712072597
 10
215.312888829
 20
68.1183871779
 10
215.152189785
 20
68.0777534643
 10
214.994569662
 20
68.0477079068
 10
214.842370697
 20
68.026652293
 10
214.697935127
 20
68.01298841080001
 10
214.563605186
 20
68.005118048
 10
214.441723113
 20
68.0014429923
 10
214.334631143
 20
68.00036503139999
 10
214.244616274
 20
68.0003
 10
214.17146344
 20
68.0003
 10
214.111485783
 20
68.0003
 10
214.060740711
 20
68.0003
 10
214.015285636
 20
68.0003
 10
213.971177966
 20
68.0003
 10
213.924475112
 20
68.0003
 10
213.871234485
 20
68.0003
 10
213.807513494
 20
68.0003
 10
213.729369548
 20
68.0003
 10
213.633723852
 20
68.000519481
 10
213.521667098
 20
68.00223735110001
 10
213.395546382
 20
68.0070517573
 10
213.257709057
 20
68.016560912
 10
213.110502475
 20
68.0323630274
 10
212.956273987
 20
68.0560563156
 10
212.797370946
 20
68.08923898889999
 10
212.636140703
 20
68.1335092596
 10
212.474930609
 20
68.1904653399
 10
212.316064567
 20
68.2616466125
 10
212.161327091
 20
68.3472393808
 10
212.011963311
 20
68.446076869
 10
211.869194909
 20
68.55693347170001
 10
211.734243562
 20
68.6785835836
 10
211.608330951
 20
68.8098015993
 10
211.492678755
 20
68.9493619135
 10
211.388508653
 20
69.0960389207
 10
211.297042325
 20
69.2486070157
 10
211.219501335
 20
69.40584054759999
 10
211.156544243
 20
69.5662905834
 10
211.106961218
 20
69.7277672064
 10
211.069155357
 20
69.8879269908
 10
211.041529757
 20
70.0444265104
 10
211.022487513
 20
70.19492233939999
 10
211.010431723
 20
70.33707105169999
 10
211.003765482
 20
70.4685292214
 10
211.000891888
 20
70.5869534225
 10
211.000214035
 20
70.69000022900001
 10
211.0002
 20
70.7755820081
 10
211.0002
 20
70.84508377509999
 10
211.0002
 20
70.90239322550001
 10
211.0002
 20
70.951453306
 10
211.0002
 20
70.9962069636
 10
211.0002
 20
71.04059714509999
 10
211.0002
 20
71.0885667973
 10
211.0002
 20
71.1440588671
 10
211.0002
 20
71.21101630139999
 10
211.000201754
 20
71.2933751363
 10
211.000645685
 20
71.3933434697
 10
211.002985939
 20
71.50913627840001
 10
211.00881942
 20
71.63840621040001
 10
211.01974303
 20
71.7788059138
 10
211.037353675
 20
71.9279880367
 10
211.063248257
 20
72.0836052272
 10
211.099023679
 20
72.2433101333
 10
211.146276847
 20
72.4047554033
 10
211.206604662
 20
72.5655936851
 10
211.281405847
 20
72.7235567757
 10
211.370354211
 20
72.87706536020001
 10
211.472235413
 20
73.02489482759999
 10
211.585827774
 20
73.16582349860001
 10
211.709909615
 20
73.2986296938
 10
211.843259256
 20
73.4220917336
 10
211.984655018
 20
73.5349879388
 10
212.132875222
 20
73.63609662979999
 10
212.286698188
 20
73.7241961272
 10
212.444896511
 20
73.7980790877
 10
212.605841499
 20
73.8575429533
 10
212.767246767
 20
73.90403197720001
 10
212.926764961
 20
73.9391430631
 10
213.082048729
 20
73.9644731146
 10
213.230750721
 20
73.9816190351
 10
213.370523584
 20
73.99217772830001
 10
213.499019966
 20
73.99774609790001
 10
213.613892515
 20
73.99992104730001
 10
213.712793879
 20
74.0002994802
 10
213.794079002
 20
74.0003
 10
213.860203983
 20
74.0003
 10
213.915109364
 20
74.0003
 10
213.962737736
 20
74.0003
 10
214.007031688
 20
74.0003
 10
214.05193381
 20
74.0003
 10
214.101386693
 20
74.0003
 10
214.159332926
 20
74.0003
 10
214.2297151
 20
74.0003
 10
214.316388088
 20
74.00027771249999
 10
214.420446157
 20
73.9995094106
 10
214.539733499
 20
73.99644555970001
 10
214.671907876
 20
73.98948925640001
 10
214.814627054
 20
73.97704359700001
 10
214.965548795
 20
73.957511678
 10
215.122330863
 20
73.92929659559999
 10
215.282631022
 20
73.89080144650001
 10
215.444107035
 20
73.84042932689999
  0
LWPOLYLINE
  5
4F
100
AcDbEntity
  8
0
  6
CONTINUOUS
 62
    7
370
   -3
100
AcDbPolyline
 90
 3691
 70
    0
 43
0
 10
215.3978684777751
 20
78.87692603203217
 42
-0.04521811503708439
 10
212.0889303534729
 20
79.77850264313511
 10
211.3554654860999
 20
80.05155732802238
 10
211.2595096846437
 20
80.09046279211346
 10
211.173131227769
 20
80.13561253037449
 10
211.0602783597341
 20
80.20617797801216
 10
210.9263566097026
 20
80.30209623561139
 10
210.7753254419077
 20
80.42258647044905
 10
210.6101058397017
 20
80.56661035112386
 10
210.4329038404553
 20
80.73307145009404
 10
210.2454378127928
 20
80.9208948881104
 10
210.0490918292903
 20
81.12905419828026
 10
209.8450181040023
 20
81.35657606160221
 10
209.634205647539
 20
81.60253638918506
 10
209.4175268884461
 20
81.86605364306898
 10
209.1957696186105
 20
82.14628191754683
 10
208.9696593298825
 20
82.442404609592
 10
208.7398749740099
 20
82.75362907447335
 10
208.5070602582816
 20
83.07918213752461
 10
208.2718319431891
 20
83.41830638230834
 10
208.0347858825689
 20
83.77025720851158
 10
207.7965015305539
 20
84.13430036289506
 10
207.5575454181974
 20
84.5097098868345
 10
207.3184737308314
 20
84.89576651381232
 10
207.0798342893831
 20
85.29175625938534
 10
206.84216815458
 20
85.69696923061589
 10
206.6060108006444
 20
86.11069865628608
 10
206.3718930908231
 20
86.53223997924262
 10
206.1403420126611
 20
86.96089013152516
 10
205.9118812375797
 20
87.39594678037498
 10
205.6870316269832
 20
87.83670771073903
 10
205.4637787176353
 20
88.28758534811946
 10
205.3649579366746
 20
88.48753580150678
 10
205.2626671079179
 20
88.6890812477581
 10
205.1595572913002
 20
88.88696490154943
 10
205.055761675314
 20
89.08102076087908
 10
204.9514103110986
 20
89.27108488841486
 10
204.8466295716956
 20
89.45699584622581
 10
204.7415414719532
 20
89.63859527237805
 10
204.636262796914
 20
89.81572851939488
 10
204.5309040211883
 20
89.98824546516649
 10
204.4255679215142
 20
90.15600139327226
 10
204.3203478928637
 20
90.31885807029995
 10
204.2153256424162
 20
90.47668511944502
 10
204.1105683577578
 20
90.62936153792728
 10
204.0061249248726
 20
90.77677760910393
 10
203.9020209827771
 20
90.91883718544202
 10
203.7982523150428
 20
91.05546041585433
 10
203.6947759720988
 20
91.18658700321585
 10
203.591498140982
 20
91.31217998077199
 10
203.4882575813015
 20
91.43222983298064
 10
203.3848023763571
 20
91.54675893875891
 10
203.2807572953354
 20
91.65582522423598
 10
203.1755774182789
 20
91.7595235073057
 10
203.0684816449187
 20
91.85798069749477
 10
202.9583577058119
 20
91.95133687013031
 10
202.8436275971399
 20
92.03969613726423
 10
202.7220640072422
 20
92.1230145908885
 10
202.5905622078579
 20
92.20086208868616
 10
202.4449260177772
 20
92.27194477213575
 10
202.2798819750467
 20
92.33322387495024
 10
202.0898869643229
 20
92.37853429131196
 10
201.9061335414917
 20
92.39424434521135
 10
201.7767151652097
 20
92.39107514416942
 10
201.6777676900497
 20
92.38522093486328
 10
201.5753062672218
 20
92.37675224131655
 10
201.4661468466785
 20
92.36587248325421
 10
201.3488112144665
 20
92.35265957493944
 10
201.222622984031
 20
92.33716168392209
 10
201.0873231009365
 20
92.3194230466802
 10
200.942887192263
 20
92.29949079280362
 10
200.7894310467599
 20
92.27741624481691
 10
200.6271584268692
 20
92.25325462967902
 10
200.4563305153251
 20
92.22706442644869
 10
200.2772472697136
 20
92.19890670523563
 10
200.090235583319
 20
92.16884457866655
 10
199.8956415366122
 20
92.13694275592088
 10
199.6938251907998
 20
92.10326720706621
 10
199.4851568970453
 20
92.06788488583905
 10
199.2700148307781
 20
92.03086353294216
 10
199.0487830528604
 20
91.99227151332568
 10
198.8218502160373
 20
91.95217768113113
 10
198.589608537969
 20
91.91065128997192
 10
198.3524530280408
 20
91.86776191123153
 10
198.1107808916979
 20
91.82357936363775
 10
197.8649910911572
 20
91.77817366459443
 10
197.6154839534261
 20
91.73161498348119
 10
197.3626609017584
 20
91.68397360891198
 10
197.1069241697485
 20
91.63531990769167
 10
196.8486766519387
 20
91.58572429954206
 10
196.5883216959886
 20
91.5352572354309
 10
196.3262629528813
 20
91.48398916104975
 10
196.0629042378828
 20
91.4319905003149
 10
195.8048936914552
 20
91.38057594067935
 10
195.2257887368877
 20
91.27175354917063
 10
194.6110971053682
 20
91.16956319860057
 10
193.9578627796316
 20
91.07306358411711
 10
193.2697698783497
 20
90.98249638331848
 10
192.550369518292
 20
90.89803997353836
 10
191.803119046417
 20
90.819831774196
 10
191.031408564746
 20
90.74798192035652
 10
190.2385793550127
 20
90.68258189731206
 10
189.4279368938444
 20
90.62371011635524
 10
188.6027603467442
 20
90.5714355972178
 10
187.7663096338053
 20
90.52582043257419
 10
186.9218308868349
 20
90.48692145895572
 10
186.0725608187372
 20
90.4547913635872
 10
185.2217304058886
 20
90.4294794180482
 10
184.3725681386386
 20
90.41103190255457
 10
183.5283031471236
 20
90.3994922895473
 10
182.6921684148365
 20
90.39490118989937
 10
181.8674042833218
 20
90.39729606887272
 10
181.0572626078665
 20
90.40671063925892
 10
180.2650119061818
 20
90.42317388823543
 10
179.4939439969271
 20
90.44670850399775
 10
178.7473830049773
 20
90.47732846679918
 10
178.028697729648
 20
90.51503527033928
 10
177.3413194123154
 20
90.55981193478455
 10
176.6887676929127
 20
90.61161329384565
 10
176.0746898314567
 20
90.67034974569236
 10
175.5029215183939
 20
90.73585910076015
 10
174.9775844476655
 20
90.80785572424818
 10
174.5032481455065
 20
90.88583411952443
 10
174.0852079281214
 20
90.96887549987811
 10
173.715138160585
 20
91.05884128459708
 10
173.5772253319367
 20
91.09614702445117
 10
173.4223776374262
 20
91.13796854019824
 10
173.2635571086789
 20
91.1807994547612
 10
173.1011203818476
 20
91.22454317736519
 10
172.9354245338146
 20
91.26910299276685
 10
172.7668270086937
 20
91.31438207950302
 10
172.5956855306211
 20
91.36028353789332
 10
172.4223580145423
 20
91.40671041788595
 10
172.247202504727
 20
91.45356572675905
 10
172.0705771440614
 20
91.5007524423193
 10
171.8928401418897
 20
91.54817352634028
 10
171.7143496896776
 20
91.5957319403865
 10
171.5354639475785
 20
91.64333065268647
 10
171.3565410108667
 20
91.69087264058459
 10
171.1779388720484
 20
91.73826091144457
 10
171.0000153647822
 20
91.78539850929305
 10
170.8231281162339
 20
91.83218852619117
 10
170.6476344981454
 20
91.87853412306765
 10
170.4738915420747
 20
91.9243385342599
 10
170.3022559044908
 20
91.96950509598186
 10
170.1330837027987
 20
92.0139372698988
 10
169.966730453695
 20
92.0575386704237
 10
169.8035508551972
 20
92.10021310696173
 10
169.6438986434335
 20
92.14186462200558
 10
169.4881263111508
 20
92.18239756252844
 10
169.3365847345833
 20
92.22171666338835
 10
169.1896227296999
 20
92.25972714828376
 10
169.0475864278263
 20
92.29633487917438
 10
168.9108183796924
 20
92.33144655782435
 10
168.7796563313751
 20
92.36497000980782
 10
168.6603518345182
 20
92.39530902344744
 10
168.5503284073808
 20
92.42455996614066
 10
168.435102848292
 20
92.45771339458861
 10
168.3094400254012
 20
92.4962473756207
 10
168.1743149542649
 20
92.53992579995717
 10
168.0305563931991
 20
92.58851433499179
 10
167.8788914518922
 20
92.64178324710038
 10
167.7199749117312
 20
92.69950814807953
 10
167.5544090911494
 20
92.76146981340661
 10
167.3827576072098
 20
92.82745365074609
 10
167.205555090504
 20
92.89724906538039
 10
167.0233141494038
 20
92.97064884498467
 10
166.836530484014
 20
93.04744859336418
 10
166.6456866879824
 20
93.12744622094941
 10
166.45125515659
 20
93.2104415045259
 10
166.2537002671209
 20
93.2962357114323
 10
166.0534801186932
 20
93.38463125411712
 10
165.8510478947478
 20
93.47543140805742
 10
165.6468529508103
 20
93.56844002187626
 10
165.4413417778729
 20
93.66346127679489
 10
165.2349586989485
 20
93.76029944540127
 10
165.0281465992428
 20
93.85875865572784
 10
164.821347451792
 20
93.958642643197
 10
164.6150029570915
 20
94.05975449426344
 10
164.4095549466001
 20
94.16189638659793
 10
164.2054460145687
 20
94.26486924800908
 10
164.0031199967947
 20
94.36847241348836
 10
163.8030225443764
 20
94.47250321444395
 10
163.6056017669728
 20
94.57675644723106
 10
163.4113089599735
 20
94.68102378836826
 10
163.2205993912916
 20
94.78509300925475
 10
163.0322046471136
 20
94.88970698575623
 10
162.8414962316655
 20
94.99656619690529
 10
162.6471729619521
 20
95.105454369478
 10
162.4512690987726
 20
95.2152316784935
 10
162.2541494238496
 20
95.32569374788444
 10
162.0561787090955
 20
95.43663620559305
 10
161.8577217585279
 20
95.54785467549709
 10
161.6591433174465
 20
95.65914479596063
 10
161.460808189628
 20
95.77030218302049
 10
161.263081154466
 20
95.88112246737343
 10
161.0663269996295
 20
95.99140126610517
 10
160.8709105216199
 20
96.10093420579541
 10
160.6771965224054
 20
96.2095168935009
 10
160.4855498115494
 20
96.31694494597929
 10
160.2963352212247
 20
96.42301395782026
 10
160.1099175856345
 20
96.52751952994572
 10
159.9266617497671
 20
96.63025724624706
 10
159.746932618612
 20
96.73102267241092
 10
159.5710950836547
 20
96.82961136721431
 10
159.3995140970602
 20
96.92581886434975
 10
159.232554641149
 20
97.01944067607302
 10
159.0705817692212
 20
97.11027227478165
 10
158.9139606254874
 20
97.19810908629981
 10
158.7630564060163
 20
97.2827465082631
 10
158.6182344686997
 20
97.36397983094416
 10
158.4798603798383
 20
97.4416042539343
 10
158.3482998750768
 20
97.51541486057694
 10
158.2239191000586
 20
97.5852065102238
 10
158.1070846773999
 20
97.65077379737041
 10
157.998163974766
 20
97.71191089177709
 10
157.8975255063818
 20
97.76841132324427
 10
157.806047798147
 20
97.8197822057211
 10
157.7116807469437
 20
97.87293785571121
 10
157.601504408702
 20
97.93527701225489
 10
157.4756676744491
 20
98.00671212092733
 10
157.3348481079173
 20
98.08685621054642
 10
157.1796724094603
 20
98.17535037851823
 10
157.0107401285885
 20
98.27185080604823
 10
156.8286352093125
 20
98.37602235125763
 10
156.6339322125638
 20
98.48753512970363
 10
156.427199649818
 20
98.60606265369705
 10
156.20900205774
 20
98.73128065190889
 10
155.9799013185629
 20
98.86286636711704
 10
155.7404573796939
 20
99.00049812874954
 10
155.4912288266375
 20
99.14385503596687
 10
155.2327732544861
 20
99.29261673915643
 10
154.9656475425319
 20
99.44646330876336
 10
154.6904079792841
 20
99.60507514026965
 10
154.4076104526849
 20
99.76813285618087
 10
154.1178105269531
 20
99.93531727289773
 10
153.8215634966018
 20
100.1063093478243
 10
153.5194244738945
 20
100.2807901512349
 10
153.2119484078964
 20
100.4584408374124
 10
152.8996901475002
 20
100.6389426237376
 10
152.5832044402216
 20
100.8219767829566
 10
152.2630459740409
 20
101.0072246138706
 10
151.9397694117431
 20
101.194367446296
 10
151.6139293546091
 20
101.3830866224798
 10
151.2860804451848
 20
101.5730634808875
 10
150.9567772887945
 20
101.7639793685845
 10
150.6265745233301
 20
101.955515613633
 10
150.2960268320496
 20
102.1473535152003
 10
149.9645109067775
 20
102.3398584113495
 10
149.6288733156163
 20
102.5336456215982
 10
149.2883919957506
 20
102.7279427846205
 10
148.9449011509152
 20
102.9217509218608
 10
148.5990252397721
 20
103.1147687477253
 10
148.2513903097119
 20
103.3066934087681
 10
147.9026235587102
 20
103.4972208244048
 10
147.5533529195895
 20
103.6860459629753
 10
147.2042067520302
 20
103.872863068078
 10
146.8558134557741
 20
104.0573659006383
 10
146.508801109787
 20
104.2392479340157
 10
146.1637970871393
 20
104.4182025628121
 10
145.8214276113073
 20
104.5939232989583
 10
145.4823172862782
 20
104.7661039824592
 10
145.1470885397626
 20
104.9344390027779
 10
144.8163609287881
 20
105.0986235526539
 10
144.4907503372115
 20
105.2583539165948
 10
144.1708678994531
 20
105.4133278109218
 10
143.8573187340313
 20
105.5632447856004
 10
143.5507002283589
 20
105.7078067248541
 10
143.2515998279912
 20
105.8467184655112
 10
142.9605920418925
 20
105.9796885875396
 10
142.6782344340874
 20
106.1064303970932
 10
142.4050620944244
 20
106.2266632054816
 10
142.1415797886933
 20
106.3401140083084
 10
141.8882506782672
 20
106.446519652081
 10
141.6454798257937
 20
106.545629644305
 10
141.4135891807737
 20
106.6372098042512
 10
141.1927786746094
 20
106.7210468257671
 10
140.9830636369124
 20
106.7969535210614
 10
140.7841700794354
 20
106.8647735017017
 10
140.6056507249742
 20
106.9211293658692
 10
140.4493561399792
 20
106.9692517688528
 10
140.2977523972108
 20
107.0179232745428
 10
140.1417377758378
 20
107.0699233550666
 10
139.9818003524743
 20
107.1250707389526
 10
139.8184082354279
 20
107.1831843097274
 10
139.6520138183551
 20
107.2440832907727
 10
139.4830569834964
 20
107.3075873258264
 10
139.3119676077943
 20
107.3735164583899
 10
139.1391676394438
 20
107.441691030671
 10
138.9650727192879
 20
107.5119315751093
 10
138.7900935791532
 20
107.5840586378278
 10
138.6146371337824
 20
107.6578926377421
 10
138.4391074708547
 20
107.7332536330809
 10
138.263906773048
 20
107.8099611042926
 10
138.0894360217373
 20
107.8878337010022
 10
137.9160958320356
 20
107.9666889262395
 10
137.7442871200988
 20
108.046342796162
 10
137.5744118925224
 20
108.1266094083723
 10
137.4068740368235
 20
108.2073004363199
 10
137.242080148017
 20
108.2882245219956
 10
137.080440570257
 20
108.3691864676002
 10
136.9223705429866
 20
108.4499862839286
 10
136.7682914962665
 20
108.5304179545546
 10
136.6186328278877
 20
108.6102677909266
 10
136.4738338232348
 20
108.6893124014846
 10
136.3343462548506
 20
108.7673158736168
 10
136.200637705088
 20
108.8440260339063
 10
136.0731956577374
 20
108.9191694082497
 10
135.9525328614254
 20
108.9924442309527
 10
135.8391944659008
 20
109.0635105327824
 10
135.7286370297326
 20
109.1353077440519
 10
135.6097675907586
 20
109.2134559540946
 10
135.4812490661335
 20
109.2969177694155
 10
135.3482837549471
 20
109.3823070873006
 10
135.2111317473991
 20
109.469484160771
 10
135.0700645493415
 20
109.5582997702642
 10
134.9253625573295
 20
109.6485974846198
 10
134.7773129673352
 20
109.7402154232213
 10
134.6262083089953
 20
109.8329874437414
 10
134.4723453917009
 20
109.9267440668653
 10
134.3160243185903
 20
110.0213132200235
 10
134.1575478078661
 20
110.1165207904605
 10
133.9972205846682
 20
110.2121910585281
 10
133.8353489855832
 20
110.3081470237435
 10
133.6722404859528
 20
110.4042107352315
 10
133.5082033567339
 20
110.500203511403
 10
133.343546369719
 20
110.5959461600819
 10
133.1785784961882
 20
110.6912591358181
 10
133.0136086406254
 20
110.7859627475934
 10
132.8489452941388
 20
110.8798772955011
 10
132.6848963164746
 20
110.9728232426258
 10
132.5217684924326
 20
111.0646213896789
 10
132.3598672714512
 20
111.1550930330044
 10
132.1994962405314
 20
111.2440601816228
 10
132.0409566452295
 20
111.3313457891977
 10
131.8845466847347
 20
111.4167740274091
 10
131.7305607730109
 20
111.5001706002164
 10
131.5792884373433
 20
111.5813631686313
 10
131.4310130534164
 20
111.6601818337422
 10
131.2860100543656
 20
111.7364597956906
 10
131.1445446489152
 20
111.8100341580096
 10
131.0074897594211
 20
111.8804280092103
 10
130.7853303471748
 20
111.9933499702228
 10
130.5745740698618
 20
112.099387364899
 10
130.3734354023211
 20
112.1990771713559
 10
130.1808555821929
 20
112.2925639079781
 10
129.9957311181761
 20
112.3799819900811
 10
129.8169134176901
 20
112.4614436008259
 10
129.6432126377156
 20
112.5370218382253
 10
129.4734090940787
 20
112.6067285495523
 10
129.3062758671202
 20
112.670487359926
 10
129.1406172463918
 20
112.7281041647146
 10
128.9753269805779
 20
112.7792405082259
 10
128.8094672366436
 20
112.8233992164777
 10
128.6423625641595
 20
112.8599352355579
 10
128.4736924818098
 20
112.8881047949842
 10
128.3035548426253
 20
112.907159227298
 10
128.1324666869496
 20
112.9164738359054
 10
127.9612787450444
 20
112.9156818171637
 10
127.791006546747
 20
112.9047698829364
 10
127.6226155178987
 20
112.8840986511858
 10
127.4568189297996
 20
112.8543383684709
 10
127.2939418397629
 20
112.8163440409765
 10
127.1338746237647
 20
112.771013645877
 10
126.9761060872198
 20
112.7191696532758
 10
126.8198056745448
 20
112.6614853100459
 10
126.6639217072715
 20
112.598456768876
 10
126.5072718294162
 20
112.5304095669491
 10
126.3486143606663
 20
112.4575247841916
 10
126.1866979088299
 20
112.3798724353659
 10
126.0202922165387
 20
112.2974440408016
 10
125.8482051449124
 20
112.2101805137425
 10
125.6667943490479
 20
112.1167080676639
 10
125.3288789263764
 20
111.9384801034753
 10
124.9618586932617
 20
111.7391572525388
 10
124.5698827183979
 20
111.5212603852218
 10
124.1547493772806
 20
111.2860308991261
 10
123.7184216455884
 20
111.0347777940204
 10
123.2629638546018
 20
110.7688537051828
 10
122.7905054430298
 20
110.4896403557298
 10
122.3032190292184
 20
110.1985393581471
 10
121.8033066310544
 20
109.8969661765418
 10
121.2929907547505
 20
109.5863460622977
 10
120.7745082127954
 20
109.2681112042669
 10
120.2501059350118
 20
108.9436986345615
 10
119.7220378336819
 20
108.6145486890613
 10
119.1925624007295
 20
108.2821037216615
 10
118.6639408141337
 20
107.947807045983
 10
118.138435234186
 20
107.6131019338633
 10
117.618307177377
 20
107.2794305933717
 10
117.1058158881097
 20
106.9482330449982
 10
116.6032163788777
 20
106.6209457694797
 10
116.1127570866915
 20
106.2989999457673
 10
115.6366767896896
 20
105.9838190864168
 10
115.1772003668908
 20
105.6768156859122
 10
114.7365326568446
 20
105.3793862590996
 10
114.3168493821808
 20
105.0929037826273
 10
113.9202830018835
 20
104.8187056622094
 10
113.5488999945839
 20
104.558073797581
 10
113.2046624663484
 20
104.3121998503838
 10
112.8893599944194
 20
104.0821211051368
 10
112.6044803753459
 20
103.8685931500854
 10
112.350944892146
 20
103.6718131940117
 10
112.1375281170095
 20
103.4980857752902
 10
112.0434048899056
 20
103.4197196688063
 10
111.956428777019
 20
103.3485177432297
 10
111.8692841245104
 20
103.2783593187255
 10
111.7821572059226
 20
103.2093681879726
 10
111.6952354264823
 20
103.1416675504514
 10
111.6087075730939
 20
103.0753802226516
 10
111.5227644596074
 20
103.0106290402543
 10
111.4375994475002
 20
102.9475372048817
 10
111.3534090963074
 20
102.8862285666613
 10
111.2703941316685
 20
102.8268281280276
 10
111.1887603676042
 20
102.769462401068
 10
111.1087200215894
 20
102.714259902632
 10
111.0304934431778
 20
102.66135180208
 10
110.9543111256689
 20
102.6108725493682
 10
110.8804164160996
 20
102.5629606689207
 10
110.8090691189602
 20
102.5177597536423
 10
110.7405502158947
 20
102.4754196144549
 10
110.6751682597343
 20
102.4360976661079
 10
110.6132680600154
 20
102.3999605356249
 10
110.5552429345264
 20
102.3671859937581
 10
110.5015518957644
 20
102.3379650187672
 10
110.4527444751436
 20
102.312503773531
 10
110.4094974793353
 20
102.2910249973286
 10
110.3726700981541
 20
102.2737670961223
 10
110.3433888524058
 20
102.2609775061613
 10
110.3231816969303
 20
102.2528921842108
 10
110.3141940252707
 20
102.249681817759
 10
110.3195421577768
 20
102.2513182065023
 10
110.3438901957839
 20
102.2572458676951
 10
110.3943411461366
 20
102.2655719356658
 10
110.3938095202733
 20
102.2655383181195
 10
110.2741431839428
 20
102.2534378931882
 10
110.125491560826
 20
102.217841041272
 10
110.0080581715608
 20
102.179118712674
 10
109.9038815912912
 20
102.1381215632061
 10
109.8044697707045
 20
102.0942599300523
 10
109.7054806774736
 20
102.0469079087845
 10
109.6045587610629
 20
101.9956142890469
 10
109.5003806007695
 20
101.9400925928898
 10
109.3921974709423
 20
101.8801802281087
 10
109.2795996903769
 20
101.8158030839594
 10
109.1623874578271
 20
101.7469497246409
 10
109.0404962206932
 20
101.6736534215268
 10
108.9139515823402
 20
101.5959796877206
 10
108.7828410815667
 20
101.5140176512704
 10
108.6472958295981
 20
101.4278739370592
 10
108.5074783848757
 20
101.3376683596443
 10
108.3635743477924
 20
101.2435307729785
 10
108.2157864717721
 20
101.1455987132475
 10
108.0643305610343
 20
101.0440157155227
 10
107.9094323927212
 20
100.9389300029634
 10
107.7513254368959
 20
100.830493450965
 10
107.5902492615374
 20
100.7188608630684
 10
107.4264481567158
 20
100.6041893328691
 10
107.2601701580541
 20
100.4866377351518
 10
107.0916662872146
 20
100.3663663574137
 10
106.9211899111684
 20
100.243536557706
 10
106.7489962391112
 20
100.1183104862587
 10
106.5753419023977
 20
99.99085084135125
 10
106.4004846414892
 20
99.86132067676019
 10
106.2246829516202
 20
99.72988318275881
 10
106.0499413537033
 20
99.5980186968642
 10
105.878703342133
 20
99.46875832661992
 10
105.7099605291763
 20
99.34248333416241
 10
105.5422525743155
 20
99.21806531594669
 10
105.3758598129655
 20
99.09568945287671
 10
105.2110634419131
 20
98.97554117804179
 10
105.0481458241872
 20
98.85780636528152
 10
104.8873908507635
 20
98.74267154744587
 10
104.7290843336412
 20
98.63032414737273
 10
104.5735144810292
 20
98.52095272489669
 10
104.4209725957763
 20
98.41474734617285
 10
104.2717537800562
 20
98.31189995067197
 10
104.1261580366817
 20
98.21260487816757
 10
103.9844914646106
 20
98.11705946236304
 10
103.8470680130078
 20
98.0254648034679
 10
103.7142117495687
 20
97.93802681608379
 10
103.5862599054024
 20
97.85495751638248
 10
103.4635671200252
 20
97.77647680422324
 10
103.3465112926758
 20
97.70281477591831
 10
103.235501974992
 20
97.63421488985902
 10
103.1309927363115
 20
97.57093838907214
 10
103.0334994844578
 20
97.51327040055253
 10
102.9436288797091
 20
97.46152863057203
 10
102.8621234395874
 20
97.41607580222737
 10
102.7899362196793
 20
97.37733757507964
 10
102.728359734274
 20
97.34582811384146
 10
102.6792604619661
 20
97.32218477089687
 10
102.6455320712028
 20
97.30720703645679
 10
102.6320356009155
 20
97.30186207104762
 10
102.647714250578
 20
97.30706546560124
 10
102.7107268493608
 20
97.32227844390337
 10
102.7428027849268
 20
97.32560233943613
 10
102.6423980791392
 20
97.31513791682097
 10
102.4950909608025
 20
97.27970505862284
 10
102.3782529875153
 20
97.24119375424205
 10
102.2742951557177
 20
97.2003769283251
 10
102.1748924748814
 20
97.1566634719171
 10
102.0757831230894
 20
97.10943696658165
 10
101.9746531189171
 20
97.05825466333633
 10
101.8702021533255
 20
97.00283602897647
 10
101.7616951420175
 20
96.94302228705864
 10
101.6487308488804
 20
96.87874158341423
 10
101.5311149430612
 20
96.8099836618442
 10
101.4087864538936
 20
96.73678216500576
 10
101.2817734889919
 20
96.6592024548973
 10
101.1501653395189
 20
96.57733312708888
 10
101.0140943789911
 20
96.49127998336961
 10
100.8737240851601
 20
96.40116181558719
 10
100.7292407386534
 20
96.3071072924357
 10
100.5808476003058
 20
96.20925264922136
 10
100.4287608389016
 20
96.10774001714114
 10
100.2732065522798
 20
96.00271616730956
 10
100.1144184332425
 20
95.89433146617841
 10
99.95263619960789
 20
95.78273914270487
 10
99.78810427141619
 20
95.66809469233188
 10
99.62107078639431
 20
95.55055536467898
 10
99.45178685827838
 20
95.43027981375505
 10
99.280505887027
 20
95.30742772533051
 10
99.10748311061798
 20
95.18215955396504
 10
98.93297522227817
 20
95.05463632651252
 10
98.75723997030254
 20
94.92501939565997
 10
98.58053584035608
 20
94.79347022482163
 10
98.40455910419828
 20
94.66123026424481
 10
98.23175988636081
 20
94.5311194356309
 10
98.06173414400158
 20
94.40379101442437
 10
97.893313936879
 20
94.27834961301312
 10
97.72676098769941
 20
94.1549761624732
 10
97.5623377358001
 20
94.03385196843402
 10
97.40030750739207
 20
93.91515882470007
 10
97.24093472738681
 20
93.79907913670726
 10
97.08448534304338
 20
93.68579617944513
 10
96.93122704909018
 20
93.57549426962825
 10
96.78142980304369
 20
93.46835901390351
 10
96.63536647171452
 20
93.36457773577044
 10
96.49331350059035
 20
93.26433983825751
 10
96.35555195502175
 20
93.16783738841472
 10
96.22236881466166
 20
93.07526583981016
 10
96.0940587985059
 20
92.98682501790681
 10
95.97092673024656
 20
92.90272038637949
 10
95.85329100687069
 20
92.82316483527048
 10
95.74148843419863
 20
92.74838115608347
 10
95.63588121974905
 20
92.67860545920236
 10
95.53686765715582
 20
92.61409227992436
 10
95.44489834306746
 20
92.55512203109073
 10
95.36050205134751
 20
92.50201231891337
 10
95.28432863882448
 20
92.45513574483341
 10
95.21722344267269
 20
92.41494870194397
 10
95.16036374583561
 20
92.38203975027163
 10
95.11552687406235
 20
92.3572140843264
 10
95.08566426295418
 20
92.34164644039754
 10
95.07627347775164
 20
92.33716061787325
 10
95.09919035450706
 20
92.34668021932818
 10
95.18525892798704
 20
92.37411107059773
 10
95.20022793991325
 20
92.37631614578541
 10
95.05124061711732
 20
92.3412151128196
 10
94.89924872470392
 20
92.27838211519658
 10
94.78837399272219
 20
92.22439425168204
 10
94.67740973477237
 20
92.16588808545116
 10
94.55632310167532
 20
92.09894895515178
 10
94.42172866880171
 20
92.02215588443548
 10
94.2723736297512
 20
91.93498804476764
 10
94.10786452391737
 20
91.83731609637893
 10
93.92820949403102
 20
91.72920374104449
 10
93.73362520024801
 20
91.61081901528675
 10
93.5244453199214
 20
91.48239035662577
 10
93.30107345845819
 20
91.34418317933503
 10
93.06395708557881
 20
91.19648658574891
 10
92.813572268569
 20
91.03960537804569
 10
92.55041445427159
 20
90.87385513544835
 10
92.27499251913937
 20
90.69955901603673
 10
91.98782493332666
 20
90.51704563006714
 10
91.68943711811204
 20
90.32664759219
 10
91.38035966344199
 20
90.12870049519348
 10
91.06112706840358
 20
89.92354221205774
 10
90.73227677742052
 20
89.71151234777318
 10
90.39434851528621
 20
89.49295184481925
 10
90.04788383203658
 20
89.26820271251056
 10
89.69342564249119
 20
89.03760778774775
 10
89.3315179941616
 20
88.80151055797855
 10
88.96270580227909
 20
88.56025503520617
 10
88.58753469374713
 20
88.31418564367564
 10
88.20655082607713
 20
88.06364712556955
 10
87.82030081960102
 20
87.80898447657397
 10
87.42933161113433
 20
87.55054288520779
 10
87.03462185900472
 20
87.28895361890082
 10
86.64090800052017
 20
87.02793416738805
 10
86.25206300831749
 20
86.77063126421224
 10
85.86820148590328
 20
86.51710965624831
 10
85.4898687388705
 20
86.26771960338802
 10
85.11761035865456
 20
86.02281154137704
 10
84.75197229231021
 20
85.78273611993205
 10
84.39350096346345
 20
85.54784427454037
 10
84.04274333533709
 20
85.31848728014265
 10
83.70024712735633
 20
85.09501685625455
 10
83.36656095053992
 20
84.87778528073457
 10
83.04223454825106
 20
84.66714551298473
 10
82.72781916445074
 20
84.46345141742874
 10
82.42386785061363
 20
84.26705797445187
 10
82.13093612649084
 20
84.07832162693974
 10
81.84958265445745
 20
83.89760072785687
 10
81.58037034479634
 20
83.72525615212018
 10
81.32386778244764
 20
83.56165216066898
 10
81.08065141777277
 20
83.40715763771885
 10
80.85130879133504
 20
83.26214795741527
 10
80.63644338279343
 20
83.12700773559702
 10
80.43668238102745
 20
83.00213516528865
 10
80.25268948654764
 20
82.88794907893069
 10
80.08518687317886
 20
82.78490085012642
 10
79.93499539851459
 20
82.69349569255282
 10
79.80311327314519
 20
82.61433326658683
 10
79.69088463363978
 20
82.54819173853353
 10
79.60040701272376
 20
82.49622202250436
 10
79.53569960204779
 20
82.46047103790315
 10
79.50706909642395
 20
82.44566373249923
 10
79.55786470432028
 20
82.46853350398928
 10
79.65254922273937
 20
82.49441461368598
 10
79.59445254173173
 20
82.48414632903928
 10
79.44805359027794
 20
82.43154280599731
 10
79.3532618643392
 20
82.38861067156604
 10
79.27367845878827
 20
82.3480220070807
 10
79.19747790561229
 20
82.30621655373388
 10
79.11984208746082
 20
82.26145340758426
 10
79.03853358353678
 20
82.21284391917675
 10
78.95244200090423
 20
82.15992968281233
 10
78.86101191989343
 20
82.10248607190351
 10
78.76398681976784
 20
82.04042374768069
 10
78.66128279989451
 20
81.97373593950888
 10
78.55292111904265
 20
81.90246842744814
 10
78.43899013718672
 20
81.82670170629095
 10
78.31962260887033
 20
81.74653994196682
 10
78.19498168839607
 20
81.6621038931291
 10
78.065251796588
 20
81.57352620222566
 10
77.93063264348301
 20
81.48094817509451
 10
77.79133513231719
 20
81.38451758611369
 10
77.64757852525463
 20
81.28438708203615
 10
77.49958839440178
 20
81.18071304542607
 10
77.34759518775046
 20
81.07365476000065
 10
77.19183307785758
 20
80.96337376172852
 10
77.03253918055036
 20
80.85003335037545
 10
76.86995294524792
 20
80.7337982477779
 10
76.70431565783062
 20
80.61483429256707
 10
76.53587004001201
 20
80.49330818944235
 10
76.36486001457253
 20
80.36938736014561
 10
76.19153041657358
 20
80.24323977927318
 10
76.01612680394342
 20
80.11503383350428
 10
75.83889529552442
 20
79.98493822718207
 10
75.66107504806573
 20
79.85385361162322
 10
75.48507149666941
 20
79.72422414129008
 10
75.3113246300622
 20
79.59702551073278
 10
75.13911253427518
 20
79.47170588251825
 10
74.96870903906293
 20
79.34844663316085
 10
74.80038870644978
 20
79.22742946062762
 10
74.6344269094492
 20
79.10883648711257
 10
74.47110014223347
 20
78.992850393864
 10
74.31068633941504
 20
78.87965465995381
 10
74.15346518677626
 20
78.76943372330274
 10
73.99971867567862
 20
78.6623732977274
 10
73.84973160688537
 20
78.55866068081711
 10
73.70379243173768
 20
78.45848518471932
 10
73.56219418621649
 20
78.36203867963948
 10
73.42523587613584
 20
78.26951629779424
 10
73.29322424437404
 20
78.18111739547987
 10
73.16647614143938
 20
78.09704673179397
 10
73.04532202504424
 20
78.01751622974943
 10
72.93011076938912
 20
77.94274732694537
 10
72.82121668146101
 20
77.8729742778125
 10
72.71905006373481
 20
77.80844898864909
 10
72.62407330765848
 20
77.74944808158371
 10
72.53682658943856
 20
77.69628364900937
 10
72.45797019919371
 20
77.64932000432545
 10
72.38835778649496
 20
77.60900065041719
 10
72.3291701393531
 20
77.57589324963617
 10
72.28217647811564
 20
77.55076722212171
 10
72.2502906233088
 20
77.53473225878381
 10
72.23888794082933
 20
77.52948472608655
 10
72.25940064981046
 20
77.53767923138805
 10
72.34111958771098
 20
77.56265987146605
 10
72.35676282934969
 20
77.56486011671748
 10
72.21126099897751
 20
77.53293758910254
 10
72.05803024332801
 20
77.47234461450901
 10
71.94645653716621
 20
77.41978835839318
 10
71.83644392812046
 20
77.36332734901502
 10
71.71771116903608
 20
77.29918551082666
 10
71.58667749559852
 20
77.22593091898381
 10
71.4419636816221
 20
77.14301130027434
 10
71.28309008388783
 20
77.05026587118347
 10
71.11000117986504
 20
76.94772979324188
 10
70.92286309360657
 20
76.8355452778676
 10
70.72196701578736
 20
76.71391706520738
 10
70.50767906931972
 20
76.58308839742706
 10
70.28041254535333
 20
76.44332729487277
 10
70.04061159402245
 20
76.29491830229198
 10
69.78874126549694
 20
76.13815732271254
 10
69.5252811819165
 20
75.97334828524612
 10
69.25072133648968
 20
75.80080090720685
 10
68.96555927176387
 20
75.620829152797
 10
68.67029817974642
 20
75.43375018206963
 10
68.36544546138637
 20
75.23988357761003
 10
68.05151175519634
 20
75.03955077262968
 10
67.72901020441071
 20
74.83307465503174
 10
67.39845589949763
 20
74.62077924281715
 10
67.06036546298625
 20
74.40298944646175
 10
66.71525674435597
 20
74.18003088591715
 10
66.36364855980509
 20
73.95222974636654
 10
66.00606050888126
 20
73.71991266973431
 10
65.64301277818696
 20
73.48340664253811
 10
65.27502605307527
 20
73.24303892598246
 10
64.9026213998676
 20
72.99913700063124
 10
64.52688870536804
 20
72.75240184824396
 10
64.15133797910352
 20
72.50586254761866
 10
63.77838024567606
 20
72.2618179310146
 10
63.40802613717801
 20
72.02025446678067
 10
63.04085721670774
 20
71.78153337406069
 10
62.67745519774263
 20
71.5460159393712
 10
62.3184021246395
 20
71.31406359716273
 10
61.96428043999659
 20
71.08603799997285
 10
61.61567311880709
 20
70.86230108581043
 10
61.27316385356645
 20
70.64321518999006
 10
60.93733721672348
 20
70.42914314438292
 10
60.608778949053
 20
70.220448427354
 10
60.28807623568792
 20
70.01749534835668
 10
59.97581808526391
 20
69.82064924194373
 10
59.67259590355699
 20
69.63027678785291
 10
59.37900410479937
 20
69.44674637126622
 10
59.09564105435319
 20
69.2704285680432
 10
58.8231103554701
 20
69.1016968625129
 10
58.56202250958664
 20
68.94092854140571
 10
58.31299745180549
 20
68.78850601599797
 10
58.07666808632946
 20
68.64481868748619
 10
57.8536857088929
 20
68.51026570851464
 10
57.64472814860483
 20
68.38526010898435
 10
57.45051287738622
 20
68.27023523091391
 10
57.27181861212668
 20
68.16565511947383
 10
57.10952266669298
 20
68.07203190680289
 10
56.96466969485899
 20
67.98995659986751
 10
56.83860709784157
 20
67.92015689827147
 10
56.73327743730691
 20
67.86361436925188
 10
56.65193160538831
 20
67.82182656665857
 10
56.60119236211868
 20
67.79747511569037
 10
56.56470821676992
 20
67.78194787069179
 10
56.49812489198384
 20
67.75485080530561
 10
56.40499895167818
 20
67.71353186884942
 10
56.30962915637708
 20
67.66857338552947
 10
56.21012620379024
 20
67.61950228494574
 10
56.10551136810255
 20
67.56607024741733
 10
55.99529189311066
 20
67.50816911970534
 10
55.87925308427343
 20
67.44578026900851
 10
55.7573484953668
 20
67.37894389993428
 10
55.62963821669464
 20
67.30773994659569
 10
55.49625246427511
 20
67.23227589635626
 10
55.35736898156559
 20
67.1526787162759
 10
55.21319878060586
 20
67.06908948912366
 10
55.06397659223734
 20
66.98165968889009
 10
54.90995447639321
 20
66.89054855256816
 10
54.75139734624381
 20
66.79592122051174
 10
54.5885797858302
 20
66.69794734282344
 10
54.4217837624502
 20
66.59680006694309
 10
54.25129698728373
 20
66.49265528990799
 10
54.0774115707174
 20
66.38569104701408
 10
53.90042310892593
 20
66.27608704753868
 10
53.72062995802352
 20
66.16402435010785
 10
53.53833260243958
 20
66.04968503336355
 10
53.35383325641159
 20
65.93325199408424
 10
53.16743540585142
 20
65.81490872398453
 10
52.97944354141319
 20
65.69483913308046
 10
52.79016291144563
 20
65.57322743571152
 10
52.59989926359705
 20
65.45025799145058
 10
52.40895864902581
 20
65.32611518493304
 10
52.2176472427717
 20
65.20098330771339
 10
52.02627117084685
 20
65.07504644437934
 10
51.83648524438809
 20
64.9493815141406
 10
51.65004196759221
 20
64.82601655934835
 10
51.46600065643518
 20
64.7051690308686
 10
51.28331169670149
 20
64.58612018689868
 10
51.10227328954232
 20
64.46904286407566
 10
50.92318434750086
 20
64.35411008553143
 10
50.74634473489943
 20
64.24149522714411
 10
50.57205552440443
 20
64.131372139889
 10
50.40061939617983
 20
64.02391536188617
 10
50.23234103300918
 20
63.91930032273748
 10
50.06752766173546
 20
63.81770359684544
 10
49.90648974399981
 20
63.71930323984441
 10
49.74954177419206
 20
63.62427915136086
 10
49.59700343323823
 20
63.53281358542225
 10
49.4492010663538
 20
63.44509180735177
 10
49.30646951514093
 20
63.36130286483733
 10
49.16915484941069
 20
63.28164069780614
 10
49.03761799637299
 20
63.20630561568517
 10
48.91223973103146
 20
63.13550619063901
 10
48.79342815648843
 20
63.06946202995534
 10
48.68162934578783
 20
63.00840753917819
 10
48.57734363203019
 20
62.95259732150058
 10
48.48115096246157
 20
62.9023141237685
 10
48.39375152259719
 20
62.85788046249434
 10
48.31603422572287
 20
62.81967632710125
 10
48.24919707203408
 20
62.78816615172695
 10
48.19497200254325
 20
62.76394002054912
 10
48.15607486568001
 20
62.74777333880301
 10
48.13718833289876
 20
62.7406936500871
 10
48.14735158183089
 20
62.74393415198933
 10
48.20656045550297
 20
62.75794438476676
 10
48.25620999354032
 20
62.7630774789351
 10
48.1924809737128
 20
62.75866181675148
 10
48.07206893133582
 20
62.73784605477176
 10
47.97202755054698
 20
62.71317135722614
 10
47.88264072574964
 20
62.6861704145773
 10
47.79852385180972
 20
62.65711600687793
 10
47.71656283995232
 20
62.62594057431022
 10
47.63488929198977
 20
62.59251140765364
 10
47.55235302007078
 20
62.55671082237208
 10
47.46823777228434
 20
62.51845535671982
 10
47.38210017075809
 20
62.47769591882032
 10
47.29367486119588
 20
62.43441283108934
 10
47.20281634605962
 20
62.38861028404914
 10
47.10946183969186
 20
62.34031126571586
 10
47.01360721914932
 20
62.28955357586268
 10
46.91529073007371
 20
62.23638663254164
 10
46.8145818554315
 20
62.18086900914685
 10
46.71157335412487
 20
62.12306647584977
 10
46.60637569656298
 20
62.06305050747708
 10
46.49911300147639
 20
62.00089716407115
 10
46.38991986797355
 20
61.93668608810088
 10
46.27893921303426
 20
61.87049983011403
 10
46.16632039159136
 20
61.80242320665203
 10
46.05221789777359
 20
61.73254280526227
 10
45.93679035986445
 20
61.66094665156574
 10
45.82019955786473
 20
61.58772377888243
 10
45.70260981168677
 20
61.51296396579153
 10
45.58418741297365
 20
61.43675748953472
 10
45.46510013546639
 20
61.35919486874239
 10
45.34551680138786
 20
61.28036663357349
 10
45.22560698489053
 20
61.20036313080077
 10
45.1086842451608
 20
61.12139738657434
 10
44.99225225318391
 20
61.04307786017791
 10
44.86773650298895
 20
60.96080271590282
 10
44.73252814403931
 20
60.8728121885269
 10
44.58728131346467
 20
60.77952801928887
 10
44.43259651884359
 20
60.68132828472052
 10
44.26903751447683
 20
60.57856195967832
 10
44.0971422688139
 20
60.4715579971319
 10
43.91743025339404
 20
60.36063128869997
 10
43.73040735155389
 20
60.24608656207378
 10
43.53656932060633
 20
60.1282210770205
 10
43.33640432465907
 20
60.00732654611338
 10
43.13039467994016
 20
59.88369047537604
 10
42.91901822100576
 20
59.75759714918743
 10
42.70274928287227
 20
59.62932837008164
 10
42.48205947982407
 20
59.49916399860903
 10
42.25741832811151
 20
59.36738240019984
 10
42.02929370955633
 20
59.2342607681173
 10
41.79815225064464
 20
59.10007538067369
 10
41.56445965969162
 20
58.96510182157488
 10
41.32868102757812
 20
58.82961516830498
 10
41.09128102679841
 20
58.6938901330519
 10
40.85272418118702
 20
58.55820120414003
 10
40.61347502258664
 20
58.4228227618699
 10
40.37399834157829
 20
58.28802918692191
 10
40.1347593893644
 20
58.15409498675401
 10
39.89622411380273
 20
58.0212949037325
 10
39.65885938784149
 20
57.88990402590481
 10
39.42313334266308
 20
57.76019794000118
 10
39.18951562540528
 20
57.63245285019626
 10
38.95847788697323
 20
57.50694576721692
 10
38.7297666815836
 20
57.38356223145159
 10
38.49840225212417
 20
57.25917243424805
 10
38.26087308559464
 20
57.13141737866853
 10
38.01840357259698
 20
57.00095572741528
 10
37.77151363607716
 20
56.8680673926637
 10
37.5207233633618
 20
56.73303237403459
 10
37.2665529260844
 20
56.59613072231061
 10
37.00952260613346
 20
56.45764253500078
 10
36.75015277299654
 20
56.31784796049638
 10
36.4889638068653
 20
56.17702716202827
 10
36.22647612453248
 20
56.03546031140373
 10
35.96321017698538
 20
55.89342760036841
 10
35.69968639476278
 20
55.7512092134566
 10
35.43642520891113
 20
55.60908532664008
 10
35.1739470135637
 20
55.46733610474021
 10
34.91277217695901
 20
55.32624168835077
 10
34.65342099217091
 20
55.18608218775932
 10
34.39641365052771
 20
55.04713765416639
 10
34.14227029584514
 20
54.90968810018363
 10
33.8915108972822
 20
54.77401346251359
 10
33.6446552823158
 20
54.64039358353656
 10
33.40222306853858
 20
54.50910820102411
 10
33.16473362016767
 20
54.38043690409791
 10
32.93270600014817
 20
54.25465912197068
 10
32.70665882719194
 20
54.13205404424036
 10
32.48711019845783
 20
54.01290056532195
 10
32.27457757990182
 20
53.8974772265285
 10
32.06957749015535
 20
53.78606206366147
 10
31.87262529531144
 20
53.67893245358756
 10
31.68423478220747
 20
53.57636490848052
 10
31.50491748690992
 20
53.47863469608735
 10
31.3357222752452
 20
53.38631024229099
 10
31.16397991752643
 20
53.29273960489609
 10
30.97607337338906
 20
53.1907464246088
 10
30.77219764743938
 20
53.08042801836707
 10
30.55310174679161
 20
52.96218297295578
 10
30.31951870760415
 20
52.83640085805417
 10
30.07217123067363
 20
52.70346545245415
 10
29.8117751007014
 20
52.5637566693547
 10
29.53904127344971
 20
52.41765175217672
 10
29.25467733503557
 20
52.26552606107903
 10
28.95938841084129
 20
52.10775360595428
 10
28.65387780598795
 20
51.94470739472612
 10
28.33884746549502
 20
51.77675968471374
 10
28.01499830346212
 20
51.60428216759509
 10
27.68303045028028
 20
51.42764610431986
 10
27.34364340938998
 20
51.24722241548381
 10
26.99753620040957
 20
51.06338176096654
 10
26.64540746559062
 20
50.87649458643568
 10
26.28795557026888
 20
50.68693118863855
 10
25.92587863082272
 20
50.49506173086066
 10
25.55987458721336
 20
50.30125627933125
 10
25.19064126182073
 20
50.10588482987824
 10
24.81887636685383
 20
49.90931732487681
 10
24.44527755101204
 20
49.71192366647187
 10
24.0705424499192
 20
49.51407374535972
 10
23.69536867250753
 20
49.31613744329309
 10
23.32045386851067
 20
49.11848465177986
 10
22.94649572732031
 20
48.92148528920127
 10
22.57419203252574
 20
48.72550931546451
 10
22.2042406644468
 20
48.53092674284213
 10
21.83733967634494
 20
48.33810766377086
 10
21.4736621956515
 20
48.14714654722182
 10
21.111887179837
 20
47.95680715345404
 10
20.75164413592218
 20
47.76636400081063
 10
20.39400129855541
 20
47.57640173851751
 10
20.03949930236976
 20
47.38722733561723
 10
19.68867865194029
 20
47.19914762746149
 10
19.34207959582827
 20
47.01246922735921
 10
19.0002419854554
 20
46.82749845151099
 10
18.6637051288089
 20
46.64454122820649
 10
18.33300753741473
 20
46.46390296687332
 10
18.00868676096357
 20
46.28588842145175
 10
17.69127908842347
 20
46.11080153271254
 10
17.38131914085646
 20
45.9389451741003
 10
17.07933951703974
 20
45.77062088739103
 10
16.78587018026501
 20
45.60612852264907
 10
16.50143775381322
 20
45.44576574757515
 10
16.22656452681876
 20
45.28982740694565
 10
15.96176716959764
 20
45.13860463288214
 10
15.70755499678656
 20
44.99238365869871
 10
15.46442747095369
 20
44.85144409330341
 10
15.23287072509437
 20
44.71605645641058
 10
15.0133525295667
 20
44.58647854830933
 10
14.80631476558753
 20
44.46294993872001
 10
14.61216186636988
 20
44.34568329730352
 10
14.43124259560136
 20
44.23485033777935
 10
14.26382005197166
 20
44.13055799991608
 10
14.11001981641611
 20
44.03280580157016
 10
13.96973559893014
 20
43.94140474961527
 10
13.84244478607408
 20
43.85581032112927
 10
13.72681544195298
 20
43.77474190905694
 10
13.61976728643405
 20
43.69519002278667
 10
13.5354689457013
 20
43.62681612327911
 10
13.48554889077788
 20
43.58485034391581
 10
13.44988152091535
 20
43.55638654250823
 10
13.41156295167098
 20
43.52728803458421
 10
13.37081318284301
 20
43.49778386772861
 10
13.32785203190946
 20
43.46807895268287
 10
13.28289854621094
 20
43.43835795014456
 10
13.23617051180333
 20
43.40878831646573
 10
13.18788459430181
 20
43.37952299057883
 10
13.13825673846972
 20
43.35070268899933
 10
13.08750248872914
 20
43.32245763096271
 10
13.0358376942831
 20
43.29490909488909
 10
12.98347915465925
 20
43.26817059719801
 10
12.93064548256353
 20
43.24234887186797
 10
12.87755815708184
 20
43.21754467533374
 10
12.82444257635633
 20
43.19385332164811
 10
12.77152920620341
 20
43.17136499164755
 10
12.71905517645212
 20
43.15016494992828
 10
12.66726598145888
 20
43.13033350166257
 10
12.61641728552686
 20
43.11194561460272
 10
12.56677733440601
 20
43.09507033403388
 10
12.51862973556658
 20
43.07976979990235
 10
12.47227663939321
 20
43.06609771285183
 10
12.42804259989259
 20
43.05409715553289
 10
12.38627911116043
 20
43.04379748977104
 10
12.34737012986579
 20
43.03521004577443
 10
12.31173831860949
 20
43.02832205026719
 10
12.27985234126851
 20
43.02308818671723
 10
12.25223503255694
 20
43.01941887438833
 10
12.22947177987356
 20
43.0171639544072
 10
12.21221849169672
 20
43.01609017918894
 10
12.17924171617028
 20
43.01537201251807
 10
12.10672095932478
 20
43.0138593838716
 10
12.01417773498537
 20
43.00829187200242
 10
11.92317203924136
 20
42.99950311252839
 10
11.83347324452828
 20
42.98779329201079
 10
11.74488607482235
 20
42.97340176566131
 10
11.6572495551425
 20
42.95652076688216
 10
11.57043454737411
 20
42.93730603531021
 10
11.48434062735311
 20
42.9158849661123
 10
11.39889265328452
 20
42.89236277984839
 10
11.31403755266825
 20
42.86682717874081
 10
11.22974129815343
 20
42.83935184341506
 10
11.14598616263414
 20
42.80999900112586
 10
11.06276829031009
 20
42.77882131119828
 10
10.98009561731419
 20
42.74586321433246
 10
10.89798579456628
 20
42.71116176665128
 10
10.81646467274734
 20
42.67474718449217
 10
10.73556489916503
 20
42.63664312811824
 10
10.65532447516482
 20
42.59686657237413
 10
10.57578585159254
 20
42.55542761066045
 10
10.49699490967902
 20
42.51232894576523
 10
10.41900013730214
 20
42.46756512616601
 10
10.34185208923937
 20
42.42112165905373
 10
10.2656027361314
 20
42.37297371059322
 10
10.19030532458843
 20
42.32308469484356
 10
10.1160141420358
 20
42.27140443098746
 10
10.04278471447549
 20
42.21786695876579
 10
9.970674499444677
 20
42.16238816277109
 10
9.899743603687938
 20
42.10486261752505
 10
9.830056721649612
 20
42.04516038031481
 10
9.761685492498586
 20
41.9831231344371
 10
9.703170998858489
 20
41.92671435324197
 10
9.659896761541752
 20
41.88426669713663
 10
9.621250928134486
 20
41.84733664063846
 10
9.579185133707313
 20
41.80806952873499
 10
9.533975574318696
 20
41.76675477436359
 10
9.485873261572834
 20
41.72364282799673
 10
9.435109824329267
 20
41.67895539052509
 10
9.381901996103039
 20
41.63289281751274
 10
9.326454655551061
 20
41.5856390878636
 10
9.268963531079393
 20
41.53736574251859
 10
9.209617051495727
 20
41.48823464305341
 10
9.148597845601373
 20
41.43840002690224
 10
9.086084168330757
 20
41.38801030302033
 10
9.022250674056629
 20
41.33720914180193
 10
8.957269475408282
 20
41.28613660528009
 10
8.891310750621621
 20
41.23492992377787
 10
8.824543373689714
 20
41.18372409639141
 10
8.757135498401695
 20
41.1326524953877
 10
8.689255194692315
 20
41.08184737069007
 10
8.621070846474879
 20
41.03144022286066
 10
8.552751731561152
 20
40.98156215790683
 10
8.484468607866049
 20
40.93234430524677
 10
8.416394319540039
 20
40.88391811585601
 10
8.348704550956626
 20
40.83641578032141
 10
8.281578521244114
 20
40.7899704945346
 10
8.215200038912094
 20
40.74471691078677
 10
8.149758719481575
 20
40.70079160547208
 10
8.085451259287581
 20
40.65833345818375
 10
8.022483376859732
 20
40.61748426893318
 10
7.961072033471844
 20
40.57838938261362
 10
7.901448342688944
 20
40.54119837932005
 10
7.832272713632754
 20
40.49899596999227
 10
7.581271485924411
 20
40.34016307287468
 10
7.352502109685481
 20
40.17591185384534
 10
7.136273161812944
 20
39.98772617799012
 10
6.897123023493346
 20
39.69472749965371
 10
6.694453884278738
 20
39.08041279229464
 10
7.025266286921422
 20
38.35661981971681
 10
7.540552966751548
 20
38.09500698561079
 10
7.873120243196183
 20
38.04095443776988
 10
8.133938223045789
 20
38.03772002550435
 10
8.38387039160142
 20
38.05581695818991
 10
8.644932400534373
 20
38.08910533580256
 10
8.925523315336591
 20
38.13586923498113
 10
9.228776494286535
 20
38.19539686803063
 10
9.55550161547157
 20
38.2672222831012
 10
9.905365885828218
 20
38.35093189860715
 10
10.27742497729625
 20
38.44611269510189
 10
10.67038456855597
 20
38.5523398000265
 10
11.08273905099121
 20
38.66917543501931
 10
11.51284967160926
 20
38.79617088775382
 10
11.95899095138961
 20
38.93286899398582
 10
12.41937943836419
 20
39.07880643526363
 10
12.89219225352491
 20
39.23351566217423
 10
13.3755796216618
 20
39.39652655077341
 10
13.86767349907322
 20
39.56736781805761
 10
14.36659389541475
 20
39.74556830824796
 10
14.87045371681322
 20
39.930658248074
 10
15.37736262835396
 20
40.12217053753658
 10
15.88543038748153
 20
40.31964216623557
 10
16.39276995841689
 20
40.52261586606743
 10
16.89750057412805
 20
40.73064211625799
 10
17.39457608847002
 20
40.94193210996693
 10
17.65965365568562
 20
41.0561261135254
 10
17.92309904670597
 20
41.1690656444974
 10
18.18749121875312
 20
41.28187141766409
 10
18.45235147821052
 20
41.39434700906248
 10
18.71720144029682
 20
41.50629618077627
 10
18.98156284695109
 20
41.6175228246884
 10
19.24495740126576
 20
41.72783088030963
 10
19.50690667410996
 20
41.8370242879818
 10
19.76693190749069
 20
41.94490692154068
 10
20.02455389073853
 20
42.05128253059549
 10
20.279292734991
 20
42.15595466316923
 10
20.53066769964676
 20
42.25872659585089
 10
20.77819687099571
 20
42.35940123326662
 10
21.02139689866674
 20
42.45778099849852
 10
21.25978258324484
 20
42.55366771213559
 10
21.49286637104065
 20
42.64686241552521
 10
21.72015775119532
 20
42.73716517691858
 10
21.94116238448694
 20
42.82437482608635
 10
22.15538104908337
 20
42.90828860856453
 10
22.36230813601443
 20
42.98870174841878
 10
22.56142966108162
 20
43.06540684342372
 10
22.75222046995827
 20
43.13819306757233
 10
22.93414018787379
 20
43.20684503175548
 10
23.10662747959255
 20
43.27114121678333
 10
23.26909136723765
 20
43.33085171994409
 10
23.42089788469733
 20
43.38573491603876
 10
23.56134890544894
 20
43.43553246999392
 10
23.68964708156105
 20
43.47996160841441
 10
23.80483504614016
 20
43.51870286050265
 10
23.90568380779587
 20
43.55138001544874
 10
23.99202747155236
 20
43.57800599073113
 10
24.24627957506386
 20
43.65205989005047
 10
24.08844698530631
 20
42.61585357813382
 10
24.05189228026879
 20
42.38796522214216
 10
24.01078014473767
 20
42.15610868805924
 10
23.96351924377784
 20
41.91324105558871
 10
23.90910778054126
 20
41.65620461258541
 10
23.84654130778529
 20
41.38196547395651
 10
23.77482550214314
 20
41.08761485306059
 10
23.69298445245343
 20
40.7703543550105
 10
23.60006398331412
 20
40.42747323907068
 10
23.49513116283575
 20
40.05632397741181
 10
23.37727146298373
 20
39.65430042938137
 10
23.24558478137484
 20
39.21882010521229
 10
23.09918156450939
 20
38.74731113610682
 10
22.93717924402338
 20
38.23720336740483
 10
22.75869945363964
 20
37.6859226228129
 10
22.56286589631087
 20
37.0908874619624
 10
22.34880286965451
 20
36.44950755882162
 10
22.1156342996906
 20
35.75918325632808
 10
21.86248308446834
 20
35.01730573192202
 10
21.58847078026317
 20
34.22125755768111
 10
21.29271744749291
 20
33.36841348460062
 10
20.9743416308419
 20
32.45614128416621
 10
20.63246039185928
 20
31.48180257488834
 10
20.26618940743136
 20
30.44275360658127
 10
19.87464308659105
 20
29.33634597619673
 10
19.45693469395803
 20
28.15992726377305
 10
19.01217648331302
 20
26.9108416010386
 10
18.53947980014414
 20
25.58643016192729
 10
18.03795518470024
 20
24.1840315739265
 10
17.50671250808018
 20
22.70098228739569
 10
16.94486101285272
 20
21.13461689445969
 10
16.35102514160001
 20
19.48091978120441
 10
16.21432217754653
 20
19.09712039166094
 10
16.07959428401494
 20
18.71231310587203
 10
15.9474859751657
 20
18.32847949630414
 10
15.81815078066588
 20
17.94622111763975
 10
15.69174270568155
 20
17.56613933164569
 10
15.56841608857143
 20
17.18883492663997
 10
15.44832551520111
 20
16.81490775155708
 10
15.33162567106373
 20
16.44495627678207
 10
15.21847124003186
 20
16.0795770439658
 10
15.10901681026547
 20
15.71936413346682
 10
15.00341670119206
 20
15.3649083671545
 10
14.90182490092557
 20
15.01679644357644
 10
14.80439490154483
 20
14.67560989800398
 10
14.71127951798192
 20
14.34192357858008
 10
14.62263078061922
 20
14.01630387815527
 10
14.53859974083187
 20
13.69930641292529
 10
14.45933628960685
 20
13.39147284959047
 10
14.38498896924788
 20
13.09332665379941
 10
14.31570486549767
 20
12.80536732907216
 10
14.25162954621046
 20
12.52806236173402
 10
14.19290724599481
 20
12.26183573449218
 10
14.13968147532701
 20
12.00705114739877
 10
14.09209673033984
 20
11.76398731102675
 10
14.05030202563848
 20
11.53279987613584
 10
14.01445887684796
 20
11.3134614762145
 10
13.98475835006803
 20
11.10566399563471
 10
13.96145891374507
 20
10.90865251685138
 10
13.94497324166455
 20
10.72093082872864
 10
13.93607887691975
 20
10.53971362227147
 10
13.93646614584235
 20
10.35985852347132
 10
13.94909986447386
 20
10.18791126662478
 10
13.98096931461009
 20
9.970922040331741
 10
14.02958944013768
 20
9.751717005078044
 10
14.11434206384415
 20
9.505961305030658
 10
14.26769799634671
 20
9.229463443022265
 10
14.53099016260552
 20
8.95253709633185
 10
14.9014768404277
 20
8.756675361886314
 10
15.29552119912196
 20
8.694808694184911
 10
15.64021020989789
 20
8.733541522182016
 10
15.93168533932748
 20
8.824269322526739
 10
16.19433778933873
 20
8.945249131254636
 10
16.45012774858308
 20
9.092174416992409
 10
16.71381643727254
 20
9.266796833379994
 10
16.99505587397416
 20
9.472323217640181
 10
17.3004893832575
 20
9.712034243998868
 10
17.63503851447069
 20
9.988961503664765
 10
18.00262301617204
 20
10.30586535803049
 10
18.40656178063714
 20
10.66528301933493
 10
18.84980116884211
 20
11.06958220771501
 10
19.33504909168292
 20
11.521005221034
 10
19.86485618877296
 20
12.02170201209753
 10
20.44166661052944
 20
12.57375430127588
 10
21.06785062474327
 20
13.17919301945308
 10
21.74572612533747
 20
13.84001093123822
 10
22.47757319024002
 20
14.55817184925892
 10
23.26564404099231
 20
15.33561739753899
 10
24.1121701656472
 20
16.17427203469538
 10
25.0193672988954
 20
17.07604683382472
 10
25.98943911076092
 20
18.04284231260043
 10
27.02457993829031
 20
19.0765506291329
 10
28.12697674861636
 20
20.17905725053201
 10
29.29886989998685
 20
21.35230148482468
 10
30.01189114414318
 20
22.0668758924904
 10
30.71725702453661
 20
22.77466785343801
 10
31.41393325624585
 20
23.47462215068511
 10
32.10092735598632
 20
24.16572549635613
 10
32.77724700632306
 20
24.84696475616009
 10
33.44190006697761
 20
25.51732700047031
 10
34.09389464245611
 20
26.17579955421748
 10
34.73223914682675
 20
26.82137006792388
 10
35.35594236773068
 20
27.45302660095076
 10
35.96401357932465
 20
28.06975771817189
 10
36.55546266509045
 20
28.67055263070132
 10
37.12930028004189
 20
29.25440136786175
 10
37.68453804668827
 20
29.82029499990679
 10
38.2201888511877
 20
30.36722593197763
 10
38.73526722078095
 20
30.8941883264335
 10
39.22878981763269
 20
31.40017864450008
 10
39.69977619830804
 20
31.88419644291126
 10
40.14724978772011
 20
32.34524549248181
 10
40.5702394240225
 20
32.78233541567057
 10
40.96778156684478
 20
33.19448418528611
 10
41.33892375920816
 20
33.5807219592729
 10
41.68273014379437
 20
33.94009730633704
 10
41.99829060594226
 20
34.27168761955141
 10
42.28473679132711
 20
34.57461755564376
 10
42.54127182425782
 20
34.84809378907564
 10
42.76722963203406
 20
35.09147572991456
 10
42.96220595671382
 20
35.30443526040737
 10
43.12638863354768
 20
35.48737216131723
 10
43.26157113056853
 20
35.64274412346859
 10
43.37547553858037
 20
35.78110496599871
 10
43.47368316768707
 20
35.91662696639105
 10
43.54411140396186
 20
36.03921083534576
 10
43.59761806773723
 20
36.14412054173911
 10
43.64717919543335
 20
36.25062688844226
 10
43.69513632914784
 20
36.36152952193267
 10
43.74270286041468
 20
36.4783765083448
 10
43.79053802557779
 20
36.60201788281541
 10
43.83900624801629
 20
36.73289287840714
 10
43.88830471559017
 20
36.87118760285853
 10
43.93853048242883
 20
37.01692569521783
 10
43.98971797997359
 20
37.17002289206768
 10
44.0418609151175
 20
37.33032109506481
 10
44.0949256781872
 20
37.49761027597187
 10
44.14885986838565
 20
37.67164330043221
 10
44.20359776691791
 20
37.85214582632052
 10
44.25906402288267
 20
38.03882314170062
 10
44.31517628145666
 20
38.23136533430955
 10
44.37184686060459
 20
38.42945075243851
 10
44.42898411303253
 20
38.63274868319778
 10
44.48649329759701
 20
38.84092140843595
 10
44.54427730012755
 20
39.05362565117978
 10
44.60223712384617
 20
39.27051381212366
 10
44.66027231069189
 20
39.49123489773463
 10
44.71828119777894
 20
39.71543524068925
 10
44.77616117517414
 20
39.94275904507664
 10
44.83380889223496
 20
40.17284899271266
 10
44.89112039187803
 20
40.40534669387677
 10
44.94799116687489
 20
40.6398928746337
 10
45.00431636543001
 20
40.87612784878328
 10
45.05999078642409
 20
41.11369186253518
 10
45.11490896580324
 20
41.35222523317419
 10
45.16897372690917
 20
41.5914063057235
 10
45.24273920705825
 20
41.92416244920637
 10
45.31207410115122
 20
42.24401178747636
 10
45.37701068907764
 20
42.55144735607856
 10
45.4375755607135
 20
42.84694906040247
 10
45.49379329142695
 20
43.13100366507572
 10
45.54568580505679
 20
43.40410520859579
 10
45.59327139259873
 20
43.66675530590793
 10
45.63656367461384
 20
43.91946323695114
 10
45.675570209398
 20
44.16274586612207
 10
45.7102909457913
 20
44.39712713323581
 10
45.7407163146673
 20
44.62313703341444
 10
45.76682518127461
 20
44.84130991549939
 10
45.78858251410568
 20
45.05218188022656
 10
45.80593706057481
 20
45.25628683976312
 10
45.81881917517948
 20
45.45415146526145
 10
45.82713904478337
 20
45.64628832207725
 10
45.83078586494069
 20
45.83318702031478
 10
45.82962856300149
 20
46.01530392619203
 10
45.82351861063144
 20
46.19305034390069
 10
45.81229579809233
 20
46.36677976835882
 10
45.79579745895321
 20
46.53677591925552
 10
45.77387134114005
 20
46.70324272688805
 10
45.7463917866254
 20
46.86629899837988
 10
45.71327775333229
 20
47.02597935060552
 10
45.67451083321107
 20
47.18224325370018
 10
45.63014996880892
 20
47.33499331968902
 10
45.58034012836973
 20
47.48410106304053
 10
45.52531247297973
 20
47.62943784597142
 10
45.46537496552649
 20
47.77090708455186
 10
45.40089425541462
 20
47.90847315993604
 10
45.3375163118796
 20
48.0319636777943
 10
45.28169214350193
 20
48.13791414677959
 10
45.23675365345591
 20
48.22637844906522
 10
45.19745156152984
 20
48.30732511445619
 10
45.16384543355993
 20
48.38050910325813
 10
45.13593353624459
 20
48.44562265303779
 10
45.1136244321164
 20
48.50230191954786
 10
45.09670149354224
 20
48.55014600966783
 10
45.08478207869823
 20
48.58875565488095
 10
45.07727735964609
 20
48.61779918163093
 10
45.0733647098147
 20
48.63711247795123
 10
45.07199198684799
 20
48.64683316955629
 10
45.07193843367371
 20
48.64755389614898
 10
45.07195260153946
 20
48.64045685978335
 10
45.07096576329399
 20
48.62737382381502
 10
45.06834072177451
 20
48.6107116087374
 10
45.06407643275085
 20
48.59321876693702
 10
45.05888184080374
 20
48.5776375872444
 10
45.05407645241684
 20
48.5663448291192
 10
45.05135142361614
 20
48.56109645795218
 10
45.05248137907584
 20
48.56293862493283
 10
45.05908036184125
 20
48.57227335574894
 10
45.07245461809783
 20
48.58901768972738
 10
45.09355434833702
 20
48.61278601575266
 10
45.12299661463641
 20
48.64304812703478
 10
45.1611253264437
 20
48.67924370821478
 10
45.20808105368285
 20
48.72085303488222
 10
45.26386483303256
 20
48.76743321135087
 10
45.32838973904583
 20
48.81863141857011
 10
45.40151915727191
 20
48.87418446058368
 10
45.48309333384886
 20
48.93391113337061
 10
45.57976994350032
 20
49.0025456803934
 10
45.68224971150138
 20
49.07603657400757
 10
45.78867148014505
 20
49.15628215922962
 10
45.89221587390814
 20
49.23874072254436
 10
45.99285952949928
 20
49.32378108534719
 10
46.09052654031123
 20
49.41176898598228
 10
46.18507979246179
 20
49.50305450714478
 10
46.27631436742053
 20
49.59795583344271
 10
46.36395486297361
 20
49.69673986461061
 10
46.44765845812255
 20
49.79960094308787
 10
46.52702517789
 20
49.90663959736305
 10
46.60161680739091
 20
50.01784496149763
 10
46.67098360175137
 20
50.13308433009237
 10
46.73469670563738
 20
50.2521031332149
 10
46.79238226717337
 20
50.37453748236285
 10
46.84375257023201
 20
50.49993959757516
 10
46.88862875097076
 20
50.62781304768107
 10
46.92695199827455
 20
50.75765317971563
 10
46.9587817820138
 20
50.88898717824965
 10
46.98428253835127
 20
51.02140782817007
 10
47.00370207093657
 20
51.15459752683345
 10
47.01734605055142
 20
51.28834125492659
 10
47.02555231046566
 20
51.422528736899
 10
47.02866828730497
 20
51.557148070446
 10
47.02703307126659
 20
51.69227388698393
 10
47.02096479459615
 20
51.82805209822625
 10
47.01075294496107
 20
51.96468453728433
 10
46.99665469257709
 20
52.10241394739305
 10
46.97889441862134
 20
52.24151116872401
 10
46.95766513980639
 20
52.38226441676664
 10
46.93313138772118
 20
52.52497078756689
 10
46.90677941461233
 20
52.66288104375499
 10
46.88240221396411
 20
52.78885946461519
 10
46.86247044904477
 20
52.9001235206731
 10
46.84563174702901
 20
53.003623351723
 10
46.83186989673311
 20
53.09923729065832
 10
46.82113331513833
 20
53.18681486201356
 10
46.81332420250563
 20
53.2661791491461
 10
46.80828558831826
 20
53.33713285838057
 10
46.80578651617042
 20
53.39947028326619
 10
46.80550654093232
 20
53.45299759663379
 10
46.80702186079018
 20
53.49756353387848
 10
46.80979730853213
 20
53.53310424281424
 10
46.8131905281456
 20
53.55970235685513
 10
46.8164768591473
 20
53.57765721430855
 10
46.81890387863205
 20
53.58755892997763
 10
46.81978099781614
 20
53.59034782257476
 10
46.81860034574433
 20
53.58733569138896
 10
46.81517055407397
 20
53.58016489346039
 10
46.80972919784229
 20
53.57069109064697
 10
46.80299349954031
 20
53.56080060235754
 10
46.79612102304216
 20
53.55220157380917
 10
46.79058130462536
 20
53.54624375690186
 10
46.78797238242764
 20
53.54381395483232
 10
46.78983321916174
 20
53.54532476163558
 10
46.79749795486774
 20
53.55078252669504
 10
46.81201431764215
 20
53.55989953500767
 10
46.83412417300679
 20
53.57221416995019
 10
46.86428977926553
 20
53.58719429519653
 10
46.9027441034976
 20
53.60431232686086
 10
46.94954801274919
 20
53.62309182815262
 10
47.00464339321914
 20
53.64313104780942
 10
47.08242288956785
 20
53.66892814009103
 10
47.16750952144139
 20
53.6976955184758
 10
47.26928316314276
 20
53.73552689079559
 10
47.37389090066826
 20
53.77714689200845
 10
47.48283135247247
 20
53.82277780375912
 10
47.59690391068617
 20
53.87253150827405
 10
47.71651192156679
 20
53.92644109861989
 10
47.84182118206805
 20
53.98448438797612
 10
47.972848429878
 20
54.04660035377993
 10
48.1095130521086
 20
54.11270031887407
 10
48.25166867685758
 20
54.18267557794906
 10
48.39912336823298
 20
54.25640275039863
 10
48.55165282685039
 20
54.33374755783258
 10
48.70900917054198
 20
54.414567457887
 10
48.87092716753523
 20
54.49871362563881
 10
49.03712856044959
 20
54.58603240616053
 10
49.2073251287301
 20
54.67636636107898
 10
49.38122105346618
 20
54.76955511324076
 10
49.55851458647768
 20
54.86543597704729
 10
49.73889933918511
 20
54.96384443923375
 10
49.92206528551502
 20
55.06461455394179
 10
50.10769960226137
 20
55.16757928863946
 10
50.29548719216638
 20
55.27257075514314
 10
50.48511126747604
 20
55.37942044176382
 10
50.67625372442593
 20
55.48795941282585
 10
50.86859551643673
 20
55.59801846459987
 10
51.06181693912363
 20
55.70942829124776
 10
51.25559791977968
 20
55.8220196231465
 10
51.44961826828701
 20
55.93562338591344
 10
51.6435579315455
 20
56.05007085315477
 10
51.83709714596678
 20
56.16519376759539
 10
52.02965210187025
 20
56.2806658124105
 10
53.81064827055314
 20
57.35614702418031
 10
53.66012136870141
 20
56.17074393854482
 10
53.61973000545447
 20
55.87448960903666
 10
53.57293473742833
 20
55.56330986210787
 10
53.51944129013843
 20
55.23491702432943
 10
53.45940025076361
 20
54.89015125102281
 10
53.39296733486545
 20
54.52980096446264
 10
53.32030116624459
 20
54.15461579081894
 10
53.24156194018009
 20
53.7653157962367
 10
53.1569106489668
 20
53.36259826071174
 10
53.06650859289561
 20
52.94714268050755
 10
52.97051713288998
 20
52.51961455078297
 10
52.86909749127771
 20
52.08066820965696
 10
52.76241070088534
 20
51.63094899928408
 10
52.65061758008088
 20
51.17109506239048
 10
52.53387866566898
 20
50.70173860421507
 10
52.41235429977579
 20
50.22350699042374
 10
52.28620458198327
 20
49.73702361916916
 10
52.15558944287265
 20
49.24290858995815
 10
52.02066862470289
 20
48.741779266515
 10
51.88160177213448
 20
48.2342507653717
 10
51.73854838739985
 20
47.7209363304036
 10
51.59166792639091
 20
47.20244763282379
 10
51.44111979391337
 20
46.67939509392763
 10
51.28706338890586
 20
46.15238808307128
 10
51.12965813678325
 20
45.62203515506273
 10
50.96906350983987
 20
45.0889442194206
 10
50.80543906405206
 20
44.55372267821372
 10
50.63894450097098
 20
44.01697761783419
 10
50.46973967427105
 20
43.47931593762831
 10
50.29798463633851
 20
42.94134444846348
 10
50.12383971339889
 20
42.40367004526581
 10
49.94640068650506
 20
41.86365916165369
 10
49.8981233126206
 20
41.71548399722976
 10
49.84822338395249
 20
41.5577813928338
 10
49.79782500035277
 20
41.39418239838552
 10
49.74696760760671
 20
41.22496784231987
 10
49.69570390629639
 20
41.05044505816011
 10
49.6440962728008
 20
40.87094145379161
 10
49.5922142242441
 20
40.68679969612835
 10
49.54013268204047
 20
40.49837426915278
 10
49.48793068191212
 20
40.30602892240046
 10
49.43569040683182
 20
40.11013458572184
 10
49.3834965086326
 20
39.91106786003024
 10
49.33143557885892
 20
39.70920984474523
 10
49.27959574270365
 20
39.5049451790796
 10
49.22806631929444
 20
39.29866120726065
 10
49.17693760555889
 20
39.09074735292599
 10
49.12630066659913
 20
38.88159462846378
 10
49.07624715021041
 20
38.67159505669774
 10
49.02686917319869
 20
38.46114124269901
 10
48.97825921410227
 20
38.25062601300653
 10
48.93050998662073
 20
38.04044192283582
 10
48.88371441154752
 20
37.83098093840798
 10
48.83796547081471
 20
37.62263394556981
 10
48.79335618995123
 20
37.41579023757378
 10
48.74997952278959
 20
37.21083695757999
 10
48.70792834849731
 20
37.00815845801356
 10
48.66729536435638
 20
36.8081355631795
 10
48.62817303885873
 20
36.61114450669429
 10
48.59065354253192
 20
36.41755572010267
 10
48.55482873095492
 20
36.2277323275618
 10
48.52079007007758
 20
36.04202810306732
 10
48.48927130332093
 20
35.86440640485246
 10
48.45833454289049
 20
35.69127696207061
 10
48.42486722428001
 20
35.51191522038029
 10
48.38835461526283
 20
35.32331575692054
 10
48.34894313975789
 20
35.12613896025683
 10
48.30677746837136
 20
34.92101326763771
 10
48.26200070206635
 20
34.70854359929629
 10
48.21475459502373
 20
34.48931735523408
 10
48.16517972046074
 20
34.26390858153547
 10
48.11341569208976
 20
34.03288107412008
 10
48.05960129951114
 20
33.79679068093878
 10
48.00387467927564
 20
33.55618701668259
 10
47.94637343109873
 20
33.31161485092074
 10
47.88723470213411
 20
33.06361504409453
 10
47.82659534163226
 20
32.81272547937824
 10
47.76459190003273
 20
32.55948162859905
 10
47.70136080367971
 20
32.30441713859383
 10
47.63703834854465
 20
32.04806431853985
 10
47.57176083222144
 20
31.79095449350572
 10
47.5056645689444
 20
31.53361839283668
 10
47.43888600424679
 20
31.27658641678291
 10
47.37156178465719
 20
31.02038904132711
 10
47.30382883995525
 20
30.7655570786359
 10
47.23582448327241
 20
30.51262201243979
 10
47.16768655341586
 20
30.26211640908441
 10
47.09955350267558
 20
30.01457424830316
 10
47.03156464164778
 20
29.77053144176849
 10
46.96386029029462
 20
29.53052638809007
 10
46.89658211170312
 20
29.2951006414124
 10
46.82987342779827
 20
29.06479981650765
 10
46.76387968312765
 20
28.8401745671114
 10
46.69800129521843
 20
28.61927461385108
 10
46.63207331898911
 20
28.39752465348736
 10
46.56740137784252
 20
28.17515519804346
 10
46.50477037971309
 20
27.95493779608778
 10
46.44422926287482
 20
27.73716654007535
 10
46.38582717908626
 20
27.52213391757135
 10
46.32961336235655
 20
27.31013029710349
 10
46.27563712390275
 20
27.10144337776538
 10
46.22394771408486
 20
26.89635746933259
 10
46.1745943056524
 20
26.69515257877383
 10
46.12762588356163
 20
26.49810332301954
 10
46.08309123625164
 20
26.30547750525119
 10
46.04103888600609
 20
26.1175343850831
 10
46.00151707915343
 20
25.934522249669
 10
45.96457382561127
 20
25.7566754124981
 10
45.93025698497307
 20
25.58421000273082
 10
45.89861453471048
 20
25.41731832929636
 10
45.86969507525977
 20
25.25616114824693
 10
45.84354875232894
 20
25.10085658012503
 10
45.82022902350202
 20
24.95146427016374
 10
45.79979588674961
 20
24.80796214970039
 10
45.78232186106347
 20
24.67021110933088
 10
45.76790344118648
 20
24.53790049405146
 10
45.7566833283475
 20
24.41046041126406
 10
45.74889569937682
 20
24.28691646669093
 10
45.74496221745673
 20
24.16563934987168
 10
45.74570811207425
 20
24.04389500479637
 10
45.75288233468256
 20
23.91700762401012
 10
45.77050995739226
 20
23.77677811952372
 10
45.80867660704556
 20
23.60873671548385
 10
45.89427854179245
 20
23.38997259031467
 10
46.11633888928186
 20
23.07486755792856
 10
46.5868772066444
 20
22.81911784789321
 10
47.03787338870859
 20
22.80064387969555
 10
47.35072018406129
 20
22.8724926456395
 10
47.59468012985927
 20
22.97005315746598
 10
47.8126209284559
 20
23.08289575211305
 10
48.02355010999461
 20
23.21049958909241
 10
48.23572404094894
 20
23.35323979520313
 10
48.45262564427051
 20
23.51105395381531
 10
48.6754633358997
 20
23.68340360177838
 10
48.9042762071789
 20
23.8694034899847
 10
49.13846092030609
 20
24.06793444667842
 10
49.37704146345121
 20
24.27772216779178
 10
49.61881612092243
 20
24.49738991541582
 10
49.86244235145236
 20
24.72549418875505
 10
50.10648856110531
 20
24.96054992328971
 10
50.34946743074856
 20
25.20104940804207
 10
50.58985899949789
 20
25.44547798782158
 10
50.82612814293668
 20
25.69232894833819
 10
51.05673928683242
 20
25.94011960755672
 10
51.28017066487502
 20
26.18741116488503
 10
51.49493012345981
 20
26.43283590588651
 10
51.69957455263972
 20
26.675137382502
 10
51.8927357931088
 20
26.91323344517122
 10
52.07315671820207
 20
27.14632052445642
 10
52.23974199686128
 20
27.37405499331075
 10
52.39162660090686
 20
27.5968859947731
 10
52.52825103155584
 20
27.81670286300246
 10
52.64936017120189
 20
28.03817293302222
 10
52.75450814456676
 20
28.27165356652777
 10
52.84008445854658
 20
28.53947855342589
 10
52.87301985489288
 20
28.79235037751272
 10
52.87437641540089
 20
28.87482485582001
 10
52.87481570423711
 20
28.88370843678553
 10
52.87549883620474
 20
28.89197626748082
 10
52.87637581376947
 20
28.89952823095212
 10
52.87738625877159
 20
28.90625936788511
 10
52.87845823277002
 20
28.91206099476349
 10
52.87950678019949
 20
28.91682077851977
 10
52.88043249269023
 20
28.92042412221251
 10
52.88111976624049
 20
28.92275498860649
 10
52.88143494213686
 20
28.92369736377487
 10
52.88122438729152
 20
28.92313740679592
 10
52.88031223720895
 20
28.92096550357038
 10
52.87849831102122
 20
28.91707970121366
 10
52.87555602856438
 20
28.91138978237961
 10
52.87123057245623
 20
28.90382240793962
 10
52.8652376805379
 20
28.89432769333835
 10
52.85726379095028
 20
28.88288781513317
 10
52.84696765964242
 20
28.86952682690416
 10
52.8339849785103
 20
28.85432281560844
 10
52.81793677938494
 20
28.83742139442957
 10
52.79844289393913
 20
28.81904999288783
 10
52.775142230716
 20
28.79953181596025
 10
52.74772062681561
 20
28.77929696085432
 10
52.71594686665171
 20
28.75888750975561
 10
52.67971483238099
 20
28.73895205068814
 10
52.63909001165958
 20
28.72022626711751
 10
52.59435180842926
 20
28.70349463981201
 10
52.54602427341892
 20
28.68953360553449
 10
52.49488482952131
 20
28.6790392721165
 10
52.44194199044679
 20
28.67254879971875
 10
52.48595092199821
 20
28.67433969009516
 10
52.67510064549914
 20
28.7037698049627
 10
52.86741369898351
 20
28.77580035550726
 10
53.00322126879402
 20
28.84660528029351
 10
53.11358530415061
 20
28.9158100461255
 10
53.21272350381896
 20
28.98591318480525
 10
53.3075715690769
 20
29.05896091981461
 10
53.40175584403377
 20
29.13631468218455
 10
53.49727440375007
 20
29.2188279654242
 10
53.59526249901428
 20
29.30701446977444
 10
53.69636791336931
 20
29.40116342136864
 10
53.80094775881637
 20
29.50141392092151
 10
53.90917799535759
 20
29.6078029279185
 10
54.02111700743029
 20
29.7202962697988
 10
54.13674448973131
 20
29.83880929027772
 10
54.25598589534853
 20
29.96322087842575
 10
54.37872836142606
 20
30.09338305290473
 10
54.50483138985149
 20
30.22912781086742
 10
54.63413410176151
 20
30.3702719061583
 10
54.76646049546891
 20
30.5166205135457
 10
54.90162298635718
 20
30.66796977515934
 10
55.03942512491233
 20
30.82410874751949
 10
55.17966365556897
 20
30.98482103533095
 10
55.32212985349248
 20
31.14988581369207
 10
55.46661077979874
 20
31.31907880570715
 10
55.61289009859387
 20
31.49217301822301
 10
55.76074878165537
 20
31.66893928930608
 10
55.90996564099841
 20
31.8491467972214
 10
56.06031780402603
 20
32.03256347789888
 10
56.21158096637313
 20
32.2189562947679
 10
56.36352982251736
 20
32.40809160806153
 10
56.5149008412967
 20
32.59843101307339
 10
56.6661182846162
 20
32.78922852171637
 10
56.81959001678655
 20
32.98224860238636
 10
56.97601232958118
 20
33.17838536870786
 10
57.13504580234176
 20
33.37722627710266
 10
57.29635193451873
 20
33.57836007850742
 10
57.45959296934631
 20
33.78137655052084
 10
57.6244317251336
 20
33.98586628422378
 10
57.79053149141288
 20
34.1914205205936
 10
57.95755587360296
 20
34.39763097583187
 10
58.12516874836477
 20
34.60408972937177
 10
58.29303417148081
 20
34.81038914912988
 10
58.46081622645651
 20
35.01612169935503
 10
58.62817905928537
 20
35.22087992253487
 10
58.79478669796957
 20
35.42425631460862
 10
58.96030301658988
 20
35.62584318703765
 10
59.12439164704536
 20
35.82523262887445
 10
59.28671583185141
 20
36.02201630783443
 10
59.44693834886949
 20
36.21578537964401
 10
59.60472129831
 20
36.40613026964138
 10
59.75972601138529
 20
36.59264052371577
 10
59.91161271987761
 20
36.77490451504625
 10
60.06004030124394
 20
36.95250908452472
 10
60.20466590192678
 20
37.12503918045559
 10
60.34514438451408
 20
37.29207724544684
 10
60.48112761483161
 20
37.45320244067505
 10
60.61226356358239
 20
37.607989677718
 10
60.73819487950705
 20
37.75600814607331
 10
60.85855696062388
 20
37.89681924823888
 10
60.97297507987424
 20
38.02997364408188
 10
61.08106012858939
 20
38.15500687343225
 10
61.18331789037939
 20
38.27248496173009
 10
61.28600345407201
 20
38.39016485900997
 10
61.39366243086072
 20
38.51386508573115
 10
61.50516194508823
 20
38.64227545234446
 10
61.62024328549595
 20
38.77508781411277
 10
61.73864498669039
 20
38.91199100919713
 10
61.86010344030589
 20
39.05267154261399
 10
61.98435348924034
 20
39.19681418053489
 10
62.11112869506807
 20
39.34410231855406
 10
62.24016161068317
 20
39.49421820410219
 10
62.37118405161049
 20
39.64684326942175
 10
62.50392719484523
 20
39.80165824223016
 10
62.63812173677206
 20
39.95834330771991
 10
62.77349795104517
 20
40.11657819364706
 10
62.90978578591009
 20
40.27604224929824
 10
63.04671496420957
 20
40.43641456897547
 10
63.18401498899227
 20
40.59737401660156
 10
63.32141522123068
 20
40.75859928509553
 10
63.4586448728661
 20
40.91976892303927
 10
63.59543311022999
 20
41.08056140197713
 10
63.73150903768379
 20
41.24065516007201
 10
63.86660174266868
 20
41.39972859951578
 10
64.00044033700888
 20
41.5574601702958
 10
64.13275398235075
 20
41.71352837741185
 10
64.26327196617291
 20
41.86761188038277
 10
64.39172368210724
 20
42.01938949176433
 10
64.51783871857317
 20
42.1685402450619
 10
64.64134692462234
 20
42.31474349866175
 10
64.76197849835745
 20
42.45767902990325
 10
64.87946406680069
 20
42.59702714798306
 10
64.99353484672527
 20
42.73246887025634
 10
65.10342312580342
 20
42.86309217656565
 10
65.21348011483013
 20
42.99366303690525
 10
65.32902056009894
 20
43.13010769427305
 10
65.4502070615204
 20
43.272634382419
 10
65.57668154404243
 20
43.42083437385639
 10
65.70809147691656
 20
43.57430603570111
 10
65.84408831232514
 20
43.73265284812125
 10
65.98432659731684
 20
43.89548214782874
 10
66.12846327342585
 20
44.06240429801215
 10
66.2761570624982
 20
44.23303189749603
 10
66.42706809524438
 20
44.40697929477474
 10
66.58085765768081
 20
44.58386225755044
 10
66.73718785948712
 20
44.7632976111611
 10
66.89572154068864
 20
44.94490304034674
 10
67.05612204818163
 20
45.12829690627292
 10
67.21805317102995
 20
45.31309807719658
 10
67.38117900009007
 20
45.49892584296218
 10
67.54516381051675
 20
45.68539971961804
 10
67.70967208436579
 20
45.87213946789953
 10
67.87436834306081
 20
46.05876495991983
 10
68.03891708656403
 20
46.2448960531816
 10
68.20298275235561
 20
46.4301525606171
 10
68.36622966288155
 20
46.61415418847601
 10
68.52832186269819
 20
46.79652038622694
 10
68.68892311673793
 20
46.97687028900052
 10
68.84769673690761
 20
47.15482259619108
 10
69.00430551397911
 20
47.32999544056001
 10
69.15841150339661
 20
47.50200621977314
 10
69.30967586928347
 20
47.67047138159585
 10
69.45775861839519
 20
47.83500618779074
 10
69.60231830790264
 20
47.99522438493461
 10
69.74336459319733
 20
48.15112795837739
 10
69.98963866197592
 20
48.4231249334463
 10
70.22163131922598
 20
48.68036314409635
 10
70.43998105701094
 20
48.9245690883652
 10
70.64547631088597
 20
49.15767508689116
 10
70.83889246743625
 20
49.3816586311501
 10
71.02096503875362
 20
49.59853554604835
 10
71.19235323040178
 20
49.81034305855686
 10
71.3535954425214
 20
50.01910805424192
 10
71.50506169342148
 20
50.22679615910648
 10
71.64691310367554
 20
50.43523956401427
 10
71.77908431538606
 20
50.64604868513315
 10
71.90130619596999
 20
50.86052323382672
 10
72.01318021046927
 20
51.07958958901678
 10
72.11429923708225
 20
51.3037959981027
 10
72.20438782332191
 20
51.53338634624282
 10
72.28342058956642
 20
51.76844777016645
 10
72.35168135586009
 20
52.00909634816612
 10
72.40974982104312
 20
52.25564903305374
 10
72.45843112399911
 20
52.50873907744973
 10
72.49866021108893
 20
52.76935721937336
 10
72.53141225575392
 20
53.0388284970462
 10
72.55763730100382
 20
53.31874918745063
 10
72.57822355676677
 20
53.61090957258625
 10
72.59398425804014
 20
53.91722103322102
 10
72.60566004798699
 20
54.23965665242129
 10
72.61392933096199
 20
54.58020800021504
 10
72.61942130438953
 20
54.94085652805119
 10
72.62272851847669
 20
55.32355655215362
 10
72.62441755174282
 20
55.73022644535749
 10
72.62503743833743
 20
56.16274548647107
 10
72.62512618023682
 20
56.62468981640183
 10
72.62417848077838
 20
56.91253977026143
 10
72.62134033743763
 20
57.19742507658587
 10
72.61664700049123
 20
57.47760143581327
 10
72.61012794538024
 20
57.75287063486895
 10
72.60181183426675
 20
58.02303699499148
 10
72.59172635518905
 20
58.28790780647292
 10
72.57989803920498
 20
58.5472938296688
 10
72.56635202954166
 20
58.80101000715497
 10
72.55111174055305
 20
59.04887630310681
 10
72.53419845650033
 20
59.29071861391251
 10
72.51563081928533
 20
59.52636994524597
 10
72.49542415584794
 20
59.75567197470018
 10
72.47358954271239
 20
59.97847699108415
 10
72.45013260367936
 20
60.1946501238173
 10
72.4250519189586
 20
60.4040724316604
 10
72.39833676105911
 20
60.60664479003013
 10
72.3699640560686
 20
60.80229292414105
 10
72.33989404168167
 20
60.99097391258086
 10
72.3080641892393
 20
61.1726848409365
 10
72.27438028234084
 20
61.34747434675467
 10
72.23870337488367
 20
61.51545808116089
 10
72.2008301228265
 20
61.6768395358115
 10
72.16046277558934
 20
61.83193825995659
 10
72.11716203206041
 20
61.98122839683364
 10
72.07027170122987
 20
62.1253897993627
 10
72.01879569772213
 20
62.26537374651228
 10
71.96119328114176
 20
62.40247976495644
 10
71.89503528274682
 20
62.53841961853975
 10
71.81643273721319
 20
62.6752883725412
 10
71.71914212991493
 20
62.81520458778324
 10
71.62445467076003
 20
62.92352058375121
 10
71.56805750416989
 20
62.98192205881782
 10
71.54601235424985
 20
63.00654531950156
 10
71.52901213288095
 20
63.02720777133104
 10
71.51659859977164
 20
63.04378840134693
 10
71.50818057609536
 20
63.05628411743513
 10
71.50304809529891
 20
63.06486164870689
 10
71.50040868628459
 20
63.06990500860618
 10
71.49944633324995
 20
63.07204751458541
 10
71.49939817372034
 20
63.07217547563054
 10
71.49963623652943
 20
63.07139588014864
 10
71.49973757536171
 20
63.07096754193149
 10
71.4995266043959
 20
63.07220601165712
 10
71.49908019498851
 20
63.07638120877739
 10
71.49869673963617
 20
63.08462711395026
 10
71.49883933120131
 20
63.09787979794876
 10
71.50006814571213
 20
63.11684939751478
 10
71.50297608721434
 20
63.14202329435873
 10
71.50813718847353
 20
63.17369208243558
 10
71.51607166216826
 20
63.21198781924023
 10
71.52722696212089
 20
63.2569255201489
 10
71.54197155343643
 20
63.3084413160941
 10
71.56059748523484
 20
63.36642441406346
 10
71.58332823128522
 20
63.43074216377054
 10
71.61032871080934
 20
63.50125776815542
 10
71.64171575347061
 20
63.577842087657
 10
71.6775680157627
 20
63.66038124927523
 10
71.71793464801183
 20
63.74878079908478
 10
71.76284247015575
 20
63.84296732576971
 10
71.81230182781195
 20
63.94288857786759
 10
71.86631136867014
 20
64.04851292799323
 10
71.92691753806923
 20
64.16373672945491
 10
71.99319910188956
 20
64.28933781259789
 10
72.05799186014174
 20
64.41475806370521
 10
72.11927000980729
 20
64.53636575727997
 10
72.17708315239997
 20
64.65449254829878
 10
72.23147876526916
 20
64.76950730319889
 10
72.28249864573053
 20
64.88182345076181
 10
72.33017350784684
 20
64.99190793870578
 10
72.37451480670369
 20
65.10029148588437
 10
72.41550225994251
 20
65.20757932394896
 10
72.45306603125391
 20
65.31446254109274
 10
72.48706062025508
 20
65.42172716729385
 10
72.5172285228026
 20
65.53025751320888
 10
72.54315093152096
 20
65.64102735972676
 10
72.5641849525627
 20
65.75506719722576
 10
72.57939149473259
 20
65.87339278775814
 10
72.58746761977008
 20
65.99687305947366
 10
72.58671522384923
 20
66.12602012665332
 10
72.57509952297234
 20
66.26070248904034
 10
72.55046448990663
 20
66.39982954801484
 10
72.51094670317342
 20
66.54112868486435
 10
72.4555347115555
 20
66.68119142596501
 10
72.38457720608386
 20
66.81591981638499
 10
72.29996245246099
 20
66.94131422632917
 10
72.2048036818712
 20
67.05430669613526
 10
72.10274329439413
 20
67.15327662622809
 10
71.99719995108762
 20
67.23807878354484
 10
71.89085449843664
 20
67.30969017648951
 10
71.78547203228375
 20
67.36972072344271
 10
71.68198165246073
 20
67.41998788234898
 10
71.58067736207448
 20
67.46223826034712
 10
71.50591689494965
 20
67.48918423443035
 10
71.40756656225292
 20
67.52572996146536
 10
71.35535427755839
 20
67.54949991387699
 10
71.32513668232558
 20
67.56642144395502
 10
71.31582425147097
 20
67.57289304283353
 10
71.32451095786726
 20
67.56528807487705
 10
71.34592934623799
 20
67.54109671221254
 10
71.37268643975038
 20
67.50060261901496
 10
71.39688754480503
 20
67.44829096988254
 10
71.41282739105023
 20
67.39265392303625
 10
71.41911503023712
 20
67.34384952880734
 10
71.41867630275956
 20
67.31052746395979
 10
71.41687961801689
 20
67.29785422700681
 10
71.41936578081473
 20
67.30745970885877
 10
71.43073546118872
 20
67.33853598217257
 10
71.45419047950071
 20
67.38906969263567
 10
71.49171258943537
 20
67.45670909558831
 10
71.54440183750413
 20
67.53922489088548
 10
71.61278633321665
 20
67.63469355599295
 10
71.69704968150542
 20
67.74153267274043
 10
71.79718069571265
 20
67.85847127727344
 10
71.91306588123729
 20
67.98449945412371
 10
72.04454413440334
 20
68.11881697276587
 10
72.19143794849127
 20
68.26078858308311
 10
72.35357035455192
 20
68.40990750154955
 10
72.53077365988939
 20
68.5657667434224
 10
72.72289335686713
 20
68.72803692938388
 10
72.92978934839675
 20
68.8964491975694
 10
73.15133583476896
 20
69.07078216679072
 10
73.3874203915839
 20
69.25085190471678
 10
73.63794280651607
 20
69.43650421143317
 10
73.90569063641533
 20
69.62968432044913
 10
74.06104439015525
 20
69.74067127151589
 10
74.2194580652807
 20
69.85446436884612
 10
74.3776917455088
 20
69.96873174768834
 10
74.53549584398266
 20
70.08327805090886
 10
74.69262025844586
 20
70.19790771911464
 10
74.84881450391153
 20
70.31242506467696
 10
75.00382799431952
 20
70.42663445052187
 10
75.15741007418963
 20
70.54034035578215
 10
75.30931028167629
 20
70.65334751121954
 10
75.45927850212726
 20
70.76546107249412
 10
75.60706513577921
 20
70.87648672366781
 10
75.75242133963962
 20
70.98623088098545
 10
75.89509938683209
 20
71.0945009791696
 10
76.03485285070728
 20
71.20110568466386
 10
76.17143706730768
 20
71.30585524308621
 10
76.30460964442852
 20
71.40856196855809
 10
76.43413106477882
 20
71.50904077988314
 10
76.55976554686856
 20
71.60710999316045
 10
76.68128208787938
 20
71.70259231306459
 10
76.79845592621976
 20
71.79531620678139
 10
76.91107057021304
 20
71.88511785816991
 10
77.018920517239
 20
71.97184385492277
 10
77.12181519242817
 20
72.05535510766371
 10
77.21958462656629
 20
72.13553265606595
 10
77.31208803282163
 20
72.21228659090204
 10
77.39922671486239
 20
72.28556996068089
 10
77.48096480720153
 20
72.3554016498977
 10
77.55736318912984
 20
72.42190539018046
 10
77.62863824236751
 20
72.48538017334735
 10
77.69526865218306
 20
72.5464356563859
 10
77.74767360581748
 20
72.59626267899982
 10
77.97739532915919
 20
72.81291316141044
 10
78.17221457823803
 20
72.98315916690287
 10
78.33658094680506
 20
73.11274703551207
 10
78.46278375362952
 20
73.19887272174402
 10
78.53770637809805
 20
73.24008046300186
 10
78.54030809263475
 20
73.24107585725734
 10
78.44587506074919
 20
73.22525012528
 10
78.25825792168826
 20
73.24673915743917
 10
78.05638335701258
 20
73.34680846996632
 10
77.93391719477927
 20
73.47318295412349
 10
77.89754483786372
 20
73.53979064789111
 10
77.90563910077523
 20
73.51443248687002
 10
77.92580146563553
 20
73.40169801705511
 10
77.9417065640521
 20
73.21284075644729
 10
77.94597246660132
 20
72.9565427564546
 10
77.93527423969958
 20
72.63828004940129
 10
77.90807414548432
 20
72.26124095730016
 10
77.86363846319907
 20
71.82714629437992
 10
77.80160684199527
 20
71.33679034989589
 10
77.72179729846442
 20
70.79037511055485
 10
77.62411463182021
 20
70.18771572020299
 10
77.50850593235397
 20
69.52836849464887
 10
77.37493846415771
 20
68.81171241555916
 10
77.22338844470274
 20
68.0370022499838
 10
77.05383534702032
 20
67.2034039205687
 10
76.86625906507795
 20
66.31001865627726
 10
76.66063845986562
 20
65.35589970963603
 10
76.4369508211457
 20
64.34006420800763
 10
76.19517163623041
 20
63.26150173288656
 10
75.93527458139657
 20
62.11918052699868
 10
75.65705607533957
 20
60.91128978552861
 10
75.38302725776062
 20
59.72524802739796
 10
75.1206620146572
 20
58.58406800259945
 10
74.87003919228732
 20
57.4879870894433
 10
74.6310509394291
 20
56.43643432796524
 10
74.40358912137341
 20
55.42883676413172
 10
74.18754520077529
 20
54.46461908588314
 10
73.98281022126366
 20
53.54320311650732
 10
73.78927472692006
 20
52.66400724048898
 10
73.6068286802858
 20
51.82644564418626
 10
73.43536135638242
 20
51.0299273536455
 10
73.27476124767898
 20
50.27385499780183
 10
73.12491591694943
 20
49.55762320176735
 10
72.9857118756085
 20
48.88061648595712
 10
72.85703438870482
 20
48.24220645525219
 10
72.73876731228283
 20
47.64174796002879
 10
72.63079295652068
 20
47.07857390814748
 10
72.53299194819191
 20
46.55198796122459
 10
72.44524327846098
 20
46.0612540913129
 10
72.36742469927141
 20
45.6055814904353
 10
72.29941376089781
 20
45.18410194109359
 10
72.24109048920894
 20
44.79583523980023
 10
72.19234319529951
 20
44.43963439780575
 10
72.15308165491477
 20
44.1140958820567
 10
72.12326659125384
 20
43.81740640692171
 10
72.10297868536034
 20
43.54706835977242
 10
72.09258886397993
 20
43.29938177747709
 10
72.09321013935298
 20
43.06840802377506
 10
72.10801441957901
 20
42.84378638340315
 10
72.14649735428858
 20
42.60613128565583
 10
72.23928765667856
 20
42.32011942187277
 10
72.4412968894099
 20
42.01269737700959
 10
72.7157871433111
 20
41.80030478254386
 10
73.01052200742346
 20
41.68219023431949
 10
73.30561651022072
 20
41.65015447676571
 10
73.55797847154822
 20
41.68096369776334
 10
73.7617643780234
 20
41.74325394870274
 10
73.92973261826184
 20
41.81934492779494
 10
74.07609785896852
 20
41.90309798272598
 10
74.21151368229215
 20
41.99374594662989
 10
74.34321238677703
 20
42.09241377184313
 10
74.47606519222163
 20
42.20070576639917
 10
74.61344671934188
 20
42.32021902495617
 10
74.75779720835496
 20
42.45240724744533
 10
74.91096748981897
 20
42.59856488284449
 10
75.07442925250329
 20
42.75984743699149
 10
75.24940453484186
 20
42.93729839823305
 10
75.43694713063064
 20
43.13187367265013
 10
75.63799497134814
 20
43.34446152689546
 10
75.8534044880485
 20
43.57589805738161
 10
76.08397363997331
 20
43.82697894630357
 10
76.33045781092741
 20
44.09846848597122
 10
76.59358076632847
 20
44.39110638731309
 10
76.87404250431842
 20
44.705612947875
 10
77.17252488657272
 20
45.04269305155314
 10
77.48969582055093
 20
45.40303925732952
 10
77.82621230027407
 20
45.78733420769223
 10
78.18272270850113
 20
46.1962524738745
 10
78.55986860018226
 20
46.6304620670665
 10
78.95828601133594
 20
47.09062558738128
 10
79.37860657435328
 20
47.57740119451422
 10
79.82145826048813
 20
48.09144335002469
 10
80.28724748033922
 20
48.63314919169542
 10
80.41006806637702
 20
48.77602253101824
 10
80.53620152180419
 20
48.92258487118526
 10
80.66558663665667
 20
49.07276924868283
 10
80.79792674921413
 20
49.22623479369321
 10
80.93292576946163
 20
49.38264135825835
 10
81.07028802698764
 20
49.54164928029979
 10
81.20971827612722
 20
49.7029193900592
 10
81.35092149314833
 20
49.86611282269986
 10
81.49360290481607
 20
50.03089096722553
 10
81.63746793694202
 20
50.19691547325148
 10
81.78222210849511
 20
50.36384810687417
 10
81.92757106791245
 20
50.53135077034462
 10
82.07322053195722
 20
50.69908546675963
 10
82.21887623624282
 20
50.86671422325472
 10
82.36424392744922
 20
51.03389907966918
 10
82.50902937548616
 20
51.20030209448546
 10
82.65293828399513
 20
51.3655852797279
 10
82.79567627190605
 20
51.52941054120419
 10
82.93694887141677
 20
51.69143968507499
 10
83.07646147368942
 20
51.85133436523169
 10
83.21391930210245
 20
52.00875604564501
 10
83.34902729548929
 20
52.16336589428128
 10
83.48149009276804
 20
52.31482471581032
 10
83.61101197412394
 20
52.4627929264469
 10
83.73729664527885
 20
52.60693031606828
 10
83.86004720461503
 20
52.74689596805736
 10
83.9789658879634
 20
52.88234804091572
 10
84.09375373327877
 20
53.01294335570255
 10
84.20411034524699
 20
53.13833712171208
 10
84.30973326360734
 20
53.25818230429677
 10
84.41069081239374
 20
53.37255198485312
 10
84.51298775583045
 20
53.48849361589913
 10
84.62186973303108
 20
53.61219541165428
 10
84.73665273133311
 20
53.74287373514711
 10
84.85702953270233
 20
53.88017225317884
 10
84.98268823323012
 20
54.0237295152763
 10
85.11331361923422
 20
54.17318040172175
 10
85.24858810981844
 20
54.32815718993221
 10
85.38819232850039
 20
54.48829017341131
 10
85.53180556812359
 20
54.65320815875898
 10
85.67910615460985
 20
54.82253886717284
 10
85.8297716181639
 20
54.99590915210586
 10
85.98347889456039
 20
55.17294518388761
 10
86.13990448312063
 20
55.35327265330235
 10
86.2987244534381
 20
55.53651678994795
 10
86.45961465969596
 20
55.72230253793998
 10
86.6222506783291
 20
55.91025458478843
 10
86.78630796614627
 20
56.09999742950357
 10
86.95146181321095
 20
56.29115544425461
 10
87.11738743231008
 20
56.48335286814496
 10
87.28375998444994
 20
56.67621391345815
 10
87.4502545990474
 20
56.86936274542508
 10
87.61654643413294
 20
57.06242357085404
 10
87.78231062478569
 20
57.25502060079087
 10
87.94722239323801
 20
57.44677811182703
 10
88.11095707913823
 20
57.63732054280523
 10
88.27319011881507
 20
57.82627246031953
 10
88.43359711519312
 20
58.01325862560419
 10
88.59185388686137
 20
58.19790405764516
 10
88.74763655598031
 20
58.37983413357577
 10
88.90062156116599
 20
58.55867463474081
 10
89.05019578020557
 20
58.73371248063812
 10
89.19987009386691
 20
58.90874827799423
 10
89.3537162459278
 20
59.0882431144412
 10
89.51166539505046
 20
59.27212792997675
 10
89.67335083510963
 20
59.45998542740438
 10
89.83840705525375
 20
59.65139980239115
 10
90.00646949770666
 20
59.84595641683642
 10
90.17717435031794
 20
60.04324156110906
 10
90.35015840750663
 20
60.24284226223538
 10
90.52505893621483
 20
60.44434613914665
 10
90.70151355498673
 20
60.64734124408185
 10
90.87916020530085
 20
60.8514160089831
 10
91.05763704404056
 20
61.05615915454824
 10
91.23658236098629
 20
61.2611595723551
 10
91.41563455283858
 20
61.46600628504212
 10
91.59443208619592
 20
61.67028841077283
 10
91.77261338179008
 20
61.87359505252194
 10
91.9498168231608
 20
62.07551525661065
 10
92.12568068643819
 20
62.27563798282289
 10
92.29984304721066
 20
62.47355198060405
 10
92.47194173859185
 20
62.66884573569462
 10
92.64161427306273
 20
62.86110739175081
 10
92.8084977221568
 20
63.04992462754113
 10
92.97222857848661
 20
63.23488450107434
 10
93.13244262131971
 20
63.41557329339811
 10
93.28877471207691
 20
63.5915763046597
 10
93.44085849818427
 20
63.76247753490254
 10
93.58832607620101
 20
63.92785932434183
 10
93.73080747910123
 20
64.08730181863801
 10
93.86792998059298
 20
64.24038222949447
 10
93.99931719011829
 20
64.38667388320596
 10
94.12539285997035
 20
64.52663871428489
 10
94.33533341796823
 20
64.76005955448821
 10
94.53448399396052
 20
64.98352147562301
 10
94.72287510898965
 20
65.1978968701262
 10
94.90110361022053
 20
65.40473330315437
 10
95.06973527909676
 20
65.60560460533249
 10
95.22928063103839
 20
65.80209929048368
 10
95.38016585275722
 20
65.99580003503057
 10
95.5227015761192
 20
66.18825165663354
 10
95.65705482176955
 20
66.38091624555044
 10
95.78323248095272
 20
66.57511739241961
 10
95.90108601326216
 20
66.77198037491802
 10
96.01034556091935
 20
66.97238122807387
 10
96.11068526448985
 20
67.1769221217254
 10
96.20181088797914
 20
67.38594901316858
 10
96.28355020712176
 20
67.59961786726684
 10
96.3559226926717
 20
67.8180010655463
 10
96.41916986557517
 20
68.04121026258112
 10
96.47374213108674
 20
68.26950634949058
 10
96.52025204663011
 20
68.50337409964075
 10
96.55941198807744
 20
68.74355181401444
 10
96.59197393924501
 20
68.9910210589638
 10
96.61868261800805
 20
69.24696951387885
 10
96.64024591166583
 20
69.51274170834985
 10
96.65732088752138
 20
69.7897893685867
 10
96.6705112210587
 20
70.07962803669488
 10
96.6803716319163
 20
70.38380322510301
 10
96.68741551699431
 20
70.70386601534241
 10
96.69212352174441
 20
71.04135680171197
 10
96.69495148592814
 20
71.39779548573622
 10
96.69633726754745
 20
71.77467632185675
 10
96.6967074993043
 20
72.17496006961974
 10
96.69586289836946
 20
72.41381136612708
 10
96.69334395434328
 20
72.65092771239939
 10
96.68919804079427
 20
72.88471134219691
 10
96.68346701348611
 20
73.11488235050736
 10
96.67619169988244
 20
73.3411635341631
 10
96.66741177721956
 20
73.56328101134834
 10
96.65716554289367
 20
73.78096508631407
 10
96.64548965062214
 20
73.99395130837453
 10
96.63241869471362
 20
74.2019818087479
 10
96.61798469248529
 20
74.40480693246383
 10
96.60221636096878
 20
74.6021872037426
 10
96.58513817805981
 20
74.79389623083864
 10
96.56676892875907
 20
74.97972415424437
 10
96.54711987068423
 20
75.15948239976039
 10
96.52619185728479
 20
75.33301008233936
 10
96.50397139852859
 20
75.50018251294938
 10
96.48042455988821
 20
75.66092360605718
 10
96.45548777916567
 20
75.81522268503545
 10
96.42905354077679
 20
75.96315920029585
 10
96.40094715855149
 20
76.10493899427559
 10
96.37088840297709
 20
76.2409482630831
 10
96.33842524159313
 20
76.3718367888515
 10
96.30281491272714
 20
76.49864764625654
 10
96.26280080015484
 20
76.62302214386105
 10
96.21617283004022
 20
76.74752197370132
 10
96.15885865728725
 20
76.87610587413107
 10
96.08297656645615
 20
77.01465952810329
 10
95.97272936331342
 20
77.17065506169988
 10
95.79748337468733
 20
77.34739432681098
 10
95.5125416896914
 20
77.51967757645279
 10
95.25631446848183
 20
77.57129329998401
 10
95.19882903377157
 20
77.57629670755549
 10
95.27321820990869
 20
77.5567945011704
 10
95.32818539754101
 20
77.53268242335014
 10
95.36135635940077
 20
77.51218633634743
 10
95.37465007846082
 20
77.50153215825297
 10
95.37192902686294
 20
77.50422934107733
 10
95.35734823914797
 20
77.52157446530022
 10
95.33457882258521
 20
77.55343961370548
 10
95.30659133071123
 20
77.59891036800252
 10
95.27569488272844
 20
77.65669436410236
 10
95.24365758397468
 20
77.72535085880156
 10
95.21183169058452
 20
77.80340746952808
 10
95.18125806953421
 20
77.88941262692862
 10
95.15274560989985
 20
77.9819540060729
 10
95.12692871682989
 20
78.07965970689547
 10
95.10430744271643
 20
78.18119115550209
 10
95.08527428520621
 20
78.28523222387727
 10
95.07013057008081
 20
78.39047705692543
 10
95.05909435642207
 20
78.49561715940327
 10
95.05230086268796
 20
78.59932843595568
 10
95.04979539330218
 20
78.70025927835525
 10
95.05151823936166
 20
78.79701940114586
 10
95.05728026131476
 20
78.88817188285991
 10
95.06672720984388
 20
78.9722313621912
 10
95.07929105001143
 20
79.04767373184167
 10
95.09412767006803
 20
79.11296792993146
 10
95.11004452153333
 20
79.16664526854335
 10
95.1254317046505
 20
79.20742964574018
 10
95.13823019164998
 20
79.23445708390157
 10
95.14600376612303
 20
79.24760346977637
 10
95.17275070576119
 20
79.28374950118217
 10
95.21562015434662
 20
79.33867418702461
 10
95.27836038777946
 20
79.42911679901314
 10
95.33496376283658
 20
79.52043474791965
 10
95.38613248392905
 20
79.61246391557023
 10
95.43246656440432
 20
79.70512568469636
 10
95.47446989975184
 20
79.79839386588347
 10
95.51256059318821
 20
79.89227157931107
 10
95.54708246481128
 20
79.98677552452479
 10
95.57831639999215
 20
80.08192599888297
 10
95.60649047655869
 20
80.1777406686714
 10
95.63178876694089
 20
80.27423083165567
 10
95.6543587862451
 20
80.3713996867161
 10
95.67431767846485
 20
80.46924180568955
 10
95.69175713631755
 20
80.56774298733859
 10
95.70674747829219
 20
80.66688053329749
 10
95.71934098999634
 20
80.76662461444866
 10
95.72957432120882
 20
80.86693864419441
 10
95.73747059435325
 20
80.96778021415388
 10
95.74304088607337
 20
81.06910254111936
 10
95.7462852807128
 20
81.17085477755202
 10
95.74719370268751
 20
81.27298307957705
 10
95.74574632160207
 20
81.37543167040302
 10
95.74191371313471
 20
81.47814318273716
 10
95.73565679735952
 20
81.58105971895613
 10
95.72692641377711
 20
81.68412310498327
 10
95.71566283820462
 20
81.78727535296802
 10
95.7017948237313
 20
81.89045925303462
 10
95.68523857264613
 20
81.99361819589916
 10
95.66589636831466
 20
82.09669606415186
 10
95.64365496102802
 20
82.19963704922949
 10
95.6221239133418
 20
82.28717757634581
 10
95.59253280493014
 20
82.40838595698938
 10
95.57301659387163
 20
82.50382493214983
 10
95.55977031608241
 20
82.58780848738391
 10
95.55216200902943
 20
82.6610195286422
 10
95.54940008479572
 20
82.72468364281291
 10
95.55070872971464
 20
82.78068479802432
 10
95.55557206875214
 20
82.83156790759556
 10
95.56398168813845
 20
82.88037717450943
 10
95.57659262661404
 20
82.93034048069175
 10
95.59471431809722
 20
82.98448684555407
 10
95.62013473913994
 20
83.04532288485085
 10
95.6548513881333
 20
83.11466415200356
 10
95.70081023733235
 20
83.19363973300733
 10
95.75972513619827
 20
83.28282100842267
 10
95.83299733637368
 20
83.38240024187152
 10
95.92171557969451
 20
83.49236014906923
 10
96.02670272279012
 20
83.61260450760405
 10
96.14857917860277
 20
83.74304390189231
 10
96.2878245721321
 20
83.88364397329138
 10
96.4448288684335
 20
84.03444708401793
 10
96.61993074832736
 20
84.19557739632086
 10
96.81344460196256
 20
84.36723691216787
 10
97.02567824978649
 20
84.54969724533366
 10
97.25694407154197
 20
84.74329003121608
 10
97.50756540210928
 20
84.94839757385124
 10
97.77787968770039
 20
85.16544424813308
 10
98.06823982814961
 20
85.39488916125291
 10
98.37901413471768
 20
85.63721995797863
 10
98.71058564297306
 20
85.892947652572
 10
99.06335105618219
 20
86.16260245131652
 10
99.43413940320372
 20
86.4440131941378
 10
99.61674202638744
 20
86.57926581741205
 10
99.79678722610349
 20
86.70705674139406
 10
99.97730010659774
 20
86.82982736589615
 10
100.1577026803578
 20
86.94736068428911
 10
100.3374074061712
 20
87.05944342346599
 10
100.515815336584
 20
87.16586556946368
 10
100.692313701788
 20
87.26641999130567
 10
100.866272658463
 20
87.36090220848202
 10
101.0370411386192
 20
87.44911035599203
 10
101.2039414236264
 20
87.53084550894691
 10
101.3662620884464
 20
87.60591250212362
 10
101.5232485142688
 20
87.67412148951327
 10
101.674090451169
 20
87.73529077009212
 10
101.8179052870804
 20
87.78925165406602
 10
101.9537153524719
 20
87.83585659375261
 10
102.0804172888222
 20
87.87499291100146
 10
102.1967402241193
 20
87.90660586967543
 10
102.3011892681379
 20
87.93073781021408
 10
102.3919703183392
 20
87.9475950667362
 10
102.466894746547
 20
87.95766321253429
 10
102.5232718237519
 20
87.96190585500753
 10
102.5578254974557
 20
87.96210339454626
 10
102.5667491529592
 20
87.96140684496538
 10
102.5461864884942
 20
87.9651474056262
 10
102.4937268052032
 20
87.98168651946398
 10
102.4116502681795
 20
88.02226653100747
 10
102.3113937606063
 20
88.09746565860374
 10
102.2145529207826
 20
88.20864478469322
 10
102.14374237424
 20
88.3403246709041
 10
102.1081451836891
 20
88.46537418808735
 10
102.0993954813341
 20
88.5684161516742
 10
102.1075663758766
 20
88.65605873670492
 10
102.1053317483585
 20
88.64166230208134
 10
102.0941430749268
 20
88.57916065208657
 10
102.0762379797553
 20
88.48572118067636
 10
102.052407147841
 20
88.36623716766792
 10
102.0230684710205
 20
88.22297490201241
 10
101.9885049170487
 20
88.05734398444632
 10
101.9489403520012
 20
87.87040349001573
 10
101.9045693255463
 20
87.6630464998004
 10
101.8555704796583
 20
87.43607914568351
 10
101.8021131793195
 20
87.19025825917483
 10
101.7443610997292
 20
86.92631100939313
 10
101.6824742654806
 20
86.64494588327463
 10
101.6166102556798
 20
86.34685907811073
 10
101.5469249673105
 20
86.03273841000099
 10
101.4735731375113
 20
85.7032659029633
 10
101.3967086396804
 20
85.35911943057292
 10
101.3164847101697
 20
85.00097378413233
 10
101.2330541360628
 20
84.62950151185653
 10
101.146569333523
 20
84.24537346381832
 10
101.0571824506831
 20
83.84925917359705
 10
100.9650453994155
 20
83.44182713105761
 10
100.8703099585302
 20
83.02374504843347
 10
100.7731277468934
 20
82.595680030503
 10
100.6736502701972
 20
82.15829862000223
 10
100.5720289818425
 20
81.7122669953192
 10
100.4684152357653
 20
81.2582510230835
 10
100.3629603380073
 20
80.79691626904439
 10
100.2558155570747
 20
80.32892812251153
 10
100.1471321019647
 20
79.85495176946468
 10
100.0369416557915
 20
79.37513177506567
 10
99.78279143080216
 20
78.26467198437898
 10
99.53543620838498
 20
77.17467735203218
 10
99.295173791683
 20
76.10661377842902
 10
99.0621832091224
 20
75.06142792394679
 10
98.83664335129153
 20
74.04006536171441
 10
98.61873289099161
 20
73.04347035615648
 10
98.40863027126066
 20
72.07258555802913
 10
98.20651367430122
 20
71.12835168766648
 10
98.01256092138929
 20
70.21170707730568
 10
97.82694944247747
 20
69.32358710494864
 10
97.64985615764829
 20
68.46492346020413
 10
97.481457411752
 20
67.63664320794439
 10
97.32192879128284
 20
66.83966751966993
 10
97.17144499245602
 20
66.0749099712895
 10
97.0301795851319
 20
65.34327424477679
 10
96.89830475740517
 20
64.64565093455022
 10
96.77599094603276
 20
63.98291301677983
 10
96.6634064239266
 20
63.35590928508781
 10
96.56071680061466
 20
62.76545477707101
 10
96.46808432277352
 20
62.21231601694315
 10
96.38566735259661
 20
61.69718799834017
 10
96.31361991781029
 20
61.22065666910662
 10
96.25209247570513
 20
60.78313506377567
 10
96.20123593077363
 20
60.38474886813447
 10
96.16121611365635
 20
60.02511769924372
 10
96.13226098889007
 20
59.702902426329
 10
96.11482138251925
 20
59.41476738863946
 10
96.11018368758691
 20
59.15265849535266
 10
96.12332085546802
 20
58.89524745707192
 10
96.18100476342116
 20
58.57468982471747
 10
96.39723540202142
 20
58.15201718891081
 10
96.79692354639228
 20
57.87986765515646
 10
97.16284687995355
 20
57.79259655347501
 10
97.46420569076729
 20
57.80871904265324
 10
97.69463206243898
 20
57.86867930269212
 10
97.87921486889141
 20
57.94508361919538
 10
98.03926384299858
 20
58.03030432898422
 10
98.18805141606042
 20
58.1235147779179
 10
98.33343854295788
 20
58.22567501509658
 10
98.48017244623594
 20
58.33801205180833
 10
98.63123683567488
 20
58.46162526462908
 10
98.78859294262199
 20
58.59742040795862
 10
98.95358876011197
 20
58.74613006683101
 10
99.12719130286317
 20
58.90834996283932
 10
99.31012273180721
 20
59.08457171855409
 10
99.50294311053756
 20
59.27520878097487
 10
99.70610214874577
 20
59.48061582735817
 10
99.91997259852124
 20
59.70110307786175
 10
100.1448723419273
 20
59.93694685442838
 10
100.3810793092171
 20
60.18839731764981
 10
100.6288419120794
 20
60.45568429505325
 10
100.8883863603959
 20
60.73902166542258
 10
101.1599218876059
 20
61.03861062191279
 10
101.443644649876
 20
61.3546422323215
 10
101.7397405184558
 20
61.68729938006596
 10
102.0483872835012
 20
62.03675829087184
 10
102.3697562512432
 20
62.40318975902146
 10
102.7040134832942
 20
62.78676006113649
 10
103.0513207959632
 20
63.18763172611245
 10
103.4118365459937
 20
63.60596418023335
 10
103.7857161755355
 20
64.04191420508451
 10
104.1725745660183
 20
64.49500601272067
 10
104.3046383882314
 20
64.64979074519731
 10
104.4379354382025
 20
64.8056091368783
 10
104.572756282319
 20
64.96281182089523
 10
104.708832899627
 20
65.12109485013337
 10
104.8458977039944
 20
65.2801548389436
 10
104.9836834573589
 20
65.43968886584769
 10
105.1219232392164
 20
65.59939440840571
 10
105.2603502819619
 20
65.75896920373349
 10
105.3986978857973
 20
65.91811108923358
 10
105.5366994566326
 20
66.07651804380423
 10
105.6740883572009
 20
66.23388806596482
 10
105.8105977847744
 20
66.38991899771275
 10
105.9459608010271
 20
66.54430854233382
 10
106.0799101703325
 20
66.69675413053093
 10
106.2121782907835
 20
66.8469528067248
 10
106.3424969950701
 20
66.99460105266873
 10
106.4705975148035
 20
67.13939468752275
 10
106.596210208638
 20
67.2810286625031
 10
106.7190643353329
 20
67.41919675265063
 10
106.8388877735767
 20
67.55359130925316
 10
106.9554065874089
 20
67.6839027910073
 10
107.0683444906601
 20
67.8098192242638
 10
107.1774221567825
 20
67.93102549415597
 10
107.2823561006063
 20
68.0472022405668
 10
107.3828573234975
 20
68.15802445240585
 10
107.4786292584086
 20
68.26315948751379
 10
107.5693645892684
 20
68.36226392982337
 10
107.6547406390615
 20
68.45497910935305
 10
107.7344120018136
 20
68.54092408472772
 10
107.807998357797
 20
68.61968416188546
 10
107.8779495845386
 20
68.69385148668216
 10
107.9564203791025
 20
68.77749229818227
 10
108.0499870450509
 20
68.8788151895333
 10
108.1559161703741
 20
68.99480819641586
 10
108.2742298865134
 20
69.12543828026617
 10
108.4047246622078
 20
69.27044475108376
 10
108.5470862142451
 20
69.42945320148135
 10
108.7009406267411
 20
69.60202717324758
 10
108.8658795209141
 20
69.78769393623104
 10
109.0414735021737
 20
69.9859584491789
 10
109.2272796844032
 20
70.1963112612967
 10
109.4228462413221
 20
70.41823328645486
 10
109.627715266594
 20
70.65119884948139
 10
109.8414245477405
 20
70.89467761338308
 10
110.0635087468478
 20
71.14813582968665
 10
110.2935003133378
 20
71.41103729890271
 10
110.5309299539485
 20
71.68284395513888
 10
110.7753271206554
 20
71.96301630316344
 10
111.0262202895313
 20
72.2510137998201
 10
111.2831371546487
 20
72.54629503689161
 10
111.5456048166056
 20
72.84831794037838
 10
111.8131499601987
 20
73.15653996084136
 10
112.0852988337264
 20
73.47041811513462
 10
112.3615774508592
 20
73.7894091018043
 10
112.6415115781801
 20
74.11296939230819
 10
112.9246268262292
 20
74.44055525747493
 10
113.2104486479737
 20
74.77162282705943
 10
113.4985024402509
 20
75.10562813342308
 10
113.788313518843
 20
75.44202716344657
 10
114.079407160879
 20
75.78027584774391
 10
114.3713086725706
 20
76.11983014866358
 10
114.6635721717336
 20
76.46017962009911
 10
115.163354288841
 20
77.04294928579328
 10
115.6323283336948
 20
77.59108279561109
 10
116.0716625786362
 20
78.10653787042598
 10
116.4825074477386
 20
78.59125596776717
 10
116.8660250307356
 20
79.04719913626711
 10
117.2233889541005
 20
79.4763531425735
 10
117.5557831386145
 20
79.88073062973153
 10
117.8643991066665
 20
80.26237399612774
 10
118.1504308876322
 20
80.62335738206912
 10
118.4150668232433
 20
80.96578671486438
 10
118.6594773383004
 20
81.29179648290054
 10
118.8847977854309
 20
81.60354093911526
 10
119.0921064926936
 20
81.90317718216144
 10
119.2823988766151
 20
82.19283699502792
 10
119.4565612795426
 20
82.47458503601945
 10
119.6153505576156
 20
82.7503632431638
 10
119.7593885713845
 20
83.02192575602318
 10
119.8891813117131
 20
83.29077582984274
 10
120.0051686503375
 20
83.55812290336343
 10
120.1078016855067
 20
83.82488129964722
 10
120.1976316999761
 20
84.09172565285166
 10
120.275385880252
 20
84.35920195755455
 10
120.3420057528815
 20
84.62787257307282
 10
120.3986376369759
 20
84.89845931749896
 10
120.4465824827016
 20
85.17194987219233
 10
120.4872259316568
 20
85.44964803220861
 10
120.5219711225118
 20
85.73316886025285
 10
120.552189276438
 20
86.0243937003218
 10
120.5791929552768
 20
86.32540515269756
 10
120.6042288943037
 20
86.6384192934737
 10
120.6286176556702
 20
86.9675320650648
 10
120.6454664733913
 20
87.21557711251769
 10
120.6598131143222
 20
87.45992437855655
 10
120.6715368635324
 20
87.69950443252492
 10
120.6805990138479
 20
87.93448171662969
 10
120.6869587782192
 20
88.16501951812052
 10
120.690573307632
 20
88.39127941406134
 10
120.6913975905688
 20
88.61342100565197
 10
120.6893844536672
 20
88.83160117335107
 10
120.6844846475782
 20
89.04597363206139
 10
120.6766469105041
 20
89.25668828544153
 10
120.6658182060686
 20
89.46389052679248
 10
120.6519439737463
 20
89.66772057825176
 10
120.6349685529025
 20
89.86831276787619
 10
120.6148356508114
 20
90.06579499834021
 10
120.591488943692
 20
90.26028801104232
 10
120.564872830526
 20
90.45190491599273
 10
120.5349332288308
 20
90.64075076300203
 10
120.5016185254645
 20
90.82692237477114
 10
120.4648805115195
 20
91.01050821141516
 10
120.4246754653758
 20
91.19158862557849
 10
120.3809650617055
 20
91.37023632162419
 10
120.3337174211788
 20
91.54651693276467
 10
120.2829078751695
 20
91.72049013957313
 10
120.2285196785607
 20
91.89221079450945
 10
120.1705444528346
 20
92.06173045251055
 10
120.1089823923856
 20
92.22909891574619
 10
120.04384224176
 20
92.39436593562837
 10
119.9751408661993
 20
92.55758310568199
 10
119.9029026399204
 20
92.71880543990106
 10
119.8271585632766
 20
92.87809301543302
 10
119.7514874794986
 20
93.02847269102334
 10
119.679109331673
 20
93.17011463182948
 10
119.6151112148326
 20
93.2986815830001
 10
119.5559388919119
 20
93.42115087032279
 10
119.5015807597254
 20
93.53754231179218
 10
119.4520173546549
 20
93.64786093742056
 10
119.4072184726648
 20
93.75209629180857
 10
119.3671394640999
 20
93.85022241796709
 10
119.3317167832647
 20
93.94219848721158
 10
119.3008626162504
 20
94.02797083901702
 10
119.2744586683175
 20
94.10747669366249
 10
119.2523493657978
 20
94.18065021831382
 10
119.2343347517234
 20
94.24743190286254
 10
119.2201639715432
 20
94.30778174664803
 10
119.2095305305752
 20
94.36169686381218
 10
119.202071046819
 20
94.4092336867524
 10
119.1973696090013
 20
94.45053438249468
 10
119.1949701935738
 20
94.48585498018508
 10
119.1943990389879
 20
94.51559176492403
 10
119.1951975615668
 20
94.54030145409504
 10
119.1969642457671
 20
94.56070847943364
 10
119.1994007517215
 20
94.57769312769362
 10
119.2023547462665
 20
94.59225885558909
 10
119.2058503411839
 20
94.60547877147447
 10
119.2100983693764
 20
94.61842857905893
 10
119.2154824938586
 20
94.63211650311965
 10
119.2225231063867
 20
94.6474226409937
 10
119.231826234229
 20
94.66505767224189
 10
119.2440271829362
 20
94.68554476847034
 10
119.2597390853419
 20
94.70922467017166
 10
119.2795130828833
 20
94.73627803474494
 10
119.3144715408312
 20
94.78012678500501
 10
119.370000082667
 20
94.84918820451831
 10
119.4337925660402
 20
94.93403263371057
 10
119.4948282634378
 20
95.02133808157944
 10
119.5528914302991
 20
95.11123497587373
 10
119.6077325731146
 20
95.20381395481668
 10
119.6590727722245
 20
95.29911526432205
 10
119.7066111755099
 20
95.39711909455005
 10
119.7500359594919
 20
95.49773784096878
 10
119.7890380825523
 20
95.60081151178009
 10
119.8233275580197
 20
95.70610809500265
 10
119.852650110809
 20
95.8133292329551
 10
119.8768029577462
 20
95.92212140847028
 10
119.8956475470835
 20
96.03209291671646
 10
119.9091174849387
 20
96.14283342842366
 10
119.9172210488133
 20
96.25393612383439
 10
119.9200375857386
 20
96.36501855690415
 10
119.9177089341152
 20
96.47574076314578
 10
119.910426869455
 20
96.58581866185952
 10
119.8984187000541
 20
96.69503251562031
 10
119.881932260864
 20
96.80322994277985
 10
119.861222319573
 20
96.91032409482904
 10
119.8365388404681
 20
97.01628869853538
 10
119.8081181277053
 20
97.12115026175815
 10
119.7761765378242
 20
97.22497943469969
 10
119.7409067549121
 20
97.32788210992447
 10
119.7024761727334
 20
97.42999064930905
 10
119.6610270506408
 20
97.53145609052973
 10
119.6166775115881
 20
97.63244196049733
 10
119.5695235858106
 20
97.73311854473754
 10
119.5196415369677
 20
97.83365878281015
 10
119.4726562047358
 20
97.92358260212862
 10
119.430946496567
 20
98.00431497224463
 10
119.40147916514
 20
98.06631417208656
 10
119.3787617354473
 20
98.11941765291228
 10
119.3622941963972
 20
98.16341811474739
 10
119.3513017041772
 20
98.19832411177271
 10
119.3447503261865
 20
98.22451094393709
 10
119.3414333007948
 20
98.24287648040895
 10
119.3401418560206
 20
98.25495335961446
 10
119.3399030542638
 20
98.26291390097423
 10
119.3402236492817
 20
98.26942272109575
 10
119.3412523884249
 20
98.27734695250997
 10
119.3437918159622
 20
98.2894003826884
 10
119.3491534059554
 20
98.30783538900022
 10
119.3589169779601
 20
98.33426916597035
 10
119.3746836964765
 20
98.369667196221
 10
119.3978913546793
 20
98.41444551221356
 10
119.4297167538372
 20
98.46862769001473
 10
119.4710540293329
 20
98.53200260050721
 10
119.5225417236784
 20
98.60425211791382
 10
119.5846120892379
 20
98.68503987639518
 10
119.657544262267
 20
98.77406495554668
 10
119.7415115921426
 20
98.87108949174441
 10
119.8366193472698
 20
98.97594889326722
 10
119.9429326900206
 20
99.08855177803854
 10
120.0604963772526
 20
99.20887454436516
 10
120.1893479936244
 20
99.33695363088428
 10
120.3295264121674
 20
99.47287721539141
 10
120.4810768709995
 20
99.61677726226665
 10
120.6440538688151
 20
99.76882246361832
 10
120.8185224766076
 20
99.92921210160486
 10
121.0033919921502
 20
100.0971112217345
 10
121.1261106283712
 20
100.2067684740481
 10
121.2523148128913
 20
100.317204436755
 10
121.3827711302477
 20
100.4291405195919
 10
121.5171036887817
 20
100.542283635751
 10
121.6549431789079
 20
100.6563514443822
 10
121.7959256920208
 20
100.7710702295508
 10
121.9396915548068
 20
100.8861731003042
 10
122.0858845043925
 20
101.0013986411708
 10
122.2341509560006
 20
101.1164898753089
 10
122.3841392320453
 20
101.2311932996388
 10
122.5354989416957
 20
101.3452581350536
 10
122.68788047203
 20
101.4584357449434
 10
122.8409343126337
 20
101.570479044468
 10
122.9943105082104
 20
101.681141995662
 10
123.1476580814358
 20
101.7901792024553
 10
123.3006243326027
 20
101.8973454502059
 10
123.4528541083751
 20
102.0023952865479
 10
123.6039889907553
 20
102.1050826238859
 10
123.75366626018
 20
102.205160282014
 10
123.9015176397315
 20
102.302379469853
 10
124.0471678610047
 20
102.3964892822442
 10
124.1902327604912
 20
102.487236086121
 10
124.3303168728885
 20
102.5743627978962
 10
124.467010338766
 20
102.6576080646686
 10
124.5998848192905
 20
102.736705274067
 10
124.7284881418456
 20
102.8113814398871
 10
124.8523369826186
 20
102.8813558785228
 10
124.970906773043
 20
102.9463386536512
 10
125.0836178098073
 20
103.0060289856958
 10
125.1898154229893
 20
103.0601137168347
 10
125.2940152950955
 20
103.110833432782
 10
126.9296875965881
 20
103.8890981089211
 10
131.5431932743408
 20
101.0991726881349
 10
131.8119966795671
 20
100.9361146596588
 10
132.0803299671479
 20
100.7737473774957
 10
132.346722118999
 20
100.6129519615908
 10
132.6107695329846
 20
100.4539620485532
 10
132.8720687224063
 20
100.2970112387427
 10
133.1302163764306
 20
100.1423330353718
 10
133.3848095055493
 20
99.99016078987491
 10
133.6354454519292
 20
99.84072768593758
 10
133.8817220365432
 20
99.69426663597629
 10
134.123237745249
 20
99.55101020945825
 10
134.3595918268359
 20
99.4111905618259
 10
134.5903845487957
 20
99.27503929342517
 10
134.8152174694174
 20
99.14278730705507
 10
135.0336937851844
 20
99.01466461832162
 10
135.2454188292438
 20
98.89090008497658
 10
135.4500006851004
 20
98.77172110106373
 10
135.6470510156171
 20
98.65735312509858
 10
135.8361863751221
 20
98.5480190201793
 10
136.0170297886528
 20
98.44393824602678
 10
136.1892132635438
 20
98.34532552792923
 10
136.3523815058539
 20
98.25238903078254
 10
136.5061974039811
 20
98.1653275689915
 10
136.6503510082914
 20
98.08432621591106
 10
136.7845740316524
 20
98.00954927245547
 10
136.9086649921302
 20
97.94112838396283
 10
137.0225349438513
 20
97.87914143894207
 10
137.1262969806085
 20
97.82357264170929
 10
137.2204575539357
 20
97.77423062374929
 10
137.3063776283066
 20
97.73056181773858
 10
137.3875876538406
 20
97.69115845454621
 10
137.4045273103053
 20
97.6835676736231
 10
137.3175940868743
 20
97.73276914378636
 10
137.1663615512958
 20
97.88598686072552
 10
137.0654618436368
 20
98.08205497668168
 10
137.0310994326296
 20
98.25768130926593
 10
137.0352715329342
 20
98.37380217360435
 10
137.0469483213613
 20
98.4285553819257
 10
137.0492333964257
 20
98.43499568449279
 10
137.0357607612966
 20
98.40643451005955
 10
137.005159950892
 20
98.35285517819484
 10
136.9580461178022
 20
98.28124453574451
 10
136.8957328368712
 20
98.19652380075864
 10
136.8197312691463
 20
98.10228572321824
 10
136.7315690302783
 20
98.00127818930355
 10
136.6327340568059
 20
97.89570654995364
 10
136.5246662254485
 20
97.78742216671149
 10
136.4087659628588
 20
97.67804106201029
 10
136.2864091303145
 20
97.5690203993741
 10
136.1589639414941
 20
97.46170877994147
 10
136.0278090803876
 20
97.35737969049512
 10
135.8943538744192
 20
97.25725400666911
 10
135.7600617407629
 20
97.16251449365912
 10
135.6264789533329
 20
97.07431360284303
 10
135.4952715442535
 20
96.99377426022055
 10
135.3682740515199
 20
96.92198132818238
 10
135.2475546749608
 20
96.85995832698285
 10
135.1355019497423
 20
96.80861881949663
 10
135.0349362541339
 20
96.76867282692243
 10
134.9492407940016
 20
96.74045332338899
 10
134.8824781689458
 20
96.72360471031364
 10
134.8393844382808
 20
96.71655252822185
 10
134.7818244962207
 20
96.71313781663898
 10
134.7356412323422
 20
96.71220050233414
 10
134.650370546102
 20
96.70700105426359
 10
134.5659318107797
 20
96.69840551969246
 10
134.4824074605356
 20
96.68646712169318
 10
134.3998722622609
 20
96.67123296186111
 10
134.3183946158561
 20
96.65274251898158
 10
134.2380378158021
 20
96.63102624170934
 10
134.1588615713362
 20
96.60610423361747
 10
134.0809236315175
 20
96.57798502955687
 10
134.0042819729974
 20
96.54666458057754
 10
133.9289969627205
 20
96.51212538407124
 10
133.855133668076
 20
96.47433565416227
 10
133.7827651284254
 20
96.4332490659211
 10
133.7119752865788
 20
96.38880457042131
 10
133.6428629629129
 20
96.34092691193472
 10
133.5755459281334
 20
96.28952779397595
 10
133.5101653528016
 20
96.23450770187941
 10
133.446891095288
 20
96.17575937443056
 10
133.3859267253291
 20
96.11317240609245
 10
133.3275144062669
 20
96.046639502657
 10
133.2719396648931
 20
95.97606517939242
 10
133.2195351332142
 20
95.90137716652912
 10
133.1706812083646
 20
95.82253877730723
 10
133.1258051792346
 20
95.73956478880999
 10
133.085375460405
 20
95.65253838237838
 10
133.0498907986115
 20
95.56162736765732
 10
133.0198641577708
 20
95.46710017030348
 10
132.9958002601729
 20
95.36933618882695
 10
132.9781687976968
 20
95.26883054049823
 10
132.9673746389148
 20
95.16618980958093
 10
132.9661057502861
 20
95.12997266239567
 10
132.9728156616135
 20
95.19651470155522
 10
132.9906760144473
 20
95.26793955563367
 10
132.9994050305102
 20
95.29251544711785
 10
132.9969484979243
 20
95.28684868730934
 10
132.9837034022283
 20
95.26005307661745
 10
132.9605342241079
 20
95.21738824599174
 10
132.9282840894914
 20
95.16208601546499
 10
132.8876774808581
 20
95.09625986744288
 10
132.8393219451837
 20
95.02137519037915
 10
132.783730314429
 20
94.93850411430414
 10
132.7213431973915
 20
94.84847053866444
 10
132.6525470598993
 20
94.75193605859903
 10
132.5776877846407
 20
94.64945277529277
 10
132.4970807341371
 20
94.54149696525728
 10
132.4110180991109
 20
94.42849113830373
 10
132.3197743416146
 20
94.31081887588334
 10
132.22361022284
 20
94.18883507879113
 10
132.1227758243814
 20
94.06287314191214
 10
132.0175128484836
 20
93.93325013973765
 10
131.9080563354599
 20
93.80027054612292
 10
131.7946360896083
 20
93.66422908170939
 10
131.6774777074158
 20
93.52541281076984
 10
131.5568034348403
 20
93.38410272586194
 10
131.4328328072248
 20
93.24057497503208
 10
131.3057832659774
 20
93.09510185843678
 10
131.1758705648206
 20
92.94795259472582
 10
131.0433091922929
 20
92.79939393003718
 10
130.9083126915019
 20
92.64969067890071
 10
130.7710939379032
 20
92.49910610090451
 10
130.6318654127873
 20
92.34790228459636
 10
130.4889288286909
 20
92.1942870923737
 10
127.515230597296
 20
88.996157285349
 10
126.8277452734285
 20
75.72242924595488
 10
126.7926985882309
 20
75.03157831551805
 10
126.7581766896625
 20
74.33701995355491
 10
126.7242217277178
 20
73.63999013050157
 10
126.6908757712622
 20
72.94172225140892
 10
126.6581808963645
 20
72.24345006204591
 10
126.6261792259101
 20
71.54640753401935
 10
126.5949129089496
 20
70.85182880605967
 10
126.5644241244019
 20
70.1609481156249
 10
126.5347550342565
 20
69.47499967023516
 10
126.5059478616652
 20
68.79521759873569
 10
126.4780447910494
 20
68.12283585652804
 10
126.4510880523608
 20
67.45908810639591
 10
126.4251198469852
 20
66.80520762443585
 10
126.4001823998669
 20
66.16242713106332
 10
126.3763179264734
 20
65.53197867313335
 10
126.3535686290442
 20
64.91509337448068
 10
126.3319767015171
 20
64.31300116669007
 10
126.3115843534287
 20
63.72693049534369
 10
126.2924337512759
 20
63.15810785603622
 10
126.2745670740601
 20
62.60775719607753
 10
126.2580264667097
 20
62.07709911672744
 10
126.2428541020271
 20
61.56734977218937
 10
126.2290921380328
 20
61.07971934127518
 10
126.216782766182
 20
60.61540971644025
 10
126.2059682714355
 20
60.17561118303765
 10
126.1966911335954
 20
59.76149738759848
 10
126.1889942006863
 20
59.37421733049869
 10
126.1829211039661
 20
59.01488226360225
 10
126.1785171137608
 20
58.68454340234295
 10
126.1758309559412
 20
58.38415151707121
 10
126.1749216439752
 20
58.11519762002163
 10
126.1762148911243
 20
57.59714891088549
 10
126.1805016721189
 20
57.11298302752306
 10
126.1884218924442
 20
56.66167227125199
 10
126.2006606845249
 20
56.24268406519342
 10
126.2179886922552
 20
55.85517975800121
 10
126.2413374874663
 20
55.49784690718359
 10
126.2719551264236
 20
55.16861631577388
 10
126.3117443565627
 20
54.86417295934555
 10
126.3640440745104
 20
54.57910688279956
 10
126.4355403502919
 20
54.30453742216605
 10
126.5410560011167
 20
54.02667287203889
 10
126.7141952593145
 20
53.73040190510964
 10
127.0156713440088
 20
53.4303257331699
 10
127.4714739933064
 20
53.23316884784029
 10
127.9542527532871
 20
53.24025985444085
 10
128.329825122209
 20
53.38042996435559
 10
128.6042669037473
 20
53.56230448594445
 10
128.8248882174747
 20
53.76038055226901
 10
129.0229507504989
 20
53.97619186313153
 10
129.2148412010394
 20
54.2154050762465
 10
129.4092196579133
 20
54.48275569829784
 10
129.6110003933363
 20
54.78163075969141
 10
129.8232252400269
 20
55.11440765097501
 10
130.0479495479661
 20
55.48278642654807
 10
130.2866801700102
 20
55.88802085121545
 10
130.5406035639545
 20
56.33106783409608
 10
130.810710705738
 20
56.81268326376727
 10
131.0978686486942
 20
57.33348406676808
 10
131.4028632512644
 20
57.89398914776896
 10
131.726425533071
 20
58.49464689732322
 10
132.0685798779788
 20
59.13460337445413
 10
132.1908601969863
 20
59.36297437981919
 10
132.314046150829
 20
59.59105830219573
 10
132.4386245977781
 20
59.81981561660131
 10
132.5643429281111
 20
60.04882638622734
 10
132.6909488535607
 20
60.27767189585334
 10
132.8181903005016
 20
60.5059343081804
 10
132.9458152890614
 20
60.7331964434992
 10
133.07357179684
 20
60.95904148639371
 10
133.2012075946822
 20
61.18305268637984
 10
133.3284701943818
 20
61.40481319855059
 10
133.4551065958022
 20
61.62390577091734
 10
133.5808631322557
 20
61.83991239743847
 10
133.7054852587748
 20
62.05241404933938
 10
133.8287173012414
 20
62.26099028694829
 10
133.9503020902499
 20
62.46521877344261
 10
134.0699805835205
 20
62.66467471080297
 10
134.1874913382004
 20
62.85893017103358
 10
134.3025698500253
 20
63.04755321261317
 10
134.4149476334599
 20
63.23010672388937
 10
134.5243510200062
 20
63.40614687765569
 10
134.630499616762
 20
63.57522124843683
 10
134.7331039480108
 20
63.73686600703462
 10
134.8318623326209
 20
63.89060216846502
 10
134.9264563027127
 20
64.03593041747027
 10
135.0165436882801
 20
64.17232333783336
 10
135.1017483383127
 20
64.29921428929038
 10
135.1816437659471
 20
64.41598039572355
 10
135.255726524474
 20
64.52191582852154
 10
135.3233710849208
 20
64.61618883618493
 10
135.3837489895235
 20
64.69776907893041
 10
135.4410670907918
 20
64.77231122423017
 10
135.5038284204346
 20
64.85293448576661
 10
135.5705314696468
 20
64.94040161632782
 10
135.6361588005071
 20
65.02821361958516
 10
135.7006586094425
 20
65.11625349397761
 10
135.7639771254111
 20
65.20440461791131
 10
135.8260592077428
 20
65.29255140196423
 10
135.8868486116968
 20
65.38057966749687
 10
135.9462884857226
 20
65.46837729782737
 10
136.0043217609564
 20
65.55583502419573
 10
136.060891491139
 20
65.6428471308592
 10
136.1159413626904
 20
65.72931264024311
 10
136.1694160780102
 20
65.8151365162375
 10
136.2212617139161
 20
65.90023102546253
 10
136.2714263877828
 20
65.98451788001049
 10
136.3198607226192
 20
66.06793062838467
 10
136.3665185272186
 20
66.15041785234884
 10
136.411357470397
 20
66.23194738615483
 10
136.4543397245762
 20
66.31251158395433
 10
136.4954329544235
 20
66.39213508815997
 10
136.5346108127916
 20
66.47088461462572
 10
136.5718535982351
 20
66.54888306576429
 10
136.607148053081
 20
66.62632915229071
 10
136.6404859629491
 20
66.70352535411419
 10
136.6718598969763
 20
66.78091891017797
 10
136.7012530927945
 20
66.85916224565193
 10
136.7286172272497
 20
66.93920445764857
 10
136.7538248062274
 20
67.022431235941
 10
136.7765673618979
 20
67.11088054512162
 10
136.7961367721197
 20
67.20757309567115
 10
136.8109493100862
 20
67.31699263427866
 10
136.8135095748326
 20
67.36720047661812
 10
136.8084535786196
 20
67.31578134377871
 10
136.796067936446
 20
67.26151578703248
 10
136.7939989958827
 20
67.25484691819452
 10
136.8022152411538
 20
67.27724108255399
 10
136.8196855806264
 20
67.32000500383455
 10
136.8454663796617
 20
67.37852514337945
 10
136.8788135062281
 20
67.45008042075496
 10
136.9191449890582
 20
67.53291475703506
 10
136.9659939518191
 20
67.62580282270103
 10
137.0189731010004
 20
67.72782967076421
 10
137.077750371309
 20
67.83827138974328
 10
137.1420325813372
 20
67.95652671404783
 10
137.2115542712122
 20
68.08207590578995
 10
137.2860700828692
 20
68.21445497072898
 10
137.3653495502646
 20
68.35323924174791
 10
137.4491732977332
 20
68.49803225192618
 10
137.5373304047943
 20
68.64845824822598
 10
137.6296164201055
 20
68.80415694226232
 10
137.7258319037371
 20
68.96477971424125
 10
137.8257813261271
 20
69.1299868954238
 10
137.9292722728531
 20
69.29944578771077
 10
138.0361147758788
 20
69.47282915364104
 10
138.1461207680217
 20
69.64981397897998
 10
138.2591037881057
 20
69.83008071376894
 10
138.3748785377971
 20
70.01331248440658
 10
138.4932607023784
 20
70.19919454901688
 10
138.6140666865631
 20
70.38741389526785
 10
138.7371134407283
 20
70.57765880737405
 10
138.8622183318062
 20
70.76961866424449
 10
138.9891989197397
 20
70.96298356905905
 10
139.1188564366073
 20
71.15893056769818
 10
139.2504627525797
 20
71.35784204169855
 10
139.3813100560161
 20
71.55714987579375
 10
139.5102492923069
 20
71.75507933806239
 10
139.6371149824687
 20
71.9513427188956
 10
139.7617418316434
 20
72.1456529879367
 10
139.8839649357464
 20
72.33772414828591
 10
140.0036198522108
 20
72.52727145138763
 10
140.1205428786906
 20
72.71401181196892
 10
140.2345711794047
 20
72.89766421241373
 10
140.345543118574
 20
73.07795024128013
 10
140.4532985710525
 20
73.25459485852699
 10
140.5576792665362
 20
73.42732715190488
 10
140.6585293606468
 20
73.59588156079043
 10
140.7556960307645
 20
73.75999934597932
 10
140.8490303124258
 20
73.91943054871842
 10
140.9383881696389
 20
74.07393667862092
 10
141.0236319785037
 20
74.22329444276969
 10
141.1046324510637
 20
74.36730093355177
 10
141.1812713132251
 20
74.50578103023732
 10
141.2534450912787
 20
74.63859839676572
 10
141.3210703234753
 20
74.76567176670744
 10
141.3840913411395
 20
74.88700052093066
 10
141.4424914957148
 20
75.00270562292776
 10
141.4963099421915
 20
75.1130978241824
 10
141.5456667915361
 20
75.21879715012601
 10
141.5908006099905
 20
75.32095446020075
 10
141.6321197287385
 20
75.42169057421435
 10
141.6702498462452
 20
75.52504165658094
 10
141.7059453779318
 20
75.63921446186312
 10
141.7390393324948
 20
75.78263291107606
 10
141.748980195307
 20
75.8821140946275
 10
141.7465488248178
 20
75.85691214992148
 10
141.7349502900903
 20
75.80485639214932
 10
141.7333643448937
 20
75.79960366641876
 10
141.74166013165
 20
75.82288389689049
 10
141.758825190625
 20
75.86620451142852
 10
141.7839537617708
 20
75.92507261533342
 10
141.8163369807898
 20
75.99683827183237
 10
141.8554218236981
 20
76.07978744944137
 10
141.9007648220541
 20
76.1727197918586
 10
141.9519977775485
 20
76.27473500219178
 10
142.0088045085369
 20
76.38511715068442
 10
142.0709053276649
 20
76.50326865128973
 10
142.1380465604135
 20
76.62867052937075
 10
142.2099933551932
 20
76.76085763800765
 10
142.2865247494811
 20
76.89940266525264
 10
142.3674301367218
 20
77.04390550385448
 10
142.4525067659132
 20
77.19398596131509
 10
142.5415579175026
 20
77.34927875073994
 10
142.6343915223437
 20
77.50942982753044
 10
142.7308190922275
 20
77.67409368942189
 10
142.8306550636827
 20
77.84293158018671
 10
142.9337160597081
 20
78.01560993819415
 10
143.0398204793056
 20
78.19179924196078
 10
143.1487881052083
 20
78.37117323320516
 10
143.2604398379997
 20
78.55340822721422
 10
143.3745973408925
 20
78.7381825083318
 10
143.4910829324988
 20
78.92517592260408
 10
143.609719369417
 20
79.11406959511706
 10
143.7303296523915
 20
79.30454550147174
 10
143.852736908452
 20
79.49628627720246
 10
143.9772442788435
 20
79.68972073789031
 10
146.5728316890341
 20
83.70447633882711
 10
145.7677281124559
 20
88.29169597130263
 10
145.7276384341951
 20
88.51923389517336
 10
145.6855472822779
 20
88.75013096449733
 10
145.6420290135435
 20
88.98133323048879
 10
145.5971829344533
 20
89.21247824652343
 10
145.5511079539317
 20
89.4432018404366
 10
145.5039025328526
 20
89.67313878925037
 10
145.4556646125407
 20
89.90192320280407
 10
145.4064915914566
 20
90.1291890090981
 10
145.3564801825585
 20
90.35457041794703
 10
145.3057263394574
 20
90.57770241964955
 10
145.254325045616
 20
90.79822133105084
 10
145.2023701740592
 20
91.01576530944438
 10
145.1499541811091
 20
91.22997521355772
 10
145.0971677701098
 20
91.4404952731057
 10
145.0440995248163
 20
91.64697408942779
 10
144.9908352798284
 20
91.84906594398157
 10
144.93745742827
 20
92.04643224907426
 10
144.8840438974741
 20
92.23874361674335
 10
144.8306668426414
 20
92.42568220692921
 10
144.7773908342344
 20
92.60694526637693
 10
144.7242702147811
 20
92.78224951599165
 10
144.6713455928736
 20
92.95133714377863
 10
144.6186384321724
 20
93.11398439449636
 10
144.5661433102107
 20
93.27001317921621
 10
144.5138160251713
 20
93.4193080028314
 10
144.4615549710022
 20
93.56184087271819
 10
144.4091710909368
 20
93.69770837177416
 10
144.3563376952287
 20
93.82718863370678
 10
144.3025026166264
 20
93.95083164170555
 10
144.2467277393899
 20
94.06960451163333
 10
144.2011520330804
 20
94.15832132388708
 10
144.1521893960125
 20
94.25710488515395
 10
144.118480381088
 20
94.3385759745092
 10
144.0877223658678
 20
94.42857020851451
 10
144.0605674358534
 20
94.52638867702379
 10
144.0375530007449
 20
94.63118221745152
 10
144.0190965306137
 20
94.74200342319082
 10
144.005501163033
 20
94.85784464461194
 10
143.9969660780881
 20
94.97766420556368
 10
143.9935981527343
 20
95.10040303177855
 10
143.9954226229279
 20
95.22499429619694
 10
144.0023917252439
 20
95.35036800498457
 10
144.0143906434321
 20
95.47545232622123
 10
144.0312404550992
 20
95.59917230171133
 10
144.0526978315555
 20
95.72044726988661
 10
144.0784510253714
 20
95.83818731700467
 10
144.1081117179594
 20
95.95128958981618
 10
144.1412019189743
 20
96.05863555788633
 10
144.1771348438248
 20
96.15909007906008
 10
144.2151886382474
 20
96.25150477756111
 10
144.2544717550873
 20
96.33472924842349
 10
144.29387944729
 20
96.40763574910478
 10
144.3320432020174
 20
96.46916693344657
 10
144.3672800214655
 20
96.51842038569828
 10
144.3975595681291
 20
96.55478839840062
 10
144.420527259813
 20
96.57817176570131
 10
144.4336514447356
 20
96.58927140414131
 10
144.4345929401549
 20
96.58991309131633
 10
144.4218856359075
 20
96.58325931684499
 10
144.3958895590362
 20
96.57363243123503
 10
144.3596819472069
 20
96.56565414517686
 10
144.3278309697937
 20
96.5633423997392
 10
144.3806895560593
 20
96.5603434891347
 10
144.4963419816548
 20
96.54396866902486
 10
144.6580072585488
 20
96.51117891943225
 10
144.8566590248685
 20
96.46164305994861
 10
145.0864637790464
 20
96.3958860768351
 10
145.3432827928481
 20
96.31469396621081
 10
145.6239249303485
 20
96.21892124092194
 10
145.92575615245
 20
96.10942796364178
 10
146.246484788255
 20
95.98706070165942
 10
146.5840378243901
 20
95.85264864834397
 10
146.9364865356468
 20
95.7070048094478
 10
147.3020000695472
 20
95.55092860039815
 10
147.678815515576
 20
95.38520858354025
 10
148.0652179000286
 20
95.2106249476053
 10
148.4595265257387
 20
95.02795161405966
 10
148.8600853361344
 20
94.83795805376964
 10
149.2652558465126
 20
94.64141085171798
 10
149.6734118899235
 20
94.43907511548716
 10
150.0829354395694
 20
94.23171579707015
 10
150.4922132562254
 20
94.02009901256346
 10
150.899633893082
 20
93.80499345220416
 10
151.3035849259036
 20
93.5871719608551
 10
151.7024502543632
 20
93.36741339168728
 10
152.094607142749
 20
93.14650493622425
 10
152.4784229025701
 20
92.92524507990861
 10
152.8522509234236
 20
92.70444752808457
 10
153.2144257641816
 20
92.48494648637569
 10
153.5632569002502
 20
92.26760401247905
 10
153.897020430517
 20
92.05332042532126
 10
154.2139481127656
 20
91.84304935801666
 10
154.5166923541929
 20
91.63473755914512
 10
154.7115967572276
 20
91.49821574227309
 10
154.9112737212631
 20
91.3588794340981
 10
155.1112229299901
 20
91.21987077673481
 10
155.3111099950142
 20
91.0814139682721
 10
155.5106003973341
 20
90.94373334104644
 10
155.7093596809391
 20
90.80705328772019
 10
155.90705347236
 20
90.6715981892746
 10
156.1033477172516
 20
90.53759229481717
 10
156.2979087569944
 20
90.40525965793573
 10
156.4904034897383
 20
90.27482403847097
 10
156.680499586859
 20
90.14650875077976
 10
156.8678657269474
 20
90.02053655454934
 10
157.0521718322038
 20
89.89712948011989
 10
157.2330894505498
 20
89.77650863956327
 10
157.4102921127267
 20
89.65889398220867
 10
157.5834559780766
 20
89.54450395018216
 10
157.7522604903521
 20
89.4335551020786
 10
157.9163893258629
 20
89.32626159548634
 10
158.0755316659356
 20
89.22283446565196
 10
158.2293839672307
 20
89.12348069958345
 10
158.3776522899673
 20
89.02840197980683
 10
158.5200558162262
 20
88.93779284716734
 10
158.6563318007228
 20
88.85183818459693
 10
158.7862429578277
 20
88.77070952271778
 10
158.9095888206253
 20
88.69455952019064
 10
159.026223822459
 20
88.62351342777789
 10
159.136087029753
 20
88.55765562926995
 10
159.2392534065395
 20
88.49700741755547
 10
159.3360276859659
 20
88.44148857643034
 10
159.4271278823004
 20
88.39084761536299
 10
159.4933438932152
 20
88.35557212771177
 10
159.6200962944644
 20
88.28439296633805
 10
159.7225626333777
 20
88.21758809383763
 10
159.8205220632408
 20
88.14430001123495
 10
159.9138942280408
 20
88.06480631680677
 10
160.0025165677112
 20
87.97944138534966
 10
160.0861657842215
 20
87.88860624821076
 10
160.1645787223652
 20
87.79277276296276
 10
160.2374713440123
 20
87.69248359987998
 10
160.3045552208112
 20
87.58834934930216
 10
160.3655517266004
 20
87.48104375315836
 10
160.4202040034302
 20
87.37129820404634
 10
160.4682874267582
 20
87.25989572577566
 10
160.5096191287759
 20
87.14766477363501
 10
160.544067088012
 20
87.03547284016457
 10
160.5715594866608
 20
86.92421903828077
 10
160.5920945502789
 20
86.81482540023231
 10
160.605750995531
 20
86.70822550770505
 10
160.6126988641302
 20
86.60534902208673
 10
160.6132096585396
 20
86.50710073201996
 10
160.6076639785509
 20
86.41433166185666
 10
160.5965534041212
 20
86.32780097995126
 10
160.5804717380767
 20
86.2481278211538
 10
160.5600891459353
 20
86.17573425630059
 10
160.5361017526191
 20
86.11078470883648
 10
160.5091505424794
 20
86.05313260805571
 10
160.4797083141702
 20
86.00229125592449
 10
160.447943713058
 20
85.95745035607166
 10
160.4135854770028
 20
85.91755729285751
 10
160.3758227665933
 20
85.88146874678505
 10
160.3332812850039
 20
85.84815589980153
 10
160.2550044327467
 20
85.79844158573428
 10
160.0790879294137
 20
85.69361136450121
 10
159.871997019067
 20
85.55965988291238
 10
159.6634410413688
 20
85.41498492194155
 10
159.4530408123981
 20
85.25988835754634
 10
159.2405814881635
 20
85.0946601071404
 10
159.0259724390357
 20
84.91959065291118
 10
158.8092173799605
 20
84.73497710410945
 10
158.5903921869119
 20
84.54112574500394
 10
158.3696283735714
 20
84.33835271735579
 10
158.147100672767
 20
84.12698370991815
 10
157.9230176842623
 20
83.90735318694261
 10
157.6976147811145
 20
83.67980346198934
 10
157.4711486244303
 20
83.44468370793808
 10
157.2438929130937
 20
83.20234897040208
 10
157.0161350743711
 20
82.95315925543518
 10
156.7881737326744
 20
82.69747874883139
 10
156.5603165997177
 20
82.43567507251714
 10
156.3328788242149
 20
82.16811857147775
 10
156.1061816942685
 20
81.8951817269992
 10
155.8805515315952
 20
81.61723857692678
 10
155.6563188492922
 20
81.33466418714984
 10
155.4338175973987
 20
81.04783414993702
 10
155.2133846021722
 20
80.75712409495621
 10
154.9953590361461
 20
80.46290920725751
 10
154.7800820461687
 20
80.16556373268308
 10
154.567896366904
 20
79.86546046512331
 10
154.359146079295
 20
79.56297018670648
 10
154.1541764137627
 20
79.25846115789295
 10
153.9533335038753
 20
78.95229841166878
 10
153.7569643242797
 20
78.64484304103189
 10
153.5669398530991
 20
78.33890384595561
 10
151.7131305982742
 20
75.30539779260583
 10
152.13284371253
 20
60.19567808972883
 10
152.155005165751
 20
59.40605882420596
 10
152.178230229443
 20
58.61608089524132
 10
152.2024411295463
 20
57.82758253148179
 10
152.2275752615228
 20
57.04186271520557
 10
152.2535700505138
 20
56.26022052967948
 10
152.2803629459816
 20
55.48395504651545
 10
152.3078914559935
 20
54.71436524393504
 10
152.3360930963402
 20
53.95274988341061
 10
152.364905453438
 20
53.20040737213132
 10
152.3942661522761
 20
52.45863563698956
 10
152.4241128998607
 20
51.72873195526559
 10
152.454383467672
 20
51.01199275770055
 10
152.4850157359846
 20
50.30971336703488
 10
152.5159477180187
 20
49.62318772613476
 10
152.5471175706799
 20
48.95370799503562
 10
152.5784636651858
 20
48.30256404196263
 10
152.6099246411373
 20
47.67104281298703
 10
152.6414394940063
 20
47.06042745277648
 10
152.6729476982548
 20
46.47199612667622
 10
152.7043893843961
 20
45.90702040221789
 10
152.735705598748
 20
45.36676295939765
 10
152.7668386885805
 20
44.85247427950556
 10
152.7977329320028
 20
44.36538780064168
 10
152.8283354814078
 20
43.90671257961878
 10
152.8585979728433
 20
43.47762171564729
 10
152.8884793264227
 20
43.07923366100152
 10
152.9179507707458
 20
42.71258041133766
 10
152.9470056538367
 20
42.37855054045332
 10
152.9756798514215
 20
42.07778029942965
 10
153.0040986477958
 20
41.81042738892683
 10
153.0319190255148
 20
41.58124572142339
 10
153.0740323904491
 20
41.26247616947904
 10
153.1137225353983
 20
40.96669519226913
 10
153.1517700825133
 20
40.68895491405534
 10
153.1883671614996
 20
40.42878985841593
 10
153.223717500531
 20
40.18569085259323
 10
153.2580419974092
 20
39.95908961989416
 10
153.2915875417831
 20
39.74833651125154
 10
153.3246414308095
 20
39.55266780951403
 10
153.357555558915
 20
39.37115634067526
 10
153.3907888059949
 20
39.20263467663206
 10
153.4249841264134
 20
39.04557367751548
 10
153.4611153194401
 20
38.89788474200176
 10
153.5007818241479
 20
38.75659148874789
 10
153.5468343948372
 20
38.61728620415482
 10
153.6047770176398
 20
38.47328749207065
 10
153.6860124980073
 20
38.31473392691252
 10
153.8149082512917
 20
38.13001819258719
 10
154.0378551114745
 20
37.92122319930636
 10
154.3987081737436
 20
37.75220360290191
 10
154.830116081612
 20
37.73776449002689
 10
155.1771338568353
 20
37.86439177366911
 10
155.3983446862746
 20
38.02472841745116
 10
155.5380053461878
 20
38.1707629478674
 10
155.6352897449439
 20
38.29994042941651
 10
155.7111536706887
 20
38.41925357749732
 10
155.7760543560131
 20
38.53492532073013
 10
155.8354170087415
 20
38.65121293248156
 10
155.8922484501168
 20
38.77086284866645
 10
155.9483370692652
 20
38.89562178236941
 10
156.0048225623568
 20
39.0265918100736
 10
156.0605308185018
 20
39.15979344357729
 10
156.2154835038747
 20
39.52785844278022
 10
156.4093558216267
 20
39.97662617541017
 10
156.6415670309627
 20
40.50511297513596
 10
156.9094049250519
 20
41.10739382593658
 10
157.2103400696629
 20
41.77800813332721
 10
157.5419277997325
 20
42.51170514442626
 10
157.9017673309648
 20
43.30334046879506
 10
158.2874824249465
 20
44.14782840263774
 10
158.6967114734458
 20
45.04011774771971
 10
159.1271020098454
 20
45.97517866775062
 10
159.576307496929
 20
46.94799508037224
 10
160.0419853582342
 20
47.95356002748607
 10
160.5217957187044
 20
48.9868727584364
 10
161.0134005527071
 20
50.04293677292618
 10
161.5144631282997
 20
51.11675850819805
 10
162.022647562227
 20
52.20334637571867
 10
162.5356185019293
 20
53.29771004125229
 10
163.0510408480549
 20
54.39485982940999
 10
163.5665795460646
 20
55.48980621875223
 10
164.0798993203205
 20
56.57755935359022
 10
164.5886644558432
 20
57.65312851757898
 10
165.0905384725434
 20
58.71152153820739
 10
165.5831837851693
 20
59.74774403912679
 10
166.0642611748553
 20
60.75679844641771
 10
166.5314291274904
 20
61.7336826289603
 10
166.9823427751741
 20
62.67338790366401
 10
167.4146524228349
 20
63.57089607333931
 10
167.8260011047848
 20
64.42117483384817
 10
168.214020631039
 20
65.21917024458767
 10
168.5763248716601
 20
65.95979404187106
 10
168.9106393700213
 20
66.63818882649024
 10
171.5678987242244
 20
71.98935752511373
 10
170.2101961111759
 20
76.76921007649182
 10
170.1407349068829
 20
77.0103569369499
 10
170.067755524078
 20
77.25535275969415
 10
169.9922338858607
 20
77.50105096008616
 10
169.914345224444
 20
77.74707682475814
 10
169.8342641093014
 20
77.99305138431477
 10
169.7521643923594
 20
78.23859240174649
 10
169.6682191817469
 20
78.48331508194104
 10
169.5826007520337
 20
78.72683287682682
 10
169.4954803748726
 20
78.96875815928725
 10
169.4070281719904
 20
79.20870288262778
 10
169.3174128300167
 20
79.44627930709461
 10
169.2268013304749
 20
79.68110061336681
 10
169.1353585751039
 20
79.91278170517687
 10
169.0432468637585
 20
80.1409400784603
 10
168.9506253183419
 20
80.36519669848882
 10
168.8576491022096
 20
80.58517718449103
 10
168.7644683973147
 20
80.80051312303918
 10
168.6712271121908
 20
81.0108437852233
 10
168.5780611095532
 20
81.21581815247104
 10
168.4850960051282
 20
81.41509743838407
 10
168.3924439747064
 20
81.60835861387922
 10
168.3001994912413
 20
81.79529866499327
 10
168.208433489216
 20
81.97564023287538
 10
168.1171848547252
 20
82.14913946541722
 10
168.0264482726096
 20
82.3155962288122
 10
167.936156415677
 20
82.47486809585978
 10
167.8461527658217
 20
82.62689001349364
 10
167.756149757845
 20
82.7717011739926
 10
167.6656622662041
 20
82.9094825646937
 10
167.5738983689072
 20
83.0406088558905
 10
167.4887277856832
 20
83.15357683309382
 10
167.4111832096062
 20
83.25369659366264
 10
167.3460153342463
 20
83.34059224157404
 10
167.2847124950527
 20
83.42516585702984
 10
167.2272931432807
 20
83.50729548939594
 10
167.1737740316224
 20
83.58684880517478
 10
167.1241693035134
 20
83.66368163438146
 10
167.0784894564128
 20
83.73763629663188
 10
167.0367399020399
 20
83.80853959704045
 10
166.9989190782537
 20
83.87620080759856
 10
166.9650158900534
 20
83.94040932974278
 10
166.935006567482
 20
84.00093212841793
 10
166.9088502374382
 20
84.05751146282908
 10
166.8864835351367
 20
84.10986233558111
 10
166.8678134090429
 20
84.15767083706199
 10
166.8527081575336
 20
84.2005931686284
 10
166.8409861108973
 20
84.23825676960044
 10
166.8324018618613
 20
84.27026431420121
 10
166.8266301256257
 20
84.2962021970533
 10
166.823247577836
 20
84.31565650049117
 10
166.8217145382044
 20
84.3282380389833
 10
166.8213593718648
 20
84.33362051347815
 10
166.821370984769
 20
84.3315943848079
 10
166.8208075141572
 20
84.32213585779699
 10
166.8186313792945
 20
84.30548863368718
 10
166.8137811931824
 20
84.28224582834912
 10
166.8052864420551
 20
84.25341270975539
 10
166.7924193570275
 20
84.22042156346504
 10
166.7748598827413
 20
84.18507025071659
 10
166.7528319689202
 20
84.14937195751719
 10
166.7271623849385
 20
84.11533150174974
 10
166.601784773876
 20
83.97782869710932
 10
166.4522336971356
 20
83.90466393774392
 10
166.5399889672125
 20
83.92452657337337
 10
166.8282262521662
 20
83.9641919501347
 10
167.2467721264047
 20
84.00302222814257
 10
167.7716430974931
 20
84.03741268235467
 10
168.3889551492143
 20
84.06645791146572
 10
169.08808284618
 20
84.08993231414992
 10
169.8597164098815
 20
84.10783330503453
 10
170.6951610137039
 20
84.1202452968348
 10
171.5860403976876
 20
84.12729110617063
 10
172.5241562133524
 20
84.12911218171672
 10
173.501415159084
 20
84.12585973893347
 10
174.5097882822693
 20
84.11769048364789
 10
175.5412867580735
 20
84.10476444325319
 10
176.5879465132825
 20
84.08724385283489
 10
177.6418175722997
 20
84.06529260592697
 10
178.6949559445538
 20
84.0390760579898
 10
179.7394165803689
 20
84.00876110464824
 10
180.767246100268
 20
83.97451651626854
 10
181.7704742253961
 20
83.93651363106031
 10
182.7411021955691
 20
83.89492757385543
 10
183.671085649446
 20
83.84993941444242
 10
184.5523073470908
 20
83.80174005830661
 10
185.3765309471478
 20
83.75053759718801
 10
186.1353171652424
 20
83.696572123018
 10
186.8198602899308
 20
83.64014801716857
 10
187.4206388362436
 20
83.58171204560475
 10
187.9265743233258
 20
83.52206998430658
 10
188.3226387867035
 20
83.46311514282809
 10
188.5810981818516
 20
83.41111436233662
 10
188.6959707797548
 20
83.3754998698259
 10
188.6765849890932
 20
83.38425709175053
 10
188.6943448252512
 20
83.37527102038494
 10
188.7135474333329
 20
83.36450793271297
 10
188.7339761217766
 20
83.35193311651238
 10
188.7554093315772
 20
83.33754340178371
 10
188.7776257327686
 20
83.3213638492965
 10
188.8004075398878
 20
83.30344476196599
 10
188.8235431733426
 20
83.28385862378121
 10
188.846828955944
 20
83.26269748171035
 10
188.8700703700573
 20
83.24007050657612
 10
188.8930828934197
 20
83.21610194062521
 10
188.9156922783068
 20
83.19092962272092
 10
188.9377351404274
 20
83.16470337526665
 10
188.9590589811445
 20
83.13758420813423
 10
188.9795226114136
 20
83.10974327941528
 10
188.998996517693
 20
83.08136124286145
 10
189.017363142848
 20
83.05262796869356
 10
189.0345177066865
 20
83.02374187715026
 10
189.0503689616171
 20
82.9949096732101
 10
189.0648401892666
 20
82.96634608955638
 10
189.0778707646814
 20
82.93827292484563
 10
189.0894176997958
 20
82.91091849053474
 10
189.0994574538121
 20
82.88451675668965
 10
189.1079884197039
 20
82.85930513967072
 10
189.1150333034565
 20
82.83552236898674
 10
189.1206416733207
 20
82.81340546125573
 10
189.1248926329066
 20
82.79318512591698
 10
189.1278971210205
 20
82.77508016826664
 10
189.1297996265674
 20
82.75928997548067
 10
189.1307787012916
 20
82.74598565425815
 10
189.1310532557058
 20
82.73499667783979
 10
189.1307850384895
 20
82.72428001738488
 10
189.1298597280501
 20
82.71177099682617
 10
189.1280958533213
 20
82.69725541115594
 10
189.1253427257356
 20
82.68085976763497
 10
189.1214757492841
 20
82.66274079781451
 10
189.1163975687983
 20
82.64307777683534
 10
189.1100379163848
 20
82.62206560579689
 10
189.1023526808783
 20
82.59990934194734
 10
189.0933223788835
 20
82.57681944081068
 10
189.0829505328334
 20
82.5530083835415
 10
189.0712620086812
 20
82.52868806370749
 10
189.0583010515131
 20
82.5040670319984
 10
189.0441298559796
 20
82.47934909569371
 10
189.0288272963101
 20
82.45473223028063
 10
189.0124874744289
 20
82.43040704225449
 10
188.9952187811243
 20
82.40655598654597
 10
188.9771431071721
 20
82.38335258767884
 10
188.9583948637795
 20
82.36096022205702
 10
188.9391205098965
 20
82.33953136069643
 10
188.9194778487123
 20
82.31920638153636
 10
188.8996351511372
 20
82.30011203907173
 10
188.8797705329611
 20
82.28236014907823
 10
188.86007063931
 20
82.26604557094934
 10
188.8407293388673
 20
82.25124427826252
 10
188.8219457658457
 20
82.23801107903697
 10
188.8039215510986
 20
82.22637704599143
 10
188.7868574197726
 20
82.21634705626794
 10
188.7709486479544
 20
82.20789734979422
 10
188.7563794858452
 20
82.20097352587572
 10
188.7433159481237
 20
82.19548907313246
 10
188.6744215499235
 20
82.17036570265947
 10
188.4657070647417
 20
82.07653788504447
 10
188.2395247225992
 20
81.93599615020281
 10
188.031179536469
 20
81.78045684763534
 10
187.8254206727555
 20
81.60713085021679
 10
187.6155613663232
 20
81.41435736055143
 10
187.3986626587862
 20
81.20156103624828
 10
187.1735727264033
 20
80.96888975227866
 10
186.9400632647969
 20
80.71694848779426
 10
186.6984168560203
 20
80.44663279415127
 10
186.4492153103449
 20
80.15902678329492
 10
186.1932241544305
 20
79.85533988300752
 10
185.9313261902093
 20
79.53686657158674
 10
185.664481576305
 20
79.20496012159684
 10
185.3937028485513
 20
78.86101498040117
 10
185.1200386828214
 20
78.50645454067862
 10
184.8445630203334
 20
78.14272238720577
 10
184.5683675289089
 20
77.77127579229379
 10
184.2925561861641
 20
77.39358062876242
 10
184.0182412315869
 20
77.01110715453935
 10
183.746540015402
 20
76.6253262779981
 10
183.4785723322586
 20
76.23770590335047
 10
183.2154581023635
 20
75.84970708046077
 10
182.9583151904759
 20
75.46277971206031
 10
182.7082570247663
 20
75.07835717791579
 10
182.4663902017847
 20
74.6978495782608
 10
182.2338115514796
 20
74.32263468684191
 10
182.0116047157312
 20
73.95404537629231
 10
181.800836001049
 20
73.59335180308045
 10
181.6025493422586
 20
73.24173530867506
 10
181.4177604006647
 20
72.90024912790369
 10
181.2468140699219
 20
72.56852288254743
 10
181.1766891925065
 20
72.42310853503393
 10
181.1096742318835
 20
72.2726275258032
 10
181.0466567932682
 20
72.11873977605654
 10
180.9876843159996
 20
71.96141902655005
 10
180.9327766863301
 20
71.8006311026241
 10
180.8819276886779
 20
71.63632782770523
 10
180.835107729449
 20
71.46844216507718
 10
180.7922674022401
 20
71.29688480783828
 10
180.7533415162756
 20
71.12154214489382
 10
180.7182532161872
 20
70.94227552604903
 10
180.6869179890504
 20
70.75892185272716
 10
180.6592471581248
 20
70.57129490541007
 10
180.6351509817029
 20
70.37918749316501
 10
180.6145410132214
 20
70.18237396213593
 10
180.5973319819599
 20
69.98061270278842
 10
180.5834431086991
 20
69.77364905293759
 10
180.5727988849853
 20
69.56121770013254
 10
180.5653295685201
 20
69.343045030136
 10
180.5609712862911
 20
69.1188513405677
 10
180.5596659328113
 20
68.88835252267134
 10
180.5613609301435
 20
68.6512616185552
 10
180.5660088531502
 20
68.40729013287812
 10
180.573566993242
 20
68.15614899050648
 10
180.5839969262481
 20
67.89754938751018
 10
180.597264018073
 20
67.6312034210234
 10
180.6133370057233
 20
67.3568244995508
 10
180.6321875648432
 20
67.07412774892821
 10
180.653789914985
 20
66.78283019146973
 10
180.678120484148
 20
66.48265088403454
 10
180.7051575853022
 20
66.17331107752571
 10
180.7346816251114
 20
65.85667356808349
 10
180.7581992310943
 20
65.60720151883845
 10
180.782762478557
 20
65.33812281507647
 10
180.8085016042633
 20
65.04822330619339
 10
180.835335600211
 20
64.73854666177095
 10
180.8631869236338
 20
64.41010847742746
 10
180.8919803149304
 20
64.0639056298338
 10
180.9216419978168
 20
63.70092229900952
 10
180.9520991892093
 20
63.32213359558769
 10
180.9832798639281
 20
62.92850812524885
 10
181.0151124892454
 20
62.5210098064715
 10
181.0475258961595
 20
62.10059896295633
 10
181.0804492137104
 20
61.66823320465581
 10
181.1138117874633
 20
61.22486812314788
 10
181.1475431086018
 20
60.77145772579063
 10
181.1815728018147
 20
60.30895477409555
 10
181.2158305815072
 20
59.83831106740953
 10
181.2502462540085
 20
59.36047765641953
 10
181.2847496749977
 20
58.87640505064186
 10
181.319270732759
 20
58.38704330062771
 10
181.3537393703448
 20
57.89334210385626
 10
181.3880855708897
 20
57.39625099632084
 10
181.4222392999086
 20
56.89671936548331
 10
181.4561305728045
 20
56.39569651010138
 10
181.4896894107809
 20
55.89413181725597
 10
181.5228458112565
 20
55.39297474059055
 10
181.5555298133414
 20
54.89317490812715
 10
181.5876714273622
 20
54.39568224826969
 10
181.6192006664878
 20
53.90144702797625
 10
181.6500475317205
 20
53.41142000665987
 10
181.6801419954667
 20
52.92655250489855
 10
181.7094505654687
 20
52.4471992516584
 10
181.7779341645264
 20
51.33122948468699
 10
181.8459367790812
 20
50.24912001890729
 10
181.9134141923892
 20
49.20151364969689
 10
181.9803579853853
 20
48.18847173151689
 10
182.046759940297
 20
47.21005409947794
 10
182.1126120907724
 20
46.26631872664812
 10
182.17790681339
 20
45.3573213986901
 10
182.2426368517677
 20
44.4831152305011
 10
182.3067954767657
 20
43.6437500840326
 10
182.3703765820789
 20
42.83927184092214
 10
182.4333748986771
 20
42.06972145297875
 10
182.4957862090991
 20
41.33513370763626
 10
182.5576077170867
 20
40.63553560654255
 10
182.6188384850892
 20
39.97094421900922
 10
182.679480126157
 20
39.34136373541492
 10
182.7395377604725
 20
38.7467815093065
 10
182.799021402651
 20
38.18716241754132
 10
182.8579481507635
 20
37.66244089740736
 10
182.9163454329094
 20
37.17250935861481
 10
182.9742563183954
 20
36.71720077299909
 10
183.0317482153916
 20
36.29626204230021
 10
183.0889278318439
 20
35.90931164303439
 10
183.1459680979375
 20
35.55576974859542
 10
183.2031593711359
 20
35.23473792867041
 10
183.2610133140801
 20
34.94478049227481
 10
183.3204917101823
 20
34.68350199699538
 10
183.3835629228321
 20
34.44666874651246
 10
183.4547381294547
 20
34.22622259537731
 10
183.5460370106713
 20
34.0054451103903
 10
183.6959918697538
 20
33.74805356694971
 10
183.9383375042059
 20
33.50800218736614
 10
184.1981757649357
 20
33.36570286851287
 10
184.4001606192964
 20
33.284294975595
 10
184.6223297835107
 20
33.22793557664416
 10
184.85862414351
 20
33.20411168914747
 10
185.0987276914918
 20
33.21713229022121
 10
185.3312386520909
 20
33.2660023835072
 10
185.5476354691395
 20
33.3451567281671
 10
185.7442624210226
 20
33.44737027524321
 10
185.9216760486374
 20
33.56645717296471
 10
186.0827869280447
 20
33.69840819549506
 10
186.231235337241
 20
33.84125720045901
 10
186.3704747807215
 20
33.99446676955914
 10
186.5034221350964
 20
34.15833403344681
 10
186.6324128549968
 20
34.33357429556342
 10
186.7592776635516
 20
34.52107244442219
 10
186.8854479753809
 20
34.7217497869554
 10
187.0120528885757
 20
34.93649979756245
 10
187.1399971873748
 20
35.16616155375195
 10
187.2700204769137
 20
35.41151251017571
 10
187.4027408175558
 20
35.67327055013926
 10
187.5386864493977
 20
35.9520998765346
 10
187.6783187382822
 20
36.24861788556958
 10
187.8220490155688
 20
36.56340212459934
 10
187.9702507570074
 20
36.89699657587773
 10
188.123268578269
 20
37.2499170136665
 10
188.2814248679616
 20
37.62265558849516
 10
188.4450248321528
 20
38.01568472019756
 10
188.6143601565519
 20
38.42946026400175
 10
188.789711931329
 20
38.86442415616968
 10
188.9713527720002
 20
39.32100663772154
 10
189.1591841512851
 20
39.79870133213361
 10
189.6511619007549
 20
41.05540573344959
 10
190.1206767704358
 20
42.25225823850579
 10
190.5686133861495
 20
43.39142019794355
 10
190.995472034843
 20
44.47407138435901
 10
191.4017520725492
 20
45.50138948251849
 10
191.7879516889145
 20
46.47454963916135
 10
192.154567712636
 20
47.39472395853618
 10
192.5020952472517
 20
48.26308086896876
 10
192.8310272477856
 20
49.08078427287505
 10
193.1418540197118
 20
49.84899252604011
 10
193.4350624559058
 20
50.56885710161376
 10
193.7111351047237
 20
51.24152082212832
 10
193.9705488929227
 20
51.8681155984243
 10
194.2137733413117
 20
52.44975939443253
 10
194.4412681044744
 20
52.98755210882198
 10
194.6534794927605
 20
53.48257001272859
 10
194.8508353815382
 20
53.93585795068947
 10
195.0337377223391
 20
54.34841832433045
 10
195.2025511797545
 20
54.72119526526124
 10
195.3575852691133
 20
55.05505123225431
 10
195.4990655942743
 20
55.35073162807426
 10
195.6270856353147
 20
55.60881007916763
 10
195.7415222891286
 20
55.82960097221958
 10
195.8904766127894
 20
56.10182973409914
 10
199.5817846151396
 20
66.95560341997668
 10
199.5813143332053
 20
67.26934304476246
 10
199.5879109158189
 20
67.408718683877
 10
199.6022100423789
 20
67.56677300610565
 10
199.6294114890772
 20
67.77764000242594
 10
199.6544798231363
 20
68.050408428802
 10
199.6584830751898
 20
68.37397246685643
 10
199.6439525889815
 20
68.71612606018273
 10
199.6137160134823
 20
69.08112592797623
 10
199.5693814743355
 20
69.46988794339462
 10
199.5121121416523
 20
69.88162561729598
 10
199.4428966360985
 20
70.31462648387527
 10
199.3626519310293
 20
70.766644766646
 10
199.2722650346481
 20
71.23511248432575
 10
199.1726104973272
 20
71.71725957852439
 10
199.0645575953944
 20
72.21018571166562
 10
198.9489731024718
 20
72.7109052553314
 10
198.8267217507284
 20
73.21637715025588
 10
198.6986655078308
 20
73.72352565619519
 10
198.5656620963149
 20
74.22925618096667
 10
198.428562533148
 20
74.73046851022301
 10
198.2882077577511
 20
75.2240693808543
 10
198.1454235114453
 20
75.70698626427541
 10
198.0010127405869
 20
76.17618429146341
 10
197.8557436605896
 20
76.62868932690539
 10
197.7103304071353
 20
77.06162193601685
 10
197.5654000262928
 20
77.47225036293712
 10
197.4214335527589
 20
77.85807766392578
 10
197.2786541361082
 20
78.2169929295228
 10
197.1367991790014
 20
78.54754864980183
 10
196.9946143971282
 20
78.84950206286523
 10
196.848603380707
 20
79.12494339506485
 10
196.6895018228213
 20
79.38077155689673
 10
196.490759964782
 20
79.63374388642688
 10
196.1692619291321
 20
79.9095784780035
 10
195.7654121732653
 20
80.04130770074597
 10
195.6013491680724
 20
80.04907245792539
 10
195.6400004765717
 20
80.04307934481506
 10
195.6995504184209
 20
80.02612567712305
 10
195.7748466029527
 20
79.99268057037131
 10
195.8567642067221
 20
79.93977847405094
 10
195.9339357793856
 20
79.86957836778322
 10
195.9965824305531
 20
79.78994547924547
 10
196.0400024977219
 20
79.71184721335439
 10
196.065166743065
 20
79.64530894981525
 10
196.076643276956
 20
79.59680581959698
 10
196.0800008063245
 20
79.56902598053088
 10
196.0801709520593
 20
79.56198646336588
 10
196.0808859210761
 20
79.57430025975361
 10
196.0847279691107
 20
79.60406640689786
 10
196.0933875886167
 20
79.64935460571979
 10
196.107929675215
 20
79.70841712435518
 10
196.1290027846328
 20
79.77975334662764
 10
196.1569862029767
 20
79.86210559740334
 10
196.1920878614674
 20
79.95442914094606
 10
196.2344078716874
 20
80.05585624410907
 10
196.2839790372684
 20
80.16566230494108
 10
196.3407926381528
 20
80.28323693038872
 10
196.404814719481
 20
80.40806045055157
 10
196.4759964764979
 20
80.53968522873545
 10
196.5542807358044
 20
80.67772098054333
 10
196.6396060191384
 20
80.82182311591833
 10
196.7319091456058
 20
80.97168383356723
 10
196.8311267430038
 20
81.12702496659986
 10
196.9371961812376
 20
81.28759239153136
 10
197.0500561470658
 20
81.45315169351177
 10
197.1723783825188
 20
81.62737511909809
 10
197.7466191984558
 20
82.43896911815419
 10
201.0235334517987
 20
78.91628633451428
 10
201.5449878435036
 20
78.35587128196275
 10
202.0313570890118
 20
77.83283755226601
 10
202.4829718496665
 20
77.3457410774112
 10
202.9003036118574
 20
76.89299639190779
 10
203.2837860024289
 20
76.47307603457644
 10
203.6338086742695
 20
76.08452883844765
 10
203.9507118666801
 20
75.7260047333621
 10
204.2347832255785
 20
75.39628826938086
 10
204.4862606934341
 20
75.09434331765483
 10
204.7053480939404
 20
74.81937133295024
 10
204.8922558346025
 20
74.57088288666613
 10
205.0472877657907
 20
74.34877537373164
 10
205.1710062597323
 20
74.15339146139955
 10
205.2645150952327
 20
73.98549518554165
 10
205.3029787709247
 20
73.90343137898441
 10
205.6804933852956
 20
72.26915725277215
 42
-0.02885969015322104
 10
206.0497643173636
 20
70.10907206103123
 42
1.995808777202692
 10
215.3972388834045
 20
78.87703773706987
 42
1.995808777202692
  0
ENDSEC
  0
SECTION
  2
OBJECTS
  0
DICTIONARY
  5
C
330
0
100
AcDbDictionary
281
    1
  3
ACAD_GROUP
350
D
  0
DICTIONARY
  5
D
330
C
100
AcDbDictionary
281
    1
  0
ENDSEC
  0
EOF
