999
dxfrw 0.6.3
  0
SECTION
  2
HEADER
  9
$ACADVER
  1
AC1021
  9
$DWGCODEPAGE
  3
ANSI_1252
  9
$INSBASE
 10
0
 20
0
 30
0
  9
$EXTMIN
 10
-100
 20
-100
 30
0
  9
$EXTMAX
 10
100
 20
100
 30
0
  9
$LIMMIN
 10
0
 20
0
  9
$LIMMAX
 10
420
 20
297
  9
$ORTHOMODE
 70
    0
  9
$REGENMODE
 70
    1
  9
$FILLMODE
 70
    1
  9
$QTEXTMODE
 70
    0
  9
$MIRRTEXT
 70
    0
  9
$LTSCALE
 40
1
  9
$ATTMODE
 70
    0
  9
$TEXTSIZE
 40
2.5
  9
$TRACEWID
 40
15.68
  9
$TEXTSTYLE
  7
STANDARD
  9
$CLAYER
  8
0
  9
$CELTYPE
  6
BYLAYER
  9
$CECOLOR
 62
  256
  9
$CELTSCALE
 40
1
  9
$DISPSILH
 70
    0
  9
$DIMSCALE
 40
2.5
  9
$DIMASZ
 40
2.5
  9
$DIMEXO
 40
0.625
  9
$DIMDLI
 40
3.75
  9
$DIMRND
 40
0
  9
$DIMDLE
 40
0
  9
$DIMEXE
 40
1.25
  9
$DIMTP
 40
0
  9
$DIMTM
 40
0
  9
$DIMTXT
 40
2.5
  9
$DIMCEN
 40
2.5
  9
$DIMTSZ
 40
0
  9
$DIMTOL
 70
    0
  9
$DIMLIM
 70
    0
  9
$DIMTIH
 70
    0
  9
$DIMTOH
 70
    0
  9
$DIMSE1
 70
    0
  9
$DIMSE2
 70
    0
  9
$DIMTAD
 70
    1
  9
$DIMZIN
 70
    8
  9
$DIMBLK
  1

  9
$DIMASO
 70
    1
  9
$DIMSHO
 70
    1
  9
$DIMPOST
  1

  9
$DIMAPOST
  1

  9
$DIMALT
 70
    0
  9
$DIMALTD
 70
    3
  9
$DIMALTF
 40
0.03937
  9
$DIMLFAC
 40
1
  9
$DIMTOFL
 70
    1
  9
$DIMTVP
 40
0
  9
$DIMTIX
 70
    0
  9
$DIMSOXD
 70
    0
  9
$DIMSAH
 70
    0
  9
$DIMBLK1
  1

  9
$DIMBLK2
  1

  9
$DIMSTYLE
  2
Standard
  9
$DIMCLRD
 70
    0
  9
$DIMCLRE
 70
    0
  9
$DIMCLRT
 70
    0
  9
$DIMTFAC
 40
1
  9
$DIMGAP
 40
0.625
  9
$DIMJUST
 70
    0
  9
$DIMSD1
 70
    0
  9
$DIMSD2
 70
    0
  9
$DIMTOLJ
 70
    0
  9
$DIMTZIN
 70
    8
  9
$DIMALTZ
 70
    0
  9
$DIMALTTZ
 70
    0
  9
$DIMUPT
 70
    0
  9
$DIMDEC
 70
    2
  9
$DIMTDEC
 70
    2
  9
$DIMALTU
 70
    2
  9
$DIMALTTD
 70
    3
  9
$DIMTXSTY
  7
STANDARD
  9
$DIMAUNIT
 70
    0
  9
$DIMADEC
 70
    0
  9
$DIMALTRND
 40
0
  9
$DIMAZIN
 70
    0
  9
$DIMDSEP
 70
   44
  9
$DIMATFIT
 70
    3
  9
$DIMFRAC
 70
    0
  9
$DIMLDRBLK
  1
STANDARD
  9
$DIMLUNIT
 70
    2
  9
$DIMLWD
 70
   -2
  9
$DIMLWE
 70
   -2
  9
$DIMTMOVE
 70
    0
  9
$DIMFXL
 40
1
  9
$DIMFXLON
 70
    0
  9
$DIMJOGANG
 40
0.7854
  9
$DIMTFILL
 70
    0
  9
$DIMTFILLCLR
 70
    0
  9
$DIMARCSYM
 70
    0
  9
$DIMLTYPE
  6

  9
$DIMLTEX1
  6

  9
$DIMLTEX2
  6

  9
$LUNITS
 70
    2
  9
$LUPREC
 70
    4
  9
$SKETCHINC
 40
1
  9
$FILLETRAD
 40
0
  9
$AUNITS
 70
    0
  9
$AUPREC
 70
    2
  9
$MENU
  1
.
  9
$ELEVATION
 40
0
  9
$PELEVATION
 40
0
  9
$THICKNESS
 40
0
  9
$LIMCHECK
 70
    0
  9
$CHAMFERA
 40
0
  9
$CHAMFERB
 40
0
  9
$CHAMFERC
 40
0
  9
$CHAMFERD
 40
0
  9
$SKPOLY
 70
    0
  9
$USRTIMER
 70
    1
  9
$ANGBASE
 50
0
  9
$ANGDIR
 70
    0
  9
$PDMODE
 70
   34
  9
$PDSIZE
 40
0
  9
$PLINEWID
 40
0
  9
$SPLFRAME
 70
    0
  9
$SPLINETYPE
 70
    2
  9
$SPLINESEGS
 70
    8
  9
$HANDSEED
  5
20000
  9
$SURFTAB1
 70
    6
  9
$SURFTAB2
 70
    6
  9
$SURFTYPE
 70
    6
  9
$SURFU
 70
    6
  9
$SURFV
 70
    6
  9
$UCSBASE
  2

  9
$UCSNAME
  2

  9
$UCSORG
 10
0
 20
0
 30
0
  9
$UCSXDIR
 10
1
 20
0
 30
0
  9
$UCSYDIR
 10
0
 20
1
 30
0
  9
$UCSORTHOREF
  2

  9
$UCSORTHOVIEW
 70
    0
  9
$UCSORGTOP
 10
0
 20
0
 30
0
  9
$UCSORGBOTTOM
 10
0
 20
0
 30
0
  9
$UCSORGLEFT
 10
0
 20
0
 30
0
  9
$UCSORGRIGHT
 10
0
 20
0
 30
0
  9
$UCSORGFRONT
 10
0
 20
0
 30
0
  9
$UCSORGBACK
 10
0
 20
0
 30
0
  9
$PUCSBASE
  2

  9
$PUCSNAME
  2

  9
$PUCSORG
 10
0
 20
0
 30
0
  9
$PUCSXDIR
 10
1
 20
0
 30
0
  9
$PUCSYDIR
 10
0
 20
1
 30
0
  9
$PUCSORTHOREF
  2

  9
$PUCSORTHOVIEW
 70
    0
  9
$PUCSORGTOP
 10
0
 20
0
 30
0
  9
$PUCSORGBOTTOM
 10
0
 20
0
 30
0
  9
$PUCSORGLEFT
 10
0
 20
0
 30
0
  9
$PUCSORGRIGHT
 10
0
 20
0
 30
0
  9
$PUCSORGFRONT
 10
0
 20
0
 30
0
  9
$PUCSORGBACK
 10
0
 20
0
 30
0
  9
$USERI1
 70
    0
  9
$USERI2
 70
    0
  9
$USERI3
 70
    0
  9
$USERI4
 70
    0
  9
$USERI5
 70
    0
  9
$USERR1
 40
0
  9
$USERR2
 40
0
  9
$USERR3
 40
0
  9
$USERR4
 40
0
  9
$USERR5
 40
0
  9
$WORLDVIEW
 70
    1
  9
$SHADEDGE
 70
    3
  9
$SHADEDIF
 70
   70
  9
$TILEMODE
 70
    1
  9
$MAXACTVP
 70
   64
  9
$PINSBASE
 10
0
 20
0
 30
0
  9
$PLIMCHECK
 70
    0
  9
$PEXTMIN
 10
0
 20
0
 30
0
  9
$PEXTMAX
 10
0
 20
0
 30
0
  9
$GRIDMODE
 70
    1
  9
$SNAPSTYLE
 70
    0
  9
$PLIMMIN
 10
0
 20
0
  9
$PLIMMAX
 10
210
 20
297
  9
$UNITMODE
 70
    0
  9
$VISRETAIN
 70
    1
  9
$PLINEGEN
 70
    0
  9
$PSLTSCALE
 70
    1
  9
$TREEDEPTH
 70
 3020
  9
$CMLSTYLE
  2
Standard
  9
$CMLJUST
 70
    0
  9
$CMLSCALE
 40
20
  9
$PROXYGRAPHICS
 70
    1
  9
$MEASUREMENT
 70
    1
  9
$CELWEIGHT
370
   -1
  9
$ENDCAPS
280
    0
  9
$JOINSTYLE
280
    0
  9
$LWDISPLAY
290
    0
  9
$INSUNITS
 70
    4
  9
$HYPERLINKBASE
  1

  9
$STYLESHEET
  1

  9
$XEDIT
290
    1
  9
$CEPSNTYPE
380
    0
  9
$PSTYLEMODE
290
    1
  9
$EXTNAMES
290
    1
  9
$PSVPSCALE
 40
1
  9
$OLESTARTUP
290
    0
  9
$SORTENTS
280
  127
  9
$INDEXCTL
280
    0
  9
$HIDETEXT
280
    1
  9
$XCLIPFRAME
290
    0
  9
$HALOGAP
280
    0
  9
$OBSCOLOR
 70
  257
  9
$OBSLTYPE
280
    0
  9
$INTERSECTIONDISPLAY
280
    0
  9
$INTERSECTIONCOLOR
 70
  257
  9
$DIMASSOC
280
    1
  9
$PROJECTNAME
  1

  9
$CAMERADISPLAY
290
    0
  9
$LENSLENGTH
 40
50
  9
$CAMERAHEIGHT
 40
0
  9
$STEPSPERSEC
 40
2
  9
$STEPSIZE
 40
50
  9
$3DDWFPREC
 40
2
  9
$PSOLWIDTH
 40
5
  9
$PSOLHEIGHT
 40
80
  9
$LOFTANG1
 40
1.570796326794897
  9
$LOFTANG2
 40
1.570796326794897
  9
$LOFTMAG1
 40
0
  9
$LOFTMAG2
 40
0
  9
$LOFTPARAM
 70
    7
  9
$LOFTNORMALS
280
    1
  9
$LATITUDE
 40
1
  9
$LONGITUDE
 40
1
  9
$NORTHDIRECTION
 40
0
  9
$TIMEZONE
 70
-8000
  9
$LIGHTGLYPHDISPLAY
280
    1
  9
$TILEMODELIGHTSYNCH
280
    1
  9
$SOLIDHIST
280
    1
  9
$SHOWHIST
280
    1
  9
$DWFFRAME
280
    2
  9
$DGNFRAME
280
    0
  9
$REALWORLDSCALE
290
    1
  9
$INTERFERECOLOR
 62
    1
  9
$CSHADOW
280
    0
  9
$SHADOWPLANELOCATION
 40
0
  0
ENDSEC
  0
SECTION
  2
CLASSES
  0
ENDSEC
  0
SECTION
  2
TABLES
  0
TABLE
  2
VPORT
  5
8
330
0
100
AcDbSymbolTable
 70
    1
  0
VPORT
  5
31
330
2
100
AcDbSymbolTableRecord
100
AcDbViewportTableRecord
  2
*ACTIVE
 70
    0
 10
0
 20
0
 11
1
 21
1
 12
71.52658662092624
 22
50.85763293310463
 13
0
 23
0
 14
10
 24
10
 15
10
 25
10
 16
0
 26
0
 36
1
 17
0
 27
0
 37
0
 40
203.4305317324185
 41
1.406408094435076
 42
50
 43
0
 44
0
 50
0
 51
0
 71
    0
 72
  100
 73
    1
 74
    3
 75
    0
 76
    1
 77
    0
 78
    0
281
    0
 65
    1
110
0
120
0
130
0
111
1
121
0
131
0
112
0
122
1
132
0
 79
    0
146
0
348
10020
 60
    7
 61
    5
292
1
282
    1
141
0
142
0
 63
  250
421
3358443
  0
ENDTAB
  0
TABLE
  2
LTYPE
  5
5
330
0
100
AcDbSymbolTable
 70
    4
  0
LTYPE
  5
14
330
5
100
AcDbSymbolTableRecord
100
AcDbLinetypeTableRecord
  2
ByBlock
 70
    0
  3

 72
   65
 73
    0
 40
0
  0
LTYPE
  5
15
330
5
100
AcDbSymbolTableRecord
100
AcDbLinetypeTableRecord
  2
ByLayer
 70
    0
  3

 72
   65
 73
    0
 40
0
  0
LTYPE
  5
16
330
5
100
AcDbSymbolTableRecord
100
AcDbLinetypeTableRecord
  2
Continuous
 70
    0
  3
Solid line
 72
   65
 73
    0
 40
0
  0
LTYPE
  5
32
330
5
100
AcDbSymbolTableRecord
100
AcDbLinetypeTableRecord
  2
DOT
 70
    0
  3
Dot . . . . . . . . . . . . . . . . . . . . . .
 72
   65
 73
    2
 40
6.35
 49
0
 74
    0
 49
-6.35
 74
    0
  0
LTYPE
  5
33
330
5
100
AcDbSymbolTableRecord
100
AcDbLinetypeTableRecord
  2
DOTTINY
 70
    0
  3
Dot (.15x) .....................................
 72
   65
 73
    2
 40
0.9525
 49
0
 74
    0
 49
-0.9525
 74
    0
  0
LTYPE
  5
34
330
5
100
AcDbSymbolTableRecord
100
AcDbLinetypeTableRecord
  2
DOT2
 70
    0
  3
Dot (.5x) .....................................
 72
   65
 73
    2
 40
3.175
 49
0
 74
    0
 49
-3.175
 74
    0
  0
LTYPE
  5
35
330
5
100
AcDbSymbolTableRecord
100
AcDbLinetypeTableRecord
  2
DOTX2
 70
    0
  3
Dot (2x) .  .  .  .  .  .  .  .  .  .  .  .  .
 72
   65
 73
    2
 40
12.7
 49
0
 74
    0
 49
-12.7
 74
    0
  0
LTYPE
  5
36
330
5
100
AcDbSymbolTableRecord
100
AcDbLinetypeTableRecord
  2
DASHED
 70
    0
  3
Dashed _ _ _ _ _ _ _ _ _ _ _ _ _ _ _ _ _
 72
   65
 73
    2
 40
19.05
 49
12.7
 74
    0
 49
-6.35
 74
    0
  0
LTYPE
  5
37
330
5
100
AcDbSymbolTableRecord
100
AcDbLinetypeTableRecord
  2
DASHEDTINY
 70
    0
  3
Dashed (.15x) _ _ _ _ _ _ _ _ _ _ _ _ _ _ _ _ _
 72
   65
 73
    2
 40
2.8575
 49
1.905
 74
    0
 49
-0.9525
 74
    0
  0
LTYPE
  5
38
330
5
100
AcDbSymbolTableRecord
100
AcDbLinetypeTableRecord
  2
DASHED2
 70
    0
  3
Dashed (.5x) _ _ _ _ _ _ _ _ _ _ _ _ _ _ _ _ _
 72
   65
 73
    2
 40
9.524999999999999
 49
6.35
 74
    0
 49
-3.175
 74
    0
  0
LTYPE
  5
39
330
5
100
AcDbSymbolTableRecord
100
AcDbLinetypeTableRecord
  2
DASHEDX2
 70
    0
  3
Dashed (2x) ____  ____  ____  ____  ____  ___
 72
   65
 73
    2
 40
38.09999999999999
 49
25.4
 74
    0
 49
-12.7
 74
    0
  0
LTYPE
  5
3A
330
5
100
AcDbSymbolTableRecord
100
AcDbLinetypeTableRecord
  2
DASHDOT
 70
    0
  3
Dash dot __ . __ . __ . __ . __ . __ . __ . __
 72
   65
 73
    4
 40
25.4
 49
12.7
 74
    0
 49
-6.35
 74
    0
 49
0
 74
    0
 49
-6.35
 74
    0
  0
LTYPE
  5
3B
330
5
100
AcDbSymbolTableRecord
100
AcDbLinetypeTableRecord
  2
DASHDOTTINY
 70
    0
  3
Dash dot (.15x) _._._._._._._._._._._._._._._.
 72
   65
 73
    4
 40
3.81
 49
1.905
 74
    0
 49
-0.9525
 74
    0
 49
0
 74
    0
 49
-0.9525
 74
    0
  0
LTYPE
  5
3C
330
5
100
AcDbSymbolTableRecord
100
AcDbLinetypeTableRecord
  2
DASHDOT2
 70
    0
  3
Dash dot (.5x) _._._._._._._._._._._._._._._.
 72
   65
 73
    4
 40
12.7
 49
6.35
 74
    0
 49
-3.175
 74
    0
 49
0
 74
    0
 49
-3.175
 74
    0
  0
LTYPE
  5
3D
330
5
100
AcDbSymbolTableRecord
100
AcDbLinetypeTableRecord
  2
DASHDOTX2
 70
    0
  3
Dash dot (2x) ____  .  ____  .  ____  .  ___
 72
   65
 73
    4
 40
50.8
 49
25.4
 74
    0
 49
-12.7
 74
    0
 49
0
 74
    0
 49
-12.7
 74
    0
  0
LTYPE
  5
3E
330
5
100
AcDbSymbolTableRecord
100
AcDbLinetypeTableRecord
  2
DIVIDE
 70
    0
  3
Divide ____ . . ____ . . ____ . . ____ . . ____
 72
   65
 73
    6
 40
31.75
 49
12.7
 74
    0
 49
-6.35
 74
    0
 49
0
 74
    0
 49
-6.35
 74
    0
 49
0
 74
    0
 49
-6.35
 74
    0
  0
LTYPE
  5
3F
330
5
100
AcDbSymbolTableRecord
100
AcDbLinetypeTableRecord
  2
DIVIDETINY
 70
    0
  3
Divide (.15x) __..__..__..__..__..__..__..__.._
 72
   65
 73
    6
 40
4.7625
 49
1.905
 74
    0
 49
-0.9525
 74
    0
 49
0
 74
    0
 49
-0.9525
 74
    0
 49
0
 74
    0
 49
-0.9525
 74
    0
  0
LTYPE
  5
40
330
5
100
AcDbSymbolTableRecord
100
AcDbLinetypeTableRecord
  2
DIVIDE2
 70
    0
  3
Divide (.5x) __..__..__..__..__..__..__..__.._
 72
   65
 73
    6
 40
15.875
 49
6.35
 74
    0
 49
-3.175
 74
    0
 49
0
 74
    0
 49
-3.175
 74
    0
 49
0
 74
    0
 49
-3.175
 74
    0
  0
LTYPE
  5
41
330
5
100
AcDbSymbolTableRecord
100
AcDbLinetypeTableRecord
  2
DIVIDEX2
 70
    0
  3
Divide (2x) ________  .  .  ________  .  .  _
 72
   65
 73
    6
 40
63.5
 49
25.4
 74
    0
 49
-12.7
 74
    0
 49
0
 74
    0
 49
-12.7
 74
    0
 49
0
 74
    0
 49
-12.7
 74
    0
  0
LTYPE
  5
42
330
5
100
AcDbSymbolTableRecord
100
AcDbLinetypeTableRecord
  2
BORDER
 70
    0
  3
Border __ __ . __ __ . __ __ . __ __ . __ __ .
 72
   65
 73
    6
 40
44.45
 49
12.7
 74
    0
 49
-6.35
 74
    0
 49
12.7
 74
    0
 49
-6.35
 74
    0
 49
0
 74
    0
 49
-6.35
 74
    0
  0
LTYPE
  5
43
330
5
100
AcDbSymbolTableRecord
100
AcDbLinetypeTableRecord
  2
BORDERTINY
 70
    0
  3
Border (.15x) __.__.__.__.__.__.__.__.__.__.__.
 72
   65
 73
    6
 40
6.6675
 49
1.905
 74
    0
 49
-0.9525
 74
    0
 49
1.905
 74
    0
 49
-0.9525
 74
    0
 49
0
 74
    0
 49
-0.9525
 74
    0
  0
LTYPE
  5
44
330
5
100
AcDbSymbolTableRecord
100
AcDbLinetypeTableRecord
  2
BORDER2
 70
    0
  3
Border (.5x) __.__.__.__.__.__.__.__.__.__.__.
 72
   65
 73
    6
 40
22.225
 49
6.35
 74
    0
 49
-3.175
 74
    0
 49
6.35
 74
    0
 49
-3.175
 74
    0
 49
0
 74
    0
 49
-3.175
 74
    0
  0
LTYPE
  5
45
330
5
100
AcDbSymbolTableRecord
100
AcDbLinetypeTableRecord
  2
BORDERX2
 70
    0
  3
Border (2x) ____  ____  .  ____  ____  .  ___
 72
   65
 73
    6
 40
88.89999999999999
 49
25.4
 74
    0
 49
-12.7
 74
    0
 49
25.4
 74
    0
 49
-12.7
 74
    0
 49
0
 74
    0
 49
-12.7
 74
    0
  0
LTYPE
  5
46
330
5
100
AcDbSymbolTableRecord
100
AcDbLinetypeTableRecord
  2
CENTER
 70
    0
  3
Center ____ _ ____ _ ____ _ ____ _ ____ _ ____
 72
   65
 73
    4
 40
50.8
 49
31.75
 74
    0
 49
-6.35
 74
    0
 49
6.35
 74
    0
 49
-6.35
 74
    0
  0
LTYPE
  5
47
330
5
100
AcDbSymbolTableRecord
100
AcDbLinetypeTableRecord
  2
CENTERTINY
 70
    0
  3
Center (.15x) ___ _ ___ _ ___ _ ___ _ ___ _ ___
 72
   65
 73
    4
 40
7.619999999999999
 49
4.7625
 74
    0
 49
-0.9525
 74
    0
 49
0.9525
 74
    0
 49
-0.9525
 74
    0
  0
LTYPE
  5
48
330
5
100
AcDbSymbolTableRecord
100
AcDbLinetypeTableRecord
  2
CENTER2
 70
    0
  3
Center (.5x) ___ _ ___ _ ___ _ ___ _ ___ _ ___
 72
   65
 73
    4
 40
28.575
 49
19.05
 74
    0
 49
-3.175
 74
    0
 49
3.175
 74
    0
 49
-3.175
 74
    0
  0
LTYPE
  5
49
330
5
100
AcDbSymbolTableRecord
100
AcDbLinetypeTableRecord
  2
CENTERX2
 70
    0
  3
Center (2x) ________  __  ________  __  _____
 72
   65
 73
    4
 40
101.6
 49
63.5
 74
    0
 49
-12.7
 74
    0
 49
12.7
 74
    0
 49
-12.7
 74
    0
  0
ENDTAB
  0
TABLE
  2
LAYER
  5
2
330
0
100
AcDbSymbolTable
 70
    1
  0
LAYER
  5
10
330
2
100
AcDbSymbolTableRecord
100
AcDbLayerTableRecord
  2
0
 70
    0
 62
    7
  6
CONTINUOUS
370
   -3
390
F
  0
LAYER
  5
4A
330
2
100
AcDbSymbolTableRecord
100
AcDbLayerTableRecord
  2
Layer_1
 70
    0
 62
    7
  6
CONTINUOUS
370
   -3
390
F
  0
ENDTAB
  0
TABLE
  2
STYLE
  5
3
330
0
100
AcDbSymbolTable
 70
    3
  0
STYLE
  5
4B
330
2
100
AcDbSymbolTableRecord
100
AcDbTextStyleTableRecord
  2
Standard
 70
    0
 40
0
 41
1
 50
0
 71
    0
 42
1
  3
txt
  4

  0
ENDTAB
  0
TABLE
  2
VIEW
  5
6
330
0
100
AcDbSymbolTable
 70
    0
  0
ENDTAB
  0
TABLE
  2
UCS
  5
7
330
0
100
AcDbSymbolTable
 70
    0
  0
ENDTAB
  0
TABLE
  2
APPID
  5
9
330
0
100
AcDbSymbolTable
 70
    1
  0
APPID
  5
12
330
9
100
AcDbSymbolTableRecord
100
AcDbRegAppTableRecord
  2
ACAD
 70
    0
  0
APPID
  5
4C
330
9
100
AcDbSymbolTableRecord
100
AcDbRegAppTableRecord
  2
LibreCad
 70
    0
  0
ENDTAB
  0
TABLE
  2
DIMSTYLE
  5
A
330
0
100
AcDbSymbolTable
 70
    1
100
AcDbDimStyleTable
 71
    1
  0
DIMSTYLE
105
4D
330
A
100
AcDbSymbolTableRecord
100
AcDbDimStyleTableRecord
  2
Standard
 70
    0
 40
1
 41
2.5
 42
0.625
 43
0.38
 44
1.25
 45
0
 46
0
 47
0
 48
0
 49
1
140
2.5
141
0.09
142
2.5
143
25.4
144
1
145
0
146
1
147
0.625
148
0
 71
    0
 72
    0
 73
    0
 74
    1
 75
    0
 76
    0
 77
    0
 78
    1
 79
    0
170
    0
171
    2
172
    0
173
    0
174
    0
175
    0
176
    0
177
    0
178
    0
179
    0
271
    2
272
    4
273
    2
274
    2
275
    0
276
    0
277
    2
278
    0
279
    0
280
    0
281
    0
282
    0
283
    1
284
    0
285
    0
286
    0
288
    0
289
    3
340
standard
341

371
   -2
372
   -2
  0
ENDTAB
  0
TABLE
  2
BLOCK_RECORD
  5
1
330
0
100
AcDbSymbolTable
 70
    2
  0
BLOCK_RECORD
  5
1F
330
1
100
AcDbSymbolTableRecord
100
AcDbBlockTableRecord
  2
*Model_Space
 70
    0
280
    1
281
    0
  0
BLOCK_RECORD
  5
1E
330
1
100
AcDbSymbolTableRecord
100
AcDbBlockTableRecord
  2
*Paper_Space
 70
    0
280
    1
281
    0
  0
ENDTAB
  0
ENDSEC
  0
SECTION
  2
BLOCKS
  0
BLOCK
  5
20
330
1F
100
AcDbEntity
  8
0
100
AcDbBlockBegin
  2
*Model_Space
 70
    0
 10
0
 20
0
 30
0
  3
*Model_Space
  1

  0
ENDBLK
  5
21
330
1F
100
AcDbEntity
  8
0
100
AcDbBlockEnd
  0
BLOCK
  5
1C
330
1B
100
AcDbEntity
  8
0
100
AcDbBlockBegin
  2
*Paper_Space
 70
    0
 10
0
 20
0
 30
0
  3
*Paper_Space
  1

  0
ENDBLK
  5
1D
330
1F
100
AcDbEntity
  8
0
100
AcDbBlockEnd
  0
ENDSEC
  0
SECTION
  2
ENTITIES
  0
CIRCLE
  5
4E
100
AcDbEntity
  8
0
  6
ByLayer
 62
  256
370
   -1
100
AcDbCircle
 10
0
 20
0
 40
100
  0
LWPOLYLINE
  5
4F
100
AcDbEntity
  8
0
  6
ByLayer
 62
    7
370
   -1
100
AcDbPolyline
 90
  111
 70
    1
 43
0
 10
-67.4739036
 20
31.503552
 10
-62.5737288
 20
41.44909199999999
 10
-56.2673184
 20
54.58412400000001
 10
-43.49525879999999
 20
66.640776
 10
-30.985476
 20
72.69193199999998
 10
-15.3470772
 20
75.413076
 10
3.470291999999995
 20
75.45987599999999
 10
17.023332
 20
72.88040399999998
 10
27.761568
 20
67.53178799999999
 10
40.636656
 20
59.88587999999999
 10
50.384316
 20
51.11240400000001
 10
57.108732
 20
38.72790000000001
 10
61.12254
 20
25.546032
 10
64.04157599999998
 20
9.830351999999992
 10
65.53090800000001
 20
-6.067980000000006
 10
66.64792799999999
 20
-15.127152
 10
69.41006400000001
 20
-20.28726
 10
72.954348
 20
-24.27414
 10
76.03027200000001
 20
-29.106396
 10
71.65114800000001
 20
-27.182628
 10
66.69945599999998
 20
-23.008404
 10
68.57638799999998
 20
-27.464808
 10
72.17336400000001
 20
-33.98549999999999
 10
75.19659599999999
 20
-43.320996
 10
75.24807599999998
 20
-52.422312
 10
70.87012799999998
 20
-60.631428
 10
72.01642799999999
 20
-49.0443
 10
69.09739200000001
 20
-42.570456
 10
69.044712
 20
-47.590056
 10
66.59521200000002
 20
-53.734884
 10
62.47718400000001
 20
-58.286136
 10
58.567584
 20
-61.898328
 10
59.97500400000001
 20
-56.785056
 10
60.13190399999998
 20
-50.59221599999999
 10
57.62971199999998
 20
-55.564992
 10
54.18963599999999
 20
-61.147788
 10
50.74838400000001
 20
-65.322
 10
49.967412
 20
-59.31769199999999
 10
49.02835199999998
 20
-55.752324
 10
46.73458800000001
 20
-52.186968
 10
45.01454400000001
 20
-57.910272
 10
41.78289600000002
 20
-61.47564
 10
37.248036
 20
-66.87109199999999
 10
37.873296
 20
-60.584592
 10
36.25746
 20
-56.081352
 10
34.43321999999998
 20
-52.515984
 10
32.139444
 20
-58.00394399999999
 10
29.74145999999999
 20
-61.898328
 10
24.581352
 20
-66.26106
 10
25.572
 20
-60.77189999999999
 10
26.35416
 20
-54.01704
 10
25.936152
 20
-47.730528
 10
24.16459199999999
 20
-43.977828
 10
18.27385200000001
 20
-49.794816
 10
9.882083999999992
 20
-53.594352
 10
0.3943679999999915
 20
-57.53556
 10
-9.770129999999995
 20
-58.379772
 10
-23.8957404
 20
-56.40916799999999
 10
-32.7582012
 20
-54.627072
 10
-40.6804392
 20
-50.49851999999999
 10
-39.5868288
 20
-55.7523
 10
-40.57623
 20
-61.52243999999999
 10
-42.40164719999999
 20
-68.79365999999999
 10
-44.746938
 20
-62.88301199999999
 10
-47.9785932
 20
-59.22398399999999
 10
-49.69862879999999
 20
-57.393888
 10
-48.8649564
 20
-62.929848
 10
-49.177584
 20
-66.354696
 10
-50.0639472
 20
-67.94944799999999
 10
-52.6703472
 20
-62.46032399999999
 10
-54.494592
 20
-59.03663999999999
 10
-55.64089319999999
 20
-56.878692
 10
-54.5461116
 20
-62.13247199999999
 10
-53.7651276
 20
-67.668432
 10
-59.186346
 20
-62.88301199999999
 10
-65.805384
 20
-55.939632
 10
-64.1895564
 20
-61.898292
 10
-63.77271959999999
 20
-66.729384
 10
-67.10858399999999
 20
-61.475604
 10
-69.97609199999999
 20
-57.25338
 10
-70.91397359999999
 20
-52.37427599999999
 10
-70.1329908
 20
-47.777364
 10
-67.2654828
 20
-43.55513999999999
 10
-64.2937656
 20
-39.896112
 10
-62.8863564
 20
-36.847116
 10
-63.77271959999999
 20
-31.217484
 10
-64.86750120000001
 20
-25.963704
 10
-66.27549599999999
 20
-21.530124
 10
-66.7444368
 20
-16.29918
 10
-67.42238159999999
 20
-12.171792
 10
-68.934
 20
-7.433207999999996
 10
-70.18451039999999
 20
-2.600940000000003
 10
-70.91397359999999
 20
2.418660000000005
 10
-71.64460919999999
 20
4.904460000000006
 10
-72.582492
 20
0.3543840000000045
 10
-73.6245828
 20
-4.290540000000004
 10
-74.2510092
 20
-8.79378
 10
-75.5114712
 20
-12.64542
 10
-75.91835519999999
 20
-15.83082
 10
-76.9089276
 20
-19.8177
 10
-78.68165399999999
 20
-14.470248
 10
-79.46263799999998
 20
-9.872159999999996
 10
-80.5059
 20
-5.651112
 10
-80.0890632
 20
-0.302484000000004
 10
-80.244792
 20
5.327147999999999
 10
-79.66227359999999
 20
11.19798
 10
-77.7952896
 20
16.39790399999999
 10
-76.179462
 20
22.214892
 10
-72.8951172
 20
27.61034399999999
 10
-71.33080919999999
 20
29.955636
 10
-67.4739
 20
29.768292
  0
LWPOLYLINE
  5
50
100
AcDbEntity
  8
0
  6
ByLayer
 62
    7
370
   -1
100
AcDbPolyline
 90
   47
 70
    1
 43
0
 10
-54.67081080000001
 20
40.587312
 10
-49.4316672
 20
40.56391199999999
 10
-45.7047252
 20
45.72402
 10
-42.5509344
 20
49.43047199999999
 10
-39.7361196
 20
51.518172
 10
-37.54714079999999
 20
50.83788000000001
 10
-33.6633
 20
48.82044
 10
-31.1616948
 20
51.259992
 10
-28.42474080000001
 20
53.51161200000001
 10
-24.6978012
 20
54.3324
 10
-21.1008288
 20
54.684252
 10
-18.23390519999999
 20
53.55844800000001
 10
-14.5333092
 20
51.283404
 10
-11.79635400000001
 20
48.867276
 10
-11.40528
 20
51.682092
 10
-8.434147200000007
 20
51.98710800000001
 10
-4.186158000000006
 20
51.470748
 10
0.7397759999999948
 20
49.40706
 10
2.069315999999997
 20
51.65868
 10
5.796263999999996
 20
51.98710800000001
 10
9.471095999999994
 20
50.134176
 10
13.69332000000001
 20
48.468588
 10
15.36126
 20
47.17826399999999
 10
17.472372
 20
48.56225999999999
 10
19.401408
 20
49.219128
 10
20.6004
 20
48.515424
 10
24.900492
 20
46.123296
 10
28.86219599999999
 20
44.15269199999999
 10
32.015988
 20
40.986012
 10
34.28341200000001
 20
37.2099
 10
37.87979999999999
 20
32.471892
 10
40.40833199999999
 20
28.48443600000001
 10
42.93628799999999
 20
24.00402
 10
44.00473200000001
 20
20.67343200000001
 10
42.93628799999999
 20
28.883124
 10
40.61675999999999
 20
35.75565599999999
 10
36.290316
 20
42.933204
 10
30.79065599999999
 20
48.914112
 10
24.770532
 20
53.58186
 10
16.482384
 20
57.897756
 10
7.177332000000001
 20
60.71258399999999
 10
-3.326141999999993
 20
62.683188
 10
-14.9238024
 20
62.823684
 10
-24.82835400000001
 20
62.40158400000001
 10
-35.93131320000001
 20
58.39070399999999
 10
-43.7762712
 20
53.58186
 10
-50.5264488
 20
47.55411599999999
  0
LWPOLYLINE
  5
51
100
AcDbEntity
  8
0
  6
ByLayer
 62
    7
370
   -1
100
AcDbPolyline
 90
   11
 70
    1
 43
0
 10
-21.570354
 20
-28.748652
 10
-4.264025999999995
 20
-28.584144
 10
-4.863519599999995
 20
-32.876628
 10
-6.792560399999997
 20
-36.62991599999999
 10
-9.059986799999995
 20
-38.83470000000001
 10
-12.10898399999999
 20
-39.49097999999999
 10
-14.6111724
 20
-39.280224
 10
-16.748634
 20
-37.82598
 10
-18.2860104
 20
-35.9022
 10
-19.9024212
 20
-32.595024
 10
-21.04872360000001
 20
-30.01497599999999
  0
LWPOLYLINE
  5
52
100
AcDbEntity
  8
0
  6
ByLayer
 62
    7
370
   -1
100
AcDbPolyline
 90
   16
 70
    1
 43
0
 10
-42.9162528
 20
1.650564000000008
 10
-33.37701599999999
 20
2.237172000000004
 10
-32.4906552
 20
-10.429512
 10
-33.6375408
 20
-11.813496
 10
-42.3003636
 20
-12.343908
 10
-42.9162528
 20
1.650564000000008
 10
-42.9162528
 20
1.650564000000008
 10
-42.9162528
 20
1.650564000000008
 10
-42.9162528
 20
1.650564000000008
 10
-42.9162528
 20
1.650564000000008
 10
-49.327458
 20
-3.979079999999999
 10
-49.22324999999999
 20
-5.433324000000004
 10
-45.83528399999999
 20
-12.564036
 10
-42.300366
 20
-12.343908
 10
-42.300366
 20
-12.343908
 10
-42.9162552
 20
1.650564000000008
  0
LWPOLYLINE
  5
53
100
AcDbEntity
  8
0
  6
ByLayer
 62
    7
370
   -1
100
AcDbPolyline
 90
    4
 70
    1
 43
0
 10
4.362503999999995
 20
1.510056000000003
 10
15.231288
 20
1.720812000000001
 10
15.231288
 20
-11.01553199999999
 10
4.336752000000007
 20
-11.437644
  0
LWPOLYLINE
  5
54
100
AcDbEntity
  8
0
  6
ByLayer
 62
    7
370
   -1
100
AcDbPolyline
 90
    6
 70
    1
 43
0
 10
15.231288
 20
1.720812000000001
 10
18.515052
 20
1.650612000000007
 10
22.73727600000001
 20
-4.541640000000001
 10
22.732476
 20
-8.342352
 10
20.73200399999999
 20
-10.862688
 10
15.231756
 20
-11.015484
  0
LWPOLYLINE
  5
55
100
AcDbEntity
  8
0
  6
ByLayer
 62
    7
370
   -1
100
AcDbPolyline
 90
   56
 70
    1
 43
0
 10
-40.6804404
 20
-50.49851999999999
 10
-32.75820239999999
 20
-54.627072
 10
-23.52515399999999
 20
-56.309052
 10
-9.770129999999995
 20
-58.37977200000001
 10
-5.437255200000004
 20
-57.669624
 10
0.3943679999999915
 20
-57.53556
 10
0.3943679999999915
 20
-57.53556
 10
9.366887999999999
 20
-53.61190800000001
 10
18.27385200000001
 20
-49.794816
 10
24.16459199999999
 20
-43.977828
 10
23.362536
 20
-40.969224
 10
21.43407599999999
 20
-34.72956
 10
20.339292
 20
-32.266596
 10
20.443452
 20
-28.18545599999999
 10
23.28462000000001
 20
-25.863588
 10
25.6305
 20
-22.767168
 10
28.966356
 20
-17.27862
 10
29.95693200000001
 20
-12.798216
 10
30.97325999999999
 20
-6.723059999999992
 10
30.738504
 20
-0.5073960000000056
 10
29.04481199999999
 20
3.972432000000003
 10
24.56148
 20
12.135288
 10
19.19294399999999
 20
20.93158799999999
 10
19.010292
 20
12.81557999999999
 10
17.94184799999999
 20
5.474100000000004
 10
13.87593600000001
 20
13.354776
 10
9.992100000000004
 20
20.555736
 10
5.092511999999993
 20
29.000196
 10
2.017176000000006
 20
34.06663199999999
 10
3.059255999999999
 20
26.630904
 10
5.092511999999993
 20
20.01653999999999
 10
7.020960000000008
 20
13.94138399999999
 10
8.950008000000008
 20
6.975180000000006
 10
1.730303999999995
 20
13.94138399999999
 10
-4.134102000000007
 20
20.27472
 10
-9.112140000000005
 20
27.12384
 10
-12.0048228
 20
32.260536
 10
-11.1711492
 20
22.010568
 10
-10.57165319999999
 20
12.46372799999999
 10
-9.763738799999999
 20
1.462632000000008
 10
-18.72923999999999
 20
9.343883999999997
 10
-24.802056
 20
16.82645999999999
 10
-30.19693079999999
 20
25.15323599999999
 10
-28.68531359999999
 20
13.284516
 10
-26.9131716
 20
3.456659999999999
 10
-25.297344
 20
-2.665343999999999
 10
-35.61814800000001
 20
7.420704000000001
 10
-42.264702
 20
16.05249600000001
 10
-45.3400416
 20
21.72896400000001
 10
-50.7612588
 20
8.804699999999997
 10
-54.7750692
 20
-1.187675999999993
 10
-54.9050376
 20
-3.932244000000003
 10
-54.2013336
 20
-14.065116
 10
-52.8981324
 20
-23.70564
 10
-50.1354192
 20
-33.55692
 10
-45.9916416
 20
-43.197432
  0
ENDSEC
  0
SECTION
  2
OBJECTS
  0
DICTIONARY
  5
C
330
0
100
AcDbDictionary
281
    1
  3
ACAD_GROUP
350
D
  0
DICTIONARY
  5
D
330
C
100
AcDbDictionary
281
    1
  0
ENDSEC
  0
EOF
